<svg xmlns="http://www.w3.org/2000/svg" xmlns:xlink="http://www.w3.org/1999/xlink" fill="none" version="1.1" width="32" height="32" viewBox="0 0 32 32"><g><g></g><g><path d="M16.00003349227905,16.00003349227905C18.945533492279054,16.00003349227905,21.333333492279053,13.612183492279053,21.333333492279053,10.666663492279053C21.333333492279053,7.721143492279053,18.945533492279054,5.333333492279053,16.00003349227905,5.333333492279053C13.054483492279052,5.333333492279053,10.666663492279053,7.721143492279053,10.666663492279053,10.666663492279053C10.666663492279053,13.612183492279053,13.054483492279052,16.00003349227905,16.00003349227905,16.00003349227905C16.00003349227905,16.00003349227905,16.00003349227905,16.00003349227905,16.00003349227905,16.00003349227905ZM6.359093492279053,21.580433492279052C4.804188492279053,23.217233492279053,4.995231492279053,25.653333492279053,7.0814634922790525,26.555533492279054C8.850103492279054,27.320433492279054,11.646463492279054,28.00003349227905,16.00003349227905,28.00003349227905C20.353533492279055,28.00003349227905,23.149933492279054,27.320433492279054,24.918533492279053,26.555533492279054C27.00473349227905,25.653333492279053,27.195833492279053,23.217233492279053,25.640933492279053,21.580433492279052C23.764333492279054,19.604933492279052,20.60513349227905,17.333333492279053,16.00003349227905,17.333333492279053C11.394833492279052,17.333333492279053,8.235683492279053,19.604933492279052,6.359093492279053,21.580433492279052C6.359093492279053,21.580433492279052,6.359093492279053,21.580433492279052,6.359093492279053,21.580433492279052Z" fill="#CED4DA" fill-opacity="1"/></g></g></svg>