<svg xmlns="http://www.w3.org/2000/svg" xmlns:xlink="http://www.w3.org/1999/xlink" fill="none" version="1.1" width="32" height="32" viewBox="0 0 32 32"><g><g></g><g><path d="M14.710899761581421,4.335287761581421C14.349599761581421,4.536892761581421,14.011299761581421,4.898775761581421,13.334879761581421,5.622539761581421C13.03012976158142,5.948619761581421,12.87773976158142,6.111659761581421,12.70824976158142,6.242559761581421C12.33620976158142,6.529909761581421,11.894329761581421,6.712939761581421,11.42806976158142,6.772829761581421C11.21565976158142,6.800119761581421,10.99261976158142,6.792579761581421,10.54654976158142,6.77750976158142C9.55644976158142,6.7440497615814206,9.06139976158142,6.727309761581421,8.66333976158142,6.840269761581421C7.7806497615814205,7.090739761581421,7.090739761581421,7.7806497615814205,6.840269761581421,8.66333976158142C6.727309761581421,9.06139976158142,6.7440497615814206,9.55644976158142,6.77750976158142,10.54654976158142C6.792579761581421,10.99261976158142,6.800119761581421,11.21565976158142,6.772829761581421,11.42806976158142C6.712939761581421,11.894329761581421,6.529909761581421,12.33620976158142,6.242559761581421,12.70824976158142C6.111659761581421,12.87773976158142,5.948619761581421,13.030119761581421,5.622549761581421,13.334879761581421C4.8987807615814205,14.011299761581421,4.536892761581421,14.349599761581421,4.335287761581421,14.710899761581421C3.888236761581421,15.51219976158142,3.888236761581421,16.48779976158142,4.335287761581421,17.28909976158142C4.536892761581421,17.65039976158142,4.898775761581421,17.988699761581422,5.622539761581421,18.665099761581423C5.948609761581421,18.969899761581424,6.111659761581421,19.12229976158142,6.242559761581421,19.29169976158142C6.529909761581421,19.663799761581423,6.712939761581421,20.10569976158142,6.772829761581421,20.57189976158142C6.800119761581421,20.784299761581423,6.792579761581421,21.00739976158142,6.77750976158142,21.45339976158142C6.7440497615814206,22.44349976158142,6.727309761581421,22.938599761581422,6.840269761581421,23.33669976158142C7.090739761581421,24.21939976158142,7.7806497615814205,24.909299761581423,8.66333976158142,25.15969976158142C9.06139976158142,25.27269976158142,9.55644976158142,25.25599976158142,10.54654976158142,25.22249976158142C10.992569761581422,25.20739976158142,11.21566976158142,25.19989976158142,11.42806976158142,25.22719976158142C11.894329761581421,25.28709976158142,12.33620976158142,25.47009976158142,12.70824976158142,25.75739976158142C12.87773976158142,25.888299761581422,13.030119761581421,26.051399761581422,13.334879761581421,26.377499761581422C14.011299761581421,27.10119976158142,14.349599761581421,27.46309976158142,14.710899761581421,27.66469976158142C15.51219976158142,28.11179976158142,16.48779976158142,28.11179976158142,17.28909976158142,27.66469976158142C17.65039976158142,27.46309976158142,17.988699761581422,27.10119976158142,18.665099761581423,26.377499761581422C18.969899761581424,26.051399761581422,19.12229976158142,25.888299761581422,19.29169976158142,25.75739976158142C19.663799761581423,25.47009976158142,20.10569976158142,25.28709976158142,20.57189976158142,25.22719976158142C20.784299761581423,25.19989976158142,21.00739976158142,25.20739976158142,21.45339976158142,25.22249976158142C22.44349976158142,25.25599976158142,22.938599761581422,25.27269976158142,23.33669976158142,25.15969976158142C24.21939976158142,24.909299761581423,24.909299761581423,24.21939976158142,25.15969976158142,23.33669976158142C25.27269976158142,22.938599761581422,25.25599976158142,22.44349976158142,25.22249976158142,21.45339976158142C25.20739976158142,21.00739976158142,25.19989976158142,20.784299761581423,25.22719976158142,20.57189976158142C25.28709976158142,20.10569976158142,25.47009976158142,19.663799761581423,25.75739976158142,19.29169976158142C25.888299761581422,19.12229976158142,26.051399761581422,18.969899761581424,26.377499761581422,18.665099761581423C27.10119976158142,17.988699761581422,27.46309976158142,17.65039976158142,27.66469976158142,17.28909976158142C28.11179976158142,16.48779976158142,28.11179976158142,15.51219976158142,27.66469976158142,14.710899761581421C27.46309976158142,14.349599761581421,27.10119976158142,14.011299761581421,26.377499761581422,13.334879761581421C26.051399761581422,13.030119761581421,25.888299761581422,12.87773976158142,25.75739976158142,12.70824976158142C25.47009976158142,12.33620976158142,25.28709976158142,11.894329761581421,25.22719976158142,11.42806976158142C25.19989976158142,11.21566976158142,25.20739976158142,10.992649761581422,25.22249976158142,10.546629761581421C25.25599976158142,9.556529761581421,25.27269976158142,9.06139976158142,25.15969976158142,8.66333976158142C24.909299761581423,7.7806497615814205,24.21939976158142,7.090739761581421,23.33669976158142,6.840269761581421C22.938599761581422,6.727309761581421,22.44349976158142,6.7440497615814206,21.45339976158142,6.77750976158142C21.00739976158142,6.792579761581421,20.784299761581423,6.800119761581421,20.57189976158142,6.772829761581421C20.10569976158142,6.712939761581421,19.663799761581423,6.529909761581421,19.29169976158142,6.242559761581421C19.12229976158142,6.111659761581421,18.969899761581424,5.948619761581421,18.665099761581423,5.622559761581421C17.988699761581422,4.898790761581421,17.65039976158142,4.536892761581421,17.28909976158142,4.335287761581421C16.48779976158142,3.888236761581421,15.51219976158142,3.888236761581421,14.710899761581421,4.335287761581421C14.710899761581421,4.335287761581421,14.710899761581421,4.335287761581421,14.710899761581421,4.335287761581421ZM15.999999761581421,19.99999976158142C18.20909976158142,19.99999976158142,19.99999976158142,18.20909976158142,19.99999976158142,15.999999761581421C19.99999976158142,13.790859761581421,18.20909976158142,11.999999761581421,15.999999761581421,11.999999761581421C13.790859761581421,11.999999761581421,11.999999761581421,13.790859761581421,11.999999761581421,15.999999761581421C11.999999761581421,18.20909976158142,13.790859761581421,19.99999976158142,15.999999761581421,19.99999976158142C15.999999761581421,19.99999976158142,15.999999761581421,19.99999976158142,15.999999761581421,19.99999976158142Z" fill-rule="evenodd" fill="#CED4DA" fill-opacity="1"/></g></g></svg>