<svg xmlns="http://www.w3.org/2000/svg" xmlns:xlink="http://www.w3.org/1999/xlink" fill="none" version="1.1" width="24" height="24" viewBox="0 0 24 24"><g><g></g><g><path d="M12,21Q12.22094,21,12.44161,20.9892Q12.66228,20.9783,12.88215,20.9567Q13.102,20.935,13.3206,20.9026Q13.5391,20.8702,13.7558,20.8271Q13.9725,20.784,14.1868,20.7303Q14.4011,20.6766,14.6126,20.6125Q14.824,20.5483,15.032,20.4739Q15.24,20.3995,15.4441,20.3149Q15.6483,20.2304,15.848,20.1359Q16.0477,20.0414,16.2426,19.9373Q16.4374,19.8331,16.6269,19.7196Q16.8164,19.606,17.0001,19.4832Q17.183799999999998,19.3605,17.3613,19.2289Q17.538800000000002,19.0973,17.7095,18.9571Q17.8803,18.8169,18.044,18.668599999999998Q18.207700000000003,18.520200000000003,18.364,18.364Q18.520200000000003,18.207700000000003,18.668599999999998,18.044Q18.8169,17.8803,18.9571,17.7095Q19.0973,17.538800000000002,19.2289,17.3613Q19.3605,17.183799999999998,19.4832,17.0001Q19.606,16.8164,19.7196,16.6269Q19.8331,16.4374,19.9373,16.2426Q20.0414,16.0477,20.1359,15.848Q20.2304,15.6483,20.3149,15.4441Q20.3995,15.24,20.4739,15.032Q20.5483,14.824,20.6125,14.6126Q20.6766,14.4011,20.7303,14.1868Q20.784,13.9725,20.8271,13.7558Q20.8702,13.5391,20.9026,13.3206Q20.935,13.102,20.9567,12.88215Q20.9783,12.66228,20.9892,12.44161Q21,12.22094,21,12Q21,11.77906,20.9892,11.55839Q20.9783,11.33772,20.9567,11.11785Q20.935,10.89797,20.9026,10.67943Q20.8702,10.46088,20.8271,10.24419Q20.784,10.02749,20.7303,9.81318Q20.6766,9.59886,20.6125,9.38744Q20.5483,9.17601,20.4739,8.96799Q20.3995,8.75997,20.3149,8.55585Q20.2304,8.35173,20.1359,8.152000000000001Q20.0414,7.95228,19.9373,7.75743Q19.8331,7.56258,19.7196,7.37308Q19.606,7.18357,19.4832,6.99987Q19.3605,6.81616,19.2289,6.63871Q19.0973,6.46125,18.9571,6.2904599999999995Q18.8169,6.11967,18.668599999999998,5.955970000000001Q18.520200000000003,5.79227,18.364,5.6360399999999995Q18.207700000000003,5.4798100000000005,18.044,5.331440000000001Q17.8803,5.18307,17.7095,5.04291Q17.538800000000002,4.90274,17.3613,4.77113Q17.183799999999998,4.63952,17.0001,4.51677Q16.8164,4.39403,16.6269,4.2804400000000005Q16.4374,4.16686,16.2426,4.06271Q16.0477,3.958559,15.848,3.864096Q15.6483,3.769633,15.4441,3.685084Q15.24,3.600535,15.032,3.526103Q14.824,3.451672,14.6126,3.387537Q14.4011,3.323402,14.1868,3.269719Q13.9725,3.216035,13.7558,3.172932Q13.5391,3.12983,13.3206,3.0974114Q13.102,3.0649931,12.88215,3.0433375Q12.66228,3.0216818,12.44161,3.0108409Q12.22094,3,12,3Q11.77906,3,11.55839,3.0108409Q11.33772,3.0216818,11.11785,3.0433375Q10.89797,3.0649931,10.67943,3.0974114Q10.46088,3.12983,10.24419,3.172932Q10.02749,3.216035,9.81318,3.269719Q9.59886,3.323402,9.38744,3.387537Q9.17601,3.451672,8.96799,3.526103Q8.75997,3.600535,8.55585,3.685084Q8.35173,3.769633,8.152000000000001,3.864096Q7.95228,3.958559,7.75743,4.06271Q7.56258,4.16686,7.37308,4.2804400000000005Q7.18357,4.39403,6.99987,4.51677Q6.81616,4.63952,6.63871,4.77113Q6.46125,4.90274,6.2904599999999995,5.04291Q6.11967,5.18307,5.955970000000001,5.331440000000001Q5.79227,5.4798100000000005,5.6360399999999995,5.6360399999999995Q5.4798100000000005,5.79227,5.331440000000001,5.955970000000001Q5.18307,6.11967,5.04291,6.2904599999999995Q4.90274,6.46125,4.77113,6.63871Q4.63952,6.81616,4.51677,6.99987Q4.39403,7.18357,4.2804400000000005,7.37308Q4.16686,7.56258,4.06271,7.75743Q3.958559,7.95228,3.864096,8.152000000000001Q3.769633,8.35173,3.685084,8.55585Q3.600535,8.75997,3.526103,8.96799Q3.451672,9.17601,3.387537,9.38744Q3.323402,9.59886,3.269719,9.81318Q3.216035,10.02749,3.172932,10.24419Q3.12983,10.46088,3.0974114,10.67943Q3.0649931,10.89797,3.0433375,11.11785Q3.0216818,11.33772,3.0108409,11.55839Q3,11.77906,3,12Q3,12.22094,3.0108409,12.44161Q3.0216818,12.66228,3.0433375,12.88215Q3.0649931,13.102,3.0974114,13.3206Q3.12983,13.5391,3.172932,13.7558Q3.216035,13.9725,3.269719,14.1868Q3.323402,14.4011,3.387537,14.6126Q3.451672,14.824,3.526103,15.032Q3.600535,15.24,3.685084,15.4441Q3.769633,15.6483,3.864096,15.848Q3.958559,16.0477,4.06271,16.2426Q4.16686,16.4374,4.2804400000000005,16.6269Q4.39403,16.8164,4.51677,17.0001Q4.63952,17.183799999999998,4.77113,17.3613Q4.90274,17.538800000000002,5.04291,17.7095Q5.18307,17.8803,5.331440000000001,18.044Q5.4798100000000005,18.207700000000003,5.6360399999999995,18.364Q5.79227,18.520200000000003,5.955970000000001,18.668599999999998Q6.11967,18.8169,6.2904599999999995,18.9571Q6.46125,19.0973,6.63871,19.2289Q6.81616,19.3605,6.99987,19.4832Q7.18357,19.606,7.37308,19.7196Q7.56258,19.8331,7.75743,19.9373Q7.95228,20.0414,8.152000000000001,20.1359Q8.35173,20.2304,8.55585,20.3149Q8.75997,20.3995,8.96799,20.4739Q9.17601,20.5483,9.38744,20.6125Q9.59886,20.6766,9.81318,20.7303Q10.02749,20.784,10.24419,20.8271Q10.46088,20.8702,10.67943,20.9026Q10.89797,20.935,11.11785,20.9567Q11.33772,20.9783,11.55839,20.9892Q11.77906,21,12,21ZM9.70711,8.29289C9.31658,7.90237,8.68342,7.90237,8.29289,8.29289C7.90237,8.68342,7.90237,9.31658,8.29289,9.70711L10.58579,12L8.29289,14.2929C7.90237,14.6834,7.90237,15.3166,8.29289,15.7071C8.68342,16.0976,9.31658,16.0976,9.70711,15.7071L12,13.4142L14.2929,15.7071C14.6834,16.0976,15.3166,16.0976,15.7071,15.7071C16.0976,15.3166,16.0976,14.6834,15.7071,14.2929L13.4142,12L15.7071,9.70711C16.0976,9.31658,16.0976,8.68342,15.7071,8.29289C15.3166,7.90237,14.6834,7.90237,14.2929,8.29289L12,10.58579L9.70711,8.29289Z" fill-rule="evenodd" fill="#ADB5BD" fill-opacity="1"/></g></g></svg>