<svg xmlns="http://www.w3.org/2000/svg" xmlns:xlink="http://www.w3.org/1999/xlink" fill="none" version="1.1" width="24" height="24" viewBox="0 0 24 24"><g><g><ellipse cx="12" cy="12" rx="12" ry="12" fill="#212529" fill-opacity="1"/></g><g><g></g><g><path d="M17.138066507720946,11.138073373069762C16.87776650772095,11.398423373069763,16.455616507720947,11.398423373069763,16.195266507720948,11.138073373069762C16.195266507720948,11.138073373069762,12.666666507720947,7.609473373069763,12.666666507720947,7.609473373069763C12.666666507720947,7.609473373069763,12.666666507720947,18.000033373069762,12.666666507720947,18.000033373069762C12.666666507720947,18.368233373069764,12.368186507720948,18.666633373069764,11.999996507720947,18.666633373069764C11.631806507720947,18.666633373069764,11.333336507720947,18.368233373069764,11.333336507720947,18.000033373069762C11.333336507720947,18.000033373069762,11.333336507720947,7.609473373069763,11.333336507720947,7.609473373069763C11.333336507720947,7.609473373069763,7.804736507720947,11.138073373069762,7.804736507720947,11.138073373069762C7.544388507720948,11.398423373069763,7.122278507720948,11.398423373069763,6.861928507720947,11.138073373069762C6.601579107720947,10.877723373069763,6.601579107720947,10.455613373069763,6.861928507720947,10.195263373069764C6.861928507720947,10.195263373069764,11.528596507720948,5.528595373069763,11.528596507720948,5.528595373069763C11.788946507720947,5.268246073069763,12.211056507720947,5.268246073069763,12.471406507720946,5.528595373069763C12.471406507720946,5.528595373069763,17.138066507720946,10.195263373069764,17.138066507720946,10.195263373069764C17.398466507720947,10.455613373069763,17.398466507720947,10.877723373069763,17.138066507720946,11.138073373069762C17.138066507720946,11.138073373069762,17.138066507720946,11.138073373069762,17.138066507720946,11.138073373069762Z" fill-rule="evenodd" fill="#FFFFFF" fill-opacity="1"/></g></g></g></svg>