<svg xmlns="http://www.w3.org/2000/svg" xmlns:xlink="http://www.w3.org/1999/xlink" fill="none" version="1.1" width="57.1229248046875" height="57.1229248046875" viewBox="0 0 57.1229248046875 57.1229248046875"><g><g><path d="M28.56151037120819,56.6229Q29.25031037120819,56.6229,29.938410371208192,56.5891Q30.62641037120819,56.5553,31.312010371208192,56.4878Q31.99751037120819,56.4203,32.67891037120819,56.3192Q33.36031037120819,56.2181,34.03601037120819,56.0837Q34.71161037120819,55.9493,35.379810371208194,55.7819Q36.04811037120819,55.6146,36.70731037120819,55.4146Q37.36651037120819,55.2146,38.01511037120819,54.9826Q38.66371037120819,54.7505,39.30011037120819,54.4869Q39.93651037120819,54.2232,40.55931037120819,53.9287Q41.18201037120819,53.6342,41.78951037120819,53.3095Q42.39711037120819,52.9847,42.987910371208194,52.6306Q43.57881037120819,52.2764,44.15161037120819,51.8937Q44.72431037120819,51.511,45.27761037120819,51.1006Q45.831010371208194,50.6903,46.36351037120819,50.2533Q46.89601037120819,49.8162,47.40641037120819,49.3536Q47.91681037120819,48.891,48.40391037120819,48.4039Q48.89101037120819,47.9168,49.35361037120819,47.4064Q49.81621037120819,46.896,50.253310371208194,46.3635Q50.69031037120819,45.831,51.10061037120819,45.2776Q51.511010371208194,44.7243,51.89371037120819,44.1516Q52.27641037120819,43.5788,52.63061037120819,42.9879Q52.98471037120819,42.3971,53.30951037120819,41.7895Q53.63421037120819,41.182,53.92871037120819,40.5593Q54.22321037120819,39.9365,54.48691037120819,39.3001Q54.75051037120819,38.6637,54.98261037120819,38.0151Q55.21461037120819,37.3665,55.41461037120819,36.7073Q55.614610371208194,36.0481,55.78201037120819,35.3798Q55.94931037120819,34.7116,56.08371037120819,34.036Q56.21811037120819,33.3603,56.31921037120819,32.6789Q56.42031037120819,31.9975,56.48781037120819,31.312Q56.55531037120819,30.6264,56.58911037120819,29.9384Q56.62291037120819,29.2503,56.62291037120819,28.5615Q56.62291037120819,27.8726,56.58911037120819,27.1846Q56.55531037120819,26.4965,56.48781037120819,25.811Q56.42031037120819,25.1254,56.31921037120819,24.444Q56.21811037120819,23.7626,56.08371037120819,23.0869Q55.94931037120819,22.4113,55.78191037120819,21.7431Q55.614610371208194,21.0749,55.41461037120819,20.4156Q55.21461037120819,19.7564,54.98261037120819,19.1078Q54.75051037120819,18.4592,54.48691037120819,17.8228Q54.22321037120819,17.1864,53.92871037120819,16.5636Q53.63421037120819,15.9409,53.30951037120819,15.3334Q52.98471037120819,14.7259,52.63061037120819,14.135Q52.27641037120819,13.5441,51.89371037120819,12.9713Q51.511010371208194,12.3986,51.10061037120819,11.8453Q50.69031037120819,11.292,50.253310371208194,10.7595Q49.81621037120819,10.22695,49.35361037120819,9.71654Q48.89101037120819,9.20612,48.40391037120819,8.71901Q47.91681037120819,8.23191,47.40641037120819,7.76929Q46.89601037120819,7.30667,46.36351037120819,6.86966Q45.831010371208194,6.43264,45.27761037120819,6.02228Q44.72431037120819,5.61192,44.15161037120819,5.22921Q43.57881037120819,4.84649,42.987910371208194,4.49234Q42.39711037120819,4.13819,41.78951037120819,3.81346Q41.18201037120819,3.48873,40.55931037120819,3.1942Q39.93651037120819,2.89967,39.30011037120819,2.63605Q38.66371037120819,2.37243,38.01511037120819,2.1403600000000003Q37.36651037120819,1.90829,36.70731037120819,1.70832Q36.04811037120819,1.50835,35.379810371208194,1.340967Q34.71161037120819,1.173585,34.03601037120819,1.039193Q33.36031037120819,0.904801,32.67891037120819,0.803723Q31.99751037120819,0.702645,31.312010371208192,0.635124Q30.62641037120819,0.5676025,29.938410371208192,0.5338013Q29.25031037120819,0.5,28.56151037120819,0.5Q27.87261037120819,0.5,27.18461037120819,0.5338013Q26.496510371208192,0.5676025,25.81101037120819,0.635124Q25.12541037120819,0.702645,24.44401037120819,0.803723Q23.76261037120819,0.904801,23.08691037120819,1.039193Q22.41131037120819,1.173585,21.74311037120819,1.340967Q21.07491037120819,1.50835,20.415610371208192,1.70832Q19.75641037120819,1.90829,19.107810371208192,2.1403600000000003Q18.45921037120819,2.37243,17.822810371208192,2.63605Q17.18641037120819,2.89967,16.563610371208192,3.1942Q15.94091037120819,3.48873,15.33341037120819,3.81346Q14.72591037120819,4.13819,14.13501037120819,4.49234Q13.544110371208191,4.84649,12.97131037120819,5.22921Q12.398610371208191,5.61192,11.84531037120819,6.02228Q11.29201037120819,6.43264,10.75951037120819,6.86966Q10.226960371208191,7.30667,9.716550371208191,7.76929Q9.206130371208191,8.23191,8.719020371208192,8.71901Q8.23192037120819,9.20612,7.769300371208191,9.71654Q7.306680371208191,10.22695,6.869670371208191,10.7595Q6.432650371208191,11.292,6.022290371208191,11.8453Q5.6119303712081905,12.3986,5.229220371208191,12.9713Q4.846500371208191,13.5441,4.492350371208191,14.135Q4.138200371208191,14.7259,3.813470371208191,15.3334Q3.488740371208191,15.9409,3.194210371208191,16.5636Q2.899680371208191,17.1864,2.636060371208191,17.8228Q2.372440371208191,18.4592,2.140370371208191,19.1078Q1.908300371208191,19.7564,1.708330371208191,20.4156Q1.508360371208191,21.0749,1.340977371208191,21.7431Q1.173595371208191,22.4113,1.039203371208191,23.0869Q0.9048113712081909,23.7626,0.8037333712081909,24.444Q0.7026553712081909,25.1254,0.6351343712081909,25.811Q0.5676128712081909,26.4965,0.533811671208191,27.1846Q0.5000103712081909,27.8726,0.5000103712081909,28.5615Q0.5000103712081897,29.6907,0.590743171208191,30.8162Q0.6814763712081909,31.9418,0.8623553712081908,33.0564Q1.0432343712081908,34.171,1.313089371208191,35.2675Q1.5829403712081909,36.364,1.940030371208191,37.4353Q2.297120371208191,38.5065,2.739130371208191,39.5456Q3.181130371208191,40.5847,3.705210371208191,41.585Q4.229280371208191,42.5852,4.832030371208191,43.5401Q5.434770371208191,44.495,6.112300371208191,45.3983L4.241560371208191,53.8168L12.015110371208191,51.2256Q12.90881037120819,51.8781,13.851210371208191,52.4582Q14.79351037120819,53.0383,15.778610371208192,53.5424Q16.76371037120819,54.0464,17.78551037120819,54.4714Q18.807210371208193,54.8963,19.859310371208192,55.2395Q20.91131037120819,55.5827,21.987110371208193,55.8419Q23.06291037120819,56.1012,24.15571037120819,56.2749Q25.24861037120819,56.4486,26.351710371208192,56.5358Q27.45491037120819,56.6229,28.56151037120819,56.6229Z" fill-rule="evenodd" fill="#FFCF00" fill-opacity="1"/><path d="M28.56151037120819,56.1229Q33.818610371208194,56.1229,38.70671037120819,54.1878Q44.014010371208194,52.0867,48.050410371208194,48.0504Q52.08671037120819,44.0141,54.187810371208194,38.7067Q56.12291037120819,33.8186,56.12291037120819,28.5615Q56.12291037120819,23.3043,54.187810371208194,18.4162Q52.08671037120819,13.1089,48.050410371208194,9.07257Q44.01411037120819,5.03629,38.70671037120819,2.93514Q33.818610371208194,1,28.56151037120819,1Q23.304310371208192,1,18.41621037120819,2.93514Q13.108810371208191,5.03628,9.072580371208192,9.07257Q5.036300371208191,13.1089,2.935150371208191,18.4162Q1.000010371208191,23.3043,1.000010371208191,28.5615Q1.000010371208191,37.7486,6.512300371208191,45.0983L6.650280371208191,45.2823L4.729650371208191,53.9252L4.241560371208191,53.8168L4.083440371208191,53.3424L12.10161037120819,50.6697L12.309910371208192,50.8218Q19.571010371208192,56.123,28.56151037120819,56.1229ZM28.56151037120819,57.1229Q19.244910371208192,57.1229,11.72031037120819,51.6294L12.015110371208191,51.2256L12.17321037120819,51.6999L3.561900371208191,54.5704L5.6242003712081905,45.2899L6.112300371208191,45.3983L5.712300371208191,45.6983Q0.000010371208190917969,38.082,0.000010371208190917969,28.5615Q0.000010371208190917969,23.1135,2.005360371208191,18.0481Q4.182730371208191,12.5482,8.36547037120819,8.365459999999999Q12.54821037120819,4.182729999999999,18.048110371208193,2.00535Q23.113610371208193,0,28.56151037120819,0Q34.00941037120819,0,39.074810371208194,2.00535Q44.57471037120819,4.182729999999999,48.75751037120819,8.365459999999999Q52.94021037120819,12.5483,55.117610371208194,18.0481Q57.12291037120819,23.1136,57.12291037120819,28.5615Q57.12291037120819,34.0093,55.117610371208194,39.0748Q52.94021037120819,44.5747,48.75751037120819,48.7575Q44.57471037120819,52.9402,39.074810371208194,55.1176Q34.009310371208194,57.1229,28.56151037120819,57.1229Z" fill="#000000" fill-opacity="1"/></g><g transform="matrix(0.9842758178710938,0.17663836479187012,0.17663832008838654,-0.9842758178710938,-2.3990995478357036,26.950412576827148)"><path d="M37.43470764990234,20.058377060546874C37.26902294990234,20.279297060546874,37.31379394990234,20.592697060546875,37.534707649902344,20.758377060546874C37.755621649902345,20.924067060546875,38.069022649902344,20.879297060546875,38.23470764990235,20.658377060546876C38.23470764990235,20.658377060546876,37.43470764990234,20.058377060546874,37.43470764990234,20.058377060546874C37.43470764990234,20.058377060546874,37.43470764990234,20.058377060546874,37.43470764990234,20.058377060546874ZM45.219708649902344,18.042527060546874C45.490488649902346,18.096677060546874,45.75389864990234,17.921077060546875,45.80805864990234,17.650294060546877C45.86220864990234,17.379514060546875,45.68659864990234,17.116101060546875,45.41581864990234,17.061946060546877C45.41581864990234,17.061946060546877,45.219708649902344,18.042527060546874,45.219708649902344,18.042527060546874C45.219708649902344,18.042527060546874,45.219708649902344,18.042527060546874,45.219708649902344,18.042527060546874ZM38.23470764990235,20.658377060546876C39.10347864990234,19.500017060546874,41.73558864990234,17.345702060546873,45.219708649902344,18.042527060546874C45.219708649902344,18.042527060546874,45.41581864990234,17.061946060546877,45.41581864990234,17.061946060546877C41.41688864990235,16.262159060546875,38.43669864990235,18.722397060546875,37.43470764990234,20.058377060546874C37.43470764990234,20.058377060546874,38.23470764990235,20.658377060546876,38.23470764990235,20.658377060546876C38.23470764990235,20.658377060546876,38.23470764990235,20.658377060546876,38.23470764990235,20.658377060546876Z" fill="#000000" fill-opacity="1"/></g><g transform="matrix(-0.9842758178710938,0.17663832008838654,-0.17663832008838654,-0.9842758178710938,39.34056819477473,30.308914516850137)"><path d="M18.42127800817871,20.058377060546874C18.25559330817871,20.279297060546874,18.30036430817871,20.592697060546875,18.52127800817871,20.758377060546874C18.742192008178712,20.924067060546875,19.05559300817871,20.879297060546875,19.22127800817871,20.658377060546876C19.22127800817871,20.658377060546876,18.42127800817871,20.058377060546874,18.42127800817871,20.058377060546874C18.42127800817871,20.058377060546874,18.42127800817871,20.058377060546874,18.42127800817871,20.058377060546874ZM26.20627900817871,18.042527060546874C26.477059008178713,18.096677060546874,26.74046900817871,17.921077060546875,26.79462900817871,17.650294060546877C26.84877900817871,17.379514060546875,26.67316900817871,17.116101060546875,26.40238900817871,17.061946060546877C26.40238900817871,17.061946060546877,26.20627900817871,18.042527060546874,26.20627900817871,18.042527060546874C26.20627900817871,18.042527060546874,26.20627900817871,18.042527060546874,26.20627900817871,18.042527060546874ZM19.22127800817871,20.658377060546876C20.09004900817871,19.500017060546874,22.72215900817871,17.345702060546873,26.20627900817871,18.042527060546874C26.20627900817871,18.042527060546874,26.40238900817871,17.061946060546877,26.40238900817871,17.061946060546877C22.40345900817871,16.262159060546875,19.42326900817871,18.722397060546875,18.42127800817871,20.058377060546874C18.42127800817871,20.058377060546874,19.22127800817871,20.658377060546876,19.22127800817871,20.658377060546876C19.22127800817871,20.658377060546876,19.22127800817871,20.658377060546876,19.22127800817871,20.658377060546876Z" fill="#000000" fill-opacity="1"/></g><g><path d="M36.055238734433594,25.34490347290039C36.924814044433596,21.40411547290039,44.86742304443359,19.95165347290039,46.200633044433594,22.01316947290039C46.2664330444336,22.11488347290039,46.201333044433596,22.24239347290039,46.08453304443359,22.27447347290039C44.133813044433595,22.81019347290039,41.9194130444336,24.06977347290039,41.6288730444336,25.02269347290039C41.37212304443359,25.86479347290039,44.657093044433594,27.19719347290039,46.86453304443359,28.34595347290039C47.0194330444336,28.42657347290039,46.998133044433594,28.64899347290039,46.83003304443359,28.69626347290039C41.3543830444336,30.23563347290039,35.77979704443359,26.59316347290039,36.055238734433594,25.34490347290039C36.055238734433594,25.34490347290039,36.055238734433594,25.34490347290039,36.055238734433594,25.34490347290039Z" fill="#000000" fill-opacity="1"/></g><g transform="matrix(-1,0,0,1,42.15501403808594,0)"><path d="M21.08731270904297,25.34490347290039C21.956888019042967,21.40411547290039,29.89949701904297,19.95165347290039,31.23270701904297,22.01316947290039C31.29850701904297,22.11488347290039,31.23340701904297,22.24239347290039,31.116607019042966,22.27447347290039C29.16588701904297,22.81019347290039,26.95148701904297,24.06977347290039,26.66094701904297,25.02269347290039C26.404197019042968,25.86479347290039,29.68916701904297,27.19719347290039,31.896607019042968,28.34595347290039C32.05150701904297,28.42657347290039,32.03020701904297,28.64899347290039,31.862107019042966,28.69626347290039C26.386457019042968,30.23563347290039,20.811871019042968,26.59316347290039,21.08731270904297,25.34490347290039C21.08731270904297,25.34490347290039,21.08731270904297,25.34490347290039,21.08731270904297,25.34490347290039Z" fill="#000000" fill-opacity="1"/></g><g><g><rect x="9.853840827941895" y="32.30299949645996" width="37.415279388427734" height="16.836875915527344" rx="2" fill="#FFFFFF" fill-opacity="1"/><rect x="10.353840827941895" y="32.80299949645996" width="36.415279388427734" height="15.836875915527344" rx="1.5" fill-opacity="0" stroke-opacity="1" stroke="#000000" fill="none" stroke-width="1"/></g><g><path d="M0.881703,24.49696430822754C0.703331,24.286161608227538,0.387842,24.259870708227538,0.177039,24.43824230822754C-0.0337637,24.61661430822754,-0.0600546,24.93210330822754,0.118317,25.142906308227538C0.118317,25.142906308227538,0.881703,24.49696430822754,0.881703,24.49696430822754C0.881703,24.49696430822754,0.881703,24.49696430822754,0.881703,24.49696430822754ZM10.4075,37.30282530822754C10.5859,37.51362530822754,10.9014,37.53992530822754,11.1122,37.36162530822754C11.323,37.18322530822754,11.3493,36.86772530822754,11.1709,36.65692530822754C11.1709,36.65692530822754,10.4075,37.30282530822754,10.4075,37.30282530822754C10.4075,37.30282530822754,10.4075,37.30282530822754,10.4075,37.30282530822754ZM0.118317,25.142906308227538C0.118317,25.142906308227538,10.4075,37.30282530822754,10.4075,37.30282530822754C10.4075,37.30282530822754,11.1709,36.65692530822754,11.1709,36.65692530822754C11.1709,36.65692530822754,0.881703,24.49696430822754,0.881703,24.49696430822754C0.881703,24.49696430822754,0.118317,25.142906308227538,0.118317,25.142906308227538C0.118317,25.142906308227538,0.118317,25.142906308227538,0.118317,25.142906308227538Z" fill="#000000" fill-opacity="1"/></g><g transform="matrix(-1,0,0,1,114.2458724975586,0)"><path d="M57.9915162487793,24.482080225912092C57.8049202487793,24.278520125912095,57.488636248779294,24.264769125912093,57.285077248779295,24.451365225912095C57.0815171487793,24.637961225912093,57.0677661487793,24.954245225912093,57.254362248779294,25.157804225912095C57.254362248779294,25.157804225912095,57.9915162487793,24.482080225912092,57.9915162487793,24.482080225912092C57.9915162487793,24.482080225912092,57.9915162487793,24.482080225912092,57.9915162487793,24.482080225912092ZM67.5435362487793,36.38233922591209C67.7301362487793,36.58593922591209,68.0464362487793,36.599739225912096,68.2500362487793,36.41313922591209C68.4535362487793,36.22653922591209,68.4673362487793,35.91023922591209,68.28073624877929,35.70663922591209C68.28073624877929,35.70663922591209,67.5435362487793,36.38233922591209,67.5435362487793,36.38233922591209C67.5435362487793,36.38233922591209,67.5435362487793,36.38233922591209,67.5435362487793,36.38233922591209ZM57.254362248779294,25.157804225912095C57.254362248779294,25.157804225912095,67.5435362487793,36.38233922591209,67.5435362487793,36.38233922591209C67.5435362487793,36.38233922591209,68.28073624877929,35.70663922591209,68.28073624877929,35.70663922591209C68.28073624877929,35.70663922591209,57.9915162487793,24.482080225912092,57.9915162487793,24.482080225912092C57.9915162487793,24.482080225912092,57.254362248779294,25.157804225912095,57.254362248779294,25.157804225912095C57.254362248779294,25.157804225912095,57.254362248779294,25.157804225912095,57.254362248779294,25.157804225912095Z" fill="#000000" fill-opacity="1"/></g><g><path d="M2.6136261876220703,39.34897505847168C2.37223518762207,39.21486905847168,2.06783318762207,39.30184105847168,1.9337261876220704,39.54323305847168C1.7996201876220703,39.78462405847168,1.8865921876220704,40.08902605847168,2.1279841876220704,40.22313305847168C2.1279841876220704,40.22313305847168,2.6136261876220703,39.34897505847168,2.6136261876220703,39.34897505847168C2.6136261876220703,39.34897505847168,2.6136261876220703,39.34897505847168,2.6136261876220703,39.34897505847168ZM10.54642418762207,44.90004305847168C10.78781418762207,45.03415305847168,11.092214187622071,44.94717305847168,11.22632418762207,44.70578305847168C11.36042418762207,44.46439305847168,11.27345418762207,44.15999305847168,11.03206418762207,44.02588305847168C11.03206418762207,44.02588305847168,10.54642418762207,44.90004305847168,10.54642418762207,44.90004305847168C10.54642418762207,44.90004305847168,10.54642418762207,44.90004305847168,10.54642418762207,44.90004305847168ZM2.1279841876220704,40.22313305847168C2.1279841876220704,40.22313305847168,10.54642418762207,44.90004305847168,10.54642418762207,44.90004305847168C10.54642418762207,44.90004305847168,11.03206418762207,44.02588305847168,11.03206418762207,44.02588305847168C11.03206418762207,44.02588305847168,2.6136261876220703,39.34897505847168,2.6136261876220703,39.34897505847168C2.6136261876220703,39.34897505847168,2.1279841876220704,40.22313305847168,2.1279841876220704,40.22313305847168C2.1279841876220704,40.22313305847168,2.1279841876220704,40.22313305847168,2.1279841876220704,40.22313305847168Z" fill="#000000" fill-opacity="1"/></g><g transform="matrix(-1,0,0,1,112.37527465820312,0)"><path d="M56.94496132910156,38.42192888894043C56.70817032910156,38.27985388894043,56.40104132910156,38.35663692894043,56.25896692910156,38.59342728894043C56.11689192910156,38.83021728894043,56.193674969101565,39.13734728894043,56.430465329101565,39.279421288940426C56.430465329101565,39.279421288940426,56.94496132910156,38.42192888894043,56.94496132910156,38.42192888894043C56.94496132910156,38.42192888894043,56.94496132910156,38.42192888894043,56.94496132910156,38.42192888894043ZM65.78428732910156,44.89171928894043C66.02107732910156,45.033789288940426,66.32823732910157,44.95700928894043,66.47023732910156,44.72021928894043C66.61233732910156,44.48342928894043,66.53553732910156,44.17629928894043,66.29873732910156,44.03422928894043C66.29873732910156,44.03422928894043,65.78428732910156,44.89171928894043,65.78428732910156,44.89171928894043C65.78428732910156,44.89171928894043,65.78428732910156,44.89171928894043,65.78428732910156,44.89171928894043ZM56.430465329101565,39.279421288940426C56.430465329101565,39.279421288940426,65.78428732910156,44.89171928894043,65.78428732910156,44.89171928894043C65.78428732910156,44.89171928894043,66.29873732910156,44.03422928894043,66.29873732910156,44.03422928894043C66.29873732910156,44.03422928894043,56.94496132910156,38.42192888894043,56.94496132910156,38.42192888894043C56.94496132910156,38.42192888894043,56.430465329101565,39.279421288940426,56.430465329101565,39.279421288940426C56.430465329101565,39.279421288940426,56.430465329101565,39.279421288940426,56.430465329101565,39.279421288940426Z" fill="#000000" fill-opacity="1"/></g></g></g></svg>