<svg xmlns="http://www.w3.org/2000/svg" xmlns:xlink="http://www.w3.org/1999/xlink" fill="none" version="1.1" width="57.1229248046875" height="57.1229248046875" viewBox="0 0 57.1229248046875 57.1229248046875"><defs><filter id="master_svg0_0_155" filterUnits="objectBoundingBox" color-interpolation-filters="sRGB" x="-2" y="-2" width="9.612292289733887" height="7.741528034210205"><feFlood flood-opacity="0" result="BackgroundImageFix"/><feBlend mode="normal" in="SourceGraphic" in2="BackgroundImageFix" result="shape"/><feGaussianBlur stdDeviation="0.5" result="effect1_foregroundBlur"/></filter><filter id="master_svg1_0_156" filterUnits="objectBoundingBox" color-interpolation-filters="sRGB" x="-2" y="-2" width="9.612292289733887" height="7.741528034210205"><feFlood flood-opacity="0" result="BackgroundImageFix"/><feBlend mode="normal" in="SourceGraphic" in2="BackgroundImageFix" result="shape"/><feGaussianBlur stdDeviation="0.5" result="effect1_foregroundBlur"/></filter></defs><g><g><path d="M28.5615,56.6229Q29.2503,56.6229,29.9384,56.5891Q30.6264,56.5553,31.312,56.4878Q31.9975,56.4203,32.6789,56.3192Q33.3603,56.2181,34.036,56.0837Q34.7116,55.9493,35.3798,55.7819Q36.0481,55.6146,36.7073,55.4146Q37.3665,55.2146,38.0151,54.9826Q38.6637,54.7505,39.3001,54.4869Q39.9365,54.2232,40.5593,53.9287Q41.182,53.6342,41.7895,53.3095Q42.3971,52.9847,42.9879,52.6306Q43.5788,52.2764,44.1516,51.8937Q44.7243,51.511,45.2776,51.1006Q45.831,50.6903,46.3635,50.2533Q46.896,49.8162,47.4064,49.3536Q47.9168,48.891,48.4039,48.4039Q48.891,47.9168,49.3536,47.4064Q49.8162,46.896,50.2533,46.3635Q50.6903,45.831,51.1006,45.2776Q51.511,44.7243,51.8937,44.1516Q52.2764,43.5788,52.6306,42.9879Q52.9847,42.3971,53.3095,41.7895Q53.6342,41.182,53.9287,40.5593Q54.2232,39.9365,54.4869,39.3001Q54.7505,38.6637,54.9826,38.0151Q55.2146,37.3665,55.4146,36.7073Q55.6146,36.0481,55.782,35.3798Q55.9493,34.7116,56.0837,34.036Q56.2181,33.3603,56.3192,32.6789Q56.4203,31.9975,56.4878,31.312Q56.5553,30.6264,56.5891,29.9384Q56.6229,29.2503,56.6229,28.5615Q56.6229,27.8726,56.5891,27.1846Q56.5553,26.4965,56.4878,25.811Q56.4203,25.1254,56.3192,24.444Q56.2181,23.7626,56.0837,23.0869Q55.9493,22.4113,55.7819,21.7431Q55.6146,21.0749,55.4146,20.4156Q55.2146,19.7564,54.9826,19.1078Q54.7505,18.4592,54.4869,17.8228Q54.2232,17.1864,53.9287,16.5636Q53.6342,15.9409,53.3095,15.3334Q52.9847,14.7259,52.6306,14.135Q52.2764,13.5441,51.8937,12.9713Q51.511,12.3986,51.1006,11.8453Q50.6903,11.292,50.2533,10.7595Q49.8162,10.22695,49.3536,9.71654Q48.891,9.20612,48.4039,8.71901Q47.9168,8.23191,47.4064,7.76929Q46.896,7.30667,46.3635,6.86966Q45.831,6.43264,45.2776,6.02228Q44.7243,5.61192,44.1516,5.22921Q43.5788,4.84649,42.9879,4.49234Q42.3971,4.13819,41.7895,3.81346Q41.182,3.48873,40.5593,3.1942Q39.9365,2.89967,39.3001,2.63605Q38.6637,2.37243,38.0151,2.1403600000000003Q37.3665,1.90829,36.7073,1.70832Q36.0481,1.50835,35.3798,1.340967Q34.7116,1.173585,34.036,1.039193Q33.3603,0.904801,32.6789,0.803723Q31.9975,0.702645,31.312,0.635124Q30.6264,0.5676025,29.9384,0.5338013Q29.2503,0.5,28.5615,0.5Q27.8726,0.5,27.1846,0.5338013Q26.4965,0.5676025,25.811,0.635124Q25.1254,0.702645,24.444,0.803723Q23.7626,0.904801,23.0869,1.039193Q22.4113,1.173585,21.7431,1.340967Q21.0749,1.50835,20.4156,1.70832Q19.7564,1.90829,19.1078,2.1403600000000003Q18.4592,2.37243,17.8228,2.63605Q17.1864,2.89967,16.5636,3.1942Q15.9409,3.48873,15.3334,3.81346Q14.7259,4.13819,14.135,4.49234Q13.5441,4.84649,12.9713,5.22921Q12.3986,5.61192,11.8453,6.02228Q11.292,6.43264,10.7595,6.86966Q10.22695,7.30667,9.71654,7.76929Q9.20612,8.23191,8.71901,8.71901Q8.23191,9.20612,7.76929,9.71654Q7.30667,10.22695,6.86966,10.7595Q6.43264,11.292,6.02228,11.8453Q5.61192,12.3986,5.22921,12.9713Q4.84649,13.5441,4.49234,14.135Q4.13819,14.7259,3.81346,15.3334Q3.48873,15.9409,3.1942,16.5636Q2.89967,17.1864,2.63605,17.8228Q2.37243,18.4592,2.1403600000000003,19.1078Q1.90829,19.7564,1.70832,20.4156Q1.50835,21.0749,1.340967,21.7431Q1.173585,22.4113,1.039193,23.0869Q0.904801,23.7626,0.803723,24.444Q0.702645,25.1254,0.635124,25.811Q0.5676025,26.4965,0.5338013,27.1846Q0.5,27.8726,0.5,28.5615Q0.5,29.6907,0.5907329,30.8162Q0.681466,31.9418,0.8623449999999999,33.0564Q1.043224,34.171,1.313079,35.2675Q1.58293,36.364,1.94002,37.4353Q2.29711,38.5065,2.73912,39.5456Q3.18113,40.5847,3.7052,41.585Q4.22927,42.5852,4.83202,43.5401Q5.43477,44.495,6.11229,45.3983L4.24153,53.8168L12.0151,51.2256Q12.9088,51.8781,13.8512,52.4582Q14.7935,53.0383,15.7786,53.5424Q16.7637,54.0464,17.7855,54.4714Q18.8072,54.8963,19.8592,55.2395Q20.9113,55.5827,21.9871,55.8419Q23.0629,56.1012,24.1557,56.2749Q25.2486,56.4486,26.3517,56.5358Q27.4549,56.6229,28.5615,56.6229Z" fill-rule="evenodd" fill="#FFCF00" fill-opacity="1"/><path d="M28.5615,56.1229Q33.8186,56.1229,38.7067,54.1878Q44.014,52.0867,48.0504,48.0504Q52.0867,44.0141,54.1878,38.7067Q56.1229,33.8186,56.1229,28.5615Q56.1229,23.3043,54.1878,18.4162Q52.0867,13.1089,48.0504,9.07257Q44.0141,5.03629,38.7067,2.93514Q33.8186,1,28.5615,1Q23.3043,1,18.4162,2.93514Q13.1088,5.03628,9.07257,9.07257Q5.03629,13.1089,2.93514,18.4162Q1,23.3043,1,28.5615Q1,37.7487,6.51229,45.0983L6.65027,45.2823L4.72963,53.9252L4.24153,53.8168L4.08342,53.3424L12.1016,50.6697L12.3099,50.8218Q19.571,56.123,28.5615,56.1229ZM28.5615,57.1229Q19.2449,57.1229,11.7203,51.6294L12.0151,51.2256L12.1732,51.6999L3.56187,54.5704L5.6242,45.2899L6.11229,45.3983L5.71229,45.6983Q0,38.082,0,28.5615Q0,23.1135,2.00535,18.0481Q4.18272,12.5482,8.365459999999999,8.365459999999999Q12.5482,4.182729999999999,18.0481,2.00535Q23.1136,0,28.5615,0Q34.0094,0,39.0748,2.00535Q44.5747,4.182729999999999,48.7575,8.365459999999999Q52.9402,12.5483,55.1176,18.0481Q57.1229,23.1136,57.1229,28.5615Q57.1229,34.0093,55.1176,39.0748Q52.9402,44.5747,48.7575,48.7575Q44.5747,52.9402,39.0748,55.1176Q34.0093,57.1229,28.5615,57.1229Z" fill="#000000" fill-opacity="1"/></g><g filter="url(#master_svg0_0_155)"><ellipse cx="46.33371877670288" cy="30.432222604751587" rx="2.8061461448669434" ry="1.8707640171051025" fill="#FF8B72" fill-opacity="1"/></g><g filter="url(#master_svg1_0_156)"><ellipse cx="10.78920316696167" cy="30.432222604751587" rx="2.8061461448669434" ry="1.8707640171051025" fill="#FF8B72" fill-opacity="1"/></g><g><path d="M10.984780494458008,24.6966316015625C10.916683494458008,25.1052116015625,11.192698694458008,25.4916316015625,11.601276694458008,25.5597316015625C12.009848694458007,25.627821601562502,12.396278694458008,25.3518116015625,12.464368694458008,24.943231601562502C12.464368694458008,24.943231601562502,10.984780494458008,24.6966316015625,10.984780494458008,24.6966316015625C10.984780494458008,24.6966316015625,10.984780494458008,24.6966316015625,10.984780494458008,24.6966316015625ZM20.33860869445801,24.943231601562502C20.406698694458008,25.3518116015625,20.79311869445801,25.627821601562502,21.201658694458008,25.5597316015625C21.610258694458008,25.4916316015625,21.886258694458007,25.1052116015625,21.818158694458006,24.6966316015625C21.818158694458006,24.6966316015625,20.33860869445801,24.943231601562502,20.33860869445801,24.943231601562502C20.33860869445801,24.943231601562502,20.33860869445801,24.943231601562502,20.33860869445801,24.943231601562502ZM11.724575694458007,24.8199316015625C12.464368694458008,24.943231601562502,12.464338694458007,24.9434516015625,12.464298694458009,24.9436416015625C12.464298694458009,24.9436716015625,12.464268694458008,24.9438416015625,12.464258694458008,24.9439216015625C12.464228694458008,24.9440616015625,12.464218694458008,24.9441216015625,12.464228694458008,24.9441016015625C12.464228694458008,24.9440516015625,12.464298694458009,24.9436716015625,12.464418694458008,24.9429716015625C12.464658694458008,24.9415616015625,12.465128694458008,24.9388416015625,12.465838694458007,24.9348516015625C12.467258694458007,24.9268816015625,12.469608694458008,24.9138516015625,12.472958694458008,24.8961116015625C12.479668694458008,24.8606116015625,12.490338694458007,24.8063116015625,12.505428694458008,24.7359316015625C12.535628694458008,24.594991601562498,12.583298694458009,24.3904616015625,12.651828694458008,24.1437416015625C12.789688694458007,23.647441601562498,13.008108694458008,22.9945316015625,13.330778694458008,22.3492016015625C13.996668694458007,21.0174216015625,14.973528694458007,19.9576416015625,16.40148869445801,19.9576416015625C16.40148869445801,19.9576416015625,16.40148869445801,18.4576416015625,16.40148869445801,18.4576416015625C14.087918694458008,18.4576416015625,12.726328694458008,20.2040016015625,11.989138694458008,21.6783816015625C11.610269694458008,22.4361116015625,11.360997694458009,23.1862816015625,11.206551694458009,23.7422816015625C11.128931694458007,24.0217116015625,11.074291494458008,24.255651601562498,11.038723494458008,24.4216316015625C11.020922494458008,24.504701601562502,11.007848494458008,24.5709916015625,10.999025494458008,24.6177016015625C10.994612494458007,24.641061601562498,10.991259494458008,24.659551601562498,10.988905494458008,24.6728116015625C10.987728494458008,24.679451601562498,10.986801494458009,24.6847816015625,10.986116494458008,24.6887616015625C10.985773494458007,24.6907516015625,10.985491494458008,24.6924116015625,10.985269494458008,24.6937216015625C10.985158494458007,24.6943816015625,10.985061494458007,24.6949516015625,10.984980494458007,24.6954416015625C10.984939494458008,24.695681601562498,10.984889494458008,24.6959816015625,10.984869494458009,24.6961016015625C10.984822494458008,24.6963816015625,10.984780494458008,24.6966316015625,11.724575694458007,24.8199316015625C11.724575694458007,24.8199316015625,11.724575694458007,24.8199316015625,11.724575694458007,24.8199316015625ZM16.40148869445801,19.9576416015625C17.82944869445801,19.9576416015625,18.806308694458007,21.0174216015625,19.472198694458008,22.3492016015625C19.79486869445801,22.9945316015625,20.01327869445801,23.647441601562498,20.15114869445801,24.1437416015625C20.219678694458008,24.3904616015625,20.267348694458008,24.594991601562498,20.29754869445801,24.7359316015625C20.312628694458006,24.8063116015625,20.323308694458007,24.8606116015625,20.33000869445801,24.8961116015625C20.33336869445801,24.9138516015625,20.33571869445801,24.9268816015625,20.337138694458005,24.9348516015625C20.337838694458007,24.9388416015625,20.338308694458007,24.9415616015625,20.33855869445801,24.9429716015625C20.338678694458007,24.9436716015625,20.33873869445801,24.9440516015625,20.33874869445801,24.9441016015625C20.33874869445801,24.9441216015625,20.33873869445801,24.9440616015625,20.33871869445801,24.9439216015625C20.338708694458006,24.9438416015625,20.338678694458007,24.9436716015625,20.338668694458008,24.9436416015625C20.338638694458005,24.9434516015625,20.33860869445801,24.943231601562502,21.078358694458007,24.8199316015625C21.818158694458006,24.6966316015625,21.818158694458006,24.6963816015625,21.81805869445801,24.6961016015625C21.81805869445801,24.6959816015625,21.81805869445801,24.695681601562498,21.817958694458007,24.6954416015625C21.81785869445801,24.6949516015625,21.817758694458007,24.6943816015625,21.817658694458007,24.6937216015625C21.817458694458008,24.6924116015625,21.81715869445801,24.6907516015625,21.816858694458006,24.6887616015625C21.816158694458007,24.6847816015625,21.81525869445801,24.679451601562498,21.81405869445801,24.6728116015625C21.811658694458007,24.659551601562498,21.808358694458008,24.641061601562498,21.803958694458007,24.6177016015625C21.795058694458007,24.5709916015625,21.78205869445801,24.504701601562502,21.764258694458007,24.4216316015625C21.72865869445801,24.255651601562498,21.674058694458008,24.0217116015625,21.596458694458008,23.7422816015625C21.44195869445801,23.1862816015625,21.192658694458007,22.4361116015625,20.813838694458006,21.6783816015625C20.076648694458008,20.2040016015625,18.71505869445801,18.4576416015625,16.40148869445801,18.4576416015625C16.40148869445801,18.4576416015625,16.40148869445801,19.9576416015625,16.40148869445801,19.9576416015625C16.40148869445801,19.9576416015625,16.40148869445801,19.9576416015625,16.40148869445801,19.9576416015625Z" fill="#000000" fill-opacity="1"/></g><g><path d="M35.30472106147461,24.6966316015625C35.23662406147461,25.1052116015625,35.51263926147461,25.4916316015625,35.92121726147461,25.5597316015625C36.32978926147461,25.627821601562502,36.716219261474606,25.3518116015625,36.78430926147461,24.943231601562502C36.78430926147461,24.943231601562502,35.30472106147461,24.6966316015625,35.30472106147461,24.6966316015625C35.30472106147461,24.6966316015625,35.30472106147461,24.6966316015625,35.30472106147461,24.6966316015625ZM44.65854926147461,24.943231601562502C44.72663926147461,25.3518116015625,45.11305926147461,25.627821601562502,45.521599261474606,25.5597316015625C45.93019926147461,25.4916316015625,46.20619926147461,25.1052116015625,46.13809926147461,24.6966316015625C46.13809926147461,24.6966316015625,44.65854926147461,24.943231601562502,44.65854926147461,24.943231601562502C44.65854926147461,24.943231601562502,44.65854926147461,24.943231601562502,44.65854926147461,24.943231601562502ZM36.04451626147461,24.8199316015625C36.78430926147461,24.943231601562502,36.78427926147461,24.9434516015625,36.78423926147461,24.9436416015625C36.78423926147461,24.9436716015625,36.78420926147461,24.9438416015625,36.78419926147461,24.9439216015625C36.78416926147461,24.9440616015625,36.784159261474606,24.9441216015625,36.78416926147461,24.9441016015625C36.78416926147461,24.9440516015625,36.78423926147461,24.9436716015625,36.784359261474606,24.9429716015625C36.78459926147461,24.9415616015625,36.78506926147461,24.9388416015625,36.78577926147461,24.9348516015625C36.78719926147461,24.9268816015625,36.78954926147461,24.9138516015625,36.79289926147461,24.8961116015625C36.79960926147461,24.8606116015625,36.81027926147461,24.8063116015625,36.825369261474606,24.7359316015625C36.855569261474606,24.594991601562498,36.90323926147461,24.3904616015625,36.97176926147461,24.1437416015625C37.10962926147461,23.647441601562498,37.32804926147461,22.9945316015625,37.650719261474606,22.3492016015625C38.31660926147461,21.0174216015625,39.29346926147461,19.9576416015625,40.72142926147461,19.9576416015625C40.72142926147461,19.9576416015625,40.72142926147461,18.4576416015625,40.72142926147461,18.4576416015625C38.40785926147461,18.4576416015625,37.046269261474606,20.2040016015625,36.30907926147461,21.6783816015625C35.930210261474606,22.4361116015625,35.68093826147461,23.1862816015625,35.52649226147461,23.7422816015625C35.44887226147461,24.0217116015625,35.39423206147461,24.255651601562498,35.358664061474606,24.4216316015625C35.34086306147461,24.504701601562502,35.32778906147461,24.5709916015625,35.31896606147461,24.6177016015625C35.31455306147461,24.641061601562498,35.31120006147461,24.659551601562498,35.30884606147461,24.6728116015625C35.30766906147461,24.679451601562498,35.30674206147461,24.6847816015625,35.30605706147461,24.6887616015625C35.30571406147461,24.6907516015625,35.30543206147461,24.6924116015625,35.30521006147461,24.6937216015625C35.30509906147461,24.6943816015625,35.30500206147461,24.6949516015625,35.30492106147461,24.6954416015625C35.30488006147461,24.695681601562498,35.30483006147461,24.6959816015625,35.30481006147461,24.6961016015625C35.30476306147461,24.6963816015625,35.30472106147461,24.6966316015625,36.04451626147461,24.8199316015625C36.04451626147461,24.8199316015625,36.04451626147461,24.8199316015625,36.04451626147461,24.8199316015625ZM40.72142926147461,19.9576416015625C42.14938926147461,19.9576416015625,43.12624926147461,21.0174216015625,43.79213926147461,22.3492016015625C44.11480926147461,22.9945316015625,44.33321926147461,23.647441601562498,44.47108926147461,24.1437416015625C44.53961926147461,24.3904616015625,44.58728926147461,24.594991601562498,44.61748926147461,24.7359316015625C44.63256926147461,24.8063116015625,44.64324926147461,24.8606116015625,44.64994926147461,24.8961116015625C44.65330926147461,24.9138516015625,44.65565926147461,24.9268816015625,44.65707926147461,24.9348516015625C44.65777926147461,24.9388416015625,44.65824926147461,24.9415616015625,44.65849926147461,24.9429716015625C44.65861926147461,24.9436716015625,44.65867926147461,24.9440516015625,44.658689261474606,24.9441016015625C44.658689261474606,24.9441216015625,44.65867926147461,24.9440616015625,44.65865926147461,24.9439216015625C44.65864926147461,24.9438416015625,44.65861926147461,24.9436716015625,44.65860926147461,24.9436416015625C44.65857926147461,24.9434516015625,44.65854926147461,24.943231601562502,45.398299261474605,24.8199316015625C46.13809926147461,24.6966316015625,46.13809926147461,24.6963816015625,46.13799926147461,24.6961016015625C46.13799926147461,24.6959816015625,46.13799926147461,24.695681601562498,46.13789926147461,24.6954416015625C46.13779926147461,24.6949516015625,46.13769926147461,24.6943816015625,46.137599261474605,24.6937216015625C46.13739926147461,24.6924116015625,46.13709926147461,24.6907516015625,46.13679926147461,24.6887616015625C46.13609926147461,24.6847816015625,46.13519926147461,24.679451601562498,46.133999261474614,24.6728116015625C46.131599261474605,24.659551601562498,46.12829926147461,24.641061601562498,46.123899261474605,24.6177016015625C46.11499926147461,24.5709916015625,46.10199926147461,24.504701601562502,46.08419926147461,24.4216316015625C46.04859926147461,24.255651601562498,45.99399926147461,24.0217116015625,45.91639926147461,23.7422816015625C45.76189926147461,23.1862816015625,45.512599261474605,22.4361116015625,45.13377926147461,21.6783816015625C44.39658926147461,20.2040016015625,43.03499926147461,18.4576416015625,40.72142926147461,18.4576416015625C40.72142926147461,18.4576416015625,40.72142926147461,19.9576416015625,40.72142926147461,19.9576416015625C40.72142926147461,19.9576416015625,40.72142926147461,19.9576416015625,40.72142926147461,19.9576416015625Z" fill="#000000" fill-opacity="1"/></g><g><path d="M40.72142805236817,47.269117517089846C36.561248052368164,49.64631751708984,33.550168052368164,44.77474751708984,32.302988052368164,41.656807517089845C34.547908052368165,40.908507517089845,37.603488052368164,37.603487517089846,38.85065805236816,36.044517517089844C39.786048052368166,36.97989951708984,47.26908805236816,43.527577517089846,40.72142805236817,47.269117517089846C40.72142805236817,47.269117517089846,40.72142805236817,47.269117517089846,40.72142805236817,47.269117517089846Z" fill="#D50B00" fill-opacity="1"/></g><g><path d="M32.76722553796387,41.471117517089844C32.66466953796387,41.214717517089845,32.37368353796387,41.09001751708984,32.11729253796387,41.19256751708984C31.860900337963866,41.295127517089846,31.736192337963868,41.586117517089846,31.83874933796387,41.84250751708984C31.83874933796387,41.84250751708984,32.76722553796387,41.471117517089844,32.76722553796387,41.471117517089844C32.76722553796387,41.471117517089844,32.76722553796387,41.471117517089844,32.76722553796387,41.471117517089844ZM39.204214537963864,35.690964517089846C39.00895453796387,35.495701817089845,38.69236453796387,35.495701817089845,38.497104537963864,35.690964517089846C38.301844537963866,35.886226517089845,38.301844537963866,36.20280851708984,38.497104537963864,36.39807051708984C38.497104537963864,36.39807051708984,39.204214537963864,35.690964517089846,39.204214537963864,35.690964517089846C39.204214537963864,35.690964517089846,39.204214537963864,35.690964517089846,39.204214537963864,35.690964517089846ZM31.83874933796387,41.84250751708984C32.47378553796387,43.43009751708984,33.572634537963864,45.50777751708984,35.08184453796387,46.892117517089844C35.840884537963866,47.58831751708984,36.727054537963866,48.130617517089846,37.731614537963864,48.324517517089845C38.74700453796387,48.52041751708984,39.836004537963866,48.35091751708984,40.96949453796387,47.70321751708984C40.96949453796387,47.70321751708984,40.47335453796387,46.835017517089845,40.47335453796387,46.835017517089845C39.52675453796387,47.375917517089846,38.67929453796387,47.488917517089845,37.921084537963864,47.34261751708984C37.15204453796387,47.19421751708984,36.427464537963864,46.76941751708984,35.757804537963864,46.155217517089845C34.40963453796387,44.91854751708984,33.379364537963866,43.00146751708984,32.76722553796387,41.471117517089844C32.76722553796387,41.471117517089844,31.83874933796387,41.84250751708984,31.83874933796387,41.84250751708984C31.83874933796387,41.84250751708984,31.83874933796387,41.84250751708984,31.83874933796387,41.84250751708984ZM40.96949453796387,47.70321751708984C42.70255453796386,46.71291751708984,43.57885453796386,45.48979751708984,43.81525453796387,44.15558751708984C44.047254537963866,42.84626751708984,43.64425453796387,41.52997751708985,43.03465453796387,40.37162751708984C41.820754537963865,38.06516751708985,39.64184453796387,36.12859351708985,39.204214537963864,35.690964517089846C39.204214537963864,35.690964517089846,38.497104537963864,36.39807051708984,38.497104537963864,36.39807051708984C38.99485453796387,36.89582751708984,41.025204537963866,38.70077751708985,42.149754537963865,40.83737751708984C42.709254537963865,41.90056751708984,43.00775453796387,42.981197517089846,42.83055453796386,43.98108751708985C42.65785453796387,44.95610751708985,42.01415453796387,45.95451751708984,40.47335453796387,46.835017517089845C40.47335453796387,46.835017517089845,40.96949453796387,47.70321751708984,40.96949453796387,47.70321751708984C40.96949453796387,47.70321751708984,40.96949453796387,47.70321751708984,40.96949453796387,47.70321751708984Z" fill="#000000" fill-opacity="1"/></g><g><path d="M23.998590375732423,40.91552587341309C23.58919337573242,40.852545873413085,23.206252175732423,41.133365873413084,23.14326814573242,41.54276587341309C23.080284175732423,41.952185873413086,23.361107375732423,42.335085873413085,23.770504375732422,42.39808587341309C23.770504375732422,42.39808587341309,23.998590375732423,40.91552587341309,23.998590375732423,40.91552587341309C23.998590375732423,40.91552587341309,23.998590375732423,40.91552587341309,23.998590375732423,40.91552587341309ZM40.497541375732425,32.54015987341309C40.628541375732425,32.14720187341309,40.41614137573242,31.722461873413085,40.023241375732425,31.591476973413087C39.630241375732425,31.460490973413087,39.20554137573242,31.672860873413086,39.07454137573242,32.06581787341309C39.07454137573242,32.06581787341309,40.497541375732425,32.54015987341309,40.497541375732425,32.54015987341309C40.497541375732425,32.54015987341309,40.497541375732425,32.54015987341309,40.497541375732425,32.54015987341309ZM23.770504375732422,42.39808587341309C25.91121137573242,42.727385873413084,29.28085137573242,42.62838587341309,32.52216137573242,41.27306587341309C35.79044137573242,39.906495873413085,38.92404137573242,37.26081587341309,40.497541375732425,32.54015987341309C40.497541375732425,32.54015987341309,39.07454137573242,32.06581787341309,39.07454137573242,32.06581787341309C37.654841375732424,36.32482587341308,34.86434137573242,38.667845873413086,31.94351137573242,39.889165873413084C28.995711375732423,41.121755873413086,25.91122137573242,41.209775873413086,23.998590375732423,40.91552587341309C23.998590375732423,40.91552587341309,23.770504375732422,42.39808587341309,23.770504375732422,42.39808587341309C23.770504375732422,42.39808587341309,23.770504375732422,42.39808587341309,23.770504375732422,42.39808587341309Z" fill="#000000" fill-opacity="1"/></g><g><path d="M35.34631263891602,38.77160456689453C35.30265063891601,38.64061856689453,35.161070638916016,38.56982856689453,35.030084638916016,38.613490566894534C34.899098638916016,38.65715256689453,34.82830863891601,38.79873256689453,34.87197063891602,38.92971856689453C34.87197063891602,38.92971856689453,35.34631263891602,38.77160456689453,35.34631263891602,38.77160456689453C35.34631263891602,38.77160456689453,35.34631263891602,38.77160456689453,35.34631263891602,38.77160456689453ZM37.80348363891601,42.815793566894534C37.92698363891601,42.87754356689453,38.077153638916016,42.82749356689453,38.13889363891602,42.70399356689453C38.20064363891601,42.58050356689453,38.15058363891602,42.43033356689453,38.027093638916014,42.36858356689453C38.027093638916014,42.36858356689453,37.80348363891601,42.815793566894534,37.80348363891601,42.815793566894534C37.80348363891601,42.815793566894534,37.80348363891601,42.815793566894534,37.80348363891601,42.815793566894534ZM35.109141638916014,38.85066156689453C34.87197063891602,38.92971856689453,34.87199363891602,38.92978756689453,34.87202063891601,38.92986656689453C34.872033638916015,38.92990756689453,34.87206363891602,38.92999756689453,34.87209163891602,38.93007856689453C34.87214563891602,38.93024156689453,34.87221463891601,38.93044756689453,34.87229763891602,38.93069556689453C34.872464638916014,38.93119256689453,34.87268863891602,38.93185856689453,34.872970638916016,38.93269256689453C34.873533638916015,38.93436056689453,34.874327638916014,38.93669956689453,34.875351638916015,38.93969156689453C34.87739863891601,38.94567556689453,34.88036863891602,38.95427156689453,34.884259638916014,38.96533856689453C34.89204263891602,38.987468566894535,34.90351563891601,39.01948856689453,34.91868263891602,39.06024856689453C34.949007638916015,39.14174756689453,34.99414563891602,39.25831856689453,35.054116638916014,39.400751566894535C35.173926638916015,39.68530356689453,35.35363463891601,40.074723566894534,35.593617638916015,40.49469356689453C36.068733638916015,41.32614356689453,36.800893638916016,42.31450356689453,37.80348363891601,42.815793566894534C37.80348363891601,42.815793566894534,38.027093638916014,42.36858356689453,38.027093638916014,42.36858356689453C37.158923638916015,41.934503566894534,36.48800363891601,41.052093566894534,36.027743638916014,40.246623566894534C35.80003063891601,39.84813356689453,35.628970638916016,39.47755756689453,35.51493463891602,39.206722566894534C35.45798363891602,39.07146356689453,35.41542963891602,38.96149756689453,35.387292638916016,38.88588156689453C35.37322863891602,38.84808456689453,35.36277963891602,38.81890256689453,35.355946638916016,38.799470566894534C35.35252963891602,38.789755566894534,35.35001863891602,38.782480566894534,35.34841263891602,38.77778856689453C35.34760963891602,38.77544256689453,35.34703363891602,38.77374156689453,35.34668363891601,38.77270556689453C35.34650863891601,38.77218656689453,35.346389638916015,38.77183456689453,35.346327638916016,38.77165056689453C35.346296638916016,38.771558566894534,35.346280638916014,38.77150856689453,35.346277638916014,38.77150056689453C35.34627663891602,38.771496566894534,35.346285638916015,38.77152256689453,35.34628463891602,38.77152056689453C35.346296638916016,38.77155756689453,35.34631263891602,38.77160456689453,35.109141638916014,38.85066156689453C35.109141638916014,38.85066156689453,35.109141638916014,38.85066156689453,35.109141638916014,38.85066156689453Z" fill="#000000" fill-opacity="1"/></g></g></svg>