<svg xmlns="http://www.w3.org/2000/svg" xmlns:xlink="http://www.w3.org/1999/xlink" fill="none" version="1.1" width="57.1229248046875" height="57.1229248046875" viewBox="0 0 57.1229248046875 57.1229248046875"><g><g transform="matrix(-1,0,0,-1,113.245849609375,113.245849609375)"><path d="M84.6844248046875,112.7458248046875Q85.3732248046875,112.7458248046875,86.0613248046875,112.7120248046875Q86.7493248046875,112.6782248046875,87.4349248046875,112.6107248046875Q88.1204248046875,112.5432248046875,88.8018248046875,112.4421248046875Q89.4832248046875,112.34102480468749,90.1589248046875,112.2066248046875Q90.8345248046875,112.0722248046875,91.5027248046875,111.90482480468751Q92.1710248046875,111.7375248046875,92.8302248046875,111.53752480468751Q93.4894248046875,111.33752480468749,94.13802480468749,111.10552480468749Q94.7866248046875,110.8734248046875,95.4230248046875,110.60982480468749Q96.0594248046875,110.34612480468749,96.68222480468751,110.05162480468749Q97.3049248046875,109.75712480468749,97.9124248046875,109.4324248046875Q98.5200248046875,109.1076248046875,99.1108248046875,108.7535248046875Q99.7017248046875,108.3993248046875,100.2745248046875,108.0166248046875Q100.8472248046875,107.6339248046875,101.4005248046875,107.2235248046875Q101.9539248046875,106.81322480468751,102.4864248046875,106.3762248046875Q103.0189248046875,105.93912480468751,103.52932480468749,105.4765248046875Q104.0397248046875,105.01392480468749,104.5268248046875,104.5268248046875Q105.01392480468749,104.0397248046875,105.4765248046875,103.52932480468749Q105.93912480468751,103.0189248046875,106.3762248046875,102.4864248046875Q106.81322480468751,101.9539248046875,107.2235248046875,101.4005248046875Q107.6339248046875,100.8472248046875,108.0166248046875,100.2745248046875Q108.3993248046875,99.7017248046875,108.7535248046875,99.1108248046875Q109.1076248046875,98.5200248046875,109.4324248046875,97.9124248046875Q109.75712480468749,97.3049248046875,110.05162480468749,96.68222480468751Q110.34612480468749,96.0594248046875,110.60982480468749,95.4230248046875Q110.8734248046875,94.7866248046875,111.10552480468749,94.13802480468749Q111.33752480468749,93.4894248046875,111.53752480468751,92.8302248046875Q111.7375248046875,92.1710248046875,111.9049248046875,91.5027248046875Q112.0722248046875,90.8345248046875,112.2066248046875,90.1589248046875Q112.34102480468749,89.4832248046875,112.4421248046875,88.8018248046875Q112.5432248046875,88.1204248046875,112.6107248046875,87.4349248046875Q112.6782248046875,86.7493248046875,112.7120248046875,86.0613248046875Q112.7458248046875,85.3732248046875,112.7458248046875,84.6844248046875Q112.7458248046875,83.9955248046875,112.7120248046875,83.3075248046875Q112.6782248046875,82.6194248046875,112.6107248046875,81.9339248046875Q112.5432248046875,81.2483248046875,112.4421248046875,80.5669248046875Q112.34102480468749,79.88552480468749,112.2066248046875,79.2098248046875Q112.0722248046875,78.5342248046875,111.90482480468751,77.8660248046875Q111.7375248046875,77.1978248046875,111.53752480468751,76.5385248046875Q111.33752480468749,75.8793248046875,111.10552480468749,75.2307248046875Q110.8734248046875,74.5821248046875,110.60982480468749,73.9457248046875Q110.34612480468749,73.30932480468749,110.05162480468749,72.68652480468751Q109.75712480468749,72.0638248046875,109.4324248046875,71.4563248046875Q109.1076248046875,70.8488248046875,108.7535248046875,70.2579248046875Q108.3993248046875,69.6670248046875,108.0166248046875,69.0942248046875Q107.6339248046875,68.5215248046875,107.2235248046875,67.9682248046875Q106.81322480468751,67.4149248046875,106.3762248046875,66.8824248046875Q105.93912480468751,66.3498748046875,105.4765248046875,65.8394648046875Q105.01392480468749,65.3290448046875,104.5268248046875,64.8419348046875Q104.0397248046875,64.3548348046875,103.52932480468749,63.8922148046875Q103.0189248046875,63.4295948046875,102.4864248046875,62.992584804687496Q101.9539248046875,62.5555648046875,101.4005248046875,62.1452048046875Q100.8472248046875,61.7348448046875,100.2745248046875,61.3521348046875Q99.7017248046875,60.9694148046875,99.1108248046875,60.6152648046875Q98.5200248046875,60.2611148046875,97.9124248046875,59.9363848046875Q97.3049248046875,59.6116548046875,96.68222480468751,59.3171248046875Q96.0594248046875,59.0225948046875,95.4230248046875,58.7589748046875Q94.7866248046875,58.4953548046875,94.13802480468749,58.2632848046875Q93.4894248046875,58.0312148046875,92.8302248046875,57.8312448046875Q92.1710248046875,57.6312748046875,91.5027248046875,57.4638918046875Q90.8345248046875,57.2965098046875,90.1589248046875,57.1621178046875Q89.4832248046875,57.0277258046875,88.8018248046875,56.9266478046875Q88.1204248046875,56.8255698046875,87.4349248046875,56.7580488046875Q86.7493248046875,56.6905273046875,86.0613248046875,56.6567261046875Q85.3732248046875,56.6229248046875,84.6844248046875,56.6229248046875Q83.9955248046875,56.6229248046875,83.3075248046875,56.6567261046875Q82.6194248046875,56.6905273046875,81.9339248046875,56.7580488046875Q81.2483248046875,56.8255698046875,80.5669248046875,56.9266478046875Q79.88552480468749,57.0277258046875,79.2098248046875,57.1621178046875Q78.5342248046875,57.2965098046875,77.8660248046875,57.4638918046875Q77.1978248046875,57.6312748046875,76.5385248046875,57.8312448046875Q75.8793248046875,58.0312148046875,75.2307248046875,58.2632848046875Q74.5821248046875,58.4953548046875,73.9457248046875,58.7589748046875Q73.30932480468749,59.0225948046875,72.68652480468751,59.3171248046875Q72.0638248046875,59.6116548046875,71.4563248046875,59.9363848046875Q70.8488248046875,60.2611148046875,70.2579248046875,60.6152648046875Q69.6670248046875,60.9694148046875,69.0942248046875,61.3521348046875Q68.5215248046875,61.7348448046875,67.9682248046875,62.1452048046875Q67.4149248046875,62.5555648046875,66.8824248046875,62.992584804687496Q66.3498748046875,63.4295948046875,65.8394648046875,63.8922148046875Q65.3290448046875,64.3548348046875,64.8419348046875,64.8419348046875Q64.3548348046875,65.3290448046875,63.8922148046875,65.8394648046875Q63.4295948046875,66.3498748046875,62.992584804687496,66.8824248046875Q62.5555648046875,67.4149248046875,62.1452048046875,67.9682248046875Q61.7348448046875,68.5215248046875,61.3521348046875,69.0942248046875Q60.9694148046875,69.6670248046875,60.6152648046875,70.2579248046875Q60.2611148046875,70.8488248046875,59.9363848046875,71.4563248046875Q59.6116548046875,72.0638248046875,59.3171248046875,72.68652480468751Q59.0225948046875,73.30932480468749,58.7589748046875,73.9457248046875Q58.4953548046875,74.5821248046875,58.2632848046875,75.2307248046875Q58.0312148046875,75.8793248046875,57.8312448046875,76.5385248046875Q57.6312748046875,77.1978248046875,57.4638918046875,77.8660248046875Q57.2965098046875,78.5342248046875,57.1621178046875,79.2098248046875Q57.0277258046875,79.88552480468749,56.9266478046875,80.5669248046875Q56.8255698046875,81.2483248046875,56.7580488046875,81.9339248046875Q56.6905273046875,82.6194248046875,56.6567261046875,83.3075248046875Q56.6229248046875,83.9955248046875,56.6229248046875,84.6844248046875Q56.6229248046875,85.81362480468749,56.7136576046875,86.9391248046875Q56.8043908046875,88.0647248046875,56.9852698046875,89.1793248046875Q57.1661488046875,90.29392480468749,57.4360038046875,91.3904248046875Q57.7058548046875,92.4869248046875,58.0629448046875,93.5582248046875Q58.4200348046875,94.6294248046875,58.8620448046875,95.66852480468751Q59.3040448046875,96.7076248046875,59.8281248046875,97.70792480468751Q60.3521948046875,98.7081248046875,60.9549448046875,99.6630248046875Q61.5576848046875,100.6179248046875,62.2352148046875,101.5212248046875L60.364474804687504,109.9397248046875L68.1380248046875,107.3485248046875Q69.0317248046875,108.0010248046875,69.9741248046875,108.5811248046875Q70.9164248046875,109.16122480468749,71.9015248046875,109.6653248046875Q72.8866248046875,110.1693248046875,73.9084248046875,110.5943248046875Q74.9301248046875,111.0192248046875,75.9822248046875,111.36242480468749Q77.0342248046875,111.7056248046875,78.1100248046875,111.96482480468751Q79.1858248046875,112.2241248046875,80.2786248046875,112.3978248046875Q81.3715248046875,112.5715248046875,82.4746248046875,112.6587248046875Q83.5778248046875,112.7458248046875,84.6844248046875,112.7458248046875Z" fill-rule="evenodd" fill="#FFCF00" fill-opacity="1"/><path d="M84.6844248046875,112.2458248046875Q89.9415248046875,112.2458248046875,94.8296248046875,110.31072480468751Q100.13692480468751,108.20962480468751,104.1733248046875,104.1733248046875Q108.20962480468751,100.1370248046875,110.31072480468751,94.8296248046875Q112.2458248046875,89.9415248046875,112.2458248046875,84.6844248046875Q112.2458248046875,79.4272248046875,110.31072480468751,74.5391248046875Q108.20962480468751,69.2318248046875,104.1733248046875,65.1954948046875Q100.1370248046875,61.1592148046875,94.8296248046875,59.0580648046875Q89.9415248046875,57.1229248046875,84.6844248046875,57.1229248046875Q79.4272248046875,57.1229248046875,74.5391248046875,59.0580648046875Q69.2317248046875,61.1592048046875,65.1954948046875,65.1954948046875Q61.1592148046875,69.2318248046875,59.0580648046875,74.5391248046875Q57.1229248046875,79.4272248046875,57.1229248046875,84.6844248046875Q57.1229248046875,93.87152480468751,62.6352148046875,101.2212248046875L62.7731948046875,101.40522480468749L60.8525648046875,110.04812480468749L60.364474804687504,109.9397248046875L60.2063548046875,109.4653248046875L68.2245248046875,106.7926248046875L68.4328248046875,106.9447248046875Q75.6939248046875,112.24592480468749,84.6844248046875,112.2458248046875ZM84.6844248046875,113.2458248046875Q75.3678248046875,113.2458248046875,67.8432248046875,107.7523248046875L68.1380248046875,107.3485248046875L68.2961248046875,107.8228248046875L59.6848148046875,110.6933248046875L61.7471148046875,101.4128248046875L62.2352148046875,101.5212248046875L61.8352148046875,101.8212248046875Q56.1229248046875,94.2049248046875,56.1229248046875,84.6844248046875Q56.1229248046875,79.2364248046875,58.1282748046875,74.1710248046875Q60.3056448046875,68.6711248046875,64.4883848046875,64.4883848046875Q68.6711248046875,60.3056548046875,74.1710248046875,58.1282748046875Q79.2365248046875,56.1229248046875,84.6844248046875,56.1229248046875Q90.1323248046875,56.1229248046875,95.19772480468751,58.1282748046875Q100.6976248046875,60.3056548046875,104.8804248046875,64.4883848046875Q109.0631248046875,68.6712248046875,111.24052480468751,74.1710248046875Q113.2458248046875,79.2365248046875,113.2458248046875,84.6844248046875Q113.2458248046875,90.1322248046875,111.24052480468751,95.19772480468751Q109.0631248046875,100.6976248046875,104.8804248046875,104.8804248046875Q100.6976248046875,109.0631248046875,95.19772480468751,111.24052480468751Q90.1322248046875,113.2458248046875,84.6844248046875,113.2458248046875Z" fill="#000000" fill-opacity="1"/></g><g transform="matrix(-1,0,0,-1,42.15681457519531,79.57209777832031)"><ellipse cx="24.81993532180786" cy="45.39834117889404" rx="3.741528034210205" ry="5.612292289733887" fill="#000000" fill-opacity="1"/></g><g transform="matrix(-1,0,0,-1,87.0551986694336,79.57209777832031)"><ellipse cx="47.269127368927" cy="45.39834117889404" rx="3.741528034210205" ry="5.612292289733887" fill="#000000" fill-opacity="1"/></g><g><path d="M20.371299287597655,18.500316064453123C19.980776587597656,18.890836064453126,19.980776587597656,19.524006064453125,20.371299287597655,19.914526064453124C20.761823287597657,20.305056064453126,21.394987287597658,20.305056064453126,21.785517287597656,19.914526064453124C21.785517287597656,19.914526064453124,20.371299287597655,18.500316064453123,20.371299287597655,18.500316064453123C20.371299287597655,18.500316064453123,20.371299287597655,18.500316064453123,20.371299287597655,18.500316064453123ZM34.450607287597656,19.959996064453126C34.86630728759766,20.323686064453124,35.49800728759766,20.281566064453123,35.86170728759765,19.865926064453124C36.225407287597655,19.450296064453127,36.18330728759766,18.818526064453124,35.767607287597656,18.454846064453125C35.767607287597656,18.454846064453125,34.450607287597656,19.959996064453126,34.450607287597656,19.959996064453126C34.450607287597656,19.959996064453126,34.450607287597656,19.959996064453126,34.450607287597656,19.959996064453126ZM21.785517287597656,19.914526064453124C22.752127287597656,18.947926064453124,24.576277287597655,17.757586064453125,26.819137287597655,17.413066064453126C29.012907287597656,17.076096064453125,31.678607287597657,17.534506064453126,34.450607287597656,19.959996064453126C34.450607287597656,19.959996064453126,35.767607287597656,18.454846064453125,35.767607287597656,18.454846064453125C32.55320728759766,15.642205064453124,29.29483728759766,15.009340064453125,26.515487287597658,15.436258064453124C23.785237287597656,15.855639064453126,21.587247287597656,17.284376064453124,20.371299287597655,18.500316064453123C20.371299287597655,18.500316064453123,21.785517287597656,19.914526064453124,21.785517287597656,19.914526064453124C21.785517287597656,19.914526064453124,21.785517287597656,19.914526064453124,21.785517287597656,19.914526064453124Z" fill="#000000" fill-opacity="1"/></g></g></svg>