<svg xmlns="http://www.w3.org/2000/svg" xmlns:xlink="http://www.w3.org/1999/xlink" fill="none" version="1.1" width="68.34750366210938" height="60.864776611328125" viewBox="0 0 68.34750366210938 60.864776611328125"><defs><filter id="master_svg0_0_865" filterUnits="objectBoundingBox" color-interpolation-filters="sRGB" x="-2" y="-2" width="9.612292289733887" height="7.741528034210205"><feFlood flood-opacity="0" result="BackgroundImageFix"/><feBlend mode="normal" in="SourceGraphic" in2="BackgroundImageFix" result="shape"/><feGaussianBlur stdDeviation="0.5" result="effect1_foregroundBlur"/></filter><filter id="master_svg1_0_866" filterUnits="objectBoundingBox" color-interpolation-filters="sRGB" x="-2" y="-2" width="9.612292289733887" height="7.741528034210205"><feFlood flood-opacity="0" result="BackgroundImageFix"/><feBlend mode="normal" in="SourceGraphic" in2="BackgroundImageFix" result="shape"/><feGaussianBlur stdDeviation="0.5" result="effect1_foregroundBlur"/></filter><mask id="master_svg2_0_870" style="mask-type:alpha" maskUnits="userSpaceOnUse"><g><path d="M47.89822682876587,40.826204259033204C49.71762682876587,43.639534259033205,46.35202682876587,53.0225842590332,34.251226828765866,53.0225842590332C22.150386828765868,53.022484259033206,18.78469682876587,42.7018242590332,20.60428782876587,40.826204259033204C22.42387682876587,38.9505892590332,29.078906828765867,40.721424259033206,34.173726828765865,40.721424259033206C39.26862682876587,40.721424259033206,46.07882682876587,38.0128842590332,47.89822682876587,40.826204259033204C47.89822682876587,40.826204259033204,47.89822682876587,40.826204259033204,47.89822682876587,40.826204259033204Z" fill="#FFFFFF" fill-opacity="1"/></g></mask></defs><g><g><path d="M0.5000004768371582,14.530727521362305C0.5000004768371582,19.207587521362306,8.918440476837159,30.432187521362305,8.918440476837159,30.432187521362305C8.918440476837159,30.432187521362305,60.36440047683716,30.432187521362305,60.36440047683716,30.432187521362305C60.36440047683716,30.432187521362305,67.84750047683715,19.207587521362306,67.84750047683715,14.530727521362305C67.84750047683715,9.853817521362306,61.299800476837156,6.112287521362305,57.55830047683716,6.112287521362305C53.81680047683716,6.112287521361454,51.946000476837156,11.724577521362304,48.20450047683716,11.724577521362304C48.20450047683716,11.724577521362304,20.14300047683716,11.724577521362304,20.14300047683716,11.724577521362304C16.401500476837157,11.724577521362304,12.660000476837158,6.112287521362305,8.918440476837159,6.112287521362305C5.1769104768371585,6.112287521362305,0.5000004768371582,9.853817521362306,0.5000004768371582,14.530727521362305C0.5000004768371582,14.530727521362305,0.5000004768371582,14.530727521362305,0.5000004768371582,14.530727521362305Z" fill="#834847" fill-opacity="1"/><path d="M14.830800476837158,8.518447521362305Q10.955900476837158,5.612287521362305,8.918440476837159,5.612288521362305Q5.754060476837158,5.612287521362305,2.9659204768371583,8.201267521362304Q-5.231628418256307e-7,10.955337521362305,-5.231628418256307e-7,14.530727521362305Q4.76837158203125e-7,17.594887521362303,4.280670476837159,24.492987521362306Q6.395640476837158,27.901087521362303,8.518390476837158,30.732087521362306L8.518440476837158,30.732187521362306L8.668440476837159,30.932187521362305L60.632000476837156,30.932187521362305L60.78040047683716,30.709587521362305Q62.662800476837155,27.885987521362306,64.54370047683716,24.476787521362304Q68.34750047683715,17.582587521362306,68.34750047683715,14.530727521362305Q68.34750047683715,11.014227521362304,64.39870047683715,8.162327521362304Q60.86790047683716,5.612287521362305,57.55830047683716,5.612288521362305Q56.154900476837156,5.612287521362305,54.75990047683716,6.578111521362304Q53.96280047683716,7.129937521362304,52.52780047683716,8.564877521362305Q49.86810047683716,11.224577521362304,48.20450047683716,11.224577521362304L20.14300047683716,11.224577521362304Q18.43890047683716,11.224577521362304,14.830800476837158,8.518447521362305ZM3.6463704768371583,8.934067521362305Q6.1467404768371585,6.612287521362305,8.918440476837159,6.612287521362305Q10.622600476837158,6.612287521362305,14.230800476837159,9.318447521362305Q18.105600476837157,12.224577521362304,20.14300047683716,12.224577521362304L48.20450047683716,12.224577521362304Q49.607800476837156,12.224577521362304,51.002900476837155,11.258757521362305Q51.800000476837155,10.706927521362305,53.23500047683716,9.271987521362306Q55.894600476837155,6.612287521362305,57.55830047683716,6.612288521362305Q60.54460047683716,6.612288521362305,63.81320047683716,8.973007521362305Q67.34750047683715,11.525547521362306,67.34750047683715,14.530727521362305Q67.34760047683716,17.324987521362303,63.66820047683716,23.993787521362304Q61.88150047683716,27.232087521362306,60.09620047683716,29.932187521362305L9.169030476837158,29.932187521362305Q7.147560476837159,27.216287521362304,5.130360476837158,23.965687521362305Q1.0000004768371582,17.309887521362306,0.9999994768371583,14.530727521362305Q1.0000004768371582,11.391407521362304,3.6463704768371583,8.934067521362305Z" fill-rule="evenodd" fill="#000000" fill-opacity="1"/></g><g><path d="M35.10918371582031,60.364773361206055C50.60708371582031,60.364773361206055,63.170583715820314,47.801173361206054,63.170583715820314,32.30327336120605C63.170583715820314,18.063290361206054,52.563783715820314,18.146059861206055,38.81978371582031,18.253310861206053C37.60568371582031,18.262785061206056,36.367083715820314,18.272450361206054,35.10918371582031,18.272450361206054C33.85118371582031,18.272450361206054,32.612583715820314,18.262785061206056,31.398483715820312,18.253310861206053C17.654483715820312,18.146059861206055,7.0476837158203125,18.063290361206054,7.0476837158203125,32.30327336120605C7.0476837158203125,38.456173361206055,9.027963715820313,44.14657336120605,12.385953715820312,48.771873361206055C12.557633715820312,49.008373361206054,12.622993715820312,49.30647336120606,12.559603715820312,49.591673361206055C12.559603715820312,49.591673361206055,11.172343715820313,55.834373361206055,11.172343715820313,55.834373361206055C11.003723715820312,56.593173361206055,11.727353715820312,57.245773361206055,12.464753715820311,56.99997336120605C12.464753715820311,56.99997336120605,18.070583715820312,55.13137336120605,18.070583715820312,55.13137336120605C18.37788371582031,55.028973361206056,18.715083715820313,55.082673361206055,18.97998371582031,55.269073361206054C23.542983715820313,58.47967336120605,29.105883715820312,60.364773361206055,35.10918371582031,60.364773361206055C35.10918371582031,60.364773361206055,35.10918371582031,60.364773361206055,35.10918371582031,60.364773361206055Z" fill-rule="evenodd" fill="#FFCF00" fill-opacity="1"/><path d="M18.22868371582031,55.60567336120605Q18.47358371582031,55.52407336120606,18.692283715820313,55.67797336120606Q26.063883715820314,60.864773361206055,35.10918371582031,60.864773361206055Q40.91958371582031,60.864773361206055,46.226683715820315,58.62007336120605Q51.35228371582031,56.452073361206054,55.30518371582031,52.49927336120606Q59.25798371582031,48.546473361206054,61.42588371582031,43.420873361206056Q63.670583715820314,38.113673361206054,63.670583715820314,32.30327336120605Q63.670583715820314,22.364793361206054,56.33468371582031,19.433763361206054Q53.33358371582031,18.234666824206055,48.45688371582031,17.902031361206056Q45.51078371582031,17.701079361206055,38.81588371582031,17.753323361206053L35.106583715820314,17.772457361206055L31.401083715820313,17.753317361206054Q24.707483715820313,17.701082361206055,21.761383715820312,17.902032361206054Q16.884723715820314,18.234666824206055,13.883573715820312,19.433773361206054Q6.5476837158203125,22.364803361206054,6.547680715820313,32.30327336120605Q6.5476837158203125,41.58127336120606,11.981343715820312,49.06567336120605Q12.121433715820313,49.258573361206054,12.071513715820313,49.483173361206056L10.684253715820311,55.725873361206055Q10.494553715820313,56.57957336120605,11.143923715820312,57.16517336120606Q11.793283715820312,57.750873361206054,12.622863715820312,57.47427336120605L18.22868371582031,55.60567336120605ZM35.10918371582031,59.864773361206055Q26.38048371582031,59.864773361206055,19.26768371582031,54.86017336120605Q18.636283715820312,54.41587336120605,17.912483715820315,54.65707336120605L12.306643715820313,56.52567336120605Q12.030103715820314,56.617773361206055,11.813653715820312,56.422573361206055Q11.597203715820314,56.227373361206055,11.660433715820313,55.942873361206054L13.047693715820312,49.700173361206055Q13.195363715820314,49.035773361206054,12.790563715820312,48.47817336120605Q7.5476837158203125,41.25657336120605,7.547680715820313,32.30327336120605Q7.5476837158203125,23.042113361206056,14.254593715820313,20.362393361206056Q17.10968371582031,19.221645361206054,21.829483715820313,18.899714361206055Q24.737683715820314,18.701348361206055,31.39588371582031,18.753304361206055L35.11178371582031,18.772443361206054L38.82368371582031,18.753292361206054Q45.48058371582031,18.701345361206055,48.38878371582031,18.899712361206056Q53.10858371582031,19.221644361206053,55.96368371582031,20.362393361206056Q62.670583715820314,23.042113361206056,62.670583715820314,32.30327336120605Q62.67068371582031,43.71957336120606,54.598083715820316,51.79217336120605Q46.525483715820315,59.864773361206055,35.10918371582031,59.864773361206055Z" fill-rule="evenodd" fill="#000000" fill-opacity="1"/></g><g filter="url(#master_svg0_0_865)"><ellipse cx="52.881391525268555" cy="36.04450821876526" rx="2.8061461448669434" ry="1.8707640171051025" fill="#FF8B72" fill-opacity="1"/></g><g filter="url(#master_svg1_0_866)"><ellipse cx="17.33688735961914" cy="36.04450821876526" rx="2.8061461448669434" ry="1.8707640171051025" fill="#FF8B72" fill-opacity="1"/></g><g><g><path d="M47.89822682876587,40.82407822155356C49.71762682876587,43.63739822155357,46.35202682876587,53.02047822155356,34.251226828765866,53.020378221553564C22.150386828765868,53.020378221553564,18.78469682876587,42.699688221553565,20.60428782876587,40.82407822155356C22.42387682876587,38.94845622155356,29.15635682876587,40.823968221553564,34.251226828765866,40.823968221553564C39.34602682876587,40.823968221553564,46.07882682876587,38.01074822155356,47.89822682876587,40.82407822155356C47.89822682876587,40.82407822155356,47.89822682876587,40.82407822155356,47.89822682876587,40.82407822155356Z" fill="#000000" fill-opacity="1"/><path d="M39.77452682876587,39.669963721553565Q35.97222682876587,40.323965221553564,34.251226828765866,40.323965221553564Q32.51612682876587,40.32396422155357,28.70020682876587,39.886391221553566Q25.17847682876587,39.48255212155357,23.73236682876587,39.49068032155356Q21.187346828765868,39.50498532155356,20.24541782876587,40.47592122155356Q19.332232828765868,41.41721822155356,19.777201828765868,43.62002822155357Q20.223378628765868,45.828808221553565,21.80865682876587,47.927008221553564Q23.66922682876587,50.38957822155356,26.533916828765868,51.82547822155357Q29.915336828765867,53.520378221553564,34.251226828765866,53.520378221553564Q42.56142682876587,53.52047822155356,46.687426828765865,48.28682822155356Q48.28812682876587,46.25642822155356,48.72582682876587,44.01235822155356Q49.14982682876587,41.83870822155357,48.31812682876587,40.552553221553566Q47.37612682876587,39.09599022155356,44.77162682876587,39.074046221553566Q43.31062682876587,39.061737221553564,39.77452682876587,39.669963721553565ZM28.58628682876587,40.87987822155356Q32.45902682876587,41.323968221553564,34.251226828765866,41.323968221553564Q36.05752682876587,41.323968221553564,39.94402682876587,40.65548822155356Q43.39182682876587,40.062457221553565,44.763226828765866,40.07401122155356Q46.82892682876587,40.091416221553565,47.47832682876587,41.095598221553566Q48.091126828765866,42.04310822155357,47.744326828765864,43.82091822155356Q47.35302682876587,45.82740822155356,45.90212682876587,47.667718221553564Q42.07632682876587,52.52047822155356,34.251226828765866,52.520378221553564Q26.53251682876587,52.520378221553564,22.60653682876587,47.32417822155357Q21.15849682876587,45.40763822155356,20.75740382876587,43.42202822155356Q20.41672182876587,41.73548822155357,20.96316182876587,41.17222822155357Q21.61277682876587,40.50261022155357,23.73798682876587,40.490664221553565Q25.124126828765867,40.48287322155356,28.58628682876587,40.87987822155356Z" fill-rule="evenodd" fill="#000000" fill-opacity="1"/></g><g mask="url(#master_svg2_0_870)"><g><path d="M34.1737529196167,48.34567070007324C28.187302919616698,48.34567070007324,26.0671069196167,52.08720070007324,25.7553129196167,53.957960700073244C25.7553129196167,53.957960700073244,42.5922129196167,53.957960700073244,42.5922129196167,53.957960700073244C42.280412919616694,52.08720070007324,40.1602129196167,48.34567070007324,34.1737529196167,48.34567070007324C34.1737529196167,48.34567070007324,34.1737529196167,48.34567070007324,34.1737529196167,48.34567070007324Z" fill="#D50B00" fill-opacity="1"/></g><g><path d="M34.41762682876587,45.539529678878786C15.144106828765869,45.539529678878786,20.65098382876587,40.55081967887878,21.56875682876587,38.056469678878784C21.56875682876587,38.056469678878784,50.01972682876587,38.056469678878784,50.01972682876587,38.056469678878784C50.01982682876587,40.55081967887878,51.855226828765865,45.539529678878786,34.41762682876587,45.539529678878786C34.41762682876587,45.539529678878786,34.41762682876587,45.539529678878786,34.41762682876587,45.539529678878786Z" fill="#F4F4F6" fill-opacity="1"/></g></g></g><g><ellipse cx="23.884554862976074" cy="28.5614652633667" rx="3.741528034210205" ry="5.612292289733887" fill="#000000" fill-opacity="1"/></g><g><ellipse cx="44.46295642852783" cy="28.5614652633667" rx="3.741528034210205" ry="5.612292289733887" fill="#000000" fill-opacity="1"/></g><g><path d="M23.88455354312134,7.98306C24.81993154312134,9.85382,23.88455354312134,11.7246,23.88455354312134,11.7246C23.88455354312134,11.7246,44.46297154312134,11.7246,44.46297154312134,11.7246C44.46297154312134,11.7246,43.52757154312134,9.85382,44.46297154312134,7.98306C45.39837154312134,6.11229,45.39837154312134,6.11229,45.39837154312134,5.17691C45.39837154312134,4.24153,44.46297154312134,0.499889362,42.59217154312134,0.50000000245366C40.72147154312134,0.500110646,27.626081543121337,0.5000869813,25.755321543121337,0.50000000245366C23.88455354312134,0.4999130276,22.949171543121338,4.24153,22.949171543121338,5.17691C22.949171543121338,6.11229,22.949171543121338,6.11229,23.88455354312134,7.98306C23.88455354312134,7.98306,23.88455354312134,7.98306,23.88455354312134,7.98306Z" fill="#834847" fill-opacity="1"/><path d="M23.193802543121336,2.2845899999999997Q22.449171543121338,3.96002,22.449171543121338,5.17691Q22.449171543121338,5.95958,22.591752543121338,6.38733Q22.71991254312134,6.77181,23.43733954312134,8.206669999999999Q23.94924154312134,9.23046,23.742123543121338,10.47317Q23.63756054312134,11.1005,23.43733854312134,11.501L23.07554154312134,12.2246L45.27197154312134,12.2246L44.910171543121336,11.501Q44.70997154312134,11.1005,44.605371543121336,10.47316Q44.39827154312134,9.23047,44.910171543121336,8.206669999999999Q45.62767154312134,6.7718,45.75577154312134,6.38733Q45.89837154312134,5.95959,45.89837154312134,5.17691Q45.89837154312134,3.96002,45.15377154312134,2.28458Q44.138271543121334,-0.00009099999999995223,42.59217154312134,9.999999999732445e-7L34.17377154312134,0.0000740000000000185L25.755321543121337,0Q24.20919154312134,-0.00007199999999996098,23.193802543121336,2.2845899999999997ZM23.540435543121337,6.0711Q23.449171543121338,5.79731,23.449171543121338,5.17691Q23.449171543121338,4.17223,24.107611543121337,2.69072Q24.85906154312134,0.999958,25.755321543121337,1L34.17377154312134,1.0000740000000001L42.59217154312134,1.0000010000000001Q43.488471543121335,0.9999480000000001,44.23987154312134,2.69072Q44.89837154312134,4.17223,44.89837154312134,5.17691Q44.89837154312134,5.79731,44.80707154312134,6.0711Q44.70137154312134,6.38815,44.01577154312134,7.75945Q43.358371543121336,9.0741,43.61897154312133,10.6376Q43.67117154312134,10.9507,43.74587154312134,11.2246L24.60162154312134,11.2246Q24.67633154312134,10.9507,24.72852154312134,10.6376Q24.989091543121337,9.0741,24.331771543121338,7.75945Q23.646122543121336,6.38816,23.540435543121337,6.0711Z" fill-rule="evenodd" fill="#000000" fill-opacity="1"/></g><g><rect x="23.884544849395752" y="6.112287521362305" width="20.578405380249023" height="5.612292289733887" rx="0" fill="#FFDD94" fill-opacity="1"/></g><g><path d="M23.884555821075438,11.7246C23.884555821075438,11.7246,23.43733882107544,11.501,23.43733882107544,11.501C23.43733882107544,11.501,23.07553582107544,12.2246,23.07553582107544,12.2246C23.07553582107544,12.2246,23.884555821075438,12.2246,23.884555821075438,12.2246C23.884555821075438,12.2246,23.884555821075438,11.7246,23.884555821075438,11.7246C23.884555821075438,11.7246,23.884555821075438,11.7246,23.884555821075438,11.7246ZM44.46296582107544,11.7246C44.46296582107544,11.7246,44.46296582107544,12.2246,44.46296582107544,12.2246C44.46296582107544,12.2246,45.27196582107544,12.2246,45.27196582107544,12.2246C45.27196582107544,12.2246,44.91016582107544,11.501,44.91016582107544,11.501C44.91016582107544,11.501,44.46296582107544,11.7246,44.46296582107544,11.7246C44.46296582107544,11.7246,44.46296582107544,11.7246,44.46296582107544,11.7246ZM23.884555821075438,11.7246C24.33177582107544,11.9482,24.33186582107544,11.948,24.33195582107544,11.9478C24.331995821075438,11.9477,24.33209582107544,11.9476,24.33216582107544,11.9474C24.33230582107544,11.9471,24.332465821075438,11.9468,24.332645821075438,11.9464C24.33298582107544,11.9457,24.333395821075438,11.9449,24.33384582107544,11.944C24.33476582107544,11.9421,24.33590582107544,11.9398,24.337245821075438,11.937C24.33993582107544,11.9315,24.34346582107544,11.9241,24.34773582107544,11.915C24.35628582107544,11.8967,24.367845821075438,11.8713,24.38170582107544,11.8394C24.40939582107544,11.7754,24.44639582107544,11.6848,24.48696582107544,11.5712C24.567915821075438,11.3446,24.66425582107544,11.0232,24.72852582107544,10.6376C24.856675821075438,9.86867,24.86107582107544,8.81805,24.33177582107544,7.75945C24.33177582107544,7.75945,23.43733882107544,8.20666,23.43733882107544,8.20666C23.84341582107544,9.01883,23.84782582107544,9.83897,23.74212582107544,10.4732C23.68947582107544,10.7891,23.610425821075438,11.0523,23.545215821075438,11.2349C23.51271582107544,11.3259,23.48394582107544,11.396,23.46414582107544,11.4417C23.45424582107544,11.4646,23.446620821075438,11.4812,23.44192482107544,11.4913C23.43957782107544,11.4963,23.43796582107544,11.4997,23.43717282107544,11.5013C23.43677682107544,11.5021,23.43658582107544,11.5025,23.43660982107544,11.5024C23.43662182107544,11.5024,23.436687821075438,11.5023,23.436808821075438,11.502C23.43686982107544,11.5019,23.436943821075438,11.5018,23.43703182107544,11.5016C23.43707582107544,11.5015,23.43715282107544,11.5014,23.43717482107544,11.5013C23.43725582107544,11.5011,23.43733882107544,11.501,23.884555821075438,11.7246C23.884555821075438,11.7246,23.884555821075438,11.7246,23.884555821075438,11.7246ZM24.33177582107544,7.75945C23.85462582107544,6.80517,23.64304582107544,6.37895,23.54043582107544,6.0711C23.45224582107544,5.80654,23.44917582107544,5.6485,23.44917582107544,5.17691C23.44917582107544,5.17691,22.449170877345438,5.17691,22.449170877345438,5.17691C22.449170877345438,5.6407,22.446093881075438,5.95035,22.59175182107544,6.38733C22.72298282107544,6.78102,22.97909682107544,7.29018,23.43733882107544,8.20666C23.43733882107544,8.20666,24.33177582107544,7.75945,24.33177582107544,7.75945C24.33177582107544,7.75945,24.33177582107544,7.75945,24.33177582107544,7.75945ZM23.44917582107544,5.17691C23.44917582107544,4.79743,23.65984582107544,3.6982,24.107615821075438,2.69072C24.32900582107544,2.19259,24.59300582107544,1.75308,24.88832582107544,1.44546C25.18154582107544,1.14003,25.46898582107544,0.999987,25.75529582107544,1C25.75529582107544,1,25.75533582107544,3.30523e-9,25.75533582107544,3.30523e-9C25.10625582107544,-0.0000299967,24.57525582107544,0.327601,24.16694582107544,0.752925C23.76071582107544,1.17606,23.44010082107544,1.73041,23.19380082107544,2.28459C22.706183821075438,3.38174,22.449170877345438,4.62101,22.449170877345438,5.17691C22.449170877345438,5.17691,23.44917582107544,5.17691,23.44917582107544,5.17691C23.44917582107544,5.17691,23.44917582107544,5.17691,23.44917582107544,5.17691ZM25.75529582107544,1C27.62607582107544,1.00009,40.72146582107544,1.00011,42.59226582107544,1C42.59226582107544,1,42.59216582107544,3.30523e-9,42.59216582107544,3.30523e-9C40.72146582107544,0.000111003,27.626095821075438,0.0000870033,25.75533582107544,3.30523e-9C25.75533582107544,3.30523e-9,25.75529582107544,1,25.75529582107544,1C25.75529582107544,1,25.75529582107544,1,25.75529582107544,1ZM42.59226582107544,1C42.87856582107544,0.999983,43.16596582107544,1.14002,43.459165821075445,1.44545C43.75446582107544,1.75307,44.01846582107544,2.19258,44.23986582107544,2.69071C44.68766582107544,3.6982,44.898365821075444,4.79742,44.898365821075444,5.17691C44.898365821075444,5.17691,45.898365821075444,5.17691,45.898365821075444,5.17691C45.898365821075444,4.62101,45.64136582107544,3.38173,45.153665821075435,2.28458C44.907365821075445,1.7304,44.58676582107544,1.17605,44.18056582107544,0.752914C43.772265821075436,0.327591,43.241265821075444,-0.0000379967,42.59216582107544,3.30523e-9C42.59216582107544,3.30523e-9,42.59226582107544,1,42.59226582107544,1C42.59226582107544,1,42.59226582107544,1,42.59226582107544,1ZM44.898365821075444,5.17691C44.898365821075444,5.6485,44.89526582107544,5.80654,44.80706582107544,6.0711C44.70446582107544,6.37895,44.49286582107544,6.80517,44.01576582107544,7.75945C44.01576582107544,7.75945,44.91016582107544,8.20666,44.91016582107544,8.20666C45.36836582107544,7.29018,45.624565821075436,6.78102,45.75576582107544,6.38733C45.901365821075444,5.95036,45.898365821075444,5.6407,45.898365821075444,5.17691C45.898365821075444,5.17691,44.898365821075444,5.17691,44.898365821075444,5.17691C44.898365821075444,5.17691,44.898365821075444,5.17691,44.898365821075444,5.17691ZM44.01576582107544,7.75945C43.48646582107544,8.81805,43.49086582107544,9.86867,43.618965821075435,10.6376C43.68326582107544,11.0232,43.77956582107544,11.3446,43.86056582107544,11.5712C43.90116582107544,11.6848,43.938165821075444,11.7754,43.965765821075436,11.8394C43.97966582107544,11.8713,43.991265821075444,11.8967,43.99976582107544,11.915C44.00406582107544,11.9241,44.00756582107544,11.9315,44.010265821075436,11.937C44.011565821075436,11.9398,44.01276582107544,11.9421,44.013665821075435,11.944C44.01416582107544,11.9449,44.014565821075436,11.9457,44.01486582107544,11.9464C44.01506582107544,11.9468,44.01516582107544,11.9471,44.015365821075434,11.9474C44.01546582107544,11.9476,44.01556582107544,11.9477,44.01556582107544,11.9478C44.015665821075444,11.948,44.01576582107544,11.9482,44.46296582107544,11.7246C44.91016582107544,11.501,44.91026582107544,11.5011,44.910365821075445,11.5013C44.910365821075445,11.5014,44.91046582107544,11.5015,44.91046582107544,11.5016C44.91056582107544,11.5018,44.91066582107544,11.5019,44.91066582107544,11.502C44.91086582107544,11.5023,44.91086582107544,11.5024,44.91086582107544,11.5024C44.910965821075436,11.5025,44.910765821075444,11.5021,44.910365821075445,11.5013C44.90956582107544,11.4997,44.907965821075436,11.4963,44.90556582107544,11.4913C44.90086582107544,11.4812,44.89326582107544,11.4646,44.883365821075444,11.4417C44.86356582107544,11.396,44.834765821075436,11.3259,44.80226582107544,11.2349C44.73706582107544,11.0523,44.65806582107544,10.7891,44.60536582107544,10.4732C44.49966582107544,9.83897,44.50406582107544,9.01882,44.91016582107544,8.20666C44.91016582107544,8.20666,44.01576582107544,7.75945,44.01576582107544,7.75945C44.01576582107544,7.75945,44.01576582107544,7.75945,44.01576582107544,7.75945ZM44.46296582107544,11.2246C44.46296582107544,11.2246,23.884555821075438,11.2246,23.884555821075438,11.2246C23.884555821075438,11.2246,23.884555821075438,12.2246,23.884555821075438,12.2246C23.884555821075438,12.2246,44.46296582107544,12.2246,44.46296582107544,12.2246C44.46296582107544,12.2246,44.46296582107544,11.2246,44.46296582107544,11.2246C44.46296582107544,11.2246,44.46296582107544,11.2246,44.46296582107544,11.2246Z" fill="#000000" fill-opacity="1"/></g></g></svg>