<svg xmlns="http://www.w3.org/2000/svg" xmlns:xlink="http://www.w3.org/1999/xlink" fill="none" version="1.1" width="57.272743225097656" height="57.1229248046875" viewBox="0 0 57.272743225097656 57.1229248046875"><defs><filter id="master_svg0_0_736" filterUnits="objectBoundingBox" color-interpolation-filters="sRGB" x="-1" y="-1" width="7.612292289733887" height="4.806146144866943"><feFlood flood-opacity="0" result="BackgroundImageFix"/><feBlend mode="normal" in="SourceGraphic" in2="BackgroundImageFix" result="shape"/><feGaussianBlur stdDeviation="0.25" result="effect1_foregroundBlur"/></filter><filter id="master_svg1_0_737" filterUnits="objectBoundingBox" color-interpolation-filters="sRGB" x="-1" y="-1" width="7.612292289733887" height="4.806146144866943"><feFlood flood-opacity="0" result="BackgroundImageFix"/><feBlend mode="normal" in="SourceGraphic" in2="BackgroundImageFix" result="shape"/><feGaussianBlur stdDeviation="0.25" result="effect1_foregroundBlur"/></filter></defs><g><g><path d="M28.5615,56.6229Q29.2503,56.6229,29.9384,56.5891Q30.6264,56.5553,31.312,56.4878Q31.9975,56.4203,32.6789,56.3192Q33.3603,56.2181,34.036,56.0837Q34.7116,55.9493,35.3798,55.7819Q36.0481,55.6146,36.7073,55.4146Q37.3665,55.2146,38.0151,54.9826Q38.6637,54.7505,39.3001,54.4869Q39.9365,54.2232,40.5593,53.9287Q41.182,53.6342,41.7895,53.3095Q42.3971,52.9847,42.9879,52.6306Q43.5788,52.2764,44.1516,51.8937Q44.7243,51.511,45.2776,51.1006Q45.831,50.6903,46.3635,50.2533Q46.896,49.8162,47.4064,49.3536Q47.9168,48.891,48.4039,48.4039Q48.891,47.9168,49.3536,47.4064Q49.8162,46.896,50.2533,46.3635Q50.6903,45.831,51.1006,45.2776Q51.511,44.7243,51.8937,44.1516Q52.2764,43.5788,52.6306,42.9879Q52.9847,42.3971,53.3095,41.7895Q53.6342,41.182,53.9287,40.5593Q54.2232,39.9365,54.4869,39.3001Q54.7505,38.6637,54.9826,38.0151Q55.2146,37.3665,55.4146,36.7073Q55.6146,36.0481,55.782,35.3798Q55.9493,34.7116,56.0837,34.036Q56.2181,33.3603,56.3192,32.6789Q56.4203,31.9975,56.4878,31.312Q56.5553,30.6264,56.5891,29.9384Q56.6229,29.2503,56.6229,28.5615Q56.6229,27.8726,56.5891,27.1846Q56.5553,26.4965,56.4878,25.811Q56.4203,25.1254,56.3192,24.444Q56.2181,23.7626,56.0837,23.0869Q55.9493,22.4113,55.7819,21.7431Q55.6146,21.0749,55.4146,20.4156Q55.2146,19.7564,54.9826,19.1078Q54.7505,18.4592,54.4869,17.8228Q54.2232,17.1864,53.9287,16.5636Q53.6342,15.9409,53.3095,15.3334Q52.9847,14.7259,52.6306,14.135Q52.2764,13.5441,51.8937,12.9713Q51.511,12.3986,51.1006,11.8453Q50.6903,11.292,50.2533,10.7595Q49.8162,10.22695,49.3536,9.71654Q48.891,9.20612,48.4039,8.71901Q47.9168,8.23191,47.4064,7.76929Q46.896,7.30667,46.3635,6.86966Q45.831,6.43264,45.2776,6.02228Q44.7243,5.61192,44.1516,5.22921Q43.5788,4.84649,42.9879,4.49234Q42.3971,4.13819,41.7895,3.81346Q41.182,3.48873,40.5593,3.1942Q39.9365,2.89967,39.3001,2.63605Q38.6637,2.37243,38.0151,2.1403600000000003Q37.3665,1.90829,36.7073,1.70832Q36.0481,1.50835,35.3798,1.340967Q34.7116,1.173585,34.036,1.039193Q33.3603,0.904801,32.6789,0.803723Q31.9975,0.702645,31.312,0.635124Q30.6264,0.5676025,29.9384,0.5338013Q29.2503,0.5,28.5615,0.5Q27.8726,0.5,27.1846,0.5338013Q26.4965,0.5676025,25.811,0.635124Q25.1254,0.702645,24.444,0.803723Q23.7626,0.904801,23.0869,1.039193Q22.4113,1.173585,21.7431,1.340967Q21.0749,1.50835,20.4156,1.70832Q19.7564,1.90829,19.1078,2.1403600000000003Q18.4592,2.37243,17.8228,2.63605Q17.1864,2.89967,16.5636,3.1942Q15.9409,3.48873,15.3334,3.81346Q14.7259,4.13819,14.135,4.49234Q13.5441,4.84649,12.9713,5.22921Q12.3986,5.61192,11.8453,6.02228Q11.292,6.43264,10.7595,6.86966Q10.22695,7.30667,9.71654,7.76929Q9.20612,8.23191,8.71901,8.71901Q8.23191,9.20612,7.76929,9.71654Q7.30667,10.22695,6.86966,10.7595Q6.43264,11.292,6.02228,11.8453Q5.61192,12.3986,5.22921,12.9713Q4.84649,13.5441,4.49234,14.135Q4.13819,14.7259,3.81346,15.3334Q3.48873,15.9409,3.1942,16.5636Q2.89967,17.1864,2.63605,17.8228Q2.37243,18.4592,2.1403600000000003,19.1078Q1.90829,19.7564,1.70832,20.4156Q1.50835,21.0749,1.340967,21.7431Q1.173585,22.4113,1.039193,23.0869Q0.904801,23.7626,0.803723,24.444Q0.702645,25.1254,0.635124,25.811Q0.5676025,26.4965,0.5338013,27.1846Q0.5,27.8726,0.5,28.5615Q0.4999999999999988,29.6907,0.5907328000000001,30.8162Q0.681466,31.9418,0.8623449999999999,33.0564Q1.043224,34.171,1.313079,35.2675Q1.58293,36.364,1.94002,37.4353Q2.29711,38.5065,2.73912,39.5456Q3.18112,40.5847,3.7052,41.585Q4.22927,42.5852,4.83202,43.5401Q5.43476,44.495,6.11229,45.3983L4.24155,53.8168L12.0151,51.2256Q12.9088,51.8781,13.8512,52.4582Q14.7935,53.0383,15.7786,53.5424Q16.7637,54.0464,17.7855,54.4714Q18.8072,54.8963,19.8593,55.2395Q20.9113,55.5827,21.9871,55.8419Q23.0629,56.1012,24.1557,56.2749Q25.2486,56.4486,26.3517,56.5358Q27.4549,56.6229,28.5615,56.6229Z" fill-rule="evenodd" fill="#FFCF00" fill-opacity="1"/><path d="M28.5615,56.1229Q33.8186,56.1229,38.7067,54.1878Q44.014,52.0867,48.0504,48.0504Q52.0867,44.0141,54.1878,38.7067Q56.1229,33.8186,56.1229,28.5615Q56.1229,23.3043,54.1878,18.4162Q52.0867,13.1089,48.0504,9.07257Q44.0141,5.03629,38.7067,2.93514Q33.8186,1,28.5615,1Q23.3043,1,18.4162,2.93514Q13.1088,5.03628,9.07257,9.07257Q5.03629,13.1089,2.93514,18.4162Q1,23.3043,1,28.5615Q1,37.7486,6.51229,45.0983L6.65027,45.2823L4.72964,53.9252L4.24155,53.8168L4.08343,53.3424L12.1016,50.6697L12.3099,50.8218Q19.571,56.123,28.5615,56.1229ZM28.5615,57.1229Q19.2449,57.1229,11.7203,51.6294L12.0151,51.2256L12.1732,51.6999L3.56189,54.5704L5.62419,45.2899L6.11229,45.3983L5.71229,45.6983Q0,38.082,0,28.5615Q0,23.1135,2.00535,18.0481Q4.18272,12.5482,8.365459999999999,8.365459999999999Q12.5482,4.182729999999999,18.0481,2.00535Q23.1136,0,28.5615,0Q34.0094,0,39.0748,2.00535Q44.5747,4.182729999999999,48.7575,8.365459999999999Q52.9402,12.5483,55.1176,18.0481Q57.1229,23.1136,57.1229,28.5615Q57.1229,34.0093,55.1176,39.0748Q52.9402,44.5747,48.7575,48.7575Q44.5747,52.9402,39.0748,55.1176Q34.0093,57.1229,28.5615,57.1229Z" fill="#000000" fill-opacity="1"/></g><g filter="url(#master_svg0_0_736)"><ellipse cx="47.162232875823975" cy="31.152491331100464" rx="2.8061461448669434" ry="1.4030730724334717" fill="#FF8C71" fill-opacity="1"/></g><g filter="url(#master_svg1_0_737)"><ellipse cx="11.63325548171997" cy="31.152491331100464" rx="2.8061461448669434" ry="1.4030730724334717" fill="#FF8D6E" fill-opacity="1"/></g><g><g><ellipse cx="41.65681791305542" cy="25.75531229376793" rx="3.741528034210205" ry="4.676909923553467" fill="#000000" fill-opacity="1"/></g><g><ellipse cx="18.180924892425537" cy="25.57353162765503" rx="3.741528034210205" ry="4.676909923553467" fill="#000000" fill-opacity="1"/></g><g><ellipse cx="42.112178564071655" cy="23.248323559761047" rx="1.4030730724334717" ry="1.4030730724334717" fill="#FFFFFF" fill-opacity="1"/></g><g><ellipse cx="18.636268377304077" cy="23.066542267799377" rx="1.4030730724334717" ry="1.4030730724334717" fill="#FFFFFF" fill-opacity="1"/></g></g><g><path d="M11.3905813828125,15.498304347839355C11.2163253828125,15.712524347839356,11.2487223828125,16.027444347839356,11.4629403828125,16.201694347839357C11.6771583828125,16.375954347839354,11.9920793828125,16.343554347839355,12.1663353828125,16.129344347839357C12.1663353828125,16.129344347839357,11.3905813828125,15.498304347839355,11.3905813828125,15.498304347839355C11.3905813828125,15.498304347839355,11.3905813828125,15.498304347839355,11.3905813828125,15.498304347839355ZM17.8719823828125,13.862754347839356C18.1343623828125,13.948854347839355,18.4168523828125,13.805964347839355,18.5029623828125,13.543589347839355C18.5890723828125,13.281214347839356,18.4461723828125,12.998715347839356,18.1838023828125,12.912609347839355C18.1838023828125,12.912609347839355,17.8719823828125,13.862754347839356,17.8719823828125,13.862754347839356C17.8719823828125,13.862754347839356,17.8719823828125,13.862754347839356,17.8719823828125,13.862754347839356ZM12.1663353828125,16.129344347839357C12.6088623828125,15.585324347839355,13.4443523828125,14.804954347839356,14.479242382812501,14.271114347839355C15.511432382812501,13.738664347839356,16.6914123828125,13.475311347839355,17.8719823828125,13.862754347839356C17.8719823828125,13.862754347839356,18.1838023828125,12.912609347839355,18.1838023828125,12.912609347839355C16.6644323828125,12.413981347839355,15.1987823828125,12.774741047839356,14.0207923828125,13.382399347839355C12.8454923828125,13.988674347839355,11.9062223828125,14.864414347839356,11.3905813828125,15.498304347839355C11.3905813828125,15.498304347839355,12.1663353828125,16.129344347839357,12.1663353828125,16.129344347839357C12.1663353828125,16.129344347839357,12.1663353828125,16.129344347839357,12.1663353828125,16.129344347839357Z" fill="#000000" fill-opacity="1"/></g><g transform="matrix(-1,0,0,1,94.27949523925781,0)"><path d="M47.251886619628905,15.498304347839355C47.077630619628906,15.712524347839356,47.11002761962891,16.027444347839356,47.324245619628904,16.201694347839357C47.53846361962891,16.375954347839354,47.853384619628905,16.343554347839355,48.027640619628905,16.129344347839357C48.027640619628905,16.129344347839357,47.251886619628905,15.498304347839355,47.251886619628905,15.498304347839355C47.251886619628905,15.498304347839355,47.251886619628905,15.498304347839355,47.251886619628905,15.498304347839355ZM53.7332876196289,13.862754347839356C53.995667619628904,13.948854347839355,54.27815761962891,13.805964347839355,54.364267619628905,13.543589347839355C54.45037761962891,13.281214347839356,54.307477619628905,12.998715347839356,54.04510761962891,12.912609347839355C54.04510761962891,12.912609347839355,53.7332876196289,13.862754347839356,53.7332876196289,13.862754347839356C53.7332876196289,13.862754347839356,53.7332876196289,13.862754347839356,53.7332876196289,13.862754347839356ZM48.027640619628905,16.129344347839357C48.4701676196289,15.585324347839355,49.3056576196289,14.804954347839356,50.34054761962891,14.271114347839355C51.37273761962891,13.738664347839356,52.55271761962891,13.475311347839355,53.7332876196289,13.862754347839356C53.7332876196289,13.862754347839356,54.04510761962891,12.912609347839355,54.04510761962891,12.912609347839355C52.525737619628906,12.413981347839355,51.06008761962891,12.774741047839356,49.88209761962891,13.382399347839355C48.70679761962891,13.988674347839355,47.76752761962891,14.864414347839356,47.251886619628905,15.498304347839355C47.251886619628905,15.498304347839355,48.027640619628905,16.129344347839357,48.027640619628905,16.129344347839357C48.027640619628905,16.129344347839357,48.027640619628905,16.129344347839357,48.027640619628905,16.129344347839357Z" fill="#000000" fill-opacity="1"/></g><g><g><path d="M8.166526079177856,19.461030453443527C8.166526079177856,19.461030453443527,22.449426079177858,19.461030453443527,22.449426079177858,19.461030453443527C22.449426079177858,19.461030453443527,22.449426079177858,18.461030453443527,22.449426079177858,18.461030453443527C22.449426079177858,18.461030453443527,8.166526079177856,18.461030453443527,8.166526079177856,18.461030453443527C8.166526079177856,18.461030453443527,8.166526079177856,19.461030453443527,8.166526079177856,19.461030453443527C8.166526079177856,19.461030453443527,8.166526079177856,19.461030453443527,8.166526079177856,19.461030453443527ZM24.449426079177858,21.461030453443527C24.449426079177858,21.461030453443527,24.449426079177858,31.034230453443527,24.449426079177858,31.034230453443527C24.449426079177858,31.034230453443527,25.449426079177858,31.034230453443527,25.449426079177858,31.034230453443527C25.449426079177858,31.034230453443527,25.449426079177858,21.461030453443527,25.449426079177858,21.461030453443527C25.449426079177858,21.461030453443527,24.449426079177858,21.461030453443527,24.449426079177858,21.461030453443527C24.449426079177858,21.461030453443527,24.449426079177858,21.461030453443527,24.449426079177858,21.461030453443527ZM6.1665260791778564,30.034230453443527C6.1665260791778564,30.034230453443527,6.1665260791778564,21.461030453443527,6.1665260791778564,21.461030453443527C6.1665260791778564,21.461030453443527,5.1665260791778564,21.461030453443527,5.1665260791778564,21.461030453443527C5.1665260791778564,21.461030453443527,5.1665260791778564,30.034230453443527,5.1665260791778564,30.034230453443527C5.1665260791778564,30.034230453443527,6.1665260791778564,30.034230453443527,6.1665260791778564,30.034230453443527C6.1665260791778564,30.034230453443527,6.1665260791778564,30.034230453443527,6.1665260791778564,30.034230453443527ZM19.949426079177854,35.53423045344353C19.949426079177854,35.53423045344353,13.628576079177856,35.53423045344353,13.628576079177856,35.53423045344353C13.628576079177856,35.53423045344353,13.628576079177856,36.53423045344353,13.628576079177856,36.53423045344353C13.628576079177856,36.53423045344353,19.949426079177854,36.53423045344353,19.949426079177854,36.53423045344353C19.949426079177854,36.53423045344353,19.949426079177854,35.53423045344353,19.949426079177854,35.53423045344353C19.949426079177854,35.53423045344353,19.949426079177854,35.53423045344353,19.949426079177854,35.53423045344353ZM13.628576079177856,35.53423045344353C13.628576079177856,35.53423045344353,11.666526079177856,35.53423045344353,11.666526079177856,35.53423045344353C11.666526079177856,35.53423045344353,11.666526079177856,36.53423045344353,11.666526079177856,36.53423045344353C11.666526079177856,36.53423045344353,13.628576079177856,36.53423045344353,13.628576079177856,36.53423045344353C13.628576079177856,36.53423045344353,13.628576079177856,35.53423045344353,13.628576079177856,35.53423045344353C13.628576079177856,35.53423045344353,13.628576079177856,35.53423045344353,13.628576079177856,35.53423045344353ZM5.1665260791778564,30.034230453443527C5.1665260791778564,33.62413045344353,8.076676079177856,36.53423045344353,11.666526079177856,36.53423045344353C11.666526079177856,36.53423045344353,11.666526079177856,35.53423045344353,11.666526079177856,35.53423045344353C8.628956079177856,35.53423045344353,6.1665260791778564,33.071830453443525,6.1665260791778564,30.034230453443527C6.1665260791778564,30.034230453443527,5.1665260791778564,30.034230453443527,5.1665260791778564,30.034230453443527C5.1665260791778564,30.034230453443527,5.1665260791778564,30.034230453443527,5.1665260791778564,30.034230453443527ZM24.449426079177858,31.034230453443527C24.449426079177858,33.51953045344353,22.434726079177857,35.53423045344353,19.949426079177854,35.53423045344353C19.949426079177854,35.53423045344353,19.949426079177854,36.53423045344353,19.949426079177854,36.53423045344353C22.987026079177856,36.53423045344353,25.449426079177858,34.071830453443525,25.449426079177858,31.034230453443527C25.449426079177858,31.034230453443527,24.449426079177858,31.034230453443527,24.449426079177858,31.034230453443527C24.449426079177858,31.034230453443527,24.449426079177858,31.034230453443527,24.449426079177858,31.034230453443527ZM22.449426079177858,19.461030453443527C23.554026079177856,19.461030453443527,24.449426079177858,20.35646045344353,24.449426079177858,21.461030453443527C24.449426079177858,21.461030453443527,25.449426079177858,21.461030453443527,25.449426079177858,21.461030453443527C25.449426079177858,19.80418045344353,24.106326079177858,18.461030453443527,22.449426079177858,18.461030453443527C22.449426079177858,18.461030453443527,22.449426079177858,19.461030453443527,22.449426079177858,19.461030453443527C22.449426079177858,19.461030453443527,22.449426079177858,19.461030453443527,22.449426079177858,19.461030453443527ZM8.166526079177856,18.461030453443527C6.509676079177856,18.461030453443527,5.1665260791778564,19.804170453443525,5.1665260791778564,21.461030453443527C5.1665260791778564,21.461030453443527,6.1665260791778564,21.461030453443527,6.1665260791778564,21.461030453443527C6.1665260791778564,20.35646045344353,7.061956079177857,19.461030453443527,8.166526079177856,19.461030453443527C8.166526079177856,19.461030453443527,8.166526079177856,18.461030453443527,8.166526079177856,18.461030453443527C8.166526079177856,18.461030453443527,8.166526079177856,18.461030453443527,8.166526079177856,18.461030453443527Z" fill="#000000" fill-opacity="1"/></g><g transform="matrix(-1,0,0,1,106.46046113967896,0)"><path d="M56.23023056983948,19.461030453443527C56.23023056983948,19.461030453443527,70.51313056983948,19.461030453443527,70.51313056983948,19.461030453443527C70.51313056983948,19.461030453443527,70.51313056983948,18.461030453443527,70.51313056983948,18.461030453443527C70.51313056983948,18.461030453443527,56.23023056983948,18.461030453443527,56.23023056983948,18.461030453443527C56.23023056983948,18.461030453443527,56.23023056983948,19.461030453443527,56.23023056983948,19.461030453443527C56.23023056983948,19.461030453443527,56.23023056983948,19.461030453443527,56.23023056983948,19.461030453443527ZM72.51313056983948,21.461030453443527C72.51313056983948,21.461030453443527,72.51313056983948,31.034230453443527,72.51313056983948,31.034230453443527C72.51313056983948,31.034230453443527,73.51313056983948,31.034230453443527,73.51313056983948,31.034230453443527C73.51313056983948,31.034230453443527,73.51313056983948,21.461030453443527,73.51313056983948,21.461030453443527C73.51313056983948,21.461030453443527,72.51313056983948,21.461030453443527,72.51313056983948,21.461030453443527C72.51313056983948,21.461030453443527,72.51313056983948,21.461030453443527,72.51313056983948,21.461030453443527ZM54.23023056983948,30.034230453443527C54.23023056983948,30.034230453443527,54.23023056983948,21.461030453443527,54.23023056983948,21.461030453443527C54.23023056983948,21.461030453443527,53.23023056983948,21.461030453443527,53.23023056983948,21.461030453443527C53.23023056983948,21.461030453443527,53.23023056983948,30.034230453443527,53.23023056983948,30.034230453443527C53.23023056983948,30.034230453443527,54.23023056983948,30.034230453443527,54.23023056983948,30.034230453443527C54.23023056983948,30.034230453443527,54.23023056983948,30.034230453443527,54.23023056983948,30.034230453443527ZM68.01313056983948,35.53423045344353C68.01313056983948,35.53423045344353,61.692280569839475,35.53423045344353,61.692280569839475,35.53423045344353C61.692280569839475,35.53423045344353,61.692280569839475,36.53423045344353,61.692280569839475,36.53423045344353C61.692280569839475,36.53423045344353,68.01313056983948,36.53423045344353,68.01313056983948,36.53423045344353C68.01313056983948,36.53423045344353,68.01313056983948,35.53423045344353,68.01313056983948,35.53423045344353C68.01313056983948,35.53423045344353,68.01313056983948,35.53423045344353,68.01313056983948,35.53423045344353ZM61.692280569839475,35.53423045344353C61.692280569839475,35.53423045344353,59.73023056983948,35.53423045344353,59.73023056983948,35.53423045344353C59.73023056983948,35.53423045344353,59.73023056983948,36.53423045344353,59.73023056983948,36.53423045344353C59.73023056983948,36.53423045344353,61.692280569839475,36.53423045344353,61.692280569839475,36.53423045344353C61.692280569839475,36.53423045344353,61.692280569839475,35.53423045344353,61.692280569839475,35.53423045344353C61.692280569839475,35.53423045344353,61.692280569839475,35.53423045344353,61.692280569839475,35.53423045344353ZM53.23023056983948,30.034230453443527C53.23023056983948,33.62413045344353,56.14038056983948,36.53423045344353,59.73023056983948,36.53423045344353C59.73023056983948,36.53423045344353,59.73023056983948,35.53423045344353,59.73023056983948,35.53423045344353C56.692660569839475,35.53423045344353,54.23023056983948,33.071830453443525,54.23023056983948,30.034230453443527C54.23023056983948,30.034230453443527,53.23023056983948,30.034230453443527,53.23023056983948,30.034230453443527C53.23023056983948,30.034230453443527,53.23023056983948,30.034230453443527,53.23023056983948,30.034230453443527ZM72.51313056983948,31.034230453443527C72.51313056983948,33.51953045344353,70.49843056983948,35.53423045344353,68.01313056983948,35.53423045344353C68.01313056983948,35.53423045344353,68.01313056983948,36.53423045344353,68.01313056983948,36.53423045344353C71.05073056983947,36.53423045344353,73.51313056983948,34.071830453443525,73.51313056983948,31.034230453443527C73.51313056983948,31.034230453443527,72.51313056983948,31.034230453443527,72.51313056983948,31.034230453443527C72.51313056983948,31.034230453443527,72.51313056983948,31.034230453443527,72.51313056983948,31.034230453443527ZM70.51313056983948,19.461030453443527C71.61773056983948,19.461030453443527,72.51313056983948,20.35646045344353,72.51313056983948,21.461030453443527C72.51313056983948,21.461030453443527,73.51313056983948,21.461030453443527,73.51313056983948,21.461030453443527C73.51313056983948,19.80418045344353,72.17003056983948,18.461030453443527,70.51313056983948,18.461030453443527C70.51313056983948,18.461030453443527,70.51313056983948,19.461030453443527,70.51313056983948,19.461030453443527C70.51313056983948,19.461030453443527,70.51313056983948,19.461030453443527,70.51313056983948,19.461030453443527ZM56.23023056983948,18.461030453443527C54.57338056983948,18.461030453443527,53.23023056983948,19.804170453443525,53.23023056983948,21.461030453443527C53.23023056983948,21.461030453443527,54.23023056983948,21.461030453443527,54.23023056983948,21.461030453443527C54.23023056983948,20.35646045344353,55.125660569839475,19.461030453443527,56.23023056983948,19.461030453443527C56.23023056983948,19.461030453443527,56.23023056983948,18.461030453443527,56.23023056983948,18.461030453443527C56.23023056983948,18.461030453443527,56.23023056983948,18.461030453443527,56.23023056983948,18.461030453443527Z" fill="#000000" fill-opacity="1"/></g><g><path d="M24.728172984365845,26.45550267944336C24.582466984365844,26.69008267944336,24.654506994365846,26.99835267944336,24.889080084365844,27.14406267944336C25.123652084365844,27.28976267944336,25.431929084365844,27.21772267944336,25.577635084365845,26.98315267944336C25.577635084365845,26.98315267944336,24.728172984365845,26.45550267944336,24.728172984365845,26.45550267944336C24.728172984365845,26.45550267944336,24.728172984365845,26.45550267944336,24.728172984365845,26.45550267944336ZM33.02283608436584,27.01305267944336C33.185186084365846,27.23643267944336,33.49787608436584,27.28590267944336,33.72125608436585,27.12356267944336C33.94463608436585,26.96121267944336,33.994106084365846,26.64851267944336,33.83175608436584,26.42514267944336C33.83175608436584,26.42514267944336,33.02283608436584,27.01305267944336,33.02283608436584,27.01305267944336C33.02283608436584,27.01305267944336,33.02283608436584,27.01305267944336,33.02283608436584,27.01305267944336ZM25.577635084365845,26.98315267944336C26.282846084365843,25.84784267944336,27.326476084365844,24.70625267944336,28.550126084365843,24.402712679443358C29.689466084365844,24.120080679443358,31.212476084365846,24.52215267944336,33.02283608436584,27.01305267944336C33.02283608436584,27.01305267944336,33.83175608436584,26.42514267944336,33.83175608436584,26.42514267944336C31.902756084365844,23.770997679443358,30.011106084365846,23.00998467944336,28.309356084365845,23.43212867944336C26.691906084365844,23.833359679443358,25.468027084365843,25.26441267944336,24.728172984365845,26.45550267944336C24.728172984365845,26.45550267944336,25.577635084365845,26.98315267944336,25.577635084365845,26.98315267944336C25.577635084365845,26.98315267944336,25.577635084365845,26.98315267944336,25.577635084365845,26.98315267944336Z" fill="#000000" fill-opacity="1"/></g><g><path d="M1.7448740698394776,18.303071601318358C1.5479830698394776,18.10945090131836,1.2314120698394775,18.112101901318358,1.0377920698394776,18.30899160131836C0.8441713698394775,18.50588260131836,0.8468223698394776,18.822453601318358,1.0437120698394775,19.01607360131836C1.0437120698394775,19.01607360131836,1.7448740698394776,18.303071601318358,1.7448740698394776,18.303071601318358C1.7448740698394776,18.303071601318358,1.7448740698394776,18.303071601318358,1.7448740698394776,18.303071601318358ZM5.086223069839478,22.99144260131836C5.2831130698394775,23.18507260131836,5.599683069839478,23.18241260131836,5.793303069839477,22.98552260131836C5.986923069839477,22.78863260131836,5.984273069839477,22.47206260131836,5.7873830698394775,22.27844260131836C5.7873830698394775,22.27844260131836,5.086223069839478,22.99144260131836,5.086223069839478,22.99144260131836C5.086223069839478,22.99144260131836,5.086223069839478,22.99144260131836,5.086223069839478,22.99144260131836ZM1.0437120698394775,19.01607360131836C1.0437120698394775,19.01607360131836,5.086223069839478,22.99144260131836,5.086223069839478,22.99144260131836C5.086223069839478,22.99144260131836,5.7873830698394775,22.27844260131836,5.7873830698394775,22.27844260131836C5.7873830698394775,22.27844260131836,1.7448740698394776,18.303071601318358,1.7448740698394776,18.303071601318358C1.7448740698394776,18.303071601318358,1.0437120698394775,19.01607360131836,1.0437120698394775,19.01607360131836C1.0437120698394775,19.01607360131836,1.0437120698394775,19.01607360131836,1.0437120698394775,19.01607360131836Z" fill="#000000" fill-opacity="1"/></g><g transform="matrix(-1,0,0,1,114.5454831123352,0)"><path d="M58.1233225561676,18.604529185222624C57.9264315561676,18.410908485222627,57.609860556167604,18.413559485222624,57.4162405561676,18.610449185222627C57.222619856167604,18.807340185222625,57.225270856167604,19.123911185222624,57.422160556167604,19.317531185222627C57.422160556167604,19.317531185222627,58.1233225561676,18.604529185222624,58.1233225561676,18.604529185222624C58.1233225561676,18.604529185222624,58.1233225561676,18.604529185222624,58.1233225561676,18.604529185222624ZM61.4646715561676,23.292900185222628C61.661561556167605,23.486530185222627,61.978131556167604,23.483870185222628,62.1717515561676,23.286980185222625C62.3653715561676,23.090090185222625,62.3627215561676,22.773520185222626,62.1658315561676,22.579900185222627C62.1658315561676,22.579900185222627,61.4646715561676,23.292900185222628,61.4646715561676,23.292900185222628C61.4646715561676,23.292900185222628,61.4646715561676,23.292900185222628,61.4646715561676,23.292900185222628ZM57.422160556167604,19.317531185222627C57.422160556167604,19.317531185222627,61.4646715561676,23.292900185222628,61.4646715561676,23.292900185222628C61.4646715561676,23.292900185222628,62.1658315561676,22.579900185222627,62.1658315561676,22.579900185222627C62.1658315561676,22.579900185222627,58.1233225561676,18.604529185222624,58.1233225561676,18.604529185222624C58.1233225561676,18.604529185222624,57.422160556167604,19.317531185222627,57.422160556167604,19.317531185222627C57.422160556167604,19.317531185222627,57.422160556167604,19.317531185222627,57.422160556167604,19.317531185222627Z" fill="#000000" fill-opacity="1"/></g></g><g><path d="M23.652510939331055,38.677626048828124C23.558210939331055,38.274291048828125,23.154791939331055,38.023770648828126,22.751455939331056,38.11807464882813C22.348120939331054,38.212379048828126,22.097601239331055,38.61579604882812,22.191905239331053,39.019132048828126C22.191905239331053,39.019132048828126,23.652510939331055,38.677626048828124,23.652510939331055,38.677626048828124C23.652510939331055,38.677626048828124,23.652510939331055,38.677626048828124,23.652510939331055,38.677626048828124ZM36.775440939331055,39.08703704882812C36.907240939331054,38.694354048828124,36.695840939331056,38.26917104882813,36.30314093933106,38.13736364882813C35.91044093933105,38.005556648828126,35.48524093933106,38.21703804882812,35.35344093933105,38.60972104882813C35.35344093933105,38.60972104882813,36.775440939331055,39.08703704882812,36.775440939331055,39.08703704882812C36.775440939331055,39.08703704882812,36.775440939331055,39.08703704882812,36.775440939331055,39.08703704882812ZM22.922208939331053,38.84837904882812C22.191905239331053,39.019132048828126,22.191977239331056,39.01944004882812,22.192055239331054,39.019771048828126C22.192088239331056,39.01991104882813,22.192171239331056,39.02026504882812,22.192237239331053,39.020545048828126C22.192369239331054,39.021105048828126,22.192522239331055,39.021755048828126,22.192697239331054,39.022493048828125C22.193048239331056,39.023970048828126,22.193484239331056,39.025802048828126,22.194009239331056,39.02798204882812C22.195058239331054,39.03234204882813,22.196457239331053,39.03810004882813,22.198216239331053,39.04520904882813C22.201734239331056,39.05942604882812,22.206693239331056,39.07905904882813,22.213161239331054,39.103745048828124C22.226095239331055,39.15311504882813,22.245089239331055,39.222775048828126,22.270709239331055,39.309855048828126C22.321900939331055,39.483855048828126,22.399822939331056,39.72831504882812,22.509093939331056,40.01990504882812C22.726739939331054,40.60067504882812,23.073383939331055,41.38087504882812,23.589380939331054,42.16670504882813C24.619840939331056,43.736025048828125,26.390880939331055,45.41169504882812,29.197340939331056,45.41162504882813C29.197340939331056,45.41162504882813,29.197300939331054,43.91162504882813,29.197300939331054,43.91162504882813C27.087880939331054,43.911685048828126,25.721370939331056,42.68072504882812,24.843240939331054,41.34339504882813C24.404940939331055,40.675895048828124,24.104540939331056,40.00275504882813,23.913700939331054,39.493525048828126C23.818740939331054,39.24011504882812,23.752060939331056,39.03040504882812,23.709720939331056,38.88648504882813C23.688570939331054,38.81460504882813,23.673560939331054,38.75937604882812,23.664190939331053,38.723583048828125C23.659500939331053,38.70569404882813,23.656220939331053,38.69268404882813,23.654300939331055,38.68490204882813C23.653340939331056,38.68101204882812,23.652710939331055,38.67843104882812,23.652420939331055,38.677203048828126C23.652270939331054,38.67658904882813,23.652200939331056,38.676314048828125,23.652220939331055,38.67638304882813C23.652230939331055,38.67641704882813,23.652260939331054,38.67653704882812,23.652310939331056,38.67674404882813C23.652330939331055,38.67684804882813,23.652380939331053,38.67706904882812,23.652390939331056,38.67712004882812C23.652450939331054,38.67736204882812,23.652510939331055,38.677626048828124,22.922208939331053,38.84837904882812C22.922208939331053,38.84837904882812,22.922208939331053,38.84837904882812,22.922208939331053,38.84837904882812ZM29.197340939331056,45.41162504882813C31.987030939331056,45.41155504882813,33.899140939331055,43.75439504882812,35.07194093933106,42.208195048828124C35.66204093933106,41.43020504882813,36.084740939331056,40.65659504882812,36.35984093933105,40.07935504882813C36.497840939331056,39.78975504882813,36.599940939331056,39.54699504882812,36.66834093933105,39.37433504882812C36.70254093933106,39.287935048828125,36.72844093933105,39.218895048828124,36.746140939331056,39.17010504882813C36.75504093933105,39.145695048828124,36.76184093933105,39.126335048828125,36.76674093933106,39.11237504882813C36.769240939331056,39.10539504882812,36.771140939331055,39.099765048828125,36.772640939331055,39.09552604882813C36.77334093933106,39.09340704882813,36.773940939331055,39.091637048828126,36.77444093933106,39.09022004882812C36.77464093933106,39.08951204882813,36.77484093933106,39.08889204882812,36.775040939331056,39.088361048828126C36.77514093933105,39.08809604882813,36.775240939331056,39.08776404882813,36.775240939331056,39.08763204882813C36.77534093933106,39.087323048828125,36.775440939331055,39.08703704882812,36.06444093933106,38.84837904882812C35.35344093933105,38.60972104882813,35.353540939331054,38.60947904882813,35.35364093933106,38.60925904882812C35.35364093933106,38.609215048828126,35.35364093933106,38.609016048828124,35.353740939331054,38.608928048828126C35.353740939331054,38.60875004882813,35.35384093933106,38.60866004882813,35.35384093933106,38.608656048828124C35.35384093933106,38.608647048828125,35.353740939331054,38.60898304882812,35.35344093933105,38.60965904882813C35.35304093933105,38.61101004882813,35.352040939331054,38.613716048828124,35.35064093933106,38.61773504882812C35.34784093933106,38.62577404882813,35.34314093933105,38.63905404882812,35.33654093933106,38.657225048828124C35.323340939331054,38.693580048828125,35.302440939331056,38.74943104882812,35.273740939331056,38.821988048828125C35.21624093933106,38.96723804882812,35.12744093933105,39.178625048828124,35.005740939331055,39.434005048828126C34.761340939331056,39.946735048828124,34.38904093933105,40.626405048828126,33.87684093933105,41.301725048828125C32.84494093933105,42.66211504882813,31.323500939331055,43.91157504882813,29.197300939331054,43.91162504882813C29.197300939331054,43.91162504882813,29.197340939331056,45.41162504882813,29.197340939331056,45.41162504882813C29.197340939331056,45.41162504882813,29.197340939331056,45.41162504882813,29.197340939331056,45.41162504882813Z" fill="#000000" fill-opacity="1"/></g></g></svg>