<svg xmlns="http://www.w3.org/2000/svg" xmlns:xlink="http://www.w3.org/1999/xlink" fill="none" version="1.1" width="57.1229248046875" height="57.1229248046875" viewBox="0 0 57.1229248046875 57.1229248046875"><defs><mask id="master_svg0_0_527" style="mask-type:alpha" maskUnits="userSpaceOnUse"><g><path d="M55.68757509441376,28.561488505458833C55.68757509441376,43.54278850545883,43.542775094413756,55.687588505458834,28.56147509441376,55.687588505458834C13.580175094413757,55.687588505458834,1.4353750944137573,43.54278850545883,1.4353750944137573,28.561488505458833C1.4353750944137573,13.580188505458832,13.580175094413757,1.4353885054588318,28.56147509441376,1.4353885054588318C43.542775094413756,1.4353885054588318,55.68757509441376,13.580188505458832,55.68757509441376,28.561488505458833C55.68757509441376,28.561488505458833,55.68757509441376,28.561488505458833,55.68757509441376,28.561488505458833Z" fill="#FFFFFF" fill-opacity="1"/></g></mask></defs><g><g><g><path d="M28.5615,56.6229Q29.2503,56.6229,29.9384,56.5891Q30.6264,56.5553,31.312,56.4878Q31.9975,56.4203,32.6789,56.3192Q33.3603,56.2181,34.036,56.0837Q34.7116,55.9493,35.3798,55.7819Q36.0481,55.6146,36.7073,55.4146Q37.3665,55.2146,38.0151,54.9826Q38.6637,54.7505,39.3001,54.4869Q39.9365,54.2232,40.5593,53.9287Q41.182,53.6342,41.7895,53.3095Q42.3971,52.9847,42.9879,52.6306Q43.5788,52.2764,44.1516,51.8937Q44.7243,51.511,45.2776,51.1006Q45.831,50.6903,46.3635,50.2533Q46.896,49.8162,47.4064,49.3536Q47.9168,48.891,48.4039,48.4039Q48.891,47.9168,49.3536,47.4064Q49.8162,46.896,50.2533,46.3635Q50.6903,45.831,51.1006,45.2776Q51.511,44.7243,51.8937,44.1516Q52.2764,43.5788,52.6306,42.9879Q52.9847,42.3971,53.3095,41.7895Q53.6342,41.182,53.9287,40.5593Q54.2232,39.9365,54.4869,39.3001Q54.7505,38.6637,54.9826,38.0151Q55.2146,37.3665,55.4146,36.7073Q55.6146,36.0481,55.782,35.3798Q55.9493,34.7116,56.0837,34.036Q56.2181,33.3603,56.3192,32.6789Q56.4203,31.9975,56.4878,31.312Q56.5553,30.6264,56.5891,29.9384Q56.6229,29.2503,56.6229,28.5615Q56.6229,27.8726,56.5891,27.1846Q56.5553,26.4965,56.4878,25.811Q56.4203,25.1254,56.3192,24.444Q56.2181,23.7626,56.0837,23.0869Q55.9493,22.4113,55.7819,21.7431Q55.6146,21.0749,55.4146,20.4156Q55.2146,19.7564,54.9826,19.1078Q54.7505,18.4592,54.4869,17.8228Q54.2232,17.1864,53.9287,16.5636Q53.6342,15.9409,53.3095,15.3334Q52.9847,14.7259,52.6306,14.135Q52.2764,13.5441,51.8937,12.9713Q51.511,12.3986,51.1006,11.8453Q50.6903,11.292,50.2533,10.7595Q49.8162,10.22695,49.3536,9.71654Q48.891,9.20612,48.4039,8.71901Q47.9168,8.23191,47.4064,7.76929Q46.896,7.30667,46.3635,6.86966Q45.831,6.43264,45.2776,6.02228Q44.7243,5.61192,44.1516,5.22921Q43.5788,4.84649,42.9879,4.49234Q42.3971,4.13819,41.7895,3.81346Q41.182,3.48873,40.5593,3.1942Q39.9365,2.89967,39.3001,2.63605Q38.6637,2.37243,38.0151,2.1403600000000003Q37.3665,1.90829,36.7073,1.70832Q36.0481,1.50835,35.3798,1.340967Q34.7116,1.173585,34.036,1.039193Q33.3603,0.904801,32.6789,0.803723Q31.9975,0.702645,31.312,0.635124Q30.6264,0.5676025,29.9384,0.5338013Q29.2503,0.5,28.5615,0.5Q27.8726,0.5,27.1846,0.5338013Q26.4965,0.5676025,25.811,0.635124Q25.1254,0.702645,24.444,0.803723Q23.7626,0.904801,23.0869,1.039193Q22.4113,1.173585,21.7431,1.340967Q21.0749,1.50835,20.4156,1.70832Q19.7564,1.90829,19.1078,2.1403600000000003Q18.4592,2.37243,17.8228,2.63605Q17.1864,2.89967,16.5636,3.1942Q15.9409,3.48873,15.3334,3.81346Q14.7259,4.13819,14.135,4.49234Q13.5441,4.84649,12.9713,5.22921Q12.3986,5.61192,11.8453,6.02228Q11.292,6.43264,10.7595,6.86966Q10.22695,7.30667,9.71654,7.76929Q9.20612,8.23191,8.71901,8.71901Q8.23191,9.20612,7.76929,9.71654Q7.30667,10.22695,6.86966,10.7595Q6.43264,11.292,6.02228,11.8453Q5.61192,12.3986,5.22921,12.9713Q4.84649,13.5441,4.49234,14.135Q4.13819,14.7259,3.81346,15.3334Q3.48873,15.9409,3.1942,16.5636Q2.89967,17.1864,2.63605,17.8228Q2.37243,18.4592,2.1403600000000003,19.1078Q1.90829,19.7564,1.70832,20.4156Q1.50835,21.0749,1.340967,21.7431Q1.173585,22.4113,1.039193,23.0869Q0.904801,23.7626,0.803723,24.444Q0.702645,25.1254,0.635124,25.811Q0.5676025,26.4965,0.5338013,27.1846Q0.5,27.8726,0.5,28.5615Q0.4999999999999988,29.6907,0.5907328000000001,30.8162Q0.681466,31.9418,0.8623449999999999,33.0564Q1.043224,34.171,1.313079,35.2675Q1.58293,36.364,1.94002,37.4353Q2.29711,38.5065,2.73912,39.5456Q3.18112,40.5847,3.7052,41.585Q4.22927,42.5852,4.83202,43.5401Q5.43476,44.495,6.11229,45.3983L4.24155,53.8168L12.0151,51.2256Q12.9088,51.8781,13.8512,52.4582Q14.7935,53.0383,15.7786,53.5424Q16.7637,54.0464,17.7855,54.4714Q18.8072,54.8963,19.8593,55.2395Q20.9113,55.5827,21.9871,55.8419Q23.0629,56.1012,24.1557,56.2749Q25.2486,56.4486,26.3517,56.5358Q27.4549,56.6229,28.5615,56.6229Z" fill-rule="evenodd" fill="#FFCF00" fill-opacity="1"/><path d="M28.5615,56.1229Q33.8186,56.1229,38.7067,54.1878Q44.014,52.0867,48.0504,48.0504Q52.0867,44.0141,54.1878,38.7067Q56.1229,33.8186,56.1229,28.5615Q56.1229,23.3043,54.1878,18.4162Q52.0867,13.1089,48.0504,9.07257Q44.0141,5.03629,38.7067,2.93514Q33.8186,1,28.5615,1Q23.3043,1,18.4162,2.93514Q13.1088,5.03628,9.07257,9.07257Q5.03629,13.1089,2.93514,18.4162Q1,23.3043,1,28.5615Q1,37.7486,6.51229,45.0983L6.65027,45.2823L4.72964,53.9252L4.24155,53.8168L4.08343,53.3424L12.1016,50.6697L12.3099,50.8218Q19.571,56.123,28.5615,56.1229ZM28.5615,57.1229Q19.2449,57.1229,11.7203,51.6294L12.0151,51.2256L12.1732,51.6999L3.56189,54.5704L5.62419,45.2899L6.11229,45.3983L5.71229,45.6983Q0,38.082,0,28.5615Q0,23.1135,2.00535,18.0481Q4.18272,12.5482,8.365459999999999,8.365459999999999Q12.5482,4.182729999999999,18.0481,2.00535Q23.1136,0,28.5615,0Q34.0094,0,39.0748,2.00535Q44.5747,4.182729999999999,48.7575,8.365459999999999Q52.9402,12.5483,55.1176,18.0481Q57.1229,23.1136,57.1229,28.5615Q57.1229,34.0093,55.1176,39.0748Q52.9402,44.5747,48.7575,48.7575Q44.5747,52.9402,39.0748,55.1176Q34.0093,57.1229,28.5615,57.1229Z" fill="#000000" fill-opacity="1"/></g><g mask="url(#master_svg0_0_527)"><g><path d="M11.724569201469421,29.49684625008774C11.724569201469421,29.49684625008774,19.207629201469423,28.561464250087738,19.207629201469423,28.561464250087738C19.207629201469423,28.561464250087738,19.207629201469423,56.62296425008773,19.207629201469423,56.62296425008773C19.207629201469423,56.62296425008773,11.724569201469421,56.62296425008773,11.724569201469421,56.62296425008773C11.724569201469421,56.62296425008773,11.724569201469421,29.49684625008774,11.724569201469421,29.49684625008774C11.724569201469421,29.49684625008774,11.724569201469421,29.49684625008774,11.724569201469421,29.49684625008774Z" fill="#95F6FC" fill-opacity="1"/><path d="M19.207629201469423,28.561464250087738L11.724569201469421,29.49684625008774L11.724569201469421,56.62296425008773L12.224569201469421,56.62296425008773L18.707629201469423,56.62296425008773L19.207629201469423,56.62296425008773L19.207629201469423,56.12296425008773L19.207629201469423,28.561464250087738ZM12.224569201469421,56.12296425008773L12.224569201469421,29.93823425008774L18.707629201469423,29.127855250087737L18.707629201469423,56.12296425008773L12.224569201469421,56.12296425008773Z" fill-rule="evenodd" fill="#000000" fill-opacity="1"/></g><g><path d="M37.91521441936493,28.561464250087738C37.91521441936493,28.561464250087738,45.39827441936493,29.49684625008774,45.39827441936493,29.49684625008774C45.39827441936493,29.49684625008774,45.39827441936493,56.62296425008773,45.39827441936493,56.62296425008773C45.39827441936493,56.62296425008773,37.91521441936493,56.62296425008773,37.91521441936493,56.62296425008773C37.91521441936493,56.62296425008773,37.91521441936493,28.561464250087738,37.91521441936493,28.561464250087738C37.91521441936493,28.561464250087738,37.91521441936493,28.561464250087738,37.91521441936493,28.561464250087738Z" fill="#95F6FC" fill-opacity="1"/><path d="M37.91521441936493,56.62296425008773L37.91521441936493,28.561464250087738L38.41521441936493,28.623964250087738L45.39827441936493,29.49684625008774L45.39827441936493,56.12296425008773L45.39827441936493,56.62296425008773L44.89827441936493,56.62296425008773L38.41521441936493,56.62296425008773L37.91521441936493,56.62296425008773ZM38.41521441936493,56.12296425008773L38.41521441936493,29.127855250087737L44.89827441936493,29.93823425008774L44.89827441936493,56.12296425008773L38.41521441936493,56.12296425008773Z" fill-rule="evenodd" fill="#000000" fill-opacity="1"/></g></g></g><g transform="matrix(0.9842758178710938,0.17663836479187012,0.17663832008838654,-0.9842758178710938,-2.457933042307843,27.611321498728103)"><path d="M33.6931572043457,20.05838087524414C33.5274725043457,20.27930087524414,33.5722435043457,20.59270087524414,33.793157204345704,20.75838087524414C34.014071204345704,20.92407087524414,34.3274722043457,20.87930087524414,34.49315720434571,20.65838087524414C34.49315720434571,20.65838087524414,33.6931572043457,20.05838087524414,33.6931572043457,20.05838087524414C33.6931572043457,20.05838087524414,33.6931572043457,20.05838087524414,33.6931572043457,20.05838087524414ZM41.4781582043457,18.04253087524414C41.748938204345706,18.09668087524414,42.0123482043457,17.92108087524414,42.0665082043457,17.650297875244142C42.1206582043457,17.37951787524414,41.9450482043457,17.11610487524414,41.6742682043457,17.061949875244142C41.6742682043457,17.061949875244142,41.4781582043457,18.04253087524414,41.4781582043457,18.04253087524414C41.4781582043457,18.04253087524414,41.4781582043457,18.04253087524414,41.4781582043457,18.04253087524414ZM34.49315720434571,20.65838087524414C35.3619282043457,19.50002087524414,37.9940382043457,17.34570587524414,41.4781582043457,18.04253087524414C41.4781582043457,18.04253087524414,41.6742682043457,17.061949875244142,41.6742682043457,17.061949875244142C37.67533820434571,16.26216287524414,34.695148204345706,18.72240087524414,33.6931572043457,20.05838087524414C33.6931572043457,20.05838087524414,34.49315720434571,20.65838087524414,34.49315720434571,20.65838087524414C34.49315720434571,20.65838087524414,34.49315720434571,20.65838087524414,34.49315720434571,20.65838087524414Z" fill="#000000" fill-opacity="1"/></g><g transform="matrix(-0.9842758178710938,0.17663832008838654,-0.17663832008838654,-0.9842758178710938,46.764708259063184,29.648032356001778)"><path d="M22.162763603881835,20.05838087524414C21.997078903881835,20.27930087524414,22.041849903881836,20.59270087524414,22.262763603881837,20.75838087524414C22.483677603881837,20.92407087524414,22.797078603881836,20.87930087524414,22.962763603881836,20.65838087524414C22.962763603881836,20.65838087524414,22.162763603881835,20.05838087524414,22.162763603881835,20.05838087524414C22.162763603881835,20.05838087524414,22.162763603881835,20.05838087524414,22.162763603881835,20.05838087524414ZM29.947764603881836,18.04253087524414C30.21854460388184,18.09668087524414,30.481954603881835,17.92108087524414,30.536114603881835,17.650297875244142C30.590264603881835,17.37951787524414,30.414654603881836,17.11610487524414,30.143874603881834,17.061949875244142C30.143874603881834,17.061949875244142,29.947764603881836,18.04253087524414,29.947764603881836,18.04253087524414C29.947764603881836,18.04253087524414,29.947764603881836,18.04253087524414,29.947764603881836,18.04253087524414ZM22.962763603881836,20.65838087524414C23.831534603881835,19.50002087524414,26.463644603881836,17.34570587524414,29.947764603881836,18.04253087524414C29.947764603881836,18.04253087524414,30.143874603881834,17.061949875244142,30.143874603881834,17.061949875244142C26.144944603881836,16.26216287524414,23.164754603881835,18.72240087524414,22.162763603881835,20.05838087524414C22.162763603881835,20.05838087524414,22.962763603881836,20.65838087524414,22.962763603881836,20.65838087524414C22.962763603881836,20.65838087524414,22.962763603881836,20.65838087524414,22.962763603881836,20.65838087524414Z" fill="#000000" fill-opacity="1"/></g><g><path d="M34.185166028173825,26.056381565551757C35.204275128173826,21.43791256555176,44.549725128173826,19.74869156555176,46.04282512817383,22.20149156555176C46.10582512817383,22.304961565551757,46.04042512817383,22.43225156555176,45.92352512817383,22.463941565551757C43.63872512817383,23.083191565551758,41.02907512817383,24.562641565551758,40.688265128173825,25.680451565551756C40.38603512817383,26.671701565551757,44.28992512817383,28.24524156555176,46.86532512817383,29.593571565551755C47.02012512817383,29.67457156555176,46.99782512817383,29.89735156555176,46.83002512817383,29.94575156555176C40.41783512817383,31.795201565551757,33.862563128173825,27.518371565551757,34.185166028173825,26.056381565551757C34.185166028173825,26.056381565551757,34.185166028173825,26.056381565551757,34.185166028173825,26.056381565551757Z" fill="#000000" fill-opacity="1"/></g><g transform="matrix(-1,0,0,1,45.89830017089844,0)"><path d="M22.96059098544922,26.056381565551757C23.97970008544922,21.43791256555176,33.325150085449216,19.74869156555176,34.81825008544922,22.20149156555176C34.88125008544922,22.304961565551757,34.81585008544922,22.43225156555176,34.69895008544922,22.463941565551757C32.41415008544922,23.083191565551758,29.80450008544922,24.562641565551758,29.46369008544922,25.680451565551756C29.16146008544922,26.671701565551757,33.06535008544922,28.24524156555176,35.64075008544922,29.593571565551755C35.79555008544922,29.67457156555176,35.77325008544922,29.89735156555176,35.60545008544922,29.94575156555176C29.193260085449218,31.795201565551757,22.63798808544922,27.518371565551757,22.96059098544922,26.056381565551757C22.96059098544922,26.056381565551757,22.96059098544922,26.056381565551757,22.96059098544922,26.056381565551757Z" fill="#000000" fill-opacity="1"/></g><g><ellipse cx="28.561442375183105" cy="43.527573585510254" rx="5.612292289733887" ry="7.48305606842041" fill="#000000" fill-opacity="1"/></g><g><path d="M28.56142860534668,36.97990036010742C26.31650860534668,36.97990036010742,24.81989860534668,38.85066036010742,24.81989860534668,39.786050360107424C24.81989860534668,40.72143036010742,26.69065860534668,40.72143036010742,28.56142860534668,40.72143036010742C30.43218860534668,40.72143036010742,32.30295860534668,40.72143036010742,32.30295860534668,39.786050360107424C32.30295860534668,38.85066036010742,30.80633860534668,36.97990036010742,28.56142860534668,36.97990036010742C28.56142860534668,36.97990036010742,28.56142860534668,36.97990036010742,28.56142860534668,36.97990036010742Z" fill="#FFFFFF" fill-opacity="1"/></g><g transform="matrix(1,0,0,-1,0,100.1504898071289)"><path d="M28.561477260742187,50.07524490356445C26.316557260742186,50.07524490356445,23.884567260742188,52.881394903564455,23.884567260742188,54.75215490356445C23.884567260742188,56.62291490356445,26.690717260742186,56.62291490356445,28.561477260742187,56.62291490356445C30.432237260742188,56.62291490356445,33.238387260742186,56.62291490356445,33.238387260742186,54.75215490356445C33.238387260742186,52.881394903564455,30.806397260742187,50.07524490356445,28.561477260742187,50.07524490356445C28.561477260742187,50.07524490356445,28.561477260742187,50.07524490356445,28.561477260742187,50.07524490356445Z" fill="#D50B00" fill-opacity="1"/></g></g></svg>