<svg xmlns="http://www.w3.org/2000/svg" xmlns:xlink="http://www.w3.org/1999/xlink" fill="none" version="1.1" width="57.1229248046875" height="57.1229248046875" viewBox="0 0 57.1229248046875 57.1229248046875"><defs><filter id="master_svg0_0_412" filterUnits="objectBoundingBox" color-interpolation-filters="sRGB" x="-1" y="-1" width="8.547674179077148" height="4.806146144866943"><feFlood flood-opacity="0" result="BackgroundImageFix"/><feBlend mode="normal" in="SourceGraphic" in2="BackgroundImageFix" result="shape"/><feGaussianBlur stdDeviation="0.25" result="effect1_foregroundBlur"/></filter><filter id="master_svg1_0_413" filterUnits="objectBoundingBox" color-interpolation-filters="sRGB" x="-1" y="-1" width="8.547674179077148" height="4.806146144866943"><feFlood flood-opacity="0" result="BackgroundImageFix"/><feBlend mode="normal" in="SourceGraphic" in2="BackgroundImageFix" result="shape"/><feGaussianBlur stdDeviation="0.25" result="effect1_foregroundBlur"/></filter></defs><g><g><path d="M28.5615,56.6229Q29.2503,56.6229,29.9384,56.5891Q30.6264,56.5553,31.312,56.4878Q31.9975,56.4203,32.6789,56.3192Q33.3603,56.2181,34.036,56.0837Q34.7116,55.9493,35.3798,55.7819Q36.0481,55.6146,36.7073,55.4146Q37.3665,55.2146,38.0151,54.9826Q38.6637,54.7505,39.3001,54.4869Q39.9365,54.2232,40.5593,53.9287Q41.182,53.6342,41.7895,53.3095Q42.3971,52.9847,42.9879,52.6306Q43.5788,52.2764,44.1516,51.8937Q44.7243,51.511,45.2776,51.1006Q45.831,50.6903,46.3635,50.2533Q46.896,49.8162,47.4064,49.3536Q47.9168,48.891,48.4039,48.4039Q48.891,47.9168,49.3536,47.4064Q49.8162,46.896,50.2533,46.3635Q50.6903,45.831,51.1006,45.2776Q51.511,44.7243,51.8937,44.1516Q52.2764,43.5788,52.6306,42.9879Q52.9847,42.3971,53.3095,41.7895Q53.6342,41.182,53.9287,40.5593Q54.2232,39.9365,54.4869,39.3001Q54.7505,38.6637,54.9826,38.0151Q55.2146,37.3665,55.4146,36.7073Q55.6146,36.0481,55.782,35.3798Q55.9493,34.7116,56.0837,34.036Q56.2181,33.3603,56.3192,32.6789Q56.4203,31.9975,56.4878,31.312Q56.5553,30.6264,56.5891,29.9384Q56.6229,29.2503,56.6229,28.5615Q56.6229,27.8726,56.5891,27.1846Q56.5553,26.4965,56.4878,25.811Q56.4203,25.1254,56.3192,24.444Q56.2181,23.7626,56.0837,23.0869Q55.9493,22.4113,55.7819,21.7431Q55.6146,21.0749,55.4146,20.4156Q55.2146,19.7564,54.9826,19.1078Q54.7505,18.4592,54.4869,17.8228Q54.2232,17.1864,53.9287,16.5636Q53.6342,15.9409,53.3095,15.3334Q52.9847,14.7259,52.6306,14.135Q52.2764,13.5441,51.8937,12.9713Q51.511,12.3986,51.1006,11.8453Q50.6903,11.292,50.2533,10.7595Q49.8162,10.22695,49.3536,9.71654Q48.891,9.20612,48.4039,8.71901Q47.9168,8.23191,47.4064,7.76929Q46.896,7.30667,46.3635,6.86966Q45.831,6.43264,45.2776,6.02228Q44.7243,5.61192,44.1516,5.22921Q43.5788,4.84649,42.9879,4.49234Q42.3971,4.13819,41.7895,3.81346Q41.182,3.48873,40.5593,3.1942Q39.9365,2.89967,39.3001,2.63605Q38.6637,2.37243,38.0151,2.1403600000000003Q37.3665,1.90829,36.7073,1.70832Q36.0481,1.50835,35.3798,1.340967Q34.7116,1.173585,34.036,1.039193Q33.3603,0.904801,32.6789,0.803723Q31.9975,0.702645,31.312,0.635124Q30.6264,0.5676025,29.9384,0.5338013Q29.2503,0.5,28.5615,0.5Q27.8726,0.5,27.1846,0.5338013Q26.4965,0.5676025,25.811,0.635124Q25.1254,0.702645,24.444,0.803723Q23.7626,0.904801,23.0869,1.039193Q22.4113,1.173585,21.7431,1.340967Q21.0749,1.50835,20.4156,1.70832Q19.7564,1.90829,19.1078,2.1403600000000003Q18.4592,2.37243,17.8228,2.63605Q17.1864,2.89967,16.5636,3.1942Q15.9409,3.48873,15.3334,3.81346Q14.7259,4.13819,14.135,4.49234Q13.5441,4.84649,12.9713,5.22921Q12.3986,5.61192,11.8453,6.02228Q11.292,6.43264,10.7595,6.86966Q10.22695,7.30667,9.71654,7.76929Q9.20612,8.23191,8.71901,8.71901Q8.23191,9.20612,7.76929,9.71654Q7.30667,10.22695,6.86966,10.7595Q6.43264,11.292,6.02228,11.8453Q5.61192,12.3986,5.22921,12.9713Q4.84649,13.5441,4.49234,14.135Q4.13819,14.7259,3.81346,15.3334Q3.48873,15.9409,3.1942,16.5636Q2.89967,17.1864,2.63605,17.8228Q2.37243,18.4592,2.1403600000000003,19.1078Q1.90829,19.7564,1.70832,20.4156Q1.50835,21.0749,1.340967,21.7431Q1.173585,22.4113,1.039193,23.0869Q0.904801,23.7626,0.803723,24.444Q0.702645,25.1254,0.635124,25.811Q0.5676025,26.4965,0.5338013,27.1846Q0.5,27.8726,0.5,28.5615Q0.4999999999999988,29.6907,0.5907328000000001,30.8162Q0.681466,31.9418,0.8623449999999999,33.0564Q1.043224,34.171,1.313079,35.2675Q1.58293,36.364,1.94002,37.4353Q2.29711,38.5065,2.73912,39.5456Q3.18112,40.5847,3.7052,41.585Q4.22927,42.5852,4.83202,43.5401Q5.43476,44.495,6.11229,45.3983L4.24155,53.8168L12.0151,51.2256Q12.9088,51.8781,13.8512,52.4582Q14.7935,53.0383,15.7786,53.5424Q16.7637,54.0464,17.7855,54.4714Q18.8072,54.8963,19.8593,55.2395Q20.9113,55.5827,21.9871,55.8419Q23.0629,56.1012,24.1557,56.2749Q25.2486,56.4486,26.3517,56.5358Q27.4549,56.6229,28.5615,56.6229Z" fill-rule="evenodd" fill="#FFCF00" fill-opacity="1"/><path d="M28.5615,56.1229Q33.8186,56.1229,38.7067,54.1878Q44.014,52.0867,48.0504,48.0504Q52.0867,44.0141,54.1878,38.7067Q56.1229,33.8186,56.1229,28.5615Q56.1229,23.3043,54.1878,18.4162Q52.0867,13.1089,48.0504,9.07257Q44.0141,5.03629,38.7067,2.93514Q33.8186,1,28.5615,1Q23.3043,1,18.4162,2.93514Q13.1088,5.03628,9.07257,9.07257Q5.03629,13.1089,2.93514,18.4162Q1,23.3043,1,28.5615Q1,37.7486,6.51229,45.0983L6.65027,45.2823L4.72964,53.9252L4.24155,53.8168L4.08343,53.3424L12.1016,50.6697L12.3099,50.8218Q19.571,56.123,28.5615,56.1229ZM28.5615,57.1229Q19.2449,57.1229,11.7203,51.6294L12.0151,51.2256L12.1732,51.6999L3.56189,54.5704L5.62419,45.2899L6.11229,45.3983L5.71229,45.6983Q0,38.082,0,28.5615Q0,23.1135,2.00535,18.0481Q4.18272,12.5482,8.365459999999999,8.365459999999999Q12.5482,4.182729999999999,18.0481,2.00535Q23.1136,0,28.5615,0Q34.0094,0,39.0748,2.00535Q44.5747,4.182729999999999,48.7575,8.365459999999999Q52.9402,12.5483,55.1176,18.0481Q57.1229,23.1136,57.1229,28.5615Q57.1229,34.0093,55.1176,39.0748Q52.9402,44.5747,48.7575,48.7575Q44.5747,52.9402,39.0748,55.1176Q34.0093,57.1229,28.5615,57.1229Z" fill="#000000" fill-opacity="1"/></g><g filter="url(#master_svg0_0_412)"><ellipse cx="10.946762561798096" cy="30.8537814617157" rx="3.273837089538574" ry="1.4030730724334717" fill="#FF8B72" fill-opacity="1"/></g><g transform="matrix(1,0,0,-1,0,64.78321075439453)" filter="url(#master_svg1_0_413)"><ellipse cx="47.174567222595215" cy="33.79467844963074" rx="3.273837089538574" ry="1.4030730724334717" fill="#FF8B72" fill-opacity="1"/></g><g transform="matrix(0.98540860414505,-0.17020541429519653,0.17020541429519653,0.98540860414505,-2.2201075952186216,6.611866892532191)"><path d="M37.674133450439456,16.90675905682373C37.476541350439454,17.00555505682373,37.396451350439456,17.24582405682373,37.495247350439456,17.44341605682373C37.59404345043945,17.64100605682373,37.834312450439455,17.72109605682373,38.03190345043945,17.62230605682373C38.03190345043945,17.62230605682373,37.674133450439456,16.90675905682373,37.674133450439456,16.90675905682373C37.674133450439456,16.90675905682373,37.674133450439456,16.90675905682373,37.674133450439456,16.90675905682373ZM44.117850450439455,18.48275605682373C44.27406045043945,18.63896605682373,44.52733045043945,18.63896605682373,44.68354045043945,18.48275605682373C44.83975045043945,18.32654605682373,44.83975045043945,18.07327605682373,44.68354045043945,17.91706605682373C44.68354045043945,17.91706605682373,44.117850450439455,18.48275605682373,44.117850450439455,18.48275605682373C44.117850450439455,18.48275605682373,44.117850450439455,18.48275605682373,44.117850450439455,18.48275605682373ZM38.03190345043945,17.62230605682373C38.60298045043945,17.33676605682373,39.614070450439456,17.027091056823732,40.74232045043945,17.05639605682373C41.861200450439455,17.08545805682373,43.081430450439456,17.446336056823732,44.117850450439455,18.48275605682373C44.117850450439455,18.48275605682373,44.68354045043945,17.91706605682373,44.68354045043945,17.91706605682373C43.47504045043945,16.70857305682373,42.04502045043945,16.28996315682373,40.763090450439456,16.25666614682373C39.49053045043945,16.22361315682373,38.350233450439454,16.56870905682373,37.674133450439456,16.90675905682373C37.674133450439456,16.90675905682373,38.03190345043945,17.62230605682373,38.03190345043945,17.62230605682373C38.03190345043945,17.62230605682373,38.03190345043945,17.62230605682373,38.03190345043945,17.62230605682373Z" fill="#000000" fill-opacity="1"/></g><g transform="matrix(-0.98540860414505,-0.17020535469055176,-0.17020541429519653,0.98540860414505,44.00940917605527,3.772844161596879)"><path d="M20.994161755493163,16.90675905682373C20.796569655493165,17.00555505682373,20.716479655493163,17.24582405682373,20.815275655493163,17.44341605682373C20.914071755493165,17.64100605682373,21.154340755493163,17.72109605682373,21.351931755493165,17.62230605682373C21.351931755493165,17.62230605682373,20.994161755493163,16.90675905682373,20.994161755493163,16.90675905682373C20.994161755493163,16.90675905682373,20.994161755493163,16.90675905682373,20.994161755493163,16.90675905682373ZM27.437878755493166,18.48275605682373C27.594088755493164,18.63896605682373,27.847358755493165,18.63896605682373,28.003568755493163,18.48275605682373C28.159778755493164,18.32654605682373,28.159778755493164,18.07327605682373,28.003568755493163,17.91706605682373C28.003568755493163,17.91706605682373,27.437878755493166,18.48275605682373,27.437878755493166,18.48275605682373C27.437878755493166,18.48275605682373,27.437878755493166,18.48275605682373,27.437878755493166,18.48275605682373ZM21.351931755493165,17.62230605682373C21.923008755493164,17.33676605682373,22.934098755493164,17.027091056823732,24.062348755493165,17.05639605682373C25.181228755493166,17.08545805682373,26.401458755493163,17.446336056823732,27.437878755493166,18.48275605682373C27.437878755493166,18.48275605682373,28.003568755493163,17.91706605682373,28.003568755493163,17.91706605682373C26.795068755493162,16.70857305682373,25.365048755493163,16.28996315682373,24.083118755493164,16.25666614682373C22.810558755493165,16.22361315682373,21.670261755493165,16.56870905682373,20.994161755493163,16.90675905682373C20.994161755493163,16.90675905682373,21.351931755493165,17.62230605682373,21.351931755493165,17.62230605682373C21.351931755493165,17.62230605682373,21.351931755493165,17.62230605682373,21.351931755493165,17.62230605682373Z" fill="#000000" fill-opacity="1"/></g><g><path d="M36.08318834633789,25.142148498535157C36.952763746337894,21.201361498535157,44.89537374633789,19.748898498535155,46.22863374633789,21.810415498535157C46.29443374633789,21.912128498535157,46.22923374633789,22.039638498535155,46.11243374633789,22.071718498535155C44.16176374633789,22.607438498535156,41.94736374633789,23.867018498535156,41.65682374633789,24.819948498535155C41.40454374633789,25.647368498535158,42.68395374633789,27.004658498535157,44.60209374633789,28.148048498535157C44.763293746337894,28.244148498535157,44.72199374633789,28.487188498535154,44.53555374633789,28.508788498535157C40.46915374633789,28.979968498535158,35.81269374633789,26.367988498535155,36.08318834633789,25.142148498535157C36.08318834633789,25.142148498535157,36.08318834633789,25.142148498535157,36.08318834633789,25.142148498535157Z" fill="#000000" fill-opacity="1"/></g><g transform="matrix(-1,0,0,1,43.97280502319336,0)"><path d="M21.99765711159668,25.142148498535157C22.86723251159668,21.201361498535157,30.809842511596678,19.748898498535155,32.14310251159668,21.810415498535157C32.208902511596676,21.912128498535157,32.14370251159668,22.039638498535155,32.02690251159668,22.071718498535155C30.07623251159668,22.607438498535156,27.86183251159668,23.867018498535156,27.57129251159668,24.819948498535155C27.31901251159668,25.647368498535158,28.59842251159668,27.004658498535157,30.516562511596682,28.148048498535157C30.67776251159668,28.244148498535157,30.63646251159668,28.487188498535154,30.45002251159668,28.508788498535157C26.38362251159668,28.979968498535158,21.72716251159668,26.367988498535155,21.99765711159668,25.142148498535157C21.99765711159668,25.142148498535157,21.99765711159668,25.142148498535157,21.99765711159668,25.142148498535157Z" fill="#000000" fill-opacity="1"/></g><g><path d="M29.21691404418945,46.3338140411377C19.863074044189453,46.3338140411377,13.315394044189453,36.04459404113769,16.121545044189453,33.238453041137696C18.927694044189455,30.432304041137694,24.727064044189454,35.1092140411377,29.21691404418945,35.1092140411377C33.706714044189454,35.1092140411377,39.50611404418945,30.432384041137695,42.31221404418945,33.238453041137696C45.11841404418945,36.0445240411377,38.57071404418946,46.3338140411377,29.21691404418945,46.3338140411377C29.21691404418945,46.3338140411377,29.21691404418945,46.3338140411377,29.21691404418945,46.3338140411377Z" fill="#000000" fill-opacity="1"/></g><g><g><path d="M21.078401565551758,40.41528803110123C21.078401565551758,39.034578031101226,22.197691565551757,37.91528803110123,23.578401565551758,37.91528803110123C23.578401565551758,37.91528803110123,35.41530156555176,37.91528803110123,35.41530156555176,37.91528803110123C36.796001565551755,37.91528803110123,37.91530156555176,39.034578031101226,37.91530156555176,40.41528803110123C37.91530156555176,40.41528803110123,37.91530156555176,51.622888031101226,37.91530156555176,51.622888031101226C37.91530156555176,54.384388031101224,35.67670156555176,56.622888031101226,32.91530156555176,56.622888031101226C32.91530156555176,56.622888031101226,26.078401565551758,56.622888031101226,26.078401565551758,56.622888031101226C23.316981565551757,56.622888031101226,21.078401565551758,54.384388031101224,21.078401565551758,51.622888031101226C21.078401565551758,51.622888031101226,21.078401565551758,40.41528803110123,21.078401565551758,40.41528803110123C21.078401565551758,40.41528803110123,21.078401565551758,40.41528803110123,21.078401565551758,40.41528803110123Z" fill="#D50B00" fill-opacity="1"/><path d="M20.578401565551758,40.41528803110123L20.578401565551758,51.622888031101226Q20.578401565551758,53.901088031101224,22.189321565551758,55.511988031101225Q23.80022156555176,57.122888031101226,26.078401565551758,57.122888031101226L32.91530156555176,57.122888031101226Q35.193501565551756,57.122888031101226,36.80440156555176,55.511988031101225Q38.41530156555176,53.901088031101224,38.41530156555176,51.622888031101226L38.41530156555176,40.41528803110123Q38.41530156555176,39.172648031101225,37.53660156555176,38.29396803110123Q36.657901565551754,37.41528803110123,35.41530156555176,37.41528803110123L23.578401565551758,37.41528803110123Q22.335761565551756,37.41528803110123,21.457081565551757,38.29396803110123Q20.578401565551758,39.172648031101225,20.578401565551758,40.41528803110123ZM22.89642156555176,54.80488803110123Q21.578401565551758,53.48688803110123,21.578401565551758,51.622888031101226L21.578401565551758,40.41528803110123Q21.578401565551758,39.58685803110123,22.164191565551757,39.00107803110123Q22.749971565551757,38.41528803110123,23.578401565551758,38.41528803110123L35.41530156555176,38.41528803110123Q36.24370156555176,38.41528803110123,36.82950156555176,39.00107803110123Q37.41530156555176,39.586868031101226,37.41530156555176,40.41528803110123L37.41530156555176,51.622888031101226Q37.41530156555176,53.48688803110123,36.09730156555176,54.80488803110123Q34.77930156555176,56.122888031101226,32.91530156555176,56.122888031101226L26.078401565551758,56.122888031101226Q24.214431565551756,56.122888031101226,22.89642156555176,54.80488803110123Z" fill-rule="evenodd" fill="#000000" fill-opacity="1"/></g><g><path d="M29.996880531311035,37.91529083251953C29.996880531311035,37.63914883251953,29.773022531311035,37.41529083251953,29.496880531311035,37.41529083251953C29.220738531311035,37.41529083251953,28.996880531311035,37.63914883251953,28.996880531311035,37.91529083251953C28.996880531311035,37.91529083251953,29.996880531311035,37.91529083251953,29.996880531311035,37.91529083251953C29.996880531311035,37.91529083251953,29.996880531311035,37.91529083251953,29.996880531311035,37.91529083251953ZM28.996880531311035,45.39835083251953C28.996880531311035,45.67449083251953,29.220738531311035,45.89835083251953,29.496880531311035,45.89835083251953C29.773022531311035,45.89835083251953,29.996880531311035,45.67449083251953,29.996880531311035,45.39835083251953C29.996880531311035,45.39835083251953,28.996880531311035,45.39835083251953,28.996880531311035,45.39835083251953C28.996880531311035,45.39835083251953,28.996880531311035,45.39835083251953,28.996880531311035,45.39835083251953ZM28.996880531311035,37.91529083251953C28.996880531311035,37.91529083251953,28.996880531311035,45.39835083251953,28.996880531311035,45.39835083251953C28.996880531311035,45.39835083251953,29.996880531311035,45.39835083251953,29.996880531311035,45.39835083251953C29.996880531311035,45.39835083251953,29.996880531311035,37.91529083251953,29.996880531311035,37.91529083251953C29.996880531311035,37.91529083251953,28.996880531311035,37.91529083251953,28.996880531311035,37.91529083251953C28.996880531311035,37.91529083251953,28.996880531311035,37.91529083251953,28.996880531311035,37.91529083251953Z" fill="#000000" fill-opacity="1"/></g></g></g></svg>