<svg xmlns="http://www.w3.org/2000/svg" xmlns:xlink="http://www.w3.org/1999/xlink" fill="none" version="1.1" width="57.1229248046875" height="57.1229248046875" viewBox="0 0 57.1229248046875 57.1229248046875"><defs><filter id="master_svg0_0_265" filterUnits="objectBoundingBox" color-interpolation-filters="sRGB" x="-2" y="-2" width="11.48305606842041" height="7.741528034210205"><feFlood flood-opacity="0" result="BackgroundImageFix"/><feBlend mode="normal" in="SourceGraphic" in2="BackgroundImageFix" result="shape"/><feGaussianBlur stdDeviation="0.5" result="effect1_foregroundBlur"/></filter><filter id="master_svg1_0_266" filterUnits="objectBoundingBox" color-interpolation-filters="sRGB" x="-2" y="-2" width="11.48305606842041" height="7.741528034210205"><feFlood flood-opacity="0" result="BackgroundImageFix"/><feBlend mode="normal" in="SourceGraphic" in2="BackgroundImageFix" result="shape"/><feGaussianBlur stdDeviation="0.5" result="effect1_foregroundBlur"/></filter></defs><g><g><path d="M28.5615,56.6229Q29.2503,56.6229,29.9384,56.5891Q30.6264,56.5553,31.312,56.4878Q31.9975,56.4203,32.6789,56.3192Q33.3603,56.2181,34.036,56.0837Q34.7116,55.9493,35.3798,55.7819Q36.0481,55.6146,36.7073,55.4146Q37.3665,55.2146,38.0151,54.9826Q38.6637,54.7505,39.3001,54.4869Q39.9365,54.2232,40.5593,53.9287Q41.182,53.6342,41.7895,53.3095Q42.3971,52.9847,42.9879,52.6306Q43.5788,52.2764,44.1516,51.8937Q44.7243,51.511,45.2776,51.1006Q45.831,50.6903,46.3635,50.2533Q46.896,49.8162,47.4064,49.3536Q47.9168,48.891,48.4039,48.4039Q48.891,47.9168,49.3536,47.4064Q49.8162,46.896,50.2533,46.3635Q50.6903,45.831,51.1006,45.2776Q51.511,44.7243,51.8937,44.1516Q52.2764,43.5788,52.6306,42.9879Q52.9847,42.3971,53.3095,41.7895Q53.6342,41.182,53.9287,40.5593Q54.2232,39.9365,54.4869,39.3001Q54.7505,38.6637,54.9826,38.0151Q55.2146,37.3665,55.4146,36.7073Q55.6146,36.0481,55.782,35.3798Q55.9493,34.7116,56.0837,34.036Q56.2181,33.3603,56.3192,32.6789Q56.4203,31.9975,56.4878,31.312Q56.5553,30.6264,56.5891,29.9384Q56.6229,29.2503,56.6229,28.5615Q56.6229,27.8726,56.5891,27.1846Q56.5553,26.4965,56.4878,25.811Q56.4203,25.1254,56.3192,24.444Q56.2181,23.7626,56.0837,23.0869Q55.9493,22.4113,55.7819,21.7431Q55.6146,21.0749,55.4146,20.4156Q55.2146,19.7564,54.9826,19.1078Q54.7505,18.4592,54.4869,17.8228Q54.2232,17.1864,53.9287,16.5636Q53.6342,15.9409,53.3095,15.3334Q52.9847,14.7259,52.6306,14.135Q52.2764,13.5441,51.8937,12.9713Q51.511,12.3986,51.1006,11.8453Q50.6903,11.292,50.2533,10.7595Q49.8162,10.22695,49.3536,9.71654Q48.891,9.20612,48.4039,8.71901Q47.9168,8.23191,47.4064,7.76929Q46.896,7.30667,46.3635,6.86966Q45.831,6.43264,45.2776,6.02228Q44.7243,5.61192,44.1516,5.22921Q43.5788,4.84649,42.9879,4.49234Q42.3971,4.13819,41.7895,3.81346Q41.182,3.48873,40.5593,3.1942Q39.9365,2.89967,39.3001,2.63605Q38.6637,2.37243,38.0151,2.1403600000000003Q37.3665,1.90829,36.7073,1.70832Q36.0481,1.50835,35.3798,1.340967Q34.7116,1.173585,34.036,1.039193Q33.3603,0.904801,32.6789,0.803723Q31.9975,0.702645,31.312,0.635124Q30.6264,0.5676025,29.9384,0.5338013Q29.2503,0.5,28.5615,0.5Q27.8726,0.5,27.1846,0.5338013Q26.4965,0.5676025,25.811,0.635124Q25.1254,0.702645,24.444,0.803723Q23.7626,0.904801,23.0869,1.039193Q22.4113,1.173585,21.7431,1.340967Q21.0749,1.50835,20.4156,1.70832Q19.7564,1.90829,19.1078,2.1403600000000003Q18.4592,2.37243,17.8228,2.63605Q17.1864,2.89967,16.5636,3.1942Q15.9409,3.48873,15.3334,3.81346Q14.7259,4.13819,14.135,4.49234Q13.5441,4.84649,12.9713,5.22921Q12.3986,5.61192,11.8453,6.02228Q11.292,6.43264,10.7595,6.86966Q10.22695,7.30667,9.71654,7.76929Q9.20612,8.23191,8.71901,8.71901Q8.23191,9.20612,7.76929,9.71654Q7.30667,10.22695,6.86966,10.7595Q6.43264,11.292,6.02228,11.8453Q5.61192,12.3986,5.22921,12.9713Q4.84649,13.5441,4.49234,14.135Q4.13819,14.7259,3.81346,15.3334Q3.48873,15.9409,3.1942,16.5636Q2.89967,17.1864,2.63605,17.8228Q2.37243,18.4592,2.1403600000000003,19.1078Q1.90829,19.7564,1.70832,20.4156Q1.50835,21.0749,1.340967,21.7431Q1.173585,22.4113,1.039193,23.0869Q0.904801,23.7626,0.803723,24.444Q0.702645,25.1254,0.635124,25.811Q0.5676025,26.4965,0.5338013,27.1846Q0.5,27.8726,0.5,28.5615Q0.4999999999999988,29.6907,0.5907328000000001,30.8162Q0.681466,31.9418,0.8623449999999999,33.0564Q1.043224,34.171,1.313079,35.2675Q1.58293,36.364,1.94002,37.4353Q2.29711,38.5065,2.73912,39.5456Q3.18112,40.5847,3.7052,41.585Q4.22927,42.5852,4.83202,43.5401Q5.43476,44.495,6.11229,45.3983L4.24155,53.8168L12.0151,51.2256Q12.9088,51.8781,13.8512,52.4582Q14.7935,53.0383,15.7786,53.5424Q16.7637,54.0464,17.7855,54.4714Q18.8072,54.8963,19.8593,55.2395Q20.9113,55.5827,21.9871,55.8419Q23.0629,56.1012,24.1557,56.2749Q25.2486,56.4486,26.3517,56.5358Q27.4549,56.6229,28.5615,56.6229Z" fill-rule="evenodd" fill="#FFCF00" fill-opacity="1"/><path d="M28.5615,56.1229Q33.8186,56.1229,38.7067,54.1878Q44.014,52.0867,48.0504,48.0504Q52.0867,44.0141,54.1878,38.7067Q56.1229,33.8186,56.1229,28.5615Q56.1229,23.3043,54.1878,18.4162Q52.0867,13.1089,48.0504,9.07257Q44.0141,5.03629,38.7067,2.93514Q33.8186,1,28.5615,1Q23.3043,1,18.4162,2.93514Q13.1088,5.03628,9.07257,9.07257Q5.03629,13.1089,2.93514,18.4162Q1,23.3043,1,28.5615Q1,37.7486,6.51229,45.0983L6.65027,45.2823L4.72964,53.9252L4.24155,53.8168L4.08343,53.3424L12.1016,50.6697L12.3099,50.8218Q19.571,56.123,28.5615,56.1229ZM28.5615,57.1229Q19.2449,57.1229,11.7203,51.6294L12.0151,51.2256L12.1732,51.6999L3.56189,54.5704L5.62419,45.2899L6.11229,45.3983L5.71229,45.6983Q0,38.082,0,28.5615Q0,23.1135,2.00535,18.0481Q4.18272,12.5482,8.365459999999999,8.365459999999999Q12.5482,4.182729999999999,18.0481,2.00535Q23.1136,0,28.5615,0Q34.0094,0,39.0748,2.00535Q44.5747,4.182729999999999,48.7575,8.365459999999999Q52.9402,12.5483,55.1176,18.0481Q57.1229,23.1136,57.1229,28.5615Q57.1229,34.0093,55.1176,39.0748Q52.9402,44.5747,48.7575,48.7575Q44.5747,52.9402,39.0748,55.1176Q34.0093,57.1229,28.5615,57.1229Z" fill="#000000" fill-opacity="1"/></g><g filter="url(#master_svg0_0_265)"><ellipse cx="49.13986253738403" cy="34.17375588417053" rx="3.741528034210205" ry="1.8707640171051025" fill="#FF8B72" fill-opacity="1"/></g><g filter="url(#master_svg1_0_266)"><ellipse cx="7.983056545257568" cy="34.17375588417053" rx="3.741528034210205" ry="1.8707640171051025" fill="#FF8B72" fill-opacity="1"/></g><g><path d="M9.453815468505859,20.778373674316406C9.288130768505859,20.999293674316405,9.33290176850586,21.312693674316407,9.55381546850586,21.478373674316405C9.774729468505859,21.644063674316406,10.08813046850586,21.599293674316407,10.25381546850586,21.378373674316407C10.25381546850586,21.378373674316407,9.453815468505859,20.778373674316406,9.453815468505859,20.778373674316406C9.453815468505859,20.778373674316406,9.453815468505859,20.778373674316406,9.453815468505859,20.778373674316406ZM16.28022646850586,18.757303674316407C16.54811646850586,18.824273674316405,16.81958646850586,18.661393674316407,16.88656646850586,18.393500674316407C16.95353646850586,18.125602674316408,16.79065646850586,17.854135674316407,16.52275646850586,17.787161674316405C16.52275646850586,17.787161674316405,16.28022646850586,18.757303674316407,16.28022646850586,18.757303674316407C16.28022646850586,18.757303674316407,16.28022646850586,18.757303674316407,16.28022646850586,18.757303674316407ZM10.25381546850586,21.378373674316407C10.68491646850586,20.803573674316407,11.522246468505859,19.964593674316404,12.59953646850586,19.363653674316406C13.67293646850586,18.764893674316408,14.94401646850586,18.423251674316408,16.28022646850586,18.757303674316407C16.28022646850586,18.757303674316407,16.52275646850586,17.787161674316405,16.52275646850586,17.787161674316405C14.86574646850586,17.372907674316405,13.33067646850586,17.810748674316407,12.112386468505859,18.490342674316405C10.897996468505859,19.167753674316405,9.95809546850586,20.106003674316405,9.453815468505859,20.778373674316406C9.453815468505859,20.778373674316406,10.25381546850586,21.378373674316407,10.25381546850586,21.378373674316407C10.25381546850586,21.378373674316407,10.25381546850586,21.378373674316407,10.25381546850586,21.378373674316407Z" fill="#000000" fill-opacity="1"/></g><g transform="matrix(-1,0,0,1,93.66749572753906,0)"><path d="M46.93377686376953,20.778373674316406C46.76809216376953,20.999293674316405,46.81286316376953,21.312693674316407,47.03377686376953,21.478373674316405C47.25469086376953,21.644063674316406,47.56809186376953,21.599293674316407,47.733776863769535,21.378373674316407C47.733776863769535,21.378373674316407,46.93377686376953,20.778373674316406,46.93377686376953,20.778373674316406C46.93377686376953,20.778373674316406,46.93377686376953,20.778373674316406,46.93377686376953,20.778373674316406ZM53.76018786376953,18.757303674316407C54.02807786376953,18.824273674316405,54.29954786376953,18.661393674316407,54.366527863769534,18.393500674316407C54.43349786376953,18.125602674316408,54.27061786376953,17.854135674316407,54.00271786376953,17.787161674316405C54.00271786376953,17.787161674316405,53.76018786376953,18.757303674316407,53.76018786376953,18.757303674316407C53.76018786376953,18.757303674316407,53.76018786376953,18.757303674316407,53.76018786376953,18.757303674316407ZM47.733776863769535,21.378373674316407C48.16487786376953,20.803573674316407,49.002207863769534,19.964593674316404,50.07949786376953,19.363653674316406C51.15289786376953,18.764893674316408,52.42397786376953,18.423251674316408,53.76018786376953,18.757303674316407C53.76018786376953,18.757303674316407,54.00271786376953,17.787161674316405,54.00271786376953,17.787161674316405C52.34570786376953,17.372907674316405,50.81063786376953,17.810748674316407,49.59234786376953,18.490342674316405C48.37795786376953,19.167753674316405,47.43805686376953,20.106003674316405,46.93377686376953,20.778373674316406C46.93377686376953,20.778373674316406,47.733776863769535,21.378373674316407,47.733776863769535,21.378373674316407C47.733776863769535,21.378373674316407,47.733776863769535,21.378373674316407,47.733776863769535,21.378373674316407Z" fill="#000000" fill-opacity="1"/></g><g><path d="M19.207656768798827,32.30299103027344Q19.39145676879883,32.30299103027344,19.57435676879883,32.28497103027344Q19.75735676879883,32.26695103027344,19.937656768798828,32.23109103027344Q20.11785676879883,32.19523103027344,20.29375676879883,32.14188103027344Q20.469656768798828,32.08852103027344,20.63945676879883,32.01818103027344Q20.80935676879883,31.947841030273437,20.97145676879883,31.86119103027344Q21.133556768798826,31.774541030273436,21.28635676879883,31.672421030273437Q21.439156768798828,31.570301030273438,21.58125676879883,31.453701030273436Q21.72335676879883,31.337091030273438,21.85335676879883,31.207121030273438Q21.983256768798828,31.077141030273438,22.099956768798826,30.935061030273438Q22.216556768798828,30.79297103027344,22.318656768798828,30.640141030273437Q22.420756768798828,30.48731103027344,22.50735676879883,30.325201030273437Q22.59405676879883,30.163101030273438,22.66435676879883,29.993281030273437Q22.734756768798828,29.823461030273435,22.78805676879883,29.647571030273436Q22.841456768798828,29.471671030273438,22.87725676879883,29.291391030273438Q22.913156768798828,29.111121030273438,22.93115676879883,28.92819103027344Q22.94915676879883,28.745271030273436,22.94915676879883,28.56146103027344Q22.94915676879883,28.377651030273437,22.93115676879883,28.19472103027344Q22.913156768798828,28.01180103027344,22.87725676879883,27.831521030273436Q22.841456768798828,27.65124103027344,22.78805676879883,27.475351030273437Q22.734756768798828,27.29945103027344,22.66435676879883,27.129641030273437Q22.59405676879883,26.95982103027344,22.50735676879883,26.797711030273437Q22.420756768798828,26.635611030273438,22.318656768798828,26.482781030273436Q22.216556768798828,26.32994103027344,22.099956768798826,26.18786103027344Q21.983256768798828,26.04577103027344,21.85335676879883,25.91580103027344Q21.72335676879883,25.785826030273437,21.58125676879883,25.66921903027344Q21.439156768798828,25.552611030273436,21.28635676879883,25.450492030273438Q21.133556768798826,25.348373030273436,20.97145676879883,25.261726030273437Q20.80935676879883,25.175079030273437,20.63945676879883,25.104738030273438Q20.469656768798828,25.03439703027344,20.29375676879883,24.981040030273437Q20.11785676879883,24.92768303027344,19.937656768798828,24.891823430273437Q19.75735676879883,24.855964030273437,19.57435676879883,24.83794753027344Q19.39145676879883,24.819931030273438,19.207656768798827,24.819931030273438Q18.74598676879883,24.819931030273438,18.29814676879883,24.93216203027344Q17.85030676879883,25.044393030273437,17.443186768798828,25.262123030273436C17.035256768798828,25.246671030273436,16.60576676879883,25.239138030273438,16.167686768798827,25.23913203027344C14.938076768798828,25.23911503027344,13.606566768798828,25.29847703027344,12.437326768798828,25.418390030273436C11.298156768798828,25.535218030273438,10.220106768798829,25.717671030273436,9.558408768798827,26.001251030273437C9.177686968798827,26.164421030273438,9.001323768798828,26.605331030273437,9.164489968798827,26.986051030273437C9.327656768798828,27.366781030273437,9.768565768798828,27.54314103027344,10.149286768798827,27.37997103027344C10.578866768798829,27.195871030273437,11.449526768798828,27.02756103027344,12.590356768798827,26.91056103027344C13.630266768798828,26.803911030273436,14.818326768798828,26.746681030273436,15.939536768798828,26.739831030273436Q15.706706768798828,27.15754103027344,15.586426768798828,27.62039103027344Q15.46614676879883,28.083241030273438,15.46614676879883,28.56146103027344Q15.46614676879883,28.745271030273436,15.484156768798828,28.92819103027344Q15.50217676879883,29.111121030273438,15.538036768798829,29.291391030273438Q15.573896768798829,29.471671030273438,15.627256768798828,29.647571030273436Q15.680606768798828,29.823461030273435,15.750946768798828,29.993281030273437Q15.821286768798828,30.163101030273438,15.907936768798828,30.325201030273437Q15.994586768798829,30.48731103027344,16.09670676879883,30.640141030273437Q16.198826768798828,30.79297103027344,16.31543676879883,30.935061030273438Q16.432036768798827,31.077151030273438,16.562016768798827,31.207121030273438Q16.691986768798827,31.337091030273438,16.834066768798827,31.453701030273436Q16.976156768798827,31.570311030273437,17.12898676879883,31.672421030273437Q17.28182676879883,31.774541030273436,17.44392676879883,31.86119103027344Q17.60603676879883,31.947841030273437,17.77584676879883,32.01818103027344Q17.94566676879883,32.08852103027344,18.12156676879883,32.14188103027344Q18.297456768798828,32.19523103027344,18.477736768798827,32.23109103027344Q18.65801676879883,32.26695103027344,18.840936768798827,32.28497103027344Q19.02386676879883,32.30299103027344,19.207656768798827,32.30299103027344Z" fill-rule="evenodd" fill="#000000" fill-opacity="1"/></g><g><path d="M43.06033316040039,32.30299103027344Q43.244133160400395,32.30299103027344,43.42703316040039,32.28497103027344Q43.61003316040039,32.26695103027344,43.790333160400394,32.23109103027344Q43.97053316040039,32.19523103027344,44.14643316040039,32.14188103027344Q44.32233316040039,32.08852103027344,44.49213316040039,32.01818103027344Q44.66203316040039,31.947841030273437,44.82413316040039,31.86119103027344Q44.98623316040039,31.774541030273436,45.13903316040039,31.672421030273437Q45.29183316040039,31.570301030273438,45.43393316040039,31.453701030273436Q45.57603316040039,31.337091030273438,45.706033160400395,31.207121030273438Q45.83593316040039,31.077141030273438,45.95263316040039,30.935061030273438Q46.06923316040039,30.79297103027344,46.171333160400394,30.640141030273437Q46.27343316040039,30.48731103027344,46.36003316040039,30.325201030273437Q46.44673316040039,30.163101030273438,46.51703316040039,29.993281030273437Q46.587433160400394,29.823461030273435,46.64073316040039,29.647571030273436Q46.69413316040039,29.471671030273438,46.72993316040039,29.291391030273438Q46.76583316040039,29.111121030273438,46.78383316040039,28.92819103027344Q46.80183316040039,28.745271030273436,46.80183316040039,28.56146103027344Q46.80183316040039,28.377651030273437,46.78383316040039,28.19472103027344Q46.76583316040039,28.01180103027344,46.72993316040039,27.831521030273436Q46.69413316040039,27.65124103027344,46.64073316040039,27.475351030273437Q46.587433160400394,27.29945103027344,46.51703316040039,27.129641030273437Q46.44673316040039,26.95982103027344,46.36003316040039,26.797711030273437Q46.27343316040039,26.635611030273438,46.171333160400394,26.482781030273436Q46.06923316040039,26.32994103027344,45.95263316040039,26.18786103027344Q45.83593316040039,26.04577103027344,45.706033160400395,25.91580103027344Q45.57603316040039,25.785826030273437,45.43393316040039,25.66921903027344Q45.29183316040039,25.552611030273436,45.13903316040039,25.450492030273438Q44.98623316040039,25.348373030273436,44.82413316040039,25.261726030273437Q44.66203316040039,25.175079030273437,44.49213316040039,25.104738030273438Q44.32233316040039,25.03439703027344,44.14643316040039,24.981040030273437Q43.97053316040039,24.92768303027344,43.790333160400394,24.891823430273437Q43.61003316040039,24.855964030273437,43.42703316040039,24.83794753027344Q43.244133160400395,24.819931030273438,43.06033316040039,24.819931030273438Q42.59866316040039,24.819931030273438,42.15082316040039,24.93216203027344Q41.70298316040039,25.044393030273437,41.29586316040039,25.262123030273436C40.887933160400394,25.246671030273436,40.45844316040039,25.239138030273438,40.02036316040039,25.23913203027344C38.79075316040039,25.23911503027344,37.45924316040039,25.29847703027344,36.29000316040039,25.418390030273436C35.15083316040039,25.535218030273438,34.07278316040039,25.717671030273436,33.41108516040039,26.001251030273437C33.03036336040039,26.164421030273438,32.85400016040039,26.605331030273437,33.01716636040039,26.986051030273437C33.18033316040039,27.366781030273437,33.62124216040039,27.54314103027344,34.00196316040039,27.37997103027344C34.43154316040039,27.195871030273437,35.30220316040039,27.02756103027344,36.44303316040039,26.91056103027344C37.48294316040039,26.803911030273436,38.67100316040039,26.746681030273436,39.792213160400394,26.739831030273436Q39.55938316040039,27.15754103027344,39.43910316040039,27.62039103027344Q39.31882316040039,28.083241030273438,39.31882316040039,28.56146103027344Q39.31882316040039,28.745271030273436,39.33683316040039,28.92819103027344Q39.35485316040039,29.111121030273438,39.39071316040039,29.291391030273438Q39.426573160400395,29.471671030273438,39.47993316040039,29.647571030273436Q39.53328316040039,29.823461030273435,39.60362316040039,29.993281030273437Q39.67396316040039,30.163101030273438,39.76061316040039,30.325201030273437Q39.84726316040039,30.48731103027344,39.94938316040039,30.640141030273437Q40.051503160400394,30.79297103027344,40.16811316040039,30.935061030273438Q40.28471316040039,31.077151030273438,40.41469316040039,31.207121030273438Q40.54466316040039,31.337091030273438,40.68674316040039,31.453701030273436Q40.82883316040039,31.570311030273437,40.98166316040039,31.672421030273437Q41.13450316040039,31.774541030273436,41.296603160400394,31.86119103027344Q41.45871316040039,31.947841030273437,41.62852316040039,32.01818103027344Q41.79834316040039,32.08852103027344,41.97424316040039,32.14188103027344Q42.15013316040039,32.19523103027344,42.33041316040039,32.23109103027344Q42.51069316040039,32.26695103027344,42.69361316040039,32.28497103027344Q42.87654316040039,32.30299103027344,43.06033316040039,32.30299103027344Z" fill-rule="evenodd" fill="#000000" fill-opacity="1"/></g><g><path d="M22.99011902746582,43.080355074462894C22.74312602746582,43.574335074462894,22.94335352746582,44.17501507446289,23.43733202746582,44.42200507446289C23.93131502746582,44.66898507446289,24.53198502746582,44.468765074462894,24.77897502746582,43.97478507446289C24.77897502746582,43.97478507446289,22.99011902746582,43.080355074462894,22.99011902746582,43.080355074462894C22.99011902746582,43.080355074462894,22.99011902746582,43.080355074462894,22.99011902746582,43.080355074462894ZM32.34393502746582,43.97478507446289C32.59092502746582,44.468765074462894,33.19162502746582,44.66898507446289,33.68562502746582,44.42200507446289C34.17952502746582,44.17501507446289,34.379725027465824,43.574335074462894,34.132725027465824,43.080355074462894C34.132725027465824,43.080355074462894,32.34393502746582,43.97478507446289,32.34393502746582,43.97478507446289C32.34393502746582,43.97478507446289,32.34393502746582,43.97478507446289,32.34393502746582,43.97478507446289ZM24.77897502746582,43.97478507446289C25.44903502746582,42.63465507446289,26.44959502746582,40.78604507446289,28.56145502746582,40.78604507446289C28.56145502746582,40.78604507446289,28.56145502746582,38.78604507446289,28.56145502746582,38.78604507446289C25.06102502746582,38.78604507446289,23.567230027465822,41.92613507446289,22.99011902746582,43.080355074462894C22.99011902746582,43.080355074462894,24.77897502746582,43.97478507446289,24.77897502746582,43.97478507446289C24.77897502746582,43.97478507446289,24.77897502746582,43.97478507446289,24.77897502746582,43.97478507446289ZM28.56145502746582,40.78604507446289C30.67331502746582,40.78604507446289,31.67387502746582,42.63465507446289,32.34393502746582,43.97478507446289C32.34393502746582,43.97478507446289,34.132725027465824,43.080355074462894,34.132725027465824,43.080355074462894C33.55572502746582,41.92613507446289,32.06188502746582,38.78604507446289,28.56145502746582,38.78604507446289C28.56145502746582,38.78604507446289,28.56145502746582,40.78604507446289,28.56145502746582,40.78604507446289C28.56145502746582,40.78604507446289,28.56145502746582,40.78604507446289,28.56145502746582,40.78604507446289Z" fill="#000000" fill-opacity="1"/></g></g></svg>