<svg xmlns="http://www.w3.org/2000/svg" xmlns:xlink="http://www.w3.org/1999/xlink" fill="none" version="1.1" width="57.1229248046875" height="57.1229248046875" viewBox="0 0 57.1229248046875 57.1229248046875"><g><g><path d="M28.5615,56.6229Q29.2503,56.6229,29.9384,56.5891Q30.6264,56.5553,31.312,56.4878Q31.9975,56.4203,32.6789,56.3192Q33.3603,56.2181,34.036,56.0837Q34.7116,55.9493,35.3798,55.7819Q36.0481,55.6146,36.7073,55.4146Q37.3665,55.2146,38.0151,54.9826Q38.6637,54.7505,39.3001,54.4869Q39.9365,54.2232,40.5593,53.9287Q41.182,53.6342,41.7895,53.3095Q42.3971,52.9847,42.9879,52.6306Q43.5788,52.2764,44.1516,51.8937Q44.7243,51.511,45.2776,51.1006Q45.831,50.6903,46.3635,50.2533Q46.896,49.8162,47.4064,49.3536Q47.9168,48.891,48.4039,48.4039Q48.891,47.9168,49.3536,47.4064Q49.8162,46.896,50.2533,46.3635Q50.6903,45.831,51.1006,45.2776Q51.511,44.7243,51.8937,44.1516Q52.2764,43.5788,52.6306,42.9879Q52.9847,42.3971,53.3095,41.7895Q53.6342,41.182,53.9287,40.5593Q54.2232,39.9365,54.4869,39.3001Q54.7505,38.6637,54.9826,38.0151Q55.2146,37.3665,55.4146,36.7073Q55.6146,36.0481,55.782,35.3798Q55.9493,34.7116,56.0837,34.036Q56.2181,33.3603,56.3192,32.6789Q56.4203,31.9975,56.4878,31.312Q56.5553,30.6264,56.5891,29.9384Q56.6229,29.2503,56.6229,28.5615Q56.6229,27.8726,56.5891,27.1846Q56.5553,26.4965,56.4878,25.811Q56.4203,25.1254,56.3192,24.444Q56.2181,23.7626,56.0837,23.0869Q55.9493,22.4113,55.7819,21.7431Q55.6146,21.0749,55.4146,20.4156Q55.2146,19.7564,54.9826,19.1078Q54.7505,18.4592,54.4869,17.8228Q54.2232,17.1864,53.9287,16.5636Q53.6342,15.9409,53.3095,15.3334Q52.9847,14.7259,52.6306,14.135Q52.2764,13.5441,51.8937,12.9713Q51.511,12.3986,51.1006,11.8453Q50.6903,11.292,50.2533,10.7595Q49.8162,10.22695,49.3536,9.71654Q48.891,9.20612,48.4039,8.71901Q47.9168,8.23191,47.4064,7.76929Q46.896,7.30667,46.3635,6.86966Q45.831,6.43264,45.2776,6.02228Q44.7243,5.61192,44.1516,5.22921Q43.5788,4.84649,42.9879,4.49234Q42.3971,4.13819,41.7895,3.81346Q41.182,3.48873,40.5593,3.1942Q39.9365,2.89967,39.3001,2.63605Q38.6637,2.37243,38.0151,2.1403600000000003Q37.3665,1.90829,36.7073,1.70832Q36.0481,1.50835,35.3798,1.340967Q34.7116,1.173585,34.036,1.039193Q33.3603,0.904801,32.6789,0.803723Q31.9975,0.702645,31.312,0.635124Q30.6264,0.5676025,29.9384,0.5338013Q29.2503,0.5,28.5615,0.5Q27.8726,0.5,27.1846,0.5338013Q26.4965,0.5676025,25.811,0.635124Q25.1254,0.702645,24.444,0.803723Q23.7626,0.904801,23.0869,1.039193Q22.4113,1.173585,21.7431,1.340967Q21.0749,1.50835,20.4156,1.70832Q19.7564,1.90829,19.1078,2.1403600000000003Q18.4592,2.37243,17.8228,2.63605Q17.1864,2.89967,16.5636,3.1942Q15.9409,3.48873,15.3334,3.81346Q14.7259,4.13819,14.135,4.49234Q13.5441,4.84649,12.9713,5.22921Q12.3986,5.61192,11.8453,6.02228Q11.292,6.43264,10.7595,6.86966Q10.22695,7.30667,9.71654,7.76929Q9.20612,8.23191,8.71901,8.71901Q8.23191,9.20612,7.76929,9.71654Q7.30667,10.22695,6.86966,10.7595Q6.43264,11.292,6.02228,11.8453Q5.61192,12.3986,5.22921,12.9713Q4.84649,13.5441,4.49234,14.135Q4.13819,14.7259,3.81346,15.3334Q3.48873,15.9409,3.1942,16.5636Q2.89967,17.1864,2.63605,17.8228Q2.37243,18.4592,2.1403600000000003,19.1078Q1.90829,19.7564,1.70832,20.4156Q1.50835,21.0749,1.340967,21.7431Q1.173585,22.4113,1.039193,23.0869Q0.904801,23.7626,0.803723,24.444Q0.702645,25.1254,0.635124,25.811Q0.5676025,26.4965,0.5338013,27.1846Q0.5,27.8726,0.5,28.5615Q0.5,29.6907,0.5907329,30.8162Q0.681466,31.9418,0.8623449999999999,33.0564Q1.043224,34.171,1.313079,35.2675Q1.58293,36.364,1.94002,37.4353Q2.29711,38.5065,2.73912,39.5456Q3.18113,40.5847,3.7052,41.585Q4.22927,42.5852,4.83202,43.5401Q5.43477,44.495,6.11229,45.3983L4.2415,53.8168L12.0151,51.2256Q12.9088,51.8781,13.8512,52.4582Q14.7935,53.0383,15.7786,53.5423Q16.7637,54.0464,17.7855,54.4714Q18.8072,54.8963,19.8592,55.2395Q20.9113,55.5827,21.9871,55.8419Q23.0628,56.1012,24.1557,56.2749Q25.2486,56.4486,26.3517,56.5358Q27.4549,56.6229,28.5615,56.6229Z" fill-rule="evenodd" fill="#FFCF00" fill-opacity="1"/><path d="M28.5615,56.1229Q33.8186,56.1229,38.7067,54.1878Q44.014,52.0867,48.0504,48.0504Q52.0867,44.0141,54.1878,38.7067Q56.1229,33.8186,56.1229,28.5615Q56.1229,23.3043,54.1878,18.4162Q52.0867,13.1089,48.0504,9.07257Q44.0141,5.03629,38.7067,2.93514Q33.8186,1,28.5615,1Q23.3043,1,18.4162,2.93514Q13.1088,5.03628,9.07257,9.07257Q5.03629,13.1089,2.93514,18.4162Q1,23.3043,1,28.5615Q1,37.7486,6.51229,45.0983L6.65027,45.2823L4.72959,53.9252L4.2415,53.8168L4.08339,53.3424L12.1016,50.6697L12.3099,50.8218Q19.571,56.123,28.5615,56.1229ZM28.5615,57.1229Q19.2449,57.1229,11.7202,51.6294L12.0151,51.2256L12.1732,51.6999L3.56183,54.5704L5.6242,45.2899L6.11229,45.3983L5.71229,45.6983Q0,38.082,0,28.5615Q0,23.1135,2.00535,18.0481Q4.18272,12.5482,8.365459999999999,8.365459999999999Q12.5482,4.182729999999999,18.0481,2.00535Q23.1136,0,28.5615,0Q34.0094,0,39.0748,2.00535Q44.5747,4.182729999999999,48.7575,8.365459999999999Q52.9402,12.5483,55.1176,18.0481Q57.1229,23.1136,57.1229,28.5615Q57.1229,34.0093,55.1176,39.0748Q52.9402,44.5747,48.7575,48.7575Q44.5747,52.9402,39.0748,55.1176Q34.0093,57.1229,28.5615,57.1229Z" fill="#000000" fill-opacity="1"/></g><g><path d="M28.101075996398926,31.367603302001953C17.831805996398927,31.367603302001953,9.632265996398926,41.44230330200195,12.199638996398926,43.52760330200195C14.767015996398925,45.61280330200195,20.819445996398926,41.656803302001954,28.101075996398926,41.656803302001954C35.38267599639893,41.656803302001954,41.43527599639893,45.61280330200195,44.00267599639893,43.52760330200195C46.57007599639893,41.44230330200195,38.37037599639893,31.367603302001953,28.101075996398926,31.367603302001953C28.101075996398926,31.367603302001953,28.101075996398926,31.367603302001953,28.101075996398926,31.367603302001953Z" fill="#000000" fill-opacity="1"/></g><g><path d="M28.56148957824707,32.30298614501953C22.71602957824707,32.30298614501953,19.19449957824707,35.10536614501953,17.90167087824707,36.37161614501953C17.72452357824707,36.545116145019534,17.89283987824707,36.806016145019534,18.130931578247072,36.736756145019534C19.87176957824707,36.23033614501953,24.21660957824707,35.109136145019534,28.56148957824707,35.109136145019534C32.90628957824707,35.109136145019534,37.25118957824707,36.23033614501953,38.99198957824707,36.736756145019534C39.230089578247075,36.806016145019534,39.39838957824707,36.545116145019534,39.22128957824707,36.371606145019534C37.92838957824707,35.10536614501953,34.406889578247075,32.30298614501953,28.56148957824707,32.30298614501953C28.56148957824707,32.30298614501953,28.56148957824707,32.30298614501953,28.56148957824707,32.30298614501953Z" fill="#FFFFFF" fill-opacity="1"/></g><g><path d="M28.56146025024414,37.915287017822266C24.084740250244142,37.915287017822266,22.04418925024414,40.18047701782226,21.35899605024414,41.18582701782226C21.23816505024414,41.36311701782227,21.40017105024414,41.569857017822265,21.608767250244142,41.51965701782227C22.68869025024414,41.259797017822265,25.31744025024414,40.72143701782227,28.56146025024414,40.72143701782227C31.80550025024414,40.72143701782227,34.43420025024414,41.259797017822265,35.51410025024414,41.51965701782227C35.72270025024414,41.569857017822265,35.88470025024414,41.36311701782227,35.76390025024414,41.18582701782226C35.07870025024414,40.18047701782226,33.03820025024414,37.915287017822266,28.56146025024414,37.915287017822266C28.56146025024414,37.915287017822266,28.56146025024414,37.915287017822266,28.56146025024414,37.915287017822266Z" fill="#D50B00" fill-opacity="1"/></g><g transform="matrix(-0.9384794235229492,0.3453352153301239,-0.3453352153301239,-0.9384794235229492,47.35824888498749,18.778226971647427)"><path d="M22.10650635595703,16.760379585876464C21.94082165595703,16.981299585876464,21.98559265595703,17.294699585876465,22.206506355957032,17.460379585876463C22.427420355957032,17.626069585876465,22.74082135595703,17.581299585876465,22.90650635595703,17.360379585876466C22.90650635595703,17.360379585876466,22.10650635595703,16.760379585876464,22.10650635595703,16.760379585876464C22.10650635595703,16.760379585876464,22.10650635595703,16.760379585876464,22.10650635595703,16.760379585876464ZM29.89150735595703,14.744529585876466C30.162287355957034,14.798679585876465,30.42569735595703,14.623079585876464,30.47985735595703,14.352296585876465C30.53400735595703,14.081516585876464,30.35839735595703,13.818103585876464,30.08761735595703,13.763948585876465C30.08761735595703,13.763948585876465,29.89150735595703,14.744529585876466,29.89150735595703,14.744529585876466C29.89150735595703,14.744529585876466,29.89150735595703,14.744529585876466,29.89150735595703,14.744529585876466ZM22.90650635595703,17.360379585876466C23.77527735595703,16.202019585876464,26.40738735595703,14.047704585876465,29.89150735595703,14.744529585876466C29.89150735595703,14.744529585876466,30.08761735595703,13.763948585876465,30.08761735595703,13.763948585876465C26.08868735595703,12.964161585876464,23.10849735595703,15.424399585876465,22.10650635595703,16.760379585876464C22.10650635595703,16.760379585876464,22.90650635595703,17.360379585876466,22.90650635595703,17.360379585876466C22.90650635595703,17.360379585876466,22.90650635595703,17.360379585876466,22.90650635595703,17.360379585876466Z" fill="#000000" fill-opacity="1"/></g><g transform="matrix(0.9384794235229492,0.3453351557254791,0.3453352153301239,-0.9384794235229492,-2.6362607520545964,14.798191344744168)"><path d="M33.631649025634765,16.760379585876464C33.465964325634765,16.981299585876464,33.51073532563476,17.294699585876465,33.731649025634766,17.460379585876463C33.95256302563477,17.626069585876465,34.265964025634766,17.581299585876465,34.43164902563477,17.360379585876466C34.43164902563477,17.360379585876466,33.631649025634765,16.760379585876464,33.631649025634765,16.760379585876464C33.631649025634765,16.760379585876464,33.631649025634765,16.760379585876464,33.631649025634765,16.760379585876464ZM41.416650025634766,14.744529585876466C41.68743002563477,14.798679585876465,41.95084002563476,14.623079585876464,42.005000025634764,14.352296585876465C42.059150025634764,14.081516585876464,41.883540025634765,13.818103585876464,41.61276002563476,13.763948585876465C41.61276002563476,13.763948585876465,41.416650025634766,14.744529585876466,41.416650025634766,14.744529585876466C41.416650025634766,14.744529585876466,41.416650025634766,14.744529585876466,41.416650025634766,14.744529585876466ZM34.43164902563477,17.360379585876466C35.300420025634764,16.202019585876464,37.93253002563476,14.047704585876465,41.416650025634766,14.744529585876466C41.416650025634766,14.744529585876466,41.61276002563476,13.763948585876465,41.61276002563476,13.763948585876465C37.61383002563477,12.964161585876464,34.63364002563477,15.424399585876465,33.631649025634765,16.760379585876464C33.631649025634765,16.760379585876464,34.43164902563477,17.360379585876466,34.43164902563477,17.360379585876466C34.43164902563477,17.360379585876466,34.43164902563477,17.360379585876466,34.43164902563477,17.360379585876466Z" fill="#000000" fill-opacity="1"/></g><g><path d="M22.027118504333494,19.523872665405275C22.201818504333495,18.999927665405274,21.918618504333494,18.433607665405273,21.394618504333494,18.258960365405272C20.870718504333496,18.084313665405272,20.304358504333496,18.367472665405273,20.129718504333496,18.891415665405273C20.129718504333496,18.891415665405273,22.027118504333494,19.523872665405275,22.027118504333494,19.523872665405275C22.027118504333494,19.523872665405275,22.027118504333494,19.523872665405275,22.027118504333494,19.523872665405275ZM12.118498504333497,23.900792665405273C11.610864504333495,23.683232665405274,11.022985504333496,23.918382665405275,10.805429604333495,24.426012665405274C10.587874504333495,24.933642665405273,10.823025604333496,25.52152266540527,11.330655504333496,25.739082665405274C11.330655504333496,25.739082665405274,12.118498504333497,23.900792665405273,12.118498504333497,23.900792665405273C12.118498504333497,23.900792665405273,12.118498504333497,23.900792665405273,12.118498504333497,23.900792665405273ZM20.129718504333496,18.891415665405273C19.699398504333494,20.18236266540527,18.752858504333496,21.967302665405274,17.367048504333496,23.146282665405273C16.684958504333494,23.726562665405275,15.920428504333497,24.140312665405276,15.075668504333496,24.302672665405275C14.239408504333497,24.463402665405273,13.261008504333496,24.390442665405274,12.118498504333497,23.900792665405273C12.118498504333497,23.900792665405273,11.330655504333496,25.739082665405274,11.330655504333496,25.739082665405274C12.807218504333497,26.371892665405273,14.190658504333497,26.509382665405273,15.453158504333496,26.26673266540527C16.707158504333496,26.025712665405273,17.778318504333498,25.422232665405275,18.662998504333494,24.669592665405276C20.410718504333495,23.182732665405275,21.522018504333495,21.039072665405275,22.027118504333494,19.523872665405275C22.027118504333494,19.523872665405275,20.129718504333496,18.891415665405273,20.129718504333496,18.891415665405273C20.129718504333496,18.891415665405273,20.129718504333496,18.891415665405273,20.129718504333496,18.891415665405273Z" fill="#000000" fill-opacity="1"/></g><g transform="matrix(-1,0,0,1,89.05561828613281,0)"><path d="M55.830609143066404,19.523872665405275C56.005309143066405,18.999927665405274,55.722109143066405,18.433607665405273,55.198109143066404,18.258960365405272C54.674209143066406,18.084313665405272,54.1078491430664,18.367472665405273,53.93320914306641,18.891415665405273C53.93320914306641,18.891415665405273,55.830609143066404,19.523872665405275,55.830609143066404,19.523872665405275C55.830609143066404,19.523872665405275,55.830609143066404,19.523872665405275,55.830609143066404,19.523872665405275ZM45.921989143066405,23.900792665405273C45.41435514306641,23.683232665405274,44.82647614306641,23.918382665405275,44.60892024306641,24.426012665405274C44.39136514306641,24.933642665405273,44.626516243066405,25.52152266540527,45.13414614306641,25.739082665405274C45.13414614306641,25.739082665405274,45.921989143066405,23.900792665405273,45.921989143066405,23.900792665405273C45.921989143066405,23.900792665405273,45.921989143066405,23.900792665405273,45.921989143066405,23.900792665405273ZM53.93320914306641,18.891415665405273C53.502889143066405,20.18236266540527,52.556349143066406,21.967302665405274,51.17053914306641,23.146282665405273C50.488449143066404,23.726562665405275,49.723919143066404,24.140312665405276,48.8791591430664,24.302672665405275C48.04289914306641,24.463402665405273,47.064499143066406,24.390442665405274,45.921989143066405,23.900792665405273C45.921989143066405,23.900792665405273,45.13414614306641,25.739082665405274,45.13414614306641,25.739082665405274C46.61070914306641,26.371892665405273,47.99414914306641,26.509382665405273,49.256649143066404,26.26673266540527C50.51064914306641,26.025712665405273,51.58180914306641,25.422232665405275,52.466489143066404,24.669592665405276C54.214209143066405,23.182732665405275,55.325509143066405,21.039072665405275,55.830609143066404,19.523872665405275C55.830609143066404,19.523872665405275,53.93320914306641,18.891415665405273,53.93320914306641,18.891415665405273C53.93320914306641,18.891415665405273,53.93320914306641,18.891415665405273,53.93320914306641,18.891415665405273Z" fill="#000000" fill-opacity="1"/></g></g></svg>