<svg xmlns="http://www.w3.org/2000/svg" xmlns:xlink="http://www.w3.org/1999/xlink" fill="none" version="1.1" width="58.99688720703125" height="57.1229248046875" viewBox="0 0 58.99688720703125 57.1229248046875"><g><g><path d="M28.5615,56.6229Q29.2503,56.6229,29.9384,56.5891Q30.6264,56.5553,31.312,56.4878Q31.9975,56.4203,32.6789,56.3192Q33.3603,56.2181,34.036,56.0837Q34.7116,55.9493,35.3798,55.7819Q36.0481,55.6146,36.7073,55.4146Q37.3665,55.2146,38.0151,54.9826Q38.6637,54.7505,39.3001,54.4869Q39.9365,54.2232,40.5593,53.9287Q41.182,53.6342,41.7895,53.3095Q42.3971,52.9847,42.9879,52.6306Q43.5788,52.2764,44.1516,51.8937Q44.7243,51.511,45.2776,51.1006Q45.831,50.6903,46.3635,50.2533Q46.896,49.8162,47.4064,49.3536Q47.9168,48.891,48.4039,48.4039Q48.891,47.9168,49.3536,47.4064Q49.8162,46.896,50.2533,46.3635Q50.6903,45.831,51.1006,45.2776Q51.511,44.7243,51.8937,44.1516Q52.2764,43.5788,52.6306,42.9879Q52.9847,42.3971,53.3095,41.7895Q53.6342,41.182,53.9287,40.5593Q54.2232,39.9365,54.4869,39.3001Q54.7505,38.6637,54.9826,38.0151Q55.2146,37.3665,55.4146,36.7073Q55.6146,36.0481,55.782,35.3798Q55.9493,34.7116,56.0837,34.036Q56.2181,33.3603,56.3192,32.6789Q56.4203,31.9975,56.4878,31.312Q56.5553,30.6264,56.5891,29.9384Q56.6229,29.2503,56.6229,28.5615Q56.6229,27.8726,56.5891,27.1846Q56.5553,26.4965,56.4878,25.811Q56.4203,25.1254,56.3192,24.444Q56.2181,23.7626,56.0837,23.0869Q55.9493,22.4113,55.7819,21.7431Q55.6146,21.0749,55.4146,20.4156Q55.2146,19.7564,54.9826,19.1078Q54.7505,18.4592,54.4869,17.8228Q54.2232,17.1864,53.9287,16.5636Q53.6342,15.9409,53.3095,15.3334Q52.9847,14.7259,52.6306,14.135Q52.2764,13.5441,51.8937,12.9713Q51.511,12.3986,51.1006,11.8453Q50.6903,11.292,50.2533,10.7595Q49.8162,10.22695,49.3536,9.71654Q48.891,9.20612,48.4039,8.71901Q47.9168,8.23191,47.4064,7.76929Q46.896,7.30667,46.3635,6.86966Q45.831,6.43264,45.2776,6.02228Q44.7243,5.61192,44.1516,5.22921Q43.5788,4.84649,42.9879,4.49234Q42.3971,4.13819,41.7895,3.81346Q41.182,3.48873,40.5593,3.1942Q39.9365,2.89967,39.3001,2.63605Q38.6637,2.37243,38.0151,2.1403600000000003Q37.3665,1.90829,36.7073,1.70832Q36.0481,1.50835,35.3798,1.340967Q34.7116,1.173585,34.036,1.039193Q33.3603,0.904801,32.6789,0.803723Q31.9975,0.702645,31.312,0.635124Q30.6264,0.5676025,29.9384,0.5338013Q29.2503,0.5,28.5615,0.5Q27.8726,0.5,27.1846,0.5338013Q26.4965,0.5676025,25.811,0.635124Q25.1254,0.702645,24.444,0.803723Q23.7626,0.904801,23.0869,1.039193Q22.4113,1.173585,21.7431,1.340967Q21.0749,1.50835,20.4156,1.70832Q19.7564,1.90829,19.1078,2.1403600000000003Q18.4592,2.37243,17.8228,2.63605Q17.1864,2.89967,16.5636,3.1942Q15.9409,3.48873,15.3334,3.81346Q14.7259,4.13819,14.135,4.49234Q13.5441,4.84649,12.9713,5.22921Q12.3986,5.61192,11.8453,6.02228Q11.292,6.43264,10.7595,6.86966Q10.22695,7.30667,9.71654,7.76929Q9.20612,8.23191,8.71901,8.71901Q8.23191,9.20612,7.76929,9.71654Q7.30667,10.22695,6.86966,10.7595Q6.43264,11.292,6.02228,11.8453Q5.61192,12.3986,5.22921,12.9713Q4.84649,13.5441,4.49234,14.135Q4.13819,14.7259,3.81346,15.3334Q3.48873,15.9409,3.1942,16.5636Q2.89967,17.1864,2.63605,17.8228Q2.37243,18.4592,2.1403600000000003,19.1078Q1.90829,19.7564,1.70832,20.4156Q1.50835,21.0749,1.340967,21.7431Q1.173585,22.4113,1.039193,23.0869Q0.904801,23.7626,0.803723,24.444Q0.702645,25.1254,0.635124,25.811Q0.5676025,26.4965,0.5338013,27.1846Q0.5,27.8726,0.5,28.5615Q0.4999999999999988,29.6907,0.5907328000000001,30.8162Q0.681466,31.9418,0.8623449999999999,33.0564Q1.043224,34.171,1.313079,35.2675Q1.58293,36.364,1.94002,37.4353Q2.29711,38.5065,2.73912,39.5456Q3.18112,40.5847,3.7052,41.585Q4.22927,42.5852,4.83202,43.5401Q5.43476,44.495,6.11229,45.3983L4.24155,53.8168L12.0151,51.2256Q12.9088,51.8781,13.8512,52.4582Q14.7935,53.0383,15.7786,53.5424Q16.7637,54.0464,17.7855,54.4714Q18.8072,54.8963,19.8593,55.2395Q20.9113,55.5827,21.9871,55.8419Q23.0629,56.1012,24.1557,56.2749Q25.2486,56.4486,26.3517,56.5358Q27.4549,56.6229,28.5615,56.6229Z" fill-rule="evenodd" fill="#FD6324" fill-opacity="1"/><path d="M28.5615,56.1229Q33.8186,56.1229,38.7067,54.1878Q44.014,52.0867,48.0504,48.0504Q52.0867,44.0141,54.1878,38.7067Q56.1229,33.8186,56.1229,28.5615Q56.1229,23.3043,54.1878,18.4162Q52.0867,13.1089,48.0504,9.07257Q44.0141,5.03629,38.7067,2.93514Q33.8186,1,28.5615,1Q23.3043,1,18.4162,2.93514Q13.1088,5.03628,9.07257,9.07257Q5.03629,13.1089,2.93514,18.4162Q1,23.3043,1,28.5615Q1,37.7486,6.51229,45.0983L6.65027,45.2823L4.72964,53.9252L4.24155,53.8168L4.08343,53.3424L12.1016,50.6697L12.3099,50.8218Q19.571,56.123,28.5615,56.1229ZM28.5615,57.1229Q19.2449,57.1229,11.7203,51.6294L12.0151,51.2256L12.1732,51.6999L3.56189,54.5704L5.62419,45.2899L6.11229,45.3983L5.71229,45.6983Q0,38.082,0,28.5615Q0,23.1135,2.00535,18.0481Q4.18272,12.5482,8.365459999999999,8.365459999999999Q12.5482,4.182729999999999,18.0481,2.00535Q23.1136,0,28.5615,0Q34.0094,0,39.0748,2.00535Q44.5747,4.182729999999999,48.7575,8.365459999999999Q52.9402,12.5483,55.1176,18.0481Q57.1229,23.1136,57.1229,28.5615Q57.1229,34.0093,55.1176,39.0748Q52.9402,44.5747,48.7575,48.7575Q44.5747,52.9402,39.0748,55.1176Q34.0093,57.1229,28.5615,57.1229Z" fill="#000000" fill-opacity="1"/></g><g><ellipse cx="15.466103076934814" cy="25.755311489105225" rx="3.741528034210205" ry="4.676909923553467" fill="#000000" fill-opacity="1"/></g><g><ellipse cx="39.78604555130005" cy="25.755311489105225" rx="3.741528034210205" ry="4.676909923553467" fill="#000000" fill-opacity="1"/></g><g><path d="M21.078401565551758,39.65680694580078C19.97383156555176,39.65680694580078,19.078401565551758,40.55223694580078,19.078401565551758,41.65680694580078C19.078401565551758,42.761376945800784,19.97383156555176,43.65680694580078,21.078401565551758,43.65680694580078C21.078401565551758,43.65680694580078,21.078401565551758,39.65680694580078,21.078401565551758,39.65680694580078C21.078401565551758,39.65680694580078,21.078401565551758,39.65680694580078,21.078401565551758,39.65680694580078ZM36.044501565551755,43.65680694580078C37.14910156555176,43.65680694580078,38.044501565551755,42.761376945800784,38.044501565551755,41.65680694580078C38.044501565551755,40.55223694580078,37.14910156555176,39.65680694580078,36.044501565551755,39.65680694580078C36.044501565551755,39.65680694580078,36.044501565551755,43.65680694580078,36.044501565551755,43.65680694580078C36.044501565551755,43.65680694580078,36.044501565551755,43.65680694580078,36.044501565551755,43.65680694580078ZM21.078401565551758,43.65680694580078C21.078401565551758,43.65680694580078,36.044501565551755,43.65680694580078,36.044501565551755,43.65680694580078C36.044501565551755,43.65680694580078,36.044501565551755,39.65680694580078,36.044501565551755,39.65680694580078C36.044501565551755,39.65680694580078,21.078401565551758,39.65680694580078,21.078401565551758,39.65680694580078C21.078401565551758,39.65680694580078,21.078401565551758,43.65680694580078,21.078401565551758,43.65680694580078C21.078401565551758,43.65680694580078,21.078401565551758,43.65680694580078,21.078401565551758,43.65680694580078Z" fill="#000000" fill-opacity="1"/></g><g><g><path d="M22.94915008544922,41.286055475473404C22.94915008544922,40.457628475473406,23.620723085449217,39.786055475473404,24.44915008544922,39.786055475473404C24.44915008544922,39.786055475473404,32.67373008544922,39.786055475473404,32.67373008544922,39.786055475473404C33.502150085449216,39.786055475473404,34.17375008544922,40.457628475473406,34.17375008544922,41.286055475473404C34.17375008544922,41.286055475473404,34.17375008544922,48.01063547547341,34.17375008544922,48.01063547547341C34.17375008544922,49.6674954754734,32.83059008544922,51.010655475473406,31.17373008544922,51.010655475473406C31.17373008544922,51.010655475473406,25.94915008544922,51.010655475473406,25.94915008544922,51.010655475473406C24.29230008544922,51.010655475473406,22.94915008544922,49.6674954754734,22.94915008544922,48.01063547547341C22.94915008544922,48.01063547547341,22.94915008544922,41.286055475473404,22.94915008544922,41.286055475473404C22.94915008544922,41.286055475473404,22.94915008544922,41.286055475473404,22.94915008544922,41.286055475473404Z" fill="#D50B00" fill-opacity="1"/><path d="M22.44915008544922,41.286055475473404L22.44915008544922,48.01063547547341Q22.44915008544922,49.4603854754734,23.47427708544922,50.485555475473404Q24.499400085449217,51.510655475473406,25.94915008544922,51.510655475473406L31.17373008544922,51.510655475473406Q32.623480085449216,51.510655475473406,33.64865008544922,50.485555475473404Q34.67375008544922,49.4603854754734,34.67375008544922,48.01063547547341L34.67375008544922,41.286055475473404Q34.67375008544922,40.457628475473406,34.08795008544922,39.87183817547341Q33.502150085449216,39.286055475473404,32.67373008544922,39.286055475473404L24.44915008544922,39.286055475473404Q23.620723085449217,39.286055475473404,23.03493658544922,39.87184187547341Q22.44915008544922,40.457628475473406,22.44915008544922,41.286055475473404ZM24.18139008544922,49.7784154754734Q23.44915008544922,49.046175475473405,23.44915008544922,48.01063547547341L23.44915008544922,41.286055475473404Q23.44915008544922,40.87184547547341,23.742043085449218,40.5789484754734Q24.034940085449218,40.286055475473404,24.44915008544922,40.286055475473404L32.67373008544922,40.286055475473404Q33.08795008544922,40.286055475473404,33.38085008544922,40.5789524754734Q33.67375008544922,40.87184547547341,33.67375008544922,41.286055475473404L33.67375008544922,48.01063547547341Q33.67375008544922,49.046175475473405,32.94151008544922,49.7784154754734Q32.20927008544922,50.510655475473406,31.17373008544922,50.510655475473406L25.94915008544922,50.510655475473406Q24.913620085449217,50.510655475473406,24.18139008544922,49.7784154754734Z" fill-rule="evenodd" fill="#000000" fill-opacity="1"/></g><g><path d="M29.06147289276123,39.78606414794922C29.06147289276123,39.50992214794922,28.83761489276123,39.28606414794922,28.56147289276123,39.28606414794922C28.28533089276123,39.28606414794922,28.06147289276123,39.50992214794922,28.06147289276123,39.78606414794922C28.06147289276123,39.78606414794922,29.06147289276123,39.78606414794922,29.06147289276123,39.78606414794922C29.06147289276123,39.78606414794922,29.06147289276123,39.78606414794922,29.06147289276123,39.78606414794922ZM28.06147289276123,42.59221414794922C28.06147289276123,42.86835414794922,28.28533089276123,43.09221414794922,28.56147289276123,43.09221414794922C28.83761489276123,43.09221414794922,29.06147289276123,42.86835414794922,29.06147289276123,42.59221414794922C29.06147289276123,42.59221414794922,28.06147289276123,42.59221414794922,28.06147289276123,42.59221414794922C28.06147289276123,42.59221414794922,28.06147289276123,42.59221414794922,28.06147289276123,42.59221414794922ZM28.06147289276123,39.78606414794922C28.06147289276123,39.78606414794922,28.06147289276123,42.59221414794922,28.06147289276123,42.59221414794922C28.06147289276123,42.59221414794922,29.06147289276123,42.59221414794922,29.06147289276123,42.59221414794922C29.06147289276123,42.59221414794922,29.06147289276123,39.78606414794922,29.06147289276123,39.78606414794922C29.06147289276123,39.78606414794922,28.06147289276123,39.78606414794922,28.06147289276123,39.78606414794922C28.06147289276123,39.78606414794922,28.06147289276123,39.78606414794922,28.06147289276123,39.78606414794922Z" fill="#000000" fill-opacity="1"/></g></g><g><path d="M9.853826522827148,16.836884943237305C9.577684522827148,16.836884943237305,9.353826522827148,17.060744943237303,9.353826522827148,17.336884943237305C9.353826522827148,17.613024943237306,9.577684522827148,17.836884943237305,9.853826522827148,17.836884943237305C9.853826522827148,17.836884943237305,9.853826522827148,16.836884943237305,9.853826522827148,16.836884943237305C9.853826522827148,16.836884943237305,9.853826522827148,16.836884943237305,9.853826522827148,16.836884943237305ZM16.83024652282715,12.917218943237305C16.97231652282715,12.680427943237305,16.89553652282715,12.373298943237305,16.658746522827148,12.231224543237305C16.42195652282715,12.089149543237305,16.114826522827148,12.165932583237305,15.972756522827147,12.402722943237304C15.972756522827147,12.402722943237304,16.83024652282715,12.917218943237305,16.83024652282715,12.917218943237305C16.83024652282715,12.917218943237305,16.83024652282715,12.917218943237305,16.83024652282715,12.917218943237305ZM9.853826522827148,17.836884943237305C11.286996522827149,17.836884943237305,14.500426522827148,16.800244943237303,16.83024652282715,12.917218943237305C16.83024652282715,12.917218943237305,15.972756522827147,12.402722943237304,15.972756522827147,12.402722943237304C13.812736522827148,16.002754943237306,10.915006522827149,16.836884943237305,9.853826522827148,16.836884943237305C9.853826522827148,16.836884943237305,9.853826522827148,17.836884943237305,9.853826522827148,17.836884943237305C9.853826522827148,17.836884943237305,9.853826522827148,17.836884943237305,9.853826522827148,17.836884943237305Z" fill="#000000" fill-opacity="1"/></g><g transform="matrix(-1,0,0,1,93.66743469238281,0)"><path d="M47.333717346191406,16.836884943237305C47.057575346191406,16.836884943237305,46.833717346191406,17.060744943237303,46.833717346191406,17.336884943237305C46.833717346191406,17.613024943237306,47.057575346191406,17.836884943237305,47.333717346191406,17.836884943237305C47.333717346191406,17.836884943237305,47.333717346191406,16.836884943237305,47.333717346191406,16.836884943237305C47.333717346191406,16.836884943237305,47.333717346191406,16.836884943237305,47.333717346191406,16.836884943237305ZM54.310137346191404,12.917218943237305C54.45220734619141,12.680427943237305,54.37542734619141,12.373298943237305,54.13863734619141,12.231224543237305C53.9018473461914,12.089149543237305,53.59471734619141,12.165932583237305,53.452647346191405,12.402722943237304C53.452647346191405,12.402722943237304,54.310137346191404,12.917218943237305,54.310137346191404,12.917218943237305C54.310137346191404,12.917218943237305,54.310137346191404,12.917218943237305,54.310137346191404,12.917218943237305ZM47.333717346191406,17.836884943237305C48.7668873461914,17.836884943237305,51.980317346191406,16.800244943237303,54.310137346191404,12.917218943237305C54.310137346191404,12.917218943237305,53.452647346191405,12.402722943237304,53.452647346191405,12.402722943237304C51.29262734619141,16.002754943237306,48.39489734619141,16.836884943237305,47.333717346191406,16.836884943237305C47.333717346191406,16.836884943237305,47.333717346191406,17.836884943237305,47.333717346191406,17.836884943237305C47.333717346191406,17.836884943237305,47.333717346191406,17.836884943237305,47.333717346191406,17.836884943237305Z" fill="#000000" fill-opacity="1"/></g><g><path d="M58.47429255981445,41.65687150878907C58.72059255981445,44.46297150878906,56.60339255981445,47.269171508789064,52.869432559814456,47.269171508789064C49.19297255981445,47.269171508789064,47.07620155981445,44.46297150878906,47.28295915981445,41.65687150878907C47.487453559814455,38.88138150878906,50.72480255981445,32.67930150878906,52.80080255981446,30.502987008789063C52.839182559814454,30.462746878789062,52.89966255981445,30.462548508789062,52.93834255981445,30.502503408789064C55.04490255981445,32.67838150878906,58.23069255981446,38.88118150878906,58.47429255981445,41.65687150878907C58.47429255981445,41.65687150878907,58.47429255981445,41.65687150878907,58.47429255981445,41.65687150878907Z" fill="#95F6FC" fill-opacity="1"/><path d="M56.85169255981445,35.630251508789065Q54.96653255981445,31.878601508789064,53.29758255981445,30.154729508789064L53.297572559814455,30.154718508789063Q53.12049255981445,29.971804508789063,52.86774255981445,29.972674508789062Q52.61481255981445,29.973546508789063,52.43901255981445,30.157870508789063Q50.77312255981445,31.904251508789063,48.893652559814456,35.63003150878906Q46.94035955981445,39.50215150878906,46.784311559814455,41.62007150878906Q46.604989559814456,44.053871508789065,48.251113559814456,45.85277150878906Q50.00462255981445,47.769171508789064,52.869432559814456,47.769171508789064Q55.77553255981445,47.769171508789064,57.53289255981446,45.853271508789064Q59.186292559814454,44.050671508789065,58.97239255981445,41.61307150878906Q58.784992559814455,39.47764150878906,56.85169255981445,35.630251508789065ZM52.871692559814456,31.167506508789064Q51.43172255981445,32.81897150878906,49.78648255981445,36.080421508789065Q47.923003559814454,39.774501508789065,47.78160855981445,41.69357150878906Q47.633988559814455,43.697071508789065,48.98886255981445,45.177771508789064Q50.44505255981446,46.769171508789064,52.869432559814456,46.769171508789064Q55.33583255981445,46.769171508789064,56.79599255981445,45.17727150878906Q58.15169255981445,43.69937150878906,57.97619255981445,41.70057150878906Q57.805492559814454,39.755671508789064,55.958162559814454,36.07924150878906Q54.310462559814454,32.80016150878906,52.871692559814456,31.167506508789064Z" fill-rule="evenodd" fill="#000000" fill-opacity="1"/></g></g></svg>