<svg xmlns="http://www.w3.org/2000/svg" xmlns:xlink="http://www.w3.org/1999/xlink" fill="none" version="1.1" width="57.1229248046875" height="57.1229248046875" viewBox="0 0 57.1229248046875 57.1229248046875"><defs><filter id="master_svg0_0_725" filterUnits="objectBoundingBox" color-interpolation-filters="sRGB" x="-1" y="-1" width="7.612292289733887" height="4.806146144866943"><feFlood flood-opacity="0" result="BackgroundImageFix"/><feBlend mode="normal" in="SourceGraphic" in2="BackgroundImageFix" result="shape"/><feGaussianBlur stdDeviation="0.25" result="effect1_foregroundBlur"/></filter><filter id="master_svg1_0_729" filterUnits="objectBoundingBox" color-interpolation-filters="sRGB" x="-1" y="-1" width="7.612292289733887" height="4.806146144866943"><feFlood flood-opacity="0" result="BackgroundImageFix"/><feBlend mode="normal" in="SourceGraphic" in2="BackgroundImageFix" result="shape"/><feGaussianBlur stdDeviation="0.25" result="effect1_foregroundBlur"/></filter></defs><g><g><path d="M28.5615,56.6229Q29.2503,56.6229,29.9384,56.5891Q30.6264,56.5553,31.312,56.4878Q31.9975,56.4203,32.6789,56.3192Q33.3603,56.2181,34.036,56.0837Q34.7116,55.9493,35.3798,55.7819Q36.0481,55.6146,36.7073,55.4146Q37.3665,55.2146,38.0151,54.9826Q38.6637,54.7505,39.3001,54.4869Q39.9365,54.2232,40.5593,53.9287Q41.182,53.6342,41.7895,53.3095Q42.3971,52.9847,42.9879,52.6306Q43.5788,52.2764,44.1516,51.8937Q44.7243,51.511,45.2776,51.1006Q45.831,50.6903,46.3635,50.2533Q46.896,49.8162,47.4064,49.3536Q47.9168,48.891,48.4039,48.4039Q48.891,47.9168,49.3536,47.4064Q49.8162,46.896,50.2533,46.3635Q50.6903,45.831,51.1006,45.2776Q51.511,44.7243,51.8937,44.1516Q52.2764,43.5788,52.6306,42.9879Q52.9847,42.3971,53.3095,41.7895Q53.6342,41.182,53.9287,40.5593Q54.2232,39.9365,54.4869,39.3001Q54.7505,38.6637,54.9826,38.0151Q55.2146,37.3665,55.4146,36.7073Q55.6146,36.0481,55.782,35.3798Q55.9493,34.7116,56.0837,34.036Q56.2181,33.3603,56.3192,32.6789Q56.4203,31.9975,56.4878,31.312Q56.5553,30.6264,56.5891,29.9384Q56.6229,29.2503,56.6229,28.5615Q56.6229,27.8726,56.5891,27.1846Q56.5553,26.4965,56.4878,25.811Q56.4203,25.1254,56.3192,24.444Q56.2181,23.7626,56.0837,23.0869Q55.9493,22.4113,55.7819,21.7431Q55.6146,21.0749,55.4146,20.4156Q55.2146,19.7564,54.9826,19.1078Q54.7505,18.4592,54.4869,17.8228Q54.2232,17.1864,53.9287,16.5636Q53.6342,15.9409,53.3095,15.3334Q52.9847,14.7259,52.6306,14.135Q52.2764,13.5441,51.8937,12.9713Q51.511,12.3986,51.1006,11.8453Q50.6903,11.292,50.2533,10.7595Q49.8162,10.22695,49.3536,9.71654Q48.891,9.20612,48.4039,8.71901Q47.9168,8.23191,47.4064,7.76929Q46.896,7.30667,46.3635,6.86966Q45.831,6.43264,45.2776,6.02228Q44.7243,5.61192,44.1516,5.22921Q43.5788,4.84649,42.9879,4.49234Q42.3971,4.13819,41.7895,3.81346Q41.182,3.48873,40.5593,3.1942Q39.9365,2.89967,39.3001,2.63605Q38.6637,2.37243,38.0151,2.1403600000000003Q37.3665,1.90829,36.7073,1.70832Q36.0481,1.50835,35.3798,1.340967Q34.7116,1.173585,34.036,1.039193Q33.3603,0.904801,32.6789,0.803723Q31.9975,0.702645,31.312,0.635124Q30.6264,0.5676025,29.9384,0.5338013Q29.2503,0.5,28.5615,0.5Q27.8726,0.5,27.1846,0.5338013Q26.4965,0.5676025,25.811,0.635124Q25.1254,0.702645,24.444,0.803723Q23.7626,0.904801,23.0869,1.039193Q22.4113,1.173585,21.7431,1.340967Q21.0749,1.50835,20.4156,1.70832Q19.7564,1.90829,19.1078,2.1403600000000003Q18.4592,2.37243,17.8228,2.63605Q17.1864,2.89967,16.5636,3.1942Q15.9409,3.48873,15.3334,3.81346Q14.7259,4.13819,14.135,4.49234Q13.5441,4.84649,12.9713,5.22921Q12.3986,5.61192,11.8453,6.02228Q11.292,6.43264,10.7595,6.86966Q10.22695,7.30667,9.71654,7.76929Q9.20612,8.23191,8.71901,8.71901Q8.23191,9.20612,7.76929,9.71654Q7.30667,10.22695,6.86966,10.7595Q6.43264,11.292,6.02228,11.8453Q5.61192,12.3986,5.22921,12.9713Q4.84649,13.5441,4.49234,14.135Q4.13819,14.7259,3.81346,15.3334Q3.48873,15.9409,3.1942,16.5636Q2.89967,17.1864,2.63605,17.8228Q2.37243,18.4592,2.1403600000000003,19.1078Q1.90829,19.7564,1.70832,20.4156Q1.50835,21.0749,1.340967,21.7431Q1.173585,22.4113,1.039193,23.0869Q0.904801,23.7626,0.803723,24.444Q0.702645,25.1254,0.635124,25.811Q0.5676025,26.4965,0.5338013,27.1846Q0.5,27.8726,0.5,28.5615Q0.4999999999999988,29.6907,0.5907328000000001,30.8162Q0.681466,31.9418,0.8623449999999999,33.0564Q1.043224,34.171,1.313079,35.2675Q1.58293,36.364,1.94002,37.4353Q2.29711,38.5065,2.73912,39.5456Q3.18112,40.5847,3.7052,41.585Q4.22927,42.5852,4.83202,43.5401Q5.43476,44.495,6.11229,45.3983L4.24155,53.8168L12.0151,51.2256Q12.9088,51.8781,13.8512,52.4582Q14.7935,53.0383,15.7786,53.5424Q16.7637,54.0464,17.7855,54.4714Q18.8072,54.8963,19.8593,55.2395Q20.9113,55.5827,21.9871,55.8419Q23.0629,56.1012,24.1557,56.2749Q25.2486,56.4486,26.3517,56.5358Q27.4549,56.6229,28.5615,56.6229Z" fill-rule="evenodd" fill="#FFCF00" fill-opacity="1"/><path d="M28.5615,56.1229Q33.8186,56.1229,38.7067,54.1878Q44.014,52.0867,48.0504,48.0504Q52.0867,44.0141,54.1878,38.7067Q56.1229,33.8186,56.1229,28.5615Q56.1229,23.3043,54.1878,18.4162Q52.0867,13.1089,48.0504,9.07257Q44.0141,5.03629,38.7067,2.93514Q33.8186,1,28.5615,1Q23.3043,1,18.4162,2.93514Q13.1088,5.03628,9.07257,9.07257Q5.03629,13.1089,2.93514,18.4162Q1,23.3043,1,28.5615Q1,37.7486,6.51229,45.0983L6.65027,45.2823L4.72964,53.9252L4.24155,53.8168L4.08343,53.3424L12.1016,50.6697L12.3099,50.8218Q19.571,56.123,28.5615,56.1229ZM28.5615,57.1229Q19.2449,57.1229,11.7203,51.6294L12.0151,51.2256L12.1732,51.6999L3.56189,54.5704L5.62419,45.2899L6.11229,45.3983L5.71229,45.6983Q0,38.082,0,28.5615Q0,23.1135,2.00535,18.0481Q4.18272,12.5482,8.365459999999999,8.365459999999999Q12.5482,4.182729999999999,18.0481,2.00535Q23.1136,0,28.5615,0Q34.0094,0,39.0748,2.00535Q44.5747,4.182729999999999,48.7575,8.365459999999999Q52.9402,12.5483,55.1176,18.0481Q57.1229,23.1136,57.1229,28.5615Q57.1229,34.0093,55.1176,39.0748Q52.9402,44.5747,48.7575,48.7575Q44.5747,52.9402,39.0748,55.1176Q34.0093,57.1229,28.5615,57.1229Z" fill="#000000" fill-opacity="1"/></g><g filter="url(#master_svg0_0_725)"><ellipse cx="45.92905569076538" cy="33.13378596305847" rx="2.8061461448669434" ry="1.4030730724334717" fill="#FF8C71" fill-opacity="1"/></g><g><path d="M11.831480026245117,25.63909149169922C11.279195026245118,25.63909149169922,10.831480026245117,26.086806491699218,10.831480026245117,26.63909149169922C10.831480026245117,27.19137149169922,11.279195026245118,27.63909149169922,11.831480026245117,27.63909149169922C11.831480026245117,27.63909149169922,11.831480026245117,25.63909149169922,11.831480026245117,25.63909149169922C11.831480026245117,25.63909149169922,11.831480026245117,25.63909149169922,11.831480026245117,25.63909149169922ZM20.815350026245117,27.63909149169922C21.367580026245115,27.63909149169922,21.815380026245116,27.19137149169922,21.815380026245116,26.63909149169922C21.815380026245116,26.086806491699218,21.367580026245115,25.63909149169922,20.815350026245117,25.63909149169922C20.815350026245117,25.63909149169922,20.815350026245117,27.63909149169922,20.815350026245117,27.63909149169922C20.815350026245117,27.63909149169922,20.815350026245117,27.63909149169922,20.815350026245117,27.63909149169922ZM11.831480026245117,27.63909149169922C11.831480026245117,27.63909149169922,20.815350026245117,27.63909149169922,20.815350026245117,27.63909149169922C20.815350026245117,27.63909149169922,20.815350026245117,25.63909149169922,20.815350026245117,25.63909149169922C20.815350026245117,25.63909149169922,11.831480026245117,25.63909149169922,11.831480026245117,25.63909149169922C11.831480026245117,25.63909149169922,11.831480026245117,27.63909149169922,11.831480026245117,27.63909149169922C11.831480026245117,27.63909149169922,11.831480026245117,27.63909149169922,11.831480026245117,27.63909149169922Z" fill="#000000" fill-opacity="1"/></g><g><path d="M11.788381005371093,20.033810410766602C11.529812505371094,20.1307494107666,11.398785505371094,20.418944410766603,11.495724505371093,20.677515410766603C11.592663005371094,20.9360854107666,11.880858005371094,21.0671054107666,12.139427005371093,20.9701654107666C12.139427005371093,20.9701654107666,11.788381005371093,20.033810410766602,11.788381005371093,20.033810410766602C11.788381005371093,20.033810410766602,11.788381005371093,20.033810410766602,11.788381005371093,20.033810410766602ZM20.539218005371094,22.3893454107666C20.777158005371092,22.5294754107666,21.083648005371096,22.4501854107666,21.223788005371095,22.212235410766603C21.363918005371094,21.9742954107666,21.284618005371094,21.6677954107666,21.046678005371092,21.527665410766602C21.046678005371092,21.527665410766602,20.539218005371094,22.3893454107666,20.539218005371094,22.3893454107666C20.539218005371094,22.3893454107666,20.539218005371094,22.3893454107666,20.539218005371094,22.3893454107666ZM12.139427005371093,20.9701654107666C13.293188005371094,20.5376184107666,16.713538005371092,20.1362954107666,20.539218005371094,22.3893454107666C20.539218005371094,22.3893454107666,21.046678005371092,21.527665410766602,21.046678005371092,21.527665410766602C16.959668005371093,19.1207204107666,13.223698005371094,19.4957064107666,11.788381005371093,20.033810410766602C11.788381005371093,20.033810410766602,12.139427005371093,20.9701654107666,12.139427005371093,20.9701654107666C12.139427005371093,20.9701654107666,12.139427005371093,20.9701654107666,12.139427005371093,20.9701654107666Z" fill="#000000" fill-opacity="1"/></g><g><path d="M35.360192563232424,17.347545915527345C35.101671763232424,17.444605915527344,34.97078576323242,17.732865915527345,35.06785076323242,17.991385915527346C35.16491456323242,18.249905915527343,35.45317356323242,18.380795915527344,35.71169456323242,18.283735915527345C35.71169456323242,18.283735915527345,35.360192563232424,17.347545915527345,35.360192563232424,17.347545915527345C35.360192563232424,17.347545915527345,35.360192563232424,17.347545915527345,35.360192563232424,17.347545915527345ZM45.431008563232425,15.854605915527344C45.62760856323242,16.048465915527345,45.94420856323242,16.046195915527342,46.13810856323242,15.849535915527344C46.33190856323242,15.652885915527344,46.32970856323242,15.336315915527344,46.13300856323242,15.142455915527343C46.13300856323242,15.142455915527343,45.431008563232425,15.854605915527344,45.431008563232425,15.854605915527344C45.431008563232425,15.854605915527344,45.431008563232425,15.854605915527344,45.431008563232425,15.854605915527344ZM35.71169456323242,18.283735915527345C37.06178856323242,17.776825915527343,38.12211856323242,16.679035915527344,39.03604856323242,15.804335915527343C39.50876856323242,15.351905915527343,39.94377856323242,14.954265915527344,40.38519856323242,14.661695915527345C40.82197856323242,14.372185915527343,41.23696856323242,14.205005915527344,41.66583856323242,14.184275915527344C41.66583856323242,14.184275915527344,41.617568563232425,13.185446615527344,41.617568563232425,13.185446615527344C40.94992856323242,13.217711615527344,40.36140856323242,13.477743915527343,39.83272856323242,13.828159915527344C39.30866856323242,14.175508915527343,38.81624856323242,14.630495915527344,38.34461856323242,15.081885915527344C37.36984856323242,16.014815915527343,36.473808563232424,16.929425915527343,35.360192563232424,17.347545915527345C35.360192563232424,17.347545915527345,35.71169456323242,18.283735915527345,35.71169456323242,18.283735915527345C35.71169456323242,18.283735915527345,35.71169456323242,18.283735915527345,35.71169456323242,18.283735915527345ZM41.66583856323242,14.184275915527344C42.61695856323242,14.138316915527344,43.54874856323242,14.534105915527343,44.27285856323242,14.978185915527344C44.629478563232425,15.196875915527343,44.92257856323242,15.419195915527343,45.12590856323242,15.586425915527343C45.22730856323242,15.669825915527344,45.30570856323242,15.738945915527344,45.357808563232425,15.786275915527344C45.38380856323242,15.809915915527345,45.403208563232425,15.828075915527343,45.415608563232425,15.839785915527344C45.42170856323242,15.845645915527344,45.42620856323242,15.849885915527343,45.42870856323242,15.852395915527344C45.43000856323242,15.853655915527344,45.43090856323242,15.854475915527344,45.43130856323242,15.854845915527344C45.43150856323242,15.855035915527344,45.43150856323242,15.855105915527343,45.43150856323242,15.855065915527344C45.43150856323242,15.855045915527343,45.431408563232424,15.854995915527343,45.43130856323242,15.854915915527343C45.43130856323242,15.854885915527344,45.431208563232424,15.854805915527344,45.431208563232424,15.854785915527344C45.43110856323242,15.854695915527344,45.431008563232425,15.854605915527344,45.782008563232424,15.498525915527344C46.13300856323242,15.142455915527343,46.13290856323242,15.142345915527343,46.13280856323242,15.142225915527344C46.13270856323242,15.142175915527343,46.132608563232424,15.142055915527344,46.13250856323242,15.141955915527344C46.13230856323242,15.141765915527344,46.13210856323242,15.141545915527344,46.131808563232426,15.141285915527344C46.13130856323242,15.140785915527344,46.130708563232425,15.140165915527344,46.12990856323242,15.139425915527344C46.12840856323242,15.137955915527344,46.126408563232424,15.136025915527345,46.12400856323242,15.133645915527344C46.11910856323242,15.128905915527344,46.11230856323242,15.122375915527345,46.10370856323242,15.114195915527343C46.086408563232425,15.097845915527344,46.06180856323242,15.074865915527344,46.030308563232424,15.046225915527344C45.96730856323242,14.988985915527344,45.87650856323242,14.908965915527343,45.761108563232426,14.814055915527344C45.53080856323242,14.624655915527343,45.20000856323242,14.373685915527343,44.79564856323242,14.125716915527343C43.997848563232424,13.636464915527343,42.859488563232425,13.125428615527344,41.617568563232425,13.185446615527344C41.617568563232425,13.185446615527344,41.66583856323242,14.184275915527344,41.66583856323242,14.184275915527344C41.66583856323242,14.184275915527344,41.66583856323242,14.184275915527344,41.66583856323242,14.184275915527344Z" fill="#000000" fill-opacity="1"/></g><g filter="url(#master_svg1_0_729)"><ellipse cx="10.78918170928955" cy="32.55557322502136" rx="2.8061461448669434" ry="1.4030730724334717" fill="#FF8D6E" fill-opacity="1"/></g><g><ellipse cx="39.84908580780029" cy="25.755311489105225" rx="3.273837089538574" ry="4.676909923553467" fill="#000000" fill-opacity="1"/></g><g><path d="M21.525074005126953,40.198707580566406C20.972789005126952,40.198707580566406,20.525074005126953,40.64642258056641,20.525074005126953,41.198707580566406C20.525074005126953,41.75098758056641,20.972789005126952,42.198707580566406,21.525074005126953,42.198707580566406C21.525074005126953,42.198707580566406,21.525074005126953,40.198707580566406,21.525074005126953,40.198707580566406C21.525074005126953,40.198707580566406,21.525074005126953,40.198707580566406,21.525074005126953,40.198707580566406ZM34.571574005126955,42.198707580566406C35.12387400512695,42.198707580566406,35.571574005126955,41.75098758056641,35.571574005126955,41.198707580566406C35.571574005126955,40.64642258056641,35.12387400512695,40.198707580566406,34.571574005126955,40.198707580566406C34.571574005126955,40.198707580566406,34.571574005126955,42.198707580566406,34.571574005126955,42.198707580566406C34.571574005126955,42.198707580566406,34.571574005126955,42.198707580566406,34.571574005126955,42.198707580566406ZM21.525074005126953,42.198707580566406C21.525074005126953,42.198707580566406,34.571574005126955,42.198707580566406,34.571574005126955,42.198707580566406C34.571574005126955,42.198707580566406,34.571574005126955,40.198707580566406,34.571574005126955,40.198707580566406C34.571574005126955,40.198707580566406,21.525074005126953,40.198707580566406,21.525074005126953,40.198707580566406C21.525074005126953,40.198707580566406,21.525074005126953,42.198707580566406,21.525074005126953,42.198707580566406C21.525074005126953,42.198707580566406,21.525074005126953,42.198707580566406,21.525074005126953,42.198707580566406Z" fill="#000000" fill-opacity="1"/></g></g></svg>