<svg xmlns="http://www.w3.org/2000/svg" xmlns:xlink="http://www.w3.org/1999/xlink" fill="none" version="1.1" width="57.1229248046875" height="57.1229248046875" viewBox="0 0 57.1229248046875 57.1229248046875"><g><g transform="matrix(1,0,0,-1,0,113.245849609375)"><ellipse cx="28.56146240234375" cy="84.68438720703125" rx="28.06146240234375" ry="28.06146240234375" fill="#FF4D83" fill-opacity="1"/><ellipse cx="28.56146240234375" cy="84.68438720703125" rx="28.06146240234375" ry="28.06146240234375" fill-opacity="0" stroke-opacity="1" stroke="#000000" fill="none" stroke-width="1"/></g><g><g transform="matrix(1,0,0,-1,0,99.20044326782227)"><path d="M27.999731272888184,73.00872163391114Q28.287031272888186,73.00862163391113,28.574031272888185,72.99462163391114Q28.861031272888184,72.98052163391114,29.14693127288818,72.95232163391114Q29.432931272888183,72.92412163391113,29.71713127288818,72.88202163391114Q30.001331272888184,72.83982163391113,30.283131272888184,72.78382163391113Q30.56493127288818,72.72772163391113,30.84363127288818,72.65792163391113Q31.122331272888182,72.58812163391113,31.397331272888184,72.50472163391113Q31.672231272888183,72.42132163391113,31.942831272888185,72.32452163391113Q32.21333127288818,72.22772163391113,32.47873127288818,72.11772163391113Q32.744231272888186,72.00782163391113,33.00393127288818,71.88492163391113Q33.26373127288818,71.76212163391114,33.51713127288818,71.62662163391113Q33.770531272888185,71.49122163391112,34.016931272888186,71.34352163391114Q34.26333127288818,71.19582163391114,34.50223127288818,71.03612163391114Q34.74113127288818,70.87652163391112,34.971931272888185,70.70532163391113Q35.20273127288819,70.53422163391113,35.424831272888184,70.35192163391113Q35.64693127288818,70.16962163391113,35.85983127288819,69.97672163391113Q36.072731272888184,69.78372163391113,36.27593127288819,69.58062163391114Q36.47903127288818,69.37742163391113,36.672031272888184,69.16452163391114Q36.864931272888185,68.95162163391113,37.04723127288818,68.72952163391113Q37.22953127288818,68.50742163391114,37.400631272888184,68.27662163391113Q37.57183127288818,68.04582163391113,37.73143127288819,67.80692163391113Q37.89113127288819,67.56802163391113,38.03883127288819,67.32162163391114Q38.18653127288818,67.07522163391113,38.32193127288818,66.82182163391113Q38.457431272888186,66.56842163391113,38.580231272888184,66.30862163391113Q38.703131272888186,66.04892163391114,38.81303127288818,65.78342163391113Q38.92303127288818,65.51802163391113,39.01983127288818,65.24752163391113Q39.116631272888185,64.97692163391113,39.20003127288818,64.70202163391113Q39.28343127288818,64.42702163391114,39.35323127288818,64.14832163391114Q39.42303127288818,63.86962163391113,39.47913127288818,63.58782163391113Q39.53513127288818,63.30602163391113,39.57733127288819,63.02182163391113Q39.61943127288818,62.73762163391113,39.647631272888184,62.45162163391113Q39.67583127288818,62.16572163391113,39.68993127288819,61.878721633911134Q39.703931272888184,61.591721633911135,39.70403127288819,61.30442163391113Q39.703931272888184,61.01712163391113,39.68993127288819,60.73012163391113Q39.67583127288818,60.44312163391113,39.647631272888184,60.157221633911135Q39.61943127288818,59.87132163391114,39.57733127288819,59.58708163391113Q39.53513127288818,59.30287163391113,39.47913127288818,59.02106163391113Q39.42303127288818,58.739261633911134,39.35323127288818,58.46055163391113Q39.28343127288818,58.181841633911134,39.20003127288818,57.90689163391113Q39.116631272888185,57.63194163391113,39.01983127288818,57.36141163391113Q38.92303127288818,57.09088163391113,38.81303127288818,56.82543163391113Q38.703131272888186,56.559981633911136,38.580231272888184,56.300241633911135Q38.457431272888186,56.04051163391113,38.32193127288818,55.78711163391113Q38.18653127288818,55.533721633911135,38.03883127288819,55.28727163391113Q37.89113127288819,55.04083163391113,37.73143127288819,54.80193163391113Q37.57183127288818,54.56303163391113,37.400631272888184,54.332251633911135Q37.22953127288818,54.10147163391113,37.04723127288818,53.87936163391113Q36.864931272888185,53.65726163391113,36.672031272888184,53.44437163391113Q36.47903127288818,53.23148163391113,36.27593127288819,53.02831163391113Q36.072731272888184,52.82514163391113,35.85983127288819,52.632191633911134Q35.64693127288818,52.439231633911135,35.424831272888184,52.25696163391113Q35.20273127288819,52.07468163391113,34.971931272888185,51.90352163391113Q34.74113127288818,51.732371633911136,34.50223127288818,51.572741633911136Q34.26333127288818,51.413111633911136,34.016931272888186,51.26540163391113Q33.770531272888185,51.11768163391113,33.51713127288818,50.98224163391113Q33.26373127288818,50.846801633911134,33.00393127288818,50.723951633911135Q32.744231272888186,50.601101633911135,32.47873127288818,50.491152633911135Q32.21333127288818,50.38119863391113,31.942831272888185,50.284402633911135Q31.672231272888183,50.18760663391113,31.397331272888184,50.10420163391113Q31.122331272888182,50.02079663391113,30.84363127288818,49.95098263391113Q30.56493127288818,49.88116863391113,30.283131272888184,49.825114633911134Q30.001331272888184,49.769061633911136,29.71713127288818,49.72690263391113Q29.432931272888183,49.684743233911135,29.14693127288818,49.65658063391113Q28.861031272888184,49.62841813391113,28.574031272888185,49.61431993391113Q28.287031272888186,49.60022163391113,27.999731272888184,49.60022163391113Q27.712431272888182,49.60022163391113,27.425431272888183,49.61431993391113Q27.138431272888184,49.62841813391113,26.852531272888186,49.65658063391113Q26.566631272888184,49.684743233911135,26.282391272888184,49.72690263391113Q25.998181272888182,49.769061633911136,25.716371272888182,49.825114633911134Q25.434571272888185,49.88116863391113,25.15586127288818,49.95098263391113Q24.877151272888185,50.02079663391113,24.602201272888184,50.10420163391113Q24.327251272888184,50.18760663391113,24.056721272888183,50.284402633911135Q23.786191272888182,50.38119863391113,23.520741272888184,50.491152633911135Q23.255291272888183,50.601101633911135,22.995551272888186,50.723951633911135Q22.735821272888185,50.846801633911134,22.482421272888182,50.98224163391113Q22.229031272888186,51.11768163391113,21.982581272888183,51.26540163391113Q21.736141272888183,51.413111633911136,21.497241272888182,51.572741633911136Q21.258341272888185,51.732371633911136,21.027561272888185,51.90352163391113Q20.796781272888182,52.07468163391113,20.57467127288818,52.25696163391113Q20.352571272888184,52.439231633911135,20.139681272888183,52.632191633911134Q19.926791272888185,52.82514163391113,19.723621272888185,53.02831163391113Q19.520451272888184,53.23148163391113,19.327501272888185,53.44437163391113Q19.134541272888185,53.65726163391113,18.952271272888183,53.87936163391113Q18.769991272888184,54.10147163391113,18.598831272888184,54.332251633911135Q18.427681272888183,54.56303163391113,18.268051272888183,54.80193163391113Q18.108421272888183,55.04083163391113,17.960711272888183,55.28727163391113Q17.812991272888183,55.533721633911135,17.677551272888184,55.78711163391113Q17.542111272888185,56.04051163391113,17.419261272888182,56.300241633911135Q17.296411272888182,56.559981633911136,17.186462272888182,56.82543163391113Q17.076508272888184,57.09088163391113,16.979712272888182,57.36141163391113Q16.882916272888185,57.63194163391113,16.799511272888182,57.90689163391113Q16.716106272888183,58.181841633911134,16.646292272888182,58.46055163391113Q16.576478272888185,58.739261633911134,16.520424272888185,59.021071633911134Q16.464371272888183,59.30287163391113,16.422212272888185,59.58708163391113Q16.380052872888182,59.87132163391114,16.351890272888184,60.157221633911135Q16.323727772888184,60.44312163391113,16.309629572888184,60.73012163391113Q16.295531272888184,61.01712163391113,16.295531272888184,61.30442163391113Q16.295531272888184,61.591721633911135,16.309629572888184,61.878721633911134Q16.323727772888184,62.16572163391113,16.351890272888184,62.45162163391113Q16.380052872888182,62.73762163391113,16.422212272888185,63.02182163391113Q16.464371272888183,63.30602163391113,16.520424272888185,63.58782163391113Q16.576478272888185,63.86962163391113,16.646292272888182,64.14832163391114Q16.716106272888183,64.42702163391114,16.799511272888182,64.70202163391113Q16.882916272888185,64.97692163391113,16.979712272888182,65.24752163391113Q17.076508272888184,65.51802163391113,17.186462272888182,65.78342163391113Q17.296411272888182,66.04892163391114,17.419261272888182,66.30862163391113Q17.542111272888185,66.56842163391113,17.677551272888184,66.82182163391113Q17.812991272888183,67.07522163391113,17.960711272888183,67.32162163391114Q18.108421272888183,67.56802163391113,18.268051272888183,67.80692163391113Q18.427681272888183,68.04582163391113,18.598831272888184,68.27662163391113Q18.769991272888184,68.50742163391114,18.952271272888183,68.72952163391113Q19.134541272888185,68.95162163391113,19.327501272888185,69.16452163391114Q19.520451272888184,69.37742163391113,19.723621272888185,69.58062163391114Q19.926791272888185,69.78372163391113,20.139681272888183,69.97672163391113Q20.352571272888184,70.16962163391113,20.57467127288818,70.35192163391113Q20.796781272888182,70.53422163391113,21.027561272888185,70.70532163391113Q21.258341272888185,70.87652163391112,21.497241272888182,71.03612163391114Q21.736141272888183,71.19582163391114,21.982581272888183,71.34352163391114Q22.229031272888186,71.49122163391112,22.482421272888182,71.62662163391113Q22.735821272888185,71.76212163391114,22.995551272888186,71.88492163391113Q23.255291272888183,72.00782163391113,23.520741272888184,72.11772163391113Q23.786191272888182,72.22772163391113,24.056721272888183,72.32452163391113Q24.327251272888184,72.42132163391113,24.602201272888184,72.50472163391113Q24.877151272888185,72.58812163391113,25.15586127288818,72.65792163391113Q25.434571272888185,72.72772163391113,25.716381272888185,72.78382163391113Q25.998181272888182,72.83982163391113,26.282391272888184,72.88202163391114Q26.566631272888184,72.92412163391113,26.852531272888186,72.95232163391114Q27.138431272888184,72.98052163391114,27.425431272888183,72.99462163391114Q27.712431272888182,73.00862163391113,27.999731272888184,73.00872163391114ZM27.999931272888183,67.65482163391113Q28.155831272888186,67.65482163391113,28.311531272888182,67.64722163391113Q28.467231272888185,67.63952163391113,28.622331272888182,67.62422163391113Q28.777531272888183,67.60902163391114,28.931731272888186,67.58612163391113Q29.085931272888182,67.56322163391113,29.238831272888184,67.53282163391114Q29.391731272888183,67.50242163391113,29.542931272888183,67.46452163391113Q29.694131272888185,67.42662163391114,29.843331272888186,67.38142163391113Q29.992431272888183,67.33612163391113,30.139231272888182,67.28362163391114Q30.286031272888184,67.23112163391113,30.430031272888183,67.17142163391114Q30.574031272888185,67.11182163391113,30.715031272888183,67.04512163391114Q30.855931272888185,66.97852163391113,30.993431272888184,66.90502163391113Q31.130931272888184,66.83152163391114,31.26463127288818,66.75142163391114Q31.398331272888186,66.67122163391113,31.527931272888182,66.58462163391113Q31.657531272888185,66.49802163391114,31.782731272888185,66.40512163391114Q31.907931272888185,66.31232163391113,32.02853127288819,66.21342163391114Q32.14903127288818,66.11452163391112,32.264531272888185,66.00982163391113Q32.38003127288818,65.90512163391114,32.49023127288818,65.79492163391113Q32.60043127288819,65.68462163391114,32.70513127288818,65.56912163391114Q32.80983127288818,65.45362163391113,32.90873127288818,65.33312163391113Q33.00763127288818,65.21262163391113,33.10053127288818,65.08742163391113Q33.19333127288819,64.96222163391113,33.279931272888184,64.83262163391113Q33.36653127288818,64.70302163391113,33.44673127288819,64.56922163391113Q33.52683127288819,64.43552163391114,33.600331272888184,64.29802163391113Q33.67383127288818,64.16062163391113,33.740531272888184,64.01962163391113Q33.807131272888185,63.878721633911134,33.866831272888184,63.734721633911136Q33.92643127288818,63.59072163391113,33.97893127288818,63.44392163391113Q34.03153127288819,63.29712163391113,34.07673127288818,63.14792163391113Q34.12203127288818,62.998821633911135,34.159831272888184,62.84752163391113Q34.197731272888184,62.69632163391113,34.228131272888184,62.54342163391113Q34.258531272888185,62.390521633911135,34.281431272888184,62.23632163391113Q34.304331272888184,62.08212163391113,34.31963127288819,61.92702163391113Q34.334931272888184,61.771921633911134,34.34253127288818,61.61622163391113Q34.35023127288818,61.46042163391113,34.350131272888184,61.30462163391113Q34.35023127288818,61.14872163391114,34.34253127288818,60.993021633911134Q34.334931272888184,60.83732163391113,34.31963127288819,60.68212163391113Q34.304331272888184,60.52702163391113,34.281431272888184,60.37282163391113Q34.258531272888185,60.218621633911134,34.228131272888184,60.06572163391113Q34.197731272888184,59.912821633911136,34.159831272888184,59.76162163391113Q34.12203127288818,59.610321633911134,34.07673127288818,59.461191633911135Q34.03153127288819,59.31201163391113,33.97893127288818,59.16524163391114Q33.92643127288818,59.01846163391113,33.866831272888184,58.87444163391113Q33.807131272888185,58.73041163391113,33.740531272888184,58.58949163391113Q33.67383127288818,58.44857163391113,33.600331272888184,58.31108163391113Q33.52683127288819,58.17360163391113,33.44673127288819,58.03989163391113Q33.36653127288818,57.90618163391113,33.279931272888184,57.77656163391113Q33.19333127288819,57.64694163391113,33.10053127288818,57.52173163391113Q33.00763127288818,57.396521633911135,32.90873127288818,57.27601163391113Q32.80983127288818,57.15551163391113,32.70513127288818,57.04000163391113Q32.60043127288819,56.92449163391113,32.49023127288818,56.81426163391113Q32.38003127288818,56.704031633911136,32.264531272888185,56.59934163391113Q32.14903127288818,56.49465163391113,32.028431272888184,56.395761633911135Q31.907931272888185,56.296861633911135,31.782731272888185,56.20400163391113Q31.657531272888185,56.111131633911135,31.527931272888182,56.02453163391113Q31.398331272888186,55.93792163391113,31.26463127288818,55.85778163391113Q31.130931272888184,55.777631633911135,30.993431272888184,55.70415163391113Q30.855931272888185,55.63066163391113,30.715031272888183,55.564011633911136Q30.574031272888185,55.49736163391113,30.430031272888183,55.43770163391113Q30.286031272888184,55.37804163391113,30.139231272888182,55.32553163391113Q29.992431272888183,55.27301163391113,29.843331272888186,55.22776163391113Q29.694131272888185,55.18250163391113,29.542931272888183,55.144621633911136Q29.391731272888183,55.10675163391113,29.238831272888184,55.07633163391113Q29.085931272888182,55.045921633911135,28.931731272888186,55.02305163391113Q28.777531272888183,55.00017163391113,28.622331272888182,54.98489163391113Q28.467231272888185,54.969611633911136,28.311531272888182,54.96196163391113Q28.155831272888186,54.954321633911135,27.999931272888183,54.954321633911135Q27.844031272888184,54.954321633911135,27.688331272888185,54.96196163391113Q27.53263127288818,54.969611633911136,27.377531272888184,54.98489163391113Q27.222331272888184,55.00017163391113,27.068131272888184,55.02305163391113Q26.913931272888185,55.045921633911135,26.761031272888182,55.07633163391113Q26.608131272888183,55.10675163391113,26.456931272888184,55.144621633911136Q26.30573127288818,55.18250163391113,26.156531272888184,55.22776163391113Q26.007361272888183,55.27301163391113,25.860581272888183,55.32553163391113Q25.713801272888183,55.37804163391113,25.569781272888186,55.43770163391113Q25.425751272888185,55.49736163391113,25.284831272888184,55.564011633911136Q25.143911272888182,55.63066163391113,25.006431272888186,55.70415163391113Q24.868941272888186,55.777631633911135,24.735231272888186,55.85778163391113Q24.601521272888185,55.93792163391113,24.471901272888182,56.02453163391113Q24.342281272888183,56.11114163391113,24.217071272888184,56.20400163391113Q24.091861272888185,56.296861633911135,23.971351272888185,56.395761633911135Q23.850851272888185,56.49465163391113,23.735341272888185,56.59934163391113Q23.619841272888184,56.704031633911136,23.509601272888183,56.81426163391113Q23.39937127288818,56.92449163391113,23.294681272888184,57.04000163391113Q23.189991272888182,57.15551163391113,23.09110127288818,57.27601163391113Q22.992201272888185,57.396521633911135,22.899341272888183,57.52173163391113Q22.80647127288818,57.64694163391113,22.719871272888184,57.77656163391113Q22.633261272888184,57.90618163391113,22.553121272888184,58.03989163391113Q22.472971272888184,58.17360163391113,22.399491272888184,58.31108163391113Q22.326001272888185,58.44857163391113,22.259351272888182,58.58949163391113Q22.192701272888183,58.73041163391113,22.133041272888185,58.87444163391113Q22.073381272888184,59.01846163391113,22.020871272888183,59.16524163391114Q21.968351272888185,59.31201163391113,21.923101272888182,59.461191633911135Q21.877841272888183,59.610321633911134,21.839971272888185,59.76162163391113Q21.802091272888184,59.912821633911136,21.771671272888184,60.06572163391113Q21.741261272888185,60.218621633911134,21.718391272888184,60.37282163391113Q21.695511272888183,60.52702163391113,21.680231272888182,60.68212163391113Q21.66495127288818,60.83732163391113,21.657311272888183,60.993021633911134Q21.64966127288818,61.14872163391114,21.64966127288818,61.30462163391113Q21.64966127288818,61.46042163391113,21.657311272888183,61.61622163391113Q21.66495127288818,61.771921633911134,21.680231272888182,61.92702163391113Q21.695511272888183,62.08212163391113,21.718391272888184,62.23632163391113Q21.741261272888185,62.390521633911135,21.771671272888184,62.54342163391113Q21.802091272888184,62.69632163391113,21.839971272888185,62.84752163391113Q21.877841272888183,62.998821633911135,21.923101272888182,63.14792163391113Q21.968351272888185,63.29712163391113,22.020871272888183,63.44392163391113Q22.073381272888184,63.59072163391113,22.133041272888185,63.734721633911136Q22.192701272888183,63.878721633911134,22.259351272888182,64.01962163391113Q22.326001272888185,64.16062163391113,22.399491272888184,64.29802163391113Q22.472971272888184,64.43552163391114,22.553121272888184,64.56922163391113Q22.633261272888184,64.70302163391113,22.719871272888184,64.83262163391113Q22.80647127288818,64.96222163391113,22.899341272888183,65.08742163391113Q22.992201272888185,65.21262163391113,23.09110127288818,65.33312163391113Q23.189991272888182,65.45362163391113,23.294681272888184,65.56912163391114Q23.39937127288818,65.68462163391114,23.509601272888183,65.79492163391113Q23.619841272888184,65.90512163391114,23.735341272888185,66.00982163391113Q23.850851272888185,66.11452163391112,23.971351272888185,66.21342163391114Q24.091861272888185,66.31232163391113,24.217071272888184,66.40512163391114Q24.342281272888183,66.49802163391114,24.471901272888182,66.58462163391113Q24.601521272888185,66.67122163391113,24.735231272888186,66.75142163391114Q24.868941272888186,66.83152163391114,25.006421272888183,66.90502163391113Q25.143911272888182,66.97852163391113,25.284831272888184,67.04512163391114Q25.425751272888185,67.11182163391113,25.569781272888186,67.17142163391114Q25.713801272888183,67.23112163391113,25.860581272888183,67.28362163391114Q26.007361272888183,67.33612163391113,26.156531272888184,67.38142163391113Q26.30573127288818,67.42662163391114,26.456931272888184,67.46452163391113Q26.608131272888183,67.50242163391113,26.761031272888182,67.53282163391114Q26.913931272888185,67.56322163391113,27.068131272888184,67.58612163391113Q27.222331272888184,67.60902163391114,27.377531272888184,67.62422163391113Q27.53263127288818,67.63952163391113,27.688331272888185,67.64722163391113Q27.844031272888184,67.65482163391113,27.999931272888183,67.65482163391113Z" fill-rule="evenodd" fill="#FFFFFF" fill-opacity="1"/></g><g transform="matrix(0,1,-1,0,41.036871671676636,-17.96247410774231)"><path d="M30.999672889709473,11.537198781967163C30.17124588970947,11.537198781967163,29.499672889709473,12.208771781967164,29.499672889709473,13.037198781967163C29.499672889709473,13.865628781967164,30.17124588970947,14.537198781967163,30.999672889709473,14.537198781967163C30.999672889709473,14.537198781967163,30.999672889709473,11.537198781967163,30.999672889709473,11.537198781967163C30.999672889709473,11.537198781967163,30.999672889709473,11.537198781967163,30.999672889709473,11.537198781967163ZM46.523672889709474,14.537198781967163C47.352072889709476,14.537198781967163,48.023672889709474,13.865628781967164,48.023672889709474,13.037198781967163C48.023672889709474,12.208771781967164,47.352072889709476,11.537198781967163,46.523672889709474,11.537198781967163C46.523672889709474,11.537198781967163,46.523672889709474,14.537198781967163,46.523672889709474,14.537198781967163C46.523672889709474,14.537198781967163,46.523672889709474,14.537198781967163,46.523672889709474,14.537198781967163ZM30.999672889709473,14.537198781967163C30.999672889709473,14.537198781967163,46.523672889709474,14.537198781967163,46.523672889709474,14.537198781967163C46.523672889709474,14.537198781967163,46.523672889709474,11.537198781967163,46.523672889709474,11.537198781967163C46.523672889709474,11.537198781967163,30.999672889709473,11.537198781967163,30.999672889709473,11.537198781967163C30.999672889709473,11.537198781967163,30.999672889709473,14.537198781967163,30.999672889709473,14.537198781967163C30.999672889709473,14.537198781967163,30.999672889709473,14.537198781967163,30.999672889709473,14.537198781967163Z" fill="#FFFFFF" fill-opacity="1"/></g><g><path d="M17.278743562532426,18.121239863891603C16.595502462532426,18.589729863891602,16.421412562532424,19.5233898638916,16.889902562532424,20.206619863891603C17.358389562532423,20.889819863891603,18.292047562532424,21.063919863891602,18.975277562532426,20.5954598638916C18.975277562532426,20.5954598638916,17.278743562532426,18.121239863891603,17.278743562532426,18.121239863891603C17.278743562532426,18.121239863891603,17.278743562532426,18.121239863891603,17.278743562532426,18.121239863891603ZM28.012467562532425,12.580029863891601C28.012467562532425,12.580029863891601,28.870667562532425,11.349819863891602,28.870667562532425,11.349819863891602C28.870667562532425,11.349819863891602,28.019867562532426,10.756219863891602,28.019867562532426,10.756219863891602C28.019867562532426,10.756219863891602,27.164167562532427,11.342919863891602,27.164167562532427,11.342919863891602C27.164167562532427,11.342919863891602,28.012467562532425,12.580029863891601,28.012467562532425,12.580029863891601C28.012467562532425,12.580029863891601,28.012467562532425,12.580029863891601,28.012467562532425,12.580029863891601ZM36.87016756253243,20.588559863891604C37.549567562532424,21.062519863891602,38.48466756253242,20.896019863891603,38.958667562532426,20.216599863891602C39.43266756253243,19.537179863891602,39.26606756253243,18.6021398638916,38.586667562532426,18.1281498638916C38.586667562532426,18.1281498638916,36.87016756253243,20.588559863891604,36.87016756253243,20.588559863891604C36.87016756253243,20.588559863891604,36.87016756253243,20.588559863891604,36.87016756253243,20.588559863891604ZM18.975277562532426,20.5954598638916C18.975277562532426,20.5954598638916,28.860667562532427,13.817139863891601,28.860667562532427,13.817139863891601C28.860667562532427,13.817139863891601,27.164167562532427,11.342919863891602,27.164167562532427,11.342919863891602C27.164167562532427,11.342919863891602,17.278743562532426,18.121239863891603,17.278743562532426,18.121239863891603C17.278743562532426,18.121239863891603,18.975277562532426,20.5954598638916,18.975277562532426,20.5954598638916C18.975277562532426,20.5954598638916,18.975277562532426,20.5954598638916,18.975277562532426,20.5954598638916ZM27.154267562532425,13.810239863891601C27.154267562532425,13.810239863891601,36.87016756253243,20.588559863891604,36.87016756253243,20.588559863891604C36.87016756253243,20.588559863891604,38.586667562532426,18.1281498638916,38.586667562532426,18.1281498638916C38.586667562532426,18.1281498638916,28.870667562532425,11.349819863891602,28.870667562532425,11.349819863891602C28.870667562532425,11.349819863891602,27.154267562532425,13.810239863891601,27.154267562532425,13.810239863891601C27.154267562532425,13.810239863891601,27.154267562532425,13.810239863891601,27.154267562532425,13.810239863891601Z" fill="#FFFFFF" fill-opacity="1"/></g></g></g></svg>