<svg xmlns="http://www.w3.org/2000/svg" xmlns:xlink="http://www.w3.org/1999/xlink" fill="none" version="1.1" width="57.1229248046875" height="57.1229248046875" viewBox="0 0 57.1229248046875 57.1229248046875"><g><g><path d="M28.5615,56.6229Q29.2503,56.6229,29.9384,56.5891Q30.6264,56.5553,31.312,56.4878Q31.9975,56.4203,32.6789,56.3192Q33.3603,56.2181,34.036,56.0837Q34.7116,55.9493,35.3798,55.7819Q36.0481,55.6146,36.7073,55.4146Q37.3665,55.2146,38.0151,54.9826Q38.6637,54.7505,39.3001,54.4869Q39.9365,54.2232,40.5593,53.9287Q41.182,53.6342,41.7895,53.3095Q42.3971,52.9847,42.9879,52.6306Q43.5788,52.2764,44.1516,51.8937Q44.7243,51.511,45.2776,51.1006Q45.831,50.6903,46.3635,50.2533Q46.896,49.8162,47.4064,49.3536Q47.9168,48.891,48.4039,48.4039Q48.891,47.9168,49.3536,47.4064Q49.8162,46.896,50.2533,46.3635Q50.6903,45.831,51.1006,45.2776Q51.511,44.7243,51.8937,44.1516Q52.2764,43.5788,52.6306,42.9879Q52.9847,42.3971,53.3095,41.7895Q53.6342,41.182,53.9287,40.5593Q54.2232,39.9365,54.4869,39.3001Q54.7505,38.6637,54.9826,38.0151Q55.2146,37.3665,55.4146,36.7073Q55.6146,36.0481,55.782,35.3798Q55.9493,34.7116,56.0837,34.036Q56.2181,33.3603,56.3192,32.6789Q56.4203,31.9975,56.4878,31.312Q56.5553,30.6264,56.5891,29.9384Q56.6229,29.2503,56.6229,28.5615Q56.6229,27.8726,56.5891,27.1846Q56.5553,26.4965,56.4878,25.811Q56.4203,25.1254,56.3192,24.444Q56.2181,23.7626,56.0837,23.0869Q55.9493,22.4113,55.7819,21.7431Q55.6146,21.0749,55.4146,20.4156Q55.2146,19.7564,54.9826,19.1078Q54.7505,18.4592,54.4869,17.8228Q54.2232,17.1864,53.9287,16.5636Q53.6342,15.9409,53.3095,15.3334Q52.9847,14.7259,52.6306,14.135Q52.2764,13.5441,51.8937,12.9713Q51.511,12.3986,51.1006,11.8453Q50.6903,11.292,50.2533,10.7595Q49.8162,10.22695,49.3536,9.71654Q48.891,9.20612,48.4039,8.71901Q47.9168,8.23191,47.4064,7.76929Q46.896,7.30667,46.3635,6.86966Q45.831,6.43264,45.2776,6.02228Q44.7243,5.61192,44.1516,5.22921Q43.5788,4.84649,42.9879,4.49234Q42.3971,4.13819,41.7895,3.81346Q41.182,3.48873,40.5593,3.1942Q39.9365,2.89967,39.3001,2.63605Q38.6637,2.37243,38.0151,2.1403600000000003Q37.3665,1.90829,36.7073,1.70832Q36.0481,1.50835,35.3798,1.340967Q34.7116,1.173585,34.036,1.039193Q33.3603,0.904801,32.6789,0.803723Q31.9975,0.702645,31.312,0.635124Q30.6264,0.5676025,29.9384,0.5338013Q29.2503,0.5,28.5615,0.5Q27.8726,0.5,27.1846,0.5338013Q26.4965,0.5676025,25.811,0.635124Q25.1254,0.702645,24.444,0.803723Q23.7626,0.904801,23.0869,1.039193Q22.4113,1.173585,21.7431,1.340967Q21.0749,1.50835,20.4156,1.70832Q19.7564,1.90829,19.1078,2.1403600000000003Q18.4592,2.37243,17.8228,2.63605Q17.1864,2.89967,16.5636,3.1942Q15.9409,3.48873,15.3334,3.81346Q14.7259,4.13819,14.135,4.49234Q13.5441,4.84649,12.9713,5.22921Q12.3986,5.61192,11.8453,6.02228Q11.292,6.43264,10.7595,6.86966Q10.22695,7.30667,9.71654,7.76929Q9.20612,8.23191,8.71901,8.71901Q8.23191,9.20612,7.76929,9.71654Q7.30667,10.22695,6.86966,10.7595Q6.43264,11.292,6.02228,11.8453Q5.61192,12.3986,5.22921,12.9713Q4.84649,13.5441,4.49234,14.135Q4.13819,14.7259,3.81346,15.3334Q3.48873,15.9409,3.1942,16.5636Q2.89967,17.1864,2.63605,17.8228Q2.37243,18.4592,2.1403600000000003,19.1078Q1.90829,19.7564,1.70832,20.4156Q1.50835,21.0749,1.340967,21.7431Q1.173585,22.4113,1.039193,23.0869Q0.904801,23.7626,0.803723,24.444Q0.702645,25.1254,0.635124,25.811Q0.5676025,26.4965,0.5338013,27.1846Q0.5,27.8726,0.5,28.5615Q0.4999999999999988,29.6907,0.5907328000000001,30.8162Q0.681466,31.9418,0.8623449999999999,33.0564Q1.043224,34.171,1.313079,35.2675Q1.58293,36.364,1.94002,37.4353Q2.29711,38.5065,2.73912,39.5456Q3.18112,40.5847,3.7052,41.585Q4.22927,42.5852,4.83202,43.5401Q5.43476,44.495,6.11229,45.3983L4.24155,53.8168L12.0151,51.2256Q12.9088,51.8781,13.8512,52.4582Q14.7935,53.0383,15.7786,53.5424Q16.7637,54.0464,17.7855,54.4714Q18.8072,54.8963,19.8593,55.2395Q20.9113,55.5827,21.9871,55.8419Q23.0629,56.1012,24.1557,56.2749Q25.2486,56.4486,26.3517,56.5358Q27.4549,56.6229,28.5615,56.6229Z" fill-rule="evenodd" fill="#FFCF00" fill-opacity="1"/><path d="M28.5615,56.1229Q33.8186,56.1229,38.7067,54.1878Q44.014,52.0867,48.0504,48.0504Q52.0867,44.0141,54.1878,38.7067Q56.1229,33.8186,56.1229,28.5615Q56.1229,23.3043,54.1878,18.4162Q52.0867,13.1089,48.0504,9.07257Q44.0141,5.03629,38.7067,2.93514Q33.8186,1,28.5615,1Q23.3043,1,18.4162,2.93514Q13.1088,5.03628,9.07257,9.07257Q5.03629,13.1089,2.93514,18.4162Q1,23.3043,1,28.5615Q1,37.7486,6.51229,45.0983L6.65027,45.2823L4.72964,53.9252L4.24155,53.8168L4.08343,53.3424L12.1016,50.6697L12.3099,50.8218Q19.571,56.123,28.5615,56.1229ZM28.5615,57.1229Q19.2449,57.1229,11.7203,51.6294L12.0151,51.2256L12.1732,51.6999L3.56189,54.5704L5.62419,45.2899L6.11229,45.3983L5.71229,45.6983Q0,38.082,0,28.5615Q0,23.1135,2.00535,18.0481Q4.18272,12.5482,8.365459999999999,8.365459999999999Q12.5482,4.182729999999999,18.0481,2.00535Q23.1136,0,28.5615,0Q34.0094,0,39.0748,2.00535Q44.5747,4.182729999999999,48.7575,8.365459999999999Q52.9402,12.5483,55.1176,18.0481Q57.1229,23.1136,57.1229,28.5615Q57.1229,34.0093,55.1176,39.0748Q52.9402,44.5747,48.7575,48.7575Q44.5747,52.9402,39.0748,55.1176Q34.0093,57.1229,28.5615,57.1229Z" fill="#000000" fill-opacity="1"/></g><g><path d="M50.99956625976563,50.38715830932617C51.16376625976562,52.56974830932617,49.752266259765626,54.75224830932617,47.262966259765626,54.75224830932617C44.81201625976563,54.75224830932617,42.59217625976562,52.88134830932617,42.59217625976562,51.01063830932617C42.59217625976562,49.139868309326175,42.59217625976562,49.139868309326175,41.65679625976563,47.26910830932617C40.75384625976562,45.463198309326174,37.23594025976563,42.78574730932617,36.99310550976563,42.60227130932617C36.98688080976562,42.59756830932617,36.988279427765626,42.58900630932617,36.995565309765624,42.58621630932617C37.29432825976563,42.47183130932617,41.81401625976562,40.81606830932617,46.33370625976563,43.52778830932617C51.010566259765625,46.33383830932617,50.92166625976562,49.35173830932617,50.99956625976563,50.38715830932617C50.99956625976563,50.38715830932617,50.99956625976563,50.38715830932617,50.99956625976563,50.38715830932617Z" fill="#95F6FC" fill-opacity="1"/><path d="M50.734866259765624,47.18449830932617Q49.56786625976562,44.88515830932617,46.59094625976562,43.099038309326176Q43.61641625976563,41.314386309326174,40.056056259765626,41.49787630932617Q38.18840625976563,41.59412930932617,36.81675825976563,42.119282309326174Q36.54094225976562,42.22490230932617,36.49529925976562,42.51610330932617Q36.44811025976563,42.81717330932617,36.69168725976562,43.001208309326174Q40.34335625976563,45.76025830932617,41.20958625976562,47.49271830932617Q41.886576259765626,48.84669830932617,41.99018625976562,49.26113830932617Q42.09217625976562,49.66911830932617,42.09217625976562,51.01063830932617Q42.09217625976562,52.66694830932617,43.69270625976563,53.97064830932617Q45.26617625976563,55.25224830932617,47.262966259765626,55.25224830932617Q49.296766259765626,55.25224830932617,50.519366259765626,53.69724830932617Q51.64256625976562,52.26874830932617,51.498166259765625,50.34964830932617Q51.494066259765624,50.295178309326175,51.48626625976563,50.163928309326174Q51.38476625976563,48.46502830932617,50.734866259765624,47.18449830932617ZM40.10752625976563,42.49655130932617Q43.36339625976562,42.328753309326174,46.076466259765624,43.95653830932617Q48.80646625976563,45.59450830932617,49.843166259765624,47.63707830932617Q50.39896625976563,48.73219830932617,50.488066259765624,50.22353830932617Q50.496266259765626,50.362468309326175,50.500966259765626,50.42466830932617Q50.61616625976563,51.95618830932617,49.73326625976563,53.07914830932617Q48.81096625976562,54.25224830932617,47.262966259765626,54.25224830932617Q45.62189625976563,54.25224830932617,44.32423625976563,53.195248309326175Q43.09217625976562,52.19174830932617,43.09217625976562,51.01063830932617Q43.09217625976562,49.54600830932617,42.96032625976562,49.01860830932617Q42.83008625976562,48.49765830932617,42.104006259765626,47.04549830932617Q41.231716259765626,45.300908309326175,38.04502625976563,42.78286530932617Q38.96842625976562,42.555256309326175,40.10752625976563,42.49655130932617Z" fill-rule="evenodd" fill="#000000" fill-opacity="1"/></g><g><path d="M8.518452175811767,24.51990202392578C8.352767475811767,24.74082202392578,8.397538475811768,25.05422202392578,8.618452175811768,25.21990202392578C8.839366175811767,25.38559202392578,9.152767175811768,25.34082202392578,9.318452175811768,25.119902023925782C9.318452175811768,25.119902023925782,8.518452175811767,24.51990202392578,8.518452175811767,24.51990202392578C8.518452175811767,24.51990202392578,8.518452175811767,24.51990202392578,8.518452175811767,24.51990202392578ZM16.303453175811768,22.50405202392578C16.57423317581177,22.55820202392578,16.837643175811767,22.38260202392578,16.891803175811766,22.111819023925783C16.945953175811766,21.84103902392578,16.770343175811767,21.57762602392578,16.499563175811765,21.523471023925783C16.499563175811765,21.523471023925783,16.303453175811768,22.50405202392578,16.303453175811768,22.50405202392578C16.303453175811768,22.50405202392578,16.303453175811768,22.50405202392578,16.303453175811768,22.50405202392578ZM9.318452175811768,25.119902023925782C10.187223175811768,23.96154202392578,12.819333175811767,21.80722702392578,16.303453175811768,22.50405202392578C16.303453175811768,22.50405202392578,16.499563175811765,21.523471023925783,16.499563175811765,21.523471023925783C12.500633175811767,20.72368402392578,9.520443175811767,23.18392202392578,8.518452175811767,24.51990202392578C8.518452175811767,24.51990202392578,9.318452175811768,25.119902023925782,9.318452175811768,25.119902023925782C9.318452175811768,25.119902023925782,9.318452175811768,25.119902023925782,9.318452175811768,25.119902023925782Z" fill="#000000" fill-opacity="1"/></g><g transform="matrix(-1,0,0,1,103.02132415771484,0)"><path d="M51.61069107885742,24.51990202392578C51.44500637885742,24.74082202392578,51.48977737885742,25.05422202392578,51.71069107885742,25.21990202392578C51.93160507885742,25.38559202392578,52.24500607885742,25.34082202392578,52.410691078857425,25.119902023925782C52.410691078857425,25.119902023925782,51.61069107885742,24.51990202392578,51.61069107885742,24.51990202392578C51.61069107885742,24.51990202392578,51.61069107885742,24.51990202392578,51.61069107885742,24.51990202392578ZM59.39569207885742,22.50405202392578C59.666472078857424,22.55820202392578,59.92988207885742,22.38260202392578,59.98404207885742,22.111819023925783C60.03819207885742,21.84103902392578,59.86258207885742,21.57762602392578,59.59180207885742,21.523471023925783C59.59180207885742,21.523471023925783,59.39569207885742,22.50405202392578,59.39569207885742,22.50405202392578C59.39569207885742,22.50405202392578,59.39569207885742,22.50405202392578,59.39569207885742,22.50405202392578ZM52.410691078857425,25.119902023925782C53.27946207885742,23.96154202392578,55.91157207885742,21.80722702392578,59.39569207885742,22.50405202392578C59.39569207885742,22.50405202392578,59.59180207885742,21.523471023925783,59.59180207885742,21.523471023925783C55.592872078857425,20.72368402392578,52.612682078857425,23.18392202392578,51.61069107885742,24.51990202392578C51.61069107885742,24.51990202392578,52.410691078857425,25.119902023925782,52.410691078857425,25.119902023925782C52.410691078857425,25.119902023925782,52.410691078857425,25.119902023925782,52.410691078857425,25.119902023925782Z" fill="#000000" fill-opacity="1"/></g><g transform="matrix(-0.9760043621063232,0.2177509367465973,0.21775098145008087,0.9760043621063232,41.34354235270234,-4.5559590322911845)"><path d="M26.00176977783203,32.28534715332031C25.582449777832032,31.925930153320312,24.951145777832032,31.974492153320313,24.591722777832032,32.39381715332031C24.232299777832033,32.813147153320315,24.28085937783203,33.44444715332031,24.700188777832032,33.80386715332031C24.700188777832032,33.80386715332031,26.00176977783203,32.28534715332031,26.00176977783203,32.28534715332031C26.00176977783203,32.28534715332031,26.00176977783203,32.28534715332031,26.00176977783203,32.28534715332031ZM38.270159777832035,32.76001715332031C38.62955977783203,32.34069715332031,38.58105977783203,31.709393153320313,38.16175977783203,31.349970153320314C37.742359777832036,30.990547153320314,37.11105977783203,31.03910675332031,36.75165977783203,31.458436153320314C36.75165977783203,31.458436153320314,38.270159777832035,32.76001715332031,38.270159777832035,32.76001715332031C38.270159777832035,32.76001715332031,38.270159777832035,32.76001715332031,38.270159777832035,32.76001715332031ZM24.700188777832032,33.80386715332031C25.912969777832032,34.843387153320315,28.021739777832032,36.030597153320315,30.48122977783203,36.23917715332031C33.00333977783203,36.45306715332031,35.81315977783203,35.62654715332031,38.270159777832035,32.76001715332031C38.270159777832035,32.76001715332031,36.75165977783203,31.458436153320314,36.75165977783203,31.458436153320314C34.71885977783203,33.830047153320315,32.54001977783203,34.40659715332031,30.65023977783203,34.24633715332031C28.697849777832033,34.08075715332031,26.97154977783203,33.11659715332031,26.00176977783203,32.28534715332031C26.00176977783203,32.28534715332031,24.700188777832032,33.80386715332031,24.700188777832032,33.80386715332031C24.700188777832032,33.80386715332031,24.700188777832032,33.80386715332031,24.700188777832032,33.80386715332031Z" fill="#000000" fill-opacity="1"/></g><g transform="matrix(0.9760043621063232,0.21775098145008087,-0.21775098145008087,0.9760043621063232,7.637303609452147,-7.087107616702724)"><path d="M37.625816103515625,32.28534715332031C37.206496103515626,31.925930153320312,36.575192103515626,31.974492153320313,36.215769103515626,32.39381715332031C35.85634610351563,32.813147153320315,35.904905703515624,33.44444715332031,36.324235103515626,33.80386715332031C36.324235103515626,33.80386715332031,37.625816103515625,32.28534715332031,37.625816103515625,32.28534715332031C37.625816103515625,32.28534715332031,37.625816103515625,32.28534715332031,37.625816103515625,32.28534715332031ZM49.89420610351563,32.76001715332031C50.25360610351562,32.34069715332031,50.205106103515625,31.709393153320313,49.785806103515625,31.349970153320314C49.36640610351563,30.990547153320314,48.735106103515626,31.03910675332031,48.375706103515626,31.458436153320314C48.375706103515626,31.458436153320314,49.89420610351563,32.76001715332031,49.89420610351563,32.76001715332031C49.89420610351563,32.76001715332031,49.89420610351563,32.76001715332031,49.89420610351563,32.76001715332031ZM36.324235103515626,33.80386715332031C37.537016103515626,34.843387153320315,39.645786103515626,36.030597153320315,42.10527610351563,36.23917715332031C44.627386103515626,36.45306715332031,47.43720610351562,35.62654715332031,49.89420610351563,32.76001715332031C49.89420610351563,32.76001715332031,48.375706103515626,31.458436153320314,48.375706103515626,31.458436153320314C46.342906103515624,33.830047153320315,44.16406610351562,34.40659715332031,42.27428610351563,34.24633715332031C40.32189610351563,34.08075715332031,38.595596103515625,33.11659715332031,37.625816103515625,32.28534715332031C37.625816103515625,32.28534715332031,36.324235103515626,33.80386715332031,36.324235103515626,33.80386715332031C36.324235103515626,33.80386715332031,36.324235103515626,33.80386715332031,36.324235103515626,33.80386715332031Z" fill="#000000" fill-opacity="1"/></g><g><path d="M30.43224832397461,43.52757263183594C24.81995832397461,43.52757263183594,22.013811323974608,48.20448263183594,22.949193323974608,49.13986263183594C23.88457832397461,50.075242631835934,27.509888323974607,49.13986263183594,30.43220832397461,49.13986263183594C33.35453832397461,49.13986263183594,36.97993832397461,50.075242631835934,37.91533832397461,49.13986263183594C38.85073832397461,48.20448263183594,36.044538323974606,43.52757263183594,30.43224832397461,43.52757263183594C30.43224832397461,43.52757263183594,30.43224832397461,43.52757263183594,30.43224832397461,43.52757263183594Z" fill="#000000" fill-opacity="1"/></g></g></svg>