<svg xmlns="http://www.w3.org/2000/svg" xmlns:xlink="http://www.w3.org/1999/xlink" fill="none" version="1.1" width="57.1229248046875" height="57.1229248046875" viewBox="0 0 57.1229248046875 57.1229248046875"><g><g><path d="M28.5615,56.6229Q29.2503,56.6229,29.9384,56.5891Q30.6264,56.5553,31.312,56.4878Q31.9975,56.4203,32.6789,56.3192Q33.3603,56.2181,34.036,56.0837Q34.7116,55.9493,35.3798,55.7819Q36.0481,55.6146,36.7073,55.4146Q37.3665,55.2146,38.0151,54.9826Q38.6637,54.7505,39.3001,54.4869Q39.9365,54.2232,40.5593,53.9287Q41.182,53.6342,41.7895,53.3095Q42.3971,52.9847,42.9879,52.6306Q43.5788,52.2764,44.1516,51.8937Q44.7243,51.511,45.2776,51.1006Q45.831,50.6903,46.3635,50.2533Q46.896,49.8162,47.4064,49.3536Q47.9168,48.891,48.4039,48.4039Q48.891,47.9168,49.3536,47.4064Q49.8162,46.896,50.2533,46.3635Q50.6903,45.831,51.1006,45.2776Q51.511,44.7243,51.8937,44.1516Q52.2764,43.5788,52.6306,42.9879Q52.9847,42.3971,53.3095,41.7895Q53.6342,41.182,53.9287,40.5593Q54.2232,39.9365,54.4869,39.3001Q54.7505,38.6637,54.9826,38.0151Q55.2146,37.3665,55.4146,36.7073Q55.6146,36.0481,55.782,35.3798Q55.9493,34.7116,56.0837,34.036Q56.2181,33.3603,56.3192,32.6789Q56.4203,31.9975,56.4878,31.312Q56.5553,30.6264,56.5891,29.9384Q56.6229,29.2503,56.6229,28.5615Q56.6229,27.8726,56.5891,27.1846Q56.5553,26.4965,56.4878,25.811Q56.4203,25.1254,56.3192,24.444Q56.2181,23.7626,56.0837,23.0869Q55.9493,22.4113,55.7819,21.7431Q55.6146,21.0749,55.4146,20.4156Q55.2146,19.7564,54.9826,19.1078Q54.7505,18.4592,54.4869,17.8228Q54.2232,17.1864,53.9287,16.5636Q53.6342,15.9409,53.3095,15.3334Q52.9847,14.7259,52.6306,14.135Q52.2764,13.5441,51.8937,12.9713Q51.511,12.3986,51.1006,11.8453Q50.6903,11.292,50.2533,10.7595Q49.8162,10.22695,49.3536,9.71654Q48.891,9.20612,48.4039,8.71901Q47.9168,8.23191,47.4064,7.76929Q46.896,7.30667,46.3635,6.86966Q45.831,6.43264,45.2776,6.02228Q44.7243,5.61192,44.1516,5.22921Q43.5788,4.84649,42.9879,4.49234Q42.3971,4.13819,41.7895,3.81346Q41.182,3.48873,40.5593,3.1942Q39.9365,2.89967,39.3001,2.63605Q38.6637,2.37243,38.0151,2.1403600000000003Q37.3665,1.90829,36.7073,1.70832Q36.0481,1.50835,35.3798,1.340967Q34.7116,1.173585,34.036,1.039193Q33.3603,0.904801,32.6789,0.803723Q31.9975,0.702645,31.312,0.635124Q30.6264,0.5676025,29.9384,0.5338013Q29.2503,0.5,28.5615,0.5Q27.8726,0.5,27.1846,0.5338013Q26.4965,0.5676025,25.811,0.635124Q25.1254,0.702645,24.444,0.803723Q23.7626,0.904801,23.0869,1.039193Q22.4113,1.173585,21.7431,1.340967Q21.0749,1.50835,20.4156,1.70832Q19.7564,1.90829,19.1078,2.1403600000000003Q18.4592,2.37243,17.8228,2.63605Q17.1864,2.89967,16.5636,3.1942Q15.9409,3.48873,15.3334,3.81346Q14.7259,4.13819,14.135,4.49234Q13.5441,4.84649,12.9713,5.22921Q12.3986,5.61192,11.8453,6.02228Q11.292,6.43264,10.7595,6.86966Q10.22695,7.30667,9.71654,7.76929Q9.20612,8.23191,8.71901,8.71901Q8.23191,9.20612,7.76929,9.71654Q7.30667,10.22695,6.86966,10.7595Q6.43264,11.292,6.02228,11.8453Q5.61192,12.3986,5.22921,12.9713Q4.84649,13.5441,4.49234,14.135Q4.13819,14.7259,3.81346,15.3334Q3.48873,15.9409,3.1942,16.5636Q2.89967,17.1864,2.63605,17.8228Q2.37243,18.4592,2.1403600000000003,19.1078Q1.90829,19.7564,1.70832,20.4156Q1.50835,21.0749,1.340967,21.7431Q1.173585,22.4113,1.039193,23.0869Q0.904801,23.7626,0.803723,24.444Q0.702645,25.1254,0.635124,25.811Q0.5676025,26.4965,0.5338013,27.1846Q0.5,27.8726,0.5,28.5615Q0.4999999999999988,29.6907,0.5907328000000001,30.8162Q0.681466,31.9418,0.8623449999999999,33.0564Q1.043224,34.171,1.313079,35.2675Q1.58293,36.364,1.94002,37.4353Q2.29711,38.5065,2.73912,39.5456Q3.18112,40.5847,3.7052,41.585Q4.22927,42.5852,4.83202,43.5401Q5.43476,44.495,6.11229,45.3983L4.24155,53.8168L12.0151,51.2256Q12.9088,51.8781,13.8512,52.4582Q14.7935,53.0383,15.7786,53.5424Q16.7637,54.0464,17.7855,54.4714Q18.8072,54.8963,19.8593,55.2395Q20.9113,55.5827,21.9871,55.8419Q23.0629,56.1012,24.1557,56.2749Q25.2486,56.4486,26.3517,56.5358Q27.4549,56.6229,28.5615,56.6229Z" fill-rule="evenodd" fill="#FFCF00" fill-opacity="1"/><path d="M28.5615,56.1229Q33.8186,56.1229,38.7067,54.1878Q44.014,52.0867,48.0504,48.0504Q52.0867,44.0141,54.1878,38.7067Q56.1229,33.8186,56.1229,28.5615Q56.1229,23.3043,54.1878,18.4162Q52.0867,13.1089,48.0504,9.07257Q44.0141,5.03629,38.7067,2.93514Q33.8186,1,28.5615,1Q23.3043,1,18.4162,2.93514Q13.1088,5.03628,9.07257,9.07257Q5.03629,13.1089,2.93514,18.4162Q1,23.3043,1,28.5615Q1,37.7486,6.51229,45.0983L6.65027,45.2823L4.72964,53.9252L4.24155,53.8168L4.08343,53.3424L12.1016,50.6697L12.3099,50.8218Q19.571,56.123,28.5615,56.1229ZM28.5615,57.1229Q19.2449,57.1229,11.7203,51.6294L12.0151,51.2256L12.1732,51.6999L3.56189,54.5704L5.62419,45.2899L6.11229,45.3983L5.71229,45.6983Q0,38.082,0,28.5615Q0,23.1135,2.00535,18.0481Q4.18272,12.5482,8.365459999999999,8.365459999999999Q12.5482,4.182729999999999,18.0481,2.00535Q23.1136,0,28.5615,0Q34.0094,0,39.0748,2.00535Q44.5747,4.182729999999999,48.7575,8.365459999999999Q52.9402,12.5483,55.1176,18.0481Q57.1229,23.1136,57.1229,28.5615Q57.1229,34.0093,55.1176,39.0748Q52.9402,44.5747,48.7575,48.7575Q44.5747,52.9402,39.0748,55.1176Q34.0093,57.1229,28.5615,57.1229Z" fill="#000000" fill-opacity="1"/></g><g><path d="M28.101075996398926,31.367603302001953C17.831805996398927,31.367603302001953,9.632265996398926,41.44230330200195,12.199638996398926,43.52760330200195C14.767015996398925,45.61280330200195,20.819445996398926,41.656803302001954,28.101075996398926,41.656803302001954C35.38267599639893,41.656803302001954,41.43527599639893,45.61280330200195,44.00267599639893,43.52760330200195C46.57007599639893,41.44230330200195,38.37037599639893,31.367603302001953,28.101075996398926,31.367603302001953C28.101075996398926,31.367603302001953,28.101075996398926,31.367603302001953,28.101075996398926,31.367603302001953Z" fill="#000000" fill-opacity="1"/></g><g><path d="M28.561533447265624,32.30298614501953C22.716073447265625,32.30298614501953,19.194543447265623,35.10536614501953,17.901714747265626,36.37161614501953C17.724567447265624,36.545116145019534,17.892883747265625,36.806016145019534,18.130975447265627,36.736756145019534C19.871813447265623,36.23033614501953,24.216653447265625,35.109136145019534,28.561533447265624,35.109136145019534C32.906333447265624,35.109136145019534,37.251233447265626,36.23033614501953,38.99203344726563,36.736756145019534C39.23013344726563,36.806016145019534,39.398433447265624,36.545116145019534,39.22133344726562,36.371606145019534C37.928433447265625,35.10536614501953,34.40693344726563,32.30298614501953,28.561533447265624,32.30298614501953C28.561533447265624,32.30298614501953,28.561533447265624,32.30298614501953,28.561533447265624,32.30298614501953Z" fill="#FFFFFF" fill-opacity="1"/></g><g><path d="M28.56146215759277,37.915287017822266C24.084742157592775,37.915287017822266,22.044191157592774,40.18047701782226,21.358997957592774,41.18582701782226C21.238166957592775,41.36311701782227,21.400172957592773,41.569857017822265,21.608769157592775,41.51965701782227C22.688692157592772,41.259797017822265,25.317442157592772,40.72143701782227,28.56146215759277,40.72143701782227C31.805502157592773,40.72143701782227,34.43420215759277,41.259797017822265,35.514102157592774,41.51965701782227C35.72270215759277,41.569857017822265,35.88470215759277,41.36311701782227,35.763902157592774,41.18582701782226C35.07870215759277,40.18047701782226,33.03820215759277,37.915287017822266,28.56146215759277,37.915287017822266C28.56146215759277,37.915287017822266,28.56146215759277,37.915287017822266,28.56146215759277,37.915287017822266Z" fill="#D50B00" fill-opacity="1"/></g><g transform="matrix(0.9842758178710938,0.17663836479187012,0.17663832008838654,-0.9842758178710938,-1.7970357315536347,20.18709695238158)"><path d="M33.6931572043457,16.316852364196777C33.5274725043457,16.537772364196776,33.5722435043457,16.851172364196778,33.793157204345704,17.016852364196776C34.014071204345704,17.182542364196777,34.3274722043457,17.137772364196778,34.49315720434571,16.916852364196778C34.49315720434571,16.916852364196778,33.6931572043457,16.316852364196777,33.6931572043457,16.316852364196777C33.6931572043457,16.316852364196777,33.6931572043457,16.316852364196777,33.6931572043457,16.316852364196777ZM41.4781582043457,14.301002364196778C41.748938204345706,14.355152364196778,42.0123482043457,14.179552364196777,42.0665082043457,13.908769364196777C42.1206582043457,13.637989364196777,41.9450482043457,13.374576364196777,41.6742682043457,13.320421364196777C41.6742682043457,13.320421364196777,41.4781582043457,14.301002364196778,41.4781582043457,14.301002364196778C41.4781582043457,14.301002364196778,41.4781582043457,14.301002364196778,41.4781582043457,14.301002364196778ZM34.49315720434571,16.916852364196778C35.3619282043457,15.758492364196776,37.9940382043457,13.604177364196778,41.4781582043457,14.301002364196778C41.4781582043457,14.301002364196778,41.6742682043457,13.320421364196777,41.6742682043457,13.320421364196777C37.67533820434571,12.520634364196777,34.695148204345706,14.980872364196777,33.6931572043457,16.316852364196777C33.6931572043457,16.316852364196777,34.49315720434571,16.916852364196778,34.49315720434571,16.916852364196778C34.49315720434571,16.916852364196778,34.49315720434571,16.916852364196778,34.49315720434571,16.916852364196778Z" fill="#000000" fill-opacity="1"/></g><g transform="matrix(-0.9842758178710938,0.17663832008838654,-0.17663832008838654,-0.9842758178710938,46.103810948308976,22.223807809655256)"><path d="M22.162763603881835,16.316852364196777C21.997078903881835,16.537772364196776,22.041849903881836,16.851172364196778,22.262763603881837,17.016852364196776C22.483677603881837,17.182542364196777,22.797078603881836,17.137772364196778,22.962763603881836,16.916852364196778C22.962763603881836,16.916852364196778,22.162763603881835,16.316852364196777,22.162763603881835,16.316852364196777C22.162763603881835,16.316852364196777,22.162763603881835,16.316852364196777,22.162763603881835,16.316852364196777ZM29.947764603881836,14.301002364196778C30.21854460388184,14.355152364196778,30.481954603881835,14.179552364196777,30.536114603881835,13.908769364196777C30.590264603881835,13.637989364196777,30.414654603881836,13.374576364196777,30.143874603881834,13.320421364196777C30.143874603881834,13.320421364196777,29.947764603881836,14.301002364196778,29.947764603881836,14.301002364196778C29.947764603881836,14.301002364196778,29.947764603881836,14.301002364196778,29.947764603881836,14.301002364196778ZM22.962763603881836,16.916852364196778C23.831534603881835,15.758492364196776,26.463644603881836,13.604177364196778,29.947764603881836,14.301002364196778C29.947764603881836,14.301002364196778,30.143874603881834,13.320421364196777,30.143874603881834,13.320421364196777C26.144944603881836,12.520634364196777,23.164754603881835,14.980872364196777,22.162763603881835,16.316852364196777C22.162763603881835,16.316852364196777,22.962763603881836,16.916852364196778,22.962763603881836,16.916852364196778C22.962763603881836,16.916852364196778,22.962763603881836,16.916852364196778,22.962763603881836,16.916852364196778Z" fill="#000000" fill-opacity="1"/></g><g><path d="M36.0552272903418,23.474143508911133C36.9248026003418,19.533355508911132,44.867411600341796,18.08089350891113,46.2006216003418,20.142409508911133C46.2664216003418,20.244123508911134,46.2013216003418,20.37163350891113,46.084521600341795,20.40371350891113C44.1338016003418,20.939433508911133,41.9194016003418,22.199013508911133,41.6288616003418,23.15193350891113C41.372111600341796,23.994033508911134,44.6570816003418,25.326433508911133,46.864521600341796,26.475193508911133C47.0194216003418,26.555813508911132,46.9981216003418,26.778233508911132,46.830021600341794,26.825503508911133C41.3543716003418,28.36487350891113,35.779785600341796,24.722403508911132,36.0552272903418,23.474143508911133C36.0552272903418,23.474143508911133,36.0552272903418,23.474143508911133,36.0552272903418,23.474143508911133Z" fill="#000000" fill-opacity="1"/></g><g transform="matrix(-1,0,0,1,42.1549072265625,0)"><path d="M21.08725930328125,23.474143508911133C21.95683461328125,19.533355508911132,29.89944361328125,18.08089350891113,31.23265361328125,20.142409508911133C31.29845361328125,20.244123508911134,31.233353613281253,20.37163350891113,31.116553613281248,20.40371350891113C29.16583361328125,20.939433508911133,26.95143361328125,22.199013508911133,26.66089361328125,23.15193350891113C26.40414361328125,23.994033508911134,29.68911361328125,25.326433508911133,31.89655361328125,26.475193508911133C32.051453613281254,26.555813508911132,32.03015361328125,26.778233508911132,31.862053613281248,26.825503508911133C26.38640361328125,28.36487350891113,20.81181761328125,24.722403508911132,21.08725930328125,23.474143508911133C21.08725930328125,23.474143508911133,21.08725930328125,23.474143508911133,21.08725930328125,23.474143508911133Z" fill="#000000" fill-opacity="1"/></g></g></svg>