<svg xmlns="http://www.w3.org/2000/svg" xmlns:xlink="http://www.w3.org/1999/xlink" fill="none" version="1.1" width="57.1229248046875" height="59.92906951904297" viewBox="0 0 57.1229248046875 59.92906951904297"><defs><filter id="master_svg0_0_140" filterUnits="objectBoundingBox" color-interpolation-filters="sRGB" x="-2" y="-2" width="9.612292289733887" height="7.741528034210205"><feFlood flood-opacity="0" result="BackgroundImageFix"/><feBlend mode="normal" in="SourceGraphic" in2="BackgroundImageFix" result="shape"/><feGaussianBlur stdDeviation="0.5" result="effect1_foregroundBlur"/></filter><filter id="master_svg1_0_141" filterUnits="objectBoundingBox" color-interpolation-filters="sRGB" x="-2" y="-2" width="9.612292289733887" height="7.741528034210205"><feFlood flood-opacity="0" result="BackgroundImageFix"/><feBlend mode="normal" in="SourceGraphic" in2="BackgroundImageFix" result="shape"/><feGaussianBlur stdDeviation="0.5" result="effect1_foregroundBlur"/></filter><mask id="master_svg2_0_149" style="mask-type:alpha" maskUnits="userSpaceOnUse"><g><path d="M28.709122064819336,48.20454741210938C21.974372064819335,48.20454741210938,18.419918064819335,37.915277412109376,19.355300064819335,36.97999041210937C20.290682064819336,36.04470341210938,24.219282064819335,41.65689741210937,28.709122064819336,41.65689741210937C33.19893206481934,41.65689741210937,37.127532064819334,36.04470341210938,38.062932064819336,36.97999041210937C38.99833206481934,37.915277412109376,35.44383206481933,48.20454741210938,28.709122064819336,48.20454741210938C28.709122064819336,48.20454741210938,28.709122064819336,48.20454741210938,28.709122064819336,48.20454741210938Z" fill="#FFFFFF" fill-opacity="1"/></g></mask></defs><g><g transform="matrix(-1,0,0,1,108.85377502441406,0)"><path d="M55.03698951220703,0.5C57.281907512207034,2.74492,62.831757512207034,6.11229,65.32608751220704,7.04767C65.32608751220704,7.04767,55.97228751220703,16.4015,55.97228751220703,16.4015C53.72737351220703,12.66,54.41340091220703,3.92973,55.03698951220703,0.5C55.03698951220703,0.5,55.03698951220703,0.5,55.03698951220703,0.5Z" fill="#C187FE" fill-opacity="1"/><path d="M53.92897551220703,8.338899999999999Q53.98691751220703,14.0644,55.543547512207034,16.6587Q55.57520751220703,16.7115,55.61873751220703,16.7551Q55.68905751220703,16.8254,55.78094751220703,16.8634Q55.872837512207035,16.9015,55.97228751220703,16.9015Q56.07174751220703,16.9015,56.16362751220703,16.8634Q56.25551751220703,16.8254,56.32583751220703,16.7551L65.67968751220704,7.40122Q65.75618751220703,7.32464,65.79428751220703,7.22323Q65.82918751220703,7.13011,65.82578751220703,7.03071Q65.82248751220703,6.93131,65.78128751220703,6.84077Q65.74008751220703,6.75023,65.66748751220703,6.68233Q65.59478751220703,6.61443,65.50168751220703,6.5795Q63.57164751220703,5.85575,60.35330751220703,3.8411Q56.96271751220703,1.71862,55.390542512207034,0.146447Q55.28010151220703,0.03600500000000001,55.12643251220703,0.008064999999999989Q55.02857951220703,-0.009726000000000012,54.93136751220703,0.011282999999999987Q54.83415551220703,0.03229199999999999,54.75238351220703,0.08890399999999998Q54.67061151220703,0.145515,54.61672851220703,0.22910999999999998Q54.56284551220703,0.312704,54.54505451220703,0.4105558Q53.88545451220703,4.038349999999999,53.92897551220703,8.338899999999999ZM56.09737751220703,15.5693L64.44018751220703,7.22643Q62.57569751220703,6.41206,59.82270751220703,4.68872Q56.99742751220703,2.92012,55.376496512207034,1.499671Q54.89178251220703,4.65859,54.92892451220703,8.32878Q54.97786351220703,13.1647,56.09737751220703,15.5693Z" fill-rule="evenodd" fill="#000000" fill-opacity="1"/></g><g><path d="M3.3061369082946777,0.5C5.551054908294677,2.74492,11.100904908294678,6.11229,13.595234908294678,7.04767C13.595234908294678,7.04767,4.241434908294678,16.4015,4.241434908294678,16.4015C1.9965209082946778,12.66,2.682548308294678,3.92973,3.3061369082946777,0.5C3.3061369082946777,0.5,3.3061369082946777,0.5,3.3061369082946777,0.5Z" fill="#C187FE" fill-opacity="1"/><path d="M2.198122908294678,8.338899999999999Q2.2560649082946775,14.0644,3.8126949082946777,16.6587Q3.8443549082946777,16.7115,3.887884908294678,16.7551Q3.958204908294678,16.8254,4.050094908294678,16.8634Q4.141984908294678,16.9015,4.241434908294678,16.9015Q4.340894908294677,16.9015,4.432774908294678,16.8634Q4.524664908294678,16.8254,4.594984908294678,16.7551L13.948834908294678,7.40122Q14.025334908294678,7.32464,14.063434908294678,7.22323Q14.098334908294678,7.13011,14.094934908294677,7.03071Q14.091634908294678,6.93131,14.050434908294678,6.84077Q14.009234908294678,6.75023,13.936634908294678,6.68233Q13.863934908294677,6.61443,13.770834908294677,6.5795Q11.840794908294678,5.85575,8.622454908294678,3.8411Q5.2318649082946775,1.71862,3.659689908294678,0.146447Q3.5492489082946777,0.03600500000000001,3.395579908294678,0.008064999999999989Q3.2977269082946776,-0.009726000000000012,3.2005149082946778,0.011282999999999987Q3.103302908294678,0.03229199999999999,3.021530908294678,0.08890399999999998Q2.9397589082946776,0.145515,2.8858759082946777,0.22910999999999998Q2.8319929082946778,0.312704,2.814201908294678,0.4105558Q2.1546019082946777,4.038349999999999,2.198122908294678,8.338899999999999ZM4.366524908294678,15.5693L12.709334908294677,7.22643Q10.844844908294677,6.41206,8.091854908294678,4.68872Q5.266574908294677,2.92012,3.645643908294678,1.499671Q3.1609299082946776,4.65859,3.198071908294678,8.32878Q3.2470109082946776,13.1647,4.366524908294678,15.5693Z" fill-rule="evenodd" fill="#000000" fill-opacity="1"/></g><g><g><path d="M28.5615,59.429043760681154Q29.2503,59.429043760681154,29.9384,59.395243760681154Q30.6264,59.361443760681155,31.312,59.29394376068115Q31.9975,59.22644376068115,32.6789,59.125343760681154Q33.3603,59.02424376068115,34.036,58.88984376068115Q34.7116,58.75544376068115,35.3798,58.58804376068115Q36.0481,58.420743760681155,36.7073,58.22074376068115Q37.3665,58.02074376068115,38.0151,57.78874376068115Q38.6637,57.556643760681155,39.3001,57.29304376068115Q39.9365,57.02934376068115,40.5593,56.73484376068115Q41.182,56.44034376068115,41.7895,56.11564376068115Q42.3971,55.79084376068115,42.9879,55.43674376068115Q43.5788,55.082543760681155,44.1516,54.699843760681155Q44.7243,54.317143760681155,45.2776,53.90674376068115Q45.831,53.49644376068115,46.3635,53.059443760681155Q46.896,52.622343760681154,47.4064,52.15974376068115Q47.9168,51.69714376068115,48.4039,51.21004376068115Q48.891,50.722943760681154,49.3536,50.21254376068115Q49.8162,49.70214376068115,50.2533,49.169643760681154Q50.6903,48.637143760681155,51.1006,48.08374376068115Q51.511,47.53044376068115,51.8937,46.957743760681154Q52.2764,46.38494376068115,52.6306,45.794043760681156Q52.9847,45.203243760681154,53.3095,44.59564376068115Q53.6342,43.988143760681155,53.9287,43.36544376068115Q54.2232,42.742643760681155,54.4869,42.10624376068115Q54.7505,41.46984376068115,54.9826,40.82124376068115Q55.2146,40.172643760681154,55.4146,39.51344376068115Q55.6146,38.85424376068115,55.782,38.185943760681155Q55.9493,37.51774376068115,56.0837,36.842143760681154Q56.2181,36.166443760681155,56.3192,35.48504376068115Q56.4203,34.803643760681155,56.4878,34.11814376068115Q56.5553,33.432543760681156,56.5891,32.744543760681154Q56.6229,32.05644376068115,56.6229,31.36764376068115Q56.6229,30.67874376068115,56.5891,29.990743760681152Q56.5553,29.302643760681153,56.4878,28.617143760681152Q56.4203,27.93154376068115,56.3192,27.25014376068115Q56.2181,26.56874376068115,56.0837,25.893043760681152Q55.9493,25.217443760681153,55.7819,24.54924376068115Q55.6146,23.881043760681152,55.4146,23.221743760681154Q55.2146,22.56254376068115,54.9826,21.913943760681153Q54.7505,21.26534376068115,54.4869,20.628943760681153Q54.2232,19.99254376068115,53.9287,19.369743760681153Q53.6342,18.74704376068115,53.3095,18.13954376068115Q52.9847,17.53204376068115,52.6306,16.94114376068115Q52.2764,16.350243760681153,51.8937,15.777443760681152Q51.511,15.204743760681152,51.1006,14.651443760681152Q50.6903,14.098143760681152,50.2533,13.565643760681152Q49.8162,13.033093760681153,49.3536,12.522683760681153Q48.891,12.012263760681153,48.4039,11.525153760681153Q47.9168,11.038053760681152,47.4064,10.575433760681152Q46.896,10.112813760681153,46.3635,9.675803760681152Q45.831,9.238783760681152,45.2776,8.828423760681153Q44.7243,8.418063760681152,44.1516,8.035353760681152Q43.5788,7.6526337606811525,42.9879,7.298483760681153Q42.3971,6.944333760681152,41.7895,6.619603760681152Q41.182,6.294873760681153,40.5593,6.000343760681153Q39.9365,5.705813760681153,39.3001,5.442193760681152Q38.6637,5.178573760681152,38.0151,4.946503760681153Q37.3665,4.714433760681152,36.7073,4.514463760681153Q36.0481,4.314493760681152,35.3798,4.147110760681152Q34.7116,3.9797287606811524,34.036,3.8453367606811524Q33.3603,3.7109447606811523,32.6789,3.6098667606811525Q31.9975,3.5087887606811523,31.312,3.441267760681152Q30.6264,3.3737462606811524,29.9384,3.3399450606811523Q29.2503,3.3061437606811523,28.5615,3.3061437606811523Q27.8726,3.3061437606811523,27.1846,3.3399450606811523Q26.4965,3.3737462606811524,25.811,3.441267760681152Q25.1254,3.5087887606811523,24.444,3.6098667606811525Q23.7626,3.7109447606811523,23.0869,3.8453367606811524Q22.4113,3.9797287606811524,21.7431,4.147110760681152Q21.0749,4.314493760681152,20.4156,4.514463760681153Q19.7564,4.714433760681152,19.1078,4.946503760681153Q18.4592,5.178573760681152,17.8228,5.442193760681152Q17.1864,5.705813760681153,16.5636,6.000343760681153Q15.9409,6.294873760681153,15.3334,6.619603760681152Q14.7259,6.944333760681152,14.135,7.298483760681153Q13.5441,7.6526337606811525,12.9713,8.035353760681152Q12.3986,8.418063760681152,11.8453,8.828423760681153Q11.292,9.238783760681152,10.7595,9.675803760681152Q10.22695,10.112813760681153,9.71654,10.575433760681152Q9.20612,11.038053760681152,8.71901,11.525153760681153Q8.23191,12.012263760681153,7.76929,12.522683760681153Q7.30667,13.033093760681153,6.86966,13.565643760681152Q6.43264,14.098143760681152,6.02228,14.651443760681152Q5.61192,15.204743760681152,5.22921,15.777443760681152Q4.84649,16.350243760681153,4.49234,16.94114376068115Q4.13819,17.53204376068115,3.81346,18.13954376068115Q3.48873,18.74704376068115,3.1942,19.369743760681153Q2.89967,19.99254376068115,2.63605,20.628943760681153Q2.37243,21.26534376068115,2.1403600000000003,21.913943760681153Q1.90829,22.56254376068115,1.70832,23.221743760681154Q1.50835,23.881043760681152,1.340967,24.54924376068115Q1.173585,25.217443760681153,1.039193,25.893043760681152Q0.904801,26.56874376068115,0.803723,27.25014376068115Q0.702645,27.93154376068115,0.635124,28.617143760681152Q0.5676025,29.302643760681153,0.5338013,29.990743760681152Q0.5,30.67874376068115,0.5,31.36764376068115Q0.4999999999999988,32.49684376068115,0.5907328000000001,33.62234376068115Q0.681466,34.74794376068115,0.8623449999999999,35.86254376068115Q1.043224,36.97714376068115,1.313079,38.07364376068115Q1.58293,39.17014376068115,1.94002,40.24144376068115Q2.29711,41.312643760681155,2.73912,42.35174376068115Q3.18112,43.39084376068115,3.7052,44.39114376068115Q4.22927,45.39134376068115,4.83202,46.346243760681155Q5.43476,47.30114376068115,6.11229,48.20444376068115L4.24155,56.62294376068115L12.0151,54.03174376068115Q12.9088,54.684243760681156,13.8512,55.26434376068115Q14.7935,55.84444376068115,15.7786,56.34854376068115Q16.7637,56.85254376068115,17.7855,57.277543760681155Q18.8072,57.70244376068115,19.8593,58.04564376068115Q20.9113,58.388843760681155,21.9871,58.648043760681155Q23.0629,58.90734376068115,24.1557,59.081043760681155Q25.2486,59.25474376068115,26.3517,59.341943760681154Q27.4549,59.429043760681154,28.5615,59.429043760681154Z" fill-rule="evenodd" fill="#C086FD" fill-opacity="1"/><path d="M28.5615,58.929043760681154Q33.8186,58.929043760681154,38.7067,56.993943760681155Q44.014,54.89284376068115,48.0504,50.856543760681156Q52.0867,46.82024376068115,54.1878,41.51284376068115Q56.1229,36.624743760681156,56.1229,31.36764376068115Q56.1229,26.110443760681154,54.1878,21.222343760681152Q52.0867,15.915043760681153,48.0504,11.878713760681153Q44.0141,7.8424337606811525,38.7067,5.741283760681153Q33.8186,3.8061437606811523,28.5615,3.8061437606811523Q23.3043,3.8061437606811523,18.4162,5.741283760681153Q13.1088,7.842423760681152,9.07257,11.878713760681153Q5.03629,15.915043760681153,2.93514,21.222343760681152Q1,26.110443760681154,1,31.36764376068115Q1,40.554743760681156,6.51229,47.904443760681154L6.65027,48.08844376068115L4.72964,56.73134376068115L4.24155,56.62294376068115L4.08343,56.14854376068115L12.1016,53.47584376068115L12.3099,53.627943760681156Q19.571,58.92914376068115,28.5615,58.929043760681154ZM28.5615,59.929043760681154Q19.2449,59.929043760681154,11.7203,54.43554376068115L12.0151,54.03174376068115L12.1732,54.50604376068115L3.56189,57.37654376068115L5.62419,48.096043760681155L6.11229,48.20444376068115L5.71229,48.504443760681156Q0,40.88814376068115,0,31.36764376068115Q0,25.91964376068115,2.00535,20.854243760681154Q4.18272,15.354343760681152,8.365459999999999,11.171603760681151Q12.5482,6.988873760681152,18.0481,4.811493760681152Q23.1136,2.8061437606811523,28.5615,2.8061437606811523Q34.0094,2.8061437606811523,39.0748,4.811493760681152Q44.5747,6.988873760681152,48.7575,11.171603760681151Q52.9402,15.354443760681152,55.1176,20.854243760681154Q57.1229,25.919743760681154,57.1229,31.36764376068115Q57.1229,36.815443760681156,55.1176,41.880943760681156Q52.9402,47.38084376068115,48.7575,51.56364376068115Q44.5747,55.74634376068115,39.0748,57.923743760681155Q34.0093,59.929043760681154,28.5615,59.929043760681154Z" fill="#000000" fill-opacity="1"/></g><g filter="url(#master_svg0_0_140)"><ellipse cx="46.33371877670288" cy="35.10913395881653" rx="2.8061461448669434" ry="1.8707640171051025" fill="#BB43BF" fill-opacity="1"/></g><g filter="url(#master_svg1_0_141)"><ellipse cx="10.789200782775879" cy="35.10913395881653" rx="2.8061461448669434" ry="1.8707640171051025" fill="#BB43BF" fill-opacity="1"/></g></g><g><ellipse cx="16.401490688323975" cy="28.561456203460693" rx="2.8061461448669434" ry="4.676909923553467" fill="#000000" fill-opacity="1"/></g><g><ellipse cx="40.72143316268921" cy="28.561456203460693" rx="2.8061461448669434" ry="4.676909923553467" fill="#000000" fill-opacity="1"/></g><g><path d="M13.74390111340332,18.836252678857424C13.53878711340332,18.754207678857423,13.30600011340332,18.85397367885742,13.22395371340332,19.05908807885742C13.14190871340332,19.264201078857422,13.24167471340332,19.49698907885742,13.44678911340332,19.579035078857423C13.44678911340332,19.579035078857423,13.74390111340332,18.836252678857424,13.74390111340332,18.836252678857424C13.74390111340332,18.836252678857424,13.74390111340332,18.836252678857424,13.74390111340332,18.836252678857424ZM20.75840811340332,25.059937078857423C20.89094811340332,25.236667078857423,21.14166811340332,25.272487078857424,21.318408113403322,25.13993707885742C21.49513811340332,25.00738707885742,21.53094811340332,24.756667078857422,21.39840811340332,24.579937078857423C21.39840811340332,24.579937078857423,20.75840811340332,25.059937078857423,20.75840811340332,25.059937078857423C20.75840811340332,25.059937078857423,20.75840811340332,25.059937078857423,20.75840811340332,25.059937078857423ZM13.44678911340332,19.579035078857423C14.96909811340332,20.187957078857423,18.57415811340332,22.147607078857423,20.75840811340332,25.059937078857423C20.75840811340332,25.059937078857423,21.39840811340332,24.579937078857423,21.39840811340332,24.579937078857423C19.092818113403318,21.505827078857422,15.33953811340332,19.474509078857423,13.74390111340332,18.836252678857424C13.74390111340332,18.836252678857424,13.44678911340332,19.579035078857423,13.44678911340332,19.579035078857423C13.44678911340332,19.579035078857423,13.44678911340332,19.579035078857423,13.44678911340332,19.579035078857423Z" fill="#000000" fill-opacity="1"/></g><g transform="matrix(-1,0,0,1,87.8553695678711,0)"><path d="M44.476347783935545,18.836252678857424C44.27123378393555,18.754207678857423,44.03844678393555,18.85397367885742,43.956400383935545,19.05908807885742C43.874355383935544,19.264201078857422,43.97412138393555,19.49698907885742,44.179235783935546,19.579035078857423C44.179235783935546,19.579035078857423,44.476347783935545,18.836252678857424,44.476347783935545,18.836252678857424C44.476347783935545,18.836252678857424,44.476347783935545,18.836252678857424,44.476347783935545,18.836252678857424ZM51.490854783935546,25.059937078857423C51.623394783935545,25.236667078857423,51.874114783935546,25.272487078857424,52.05085478393555,25.13993707885742C52.22758478393555,25.00738707885742,52.263394783935546,24.756667078857422,52.13085478393555,24.579937078857423C52.13085478393555,24.579937078857423,51.490854783935546,25.059937078857423,51.490854783935546,25.059937078857423C51.490854783935546,25.059937078857423,51.490854783935546,25.059937078857423,51.490854783935546,25.059937078857423ZM44.179235783935546,19.579035078857423C45.701544783935546,20.187957078857423,49.30660478393555,22.147607078857423,51.490854783935546,25.059937078857423C51.490854783935546,25.059937078857423,52.13085478393555,24.579937078857423,52.13085478393555,24.579937078857423C49.825264783935545,21.505827078857422,46.07198478393555,19.474509078857423,44.476347783935545,18.836252678857424C44.476347783935545,18.836252678857424,44.179235783935546,19.579035078857423,44.179235783935546,19.579035078857423C44.179235783935546,19.579035078857423,44.179235783935546,19.579035078857423,44.179235783935546,19.579035078857423Z" fill="#000000" fill-opacity="1"/></g><g><g><path d="M28.709122064819336,48.20454741210938C21.974372064819335,48.20454741210938,18.419918064819335,37.915277412109376,19.355300064819335,36.97999041210937C20.290682064819336,36.04470341210938,24.219282064819335,41.65689741210937,28.709122064819336,41.65689741210937C33.19893206481934,41.65689741210937,37.127532064819334,36.04470341210938,38.062932064819336,36.97999041210937C38.99833206481934,37.915277412109376,35.44383206481933,48.20454741210938,28.709122064819336,48.20454741210938C28.709122064819336,48.20454741210938,28.709122064819336,48.20454741210938,28.709122064819336,48.20454741210938Z" fill="#000000" fill-opacity="1"/></g><g mask="url(#master_svg2_0_149)"><g><path d="M28.708960407180786,44.46295690536499C25.715740407180785,44.46295690536499,22.784878407180788,46.33371690536499,22.161290407180786,47.26910690536499C22.161290407180786,47.26910690536499,28.708960407180786,50.07524690536499,28.708960407180786,50.07524690536499C28.708960407180786,50.07524690536499,35.25659040718079,47.26910690536499,35.25659040718079,47.26910690536499C34.009490407180785,46.33371690536499,31.702190407180787,44.46295690536499,28.708960407180786,44.46295690536499C28.708960407180786,44.46295690536499,28.708960407180786,44.46295690536499,28.708960407180786,44.46295690536499Z" fill="#BB43BF" fill-opacity="1"/></g></g></g></g></svg>