<svg xmlns="http://www.w3.org/2000/svg" xmlns:xlink="http://www.w3.org/1999/xlink" fill="none" version="1.1" width="57.1229248046875" height="57.1229248046875" viewBox="0 0 57.1229248046875 57.1229248046875"><g><g><ellipse cx="28.56146240234375" cy="28.56146240234375" rx="28.06146240234375" ry="28.06146240234375" fill="#4D73FF" fill-opacity="1"/><ellipse cx="28.56146240234375" cy="28.56146240234375" rx="28.06146240234375" ry="28.06146240234375" fill-opacity="0" stroke-opacity="1" stroke="#000000" fill="none" stroke-width="1"/></g><g><path d="M27.998996826171876,34.06467694473267Q28.324796826171877,34.06467694473267,28.650196826171875,34.04867694473266Q28.975596826171873,34.03267694473267,29.299796826171875,34.000776944732664Q29.623996826171876,33.96887694473267,29.946296826171874,33.92107694473266Q30.268496826171877,33.873276944732666,30.587996826171874,33.809676944732665Q30.907596826171876,33.74617694473267,31.223596826171875,33.66697694473267Q31.539596826171874,33.58777694473267,31.851396826171875,33.49327694473267Q32.16309682617187,33.39867694473267,32.469896826171876,33.288876944732664Q32.776596826171875,33.17917694473267,33.07759682617187,33.05447694473267Q33.37859682617187,32.929776944732666,33.67309682617187,32.79047694473267Q33.96759682617187,32.651276944732665,34.25489682617187,32.49767694473267Q34.542196826171875,32.34407694473266,34.82169682617187,32.176576944732666Q35.101096826171876,32.00907694473267,35.37199682617187,31.828076944732665Q35.64289682617188,31.647076944732667,35.90449682617188,31.453076944732665Q36.16619682617187,31.258976944732666,36.41799682617187,31.052276944732665Q36.66989682617188,30.845676944732666,36.91129682617188,30.626876944732665Q37.152696826171876,30.408076944732667,37.382996826171876,30.177676944732667Q37.61339682617188,29.947376944732667,37.832196826171874,29.705976944732665Q38.050996826171875,29.464576944732666,38.25759682617188,29.212676944732667Q38.464296826171875,28.960876944732664,38.658396826171874,28.699176944732667Q38.852396826171876,28.437576944732665,39.033396826171874,28.166676944732664Q39.21439682617188,27.895776944732667,39.381896826171875,27.616376944732664Q39.54939682617187,27.336876944732666,39.702996826171876,27.049576944732667Q39.856596826171874,26.762276944732665,39.995796826171876,26.467776944732666Q40.135096826171875,26.173276944732667,40.25979682617188,25.872276944732665Q40.384496826171876,25.571276944732666,40.49419682617187,25.264576944732667Q40.60399682617188,24.957776944732665,40.69859682617188,24.646076944732666Q40.793096826171876,24.334276944732665,40.872296826171876,24.018276944732666Q40.95139682617187,23.702276944732667,41.014996826171874,23.382676944732665Q41.078596826171875,23.063176944732668,41.12639682617187,22.740976944732665Q41.17419682617188,22.418676944732667,41.20609682617187,22.094476944732666Q41.23799682617188,21.770276944732665,41.25399682617187,21.444876944732666Q41.26999682617188,21.119476944732668,41.26999682617188,20.793676944732667Q41.26999682617188,20.467876944732666,41.25399682617187,20.142476944732664Q41.23799682617188,19.817076944732666,41.20609682617187,19.492876944732664Q41.17419682617188,19.168676944732667,41.12639682617187,18.84637694473267Q41.078596826171875,18.524176944732666,41.014996826171874,18.204676944732668Q40.951496826171876,17.885076944732667,40.872296826171876,17.569076944732664Q40.793096826171876,17.253066944732666,40.69859682617188,16.941316944732666Q40.60399682617188,16.629556944732666,40.49419682617187,16.322816944732665Q40.384496826171876,16.016076944732667,40.25979682617188,15.715086944732667Q40.135096826171875,15.414096944732666,39.995796826171876,15.119596944732667Q39.856596826171874,14.825086944732666,39.702996826171876,14.537776944732666Q39.54939682617187,14.250456944732665,39.381896826171875,13.971016944732666Q39.21439682617188,13.691586944732666,39.033396826171874,13.420706944732666Q38.852396826171876,13.149826944732666,38.658396826171874,12.888156944732666Q38.464296826171875,12.626476944732666,38.25759682617188,12.374646944732666Q38.050996826171875,12.122806944732666,37.832196826171874,11.881416944732667Q37.61339682617188,11.640026944732666,37.382996826171876,11.409666944732667Q37.152696826171876,11.179296944732666,36.91129682617188,10.960516944732666Q36.66989682617188,10.741726944732665,36.41799682617187,10.535056944732666Q36.16619682617187,10.328376944732666,35.90449682617188,10.134306944732666Q35.64289682617188,9.940236944732666,35.37199682617187,9.759246944732666Q35.101096826171876,9.578246944732665,34.82169682617187,9.410756944732666Q34.542196826171875,9.243276944732665,34.25489682617187,9.089696944732665Q33.96759682617187,8.936126944732667,33.67309682617187,8.796836944732666Q33.37859682617187,8.657546944732665,33.07759682617187,8.532866944732666Q32.776596826171875,8.408198944732666,32.469896826171876,8.298445944732666Q32.16309682617187,8.188691944732666,31.851396826171875,8.094121944732667Q31.539596826171874,7.999551944732666,31.223596826171875,7.920391944732666Q30.907596826171876,7.841232944732666,30.587996826171874,7.777675944732666Q30.268496826171877,7.714117944732666,29.946296826171874,7.666315944732666Q29.623996826171876,7.618512944732666,29.299796826171875,7.586580444732666Q28.975596826171873,7.554647944732666,28.650196826171875,7.538662444732666Q28.324796826171877,7.522676944732666,27.998996826171876,7.522676944732666Q27.673196826171875,7.522676944732666,27.347796826171873,7.538662444732666Q27.022396826171875,7.554647944732666,26.698196826171873,7.586580444732666Q26.373996826171876,7.618512944732666,26.051696826171877,7.666315944732666Q25.729496826171875,7.714117944732666,25.409996826171877,7.777675944732666Q25.090396826171876,7.841232944732666,24.774396826171873,7.920391944732666Q24.458386826171875,7.999551944732666,24.146636826171875,8.094121944732667Q23.834876826171875,8.188691944732666,23.528136826171874,8.298445944732666Q23.221396826171876,8.408198944732666,22.920406826171877,8.532866944732666Q22.619416826171875,8.657546944732665,22.324916826171876,8.796836944732666Q22.030406826171877,8.936126944732667,21.743096826171875,9.089696944732665Q21.455776826171874,9.243276944732665,21.176336826171877,9.410756944732666Q20.896906826171875,9.578246944732665,20.626026826171874,9.759246944732666Q20.355146826171875,9.940236944732666,20.093476826171873,10.134306944732666Q19.831796826171875,10.328376944732666,19.579966826171876,10.535056944732666Q19.328126826171875,10.741726944732665,19.086736826171876,10.960516944732666Q18.845346826171877,11.179296944732666,18.614986826171876,11.409666944732667Q18.384616826171875,11.640026944732666,18.165836826171876,11.881416944732667Q17.947046826171874,12.122806944732666,17.740376826171875,12.374646944732666Q17.533696826171877,12.626476944732666,17.339626826171873,12.888156944732666Q17.145556826171877,13.149826944732666,16.964566826171875,13.420706944732666Q16.783566826171874,13.691586944732666,16.616076826171874,13.971016944732666Q16.448596826171876,14.250456944732665,16.295016826171874,14.537776944732666Q16.141446826171876,14.825086944732666,16.002156826171873,15.119596944732667Q15.862866826171874,15.414096944732666,15.738186826171875,15.715086944732667Q15.613518826171875,16.016076944732667,15.503765826171875,16.322816944732665Q15.394011826171875,16.629556944732666,15.299441826171876,16.941316944732666Q15.204871826171875,17.253066944732666,15.125711826171875,17.569076944732664Q15.046552826171874,17.885076944732667,14.982995826171875,18.204676944732668Q14.919437826171874,18.524176944732666,14.871635826171875,18.84637694473267Q14.823832826171875,19.168676944732667,14.791900326171875,19.492876944732664Q14.759967826171875,19.817076944732666,14.743982326171874,20.142476944732664Q14.727996826171875,20.467876944732666,14.727996826171875,20.793676944732667Q14.727996826171875,21.119476944732668,14.743982326171874,21.444876944732666Q14.759967826171875,21.770276944732665,14.791900326171875,22.094476944732666Q14.823832826171875,22.418676944732667,14.871635826171875,22.740976944732665Q14.919437826171874,23.063176944732668,14.982995826171875,23.382676944732665Q15.046552826171874,23.702276944732667,15.125711826171875,24.018276944732666Q15.204871826171875,24.334276944732665,15.299441826171876,24.646076944732666Q15.394011826171875,24.957776944732665,15.503765826171875,25.264576944732667Q15.613518826171875,25.571276944732666,15.738186826171875,25.872276944732665Q15.862866826171874,26.173276944732667,16.002156826171873,26.467776944732666Q16.141446826171876,26.762276944732665,16.295016826171874,27.049576944732667Q16.448596826171876,27.336876944732666,16.616076826171874,27.616376944732664Q16.783566826171874,27.895776944732667,16.964566826171875,28.166676944732664Q17.145556826171877,28.437576944732665,17.339626826171873,28.699176944732667Q17.533696826171877,28.960876944732664,17.740376826171875,29.212676944732667Q17.947046826171874,29.464576944732666,18.165836826171876,29.705976944732665Q18.384616826171875,29.947376944732667,18.614986826171876,30.177676944732667Q18.845346826171877,30.408076944732667,19.086736826171876,30.626876944732665Q19.328126826171875,30.845676944732666,19.579966826171876,31.052276944732665Q19.831796826171875,31.258976944732666,20.093476826171873,31.453076944732665Q20.355146826171875,31.647076944732667,20.626026826171874,31.828076944732665Q20.896906826171875,32.00907694473267,21.176336826171877,32.176576944732666Q21.455776826171874,32.34407694473266,21.743096826171875,32.49767694473267Q22.030406826171877,32.651276944732665,22.324916826171876,32.79047694473267Q22.619416826171875,32.929776944732666,22.920406826171877,33.05447694473267Q23.221396826171876,33.17917694473267,23.528136826171874,33.288876944732664Q23.834876826171875,33.39867694473267,24.146636826171875,33.49327694473267Q24.458386826171875,33.58777694473267,24.774396826171873,33.66697694473267Q25.090396826171876,33.746076944732664,25.409996826171877,33.809676944732665Q25.729496826171875,33.873276944732666,26.051696826171877,33.92107694473266Q26.373996826171876,33.96887694473267,26.698196826171873,34.000776944732664Q27.022396826171875,34.03267694473267,27.347796826171873,34.04867694473266Q27.673196826171875,34.06467694473267,27.998996826171876,34.06467694473267ZM27.998696826171873,27.994176944732665Q28.175496826171873,27.994176944732665,28.351996826171877,27.985476944732667Q28.528596826171874,27.976876944732666,28.704496826171876,27.959476944732668Q28.880396826171875,27.942176944732665,29.055196826171873,27.916276944732665Q29.230096826171874,27.890276944732665,29.403396826171875,27.855776944732668Q29.576796826171876,27.821376944732666,29.748196826171878,27.778376944732667Q29.919696826171876,27.735476944732667,30.088896826171876,27.684176944732666Q30.257996826171876,27.632776944732665,30.424396826171876,27.573276944732665Q30.590896826171875,27.513776944732665,30.754196826171874,27.446076944732667Q30.917496826171874,27.378476944732665,31.077196826171875,27.302876944732667Q31.236996826171875,27.227276944732665,31.392896826171874,27.143976944732668Q31.548796826171873,27.060676944732666,31.700396826171875,26.969776944732665Q31.851996826171874,26.878876944732667,31.998996826171876,26.780676944732665Q32.145996826171874,26.682476944732667,32.287896826171874,26.577176944732667Q32.42989682617187,26.471876944732667,32.566596826171875,26.359776944732666Q32.703196826171876,26.247676944732667,32.834196826171876,26.128976944732667Q32.96509682617187,26.010276944732666,33.09009682617187,25.885276944732666Q33.21509682617187,25.760276944732666,33.33379682617188,25.629276944732666Q33.452496826171874,25.498276944732666,33.56459682617188,25.361676944732665Q33.67679682617187,25.225076944732667,33.78209682617187,25.083076944732667Q33.88739682617188,24.941076944732664,33.98559682617187,24.794176944732666Q34.08379682617188,24.647176944732667,34.17459682617188,24.495576944732665Q34.265496826171876,24.343976944732667,34.34879682617188,24.188076944732668Q34.432196826171875,24.032176944732665,34.50769682617187,23.872376944732665Q34.583296826171875,23.712576944732668,34.65099682617188,23.549276944732664Q34.718596826171876,23.38597694473267,34.778096826171875,23.219576944732665Q34.83769682617188,23.053176944732666,34.888996826171876,22.883976944732666Q34.940296826171874,22.714876944732666,34.98329682617187,22.543376944732664Q35.026196826171876,22.371876944732666,35.06069682617188,22.198576944732665Q35.09519682617187,22.025176944732664,35.12109682617188,21.850376944732666Q35.14699682617187,21.675476944732665,35.164396826171874,21.499576944732667Q35.18169682617187,21.323676944732668,35.19039682617188,21.147176944732664Q35.19899682617188,20.970576944732667,35.19899682617188,20.793876944732666Q35.19899682617188,20.617076944732666,35.19039682617188,20.440576944732666Q35.18169682617187,20.26397694473267,35.164396826171874,20.088076944732666Q35.14699682617187,19.912176944732664,35.12109682617188,19.737376944732667Q35.09519682617187,19.562476944732666,35.06069682617188,19.389176944732668Q35.026196826171876,19.215776944732667,34.98329682617187,19.044276944732665Q34.940296826171874,18.872876944732667,34.888996826171876,18.703676944732663Q34.83769682617188,18.534576944732667,34.778096826171875,18.368076944732664Q34.718596826171876,18.201676944732668,34.65099682617188,18.03837694473267Q34.583296826171875,17.875076944732665,34.50769682617187,17.715276944732665Q34.432196826171875,17.555476944732668,34.34879682617188,17.399626944732667Q34.265496826171876,17.243736944732667,34.17459682617188,17.092126944732666Q34.08379682617188,16.940516944732664,33.98559682617187,16.793546944732668Q33.88739682617188,16.646586944732668,33.78209682617187,16.504606944732664Q33.67679682617187,16.362636944732664,33.56459682617188,16.225996944732664Q33.452496826171874,16.089366944732667,33.33379682617188,15.958396944732666Q33.21509682617187,15.827426944732666,33.09009682617187,15.702436944732666Q32.96509682617187,15.577446944732666,32.834196826171876,15.458746944732667Q32.703196826171876,15.340046944732666,32.566596826171875,15.227906944732666Q32.42989682617187,15.115776944732666,32.287896826171874,15.010476944732666Q32.145996826171874,14.905186944732666,31.998996826171876,14.806986944732666Q31.851996826171874,14.708776944732666,31.700396826171875,14.617906944732667Q31.548796826171873,14.527036944732666,31.392896826171874,14.443716944732666Q31.236996826171875,14.360386944732667,31.077196826171875,14.284816944732665Q30.917496826171874,14.209246944732666,30.754196826171874,14.141596944732665Q30.590896826171875,14.073956944732666,30.424396826171876,14.014406944732666Q30.257996826171876,13.954866944732666,30.088896826171876,13.903556944732667Q29.919696826171876,13.852236944732667,29.748196826171878,13.809296944732665Q29.576796826171876,13.766346944732666,29.403396826171875,13.731856944732666Q29.230096826171874,13.697376944732666,29.055196826171873,13.671436944732665Q28.880396826171875,13.645506944732666,28.704496826171876,13.628176944732665Q28.528596826171874,13.610856944732667,28.351996826171877,13.602176944732665Q28.175496826171873,13.593506944732667,27.998696826171873,13.593506944732667Q27.821996826171876,13.593506944732667,27.645396826171876,13.602176944732665Q27.468896826171875,13.610856944732667,27.292996826171873,13.628176944732665Q27.116996826171874,13.645506944732666,26.942196826171873,13.671436944732665Q26.767396826171876,13.697376944732666,26.593996826171875,13.731856944732666Q26.420596826171874,13.766346944732666,26.249196826171875,13.809296944732665Q26.077696826171874,13.852236944732667,25.908596826171873,13.903556944732667Q25.739396826171877,13.954866944732666,25.572996826171874,14.014406944732666Q25.406596826171874,14.073956944732666,25.243296826171875,14.141596944732665Q25.079996826171875,14.209246944732666,24.920196826171875,14.284816944732665Q24.760396826171878,14.360386944732667,24.604486826171875,14.443716944732666Q24.448606826171876,14.527036944732666,24.296996826171878,14.617906944732667Q24.145386826171872,14.708776944732666,23.998416826171876,14.806986944732666Q23.851446826171873,14.905186944732666,23.709466826171877,15.010476944732666Q23.567496826171876,15.115776944732666,23.430856826171876,15.227906944732666Q23.294226826171872,15.340046944732666,23.163256826171875,15.458746944732667Q23.032286826171877,15.577446944732666,22.907296826171873,15.702436944732666Q22.782316826171876,15.827426944732666,22.663606826171875,15.958396944732666Q22.544906826171875,16.089366944732667,22.432766826171875,16.225996944732664Q22.320636826171874,16.362636944732664,22.215336826171875,16.504606944732664Q22.110046826171875,16.646586944732668,22.011846826171876,16.793546944732668Q21.913646826171874,16.940516944732664,21.822776826171875,17.092126944732666Q21.731896826171877,17.243736944732667,21.648576826171876,17.399626944732667Q21.565256826171876,17.555476944732668,21.489676826171873,17.715276944732665Q21.414106826171874,17.875076944732665,21.346466826171877,18.03837694473267Q21.278816826171877,18.201676944732668,21.219266826171875,18.368076944732664Q21.159726826171877,18.534576944732667,21.108416826171876,18.703676944732663Q21.057106826171875,18.872876944732667,21.014156826171874,19.044276944732665Q20.971206826171876,19.215776944732667,20.936726826171874,19.389176944732668Q20.902236826171876,19.562476944732666,20.876306826171877,19.737376944732667Q20.850366826171875,19.912176944732664,20.833036826171874,20.088076944732666Q20.815716826171876,20.26397694473267,20.807046826171874,20.440576944732666Q20.798366826171875,20.617076944732666,20.798366826171875,20.793876944732666Q20.798366826171875,20.970576944732667,20.807046826171874,21.147176944732664Q20.815716826171876,21.323676944732668,20.833036826171874,21.499576944732667Q20.850366826171875,21.675476944732665,20.876306826171877,21.850376944732666Q20.902236826171876,22.025176944732664,20.936726826171874,22.198576944732665Q20.971206826171876,22.371876944732666,21.014156826171874,22.543376944732664Q21.057106826171875,22.714876944732666,21.108416826171876,22.883976944732666Q21.159726826171877,23.053176944732666,21.219266826171875,23.219576944732665Q21.278816826171877,23.38597694473267,21.346466826171877,23.549276944732664Q21.414106826171874,23.712576944732668,21.489676826171873,23.872376944732665Q21.565256826171876,24.032176944732665,21.648576826171876,24.188076944732668Q21.731896826171877,24.343976944732667,21.822766826171875,24.495576944732665Q21.913646826171874,24.647176944732667,22.011846826171876,24.794176944732666Q22.110046826171875,24.941076944732664,22.215346826171874,25.083076944732667Q22.320636826171874,25.225076944732667,22.432766826171875,25.361676944732665Q22.544906826171875,25.498276944732666,22.663606826171875,25.629276944732666Q22.782316826171876,25.760276944732666,22.907296826171873,25.885276944732666Q23.032286826171877,26.010276944732666,23.163256826171875,26.128976944732667Q23.294226826171872,26.247676944732667,23.430856826171876,26.359776944732666Q23.567496826171876,26.471876944732667,23.709466826171877,26.577176944732667Q23.851446826171873,26.682476944732667,23.998416826171876,26.780676944732665Q24.145386826171872,26.878876944732667,24.296996826171878,26.969776944732665Q24.448606826171876,27.060676944732666,24.604496826171875,27.143976944732668Q24.760396826171878,27.227276944732665,24.920196826171875,27.302876944732667Q25.079996826171875,27.378476944732665,25.243296826171875,27.446076944732667Q25.406596826171874,27.513776944732665,25.572996826171874,27.573276944732665Q25.739396826171877,27.632776944732665,25.908596826171873,27.684176944732666Q26.077696826171874,27.735476944732667,26.249196826171875,27.778376944732667Q26.420596826171874,27.821376944732666,26.593996826171875,27.855776944732668Q26.767396826171876,27.890276944732665,26.942196826171873,27.916276944732665Q27.116996826171874,27.942176944732665,27.292996826171873,27.959476944732668Q27.468896826171875,27.976876944732666,27.645396826171876,27.985476944732667Q27.821996826171876,27.994176944732665,27.998696826171873,27.994176944732665Z" fill-rule="evenodd" fill="#FFFFFF" fill-opacity="1"/></g><g><path d="M19.326887130737305,39.771339416503906C18.498460130737303,39.771339416503906,17.826887130737305,40.44291241650391,17.826887130737305,41.271339416503906C17.826887130737305,42.099769416503904,18.498460130737303,42.771339416503906,19.326887130737305,42.771339416503906C19.326887130737305,42.771339416503906,19.326887130737305,39.771339416503906,19.326887130737305,39.771339416503906C19.326887130737305,39.771339416503906,19.326887130737305,39.771339416503906,19.326887130737305,39.771339416503906ZM36.4085871307373,42.771339416503906C37.236987130737305,42.771339416503906,37.9085871307373,42.099769416503904,37.9085871307373,41.271339416503906C37.9085871307373,40.44291241650391,37.236987130737305,39.771339416503906,36.4085871307373,39.771339416503906C36.4085871307373,39.771339416503906,36.4085871307373,42.771339416503906,36.4085871307373,42.771339416503906C36.4085871307373,42.771339416503906,36.4085871307373,42.771339416503906,36.4085871307373,42.771339416503906ZM19.326887130737305,42.771339416503906C19.326887130737305,42.771339416503906,36.4085871307373,42.771339416503906,36.4085871307373,42.771339416503906C36.4085871307373,42.771339416503906,36.4085871307373,39.771339416503906,36.4085871307373,39.771339416503906C36.4085871307373,39.771339416503906,19.326887130737305,39.771339416503906,19.326887130737305,39.771339416503906C19.326887130737305,39.771339416503906,19.326887130737305,42.771339416503906,19.326887130737305,42.771339416503906C19.326887130737305,42.771339416503906,19.326887130737305,42.771339416503906,19.326887130737305,42.771339416503906Z" fill="#FFFFFF" fill-opacity="1"/></g><g transform="matrix(0,-1,-1,0,78.60947608947754,78.60947608947754)"><path d="M30.999197006225586,49.11027908325195C30.170770006225585,49.11027908325195,29.499197006225586,49.781852083251955,29.499197006225586,50.61027908325195C29.499197006225586,51.43870908325195,30.170770006225585,52.11027908325195,30.999197006225586,52.11027908325195C30.999197006225586,52.11027908325195,30.999197006225586,49.11027908325195,30.999197006225586,49.11027908325195C30.999197006225586,49.11027908325195,30.999197006225586,49.11027908325195,30.999197006225586,49.11027908325195ZM46.52319700622559,52.11027908325195C47.35159700622559,52.11027908325195,48.02319700622559,51.43870908325195,48.02319700622559,50.61027908325195C48.02319700622559,49.781852083251955,47.35159700622559,49.11027908325195,46.52319700622559,49.11027908325195C46.52319700622559,49.11027908325195,46.52319700622559,52.11027908325195,46.52319700622559,52.11027908325195C46.52319700622559,52.11027908325195,46.52319700622559,52.11027908325195,46.52319700622559,52.11027908325195ZM30.999197006225586,52.11027908325195C30.999197006225586,52.11027908325195,46.52319700622559,52.11027908325195,46.52319700622559,52.11027908325195C46.52319700622559,52.11027908325195,46.52319700622559,49.11027908325195,46.52319700622559,49.11027908325195C46.52319700622559,49.11027908325195,30.999197006225586,49.11027908325195,30.999197006225586,49.11027908325195C30.999197006225586,49.11027908325195,30.999197006225586,52.11027908325195,30.999197006225586,52.11027908325195C30.999197006225586,52.11027908325195,30.999197006225586,52.11027908325195,30.999197006225586,52.11027908325195Z" fill="#FFFFFF" fill-opacity="1"/></g></g></svg>