<svg xmlns="http://www.w3.org/2000/svg" xmlns:xlink="http://www.w3.org/1999/xlink" fill="none" version="1.1" width="61.35667419433594" height="57.1229248046875" viewBox="0 0 61.35667419433594 57.1229248046875"><defs><filter id="master_svg0_0_280" filterUnits="objectBoundingBox" color-interpolation-filters="sRGB" x="-2" y="-2" width="10.547674179077148" height="6.806146144866943"><feFlood flood-opacity="0" result="BackgroundImageFix"/><feBlend mode="normal" in="SourceGraphic" in2="BackgroundImageFix" result="shape"/><feGaussianBlur stdDeviation="0.5" result="effect1_foregroundBlur"/></filter><filter id="master_svg1_0_281" filterUnits="objectBoundingBox" color-interpolation-filters="sRGB" x="-2" y="-2" width="10.547674179077148" height="6.806146144866943"><feFlood flood-opacity="0" result="BackgroundImageFix"/><feBlend mode="normal" in="SourceGraphic" in2="BackgroundImageFix" result="shape"/><feGaussianBlur stdDeviation="0.5" result="effect1_foregroundBlur"/></filter></defs><g><g><path d="M28.5615,56.6229Q29.2503,56.6229,29.9384,56.5891Q30.6264,56.5553,31.312,56.4878Q31.9975,56.4203,32.6789,56.3192Q33.3603,56.2181,34.036,56.0837Q34.7116,55.9493,35.3798,55.7819Q36.0481,55.6146,36.7073,55.4146Q37.3665,55.2146,38.0151,54.9826Q38.6637,54.7505,39.3001,54.4869Q39.9365,54.2232,40.5593,53.9287Q41.182,53.6342,41.7895,53.3095Q42.3971,52.9847,42.9879,52.6306Q43.5788,52.2764,44.1516,51.8937Q44.7243,51.511,45.2776,51.1006Q45.831,50.6903,46.3635,50.2533Q46.896,49.8162,47.4064,49.3536Q47.9168,48.891,48.4039,48.4039Q48.891,47.9168,49.3536,47.4064Q49.8162,46.896,50.2533,46.3635Q50.6903,45.831,51.1006,45.2776Q51.511,44.7243,51.8937,44.1516Q52.2764,43.5788,52.6306,42.9879Q52.9847,42.3971,53.3095,41.7895Q53.6342,41.182,53.9287,40.5593Q54.2232,39.9365,54.4869,39.3001Q54.7505,38.6637,54.9826,38.0151Q55.2146,37.3665,55.4146,36.7073Q55.6146,36.0481,55.782,35.3798Q55.9493,34.7116,56.0837,34.036Q56.2181,33.3603,56.3192,32.6789Q56.4203,31.9975,56.4878,31.312Q56.5553,30.6264,56.5891,29.9384Q56.6229,29.2503,56.6229,28.5615Q56.6229,27.8726,56.5891,27.1846Q56.5553,26.4965,56.4878,25.811Q56.4203,25.1254,56.3192,24.444Q56.2181,23.7626,56.0837,23.0869Q55.9493,22.4113,55.7819,21.7431Q55.6146,21.0749,55.4146,20.4156Q55.2146,19.7564,54.9826,19.1078Q54.7505,18.4592,54.4869,17.8228Q54.2232,17.1864,53.9287,16.5636Q53.6342,15.9409,53.3095,15.3334Q52.9847,14.7259,52.6306,14.135Q52.2764,13.5441,51.8937,12.9713Q51.511,12.3986,51.1006,11.8453Q50.6903,11.292,50.2533,10.7595Q49.8162,10.22695,49.3536,9.71654Q48.891,9.20612,48.4039,8.71901Q47.9168,8.23191,47.4064,7.76929Q46.896,7.30667,46.3635,6.86966Q45.831,6.43264,45.2776,6.02228Q44.7243,5.61192,44.1516,5.22921Q43.5788,4.84649,42.9879,4.49234Q42.3971,4.13819,41.7895,3.81346Q41.182,3.48873,40.5593,3.1942Q39.9365,2.89967,39.3001,2.63605Q38.6637,2.37243,38.0151,2.1403600000000003Q37.3665,1.90829,36.7073,1.70832Q36.0481,1.50835,35.3798,1.340967Q34.7116,1.173585,34.036,1.039193Q33.3603,0.904801,32.6789,0.803723Q31.9975,0.702645,31.312,0.635124Q30.6264,0.5676025,29.9384,0.5338013Q29.2503,0.5,28.5615,0.5Q27.8726,0.5,27.1846,0.5338013Q26.4965,0.5676025,25.811,0.635124Q25.1254,0.702645,24.444,0.803723Q23.7626,0.904801,23.0869,1.039193Q22.4113,1.173585,21.7431,1.340967Q21.0749,1.50835,20.4156,1.70832Q19.7564,1.90829,19.1078,2.1403600000000003Q18.4592,2.37243,17.8228,2.63605Q17.1864,2.89967,16.5636,3.1942Q15.9409,3.48873,15.3334,3.81346Q14.7259,4.13819,14.135,4.49234Q13.5441,4.84649,12.9713,5.22921Q12.3986,5.61192,11.8453,6.02228Q11.292,6.43264,10.7595,6.86966Q10.22695,7.30667,9.71654,7.76929Q9.20612,8.23191,8.71901,8.71901Q8.23191,9.20612,7.76929,9.71654Q7.30667,10.22695,6.86966,10.7595Q6.43264,11.292,6.02228,11.8453Q5.61192,12.3986,5.22921,12.9713Q4.84649,13.5441,4.49234,14.135Q4.13819,14.7259,3.81346,15.3334Q3.48873,15.9409,3.1942,16.5636Q2.89967,17.1864,2.63605,17.8228Q2.37243,18.4592,2.1403600000000003,19.1078Q1.90829,19.7564,1.70832,20.4156Q1.50835,21.0749,1.340967,21.7431Q1.173585,22.4113,1.039193,23.0869Q0.904801,23.7626,0.803723,24.444Q0.702645,25.1254,0.635124,25.811Q0.5676025,26.4965,0.5338013,27.1846Q0.5,27.8726,0.5,28.5615Q0.4999999999999988,29.6907,0.5907328000000001,30.8162Q0.681466,31.9418,0.8623449999999999,33.0564Q1.043224,34.171,1.313079,35.2675Q1.58293,36.364,1.94002,37.4353Q2.29711,38.5065,2.73912,39.5456Q3.18112,40.5847,3.7052,41.585Q4.22927,42.5852,4.83202,43.5401Q5.43476,44.495,6.11229,45.3983L4.24155,53.8168L12.0151,51.2256Q12.9088,51.8781,13.8512,52.4582Q14.7935,53.0383,15.7786,53.5424Q16.7637,54.0464,17.7855,54.4714Q18.8072,54.8963,19.8593,55.2395Q20.9113,55.5827,21.9871,55.8419Q23.0629,56.1012,24.1557,56.2749Q25.2486,56.4486,26.3517,56.5358Q27.4549,56.6229,28.5615,56.6229Z" fill-rule="evenodd" fill="#FFCF00" fill-opacity="1"/><path d="M28.5615,56.1229Q33.8186,56.1229,38.7067,54.1878Q44.014,52.0867,48.0504,48.0504Q52.0867,44.0141,54.1878,38.7067Q56.1229,33.8186,56.1229,28.5615Q56.1229,23.3043,54.1878,18.4162Q52.0867,13.1089,48.0504,9.07257Q44.0141,5.03629,38.7067,2.93514Q33.8186,1,28.5615,1Q23.3043,1,18.4162,2.93514Q13.1088,5.03628,9.07257,9.07257Q5.03629,13.1089,2.93514,18.4162Q1,23.3043,1,28.5615Q1,37.7486,6.51229,45.0983L6.65027,45.2823L4.72964,53.9252L4.24155,53.8168L4.08343,53.3424L12.1016,50.6697L12.3099,50.8218Q19.571,56.123,28.5615,56.1229ZM28.5615,57.1229Q19.2449,57.1229,11.7203,51.6294L12.0151,51.2256L12.1732,51.6999L3.56189,54.5704L5.62419,45.2899L6.11229,45.3983L5.71229,45.6983Q0,38.082,0,28.5615Q0,23.1135,2.00535,18.0481Q4.18272,12.5482,8.365459999999999,8.365459999999999Q12.5482,4.182729999999999,18.0481,2.00535Q23.1136,0,28.5615,0Q34.0094,0,39.0748,2.00535Q44.5747,4.182729999999999,48.7575,8.365459999999999Q52.9402,12.5483,55.1176,18.0481Q57.1229,23.1136,57.1229,28.5615Q57.1229,34.0093,55.1176,39.0748Q52.9402,44.5747,48.7575,48.7575Q44.5747,52.9402,39.0748,55.1176Q34.0093,57.1229,28.5615,57.1229Z" fill="#000000" fill-opacity="1"/></g><g transform="matrix(1,-0.010207165032625198,0.010207165032625198,1,-0.30094861078026724,0.07817441293985539)" filter="url(#master_svg0_0_280)"><ellipse cx="10.932615280151367" cy="30.88712763786316" rx="3.273837089538574" ry="1.4030730724334717" fill="#FF8B72" fill-opacity="1"/></g><g transform="matrix(1,-0.010207165032625198,0.010207165032625198,1,-0.30094861078026724,0.42519794216524076)" filter="url(#master_svg1_0_281)"><ellipse cx="44.93064785003662" cy="30.88712763786316" rx="3.273837089538574" ry="1.4030730724334717" fill="#FF8B72" fill-opacity="1"/></g><g transform="matrix(-1,0,0,1,45.898338317871094,0)"><g><ellipse cx="28.561461448669434" cy="22.949164390563965" rx="5.612292289733887" ry="5.612292289733887" fill="#000000" fill-opacity="1"/></g><g><ellipse cx="30.899914026260376" cy="21.54609227180481" rx="2.3384549617767334" ry="2.3384549617767334" fill="#FFFFFF" fill-opacity="1"/></g><g><ellipse cx="25.7553129196167" cy="25.755312085151672" rx="0.9353820085525513" ry="0.9353820085525513" fill="#FFFFFF" fill-opacity="1"/></g></g><g><g><ellipse cx="41.65680980682373" cy="22.949164390563965" rx="5.612292289733887" ry="5.612292289733887" fill="#000000" fill-opacity="1"/></g><g><ellipse cx="43.99526286125183" cy="21.54609227180481" rx="2.3384549617767334" ry="2.3384549617767334" fill="#FFFFFF" fill-opacity="1"/></g><g><ellipse cx="38.85066246986389" cy="25.755312085151672" rx="0.9353820085525513" ry="0.9353820085525513" fill="#FFFFFF" fill-opacity="1"/></g></g><g><path d="M33.23837143066406,35.109137116699216C33.23837143066406,34.17375711669922,30.432223430664063,31.36760711669922,30.432223430664063,31.36760711669922C30.432223430664063,31.36760711669922,36.979901430664064,35.109137116699216,36.979901430664064,36.04451711669922C36.979901430664064,36.97989711669922,34.17375143066406,38.85066711669922,34.17375143066406,38.85066711669922C34.17375143066406,38.85066711669922,36.979901430664064,40.72142711669922,36.979901430664064,41.65680711669922C36.979901430664064,42.59220711669922,30.432223430664063,46.333707116699216,30.432223430664063,46.333707116699216C30.432223430664063,46.333707116699216,33.23837143066406,43.527607116699215,33.23837143066406,42.59220711669922C33.23837143066406,41.65680711669922,29.496841430664062,38.85066711669922,29.496841430664062,38.85066711669922C29.496841430664062,38.85066711669922,33.23837143066406,36.04451711669922,33.23837143066406,35.109137116699216C33.23837143066406,35.109137116699216,33.23837143066406,35.109137116699216,33.23837143066406,35.109137116699216Z" fill="#000000" fill-opacity="1"/></g><g transform="matrix(-0.8675159215927124,0.4974094331264496,0.49740928411483765,0.8675159811973572,84.86796786312937,-22.60442821465631)"><path d="M54.14100113413086,37.64221346496582C54.75965773413086,34.58330346496582,58.43341873413086,34.50119346496582,60.48313873413086,35.32206346496582C60.53503873413086,35.34284346496582,60.59274873413086,35.31947346496582,60.616268734130855,35.26875346496582C61.29962873413086,33.79554346496582,64.66895873413085,30.80251346496582,67.53455873413085,33.63834346496582C70.45435873413086,36.52781346496582,67.38545873413086,43.75977346496582,64.07806873413085,45.68107346496582C64.06297873413087,45.689773464965825,64.04625873413086,45.69417346496582,64.02880873413086,45.69407346496582C58.81878873413086,45.67727346496582,53.51394173413086,40.74267346496582,54.14100113413086,37.64221346496582C54.14100113413086,37.64221346496582,54.14100113413086,37.64221346496582,54.14100113413086,37.64221346496582Z" fill="#D50B00" fill-opacity="1"/><path d="M64.02593873413086,46.19407346496582L64.02719873413086,46.19407346496582Q64.18825873413086,46.19467346496582,64.32925873413086,46.11337346496582Q65.64805873413086,45.347273464965824,66.83135873413086,43.68517346496582Q67.97175873413086,42.08329346496582,68.61505873413086,40.18310346496582Q70.18195873413086,35.55483346496582,67.88625873413086,33.28294646496582Q65.75015873413086,31.16904346496582,63.05210873413086,32.38159746496582Q61.17034873413086,33.22729546496582,60.32961873413086,34.731273464965824Q58.50100873413086,34.09916346496582,56.65880873413086,34.54101346496582Q54.13569703413086,35.146163464965824,53.65092273413086,37.54309346496582Q53.38459173413086,38.85995346496582,54.24987573413086,40.44548346496582Q55.042578734130856,41.89801346496582,56.57111873413086,43.20457346496582Q60.05293873413086,46.180773464965824,64.02593873413086,46.19407346496582ZM63.92015873413086,45.19307346496582Q65.00235873413087,44.52997346496582,66.01675873413086,43.10517346496582Q67.07175873413087,41.62322346496582,67.66795873413086,39.86243346496582Q69.03445873413087,35.82606346496582,67.18285873413086,33.99373346496582Q65.53435873413086,32.36237406496582,63.46203873413086,33.29371746496582Q61.72052873413086,34.07638346496582,61.06986873413086,35.47909346496582Q60.82876873413086,35.99903346496582,60.29724873413086,35.78622346496582Q58.59573873413086,35.10480346496582,56.89203873413086,35.51343346496582Q54.98937073413086,35.96977346496582,54.63107773413086,37.74133346496582Q54.437008734130856,38.70089346496582,55.12766873413086,39.96643346496582Q55.83220873413086,41.25743346496582,57.22087873413086,42.44444346496582Q60.37501873413086,45.14057346496582,63.92015873413086,45.19307346496582Z" fill-rule="evenodd" fill="#000000" fill-opacity="1"/></g></g></svg>