<svg xmlns="http://www.w3.org/2000/svg" xmlns:xlink="http://www.w3.org/1999/xlink" fill="none" version="1.1" width="63.075439453125" height="57.1229248046875" viewBox="0 0 63.075439453125 57.1229248046875"><defs><filter id="master_svg0_0_681" filterUnits="objectBoundingBox" color-interpolation-filters="sRGB" x="-2" y="-2" width="11.48305606842041" height="7.741528034210205"><feFlood flood-opacity="0" result="BackgroundImageFix"/><feBlend mode="normal" in="SourceGraphic" in2="BackgroundImageFix" result="shape"/><feGaussianBlur stdDeviation="0.5" result="effect1_foregroundBlur"/></filter><filter id="master_svg1_0_682" filterUnits="objectBoundingBox" color-interpolation-filters="sRGB" x="-2" y="-2" width="11.48305606842041" height="7.741528034210205"><feFlood flood-opacity="0" result="BackgroundImageFix"/><feBlend mode="normal" in="SourceGraphic" in2="BackgroundImageFix" result="shape"/><feGaussianBlur stdDeviation="0.5" result="effect1_foregroundBlur"/></filter></defs><g><g><path d="M32.13194672966003,56.6229Q32.82074672966003,56.6229,33.508846729660036,56.5891Q34.19684672966004,56.5553,34.88244672966003,56.4878Q35.56794672966004,56.4203,36.24934672966003,56.3192Q36.93074672966004,56.2181,37.606446729660036,56.0837Q38.28204672966003,55.9493,38.95024672966004,55.7819Q39.61854672966003,55.6146,40.27774672966003,55.4146Q40.936946729660036,55.2146,41.58554672966003,54.9826Q42.23414672966003,54.7505,42.870546729660035,54.4869Q43.50694672966004,54.2232,44.129746729660035,53.9287Q44.752446729660036,53.6342,45.35994672966003,53.3095Q45.967546729660036,52.9847,46.55834672966004,52.6306Q47.149246729660035,52.2764,47.722046729660036,51.8937Q48.294746729660034,51.511,48.848046729660034,51.1006Q49.40144672966004,50.6903,49.933946729660036,50.2533Q50.466446729660035,49.8162,50.97684672966003,49.3536Q51.487246729660036,48.891,51.974346729660034,48.4039Q52.46144672966003,47.9168,52.924046729660034,47.4064Q53.386646729660036,46.896,53.82374672966004,46.3635Q54.260746729660035,45.831,54.671046729660034,45.2776Q55.08144672966004,44.7243,55.46414672966004,44.1516Q55.84684672966004,43.5788,56.201046729660035,42.9879Q56.55514672966003,42.3971,56.879946729660034,41.7895Q57.204646729660034,41.182,57.49914672966003,40.5593Q57.79364672966003,39.9365,58.05734672966003,39.3001Q58.32094672966004,38.6637,58.55304672966003,38.0151Q58.78504672966003,37.3665,58.985046729660034,36.7073Q59.18504672966004,36.0481,59.35244672966003,35.3798Q59.519746729660035,34.7116,59.654146729660035,34.036Q59.788546729660034,33.3603,59.889646729660036,32.6789Q59.99074672966003,31.9975,60.058246729660034,31.312Q60.12574672966004,30.6264,60.159546729660036,29.9384Q60.193346729660036,29.2503,60.193346729660036,28.5615Q60.193346729660036,27.8726,60.159546729660036,27.1846Q60.12574672966004,26.4965,60.058246729660034,25.811Q59.99074672966003,25.1254,59.889646729660036,24.444Q59.788546729660034,23.7626,59.654146729660035,23.0869Q59.519746729660035,22.4113,59.352346729660034,21.7431Q59.18504672966004,21.0749,58.985046729660034,20.4156Q58.78504672966003,19.7564,58.55304672966003,19.1078Q58.32094672966004,18.4592,58.05734672966003,17.8228Q57.79364672966003,17.1864,57.49914672966003,16.5636Q57.204646729660034,15.9409,56.879946729660034,15.3334Q56.55514672966003,14.7259,56.201046729660035,14.135Q55.84684672966004,13.5441,55.46414672966004,12.9713Q55.08144672966004,12.3986,54.671046729660034,11.8453Q54.260746729660035,11.292,53.82374672966004,10.7595Q53.386646729660036,10.22695,52.924046729660034,9.71654Q52.46144672966003,9.20612,51.974346729660034,8.71901Q51.487246729660036,8.23191,50.97684672966003,7.76929Q50.466446729660035,7.30667,49.933946729660036,6.86966Q49.40144672966004,6.43264,48.848046729660034,6.02228Q48.294746729660034,5.61192,47.722046729660036,5.22921Q47.149246729660035,4.84649,46.55834672966004,4.49234Q45.967546729660036,4.13819,45.35994672966003,3.81346Q44.752446729660036,3.48873,44.129746729660035,3.1942Q43.50694672966004,2.89967,42.870546729660035,2.63605Q42.23414672966003,2.37243,41.58554672966003,2.1403600000000003Q40.936946729660036,1.90829,40.27774672966003,1.70832Q39.61854672966003,1.50835,38.95024672966004,1.340967Q38.28204672966003,1.173585,37.606446729660036,1.039193Q36.93074672966004,0.904801,36.24934672966003,0.803723Q35.56794672966004,0.702645,34.88244672966003,0.635124Q34.19684672966004,0.5676025,33.508846729660036,0.5338013Q32.82074672966003,0.5,32.13194672966003,0.5Q31.443046729660033,0.5,30.755046729660034,0.5338013Q30.066946729660035,0.5676025,29.381446729660034,0.635124Q28.695846729660033,0.702645,28.014446729660033,0.803723Q27.333046729660033,0.904801,26.657346729660034,1.039193Q25.981746729660035,1.173585,25.313546729660032,1.340967Q24.645346729660034,1.50835,23.986046729660035,1.70832Q23.326846729660033,1.90829,22.678246729660035,2.1403600000000003Q22.029646729660033,2.37243,21.393246729660035,2.63605Q20.756846729660033,2.89967,20.134046729660035,3.1942Q19.511346729660033,3.48873,18.90384672966003,3.81346Q18.296346729660034,4.13819,17.705446729660032,4.49234Q17.114546729660034,4.84649,16.541746729660034,5.22921Q15.969046729660034,5.61192,15.415746729660034,6.02228Q14.862446729660034,6.43264,14.329946729660033,6.86966Q13.797396729660035,7.30667,13.286986729660034,7.76929Q12.776566729660034,8.23191,12.289456729660035,8.71901Q11.802356729660033,9.20612,11.339736729660034,9.71654Q10.877116729660035,10.22695,10.440106729660034,10.7595Q10.003086729660033,11.292,9.592726729660034,11.8453Q9.182366729660034,12.3986,8.799656729660034,12.9713Q8.416936729660033,13.5441,8.062786729660035,14.135Q7.708636729660034,14.7259,7.383906729660034,15.3334Q7.0591767296600345,15.9409,6.7646467296600346,16.5636Q6.470116729660035,17.1864,6.206496729660034,17.8228Q5.942876729660034,18.4592,5.710806729660034,19.1078Q5.478736729660034,19.7564,5.278766729660035,20.4156Q5.078796729660034,21.0749,4.911413729660034,21.7431Q4.744031729660034,22.4113,4.609639729660034,23.0869Q4.475247729660034,23.7626,4.374169729660034,24.444Q4.273091729660035,25.1254,4.205570729660034,25.811Q4.138049229660034,26.4965,4.1042480296600345,27.1846Q4.070446729660034,27.8726,4.070446729660034,28.5615Q4.070446729660033,29.6907,4.161179529660034,30.8162Q4.2519127296600345,31.9418,4.4327917296600345,33.0564Q4.6136707296600346,34.171,4.883525729660034,35.2675Q5.153376729660034,36.364,5.510466729660035,37.4353Q5.867556729660034,38.5065,6.309566729660034,39.5456Q6.751566729660034,40.5847,7.275646729660034,41.585Q7.799716729660034,42.5852,8.402466729660034,43.5401Q9.005206729660035,44.495,9.682736729660034,45.3983L7.811996729660034,53.8168L15.585546729660035,51.2256Q16.479246729660034,51.8781,17.421646729660033,52.4582Q18.363946729660036,53.0383,19.349046729660035,53.5424Q20.334146729660034,54.0464,21.355946729660033,54.4714Q22.377646729660036,54.8963,23.429746729660035,55.2395Q24.481746729660035,55.5827,25.557546729660036,55.8419Q26.633346729660033,56.1012,27.726146729660034,56.2749Q28.819046729660034,56.4486,29.922146729660035,56.5358Q31.025346729660033,56.6229,32.13194672966003,56.6229Z" fill-rule="evenodd" fill="#FFCF00" fill-opacity="1"/><path d="M32.13194672966003,56.1229Q37.38904672966004,56.1229,42.27714672966003,54.1878Q47.58444672966004,52.0867,51.62084672966004,48.0504Q55.657146729660035,44.0141,57.75824672966004,38.7067Q59.693346729660036,33.8186,59.693346729660036,28.5615Q59.693346729660036,23.3043,57.75824672966004,18.4162Q55.657146729660035,13.1089,51.62084672966004,9.07257Q47.58454672966003,5.03629,42.27714672966003,2.93514Q37.38904672966004,1,32.13194672966003,1Q26.874746729660036,1,21.986646729660034,2.93514Q16.679246729660036,5.03628,12.643016729660035,9.07257Q8.606736729660035,13.1089,6.505586729660035,18.4162Q4.570446729660034,23.3043,4.570446729660034,28.5615Q4.570446729660034,37.7486,10.082736729660034,45.0983L10.220716729660033,45.2823L8.300086729660034,53.9252L7.811996729660034,53.8168L7.653876729660034,53.3424L15.672046729660034,50.6697L15.880346729660035,50.8218Q23.141446729660036,56.123,32.13194672966003,56.1229ZM32.13194672966003,57.1229Q22.815346729660035,57.1229,15.290746729660034,51.6294L15.585546729660035,51.2256L15.743646729660034,51.6999L7.132336729660034,54.5704L9.194636729660033,45.2899L9.682736729660034,45.3983L9.282736729660034,45.6983Q3.570446729660034,38.082,3.570446729660034,28.5615Q3.570446729660034,23.1135,5.575796729660034,18.0481Q7.753166729660034,12.5482,11.935906729660033,8.365459999999999Q16.118646729660036,4.182729999999999,21.618546729660036,2.00535Q26.684046729660036,0,32.13194672966003,0Q37.579846729660034,0,42.64524672966004,2.00535Q48.145146729660034,4.182729999999999,52.327946729660034,8.365459999999999Q56.51064672966003,12.5483,58.68804672966004,18.0481Q60.693346729660036,23.1136,60.693346729660036,28.5615Q60.693346729660036,34.0093,58.68804672966004,39.0748Q56.51064672966003,44.5747,52.327946729660034,48.7575Q48.145146729660034,52.9402,42.64524672966004,55.1176Q37.57974672966004,57.1229,32.13194672966003,57.1229Z" fill="#000000" fill-opacity="1"/></g><g transform="matrix(0.9670025110244751,-0.2547668218612671,0.2547668218612671,0.9670025110244751,-7.442691837856728,3.472201848395798)" filter="url(#master_svg0_0_681)"><ellipse cx="13.424261569976807" cy="32.33861565589905" rx="3.741528034210205" ry="1.8707640171051025" fill="#FF8B72" fill-opacity="1"/></g><g transform="matrix(-0.9670025706291199,-0.25476667284965515,-0.2547668218612671,0.9670025110244751,112.83234310891316,14.614074530852122)" filter="url(#master_svg1_0_682)"><ellipse cx="57.157902240753174" cy="32.33861565589905" rx="3.741528034210205" ry="1.8707640171051025" fill="#FF8B72" fill-opacity="1"/></g><g transform="matrix(-0.9356529116630554,0.3529215157032013,0.35292139649391174,0.9356529712677002,99.44848060711513,-18.132129908263096)"><path d="M58.33857757978516,42.864399388427735C58.929150279785155,39.94434938842773,62.43404927978516,39.863929388427735,64.39294927978516,40.64628938842773C64.44486927978515,40.66701938842773,64.50266927978515,40.643519388427734,64.52630927978515,40.59284938842774C65.18355927978516,39.18402938842773,68.39859927978516,36.33317938842774,71.13329927978515,39.03952938842774C73.92229927978515,41.79951938842773,70.99149927978516,48.70697938842773,67.83239927978515,50.543279388427734C67.81730927978515,50.55197938842773,67.80057927978515,50.556379388427736,67.78312927978516,50.55627938842773C62.806429279785156,50.539479388427736,57.73960027978516,45.826009388427735,58.33857757978516,42.864399388427735C58.33857757978516,42.864399388427735,58.33857757978516,42.864399388427735,58.33857757978516,42.864399388427735Z" fill="#D50B00" fill-opacity="1"/><path d="M67.78170927978516,50.80627938842773L67.78228927978516,50.80627938842773Q67.87608927978516,50.80667938842774,67.95803927978515,50.75937938842773Q69.17509927978516,50.05197938842773,70.27679927978515,48.50417938842774Q71.34659927978515,47.00124938842774,71.95019927978515,45.21793938842774Q72.59019927978515,43.327039388427735,72.48789927978515,41.727179388427736Q72.37189927978515,39.91349938842774,71.30919927978516,38.86183438842774Q69.38129927978515,36.95399738842774,66.94846927978516,38.04488438842773Q66.04836927978516,38.448488388427734,65.27737927978515,39.19568938842774Q64.65890927978515,39.79507938842774,64.36008927978516,40.365339388427735Q62.58166927978516,39.694069388427735,60.79418927978516,40.123869388427735Q58.52755327978516,40.668889388427736,58.093539279785155,42.814839388427735Q57.85558327978516,43.99139938842774,58.642294279785155,45.433079388427736Q59.379359279785156,46.783769388427736,60.80752927978516,48.00467938842773Q64.06982927978515,50.793479388427734,67.78170927978516,50.80627938842773ZM67.74267927978515,50.30607938842773Q68.84709927978516,49.65057938842774,69.86939927978516,48.214279388427734Q70.89659927978516,46.771249388427734,71.47659927978516,45.05763938842773Q72.08489927978516,43.26033938842774,71.98889927978516,41.75908938842773Q71.88499927978515,40.13515938842774,70.95739927978515,39.21722938842773Q69.27319927978516,37.550444388427735,67.15304927978515,38.501118388427734Q66.33318927978516,38.86874038842773,65.62534927978515,39.554739388427734Q65.00682927978515,40.154179388427735,64.75286927978516,40.698549388427736Q64.61102927978516,41.00254938842774,64.30022927978516,40.878459388427736Q62.607039279785155,40.202219388427736,60.91108927978516,40.610009388427734Q58.95443027978516,41.080489388427736,58.583616279785154,42.913959388427735Q58.38178987978516,43.911879388427735,59.081198279785156,45.19356938842773Q59.774189279785155,46.46350938842774,61.132419279785154,47.62461938842773Q64.23712927978515,50.278779388427736,67.74267927978515,50.30607938842773Z" fill-rule="evenodd" fill="#000000" fill-opacity="1"/></g><g transform="matrix(-0.9356529116630554,0.3529215157032013,0.35292139649391174,0.9356529712677002,110.76739571334247,-20.195871362282787)"><path d="M57.35382893330078,4.37129C57.81371663330078,2.0974,60.532866633300785,2.02487,62.068996633300785,2.62806C62.12103663330078,2.64849,62.17945663330078,2.62417,62.20376663330078,2.57383C62.73924663330078,1.4649619999999999,65.23621663330078,-0.7244200000000001,67.36208663330078,1.379407C69.54218663330079,3.53688,67.25420663330078,8.93428,64.78498663330078,10.37493C64.76990663330078,10.38373,64.75316663330078,10.38805,64.73571663330078,10.38797C60.844716633300784,10.37122,56.88553163330078,6.68676,57.35382893330078,4.37129C57.35382893330078,4.37129,57.35382893330078,4.37129,57.35382893330078,4.37129Z" fill="#D50B00" fill-opacity="1"/><path d="M64.73457663330078,10.638L64.73463663330078,10.638Q64.82954663330078,10.6384,64.91097663330078,10.5909Q65.87241663330079,10.02991,66.73970663330078,8.80984Q67.58008663330078,7.62757,68.05388663330078,6.22603Q69.19718663330079,2.84371,67.53798663330078,1.201711Q66.01202663330078,-0.308384,64.08545663330078,0.5431985Q62.65687663330078,1.174661,62.03741663330078,2.34872Q60.64102663330078,1.8378,59.24850663330078,2.17791Q57.45371563330078,2.61627,57.10878863330078,4.3217300000000005Q56.91881563330078,5.26104,57.54303363330078,6.40558Q58.12374463330078,7.47034,59.24752663330078,8.431619999999999Q61.81210663330078,10.6254,64.73457663330078,10.638ZM64.69505663330078,10.13767Q65.54406663330079,9.62884,66.33217663330078,8.52015Q67.12999663330078,7.39781,67.58018663330078,6.06592Q68.62348663330079,2.97944,67.18623663330078,1.5571Q65.90250663330079,0.28669,64.28760663330078,1.000515Q62.95716663330078,1.5886,62.42888663330078,2.68254Q62.28462663330078,2.98128,61.977616633300784,2.86076Q60.66704663330078,2.34614,59.36713663330078,2.66363Q57.88084163330078,3.02664,57.59886663330078,4.42084Q57.44500863330078,5.18159,57.98199363330078,6.16617Q58.51865663330078,7.15018,59.57254663330078,8.05167Q61.97925663330078,10.11037,64.69505663330078,10.13767Z" fill-rule="evenodd" fill="#000000" fill-opacity="1"/></g><g transform="matrix(-0.9356529116630554,0.3529215157032013,0.35292139649391174,0.9356529712677002,14.915822292424764,-2.7195557079840285)"><path d="M13.64466933199463,37.32933186706543C14.24460523199463,34.36298186706543,17.805796231994627,34.28200186706543,19.794976231994628,35.077201867065426C19.846896231994627,35.09795186706543,19.90466623199463,35.07449186706543,19.928266231994627,35.02381186706543C20.59421623199463,33.59351186706543,23.86073623199463,30.69527186706543,26.63903623199463,33.44478186706543C29.47163623199463,36.24794186706543,26.49483623199463,43.26359186706543,23.28626623199463,45.12819186706543C23.27117623199463,45.13699186706543,23.25445623199463,45.14129186706543,23.23699623199463,45.14119186706543C18.18250623199463,45.12449186706543,13.03633023199463,40.33724186706543,13.64466933199463,37.32933186706543C13.64466933199463,37.32933186706543,13.64466933199463,37.32933186706543,13.64466933199463,37.32933186706543Z" fill="#D50B00" fill-opacity="1"/><path d="M23.235576231994628,45.39119186706543L23.23616623199463,45.39119186706543Q23.33088623199463,45.39159186706543,23.41187623199463,45.344391867065426Q24.64733623199463,44.62639186706543,25.76573623199463,43.05519186706543Q26.851936231994628,41.52928186706543,27.464936231994628,39.71860186706543Q28.114736231994627,37.79888186706543,28.01083623199463,36.17473186706543Q27.893136231994628,34.33416186706543,26.81493623199463,33.26708686706543Q24.858336231994627,31.33076786706543,22.38916623199463,32.43878086706543Q21.47546623199463,32.84880286706543,20.69303623199463,33.60756186706543Q20.06460623199463,34.21697186706543,19.76198623199463,34.79614186706543Q17.95621623199463,34.11338186706543,16.14045623199463,34.54960186706543Q13.84002623199463,35.10226186706543,13.399630231994628,37.27977186706543Q13.15823723199463,38.47333186706543,13.956589231994629,39.93630186706543Q14.70485623199463,41.307501867065426,16.15482623199463,42.54699186706543Q19.46714623199463,45.37849186706543,23.235576231994628,45.39119186706543ZM23.19654623199463,44.89099186706543Q24.31923623199463,44.22509186706543,25.35843623199463,42.76529186706543Q26.40193623199463,41.29925186706543,26.99133623199463,39.55829186706543Q27.60943623199463,37.73216186706543,27.51183623199463,36.20664186706543Q27.40633623199463,34.55582186706543,26.46313623199463,33.62247186706543Q24.750236231994627,31.92728986706543,22.593876231994628,32.89495586706543Q21.76040623199463,33.26897086706543,21.04111623199463,33.96650186706543Q20.412486231994627,34.57611186706543,20.154896231994627,35.12934186706543Q20.01320623199463,35.43364186706543,19.702176231994628,35.30934186706543Q17.98158623199463,34.62151186706543,16.257256231994628,35.03577186706543Q14.266889231994629,35.51394186706543,13.88970723199463,37.37889186706543Q13.68444473199463,38.39381186706543,14.395490231994629,39.69679186706543Q15.099686231994628,40.98722186706543,16.47971623199463,42.16694186706543Q19.63442623199463,44.86369186706543,23.19654623199463,44.89099186706543Z" fill-rule="evenodd" fill="#000000" fill-opacity="1"/></g><g><path d="M13.00820592347412,17.059656467590333C12.85502992347412,17.28942646759033,12.917116933474121,17.59985646759033,13.14688112347412,17.75303646759033C13.376645123474121,17.90620646759033,13.687080123474122,17.844126467590332,13.840256123474122,17.614356467590333C13.840256123474122,17.614356467590333,13.00820592347412,17.059656467590333,13.00820592347412,17.059656467590333C13.00820592347412,17.059656467590333,13.00820592347412,17.059656467590333,13.00820592347412,17.059656467590333ZM18.91524812347412,15.951316467590331C19.18314812347412,16.018286467590332,19.45461812347412,15.855406467590331,19.52158812347412,15.587511467590332C19.588568123474122,15.319614467590332,19.42568812347412,15.048147467590333,19.15778812347412,14.981172467590332C19.15778812347412,14.981172467590332,18.91524812347412,15.951316467590331,18.91524812347412,15.951316467590331C18.91524812347412,15.951316467590331,18.91524812347412,15.951316467590331,18.91524812347412,15.951316467590331ZM13.840256123474122,17.614356467590333C14.378938123474121,16.80633646759033,16.17831812347412,15.267080467590333,18.91524812347412,15.951316467590331C18.91524812347412,15.951316467590331,19.15778812347412,14.981172467590332,19.15778812347412,14.981172467590332C15.90827812347412,14.168796467590331,13.716699123474122,15.996916467590331,13.00820592347412,17.059656467590333C13.00820592347412,17.059656467590333,13.840256123474122,17.614356467590333,13.840256123474122,17.614356467590333C13.840256123474122,17.614356467590333,13.840256123474122,17.614356467590333,13.840256123474122,17.614356467590333Z" fill="#000000" fill-opacity="1"/></g><g transform="matrix(-1,0,0,1,98.93769073486328,0)"><path d="M49.55287316743164,17.246001567993165C49.39969716743164,17.475771567993164,49.46178417743164,17.786201567993164,49.69154836743164,17.939381567993163C49.92131236743164,18.092551567993162,50.23174736743164,18.030471567993164,50.38492336743164,17.800701567993165C50.38492336743164,17.800701567993165,49.55287316743164,17.246001567993165,49.55287316743164,17.246001567993165C49.55287316743164,17.246001567993165,49.55287316743164,17.246001567993165,49.55287316743164,17.246001567993165ZM55.45991536743164,16.137661567993163C55.72781536743164,16.204631567993165,55.99928536743164,16.041751567993163,56.06625536743164,15.773856567993164C56.13323536743164,15.505959567993164,55.97035536743164,15.234492567993165,55.70245536743164,15.167517567993164C55.70245536743164,15.167517567993164,55.45991536743164,16.137661567993163,55.45991536743164,16.137661567993163C55.45991536743164,16.137661567993163,55.45991536743164,16.137661567993163,55.45991536743164,16.137661567993163ZM50.38492336743164,17.800701567993165C50.92360536743164,16.992681567993163,52.72298536743164,15.453425567993165,55.45991536743164,16.137661567993163C55.45991536743164,16.137661567993163,55.70245536743164,15.167517567993164,55.70245536743164,15.167517567993164C52.45294536743164,14.355141567993163,50.26136636743164,16.183261567993164,49.55287316743164,17.246001567993165C49.55287316743164,17.246001567993165,50.38492336743164,17.800701567993165,50.38492336743164,17.800701567993165C50.38492336743164,17.800701567993165,50.38492336743164,17.800701567993165,50.38492336743164,17.800701567993165Z" fill="#000000" fill-opacity="1"/></g><g><path d="M15.270014563903809,23.470749768676757C15.041474563903808,22.967968668676757,14.44862456390381,22.74565276867676,13.945844563903808,22.974186668676758C13.443063463903808,23.20272376867676,13.220747563903808,23.795573768676757,13.449281463903809,24.298359768676757C13.449281463903809,24.298359768676757,15.270014563903809,23.470749768676757,15.270014563903809,23.470749768676757C15.270014563903809,23.470749768676757,15.270014563903809,23.470749768676757,15.270014563903809,23.470749768676757ZM25.526704563903806,24.363399768676757C25.79120456390381,23.87855676867676,25.61250456390381,23.27111976867676,25.12770456390381,23.00665676867676C24.64280456390381,22.74219276867676,24.03540456390381,22.920851668676757,23.77100456390381,23.40570076867676C23.77100456390381,23.40570076867676,25.526704563903806,24.363399768676757,25.526704563903806,24.363399768676757C25.526704563903806,24.363399768676757,25.526704563903806,24.363399768676757,25.526704563903806,24.363399768676757ZM13.449281463903809,24.298359768676757C13.86986356390381,25.22362976867676,14.474364563903809,26.250409768676757,15.233414563903809,27.138659768676757C15.985264563903808,28.01848976867676,16.94533456390381,28.828219768676757,18.09139456390381,29.206959768676757C19.285014563903808,29.60140976867676,20.592364563903807,29.49680976867676,21.893624563903806,28.68908976867676C23.152514563903807,27.907669768676758,24.36240456390381,26.49801976867676,25.526704563903806,24.363399768676757C25.526704563903806,24.363399768676757,23.77100456390381,23.40570076867676,23.77100456390381,23.40570076867676C22.69037456390381,25.386759768676757,21.68653456390381,26.46366976867676,20.83885456390381,26.989829768676756C20.03355456390381,27.489699768676758,19.341534563903807,27.513709768676758,18.718954563903807,27.307969768676756C18.048804563903808,27.08649976867676,17.375854563903808,26.567209768676758,16.753874563903807,25.839349768676758C16.139084563903808,25.119909768676756,15.628914563903809,24.260339768676758,15.270014563903809,23.470749768676757C15.270014563903809,23.470749768676757,13.449281463903809,24.298359768676757,13.449281463903809,24.298359768676757C13.449281463903809,24.298359768676757,13.449281463903809,24.298359768676757,13.449281463903809,24.298359768676757Z" fill="#000000" fill-opacity="1"/></g><g transform="matrix(-1,0,0,1,98.0672378540039,0)"><path d="M50.94422892700195,23.470749768676757C50.715688927001956,22.967968668676757,50.12283892700195,22.74565276867676,49.620058927001956,22.974186668676758C49.117277827001956,23.20272376867676,48.89496192700195,23.795573768676757,49.12349582700195,24.298359768676757C49.12349582700195,24.298359768676757,50.94422892700195,23.470749768676757,50.94422892700195,23.470749768676757C50.94422892700195,23.470749768676757,50.94422892700195,23.470749768676757,50.94422892700195,23.470749768676757ZM61.20091892700195,24.363399768676757C61.465418927001956,23.87855676867676,61.28671892700196,23.27111976867676,60.80191892700195,23.00665676867676C60.31701892700195,22.74219276867676,59.709618927001955,22.920851668676757,59.44521892700195,23.40570076867676C59.44521892700195,23.40570076867676,61.20091892700195,24.363399768676757,61.20091892700195,24.363399768676757C61.20091892700195,24.363399768676757,61.20091892700195,24.363399768676757,61.20091892700195,24.363399768676757ZM49.12349582700195,24.298359768676757C49.54407792700195,25.22362976867676,50.14857892700195,26.250409768676757,50.90762892700195,27.138659768676757C51.659478927001956,28.01848976867676,52.61954892700195,28.828219768676757,53.76560892700195,29.206959768676757C54.95922892700195,29.60140976867676,56.26657892700195,29.49680976867676,57.56783892700195,28.68908976867676C58.82672892700195,27.907669768676758,60.03661892700195,26.49801976867676,61.20091892700195,24.363399768676757C61.20091892700195,24.363399768676757,59.44521892700195,23.40570076867676,59.44521892700195,23.40570076867676C58.364588927001954,25.386759768676757,57.36074892700195,26.46366976867676,56.51306892700195,26.989829768676756C55.70776892700195,27.489699768676758,55.01574892700195,27.513709768676758,54.39316892700195,27.307969768676756C53.72301892700195,27.08649976867676,53.05006892700195,26.567209768676758,52.42808892700195,25.839349768676758C51.81329892700195,25.119909768676756,51.30312892700195,24.260339768676758,50.94422892700195,23.470749768676757C50.94422892700195,23.470749768676757,49.12349582700195,24.298359768676757,49.12349582700195,24.298359768676757C49.12349582700195,24.298359768676757,49.12349582700195,24.298359768676757,49.12349582700195,24.298359768676757Z" fill="#000000" fill-opacity="1"/></g><g><path d="M22.42319477294922,39.3111171862793C22.16089477294922,38.9905328862793,21.68838277294922,38.9432808862793,21.36779977294922,39.2055771862793C21.04721547294922,39.4678731862793,20.99996347294922,39.940390186279295,21.262259772949218,40.2609721862793C21.262259772949218,40.2609721862793,22.42319477294922,39.3111171862793,22.42319477294922,39.3111171862793C22.42319477294922,39.3111171862793,22.42319477294922,39.3111171862793,22.42319477294922,39.3111171862793ZM41.08070477294922,40.316372186279295C41.37360477294922,40.023482186279296,41.37360477294922,39.548608186279296,41.08070477294922,39.255715186279296C40.787804772949215,38.96282188627929,40.31290477294922,38.96282188627929,40.02000477294922,39.255715186279296C40.02000477294922,39.255715186279296,41.08070477294922,40.316372186279295,41.08070477294922,40.316372186279295C41.08070477294922,40.316372186279295,41.08070477294922,40.316372186279295,41.08070477294922,40.316372186279295ZM21.262259772949218,40.2609721862793C22.74835477294922,42.0773121862793,25.51406477294922,44.25722218627929,29.02777477294922,44.8968321862793C32.59470477294922,45.5461421862793,36.81170477294922,44.5853021862793,41.08070477294922,40.316372186279295C41.08070477294922,40.316372186279295,40.02000477294922,39.255715186279296,40.02000477294922,39.255715186279296C36.05760477294922,43.218142186279294,32.32380477294922,43.972172186279295,29.296404772949217,43.4210821862793C26.215664772949218,42.8602821862793,23.74323477294922,40.9245021862793,22.42319477294922,39.3111171862793C22.42319477294922,39.3111171862793,21.262259772949218,40.2609721862793,21.262259772949218,40.2609721862793C21.262259772949218,40.2609721862793,21.262259772949218,40.2609721862793,21.262259772949218,40.2609721862793Z" fill="#000000" fill-opacity="1"/></g></g></svg>