<svg xmlns="http://www.w3.org/2000/svg" xmlns:xlink="http://www.w3.org/1999/xlink" fill="none" version="1.1" width="55.252197265625" height="48.265289306640625" viewBox="0 0 55.252197265625 48.265289306640625"><g><g><path d="M26.108938531701266,0.95017504296875C26.108938531701266,0.95017504296875,0.5241255017012668,15.94816904296875,0.5241255017012668,15.94816904296875C0.5122952017012667,15.95506904296875,0.5107941017012667,15.97156904296875,0.5211806017012668,15.98056904296875C0.5211806017012668,15.98056904296875,27.626138531701265,39.34676904296875,27.626138531701265,39.34676904296875C27.626138531701265,39.34676904296875,54.731038531701266,15.98056904296875,54.731038531701266,15.98056904296875C54.74143853170127,15.97156904296875,54.73993853170127,15.95506904296875,54.728038531701266,15.94816904296875C54.728038531701266,15.94816904296875,29.143238531701268,0.95017504296875,29.143238531701268,0.95017504296875C28.206438531701266,0.40096704296874996,27.045838531701268,0.40096704296874996,26.108938531701266,0.95017504296875C26.108938531701266,0.95017504296875,26.108938531701266,0.95017504296875,26.108938531701266,0.95017504296875Z" fill="#C2D9D4" fill-opacity="1"/><path d="M29.396038531701265,0.51883544296875L29.396038531701265,0.51882644296875Q27.626138531701265,-0.51880095703125,25.856038531701266,0.51882424296875L0.27126453170126674,15.51686904296875Q0.04065053170126676,15.65136904296875,0.016375531701266766,15.91836904296875Q-0.007765468298733258,16.18386904296875,0.19374653170126677,16.35846904296875L27.626138531701265,40.00696904296875L55.057438531701266,16.359269042968748Q55.26023853170127,16.18386904296875,55.235738531701266,15.91776904296875Q55.211138531701266,15.65036904296875,54.97873853170127,15.51566904296875L29.396038531701265,0.51883544296875ZM26.361738531701267,1.38152604296875Q27.626138531701265,0.64036004296875,28.890338531701268,1.38151404296875L53.89613853170127,16.04016904296875L27.626138531701265,38.68666904296875L1.355997531701267,16.04016904296875L26.361738531701267,1.38152604296875Z" fill-rule="evenodd" fill="#000000" fill-opacity="1"/></g><g><rect x="6.112287521362305" y="15.962295532226562" width="43.02757263183594" height="22.449169158935547" rx="2" fill="#FFFFFF" fill-opacity="1"/><rect x="5.612287521362305" y="15.462295532226562" width="44.02757263183594" height="23.449169158935547" rx="2.5" fill-opacity="0" stroke-opacity="1" stroke="#000000" fill="none" stroke-width="1"/></g><g><path d="M14.530740737915039,21.074583053588867C14.254598737915039,21.074583053588867,14.030740737915039,21.298441053588867,14.030740737915039,21.574583053588867C14.030740737915039,21.850725053588867,14.254598737915039,22.074583053588867,14.530740737915039,22.074583053588867C14.530740737915039,22.074583053588867,14.530740737915039,21.074583053588867,14.530740737915039,21.074583053588867C14.530740737915039,21.074583053588867,14.530740737915039,21.074583053588867,14.530740737915039,21.074583053588867ZM40.72144073791504,22.074583053588867C40.99754073791504,22.074583053588867,41.22144073791504,21.850725053588867,41.22144073791504,21.574583053588867C41.22144073791504,21.298441053588867,40.99754073791504,21.074583053588867,40.72144073791504,21.074583053588867C40.72144073791504,21.074583053588867,40.72144073791504,22.074583053588867,40.72144073791504,22.074583053588867C40.72144073791504,22.074583053588867,40.72144073791504,22.074583053588867,40.72144073791504,22.074583053588867ZM14.530740737915039,22.074583053588867C14.530740737915039,22.074583053588867,40.72144073791504,22.074583053588867,40.72144073791504,22.074583053588867C40.72144073791504,22.074583053588867,40.72144073791504,21.074583053588867,40.72144073791504,21.074583053588867C40.72144073791504,21.074583053588867,14.530740737915039,21.074583053588867,14.530740737915039,21.074583053588867C14.530740737915039,21.074583053588867,14.530740737915039,22.074583053588867,14.530740737915039,22.074583053588867C14.530740737915039,22.074583053588867,14.530740737915039,22.074583053588867,14.530740737915039,22.074583053588867Z" fill="#000000" fill-opacity="1"/></g><g><path d="M22.013776779174805,26.686870574951172C21.737634779174805,26.686870574951172,21.513776779174805,26.91072857495117,21.513776779174805,27.186870574951172C21.513776779174805,27.463012574951172,21.737634779174805,27.686870574951172,22.013776779174805,27.686870574951172C22.013776779174805,27.686870574951172,22.013776779174805,26.686870574951172,22.013776779174805,26.686870574951172C22.013776779174805,26.686870574951172,22.013776779174805,26.686870574951172,22.013776779174805,26.686870574951172ZM33.23837677917481,27.686870574951172C33.51447677917481,27.686870574951172,33.73837677917481,27.463012574951172,33.73837677917481,27.186870574951172C33.73837677917481,26.91072857495117,33.51447677917481,26.686870574951172,33.23837677917481,26.686870574951172C33.23837677917481,26.686870574951172,33.23837677917481,27.686870574951172,33.23837677917481,27.686870574951172C33.23837677917481,27.686870574951172,33.23837677917481,27.686870574951172,33.23837677917481,27.686870574951172ZM22.013776779174805,27.686870574951172C22.013776779174805,27.686870574951172,33.23837677917481,27.686870574951172,33.23837677917481,27.686870574951172C33.23837677917481,27.686870574951172,33.23837677917481,26.686870574951172,33.23837677917481,26.686870574951172C33.23837677917481,26.686870574951172,22.013776779174805,26.686870574951172,22.013776779174805,26.686870574951172C22.013776779174805,26.686870574951172,22.013776779174805,27.686870574951172,22.013776779174805,27.686870574951172C22.013776779174805,27.686870574951172,22.013776779174805,27.686870574951172,22.013776779174805,27.686870574951172Z" fill="#000000" fill-opacity="1"/></g><g><path d="M0.5,44.76533577575684C0.5,44.76533577575684,0.5,16.001471675756836,0.5,16.001471675756836C0.5,15.985144735756837,0.5185066,15.975697135756835,0.5317305,15.985273035756835C0.5317305,15.985273035756835,27.0396,35.18063577575684,27.0396,35.18063577575684C27.3895,35.43403577575684,27.8626,35.43403577575684,28.2126,35.18063577575684C28.2126,35.18063577575684,54.7204,15.985272735756835,54.7204,15.985272735756835C54.7337,15.975696835756835,54.7522,15.985143435756836,54.7522,16.001470375756835C54.7522,16.001470375756835,54.7522,44.76533577575684,54.7522,44.76533577575684C54.7522,46.422135775756836,53.409,47.76533577575684,51.7522,47.76533577575684C51.7522,47.76533577575684,3.5,47.76533577575684,3.5,47.76533577575684C1.84315,47.76533577575684,0.5,46.422135775756836,0.5,44.76533577575684C0.5,44.76533577575684,0.5,44.76533577575684,0.5,44.76533577575684Z" fill="#ECF9F2" fill-opacity="1"/><path d="M1.025126,47.24013577575684Q2.0502599999999997,48.26533577575684,3.5,48.26533577575684L51.7522,48.26533577575684Q53.2019,48.26533577575684,54.2271,47.24013577575684Q55.2522,46.21503577575683,55.2522,44.76533577575684L55.2522,16.001470375756835Q55.2522,15.682894775756836,54.9684,15.538202775756837Q54.6857,15.394088775756837,54.4272,15.580301775756835L27.9194,34.77563577575684Q27.6261,34.98793577575684,27.3329,34.77563577575684L0.8249850000000001,15.580301775756835Q0.5671231,15.393574775756836,0.283565,15.538331775756836Q0,15.683092775756837,0,16.001471675756836L0,44.76533577575684Q0,46.21503577575683,1.025126,47.24013577575684ZM51.7522,47.26533577575684L3.5,47.26533577575684Q2.46448,47.26533577575684,1.73224,46.53303577575684Q1,45.80083577575684,1,44.76533577575684L1,16.941691775756837L26.7463,35.58553577575684Q27.626,36.222635775756835,28.5058,35.585635775756835L54.2522,16.941640775756834L54.2522,44.76533577575684Q54.2522,45.80083577575684,53.52,46.53303577575684Q52.7877,47.26533577575684,51.7522,47.26533577575684Z" fill-rule="evenodd" fill="#000000" fill-opacity="1"/></g></g></svg>