<svg xmlns="http://www.w3.org/2000/svg" xmlns:xlink="http://www.w3.org/1999/xlink" fill="none" version="1.1" width="59.685546875" height="60.95683288574219" viewBox="0 0 59.685546875 60.95683288574219"><defs><mask id="master_svg0_0_1169" style="mask-type:alpha" maskUnits="userSpaceOnUse"><g><path d="M1.2831117421875,56.98007758178711C1.2831117421875,56.98007758178711,19.6627357421875,21.34051288178711,19.6627357421875,21.34051288178711C19.6689357421875,21.32850302178711,19.6850357421875,21.32596572178711,19.6946357421875,21.33548282178711C19.6946357421875,21.33548282178711,39.9202357421875,41.401077581787106,39.9202357421875,41.401077581787106C39.9299357421875,41.41067758178711,39.9273357421875,41.42687758178711,39.9152357421875,41.43307758178711C39.9152357421875,41.43307758178711,3.9658857421875,59.680177581787106,3.9658857421875,59.680177581787106C2.2352057421875,60.55867758178711,0.3935217421875,58.70507758178711,1.2831117421875,56.98007758178711C1.2831117421875,56.98007758178711,1.2831117421875,56.98007758178711,1.2831117421875,56.98007758178711Z" fill="#FFFFFF" fill-opacity="1"/></g></mask></defs><g><g><path d="M1.2831117421875,56.98007758178711C1.2831117421875,56.98007758178711,19.6627357421875,21.34051288178711,19.6627357421875,21.34051288178711C19.6689357421875,21.32850302178711,19.6850357421875,21.32596572178711,19.6946357421875,21.33548282178711C19.6946357421875,21.33548282178711,39.9202357421875,41.401077581787106,39.9202357421875,41.401077581787106C39.9299357421875,41.41067758178711,39.9273357421875,41.42687758178711,39.9152357421875,41.43307758178711C39.9152357421875,41.43307758178711,3.9658857421875,59.680177581787106,3.9658857421875,59.680177581787106C2.2352057421875,60.55867758178711,0.3935217421875,58.70507758178711,1.2831117421875,56.98007758178711C1.2831117421875,56.98007758178711,1.2831117421875,56.98007758178711,1.2831117421875,56.98007758178711Z" fill="#DAADFF" fill-opacity="1"/><path d="M0.3943387421875,56.52167758178711Q-0.6064442578125,58.46237758178711,0.9325137421875,60.01127758178711Q2.4714957421875,61.56017758178711,4.4184957421875,60.571877581787106L40.3712357421875,42.32307758178711Q40.8329357421875,42.08647758178711,40.9137357421875,41.57407758178711Q40.9951357421875,41.057977581787114,40.6245357421875,40.69117758178711L20.3986357421875,20.62530458178711Q20.0318357421875,20.261687581787108,19.5216357421875,20.34212658178711Q19.0111357421875,20.42261458178711,18.7739357421875,20.88216458178711L0.3943387421875,56.52167758178711ZM19.1946357421875,22.248112581787108L1.2831117421875,56.98007758178711C0.3935217421875,58.70507758178711,2.2352057421875,60.55867758178711,3.9658857421875,59.680177581787106L39.0006357421875,41.89737758178711L39.0370357421875,41.87887758178711L39.9152357421875,41.43307758178711C39.9273357421875,41.42687758178711,39.9299357421875,41.41067758178711,39.9202357421875,41.401077581787106L39.2213357421875,40.70767758178711L39.1921357421875,40.67867758178711L20.4195357421875,22.05468958178711L20.3933357421875,22.02863758178711L19.6946357421875,21.33548282178711C19.6850357421875,21.32596572178711,19.6689357421875,21.32850302178711,19.6627357421875,21.34051288178711L19.2116357421875,22.21527058178711L19.1946357421875,22.248112581787108Z" fill-rule="evenodd" fill="#000000" fill-opacity="1"/></g><g mask="url(#master_svg0_0_1169)"><g><path d="M24.431482315063477,22.996567010879517C24.431482315063477,22.444282010879515,23.983762315063476,21.996567010879517,23.431482315063477,21.996567010879517C22.879197315063475,21.996567010879517,22.431482315063477,22.444282010879515,22.431482315063477,22.996567010879517C22.431482315063477,22.996567010879517,24.431482315063477,22.996567010879517,24.431482315063477,22.996567010879517C24.431482315063477,22.996567010879517,24.431482315063477,22.996567010879517,24.431482315063477,22.996567010879517ZM22.431482315063477,51.794267010879516C22.431482315063477,52.34656701087952,22.879197315063475,52.794267010879516,23.431482315063477,52.794267010879516C23.983762315063476,52.794267010879516,24.431482315063477,52.34656701087952,24.431482315063477,51.794267010879516C24.431482315063477,51.794267010879516,22.431482315063477,51.794267010879516,22.431482315063477,51.794267010879516C22.431482315063477,51.794267010879516,22.431482315063477,51.794267010879516,22.431482315063477,51.794267010879516ZM22.431482315063477,22.996567010879517C22.431482315063477,22.996567010879517,22.431482315063477,51.794267010879516,22.431482315063477,51.794267010879516C22.431482315063477,51.794267010879516,24.431482315063477,51.794267010879516,24.431482315063477,51.794267010879516C24.431482315063477,51.794267010879516,24.431482315063477,22.996567010879517,24.431482315063477,22.996567010879517C24.431482315063477,22.996567010879517,22.431482315063477,22.996567010879517,22.431482315063477,22.996567010879517C22.431482315063477,22.996567010879517,22.431482315063477,22.996567010879517,22.431482315063477,22.996567010879517Z" fill="#BB43BF" fill-opacity="1"/></g><g><path d="M33.45743751525879,32.18413066864014C33.45743751525879,31.631845668640135,33.00971751525879,31.184130668640137,32.45743751525879,31.184130668640137C31.905152515258788,31.184130668640137,31.45743751525879,31.631845668640135,31.45743751525879,32.18413066864014C31.45743751525879,32.18413066864014,33.45743751525879,32.18413066864014,33.45743751525879,32.18413066864014C33.45743751525879,32.18413066864014,33.45743751525879,32.18413066864014,33.45743751525879,32.18413066864014ZM31.45743751525879,45.830730668640136C31.45743751525879,46.38303066864014,31.905152515258788,46.830730668640136,32.45743751525879,46.830730668640136C33.00971751525879,46.830730668640136,33.45743751525879,46.38303066864014,33.45743751525879,45.830730668640136C33.45743751525879,45.830730668640136,31.45743751525879,45.830730668640136,31.45743751525879,45.830730668640136C31.45743751525879,45.830730668640136,31.45743751525879,45.830730668640136,31.45743751525879,45.830730668640136ZM31.45743751525879,32.18413066864014C31.45743751525879,32.18413066864014,31.45743751525879,45.830730668640136,31.45743751525879,45.830730668640136C31.45743751525879,45.830730668640136,33.45743751525879,45.830730668640136,33.45743751525879,45.830730668640136C33.45743751525879,45.830730668640136,33.45743751525879,32.18413066864014,33.45743751525879,32.18413066864014C33.45743751525879,32.18413066864014,31.45743751525879,32.18413066864014,31.45743751525879,32.18413066864014C31.45743751525879,32.18413066864014,31.45743751525879,32.18413066864014,31.45743751525879,32.18413066864014Z" fill="#BB43BF" fill-opacity="1"/></g><g><path d="M15.883318901062012,26.568308353424072C15.883318901062012,26.01602335342407,15.435598901062011,25.568308353424072,14.883318901062012,25.568308353424072C14.331033901062012,25.568308353424072,13.883318901062012,26.01602335342407,13.883318901062012,26.568308353424072C13.883318901062012,26.568308353424072,15.883318901062012,26.568308353424072,15.883318901062012,26.568308353424072C15.883318901062012,26.568308353424072,15.883318901062012,26.568308353424072,15.883318901062012,26.568308353424072ZM13.883318901062012,56.50740835342407C13.883318901062012,57.05970835342407,14.331033901062012,57.50740835342407,14.883318901062012,57.50740835342407C15.435598901062011,57.50740835342407,15.883318901062012,57.05970835342407,15.883318901062012,56.50740835342407C15.883318901062012,56.50740835342407,13.883318901062012,56.50740835342407,13.883318901062012,56.50740835342407C13.883318901062012,56.50740835342407,13.883318901062012,56.50740835342407,13.883318901062012,56.50740835342407ZM13.883318901062012,26.568308353424072C13.883318901062012,26.568308353424072,13.883318901062012,56.50740835342407,13.883318901062012,56.50740835342407C13.883318901062012,56.50740835342407,15.883318901062012,56.50740835342407,15.883318901062012,56.50740835342407C15.883318901062012,56.50740835342407,15.883318901062012,26.568308353424072,15.883318901062012,26.568308353424072C15.883318901062012,26.568308353424072,13.883318901062012,26.568308353424072,13.883318901062012,26.568308353424072C13.883318901062012,26.568308353424072,13.883318901062012,26.568308353424072,13.883318901062012,26.568308353424072Z" fill="#BB43BF" fill-opacity="1"/></g><g><path d="M6.775718450546265,42.21307563781738C6.775718450546265,41.660790637817385,6.327998450546264,41.21307563781738,5.775718450546265,41.21307563781738C5.223433450546264,41.21307563781738,4.775718450546265,41.660790637817385,4.775718450546265,42.21307563781738C4.775718450546265,42.21307563781738,6.775718450546265,42.21307563781738,6.775718450546265,42.21307563781738C6.775718450546265,42.21307563781738,6.775718450546265,42.21307563781738,6.775718450546265,42.21307563781738ZM4.775718450546265,58.99277563781738C4.775718450546265,59.54507563781738,5.223433450546264,59.99277563781738,5.775718450546265,59.99277563781738C6.327998450546264,59.99277563781738,6.775718450546265,59.54507563781738,6.775718450546265,58.99277563781738C6.775718450546265,58.99277563781738,4.775718450546265,58.99277563781738,4.775718450546265,58.99277563781738C4.775718450546265,58.99277563781738,4.775718450546265,58.99277563781738,4.775718450546265,58.99277563781738ZM4.775718450546265,42.21307563781738C4.775718450546265,42.21307563781738,4.775718450546265,58.99277563781738,4.775718450546265,58.99277563781738C4.775718450546265,58.99277563781738,6.775718450546265,58.99277563781738,6.775718450546265,58.99277563781738C6.775718450546265,58.99277563781738,6.775718450546265,42.21307563781738,6.775718450546265,42.21307563781738C6.775718450546265,42.21307563781738,4.775718450546265,42.21307563781738,4.775718450546265,42.21307563781738C4.775718450546265,42.21307563781738,4.775718450546265,42.21307563781738,4.775718450546265,42.21307563781738Z" fill="#BB43BF" fill-opacity="1"/></g></g><g><path d="M25.87229932116699,23.728272273254394C25.87229932116699,23.728272273254394,25.742582321166992,12.578572273254395,25.742582321166992,12.578572273254395C25.742582321166992,12.578572273254395,29.910372321166992,12.983657273254394,29.910372321166992,12.983657273254394C29.910372321166992,12.983657273254394,25.87229932116699,23.728272273254394,25.87229932116699,23.728272273254394C25.87229932116699,23.728272273254394,25.87229932116699,23.728272273254394,25.87229932116699,23.728272273254394Z" fill="#1D1D1D" fill-opacity="1"/></g><g transform="matrix(0.7776083946228027,0.628748893737793,-0.628748893737793,0.7776083946228027,18.09280933210266,-23.514150642859477)"><path d="M43.052161218261716,32.85545651092529C43.052161218261716,32.85545651092529,42.28618621826172,13.819056510925293,42.28618621826172,13.819056510925293C42.28618621826172,13.819056510925293,48.22556621826172,14.293036510925292,48.22556621826172,14.293036510925292C48.22556621826172,14.293036510925292,43.052161218261716,32.85545651092529,43.052161218261716,32.85545651092529C43.052161218261716,32.85545651092529,43.052161218261716,32.85545651092529,43.052161218261716,32.85545651092529Z" fill="#1D1D1D" fill-opacity="1"/></g><g><path d="M46.93468453979492,29.348491668701172C46.93468453979492,29.348491668701172,36.67118453979492,34.24149166870117,36.67118453979492,34.24149166870117C36.67118453979492,34.24149166870117,46.93468453979492,34.24149166870117,46.93468453979492,34.24149166870117C46.93468453979492,34.24149166870117,46.93468453979492,29.348491668701172,46.93468453979492,29.348491668701172C46.93468453979492,29.348491668701172,46.93468453979492,29.348491668701172,46.93468453979492,29.348491668701172Z" fill="#1D1D1D" fill-opacity="1"/></g><g transform="matrix(0.6907561421394348,0.7230877876281738,-0.7230877876281738,0.6907561421394348,16.193194206941598,-36.43338194663829)"><path d="M56.258667093505856,1.0195566669921874C56.39743709350586,0.6136586669921875,56.97149709350586,0.6136596669921875,57.11026709350586,1.0195566669921874C57.11026709350586,1.0195566669921874,58.22947709350586,4.293103666992188,58.22947709350586,4.293103666992188C58.29172709350586,4.475183666992187,58.46285709350586,4.5975236669921875,58.65527709350586,4.5975236669921875C58.65527709350586,4.5975236669921875,62.22637709350586,4.5975236669921875,62.22637709350586,4.5975236669921875C62.66787709350586,4.5975236669921875,62.84537709350586,5.167003666992188,62.48207709350586,5.417833666992188C62.48207709350586,5.417833666992188,59.633107093505856,7.384993666992187,59.633107093505856,7.384993666992187C59.46730709350586,7.499483666992187,59.39780709350586,7.710223666992188,59.46300709350586,7.900883666992187C59.46300709350586,7.900883666992187,60.56040709350586,11.110733666992187,60.56040709350586,11.110733666992187C60.70067709350586,11.521333666992188,60.23600709350586,11.873133666992187,59.87890709350586,11.626533666992188C59.87890709350586,11.626533666992188,56.94015709350586,9.597463666992187,56.94015709350586,9.597463666992187C56.78625709350586,9.491203666992188,56.58267709350586,9.491203666992188,56.42878709350586,9.597463666992187C56.42878709350586,9.597463666992187,53.49004709350586,11.626533666992188,53.49004709350586,11.626533666992188C53.13296709350586,11.873133666992187,52.66818709350586,11.521233666992188,52.80856709350586,11.110733666992187C52.80856709350586,11.110733666992187,53.90597709350586,7.900883666992187,53.90597709350586,7.900883666992187C53.97116709350586,7.710223666992188,53.90166709350586,7.499483666992187,53.73586709350586,7.384993666992187C53.73586709350586,7.384993666992187,50.88683309350586,5.417833666992188,50.88683309350586,5.417833666992188C50.52356309350586,5.167003666992188,50.70107291350586,4.5975236669921875,51.14252309350586,4.5975236669921875C51.14252309350586,4.5975236669921875,54.71365709350586,4.5975236669921875,54.71365709350586,4.5975236669921875C54.90607709350586,4.5975236669921875,55.07720709350586,4.475183666992187,55.13945709350586,4.293103666992188C55.13945709350586,4.293103666992188,56.258667093505856,1.0195566669921874,56.258667093505856,1.0195566669921874C56.258667093505856,1.0195566669921874,56.258667093505856,1.0195566669921874,56.258667093505856,1.0195566669921874Z" fill="#FDF724" fill-opacity="1"/><path d="M50.235559093505856,4.764833666992187Q50.02755909350586,5.432133666992187,50.60274019350586,5.829283666992188L53.42061709350586,7.774933666992188L52.33546709350586,10.948933666992188Q52.11315709350586,11.599033666992188,52.660977093505856,12.013733666992188Q53.20880709350586,12.428433666992188,53.77413709350586,12.038033666992188L56.68446709350586,10.028533666992187L59.59478709350586,12.037933666992188Q60.16015709350586,12.428433666992188,60.70797709350586,12.013733666992188Q61.25567709350586,11.599133666992188,61.03347709350586,10.949033666992188L59.94835709350586,7.774933666992188L62.76617709350586,5.8292936669921875Q63.341377093505855,5.432153666992187,63.13337709350586,4.764833666992187Q62.92537709350586,4.0975236669921875,62.22637709350586,4.0975236669921875L58.69101709350586,4.0975236669921875L57.58337709350586,0.8578066669921875Q57.36365709350586,0.2151336669921875,56.68446709350586,0.2151336669921875Q56.00526709350586,0.2151336669921875,55.78554709350586,0.8578016669921875L55.78554709350586,0.8578066669921875L54.67790709350586,4.0975236669921875L51.14252309350586,4.0975236669921875Q50.44355909350586,4.0975236669921875,50.235559093505856,4.764833666992187ZM57.11026709350586,1.0195566669921874C56.97149709350586,0.6136596669921875,56.39743709350586,0.6136586669921875,56.258667093505856,1.0195566669921874L55.13945709350586,4.293103666992188C55.07720709350586,4.475183666992187,54.90607709350586,4.5975236669921875,54.71365709350586,4.5975236669921875L51.14252309350586,4.5975236669921875C50.70107291350586,4.5975236669921875,50.52356309350586,5.167003666992188,50.88683309350586,5.417833666992188L53.73586709350586,7.384993666992187C53.90166709350586,7.499483666992187,53.97116709350586,7.710223666992188,53.90597709350586,7.900883666992187L52.80856709350586,11.110733666992187C52.66818709350586,11.521233666992188,53.13296709350586,11.873133666992187,53.49004709350586,11.626533666992188L56.42878709350586,9.597463666992187C56.58267709350586,9.491203666992188,56.78625709350586,9.491203666992188,56.94015709350586,9.597463666992187L59.87890709350586,11.626533666992188C60.23600709350586,11.873133666992187,60.70067709350586,11.521333666992188,60.56040709350586,11.110733666992187L59.46300709350586,7.900883666992187C59.39780709350586,7.710223666992188,59.46730709350586,7.499483666992187,59.633107093505856,7.384993666992187L62.48207709350586,5.417833666992188C62.84537709350586,5.167003666992188,62.66787709350586,4.5975236669921875,62.22637709350586,4.5975236669921875L58.65527709350586,4.5975236669921875C58.46285709350586,4.5975236669921875,58.29172709350586,4.475183666992187,58.22947709350586,4.293103666992188L57.11026709350586,1.0195566669921874Z" fill-rule="evenodd" fill="#000000" fill-opacity="1"/></g><g><path d="M28.109745915527345,3.5264969862976074C28.170695915527343,3.3445245862976076,28.428075915527344,3.3445255862976073,28.489035915527342,3.5264969862976074C28.489035915527342,3.5264969862976074,29.20958591552734,5.677747986297607,29.20958591552734,5.677747986297607C29.23689591552734,5.759277986297608,29.313255915527343,5.814227986297608,29.399235915527342,5.814227986297608C29.399235915527342,5.814227986297608,31.717765915527345,5.814227986297608,31.717765915527345,5.814227986297608C31.912985915527344,5.814227986297608,31.992545915527344,6.065247986297607,31.832985915527345,6.177707986297607C31.832985915527345,6.177707986297607,29.967815915527343,7.4922579862976075,29.967815915527343,7.4922579862976075C29.895575915527346,7.5431679862976075,29.865315915527344,7.635457986297608,29.893385915527343,7.719257986297608C29.893385915527343,7.719257986297608,30.608275915527344,9.853557986297607,30.608275915527344,9.853557986297607C30.669635915527344,10.036757986297609,30.461325915527343,10.191857986297608,30.303405915527343,10.080557986297608C30.303405915527343,10.080557986297608,28.414605915527343,8.749347986297607,28.414605915527343,8.749347986297607C28.345505915527344,8.700657986297607,28.253265915527344,8.700657986297607,28.184165915527345,8.749347986297607C28.184165915527345,8.749347986297607,26.295365915527345,10.080557986297608,26.295365915527345,10.080557986297608C26.137445915527344,10.191857986297608,25.929145915527343,10.036757986297609,25.990505915527343,9.853557986297607C25.990505915527343,9.853557986297607,26.705385915527344,7.719257986297608,26.705385915527344,7.719257986297608C26.733455915527344,7.635457986297608,26.703195915527346,7.5431679862976075,26.630955915527345,7.4922579862976075C26.630955915527345,7.4922579862976075,24.765787015527344,6.177707986297607,24.765787015527344,6.177707986297607C24.606222015527344,6.065247986297607,24.685790055527345,5.814227986297608,24.881003915527344,5.814227986297608C24.881003915527344,5.814227986297608,27.199535915527342,5.814227986297608,27.199535915527342,5.814227986297608C27.285515915527345,5.814227986297608,27.361875915527342,5.759277986297608,27.389185915527342,5.677747986297607C27.389185915527342,5.677747986297607,28.109745915527345,3.5264969862976074,28.109745915527345,3.5264969862976074C28.109745915527345,3.5264969862976074,28.109745915527345,3.5264969862976074,28.109745915527345,3.5264969862976074Z" fill="#FDF724" fill-opacity="1"/><path d="M24.213725915527345,5.802707986297607Q24.058885915527345,6.2911979862976075,24.477743915527345,6.586397986297607L26.160325915527345,7.772267986297607L25.516390915527342,9.694757986297606Q25.355322915527342,10.175647986297609,25.762095915527343,10.478527986297607Q26.168865915527345,10.781417986297608,26.583405915527344,10.489247986297608L28.299385915527346,9.279847986297607L30.015365915527344,10.489247986297608Q30.429895915527343,10.781407986297609,30.836675915527344,10.478537986297606Q31.243455915527342,10.175657986297608,31.082385915527343,9.694747986297607L30.438445915527343,7.772267986297607L32.121035915527344,6.586397986297607Q32.53987591552735,6.291187986297608,32.38504591552734,5.8027179862976075Q32.23020591552734,5.314227986297608,31.717765915527345,5.314227986297608L29.615125915527344,5.314227986297608L28.963135915527346,3.3676725862976076Q28.803125915527342,2.8900189862976076,28.299385915527346,2.8900179862976074Q27.795625915527346,2.8900169862976073,27.635635915527345,3.3676932862976074L26.983645915527344,5.314227986297608L24.881003915527344,5.314227986297608Q24.368565915527345,5.314227986297608,24.213725915527345,5.802707986297607ZM28.489035915527342,3.5264969862976074C28.428075915527344,3.3445255862976073,28.170695915527343,3.3445245862976076,28.109745915527345,3.5264969862976074L28.038025915527342,3.7406039862976073L28.035735915527344,3.7474439862976077L27.389185915527342,5.677747986297607C27.361875915527342,5.759277986297608,27.285515915527345,5.814227986297608,27.199535915527342,5.814227986297608L24.881003915527344,5.814227986297608C24.685790055527345,5.814227986297608,24.606222015527344,6.065247986297607,24.765787015527344,6.177707986297607L24.950975915527344,6.308227986297608L24.959490915527343,6.314227986297608L26.630955915527345,7.4922579862976075C26.703195915527346,7.5431679862976075,26.733455915527344,7.635457986297608,26.705385915527344,7.719257986297608L26.064975915527345,9.631227986297606L26.062305915527343,9.639177986297607L25.990505915527343,9.853557986297607C25.929145915527343,10.036757986297609,26.137445915527344,10.191857986297608,26.295365915527345,10.080557986297608L26.480165915527344,9.950307986297608L26.487015915527344,9.945477986297607L28.184165915527345,8.749347986297607C28.253265915527344,8.700657986297607,28.345505915527344,8.700657986297607,28.414605915527343,8.749347986297607L30.111765915527343,9.945487986297607L30.118615915527343,9.950317986297607L30.303405915527343,10.080557986297608C30.461325915527343,10.191857986297608,30.669635915527344,10.036757986297609,30.608275915527344,9.853557986297607L30.536465915527344,9.639177986297607L30.533805915527346,9.631237986297608L29.893385915527343,7.719257986297608C29.865315915527344,7.635457986297608,29.895575915527346,7.5431679862976075,29.967815915527343,7.4922579862976075L31.639275915527342,6.314227986297608L31.647795915527343,6.308227986297608L31.832985915527345,6.177707986297607C31.992545915527344,6.065247986297607,31.912985915527344,5.814227986297608,31.717765915527345,5.814227986297608L29.399235915527342,5.814227986297608C29.313255915527343,5.814227986297608,29.23689591552734,5.759277986297608,29.20958591552734,5.677747986297607L28.563035915527344,3.7474459862976075L28.56074591552734,3.7406049862976074L28.489035915527342,3.5264969862976074Z" fill-rule="evenodd" fill="#000000" fill-opacity="1"/></g><g><path d="M20.201491779174805,12.482061962036132C20.262441779174804,12.300089962036132,20.519831779174805,12.300089962036132,20.580781779174806,12.482061962036132C20.580781779174806,12.482061962036132,20.893931779174803,13.417002962036133,20.893931779174803,13.417002962036133C20.921241779174807,13.498532962036133,20.997601779174804,13.553482962036133,21.083581779174803,13.553482962036133C21.083581779174803,13.553482962036133,22.083741779174805,13.553482962036133,22.083741779174805,13.553482962036133C22.278951779174804,13.553482962036133,22.358521779174804,13.804502962036132,22.198961779174805,13.916962962036132C22.198961779174805,13.916962962036132,21.400371779174804,14.479792962036132,21.400371779174804,14.479792962036132C21.328141779174803,14.530702962036132,21.297881779174805,14.622992962036133,21.325951779174805,14.706792962036133C21.325951779174805,14.706792962036133,21.633431779174806,15.624792962036132,21.633431779174806,15.624792962036132C21.694791779174803,15.807982962036133,21.486491779174806,15.963092962036132,21.328571779174805,15.851792962036132C21.328571779174805,15.851792962036132,20.506351779174803,15.272302962036132,20.506351779174803,15.272302962036132C20.437261779174804,15.223602962036132,20.345011779174804,15.223602962036132,20.275921779174805,15.272302962036132C20.275921779174805,15.272302962036132,19.453702779174805,15.851792962036132,19.453702779174805,15.851792962036132C19.295782779174804,15.963092962036132,19.087482779174806,15.807992962036133,19.148842779174803,15.624792962036132C19.148842779174803,15.624792962036132,19.456322779174805,14.706792962036133,19.456322779174805,14.706792962036133C19.484392779174804,14.622992962036133,19.454132779174806,14.530702962036132,19.381892779174805,14.479792962036132C19.381892779174805,14.479792962036132,18.583313379174804,13.916962962036132,18.583313379174804,13.916962962036132C18.423747379174806,13.804502962036132,18.503316359174804,13.553482962036133,18.698530779174806,13.553482962036133C18.698530779174806,13.553482962036133,19.698691779174805,13.553482962036133,19.698691779174805,13.553482962036133C19.784671779174804,13.553482962036133,19.861021779174806,13.498532962036133,19.888331779174806,13.417002962036133C19.888331779174806,13.417002962036133,20.201491779174805,12.482061962036132,20.201491779174805,12.482061962036132C20.201491779174805,12.482061962036132,20.201491779174805,12.482061962036132,20.201491779174805,12.482061962036132Z" fill="#FDF724" fill-opacity="1"/><path d="M18.028053779174805,13.957792962036132Q18.097274779174803,14.186112962036132,18.295269779174806,14.325652962036132L18.911264779174804,14.759802962036133L18.674728779174806,15.465992962036132Q18.598517779174806,15.693532962036134,18.675956779174804,15.916952962036133Q18.746401779174803,16.120182962036132,18.920429779174803,16.249762962036133Q19.094458779174804,16.379342962036134,19.309358779174804,16.388582962036132Q19.545601779174806,16.398722962036132,19.741741779174806,16.260482962036132L20.391141779174806,15.802802962036132L21.040531779174806,16.260482962036132Q21.236681779174805,16.39873296203613,21.472921779174804,16.388572962036132Q21.687821779174804,16.379342962036134,21.861851779174806,16.249752962036133Q22.035871779174805,16.120172962036133,22.106311779174803,15.916942962036133Q22.183761779174805,15.693522962036132,22.107541779174806,15.465992962036132L21.871011779174804,14.759792962036133L22.487011779174804,14.325652962036132Q22.685001779174804,14.186102962036133,22.754221779174806,13.957782962036132Q22.817091779174802,13.750392962036132,22.751021779174806,13.541962962036132Q22.684941779174807,13.333527962036133,22.514081779174806,13.200233962036133Q22.325971779174804,13.053480962036133,22.083741779174805,13.053480962036133L21.299471779174805,13.053480962036133L21.054891779174806,12.323262062036132Q20.979141779174803,12.097098962036133,20.784371779174805,11.965450962036133Q20.607021779174804,11.845582962036133,20.391141779174806,11.845582962036133Q20.175251779174804,11.845582962036133,19.997911779174803,11.965450962036133Q19.803131779174805,12.097098962036133,19.727381779174806,12.323257462036132L19.482791779174804,13.053480962036133L18.698530779174806,13.053480962036133Q18.456299879174804,13.053480962036133,18.268186779174805,13.200231962036133Q18.097322779174803,13.333526962036133,18.031251779174806,13.541962962036132Q17.965180779174805,13.750402962036134,18.028053779174805,13.957792962036132ZM20.580781779174806,12.482061962036132C20.519831779174805,12.300089962036132,20.262441779174804,12.300089962036132,20.201491779174805,12.482061962036132L20.129781779174806,12.696167962036133L20.127481779174804,12.703008962036133L19.888331779174806,13.417002962036133C19.861021779174806,13.498532962036133,19.784671779174804,13.553482962036133,19.698691779174805,13.553482962036133L18.698530779174806,13.553482962036133C18.503316359174804,13.553482962036133,18.423747379174806,13.804502962036132,18.583313379174804,13.916962962036132L18.768501779174805,14.047482962036133L18.777016779174804,14.053482962036133L19.381892779174805,14.479792962036132C19.454132779174806,14.530702962036132,19.484392779174804,14.622992962036133,19.456322779174805,14.706792962036133L19.223308779174804,15.402462962036132L19.220648779174805,15.410412962036133L19.148842779174803,15.624792962036132C19.087482779174806,15.807992962036133,19.295782779174804,15.963092962036132,19.453702779174805,15.851792962036132L19.638501779174806,15.721542962036132L19.645351779174806,15.716712962036134L20.275921779174805,15.272302962036132C20.345011779174804,15.223602962036132,20.437261779174804,15.223602962036132,20.506351779174803,15.272302962036132L21.136921779174806,15.716712962036134L21.143771779174806,15.721542962036132L21.328571779174805,15.851792962036132C21.486491779174806,15.963092962036132,21.694791779174803,15.807982962036133,21.633431779174806,15.624792962036132L21.561621779174803,15.410412962036133L21.558961779174805,15.402462962036132L21.325951779174805,14.706792962036133C21.297881779174805,14.622992962036133,21.328141779174803,14.530702962036132,21.400371779174804,14.479792962036132L22.005251779174806,14.053482962036133L22.013771779174803,14.047482962036133L22.198961779174805,13.916962962036132C22.358521779174804,13.804502962036132,22.278951779174804,13.553482962036133,22.083741779174805,13.553482962036133L21.083581779174803,13.553482962036133C20.997601779174804,13.553482962036133,20.921241779174807,13.498532962036133,20.893931779174803,13.417002962036133L20.654791779174804,12.703010962036133L20.652491779174806,12.696170962036133L20.580781779174806,12.482061962036132Z" fill-rule="evenodd" fill="#000000" fill-opacity="1"/></g><g><path d="M52.60304633056641,28.130535701660158C52.663996330566405,27.948563301660155,52.921386330566406,27.948564301660156,52.982336330566405,28.130535701660158C52.982336330566405,28.130535701660158,53.48771633056641,29.639376701660154,53.48771633056641,29.639376701660154C53.51502633056641,29.720906701660155,53.59138633056641,29.775856701660157,53.67736633056641,29.775856701660157C53.67736633056641,29.775856701660157,55.29957633056641,29.775856701660157,55.29957633056641,29.775856701660157C55.49479633056641,29.775856701660157,55.5743563305664,30.026866701660158,55.4147963305664,30.139326701660156C55.4147963305664,30.139326701660156,54.11296633056641,31.056846701660156,54.11296633056641,31.056846701660156C54.04072633056641,31.107756701660158,54.01046633056641,31.200046701660156,54.03853633056641,31.283846701660156C54.03853633056641,31.283846701660156,54.53824633056641,32.775746701660154,54.53824633056641,32.775746701660154C54.5996063305664,32.95893670166016,54.391296330566405,33.11404670166016,54.23337633056641,33.002736701660154C54.23337633056641,33.002736701660154,52.907906330566405,32.06856670166016,52.907906330566405,32.06856670166016C52.83881633056641,32.019866701660156,52.74656633056641,32.019866701660156,52.67747633056641,32.06856670166016C52.67747633056641,32.06856670166016,51.352006330566404,33.002736701660154,51.352006330566404,33.002736701660154C51.19408633056641,33.114036701660154,50.985783330566406,32.95893670166016,51.047143330566406,32.775746701660154C51.047143330566406,32.775746701660154,51.546856330566406,31.283846701660156,51.546856330566406,31.283846701660156C51.57491633056641,31.200046701660156,51.54466633056641,31.107756701660158,51.47242633056641,31.056846701660156C51.47242633056641,31.056846701660156,50.170587930566406,30.139326701660156,50.170587930566406,30.139326701660156C50.01102193056641,30.026866701660158,50.090590910566405,29.775856701660157,50.285805330566404,29.775856701660157C50.285805330566404,29.775856701660157,51.90802633056641,29.775856701660157,51.90802633056641,29.775856701660157C51.993996330566404,29.775856701660157,52.070356330566405,29.720906701660155,52.097666330566405,29.639376701660154C52.097666330566405,29.639376701660154,52.60304633056641,28.130535701660158,52.60304633056641,28.130535701660158C52.60304633056641,28.130535701660158,52.60304633056641,28.130535701660158,52.60304633056641,28.130535701660158Z" fill="#FDF724" fill-opacity="1"/><path d="M49.61852733056641,29.764326701660156Q49.46368233056641,30.252806701660155,49.882544330566404,30.548016701660156L51.00179533056641,31.336856701660157L50.573032330566406,32.61693670166016Q50.41195533056641,33.09783670166016,50.818735330566405,33.40071670166016Q51.225506330566404,33.70358670166016,51.640046330566406,33.411426701660154L52.792686330566404,32.599066701660156L53.945316330566406,33.41141670166016Q54.35985633056641,33.703606701660156,54.7666463305664,33.40071670166016Q55.17342633056641,33.09783670166016,55.012356330566405,32.616946701660154L54.583586330566405,31.336856701660157L55.70284633056641,30.548016701660156Q56.121686330566405,30.252806701660155,55.96685633056641,29.764336701660156Q55.81201633056641,29.275856701660157,55.29957633056641,29.275856701660157L53.89325633056641,29.275856701660157L53.45644633056641,27.971734801660155Q53.296446330566404,27.494057701660157,52.792686330566404,27.494056701660156Q52.288926330566404,27.494055701660155,52.12892633056641,27.971733501660157L51.69211633056641,29.275856701660157L50.285805330566404,29.275856701660157Q49.773371330566405,29.275856701660157,49.61852733056641,29.764326701660156ZM52.982336330566405,28.130535701660158C52.921386330566406,27.948564301660156,52.663996330566405,27.948563301660155,52.60304633056641,28.130535701660158L52.53132633056641,28.344643701660157L52.529036330566406,28.351484701660155L52.097666330566405,29.639376701660154C52.070356330566405,29.720906701660155,51.993996330566404,29.775856701660157,51.90802633056641,29.775856701660157L50.285805330566404,29.775856701660157C50.090590910566405,29.775856701660157,50.01102193056641,30.026866701660158,50.170587930566406,30.139326701660156L50.35578733056641,30.269856701660157L50.36430533056641,30.275856701660157L51.47242633056641,31.056846701660156C51.54466633056641,31.107756701660158,51.57491633056641,31.200046701660156,51.546856330566406,31.283846701660156L51.121616330566404,32.55340670166016L51.118956330566405,32.56135670166016L51.047143330566406,32.775746701660154C50.985783330566406,32.95893670166016,51.19408633056641,33.114036701660154,51.352006330566404,33.002736701660154L51.53680633056641,32.87248670166016L51.54365633056641,32.86765670166015L52.67747633056641,32.06856670166016C52.74656633056641,32.019866701660156,52.83881633056641,32.019866701660156,52.907906330566405,32.06856670166016L54.041726330566405,32.867666701660156L54.048576330566405,32.872496701660154L54.23337633056641,33.002736701660154C54.391296330566405,33.11404670166016,54.5996063305664,32.95893670166016,54.53824633056641,32.775746701660154L54.46643633056641,32.56135670166016L54.463776330566404,32.553416701660154L54.03853633056641,31.283846701660156C54.01046633056641,31.200046701660156,54.04072633056641,31.107756701660158,54.11296633056641,31.056846701660156L55.221076330566405,30.275856701660157L55.22959633056641,30.269856701660157L55.4147963305664,30.139326701660156C55.5743563305664,30.026866701660158,55.49479633056641,29.775856701660157,55.29957633056641,29.775856701660157L53.67736633056641,29.775856701660157C53.59138633056641,29.775856701660157,53.51502633056641,29.720906701660155,53.48771633056641,29.639376701660154L53.05633633056641,28.351483701660158L53.05404633056641,28.344643701660157L52.982336330566405,28.130535701660158Z" fill-rule="evenodd" fill="#000000" fill-opacity="1"/></g><g transform="matrix(0.9007468819618225,0.4343443810939789,-0.4343443810939789,0.9007468819618225,20.884682514144174,-16.146352157995352)"><path d="M47.559218815917966,37.692091276123044C47.58969881591797,37.60110527612305,47.71838881591797,37.60110527612305,47.748868815917966,37.692091276123044C47.748868815917966,37.692091276123044,48.126398815917966,38.81921177612305,48.126398815917966,38.81921177612305C48.14004881591797,38.85997177612305,48.17822881591797,38.887451776123044,48.22121881591797,38.887451776123044C48.22121881591797,38.887451776123044,49.436298815917965,38.887451776123044,49.436298815917965,38.887451776123044C49.53390881591797,38.887451776123044,49.57369881591797,39.01296177612305,49.49390881591797,39.06919177612305C49.49390881591797,39.06919177612305,48.51616881591797,39.758291776123045,48.51616881591797,39.758291776123045C48.48004881591797,39.78375177612305,48.46491881591797,39.82989177612305,48.47895881591797,39.87179177612305C48.47895881591797,39.87179177612305,48.85364881591797,40.99044177612305,48.85364881591797,40.99044177612305C48.88432881591797,41.08204177612305,48.78017881591797,41.159591776123044,48.70121881591797,41.103941776123044C48.70121881591797,41.103941776123044,47.71164881591797,40.40651177612305,47.71164881591797,40.40651177612305C47.67710881591797,40.38216177612305,47.63097881591797,40.38216177612305,47.59643881591797,40.40651177612305C47.59643881591797,40.40651177612305,46.60687381591797,41.103941776123044,46.60687381591797,41.103941776123044C46.52791381591797,41.159591776123044,46.42376681591797,41.08204177612305,46.45444381591797,40.99044177612305C46.45444381591797,40.99044177612305,46.82912881591797,39.87179177612305,46.82912881591797,39.87179177612305C46.84316881591797,39.82989177612305,46.82803881591797,39.78375177612305,46.79191881591797,39.758291776123045C46.79191881591797,39.758291776123045,45.81417941591797,39.06919177612305,45.81417941591797,39.06919177612305C45.73439641591797,39.01296177612305,45.77418145591797,38.887451776123044,45.87178881591797,38.887451776123044C45.87178881591797,38.887451776123044,47.08686881591797,38.887451776123044,47.08686881591797,38.887451776123044C47.12985881591797,38.887451776123044,47.16803881591797,38.85997177612305,47.181688815917965,38.81921177612305C47.181688815917965,38.81921177612305,47.559218815917966,37.692091276123044,47.559218815917966,37.692091276123044C47.559218815917966,37.692091276123044,47.559218815917966,37.692091276123044,47.559218815917966,37.692091276123044Z" fill="#FDF724" fill-opacity="1"/><path d="M45.297302815917966,39.16214177612305Q45.35685881591797,39.358581776123046,45.526136815917965,39.477891776123045L46.26042781591797,39.99541177612305L45.98032481591797,40.83166177612305Q45.84228461591797,41.24384177612305,46.19092981591797,41.50345177612304Q46.53959281591797,41.76307177612305,46.89491881591797,41.51264177612305L47.65404881591797,40.977621776123044L48.413178815917966,41.51264177612305Q48.768498815917965,41.763061776123045,49.11716881591797,41.50345177612304Q49.465828815917966,41.24384177612305,49.32776881591797,40.83164177612305L49.047668815917966,39.99541177612305L49.78193881591797,39.47790177612305Q49.95122881591797,39.358601776123045,50.01078881591797,39.162151776123046Q50.06471881591797,38.984271776123045,50.00825881591797,38.80614177612305Q49.95179881591797,38.628031776123045,49.80523881591797,38.513709776123044Q49.643388815917966,38.38745577612305,49.436298815917965,38.38745577612305L48.50908881591797,38.38745577612305L48.22297881591797,37.53326787612305Q48.08582881591797,37.12385177612305,47.65404881591797,37.12385177612305Q47.22226881591797,37.12385177612305,47.085118815917966,37.53326787612305L47.08510881591797,37.53328797612305L46.79900881591797,38.38745577612305L45.87178881591797,38.38745577612305Q45.66469281591797,38.38745577612305,45.50284381591797,38.513717776123045Q45.35629481591797,38.62804177612305,45.299835815917966,38.806151776123045Q45.24337681591797,38.984271776123045,45.297302815917966,39.16214177612305ZM47.748868815917966,37.692091276123044C47.71838881591797,37.60110527612305,47.58969881591797,37.60110527612305,47.559218815917966,37.692091276123044L47.43339881591797,38.06773977612305L47.39039881591797,38.19612577612305L47.181688815917965,38.81921177612305C47.16803881591797,38.85997177612305,47.12985881591797,38.887451776123044,47.08686881591797,38.887451776123044L45.87178881591797,38.887451776123044C45.77418145591797,38.887451776123044,45.73439641591797,39.01296177612305,45.81417941591797,39.06919177612305L46.13827281591797,39.29761177612305L46.265748815917966,39.387451776123044L46.79191881591797,39.758291776123045C46.82803881591797,39.78375177612305,46.84316881591797,39.82989177612305,46.82912881591797,39.87179177612305L46.62577781591797,40.478921776123045L46.58031081591797,40.61466177612305L46.45444381591797,40.99044177612305C46.42376681591797,41.08204177612305,46.52791381591797,41.159591776123044,46.60687381591797,41.103941776123044L46.93080881591797,40.87564177612305L47.04781881591797,40.793171776123046L47.59643881591797,40.40651177612305C47.63097881591797,40.38216177612305,47.67710881591797,40.38216177612305,47.71164881591797,40.40651177612305L48.26027881591797,40.793171776123046L48.37728881591797,40.87564177612305L48.70121881591797,41.103941776123044C48.78017881591797,41.159591776123044,48.88432881591797,41.08204177612305,48.85364881591797,40.99044177612305L48.72778881591797,40.61466177612305L48.68231881591797,40.478921776123045L48.47895881591797,39.87179177612305C48.46491881591797,39.82989177612305,48.48004881591797,39.78375177612305,48.51616881591797,39.758291776123045L49.04234881591797,39.387451776123044L49.16981881591797,39.29761177612305L49.49390881591797,39.06919177612305C49.57369881591797,39.01296177612305,49.53390881591797,38.887451776123044,49.436298815917965,38.887451776123044L48.22121881591797,38.887451776123044C48.17822881591797,38.887451776123044,48.14004881591797,38.85997177612305,48.126398815917966,38.81921177612305L47.917698815917966,38.19612577612305L47.87469881591797,38.06773977612305L47.748868815917966,37.692091276123044Z" fill-rule="evenodd" fill="#000000" fill-opacity="1"/></g><g transform="matrix(0.9007468819618225,0.4343443810939789,-0.4343443810939789,0.9007468819618225,7.621848568758111,-14.624911995991113)"><path d="M37.59879248535156,9.432877828552247C37.629272485351564,9.341891828552246,37.75796248535156,9.341891828552246,37.78844248535156,9.432877828552247C37.78844248535156,9.432877828552247,38.16597248535156,10.559998328552247,38.16597248535156,10.559998328552247C38.179622485351565,10.600758328552246,38.21780248535156,10.628238328552246,38.260792485351566,10.628238328552246C38.260792485351566,10.628238328552246,39.47587248535156,10.628238328552246,39.47587248535156,10.628238328552246C39.57348248535156,10.628238328552246,39.613272485351565,10.753748328552247,39.53348248535156,10.809978328552246C39.53348248535156,10.809978328552246,38.555742485351566,11.499078328552246,38.555742485351566,11.499078328552246C38.51962248535156,11.524538328552246,38.50449248535156,11.570678328552246,38.518532485351564,11.612578328552246C38.518532485351564,11.612578328552246,38.893222485351565,12.731228328552247,38.893222485351565,12.731228328552247C38.92390248535156,12.822828328552246,38.819752485351565,12.900378328552247,38.74079248535156,12.844728328552247C38.74079248535156,12.844728328552247,37.75122248535156,12.147298328552246,37.75122248535156,12.147298328552246C37.71668248535156,12.122948328552246,37.670552485351564,12.122948328552246,37.636012485351564,12.147298328552246C37.636012485351564,12.147298328552246,36.646447485351565,12.844728328552247,36.646447485351565,12.844728328552247C36.56748748535156,12.900378328552247,36.463340485351566,12.822828328552246,36.49401748535156,12.731228328552247C36.49401748535156,12.731228328552247,36.86870248535156,11.612578328552246,36.86870248535156,11.612578328552246C36.882742485351564,11.570678328552246,36.867612485351565,11.524538328552246,36.83149248535156,11.499078328552246C36.83149248535156,11.499078328552246,35.85375308535156,10.809978328552246,35.85375308535156,10.809978328552246C35.773970085351564,10.753748328552247,35.81375512535156,10.628238328552246,35.91136248535156,10.628238328552246C35.91136248535156,10.628238328552246,37.12644248535156,10.628238328552246,37.12644248535156,10.628238328552246C37.169432485351564,10.628238328552246,37.20761248535156,10.600758328552246,37.22126248535156,10.559998328552247C37.22126248535156,10.559998328552247,37.59879248535156,9.432877828552247,37.59879248535156,9.432877828552247C37.59879248535156,9.432877828552247,37.59879248535156,9.432877828552247,37.59879248535156,9.432877828552247Z" fill="#FDF724" fill-opacity="1"/><path d="M35.33687648535156,10.902928328552246Q35.39643248535156,11.099368328552247,35.56571048535156,11.218678328552246L36.300001485351565,11.736198328552247L36.01989848535156,12.572448328552246Q35.88185828535156,12.984628328552246,36.23050348535156,13.244238328552246Q36.579166485351564,13.503858328552246,36.93449248535156,13.253428328552246L37.69362248535156,12.718408328552247L38.45275248535156,13.253428328552246Q38.80807248535156,13.503848328552246,39.156742485351565,13.244238328552246Q39.50540248535156,12.984628328552246,39.367342485351564,12.572428328552245L39.08724248535156,11.736198328552247L39.82151248535156,11.218688328552247Q39.990802485351566,11.099388328552246,40.05036248535156,10.902938328552246Q40.104292485351564,10.725058328552246,40.04783248535156,10.546928328552246Q39.99137248535156,10.368818328552246,39.84481248535156,10.254496328552246Q39.68296248535156,10.128242328552247,39.47587248535156,10.128242328552247L38.548662485351564,10.128242328552247L38.26255248535156,9.274054428552246Q38.125402485351565,8.864638328552246,37.69362248535156,8.864638328552246Q37.261842485351565,8.864638328552246,37.12469248535156,9.274054428552246L37.12468248535156,9.274074528552246L36.838582485351566,10.128242328552247L35.91136248535156,10.128242328552247Q35.70426648535156,10.128242328552247,35.542417485351564,10.254504328552246Q35.39586848535156,10.368828328552246,35.33940948535156,10.546938328552246Q35.28295048535156,10.725058328552246,35.33687648535156,10.902928328552246ZM37.78844248535156,9.432877828552247C37.75796248535156,9.341891828552246,37.629272485351564,9.341891828552246,37.59879248535156,9.432877828552247L37.47297248535156,9.808526328552245L37.42997248535156,9.936912328552246L37.22126248535156,10.559998328552247C37.20761248535156,10.600758328552246,37.169432485351564,10.628238328552246,37.12644248535156,10.628238328552246L35.91136248535156,10.628238328552246C35.81375512535156,10.628238328552246,35.773970085351564,10.753748328552247,35.85375308535156,10.809978328552246L36.177846485351566,11.038398328552246L36.30532248535156,11.128238328552246L36.83149248535156,11.499078328552246C36.867612485351565,11.524538328552246,36.882742485351564,11.570678328552246,36.86870248535156,11.612578328552246L36.665351485351565,12.219708328552246L36.61988448535156,12.355448328552246L36.49401748535156,12.731228328552247C36.463340485351566,12.822828328552246,36.56748748535156,12.900378328552247,36.646447485351565,12.844728328552247L36.970382485351564,12.616428328552246L37.087392485351565,12.533958328552245L37.636012485351564,12.147298328552246C37.670552485351564,12.122948328552246,37.71668248535156,12.122948328552246,37.75122248535156,12.147298328552246L38.299852485351565,12.533958328552245L38.416862485351565,12.616428328552246L38.74079248535156,12.844728328552247C38.819752485351565,12.900378328552247,38.92390248535156,12.822828328552246,38.893222485351565,12.731228328552247L38.76736248535156,12.355448328552246L38.72189248535156,12.219708328552246L38.518532485351564,11.612578328552246C38.50449248535156,11.570678328552246,38.51962248535156,11.524538328552246,38.555742485351566,11.499078328552246L39.08192248535156,11.128238328552246L39.209392485351565,11.038398328552246L39.53348248535156,10.809978328552246C39.613272485351565,10.753748328552247,39.57348248535156,10.628238328552246,39.47587248535156,10.628238328552246L38.260792485351566,10.628238328552246C38.21780248535156,10.628238328552246,38.179622485351565,10.600758328552246,38.16597248535156,10.559998328552247L37.95727248535156,9.936912328552246L37.91427248535156,9.808526328552245L37.78844248535156,9.432877828552247Z" fill-rule="evenodd" fill="#000000" fill-opacity="1"/></g><g><path d="M46.44180300170898,21.80573521032715C46.50275300170898,21.62376331032715,46.76014300170898,21.62376331032715,46.82109300170899,21.80573421032715C46.82109300170899,21.80573421032715,47.317663001708986,23.288286210327147,47.317663001708986,23.288286210327147C47.344973001708986,23.369806210327148,47.42133300170899,23.42475621032715,47.50731300170899,23.42475621032715C47.50731300170899,23.42475621032715,49.10102300170898,23.42475621032715,49.10102300170898,23.42475621032715C49.29624300170899,23.42475621032715,49.37580300170899,23.67577621032715,49.21624300170898,23.78823621032715C49.21624300170898,23.78823621032715,47.937463001708984,24.68950621032715,47.937463001708984,24.68950621032715C47.86522300170898,24.740416210327147,47.834963001708985,24.83270621032715,47.863033001708985,24.91650621032715C47.863033001708985,24.91650621032715,48.35393300170898,26.382106210327148,48.35393300170898,26.382106210327148C48.415303001708985,26.565306210327147,48.20699300170899,26.72040621032715,48.04907300170898,26.60910621032715C48.04907300170898,26.60910621032715,46.74666300170898,25.69117621032715,46.74666300170898,25.69117621032715C46.677573001708986,25.64248621032715,46.585323001708986,25.64248621032715,46.51622300170899,25.69117621032715C46.51622300170899,25.69117621032715,45.213813001708985,26.60910621032715,45.213813001708985,26.60910621032715C45.05589300170899,26.72040621032715,44.84758900170898,26.565306210327147,44.90894900170898,26.382106210327148C44.90894900170898,26.382106210327148,45.39985300170898,24.91650621032715,45.39985300170898,24.91650621032715C45.42792300170898,24.83270621032715,45.397663001708985,24.740416210327147,45.325423001708984,24.68950621032715C45.325423001708984,24.68950621032715,44.04664380170898,23.78823621032715,44.04664380170898,23.78823621032715C43.88707880170899,23.67577621032715,43.96664783170898,23.42475621032715,44.16186200170898,23.42475621032715C44.16186200170898,23.42475621032715,45.755583001708985,23.42475621032715,45.755583001708985,23.42475621032715C45.841563001708984,23.42475621032715,45.91791300170898,23.369806210327148,45.94522300170898,23.288286210327147C45.94522300170898,23.288286210327147,46.44180300170898,21.80573521032715,46.44180300170898,21.80573521032715C46.44180300170898,21.80573521032715,46.44180300170898,21.80573521032715,46.44180300170898,21.80573521032715Z" fill="#FDF724" fill-opacity="1"/><path d="M43.49458300170898,23.41323621032715Q43.339742001708984,23.901716210327148,43.758600001708984,24.19692621032715L44.85479100170898,24.96951621032715L44.43483500170898,26.22330621032715Q44.27376800170899,26.704196210327147,44.68053600170899,27.00707621032715Q45.087313001708985,27.309966210327147,45.50185300170899,27.01779621032715L46.63144300170899,26.221676210327146L47.761023001708985,27.01779621032715Q48.17556300170899,27.309956210327147,48.582343001708985,27.00708621032715Q48.989133001708986,26.704186210327148,48.828043001708984,26.22330621032715L48.40808300170899,24.96951621032715L49.50429300170899,24.19692621032715Q49.92313300170898,23.901716210327148,49.768303001708986,23.41324621032715Q49.613463001708986,22.92475621032715,49.10102300170898,22.92475621032715L47.72320300170898,22.92475621032715L47.295203001708984,21.64693381032715Q47.13520300170899,21.169255210327147,46.63144300170899,21.16925621032715Q46.12768300170899,21.16925721032715,45.967683001708984,21.646931610327147L45.53968300170899,22.92475621032715L44.16186200170898,22.92475621032715Q43.649425001708984,22.92475621032715,43.49458300170898,23.41323621032715ZM46.82109300170899,21.80573421032715C46.76014300170898,21.62376331032715,46.50275300170898,21.62376331032715,46.44180300170898,21.80573521032715L46.370083001708984,22.01984221032715L46.36779300170898,22.02668321032715L45.94522300170898,23.288286210327147C45.91791300170898,23.369806210327148,45.841563001708984,23.42475621032715,45.755583001708985,23.42475621032715L44.16186200170898,23.42475621032715C43.96664783170898,23.42475621032715,43.88707880170899,23.67577621032715,44.04664380170898,23.78823621032715L44.23183200170899,23.91875621032715L44.24034700170898,23.92475621032715L45.325423001708984,24.68950621032715C45.397663001708985,24.740416210327147,45.42792300170898,24.83270621032715,45.39985300170898,24.91650621032715L44.98341300170898,26.15977621032715L44.98075300170898,26.16772621032715L44.90894900170898,26.382106210327148C44.84758900170898,26.565306210327147,45.05589300170899,26.72040621032715,45.213813001708985,26.60910621032715L45.39861300170899,26.478856210327148L45.40546300170899,26.47402621032715L46.51622300170899,25.69117621032715C46.585323001708986,25.64248621032715,46.677573001708986,25.64248621032715,46.74666300170898,25.69117621032715L47.857413001708984,26.47402621032715L47.864263001708984,26.478856210327148L48.04907300170898,26.60910621032715C48.20699300170899,26.72040621032715,48.415303001708985,26.565306210327147,48.35393300170898,26.382106210327148L48.28212300170898,26.16772621032715L48.27946300170898,26.15977621032715L47.863033001708985,24.91650621032715C47.834963001708985,24.83270621032715,47.86522300170898,24.740416210327147,47.937463001708984,24.68950621032715L49.022533001708986,23.92475621032715L49.03105300170898,23.91875621032715L49.21624300170898,23.78823621032715C49.37580300170899,23.67577621032715,49.29624300170899,23.42475621032715,49.10102300170898,23.42475621032715L47.50731300170899,23.42475621032715C47.42133300170899,23.42475621032715,47.344973001708986,23.369806210327148,47.317663001708986,23.288286210327147L46.895093001708986,22.026684210327147L46.892803001708984,22.019844210327147L46.82109300170899,21.80573421032715Z" fill-rule="evenodd" fill="#000000" fill-opacity="1"/></g></g></svg>