<svg xmlns="http://www.w3.org/2000/svg" xmlns:xlink="http://www.w3.org/1999/xlink" fill="none" version="1.1" width="57.1229248046875" height="57.1229248046875" viewBox="0 0 57.1229248046875 57.1229248046875"><defs><filter id="master_svg0_0_82" filterUnits="objectBoundingBox" color-interpolation-filters="sRGB" x="-2" y="-2" width="10.547674179077148" height="6.806146144866943"><feFlood flood-opacity="0" result="BackgroundImageFix"/><feBlend mode="normal" in="SourceGraphic" in2="BackgroundImageFix" result="shape"/><feGaussianBlur stdDeviation="0.5" result="effect1_foregroundBlur"/></filter><filter id="master_svg1_0_83" filterUnits="objectBoundingBox" color-interpolation-filters="sRGB" x="-2" y="-2" width="10.547674179077148" height="6.806146144866943"><feFlood flood-opacity="0" result="BackgroundImageFix"/><feBlend mode="normal" in="SourceGraphic" in2="BackgroundImageFix" result="shape"/><feGaussianBlur stdDeviation="0.5" result="effect1_foregroundBlur"/></filter><mask id="master_svg2_0_91" style="mask-type:alpha" maskUnits="userSpaceOnUse"><g><path d="M28.56142289276123,46.33372427368164C15.46602289276123,46.33372427368164,14.09579289276123,31.75737427368164,15.94018489276123,30.62945527368164C17.78457289276123,29.50153527368164,22.23773289276123,33.58009427368164,28.561322892761233,33.58009427368164C34.88502289276123,33.58009427368164,39.338122892761234,29.501489273681642,41.18252289276123,30.62943227368164C43.02702289276123,31.75737427368164,41.65682289276123,46.33372427368164,28.56142289276123,46.33372427368164C28.56142289276123,46.33372427368164,28.56142289276123,46.33372427368164,28.56142289276123,46.33372427368164Z" fill="#FFFFFF" fill-opacity="1"/></g></mask></defs><g><g><g><path d="M28.5615,56.6229Q29.2503,56.6229,29.9384,56.5891Q30.6264,56.5553,31.312,56.4878Q31.9975,56.4203,32.6789,56.3192Q33.3603,56.2181,34.036,56.0837Q34.7116,55.9493,35.3798,55.7819Q36.0481,55.6146,36.7073,55.4146Q37.3665,55.2146,38.0151,54.9826Q38.6637,54.7505,39.3001,54.4869Q39.9365,54.2232,40.5593,53.9287Q41.182,53.6342,41.7895,53.3095Q42.3971,52.9847,42.9879,52.6306Q43.5788,52.2764,44.1516,51.8937Q44.7243,51.511,45.2776,51.1006Q45.831,50.6903,46.3635,50.2533Q46.896,49.8162,47.4064,49.3536Q47.9168,48.891,48.4039,48.4039Q48.891,47.9168,49.3536,47.4064Q49.8162,46.896,50.2533,46.3635Q50.6903,45.831,51.1006,45.2776Q51.511,44.7243,51.8937,44.1516Q52.2764,43.5788,52.6306,42.9879Q52.9847,42.3971,53.3095,41.7895Q53.6342,41.182,53.9287,40.5593Q54.2232,39.9365,54.4869,39.3001Q54.7505,38.6637,54.9826,38.0151Q55.2146,37.3665,55.4146,36.7073Q55.6146,36.0481,55.782,35.3798Q55.9493,34.7116,56.0837,34.036Q56.2181,33.3603,56.3192,32.6789Q56.4203,31.9975,56.4878,31.312Q56.5553,30.6264,56.5891,29.9384Q56.6229,29.2503,56.6229,28.5615Q56.6229,27.8726,56.5891,27.1846Q56.5553,26.4965,56.4878,25.811Q56.4203,25.1254,56.3192,24.444Q56.2181,23.7626,56.0837,23.0869Q55.9493,22.4113,55.7819,21.7431Q55.6146,21.0749,55.4146,20.4156Q55.2146,19.7564,54.9826,19.1078Q54.7505,18.4592,54.4869,17.8228Q54.2232,17.1864,53.9287,16.5636Q53.6342,15.9409,53.3095,15.3334Q52.9847,14.7259,52.6306,14.135Q52.2764,13.5441,51.8937,12.9713Q51.511,12.3986,51.1006,11.8453Q50.6903,11.292,50.2533,10.7595Q49.8162,10.22695,49.3536,9.71654Q48.891,9.20612,48.4039,8.71901Q47.9168,8.23191,47.4064,7.76929Q46.896,7.30667,46.3635,6.86966Q45.831,6.43264,45.2776,6.02228Q44.7243,5.61192,44.1516,5.22921Q43.5788,4.84649,42.9879,4.49234Q42.3971,4.13819,41.7895,3.81346Q41.182,3.48873,40.5593,3.1942Q39.9365,2.89967,39.3001,2.63605Q38.6637,2.37243,38.0151,2.1403600000000003Q37.3665,1.90829,36.7073,1.70832Q36.0481,1.50835,35.3798,1.340967Q34.7116,1.173585,34.036,1.039193Q33.3603,0.904801,32.6789,0.803723Q31.9975,0.702645,31.312,0.635124Q30.6264,0.5676025,29.9384,0.5338013Q29.2503,0.5,28.5615,0.5Q27.8726,0.5,27.1846,0.5338013Q26.4965,0.5676025,25.811,0.635124Q25.1254,0.702645,24.444,0.803723Q23.7626,0.904801,23.0869,1.039193Q22.4113,1.173585,21.7431,1.340967Q21.0749,1.50835,20.4156,1.70832Q19.7564,1.90829,19.1078,2.1403600000000003Q18.4592,2.37243,17.8228,2.63605Q17.1864,2.89967,16.5636,3.1942Q15.9409,3.48873,15.3334,3.81346Q14.7259,4.13819,14.135,4.49234Q13.5441,4.84649,12.9713,5.22921Q12.3986,5.61192,11.8453,6.02228Q11.292,6.43264,10.7595,6.86966Q10.22695,7.30667,9.71654,7.76929Q9.20612,8.23191,8.71901,8.71901Q8.23191,9.20612,7.76929,9.71654Q7.30667,10.22695,6.86966,10.7595Q6.43264,11.292,6.02228,11.8453Q5.61192,12.3986,5.22921,12.9713Q4.84649,13.5441,4.49234,14.135Q4.13819,14.7259,3.81346,15.3334Q3.48873,15.9409,3.1942,16.5636Q2.89967,17.1864,2.63605,17.8228Q2.37243,18.4592,2.1403600000000003,19.1078Q1.90829,19.7564,1.70832,20.4156Q1.50835,21.0749,1.340967,21.7431Q1.173585,22.4113,1.039193,23.0869Q0.904801,23.7626,0.803723,24.444Q0.702645,25.1254,0.635124,25.811Q0.5676025,26.4965,0.5338013,27.1846Q0.5,27.8726,0.5,28.5615Q0.5,29.6907,0.5907329,30.8162Q0.681466,31.9418,0.8623449999999999,33.0564Q1.043224,34.171,1.313079,35.2675Q1.58293,36.364,1.94002,37.4353Q2.29711,38.5065,2.73912,39.5456Q3.18113,40.5847,3.7052,41.585Q4.22927,42.5852,4.83202,43.5401Q5.43477,44.495,6.11229,45.3983L4.24153,53.8168L12.0151,51.2256Q12.9088,51.8781,13.8512,52.4582Q14.7935,53.0383,15.7786,53.5424Q16.7637,54.0464,17.7855,54.4714Q18.8072,54.8963,19.8592,55.2395Q20.9113,55.5827,21.9871,55.8419Q23.0629,56.1012,24.1557,56.2749Q25.2486,56.4486,26.3517,56.5358Q27.4549,56.6229,28.5615,56.6229Z" fill-rule="evenodd" fill="#FFCF00" fill-opacity="1"/><path d="M28.5615,56.1229Q33.8186,56.1229,38.7067,54.1878Q44.014,52.0867,48.0504,48.0504Q52.0867,44.0141,54.1878,38.7067Q56.1229,33.8186,56.1229,28.5615Q56.1229,23.3043,54.1878,18.4162Q52.0867,13.1089,48.0504,9.07257Q44.0141,5.03629,38.7067,2.93514Q33.8186,1,28.5615,1Q23.3043,1,18.4162,2.93514Q13.1088,5.03628,9.07257,9.07257Q5.03629,13.1089,2.93514,18.4162Q1,23.3043,1,28.5615Q1,37.7487,6.51229,45.0983L6.65027,45.2823L4.72963,53.9252L4.24153,53.8168L4.08342,53.3424L12.1016,50.6697L12.3099,50.8218Q19.571,56.123,28.5615,56.1229ZM28.5615,57.1229Q19.2449,57.1229,11.7203,51.6294L12.0151,51.2256L12.1732,51.6999L3.56187,54.5704L5.6242,45.2899L6.11229,45.3983L5.71229,45.6983Q0,38.082,0,28.5615Q0,23.1135,2.00535,18.0481Q4.18272,12.5482,8.365459999999999,8.365459999999999Q12.5482,4.182729999999999,18.0481,2.00535Q23.1136,0,28.5615,0Q34.0094,0,39.0748,2.00535Q44.5747,4.182729999999999,48.7575,8.365459999999999Q52.9402,12.5483,55.1176,18.0481Q57.1229,23.1136,57.1229,28.5615Q57.1229,34.0093,55.1176,39.0748Q52.9402,44.5747,48.7575,48.7575Q44.5747,52.9402,39.0748,55.1176Q34.0093,57.1229,28.5615,57.1229Z" fill="#000000" fill-opacity="1"/></g><g transform="matrix(0.9452683925628662,-0.32629382610321045,0.32629382610321045,0.9452683925628662,-9.174016039712683,2.9617471613306066)" filter="url(#master_svg0_0_82)"><ellipse cx="7.515364170074463" cy="30.230347394943237" rx="3.273837089538574" ry="1.4030730724334717" fill="#FF8B72" fill-opacity="1"/></g><g transform="matrix(-0.9452683925628662,-0.3262938857078552,-0.32629382610321045,0.9452683925628662,111.53901523922423,18.70924259862477)" filter="url(#master_svg1_0_83)"><ellipse cx="55.77705669403076" cy="30.230347394943237" rx="3.273837089538574" ry="1.4030730724334717" fill="#FF8B72" fill-opacity="1"/></g><g><path d="M10.984789077526855,22.82586973022461C10.916692077526855,23.23444973022461,11.192707277526855,23.62086973022461,11.601285277526856,23.68896973022461C12.009857277526855,23.75705973022461,12.396287277526856,23.48104973022461,12.464377277526856,23.07246973022461C12.464377277526856,23.07246973022461,10.984789077526855,22.82586973022461,10.984789077526855,22.82586973022461C10.984789077526855,22.82586973022461,10.984789077526855,22.82586973022461,10.984789077526855,22.82586973022461ZM20.338617277526858,23.07246973022461C20.406707277526856,23.48104973022461,20.793127277526857,23.75705973022461,21.201667277526855,23.68896973022461C21.610267277526855,23.62086973022461,21.886267277526855,23.23444973022461,21.818167277526854,22.82586973022461C21.818167277526854,22.82586973022461,20.338617277526858,23.07246973022461,20.338617277526858,23.07246973022461C20.338617277526858,23.07246973022461,20.338617277526858,23.07246973022461,20.338617277526858,23.07246973022461ZM11.724584277526855,22.94916973022461C12.464377277526856,23.07246973022461,12.464347277526855,23.07268973022461,12.464307277526856,23.07287973022461C12.464307277526856,23.07290973022461,12.464277277526856,23.07307973022461,12.464267277526856,23.07315973022461C12.464237277526856,23.07329973022461,12.464227277526856,23.07335973022461,12.464237277526856,23.07333973022461C12.464237277526856,23.07328973022461,12.464307277526856,23.07290973022461,12.464427277526855,23.07220973022461C12.464667277526855,23.07079973022461,12.465137277526855,23.06807973022461,12.465847277526855,23.06408973022461C12.467267277526854,23.05611973022461,12.469617277526856,23.043089730224608,12.472967277526855,23.025349730224608C12.479677277526855,22.98984973022461,12.490347277526855,22.935549730224608,12.505437277526855,22.865169730224608C12.535637277526856,22.724229730224607,12.583307277526856,22.51969973022461,12.651837277526855,22.27297973022461C12.789697277526855,21.776679730224608,13.008117277526855,21.12376973022461,13.330787277526856,20.478439730224608C13.996677277526855,19.14665973022461,14.973537277526855,18.08687973022461,16.401497277526857,18.08687973022461C16.401497277526857,18.08687973022461,16.401497277526857,16.58687973022461,16.401497277526857,16.58687973022461C14.087927277526855,16.58687973022461,12.726337277526856,18.33323973022461,11.989147277526856,19.80761973022461C11.610278277526856,20.56534973022461,11.361006277526856,21.315519730224608,11.206560277526856,21.87151973022461C11.128940277526855,22.15094973022461,11.074300077526855,22.384889730224607,11.038732077526856,22.55086973022461C11.020931077526855,22.63393973022461,11.007857077526856,22.70022973022461,10.999034077526856,22.74693973022461C10.994621077526855,22.770299730224608,10.991268077526856,22.788789730224607,10.988914077526855,22.80204973022461C10.987737077526855,22.808689730224607,10.986810077526856,22.814019730224608,10.986125077526856,22.81799973022461C10.985782077526855,22.81998973022461,10.985500077526856,22.82164973022461,10.985278077526855,22.82295973022461C10.985167077526855,22.82361973022461,10.985070077526855,22.82418973022461,10.984989077526855,22.82467973022461C10.984948077526855,22.824919730224607,10.984898077526855,22.82521973022461,10.984878077526856,22.82533973022461C10.984831077526856,22.82561973022461,10.984789077526855,22.82586973022461,11.724584277526855,22.94916973022461C11.724584277526855,22.94916973022461,11.724584277526855,22.94916973022461,11.724584277526855,22.94916973022461ZM16.401497277526857,18.08687973022461C17.829457277526856,18.08687973022461,18.806317277526855,19.14665973022461,19.472207277526856,20.478439730224608C19.794877277526858,21.12376973022461,20.013287277526857,21.776679730224608,20.151157277526856,22.27297973022461C20.219687277526855,22.51969973022461,20.267357277526855,22.724229730224607,20.297557277526856,22.865169730224608C20.312637277526854,22.935549730224608,20.323317277526854,22.98984973022461,20.330017277526856,23.025349730224608C20.333377277526857,23.043089730224608,20.335727277526857,23.05611973022461,20.337147277526853,23.06408973022461C20.337847277526855,23.06807973022461,20.338317277526855,23.07079973022461,20.338567277526856,23.07220973022461C20.338687277526855,23.07290973022461,20.338747277526856,23.07328973022461,20.338757277526856,23.07333973022461C20.338757277526856,23.07335973022461,20.338747277526856,23.07329973022461,20.338727277526857,23.07315973022461C20.338717277526854,23.07307973022461,20.338687277526855,23.07290973022461,20.338677277526855,23.07287973022461C20.338647277526853,23.07268973022461,20.338617277526858,23.07246973022461,21.078367277526855,22.94916973022461C21.818167277526854,22.82586973022461,21.818167277526854,22.82561973022461,21.818067277526858,22.82533973022461C21.818067277526858,22.82521973022461,21.818067277526858,22.824919730224607,21.817967277526854,22.82467973022461C21.817867277526858,22.82418973022461,21.817767277526855,22.82361973022461,21.817667277526855,22.82295973022461C21.817467277526855,22.82164973022461,21.817167277526856,22.81998973022461,21.816867277526853,22.81799973022461C21.816167277526855,22.814019730224608,21.815267277526857,22.808689730224607,21.814067277526856,22.80204973022461C21.811667277526855,22.788789730224607,21.808367277526855,22.770299730224608,21.803967277526855,22.74693973022461C21.795067277526854,22.70022973022461,21.782067277526856,22.63393973022461,21.764267277526855,22.55086973022461C21.728667277526856,22.384889730224607,21.674067277526856,22.15094973022461,21.596467277526855,21.87151973022461C21.441967277526857,21.315519730224608,21.192667277526855,20.56534973022461,20.813847277526854,19.80761973022461C20.076657277526856,18.33323973022461,18.715067277526856,16.58687973022461,16.401497277526857,16.58687973022461C16.401497277526857,16.58687973022461,16.401497277526857,18.08687973022461,16.401497277526857,18.08687973022461C16.401497277526857,18.08687973022461,16.401497277526857,18.08687973022461,16.401497277526857,18.08687973022461Z" fill="#000000" fill-opacity="1"/></g><g><path d="M35.30472106147461,22.82586973022461C35.23662406147461,23.23444973022461,35.51263926147461,23.62086973022461,35.92121726147461,23.68896973022461C36.32978926147461,23.75705973022461,36.716219261474606,23.48104973022461,36.78430926147461,23.07246973022461C36.78430926147461,23.07246973022461,35.30472106147461,22.82586973022461,35.30472106147461,22.82586973022461C35.30472106147461,22.82586973022461,35.30472106147461,22.82586973022461,35.30472106147461,22.82586973022461ZM44.65854926147461,23.07246973022461C44.72663926147461,23.48104973022461,45.11305926147461,23.75705973022461,45.521599261474606,23.68896973022461C45.93019926147461,23.62086973022461,46.20619926147461,23.23444973022461,46.13809926147461,22.82586973022461C46.13809926147461,22.82586973022461,44.65854926147461,23.07246973022461,44.65854926147461,23.07246973022461C44.65854926147461,23.07246973022461,44.65854926147461,23.07246973022461,44.65854926147461,23.07246973022461ZM36.04451626147461,22.94916973022461C36.78430926147461,23.07246973022461,36.78427926147461,23.07268973022461,36.78423926147461,23.07287973022461C36.78423926147461,23.07290973022461,36.78420926147461,23.07307973022461,36.78419926147461,23.07315973022461C36.78416926147461,23.07329973022461,36.784159261474606,23.07335973022461,36.78416926147461,23.07333973022461C36.78416926147461,23.07328973022461,36.78423926147461,23.07290973022461,36.784359261474606,23.07220973022461C36.78459926147461,23.07079973022461,36.78506926147461,23.06807973022461,36.78577926147461,23.06408973022461C36.78719926147461,23.05611973022461,36.78954926147461,23.043089730224608,36.79289926147461,23.025349730224608C36.79960926147461,22.98984973022461,36.81027926147461,22.935549730224608,36.825369261474606,22.865169730224608C36.855569261474606,22.724229730224607,36.90323926147461,22.51969973022461,36.97176926147461,22.27297973022461C37.10962926147461,21.776679730224608,37.32804926147461,21.12376973022461,37.650719261474606,20.478439730224608C38.31660926147461,19.14665973022461,39.29346926147461,18.08687973022461,40.72142926147461,18.08687973022461C40.72142926147461,18.08687973022461,40.72142926147461,16.58687973022461,40.72142926147461,16.58687973022461C38.40785926147461,16.58687973022461,37.046269261474606,18.33323973022461,36.30907926147461,19.80761973022461C35.930210261474606,20.56534973022461,35.68093826147461,21.315519730224608,35.52649226147461,21.87151973022461C35.44887226147461,22.15094973022461,35.39423206147461,22.384889730224607,35.358664061474606,22.55086973022461C35.34086306147461,22.63393973022461,35.32778906147461,22.70022973022461,35.31896606147461,22.74693973022461C35.31455306147461,22.770299730224608,35.31120006147461,22.788789730224607,35.30884606147461,22.80204973022461C35.30766906147461,22.808689730224607,35.30674206147461,22.814019730224608,35.30605706147461,22.81799973022461C35.30571406147461,22.81998973022461,35.30543206147461,22.82164973022461,35.30521006147461,22.82295973022461C35.30509906147461,22.82361973022461,35.30500206147461,22.82418973022461,35.30492106147461,22.82467973022461C35.30488006147461,22.824919730224607,35.30483006147461,22.82521973022461,35.30481006147461,22.82533973022461C35.30476306147461,22.82561973022461,35.30472106147461,22.82586973022461,36.04451626147461,22.94916973022461C36.04451626147461,22.94916973022461,36.04451626147461,22.94916973022461,36.04451626147461,22.94916973022461ZM40.72142926147461,18.08687973022461C42.14938926147461,18.08687973022461,43.12624926147461,19.14665973022461,43.79213926147461,20.478439730224608C44.11480926147461,21.12376973022461,44.33321926147461,21.776679730224608,44.47108926147461,22.27297973022461C44.53961926147461,22.51969973022461,44.58728926147461,22.724229730224607,44.61748926147461,22.865169730224608C44.63256926147461,22.935549730224608,44.64324926147461,22.98984973022461,44.64994926147461,23.025349730224608C44.65330926147461,23.043089730224608,44.65565926147461,23.05611973022461,44.65707926147461,23.06408973022461C44.65777926147461,23.06807973022461,44.65824926147461,23.07079973022461,44.65849926147461,23.07220973022461C44.65861926147461,23.07290973022461,44.65867926147461,23.07328973022461,44.658689261474606,23.07333973022461C44.658689261474606,23.07335973022461,44.65867926147461,23.07329973022461,44.65865926147461,23.07315973022461C44.65864926147461,23.07307973022461,44.65861926147461,23.07290973022461,44.65860926147461,23.07287973022461C44.65857926147461,23.07268973022461,44.65854926147461,23.07246973022461,45.398299261474605,22.94916973022461C46.13809926147461,22.82586973022461,46.13809926147461,22.82561973022461,46.13799926147461,22.82533973022461C46.13799926147461,22.82521973022461,46.13799926147461,22.824919730224607,46.13789926147461,22.82467973022461C46.13779926147461,22.82418973022461,46.13769926147461,22.82361973022461,46.137599261474605,22.82295973022461C46.13739926147461,22.82164973022461,46.13709926147461,22.81998973022461,46.13679926147461,22.81799973022461C46.13609926147461,22.814019730224608,46.13519926147461,22.808689730224607,46.133999261474614,22.80204973022461C46.131599261474605,22.788789730224607,46.12829926147461,22.770299730224608,46.123899261474605,22.74693973022461C46.11499926147461,22.70022973022461,46.10199926147461,22.63393973022461,46.08419926147461,22.55086973022461C46.04859926147461,22.384889730224607,45.99399926147461,22.15094973022461,45.91639926147461,21.87151973022461C45.76189926147461,21.315519730224608,45.512599261474605,20.56534973022461,45.13377926147461,19.80761973022461C44.39658926147461,18.33323973022461,43.03499926147461,16.58687973022461,40.72142926147461,16.58687973022461C40.72142926147461,16.58687973022461,40.72142926147461,18.08687973022461,40.72142926147461,18.08687973022461C40.72142926147461,18.08687973022461,40.72142926147461,18.08687973022461,40.72142926147461,18.08687973022461Z" fill="#000000" fill-opacity="1"/></g><g><path d="M28.561317301940917,47.26903215637207C14.618887301940918,47.26903215637207,10.336217301940918,29.99019215637207,12.659964301940917,28.56146215637207C14.983717301940917,27.13273215637207,20.594257301940917,32.29901215637207,28.561317301940917,32.29901215637207C36.52851730194092,32.29901215637207,42.13901730194092,27.13268215637207,44.462817301940916,28.561433156372072C46.78671730194092,29.99019215637207,42.50381730194091,47.26903215637207,28.561317301940917,47.26903215637207C28.561317301940917,47.26903215637207,28.561317301940917,47.26903215637207,28.561317301940917,47.26903215637207Z" fill="#000000" fill-opacity="1"/></g><g><g><path d="M28.56142289276123,46.33372427368164C15.46603289276123,46.33372427368164,14.09579289276123,31.75737427368164,15.94018289276123,30.62945527368164C17.78457289276123,29.50153527368164,22.23773289276123,33.58009427368164,28.561322892761233,33.58009427368164C34.88502289276123,33.58009427368164,39.338122892761234,29.501489273681642,41.18262289276123,30.62943227368164C43.02702289276123,31.75737427368164,41.65682289276123,46.33372427368164,28.56142289276123,46.33372427368164C28.56142289276123,46.33372427368164,28.56142289276123,46.33372427368164,28.56142289276123,46.33372427368164Z" fill="#F5F3F6" fill-opacity="1"/></g><g mask="url(#master_svg2_0_91)"><g><path d="M13.918856182815551,33.79260079151916C13.708344182815551,33.613886191519164,13.392812182815552,33.63966319151916,13.214097182815552,33.85017579151916C13.035382582815553,34.060687791519165,13.061159582815552,34.37621979151916,13.271672182815552,34.554934791519166C13.271672182815552,34.554934791519166,13.918856182815551,33.79260079151916,13.918856182815551,33.79260079151916C13.918856182815551,33.79260079151916,13.918856182815551,33.79260079151916,13.918856182815551,33.79260079151916ZM43.85105418281555,34.554934791519166C44.061554182815556,34.37621979151916,44.08735418281555,34.060687791519165,43.90865418281555,33.85017579151916C43.72995418281555,33.63966319151916,43.41435418281555,33.613886191519164,43.20385418281555,33.79260079151916C43.20385418281555,33.79260079151916,43.85105418281555,34.554934791519166,43.85105418281555,34.554934791519166C43.85105418281555,34.554934791519166,43.85105418281555,34.554934791519166,43.85105418281555,34.554934791519166ZM13.271672182815552,34.554934791519166C15.827494182815553,36.72469779151916,20.40349418281555,39.31288779151917,25.873854182815553,40.06889779151916C31.36395418281555,40.82764779151916,37.746054182815556,39.737797791519164,43.85105418281555,34.554934791519166C43.85105418281555,34.554934791519166,43.20385418281555,33.79260079151916,43.20385418281555,33.79260079151916C37.33605418281555,38.774137791519166,31.24635418281555,39.80187779151917,26.010754182815553,39.07831779151917C20.755414182815553,38.35201779151917,16.35174418281555,35.858007791519164,13.918856182815551,33.79260079151916C13.918856182815551,33.79260079151916,13.271672182815552,34.554934791519166,13.271672182815552,34.554934791519166C13.271672182815552,34.554934791519166,13.271672182815552,34.554934791519166,13.271672182815552,34.554934791519166Z" fill="#000000" fill-opacity="1"/></g></g></g></g></g></svg>