<svg xmlns="http://www.w3.org/2000/svg" xmlns:xlink="http://www.w3.org/1999/xlink" fill="none" version="1.1" width="53.79339599609375" height="55.2396240234375" viewBox="0 0 53.79339599609375 55.2396240234375"><g><g><path d="M44.276816149902345,1.2428252519531249C32.96052614990234,-2.322961748046875,26.257461149902344,8.633288251953125,26.829515949902344,14.616408251953125C31.687726149902343,10.993508251953125,38.595916149902344,3.101668251953125,40.45271614990234,6.184088251953125C42.30961614990234,9.266508251953125,33.94726614990235,12.734308251953125,28.129996149902343,14.992808251953125C40.920416149902344,18.538508251953125,54.48601614990234,4.459778251953125,44.276816149902345,1.2428252519531249C44.276816149902345,1.2428252519531249,44.276816149902345,1.2428252519531249,44.276816149902345,1.2428252519531249Z" fill="#FFE135" fill-opacity="1"/><path d="M26.916496149902343,15.175308251953124L27.996426149902344,15.474608251953125Q32.64535614990234,16.763408251953123,37.628016149902344,15.271608251953126Q42.03961614990234,13.950708251953126,45.170016149902345,11.018708251953125Q48.300116149902344,8.087088251953125,48.359416149902344,5.257498251953125Q48.427116149902346,2.026358251953125,44.427116149902346,0.765938251953125Q36.44391614990234,-1.749571748046875,30.740176149902343,3.996538251953125Q28.471566149902344,6.282008251953125,27.258698149902344,9.315598251953125Q26.097990149902344,12.218708251953124,26.331786149902342,14.664008251953126L26.416331149902344,15.548208251953126L26.916496149902343,15.175308251953124ZM27.949036149902344,14.526708251953124L27.581916149902344,14.669208251953124Q28.936746149902344,13.604908251953125,31.470106149902342,11.364808251953125Q35.408486149902345,7.882188251953125,37.039216149902344,6.859988251953125Q38.276816149902345,6.084188251953125,39.04231614990235,5.995818251953125Q39.709216149902346,5.918828251953125,40.02441614990234,6.442078251953125Q40.50471614990234,7.239398251953125,39.733116149902344,8.237428251953125Q38.93761614990234,9.266408251953125,36.914016149902345,10.467448251953124Q34.09451614990235,12.140808251953125,27.949036149902344,14.526708251953124ZM29.830736149902343,14.859408251953125Q33.47267614990234,15.471808251953124,37.34111614990235,14.313608251953125Q41.52761614990234,13.060208251953124,44.48651614990234,10.288878251953125Q47.30921614990234,7.645098251953125,47.359616149902344,5.236558251953125Q47.41161614990234,2.754848251953125,44.12651614990234,1.719708251953125Q36.72442614990234,-0.6127117480468749,31.449896149902344,4.701018251953125Q29.324586149902345,6.842118251953125,28.187236149902343,9.686838251953125Q27.342035149902344,11.800808251953125,27.295326149902344,13.619408251953125Q28.589606149902345,12.577008251953124,30.807676149902342,10.615608251953125Q34.80767614990234,7.078578251953125,36.50804614990234,6.012698251953125Q37.937316149902344,5.116738251953125,38.92761614990234,5.002408251953125Q40.233816149902346,4.851628251953125,40.881016149902344,5.926088251953125Q41.71441614990234,7.309598251953125,40.52431614990235,8.849058251953124Q39.61211614990234,10.028978251953125,37.424316149902346,11.327408251953125Q34.89904614990235,12.826208251953124,29.830736149902343,14.859408251953125Z" fill-rule="evenodd" fill="#000000" fill-opacity="1"/></g><g transform="matrix(-1,0,0,1,52.5106315612793,0)"><path d="M43.73651578063965,1.2428252519531249C32.42022578063965,-2.322961748046875,25.71716078063965,8.633288251953125,26.28921558063965,14.616408251953125C31.147425780639647,10.993508251953125,38.05561578063965,3.101668251953125,39.91241578063965,6.184088251953125C41.769315780639644,9.266508251953125,33.40696578063965,12.734308251953125,27.589695780639648,14.992808251953125C40.38011578063965,18.538508251953125,53.945715780639645,4.459778251953125,43.73651578063965,1.2428252519531249C43.73651578063965,1.2428252519531249,43.73651578063965,1.2428252519531249,43.73651578063965,1.2428252519531249Z" fill="#FFE135" fill-opacity="1"/><path d="M26.376195780639648,15.175308251953124L27.45612578063965,15.474608251953125Q32.105055780639645,16.763408251953123,37.08771578063965,15.271608251953126Q41.49931578063965,13.950708251953126,44.62971578063965,11.018708251953125Q47.75981578063965,8.087088251953125,47.81911578063965,5.257498251953125Q47.88681578063965,2.026358251953125,43.88681578063965,0.765938251953125Q35.90361578063965,-1.749571748046875,30.199875780639648,3.996538251953125Q27.93126578063965,6.282008251953125,26.71839778063965,9.315598251953125Q25.55768978063965,12.218708251953124,25.791485780639647,14.664008251953126L25.87603078063965,15.548208251953126L26.376195780639648,15.175308251953124ZM27.40873578063965,14.526708251953124L27.04161578063965,14.669208251953124Q28.39644578063965,13.604908251953125,30.929805780639647,11.364808251953125Q34.86818578063965,7.882188251953125,36.49891578063965,6.859988251953125Q37.73651578063965,6.084188251953125,38.50201578063965,5.995818251953125Q39.16891578063965,5.918828251953125,39.48411578063965,6.442078251953125Q39.96441578063965,7.239398251953125,39.19281578063965,8.237428251953125Q38.397315780639644,9.266408251953125,36.37371578063965,10.467448251953124Q33.55421578063965,12.140808251953125,27.40873578063965,14.526708251953124ZM29.290435780639648,14.859408251953125Q32.932375780639646,15.471808251953124,36.80081578063965,14.313608251953125Q40.98731578063965,13.060208251953124,43.94621578063965,10.288878251953125Q46.768915780639645,7.645098251953125,46.81931578063965,5.236558251953125Q46.87131578063965,2.754848251953125,43.58621578063965,1.719708251953125Q36.18412578063965,-0.6127117480468749,30.90959578063965,4.701018251953125Q28.78428578063965,6.842118251953125,27.646935780639648,9.686838251953125Q26.80173478063965,11.800808251953125,26.75502578063965,13.619408251953125Q28.04930578063965,12.577008251953124,30.267375780639647,10.615608251953125Q34.26737578063965,7.078578251953125,35.967745780639646,6.012698251953125Q37.39701578063965,5.116738251953125,38.387315780639646,5.002408251953125Q39.69351578063965,4.851628251953125,40.34071578063965,5.926088251953125Q41.174115780639646,7.309598251953125,39.98401578063965,8.849058251953124Q39.071815780639646,10.028978251953125,36.88401578063965,11.327408251953125Q34.35874578063965,12.826208251953124,29.290435780639648,14.859408251953125Z" fill-rule="evenodd" fill="#000000" fill-opacity="1"/></g><g><path d="M6.274330139160156 26.072673797607422C6.274330139160156 26.072673797607422 6.274330139160156 26.072673797607422 6.274330139160156 26.072673797607422L47.518836975097656 26.072673797607422C47.518836975097656 26.072673797607422 47.518836975097656 26.072673797607422 47.518836975097656 26.072673797607422L47.518836975097656 51.23962593078613C47.518836975097656 52.896480180278516 46.17569122459004 54.23962593078613 44.518836975097656 54.23962593078613L9.274330139160156 54.23962593078613C7.617475889667777 54.23962593078613 6.274330139160156 52.896480180278516 6.274330139160156 51.23962593078613Z" fill="#FF5D20" fill-opacity="1"/><path d="M6.774330139160156 26.572673797607422C6.774330139160156 26.572673797607422 6.774330139160156 26.572673797607422 6.774330139160156 26.572673797607422L47.018836975097656 26.572673797607422C47.018836975097656 26.572673797607422 47.018836975097656 26.572673797607422 47.018836975097656 26.572673797607422L47.018836975097656 50.73962593078613C47.018836975097656 52.396480180278516 45.67569122459004 53.73962593078613 44.018836975097656 53.73962593078613L9.774330139160156 53.73962593078613C8.117475889667777 53.73962593078613 6.774330139160156 52.396480180278516 6.774330139160156 50.73962593078613Z" fill-opacity="0" stroke-opacity="1" stroke="#000000" fill="none" stroke-width="1"/></g><g><rect x="22.158920288085938" y="28.816247940063477" width="9.428618431091309" height="25.423377990722656" rx="0" fill="#FFE135" fill-opacity="1"/></g><g><rect x="1" y="16.28221893310547" width="51.793418884277344" height="12.53387451171875" rx="3.3853836059570312" fill="#FF5D20" fill-opacity="1"/><rect x="0.5" y="15.782218933105469" width="52.793418884277344" height="13.53387451171875" rx="3.8853836059570312" fill-opacity="0" stroke-opacity="1" stroke="#000000" fill="none" stroke-width="1"/></g><g><path d="M37.00978331542969,47.819130575683594C37.068543315429686,47.742971275683594,37.18280331542969,47.741032375683595,37.244113315429686,47.815153575683595C37.244113315429686,47.815153575683595,37.79664331542969,48.48306407568359,37.79664331542969,48.48306407568359C37.81376331542969,48.5037590756836,37.83612331542969,48.519478075683594,37.86139331542969,48.528579075683595C37.86139331542969,48.528579075683595,38.56201331542969,48.78090507568359,38.56201331542969,48.78090507568359C38.655443315429686,48.81455507568359,38.69097331542969,48.92806507568359,38.63340331542969,49.0089850756836C38.63340331542969,49.0089850756836,38.155643315429685,49.68052507568359,38.155643315429685,49.68052507568359C38.13758331542969,49.705925075683595,38.12787331542969,49.73631507568359,38.12787331542969,49.767485075683595C38.12787331542969,49.767485075683595,38.12787331542969,50.5451150756836,38.12787331542969,50.5451150756836C38.12787331542969,50.6474150756836,38.027713315429686,50.71970507568359,37.930623315429685,50.687475075683594C37.930623315429685,50.687475075683594,37.171713315429685,50.43558507568359,37.171713315429685,50.43558507568359C37.14103331542969,50.42540507568359,37.10788331542969,50.42540507568359,37.077203315429685,50.43558507568359C37.077203315429685,50.43558507568359,36.318296315429684,50.687475075683594,36.318296315429684,50.687475075683594C36.22120131542969,50.71970507568359,36.121044315429685,50.6474150756836,36.121044315429685,50.5451150756836C36.121044315429685,50.5451150756836,36.121044315429685,49.767485075683595,36.121044315429685,49.767485075683595C36.121044315429685,49.73631507568359,36.11133631542969,49.705925075683595,36.09326931542969,49.68052507568359C36.09326931542969,49.68052507568359,35.617369315429684,49.01160507568359,35.617369315429684,49.01160507568359C35.559241015429684,48.929895075683596,35.596102355429686,48.81526507568359,35.690957315429685,48.782755075683596C35.690957315429685,48.782755075683596,36.43047331542969,48.529280075683594,36.43047331542969,48.529280075683594C36.45826431542969,48.51975507568359,36.48264631542969,48.50227807568359,36.50059331542969,48.47901807568359C36.50059331542969,48.47901807568359,37.00978331542969,47.819130575683594,37.00978331542969,47.819130575683594C37.00978331542969,47.819130575683594,37.00978331542969,47.819130575683594,37.00978331542969,47.819130575683594Z" fill="#FF9740" fill-opacity="1"/></g><g transform="matrix(0.9503651857376099,0.3111366331577301,-0.3111366331577301,0.9503651857376099,14.264858345994412,-8.880874321830333)"><path d="M36.7826043383789,40.32767941225586C36.841374338378905,40.25151991225586,36.955624338378904,40.24958121225586,37.016944338378906,40.32370241225586C37.016944338378906,40.32370241225586,37.73935433837891,41.19697881225586,37.73935433837891,41.19697881225586C37.75647433837891,41.21766881225586,37.77883433837891,41.23338881225586,37.804104338378906,41.24248881225586C37.804104338378906,41.24248881225586,38.729804338378905,41.57587381225586,38.729804338378905,41.57587381225586C38.82323433837891,41.60952381225586,38.858764338378904,41.72304381225586,38.80120433837891,41.80396381225586C38.80120433837891,41.80396381225586,38.17257433837891,42.68756381225586,38.17257433837891,42.68756381225586C38.1545143383789,42.71295381225586,38.144804338378904,42.74334381225586,38.144804338378904,42.77451381225586C38.144804338378904,42.77451381225586,38.144804338378904,43.80353381225586,38.144804338378904,43.80353381225586C38.144804338378904,43.90584381225586,38.04464433837891,43.97812381225586,37.94755433837891,43.94590381225586C37.94755433837891,43.94590381225586,36.94453433837891,43.61299381225586,36.94453433837891,43.61299381225586C36.913854338378904,43.60281381225586,36.88071433837891,43.60281381225586,36.850034338378904,43.61299381225586C36.850034338378904,43.61299381225586,35.84702133837891,43.94590381225586,35.84702133837891,43.94590381225586C35.749926338378906,43.97812381225586,35.6497693383789,43.90584381225586,35.6497693383789,43.80353381225586C35.6497693383789,43.80353381225586,35.6497693383789,42.77451381225586,35.6497693383789,42.77451381225586C35.6497693383789,42.74334381225586,35.640061338378906,42.71295381225586,35.62199333837891,42.68756381225586C35.62199333837891,42.68756381225586,34.9952303383789,41.80657381225586,34.9952303383789,41.80657381225586C34.937102238378905,41.72487381225586,34.973963208378905,41.610233812255856,35.068818338378904,41.57772381225586C35.068818338378904,41.57772381225586,36.04484433837891,41.24318881225586,36.04484433837891,41.24318881225586C36.072634338378904,41.23366881225586,36.097014338378905,41.21618881225586,36.114964338378904,41.19292881225586C36.114964338378904,41.19292881225586,36.7826043383789,40.32767941225586,36.7826043383789,40.32767941225586C36.7826043383789,40.32767941225586,36.7826043383789,40.32767941225586,36.7826043383789,40.32767941225586Z" fill="#FF9740" fill-opacity="1"/></g><g transform="matrix(0.999864935874939,-0.01643502525985241,0.01643502525985241,0.999864935874939,-0.26424318051311246,0.5880809405145015)"><path d="M37.462856413574215,16.42937161196289C37.52162641357422,16.353212011962892,37.635876413574216,16.35127341196289,37.69719641357422,16.42539461196289C37.69719641357422,16.42539461196289,38.41960641357422,17.29867101196289,38.41960641357422,17.29867101196289C38.43672641357422,17.31936101196289,38.45908641357422,17.33508101196289,38.48435641357422,17.344181011962892C38.48435641357422,17.344181011962892,39.41005641357422,17.67756601196289,39.41005641357422,17.67756601196289C39.50348641357422,17.71121601196289,39.53901641357422,17.82473601196289,39.48145641357422,17.90565601196289C39.48145641357422,17.90565601196289,38.85282641357422,18.78925601196289,38.85282641357422,18.78925601196289C38.834766413574215,18.81464601196289,38.82505641357422,18.84503601196289,38.82505641357422,18.87620601196289C38.82505641357422,18.87620601196289,38.82505641357422,19.905226011962892,38.82505641357422,19.905226011962892C38.82505641357422,20.00753601196289,38.72489641357422,20.07981601196289,38.62780641357422,20.04759601196289C38.62780641357422,20.04759601196289,37.62478641357422,19.71468601196289,37.62478641357422,19.71468601196289C37.59411641357422,19.70450601196289,37.56096641357422,19.70450601196289,37.53028641357422,19.71468601196289C37.53028641357422,19.71468601196289,36.52727341357422,20.04759601196289,36.52727341357422,20.04759601196289C36.43017841357422,20.07981601196289,36.330021413574215,20.00753601196289,36.330021413574215,19.905226011962892C36.330021413574215,19.905226011962892,36.330021413574215,18.87620601196289,36.330021413574215,18.87620601196289C36.330021413574215,18.84503601196289,36.32031341357422,18.81464601196289,36.30224541357422,18.78925601196289C36.30224541357422,18.78925601196289,35.67548231357422,17.90826601196289,35.67548231357422,17.90826601196289C35.61735421357422,17.82656601196289,35.65421536357422,17.71192601196289,35.749070413574216,17.67941601196289C35.749070413574216,17.67941601196289,36.72509641357422,17.34488101196289,36.72509641357422,17.34488101196289C36.75288641357422,17.335361011962892,36.77726641357422,17.31788101196289,36.79521641357422,17.294621011962892C36.79521641357422,17.294621011962892,37.462856413574215,16.42937161196289,37.462856413574215,16.42937161196289C37.462856413574215,16.42937161196289,37.462856413574215,16.42937161196289,37.462856413574215,16.42937161196289Z" fill="#FF9740" fill-opacity="1"/></g><g transform="matrix(0.999864935874939,-0.01643502525985241,0.01643502525985241,0.999864935874939,-0.39366373627253637,0.6554899741752394)"><path d="M41.26869647216797,24.33722378481445C41.32745647216797,24.261064284814452,41.44171647216797,24.259125584814452,41.50302647216797,24.333246784814452C41.50302647216797,24.333246784814452,42.12619647216797,25.086554184814453,42.12619647216797,25.086554184814453C42.14331647216797,25.107249184814453,42.165676472167966,25.122968184814454,42.190946472167965,25.132069184814455C42.190946472167965,25.132069184814455,42.98516647216797,25.418098184814454,42.98516647216797,25.418098184814454C43.078596472167966,25.451748184814452,43.11412647216797,25.565268184814453,43.05656647216797,25.646188184814452C43.05656647216797,25.646188184814452,42.51606647216797,26.405908184814454,42.51606647216797,26.405908184814454C42.49799647216797,26.431308184814455,42.48829647216797,26.461698184814452,42.48829647216797,26.492868184814455C42.48829647216797,26.492868184814455,42.48829647216797,27.375028184814454,42.48829647216797,27.375028184814454C42.48829647216797,27.477338184814453,42.38813647216797,27.549618184814452,42.29103647216797,27.517398184814454C42.29103647216797,27.517398184814454,41.430626472167965,27.231818184814454,41.430626472167965,27.231818184814454C41.39994647216797,27.221638184814452,41.36679647216797,27.221638184814452,41.336116472167966,27.231818184814454C41.336116472167966,27.231818184814454,40.47570347216797,27.517398184814454,40.47570347216797,27.517398184814454C40.378609472167966,27.549618184814452,40.278451472167966,27.477338184814453,40.278451472167966,27.375028184814454C40.278451472167966,27.375028184814454,40.278451472167966,26.492868184814455,40.278451472167966,26.492868184814455C40.278451472167966,26.461698184814452,40.26874347216797,26.431308184814455,40.25067647216797,26.405908184814454C40.25067647216797,26.405908184814454,39.712042472167965,25.648798184814453,39.712042472167965,25.648798184814453C39.653914172167966,25.567098184814455,39.69077551216797,25.452458184814454,39.785630472167966,25.41994818481445C39.785630472167966,25.41994818481445,40.62349447216797,25.132770184814454,40.62349447216797,25.132770184814454C40.651284472167966,25.123244184814453,40.675664472167966,25.105768184814455,40.69361647216797,25.08250918481445C40.69361647216797,25.08250918481445,41.26869647216797,24.33722378481445,41.26869647216797,24.33722378481445C41.26869647216797,24.33722378481445,41.26869647216797,24.33722378481445,41.26869647216797,24.33722378481445Z" fill="#FF9740" fill-opacity="1"/></g><g transform="matrix(0.811630368232727,0.5841713547706604,-0.5841713547706604,0.811630368232727,19.865457059289497,-25.564027805663954)"><path d="M51.61720943969726,18.079699294458006C51.67596943969727,18.003539894458008,51.790229439697264,18.001601094458007,51.85153943969726,18.075722294458007C51.85153943969726,18.075722294458007,52.672759439697266,19.068433694458008,52.672759439697266,19.068433694458008C52.689879439697265,19.089123694458006,52.712239439697264,19.10484369445801,52.73750943969726,19.11394369445801C52.73750943969726,19.11394369445801,53.79411943969727,19.494483694458008,53.79411943969727,19.494483694458008C53.88754943969727,19.528133694458006,53.923089439697264,19.641653694458007,53.865519439697266,19.722563694458007C53.865519439697266,19.722563694458007,53.14914943969727,20.729503694458007,53.14914943969727,20.729503694458007C53.13107943969727,20.75489369445801,53.121379439697265,20.78529369445801,53.121379439697265,20.81645369445801C53.121379439697265,20.81645369445801,53.121379439697265,21.991693694458007,53.121379439697265,21.991693694458007C53.121379439697265,22.093993694458007,53.02121943969726,22.16628369445801,52.924119439697265,22.134053694458007C52.924119439697265,22.134053694458007,51.77913943969727,21.754023694458006,51.77913943969727,21.754023694458006C51.748459439697264,21.743843694458008,51.715309439697265,21.743843694458008,51.684639439697264,21.754023694458006C51.684639439697264,21.754023694458006,50.53964743969726,22.134053694458007,50.53964743969726,22.134053694458007C50.442555439697266,22.16628369445801,50.34239843969726,22.093993694458007,50.34239843969726,21.991693694458007C50.34239843969726,21.991693694458007,50.34239843969726,20.81645369445801,50.34239843969726,20.81645369445801C50.34239843969726,20.78529369445801,50.33268943969727,20.75489369445801,50.31462243969727,20.729503694458007C50.31462243969727,20.729503694458007,49.60011543969726,19.725183694458007,49.60011543969726,19.725183694458007C49.54198713969726,19.64347369445801,49.578848479697264,19.528843694458008,49.67370343969726,19.49633369445801C49.67370343969726,19.49633369445801,50.787279439697265,19.114643694458007,50.787279439697265,19.114643694458007C50.81506943969727,19.10512369445801,50.83944943969727,19.08764369445801,50.85739943969727,19.06438369445801C50.85739943969727,19.06438369445801,51.61720943969726,18.079699294458006,51.61720943969726,18.079699294458006C51.61720943969726,18.079699294458006,51.61720943969726,18.079699294458006,51.61720943969726,18.079699294458006Z" fill="#FF9740" fill-opacity="1"/></g><g transform="matrix(0.9903122782707214,0.13885816931724548,-0.13885816931724548,0.9903122782707214,2.3087312240665767,-1.2595317588616979)"><path d="M11.661893652038575,15.974605338464356C11.720653652038575,15.898445838464356,11.834913652038574,15.896507138464356,11.896223652038575,15.970628338464355C11.896223652038575,15.970628338464355,12.474803652038574,16.670032738464357,12.474803652038574,16.670032738464357C12.491923652038574,16.690727738464357,12.514283652038575,16.706446738464354,12.539553652038574,16.715547738464355C12.539553652038574,16.715547738464355,13.274693652038575,16.980299738464357,13.274693652038575,16.980299738464357C13.368123652038573,17.013949738464355,13.403653652038575,17.127469738464356,13.346093652038574,17.208389738464355C13.346093652038574,17.208389738464355,12.845193652038574,17.912449738464357,12.845193652038574,17.912449738464357C12.827123652038575,17.937849738464354,12.817413652038574,17.968239738464355,12.817413652038574,17.999409738464355C12.817413652038574,17.999409738464355,12.817413652038574,18.815589738464354,12.817413652038574,18.815589738464354C12.817413652038574,18.917889738464357,12.717263652038575,18.990179738464356,12.620163652038574,18.957949738464357C12.620163652038574,18.957949738464357,11.823823652038573,18.693639738464356,11.823823652038573,18.693639738464356C11.793143652038575,18.683459738464357,11.759993652038574,18.683459738464357,11.729323652038573,18.693639738464356C11.729323652038573,18.693639738464356,10.932972652038574,18.957949738464357,10.932972652038574,18.957949738464357C10.835878652038573,18.990179738464356,10.735720652038575,18.917889738464357,10.735720652038575,18.815589738464354C10.735720652038575,18.815589738464354,10.735720652038575,17.999409738464355,10.735720652038575,17.999409738464355C10.735720652038575,17.968239738464355,10.726012652038575,17.937849738464354,10.707945652038575,17.912449738464357C10.707945652038575,17.912449738464357,10.208909652038574,17.210999738464356,10.208909652038574,17.210999738464356C10.150781452038574,17.129299738464354,10.187642642038574,17.014659738464356,10.282497652038574,16.982149738464354C10.282497652038574,16.982149738464354,11.058283652038574,16.716248738464355,11.058283652038574,16.716248738464355C11.086074652038574,16.706723738464355,11.110451652038574,16.689246738464355,11.128401652038574,16.665987738464356C11.128401652038574,16.665987738464356,11.661893652038575,15.974605338464356,11.661893652038575,15.974605338464356C11.661893652038575,15.974605338464356,11.661893652038575,15.974605338464356,11.661893652038575,15.974605338464356Z" fill="#FF9740" fill-opacity="1"/></g><g transform="matrix(0.9300176501274109,-0.36751484870910645,0.36751484870910645,0.9300176501274109,-7.822489181147432,6.997155929404812)"><path d="M16.261225153503418,24.09698740246582C16.319995153503417,24.02082820246582,16.43424515350342,24.01888920246582,16.495565153503417,24.093010402465822C16.495565153503417,24.093010402465822,17.211235153503416,24.95813590246582,17.211235153503416,24.95813590246582C17.22835515350342,24.97883590246582,17.250715153503418,24.99455590246582,17.275985153503417,25.00365590246582C17.275985153503417,25.00365590246582,18.19276515350342,25.33383190246582,18.19276515350342,25.33383190246582C18.286195153503417,25.36748190246582,18.32172515350342,25.48099190246582,18.264155153503417,25.56191190246582C18.264155153503417,25.56191190246582,17.64151515350342,26.43710190246582,17.64151515350342,26.43710190246582C17.62344515350342,26.46249190246582,17.61374515350342,26.49289190246582,17.61374515350342,26.52405190246582C17.61374515350342,26.52405190246582,17.61374515350342,27.54311190246582,17.61374515350342,27.54311190246582C17.61374515350342,27.64541190246582,17.513585153503417,27.71770190246582,17.416485153503416,27.68547190246582C17.416485153503416,27.68547190246582,16.42315515350342,27.35578190246582,16.42315515350342,27.35578190246582C16.39247515350342,27.34559190246582,16.35933515350342,27.34559190246582,16.32865515350342,27.35578190246582C16.32865515350342,27.35578190246582,15.335319153503418,27.68547190246582,15.335319153503418,27.68547190246582C15.238225153503418,27.71770190246582,15.138068153503419,27.64541190246582,15.138068153503419,27.54311190246582C15.138068153503419,27.54311190246582,15.138068153503419,26.52405190246582,15.138068153503419,26.52405190246582C15.138068153503419,26.49289190246582,15.128359153503418,26.46249190246582,15.110292153503417,26.43710190246582C15.110292153503417,26.43710190246582,14.489511153503418,25.56452190246582,14.489511153503418,25.56452190246582C14.431382953503418,25.48282190246582,14.468244143503417,25.36819190246582,14.563099153503417,25.33567190246582C14.563099153503417,25.33567190246582,15.529745153503418,25.00435590246582,15.529745153503418,25.00435590246582C15.557535153503418,24.99482590246582,15.581915153503418,24.97735590246582,15.599865153503417,24.95409590246582C15.599865153503417,24.95409590246582,16.261225153503418,24.09698740246582,16.261225153503418,24.09698740246582C16.261225153503418,24.09698740246582,16.261225153503418,24.09698740246582,16.261225153503418,24.09698740246582Z" fill="#FF9740" fill-opacity="1"/></g><g transform="matrix(0.8351260423660278,-0.5500586628913879,0.5500586628913879,0.8351260423660278,-13.265470259751893,4.649783984575755)"><path d="M3.362796339943409,24.51163365114746C3.421566339943409,24.43547415114746,3.535816339943409,24.43353545114746,3.597136339943409,24.50765665114746C3.597136339943409,24.50765665114746,4.501886339943409,25.60133805114746,4.501886339943409,25.60133805114746C4.5190063399434095,25.62203805114746,4.5413663399434085,25.63775805114746,4.566636339943409,25.64685805114746C4.566636339943409,25.64685805114746,5.733916339943409,26.067258051147462,5.733916339943409,26.067258051147462C5.827346339943409,26.10090805114746,5.862886339943409,26.21441805114746,5.805316339943409,26.29533805114746C5.805316339943409,26.29533805114746,5.014766339943408,27.40653805114746,5.014766339943408,27.40653805114746C4.996706339943409,27.431938051147462,4.986996339943409,27.46232805114746,4.986996339943409,27.493498051147462C4.986996339943409,27.493498051147462,4.986996339943409,28.79233805114746,4.986996339943409,28.79233805114746C4.986996339943409,28.89463805114746,4.886836339943409,28.966928051147462,4.7897463399434095,28.93469805114746C4.7897463399434095,28.93469805114746,3.524736339943409,28.51483805114746,3.524736339943409,28.51483805114746C3.494056339943409,28.504648051147463,3.460906339943409,28.504648051147463,3.4302263399434088,28.51483805114746C3.4302263399434088,28.51483805114746,2.165216339943409,28.93469805114746,2.165216339943409,28.93469805114746C2.068124339943409,28.966928051147462,1.967965339943409,28.89463805114746,1.967965339943409,28.79233805114746C1.967965339943409,28.79233805114746,1.967965339943409,27.493498051147462,1.967965339943409,27.493498051147462C1.967965339943409,27.46232805114746,1.958256339943409,27.431938051147462,1.940189339943409,27.40653805114746C1.940189339943409,27.40653805114746,1.151502239943409,26.29795805114746,1.151502239943409,26.29795805114746C1.093374139943409,26.21624805114746,1.130235289943409,26.10161805114746,1.225090339943409,26.06910805114746C1.225090339943409,26.06910805114746,2.4549563399434087,25.64755805114746,2.4549563399434087,25.64755805114746C2.482746339943409,25.63803805114746,2.507126339943409,25.620558051147462,2.525076339943409,25.59729805114746C2.525076339943409,25.59729805114746,3.362796339943409,24.51163365114746,3.362796339943409,24.51163365114746C3.362796339943409,24.51163365114746,3.362796339943409,24.51163365114746,3.362796339943409,24.51163365114746Z" fill="#FF9740" fill-opacity="1"/></g><g transform="matrix(0.9998463988304138,-0.017526516690850258,0.017526516690850258,0.9998463988304138,-0.5327788699360667,0.5692162079127527)"><path d="M33.69687568481445,30.73908497561035C33.75564568481445,30.662925575610352,33.86989568481445,30.66098677561035,33.931215684814454,30.73510797561035C33.931215684814454,30.73510797561035,34.513015684814455,31.43841437561035,34.513015684814455,31.43841437561035C34.530135684814454,31.459109375610353,34.55249568481445,31.47482837561035,34.57776568481445,31.48392937561035C34.57776568481445,31.48392937561035,35.317185684814454,31.750229375610353,35.317185684814454,31.750229375610353C35.41061568481445,31.78387937561035,35.446145684814454,31.897389375610352,35.38858568481445,31.97830937561035C35.38858568481445,31.97830937561035,34.884815684814455,32.68639937561035,34.884815684814455,32.68639937561035C34.866745684814454,32.711799375610354,34.85704568481445,32.74218937561035,34.85704568481445,32.773359375610355C34.85704568481445,32.773359375610355,34.85704568481445,33.594319375610354,34.85704568481445,33.594319375610354C34.85704568481445,33.696619375610354,34.756885684814456,33.76890937561035,34.659795684814455,33.73667937561035C34.659795684814455,33.73667937561035,33.858805684814456,33.47082937561035,33.858805684814456,33.47082937561035C33.82812568481445,33.46063937561035,33.794985684814456,33.46063937561035,33.76430568481445,33.47082937561035C33.76430568481445,33.47082937561035,32.963320684814455,33.73667937561035,32.963320684814455,33.73667937561035C32.86622668481445,33.76890937561035,32.766069684814454,33.696619375610354,32.766069684814454,33.594319375610354C32.766069684814454,33.594319375610354,32.766069684814454,32.773359375610355,32.766069684814454,32.773359375610355C32.766069684814454,32.74218937561035,32.75636068481445,32.711799375610354,32.73829368481445,32.68639937561035C32.73829368481445,32.68639937561035,32.23639168481445,31.980919375610352,32.23639168481445,31.980919375610352C32.17826348481445,31.89921937561035,32.215124674814454,31.784589375610352,32.30997968481445,31.75206937561035C32.30997968481445,31.75206937561035,33.09025868481445,31.48463037561035,33.09025868481445,31.48463037561035C33.11804968481445,31.47510437561035,33.142433684814456,31.45762837561035,33.160383684814455,31.434369375610352C33.160383684814455,31.434369375610352,33.69687568481445,30.73908497561035,33.69687568481445,30.73908497561035C33.69687568481445,30.73908497561035,33.69687568481445,30.73908497561035,33.69687568481445,30.73908497561035Z" fill="#FF9740" fill-opacity="1"/></g><g transform="matrix(0.9659258127212524,0.2588190734386444,-0.2588190734386444,0.9659258127212524,10.281947896199654,-10.272263181380822)"><path d="M45.72465281738281,33.97180238964844C45.783422817382814,33.89564308964844,45.89767281738281,33.89370418964844,45.958992817382814,33.96782538964844C45.958992817382814,33.96782538964844,46.57630281738281,34.714058889648435,46.57630281738281,34.714058889648435C46.593422817382816,34.73475388964844,46.61579281738281,34.750472889648435,46.641052817382814,34.759573889648436C46.641052817382814,34.759573889648436,47.427522817382815,35.042816889648435,47.427522817382815,35.042816889648435C47.52095281738281,35.07646688964844,47.556482817382815,35.189976889648435,47.49892281738281,35.27089688964844C47.49892281738281,35.27089688964844,46.96362281738281,36.023316889648434,46.96362281738281,36.023316889648434C46.94555281738281,36.04871688964844,46.93584281738281,36.079106889648436,46.93584281738281,36.110266889648436C46.93584281738281,36.110266889648436,46.93584281738281,36.98377688964844,46.93584281738281,36.98377688964844C46.93584281738281,37.086086889648435,46.83568281738281,37.158366889648434,46.73859281738281,37.12614688964844C46.73859281738281,37.12614688964844,45.88658281738281,36.84335688964844,45.88658281738281,36.84335688964844C45.85590281738281,36.833176889648435,45.82276281738281,36.833176889648435,45.79208281738281,36.84335688964844C45.79208281738281,36.84335688964844,44.94007281738281,37.12614688964844,44.94007281738281,37.12614688964844C44.842978817382814,37.158366889648434,44.74282181738281,37.086086889648435,44.74282181738281,36.98377688964844C44.74282181738281,36.98377688964844,44.74282181738281,36.110266889648436,44.74282181738281,36.110266889648436C44.74282181738281,36.079106889648436,44.733113817382815,36.04871688964844,44.715045817382816,36.023316889648434C44.715045817382816,36.023316889648434,44.18160881738281,35.273516889648434,44.18160881738281,35.273516889648434C44.12348051738281,35.19180688964844,44.16034185738281,35.077176889648435,44.25519681738281,35.04465688964844C44.25519681738281,35.04465688964844,45.08491081738281,34.760274889648436,45.08491081738281,34.760274889648436C45.112700817382816,34.75074988964844,45.13708081738281,34.73327288964844,45.15503281738281,34.71001288964844C45.15503281738281,34.71001288964844,45.72465281738281,33.97180238964844,45.72465281738281,33.97180238964844C45.72465281738281,33.97180238964844,45.72465281738281,33.97180238964844,45.72465281738281,33.97180238964844Z" fill="#FF9740" fill-opacity="1"/></g><g transform="matrix(0.9069126844406128,-0.4213186204433441,0.4213186204433441,0.9069126844406128,-14.73767238957771,10.112031397589078)"><path d="M17.650816038208006,38.466164267089844C17.709576038208006,38.390004967089844,17.823826038208008,38.388066067089845,17.885146038208006,38.462187267089845C17.885146038208006,38.462187267089845,18.745456038208008,39.50214876708984,18.745456038208008,39.50214876708984C18.762576038208007,39.52284876708984,18.78493603820801,39.53856876708984,18.81020603820801,39.547668767089846C18.81020603820801,39.547668767089846,19.918606038208008,39.94685876708984,19.918606038208008,39.94685876708984C20.01204603820801,39.980508767089844,20.047576038208007,40.094028767089846,19.99000603820801,40.17493876708984C19.99000603820801,40.17493876708984,19.238926038208007,41.230668767089846,19.238926038208007,41.230668767089846C19.22085603820801,41.25606876708984,19.211146038208007,41.28645876708984,19.211146038208007,41.31762876708984C19.211146038208007,41.31762876708984,19.211146038208007,42.550708767089844,19.211146038208007,42.550708767089844C19.211146038208007,42.653008767089844,19.110996038208008,42.725298767089846,19.013896038208006,42.69306876708984C19.013896038208006,42.69306876708984,17.812746038208008,42.294398767089845,17.812746038208008,42.294398767089845C17.782066038208008,42.28421876708985,17.74891603820801,42.28421876708985,17.71823603820801,42.294398767089845C17.71823603820801,42.294398767089845,16.517086038208006,42.69306876708984,16.517086038208006,42.69306876708984C16.419987038208006,42.725298767089846,16.319830038208007,42.653008767089844,16.319830038208007,42.550708767089844C16.319830038208007,42.550708767089844,16.319830038208007,41.31762876708984,16.319830038208007,41.31762876708984C16.319830038208007,41.28645876708984,16.310122038208007,41.25606876708984,16.292054038208008,41.230668767089846C16.292054038208008,41.230668767089846,15.542832038208008,40.17755876708984,15.542832038208008,40.17755876708984C15.484703838208008,40.095858767089844,15.521565028208007,39.98121876708984,15.616420038208007,39.94870876708984C15.616420038208007,39.94870876708984,16.784416038208008,39.54836876708984,16.784416038208008,39.54836876708984C16.812206038208007,39.53883876708984,16.836586038208008,39.52136876708985,16.854536038208007,39.498108767089846C16.854536038208007,39.498108767089846,17.650816038208006,38.466164267089844,17.650816038208006,38.466164267089844C17.650816038208006,38.466164267089844,17.650816038208006,38.466164267089844,17.650816038208006,38.466164267089844Z" fill="#FF9740" fill-opacity="1"/></g><g transform="matrix(0.9069126844406128,-0.4213186204433441,0.4213186204433441,0.9069126844406128,-12.695105805597336,5.792819386263716)"><path d="M8.436386433715821,31.684170301123046C8.49514643371582,31.60801120112305,8.60939643371582,31.606072101123047,8.670716433715821,31.680193301123047C8.670716433715821,31.680193301123047,9.33264643371582,32.480356901123045,9.33264643371582,32.480356901123045C9.349766433715821,32.50105190112305,9.37212643371582,32.516770901123046,9.39739643371582,32.52587190112305C9.39739643371582,32.52587190112305,10.242976433715821,32.830404901123046,10.242976433715821,32.830404901123046C10.33640643371582,32.86405490112305,10.37193643371582,32.977564901123046,10.31436643371582,33.058484901123045C10.31436643371582,33.058484901123045,9.73945643371582,33.866594901123044,9.73945643371582,33.866594901123044C9.721386433715821,33.891984901123045,9.71167643371582,33.922384901123046,9.71167643371582,33.953544901123045C9.71167643371582,33.953544901123045,9.71167643371582,34.89307490112304,9.71167643371582,34.89307490112304C9.71167643371582,34.99537490112305,9.61151643371582,35.067664901123045,9.51442643371582,35.03543490112305C9.51442643371582,35.03543490112305,8.59831643371582,34.73137490112305,8.59831643371582,34.73137490112305C8.56763643371582,34.72119490112305,8.53448643371582,34.72119490112305,8.50380643371582,34.73137490112305C8.50380643371582,34.73137490112305,7.587695433715821,35.03543490112305,7.587695433715821,35.03543490112305C7.49060143371582,35.067664901123045,7.39044443371582,34.99537490112305,7.39044443371582,34.89307490112304C7.39044443371582,34.89307490112304,7.39044443371582,33.953544901123045,7.39044443371582,33.953544901123045C7.39044443371582,33.922384901123046,7.38073543371582,33.891984901123045,7.36266843371582,33.866594901123044C7.36266843371582,33.866594901123044,6.78961253371582,33.061104901123045,6.78961253371582,33.061104901123045C6.731484133715821,32.979394901123044,6.76834551371582,32.864764901123046,6.863200433715821,32.83224490112305C6.863200433715821,32.83224490112305,7.75502443371582,32.526572901123046,7.75502443371582,32.526572901123046C7.78281643371582,32.517046901123045,7.80719643371582,32.49957090112305,7.825146433715821,32.47631190112305C7.825146433715821,32.47631190112305,8.436386433715821,31.684170301123046,8.436386433715821,31.684170301123046C8.436386433715821,31.684170301123046,8.436386433715821,31.684170301123046,8.436386433715821,31.684170301123046Z" fill="#FF9740" fill-opacity="1"/></g><g transform="matrix(0.6929294466972351,-0.721005380153656,0.721005380153656,0.6929294466972351,-29.359927837803326,18.157783292277742)"><path d="M8.312003937835694,43.60599189536133C8.370763937835694,43.52983279536133,8.485013937835694,43.52789369536133,8.546333937835694,43.60201489536133C8.546333937835694,43.60201489536133,9.208263937835692,44.402178495361326,9.208263937835692,44.402178495361326C9.225383937835694,44.42287349536133,9.247743937835693,44.43859249536133,9.273013937835692,44.44769349536133C9.273013937835692,44.44769349536133,10.118593937835694,44.75222649536133,10.118593937835694,44.75222649536133C10.212023937835694,44.78587649536133,10.247553937835693,44.89938649536133,10.189983937835693,44.980306495361326C10.189983937835693,44.980306495361326,9.615073937835692,45.788416495361325,9.615073937835692,45.788416495361325C9.597003937835694,45.81380649536133,9.587293937835693,45.84420649536133,9.587293937835693,45.87536649536133C9.587293937835693,45.87536649536133,9.587293937835693,46.814896495361324,9.587293937835693,46.814896495361324C9.587293937835693,46.91719649536133,9.487133937835694,46.98948649536133,9.390043937835694,46.95725649536133C9.390043937835694,46.95725649536133,8.473933937835692,46.65319649536133,8.473933937835692,46.65319649536133C8.443253937835694,46.64301649536133,8.410103937835693,46.64301649536133,8.379423937835693,46.65319649536133C8.379423937835693,46.65319649536133,7.463312937835694,46.95725649536133,7.463312937835694,46.95725649536133C7.3662189378356935,46.98948649536133,7.266061937835693,46.91719649536133,7.266061937835693,46.814896495361324C7.266061937835693,46.814896495361324,7.266061937835693,45.87536649536133,7.266061937835693,45.87536649536133C7.266061937835693,45.84420649536133,7.256352937835693,45.81380649536133,7.238285937835693,45.788416495361325C7.238285937835693,45.788416495361325,6.665230037835693,44.982926495361326,6.665230037835693,44.982926495361326C6.607101637835694,44.901216495361325,6.643963017835693,44.78658649536133,6.738817937835694,44.75406649536133C6.738817937835694,44.75406649536133,7.630641937835693,44.44839449536133,7.630641937835693,44.44839449536133C7.658433937835693,44.438868495361326,7.682813937835693,44.42139249536133,7.700763937835694,44.39813349536133C7.700763937835694,44.39813349536133,8.312003937835694,43.60599189536133,8.312003937835694,43.60599189536133C8.312003937835694,43.60599189536133,8.312003937835694,43.60599189536133,8.312003937835694,43.60599189536133Z" fill="#FF9740" fill-opacity="1"/></g><g transform="matrix(0.9235975742340088,-0.38336342573165894,0.38336342573165894,0.9235975742340088,-17.97101568287394,8.66220933327088)"><path d="M14.615188270874024,49.47593370678711C14.673958270874024,49.39977450678711,14.788208270874023,49.39783540678711,14.849528270874023,49.47195670678711C14.849528270874023,49.47195670678711,15.594878270874023,50.37297320678711,15.594878270874023,50.37297320678711C15.611998270874023,50.39366320678711,15.634368270874024,50.40938220678711,15.659638270874023,50.41847820678711C15.659638270874023,50.41847820678711,16.615738270874022,50.76281820678711,16.615738270874022,50.76281820678711C16.709168270874024,50.79646820678711,16.744708270874025,50.90998820678711,16.687138270874023,50.99089820678711C16.687138270874023,50.99089820678711,16.038138270874022,51.90314820678711,16.038138270874022,51.90314820678711C16.020068270874024,51.92853820678711,16.010358270874022,51.95893820678711,16.010358270874022,51.99009820678711C16.010358270874022,51.99009820678711,16.010358270874022,53.053078206787106,16.010358270874022,53.053078206787106C16.010358270874022,53.15537820678711,15.910198270874023,53.22766820678711,15.813108270874023,53.19544820678711C15.813108270874023,53.19544820678711,14.777118270874023,52.851588206787106,14.777118270874023,52.851588206787106C14.746448270874023,52.84140820678711,14.713298270874024,52.84140820678711,14.682618270874023,52.851588206787106C14.682618270874023,52.851588206787106,13.646633270874023,53.19544820678711,13.646633270874023,53.19544820678711C13.549538270874024,53.22766820678711,13.449381270874024,53.15537820678711,13.449381270874024,53.053078206787106C13.449381270874024,53.053078206787106,13.449381270874024,51.99009820678711,13.449381270874024,51.99009820678711C13.449381270874024,51.95893820678711,13.439673270874023,51.92853820678711,13.421605270874023,51.90314820678711C13.421605270874023,51.90314820678711,12.774464170874024,50.99351820678711,12.774464170874024,50.99351820678711C12.716336070874023,50.91181820678711,12.753197220874023,50.79717820678711,12.848052270874023,50.76466820678711C12.848052270874023,50.76466820678711,13.856018270874024,50.41917820678711,13.856018270874024,50.41917820678711C13.883808270874024,50.40966320678711,13.908188270874023,50.39218320678711,13.926138270874024,50.36892320678711C13.926138270874024,50.36892320678711,14.615188270874024,49.47593370678711,14.615188270874024,49.47593370678711C14.615188270874024,49.47593370678711,14.615188270874024,49.47593370678711,14.615188270874024,49.47593370678711Z" fill="#FF9740" fill-opacity="1"/></g><g transform="matrix(0.9659258127212524,0.2588190734386444,-0.2588190734386444,0.9659258127212524,13.577682453849206,-9.750940850960092)"><path d="M45.65133249389648,46.74925686586914C45.710102493896485,46.67309746586914,45.824352493896484,46.67115866586914,45.885672493896486,46.74527986586914C45.885672493896486,46.74527986586914,46.614272493896486,47.62603626586914,46.614272493896486,47.62603626586914C46.631392493896485,47.64673626586914,46.653752493896484,47.66245626586914,46.67902249389648,47.67155626586914C46.67902249389648,47.67155626586914,47.61293249389649,48.007901265869144,47.61293249389649,48.007901265869144C47.706362493896485,48.04155126586914,47.74190249389648,48.15506126586914,47.684332493896484,48.23598126586914C47.684332493896484,48.23598126586914,47.050202493896485,49.12731126586914,47.050202493896485,49.12731126586914C47.03214249389649,49.152711265869144,47.02243249389648,49.18310126586914,47.02243249389648,49.214271265869144C47.02243249389648,49.214271265869144,47.02243249389648,50.25245126586914,47.02243249389648,50.25245126586914C47.02243249389648,50.35476126586914,46.922272493896486,50.42704126586914,46.825182493896484,50.39482126586914C46.825182493896484,50.39482126586914,45.81326249389648,50.05895126586914,45.81326249389648,50.05895126586914C45.78259249389649,50.04877126586914,45.74944249389648,50.04877126586914,45.718762493896485,50.05895126586914C45.718762493896485,50.05895126586914,44.706849493896485,50.39482126586914,44.706849493896485,50.39482126586914C44.609755493896486,50.42704126586914,44.509597493896486,50.35476126586914,44.509597493896486,50.25245126586914C44.509597493896486,50.25245126586914,44.509597493896486,49.214271265869144,44.509597493896486,49.214271265869144C44.509597493896486,49.18310126586914,44.49988949389648,49.152711265869144,44.48182249389649,49.12731126586914C44.48182249389649,49.12731126586914,43.84955849389648,48.23860126586914,43.84955849389648,48.23860126586914C43.79143019389648,48.15689126586914,43.82829153389648,48.04226126586914,43.92314649389648,48.00974126586914C43.92314649389648,48.00974126586914,44.90779249389649,47.67225626586914,44.90779249389649,47.67225626586914C44.93558249389648,47.66272626586914,44.959962493896484,47.64525626586914,44.97791249389648,47.62199626586914C44.97791249389648,47.62199626586914,45.65133249389648,46.74925686586914,45.65133249389648,46.74925686586914C45.65133249389648,46.74925686586914,45.65133249389648,46.74925686586914,45.65133249389648,46.74925686586914Z" fill="#FF9740" fill-opacity="1"/></g><g transform="matrix(0.8393320441246033,-0.5436190962791443,0.5436190962791443,0.8393320441246033,-22.75996326873394,25.76965959739084)"><path d="M33.54011499938965,51.447296874414064C33.59888499938965,51.37113747441406,33.71313499938965,51.369198674414065,33.77445499938965,51.443319874414065C33.77445499938965,51.443319874414065,34.28572499938965,52.06136427441406,34.28572499938965,52.06136427441406C34.30284499938965,52.082059274414064,34.32520499938965,52.09777827441406,34.35047499938965,52.10687927441406C34.35047499938965,52.10687927441406,34.996444999389645,52.33952627441406,34.996444999389645,52.33952627441406C35.08987499938965,52.373176274414064,35.12540499938965,52.48668127441406,35.067834999389646,52.56760127441406C35.067834999389646,52.56760127441406,34.62671499938965,53.187651274414065,34.62671499938965,53.187651274414065C34.60864499938965,53.21305127441406,34.59893499938965,53.24344127441406,34.59893499938965,53.27461127441406C34.59893499938965,53.27461127441406,34.59893499938965,53.99120127441406,34.59893499938965,53.99120127441406C34.59893499938965,54.09350127441406,34.498774999389646,54.16579127441406,34.40168499938965,54.13356127441406C34.40168499938965,54.13356127441406,33.70204499938965,53.901341274414065,33.70204499938965,53.901341274414065C33.671364999389645,53.89116127441406,33.63822499938965,53.89116127441406,33.607544999389646,53.901341274414065C33.607544999389646,53.901341274414065,32.90790499938965,54.13356127441406,32.90790499938965,54.13356127441406C32.810810999389645,54.16579127441406,32.71065399938965,54.09350127441406,32.71065399938965,53.99120127441406C32.71065399938965,53.99120127441406,32.71065399938965,53.27461127441406,32.71065399938965,53.27461127441406C32.71065399938965,53.24344127441406,32.70094499938965,53.21305127441406,32.682877999389646,53.187651274414065C32.682877999389646,53.187651274414065,32.243610999389645,52.57022127441406,32.243610999389645,52.57022127441406C32.185482799389646,52.488511274414066,32.22234398938965,52.37388627441406,32.317198999389646,52.34137627441406C32.317198999389646,52.34137627441406,32.999286999389646,52.10758027441406,32.999286999389646,52.10758027441406C33.02707799938965,52.098055274414065,33.05145999938965,52.080578274414066,33.06940799938965,52.05731927441406C33.06940799938965,52.05731927441406,33.54011499938965,51.447296874414064,33.54011499938965,51.447296874414064C33.54011499938965,51.447296874414064,33.54011499938965,51.447296874414064,33.54011499938965,51.447296874414064Z" fill="#FF9740" fill-opacity="1"/></g><g><rect x="6.251009941101074" y="30.532630920410156" width="41.24459457397461" height="5.676976203918457" rx="0" fill="#000000" fill-opacity="0.10000000149011612"/></g><g><rect x="19.639114379882812" y="16.216007232666016" width="13.845778465270996" height="12.60010051727295" rx="0" fill="#FFE135" fill-opacity="1"/></g></g></svg>