<svg xmlns="http://www.w3.org/2000/svg" xmlns:xlink="http://www.w3.org/1999/xlink" fill="none" version="1.1" width="57.1229248046875" height="57.1229248046875" viewBox="0 0 57.1229248046875 57.1229248046875"><defs><filter id="master_svg0_0_781" filterUnits="objectBoundingBox" color-interpolation-filters="sRGB" x="-1" y="-1" width="7.612292289733887" height="4.806146144866943"><feFlood flood-opacity="0" result="BackgroundImageFix"/><feBlend mode="normal" in="SourceGraphic" in2="BackgroundImageFix" result="shape"/><feGaussianBlur stdDeviation="0.25" result="effect1_foregroundBlur"/></filter><filter id="master_svg1_0_782" filterUnits="objectBoundingBox" color-interpolation-filters="sRGB" x="-1" y="-1" width="7.612292289733887" height="4.806146144866943"><feFlood flood-opacity="0" result="BackgroundImageFix"/><feBlend mode="normal" in="SourceGraphic" in2="BackgroundImageFix" result="shape"/><feGaussianBlur stdDeviation="0.25" result="effect1_foregroundBlur"/></filter></defs><g><g><path d="M28.5615,56.6229Q29.2503,56.6229,29.9384,56.5891Q30.6264,56.5553,31.312,56.4878Q31.9975,56.4203,32.6789,56.3192Q33.3603,56.2181,34.036,56.0837Q34.7116,55.9493,35.3798,55.7819Q36.0481,55.6146,36.7073,55.4146Q37.3665,55.2146,38.0151,54.9826Q38.6637,54.7505,39.3001,54.4869Q39.9365,54.2232,40.5593,53.9287Q41.182,53.6342,41.7895,53.3095Q42.3971,52.9847,42.9879,52.6306Q43.5788,52.2764,44.1516,51.8937Q44.7243,51.511,45.2776,51.1006Q45.831,50.6903,46.3635,50.2533Q46.896,49.8162,47.4064,49.3536Q47.9168,48.891,48.4039,48.4039Q48.891,47.9168,49.3536,47.4064Q49.8162,46.896,50.2533,46.3635Q50.6903,45.831,51.1006,45.2776Q51.511,44.7243,51.8937,44.1516Q52.2764,43.5788,52.6306,42.9879Q52.9847,42.3971,53.3095,41.7895Q53.6342,41.182,53.9287,40.5593Q54.2232,39.9365,54.4869,39.3001Q54.7505,38.6637,54.9826,38.0151Q55.2146,37.3665,55.4146,36.7073Q55.6146,36.0481,55.782,35.3798Q55.9493,34.7116,56.0837,34.036Q56.2181,33.3603,56.3192,32.6789Q56.4203,31.9975,56.4878,31.312Q56.5553,30.6264,56.5891,29.9384Q56.6229,29.2503,56.6229,28.5615Q56.6229,27.8726,56.5891,27.1846Q56.5553,26.4965,56.4878,25.811Q56.4203,25.1254,56.3192,24.444Q56.2181,23.7626,56.0837,23.0869Q55.9493,22.4113,55.7819,21.7431Q55.6146,21.0749,55.4146,20.4156Q55.2146,19.7564,54.9826,19.1078Q54.7505,18.4592,54.4869,17.8228Q54.2232,17.1864,53.9287,16.5636Q53.6342,15.9409,53.3095,15.3334Q52.9847,14.7259,52.6306,14.135Q52.2764,13.5441,51.8937,12.9713Q51.511,12.3986,51.1006,11.8453Q50.6903,11.292,50.2533,10.7595Q49.8162,10.22695,49.3536,9.71654Q48.891,9.20612,48.4039,8.71901Q47.9168,8.23191,47.4064,7.76929Q46.896,7.30667,46.3635,6.86966Q45.831,6.43264,45.2776,6.02228Q44.7243,5.61192,44.1516,5.22921Q43.5788,4.84649,42.9879,4.49234Q42.3971,4.13819,41.7895,3.81346Q41.182,3.48873,40.5593,3.1942Q39.9365,2.89967,39.3001,2.63605Q38.6637,2.37243,38.0151,2.1403600000000003Q37.3665,1.90829,36.7073,1.70832Q36.0481,1.50835,35.3798,1.340967Q34.7116,1.173585,34.036,1.039193Q33.3603,0.904801,32.6789,0.803723Q31.9975,0.702645,31.312,0.635124Q30.6264,0.5676025,29.9384,0.5338013Q29.2503,0.5,28.5615,0.5Q27.8726,0.5,27.1846,0.5338013Q26.4965,0.5676025,25.811,0.635124Q25.1254,0.702645,24.444,0.803723Q23.7626,0.904801,23.0869,1.039193Q22.4113,1.173585,21.7431,1.340967Q21.0749,1.50835,20.4156,1.70832Q19.7564,1.90829,19.1078,2.1403600000000003Q18.4592,2.37243,17.8228,2.63605Q17.1864,2.89967,16.5636,3.1942Q15.9409,3.48873,15.3334,3.81346Q14.7259,4.13819,14.135,4.49234Q13.5441,4.84649,12.9713,5.22921Q12.3986,5.61192,11.8453,6.02228Q11.292,6.43264,10.7595,6.86966Q10.22695,7.30667,9.71654,7.76929Q9.20612,8.23191,8.71901,8.71901Q8.23191,9.20612,7.76929,9.71654Q7.30667,10.22695,6.86966,10.7595Q6.43264,11.292,6.02228,11.8453Q5.61192,12.3986,5.22921,12.9713Q4.84649,13.5441,4.49234,14.135Q4.13819,14.7259,3.81346,15.3334Q3.48873,15.9409,3.1942,16.5636Q2.89967,17.1864,2.63605,17.8228Q2.37243,18.4592,2.1403600000000003,19.1078Q1.90829,19.7564,1.70832,20.4156Q1.50835,21.0749,1.340967,21.7431Q1.173585,22.4113,1.039193,23.0869Q0.904801,23.7626,0.803723,24.444Q0.702645,25.1254,0.635124,25.811Q0.5676025,26.4965,0.5338013,27.1846Q0.5,27.8726,0.5,28.5615Q0.4999999999999988,29.6907,0.5907328000000001,30.8162Q0.681466,31.9418,0.8623449999999999,33.0564Q1.043224,34.171,1.313079,35.2675Q1.58293,36.364,1.94002,37.4353Q2.29711,38.5065,2.73912,39.5456Q3.18112,40.5847,3.7052,41.585Q4.22927,42.5852,4.83202,43.5401Q5.43476,44.495,6.11229,45.3983L4.24155,53.8168L12.0151,51.2256Q12.9088,51.8781,13.8512,52.4582Q14.7935,53.0383,15.7786,53.5424Q16.7637,54.0464,17.7855,54.4714Q18.8072,54.8963,19.8593,55.2395Q20.9113,55.5827,21.9871,55.8419Q23.0629,56.1012,24.1557,56.2749Q25.2486,56.4486,26.3517,56.5358Q27.4549,56.6229,28.5615,56.6229Z" fill-rule="evenodd" fill="#FFCF00" fill-opacity="1"/><path d="M28.5615,56.1229Q33.8186,56.1229,38.7067,54.1878Q44.014,52.0867,48.0504,48.0504Q52.0867,44.0141,54.1878,38.7067Q56.1229,33.8186,56.1229,28.5615Q56.1229,23.3043,54.1878,18.4162Q52.0867,13.1089,48.0504,9.07257Q44.0141,5.03629,38.7067,2.93514Q33.8186,1,28.5615,1Q23.3043,1,18.4162,2.93514Q13.1088,5.03628,9.07257,9.07257Q5.03629,13.1089,2.93514,18.4162Q1,23.3043,1,28.5615Q1,37.7486,6.51229,45.0983L6.65027,45.2823L4.72964,53.9252L4.24155,53.8168L4.08343,53.3424L12.1016,50.6697L12.3099,50.8218Q19.571,56.123,28.5615,56.1229ZM28.5615,57.1229Q19.2449,57.1229,11.7203,51.6294L12.0151,51.2256L12.1732,51.6999L3.56189,54.5704L5.62419,45.2899L6.11229,45.3983L5.71229,45.6983Q0,38.082,0,28.5615Q0,23.1135,2.00535,18.0481Q4.18272,12.5482,8.365459999999999,8.365459999999999Q12.5482,4.182729999999999,18.0481,2.00535Q23.1136,0,28.5615,0Q34.0094,0,39.0748,2.00535Q44.5747,4.182729999999999,48.7575,8.365459999999999Q52.9402,12.5483,55.1176,18.0481Q57.1229,23.1136,57.1229,28.5615Q57.1229,34.0093,55.1176,39.0748Q52.9402,44.5747,48.7575,48.7575Q44.5747,52.9402,39.0748,55.1176Q34.0093,57.1229,28.5615,57.1229Z" fill="#000000" fill-opacity="1"/></g><g filter="url(#master_svg0_0_781)"><ellipse cx="46.31636190414429" cy="34.61678767204285" rx="2.8061461448669434" ry="1.4030730724334717" fill="#FF8C71" fill-opacity="1"/></g><g filter="url(#master_svg1_0_782)"><ellipse cx="10.499180793762207" cy="34.61678767204285" rx="2.8061461448669434" ry="1.4030730724334717" fill="#FF8D6E" fill-opacity="1"/></g><g><g><ellipse cx="41.65680980682373" cy="26.690693855285645" rx="5.612292289733887" ry="5.612292289733887" fill="#000000" fill-opacity="1"/></g><g><ellipse cx="43.1161584854126" cy="25.47588062286377" rx="2.32485294342041" ry="2.32485294342041" fill="#FFFFFF" fill-opacity="1"/></g><g><ellipse cx="39.456772208213806" cy="29.89603626728058" rx="1.3345900774002075" ry="1.3345900774002075" fill="#FFFFFF" fill-opacity="1"/></g></g><g><g><ellipse cx="15.77075481414795" cy="26.690693855285645" rx="5.612292289733887" ry="5.612292289733887" fill="#000000" fill-opacity="1"/></g><g><ellipse cx="17.23010492324829" cy="25.47588062286377" rx="2.32485294342041" ry="2.32485294342041" fill="#FFFFFF" fill-opacity="1"/></g><g><ellipse cx="13.57071316242218" cy="29.89603626728058" rx="1.3345900774002075" ry="1.3345900774002075" fill="#FFFFFF" fill-opacity="1"/></g></g><g><path d="M9.884535489135743,18.601740995483397C9.608425489135742,18.6059609954834,9.388017149135742,18.833210995483398,9.392239145535742,19.109320995483397C9.396462149135742,19.385430995483397,9.623717489135743,19.605840995483398,9.899827489135742,19.601620995483398C9.899827489135742,19.601620995483398,9.884535489135743,18.601740995483397,9.884535489135743,18.601740995483397C9.884535489135743,18.601740995483397,9.884535489135743,18.601740995483397,9.884535489135743,18.601740995483397ZM18.410809489135744,16.7297959954834C18.56715948913574,16.502174995483397,18.509379489135743,16.1909109954834,18.281759489135744,16.034565695483398C18.054139489135743,15.878220695483398,17.742869489135742,15.935999695483398,17.586529489135742,16.163619995483398C17.586529489135742,16.163619995483398,18.410809489135744,16.7297959954834,18.410809489135744,16.7297959954834C18.410809489135744,16.7297959954834,18.410809489135744,16.7297959954834,18.410809489135744,16.7297959954834ZM9.899827489135742,19.601620995483398C10.956589489135743,19.5854609954834,12.553759489135743,19.6471709954834,14.116169489135743,19.338210995483397C15.693919489135741,19.0262209954834,17.315609489135742,18.3242909954834,18.410809489135744,16.7297959954834C18.410809489135744,16.7297959954834,17.586529489135742,16.163619995483398,17.586529489135742,16.163619995483398C16.692469489135743,17.465270995483397,15.353869489135743,18.0741009954834,13.922179489135743,18.3572109954834C12.475149489135742,18.6433509954834,11.013709489135742,18.5844709954834,9.884535489135743,18.601740995483397C9.884535489135743,18.601740995483397,9.899827489135742,19.601620995483398,9.899827489135742,19.601620995483398C9.899827489135742,19.601620995483398,9.899827489135742,19.601620995483398,9.899827489135742,19.601620995483398Z" fill="#000000" fill-opacity="1"/></g><g transform="matrix(-1,0,0,1,96.12647247314453,0)"><path d="M48.55559223657227,18.601740995483397C48.279482236572264,18.6059609954834,48.059073896572265,18.833210995483398,48.06329589297226,19.109320995483397C48.06751889657227,19.385430995483397,48.294774236572266,19.605840995483398,48.57088423657227,19.601620995483398C48.57088423657227,19.601620995483398,48.55559223657227,18.601740995483397,48.55559223657227,18.601740995483397C48.55559223657227,18.601740995483397,48.55559223657227,18.601740995483397,48.55559223657227,18.601740995483397ZM57.08186623657227,16.7297959954834C57.23821623657226,16.502174995483397,57.18043623657226,16.1909109954834,56.95281623657227,16.034565695483398C56.725196236572266,15.878220695483398,56.413926236572266,15.935999695483398,56.257586236572266,16.163619995483398C56.257586236572266,16.163619995483398,57.08186623657227,16.7297959954834,57.08186623657227,16.7297959954834C57.08186623657227,16.7297959954834,57.08186623657227,16.7297959954834,57.08186623657227,16.7297959954834ZM48.57088423657227,19.601620995483398C49.62764623657227,19.5854609954834,51.224816236572266,19.6471709954834,52.787226236572266,19.338210995483397C54.36497623657227,19.0262209954834,55.98666623657226,18.3242909954834,57.08186623657227,16.7297959954834C57.08186623657227,16.7297959954834,56.257586236572266,16.163619995483398,56.257586236572266,16.163619995483398C55.36352623657227,17.465270995483397,54.02492623657226,18.0741009954834,52.59323623657227,18.3572109954834C51.14620623657227,18.6433509954834,49.684766236572266,18.5844709954834,48.55559223657227,18.601740995483397C48.55559223657227,18.601740995483397,48.57088423657227,19.601620995483398,48.57088423657227,19.601620995483398C48.57088423657227,19.601620995483398,48.57088423657227,19.601620995483398,48.57088423657227,19.601620995483398Z" fill="#000000" fill-opacity="1"/></g><g><path d="M22.450798115527345,44.927796477050784C22.245919915527345,45.28779647705078,22.371669115527343,45.74571647705078,22.731665915527344,45.95059647705078C23.091662915527344,46.15547647705078,23.549580915527343,46.02972647705078,23.754460915527343,45.66972647705078C23.754460915527343,45.66972647705078,22.450798115527345,44.927796477050784,22.450798115527345,44.927796477050784C22.450798115527345,44.927796477050784,22.450798115527345,44.927796477050784,22.450798115527345,44.927796477050784ZM33.394900915527344,45.67644647705078C33.60350091552734,46.034306477050784,34.062700915527344,46.15531647705078,34.42050091552734,45.94672647705078C34.77840091552734,45.73814647705078,34.899400915527345,45.27894647705078,34.69080091552735,44.92108647705078C34.69080091552735,44.92108647705078,33.394900915527344,45.67644647705078,33.394900915527344,45.67644647705078C33.394900915527344,45.67644647705078,33.394900915527344,45.67644647705078,33.394900915527344,45.67644647705078ZM23.102629915527345,45.29876647705078C23.754460915527343,45.66972647705078,23.754300915527345,45.670006477050784,23.754150915527344,45.67026647705078C23.754110915527345,45.670346477050785,23.753970915527344,45.67059647705078,23.753890915527343,45.67073647705078C23.753720915527342,45.67102647705078,23.753580915527344,45.67127647705078,23.753470915527345,45.67147647705078C23.753240915527343,45.67187647705078,23.753110915527344,45.67208647705078,23.753090915527345,45.67212647705078C23.753040915527343,45.67220647705078,23.753410915527343,45.67156647705078,23.754200915527342,45.67023647705078C23.755760915527343,45.66757647705078,23.758980915527342,45.66214647705078,23.763860915527342,45.654136477050784C23.773610915527343,45.63811647705078,23.789970915527345,45.61182647705078,23.812940915527342,45.57671647705078C23.858940915527345,45.50642647705078,23.931150915527343,45.40132647705078,24.029750915527345,45.27295647705078C24.227600915527344,45.01538647705078,24.527810915527343,44.66923647705078,24.931090915527342,44.32338647705078C25.735740915527344,43.63332647705078,26.931110915527345,42.95883647705078,28.55085091552734,42.95807647705078C28.55085091552734,42.95807647705078,28.550150915527343,41.45807728042278,28.550150915527343,41.45807728042278C26.479980915527342,41.45904228005078,24.951420915527343,42.32989747705078,23.954610915527343,43.18474647705078C23.457160915527343,43.611356477050784,23.087257915527342,44.037556477050785,22.840181915527342,44.35921647705078C22.716318915527342,44.52046647705078,22.622360915527345,44.65670647705078,22.557808915527342,44.75534647705078C22.525505915527344,44.80470647705078,22.500484915527345,44.84478647705078,22.482687915527343,44.874006477050784C22.473785915527344,44.88862647705078,22.466683915527344,44.90054647705078,22.461372915527345,44.909576477050784C22.458717915527345,44.91408647705078,22.456508915527344,44.91787647705078,22.454746915527345,44.920926477050784C22.453865915527345,44.922446477050784,22.453096915527343,44.92378647705078,22.452438115527343,44.92492647705078C22.452109115527342,44.92550647705078,22.451808115527342,44.92602647705078,22.451535115527342,44.92650647705078C22.451398115527343,44.926746477050784,22.451213115527345,44.92707647705078,22.451145115527343,44.92718647705078C22.450968115527346,44.927506477050784,22.450798115527345,44.927796477050784,23.102629915527345,45.29876647705078C23.102629915527345,45.29876647705078,23.102629915527345,45.29876647705078,23.102629915527345,45.29876647705078ZM28.55085091552734,42.95807647705078C30.171000915527344,42.95731647705078,31.378330915527343,43.63230647705078,32.19546091552734,44.32490647705078C32.604700915527346,44.671776477050784,32.91060091552734,45.01905647705078,33.11270091552734,45.277546477050784C33.213400915527345,45.40636647705078,33.28740091552734,45.51189647705078,33.334600915527346,45.58254647705078C33.358100915527345,45.61783647705078,33.375000915527345,45.644286477050784,33.38500091552734,45.66045647705078C33.39010091552734,45.66853647705078,33.393400915527344,45.674036477050784,33.39500091552735,45.67676647705078C33.39590091552734,45.67812647705078,33.39630091552734,45.67879647705078,33.396200915527345,45.67875647705078C33.396200915527345,45.67873647705078,33.39610091552734,45.67852647705078,33.39590091552734,45.67814647705078C33.395800915527346,45.677956477050785,33.395600915527346,45.67771647705078,33.39550091552734,45.67743647705078C33.39540091552735,45.677286477050785,33.39520091552734,45.67704647705078,33.39520091552734,45.67697647705078C33.39500091552735,45.67671647705078,33.394900915527344,45.67644647705078,34.042800915527344,45.29876647705078C34.69080091552735,44.92108647705078,34.69060091552734,44.92079647705078,34.690500915527345,44.92048647705078C34.69040091552734,44.920366477050784,34.69020091552734,44.92005647705078,34.690100915527346,44.91981647705078C34.68980091552734,44.91934647705078,34.68950091552735,44.91882647705078,34.689200915527344,44.91825647705078C34.68850091552734,44.91712647705078,34.687700915527344,44.91580647705078,34.68680091552734,44.91429647705078C34.68500091552734,44.911276477050784,34.682800915527345,44.90750647705078,34.68010091552735,44.90302647705078C34.674700915527346,44.89404647705078,34.667400915527345,44.882176477050784,34.658400915527345,44.86761647705078C34.640200915527345,44.83848647705078,34.614700915527344,44.79850647705078,34.581800915527346,44.74923647705078C34.51600091552734,44.65077647705078,34.42030091552734,44.51472647705078,34.29440091552735,44.35366647705078C34.04320091552734,44.03238647705078,33.66790091552734,43.606656477050784,33.16530091552734,43.18064647705078C32.158760915527346,42.32747147705078,30.619910915527342,41.45711128005078,28.550150915527343,41.45807728042278C28.550150915527343,41.45807728042278,28.55085091552734,42.95807647705078,28.55085091552734,42.95807647705078C28.55085091552734,42.95807647705078,28.55085091552734,42.95807647705078,28.55085091552734,42.95807647705078Z" fill="#000000" fill-opacity="1"/></g></g></svg>