<svg xmlns="http://www.w3.org/2000/svg" xmlns:xlink="http://www.w3.org/1999/xlink" fill="none" version="1.1" width="57.1229248046875" height="57.1229248046875" viewBox="0 0 57.1229248046875 57.1229248046875"><g><g><path d="M28.5615,56.6229Q29.2503,56.6229,29.9384,56.5891Q30.6264,56.5553,31.312,56.4878Q31.9975,56.4203,32.6789,56.3192Q33.3603,56.2181,34.036,56.0837Q34.7116,55.9493,35.3798,55.7819Q36.0481,55.6146,36.7073,55.4146Q37.3665,55.2146,38.0151,54.9826Q38.6637,54.7505,39.3001,54.4869Q39.9365,54.2232,40.5593,53.9287Q41.182,53.6342,41.7895,53.3095Q42.3971,52.9847,42.9879,52.6306Q43.5788,52.2764,44.1516,51.8937Q44.7243,51.511,45.2776,51.1006Q45.831,50.6903,46.3635,50.2533Q46.896,49.8162,47.4064,49.3536Q47.9168,48.891,48.4039,48.4039Q48.891,47.9168,49.3536,47.4064Q49.8162,46.896,50.2533,46.3635Q50.6903,45.831,51.1006,45.2776Q51.511,44.7243,51.8937,44.1516Q52.2764,43.5788,52.6306,42.9879Q52.9847,42.3971,53.3095,41.7895Q53.6342,41.182,53.9287,40.5593Q54.2232,39.9365,54.4869,39.3001Q54.7505,38.6637,54.9826,38.0151Q55.2146,37.3665,55.4146,36.7073Q55.6146,36.0481,55.782,35.3798Q55.9493,34.7116,56.0837,34.036Q56.2181,33.3603,56.3192,32.6789Q56.4203,31.9975,56.4878,31.312Q56.5553,30.6264,56.5891,29.9384Q56.6229,29.2503,56.6229,28.5615Q56.6229,27.8726,56.5891,27.1846Q56.5553,26.4965,56.4878,25.811Q56.4203,25.1254,56.3192,24.444Q56.2181,23.7626,56.0837,23.0869Q55.9493,22.4113,55.7819,21.7431Q55.6146,21.0749,55.4146,20.4156Q55.2146,19.7564,54.9826,19.1078Q54.7505,18.4592,54.4869,17.8228Q54.2232,17.1864,53.9287,16.5636Q53.6342,15.9409,53.3095,15.3334Q52.9847,14.7259,52.6306,14.135Q52.2764,13.5441,51.8937,12.9713Q51.511,12.3986,51.1006,11.8453Q50.6903,11.292,50.2533,10.7595Q49.8162,10.22695,49.3536,9.71654Q48.891,9.20612,48.4039,8.71901Q47.9168,8.23191,47.4064,7.76929Q46.896,7.30667,46.3635,6.86966Q45.831,6.43264,45.2776,6.02228Q44.7243,5.61192,44.1516,5.22921Q43.5788,4.84649,42.9879,4.49234Q42.3971,4.13819,41.7895,3.81346Q41.182,3.48873,40.5593,3.1942Q39.9365,2.89967,39.3001,2.63605Q38.6637,2.37243,38.0151,2.1403600000000003Q37.3665,1.90829,36.7073,1.70832Q36.0481,1.50835,35.3798,1.340967Q34.7116,1.173585,34.036,1.039193Q33.3603,0.904801,32.6789,0.803723Q31.9975,0.702645,31.312,0.635124Q30.6264,0.5676025,29.9384,0.5338013Q29.2503,0.5,28.5615,0.5Q27.8726,0.5,27.1846,0.5338013Q26.4965,0.5676025,25.811,0.635124Q25.1254,0.702645,24.444,0.803723Q23.7626,0.904801,23.0869,1.039193Q22.4113,1.173585,21.7431,1.340967Q21.0749,1.50835,20.4156,1.70832Q19.7564,1.90829,19.1078,2.1403600000000003Q18.4592,2.37243,17.8228,2.63605Q17.1864,2.89967,16.5636,3.1942Q15.9409,3.48873,15.3334,3.81346Q14.7259,4.13819,14.135,4.49234Q13.5441,4.84649,12.9713,5.22921Q12.3986,5.61192,11.8453,6.02228Q11.292,6.43264,10.7595,6.86966Q10.22695,7.30667,9.71654,7.76929Q9.20612,8.23191,8.71901,8.71901Q8.23191,9.20612,7.76929,9.71654Q7.30667,10.22695,6.86966,10.7595Q6.43264,11.292,6.02228,11.8453Q5.61192,12.3986,5.22921,12.9713Q4.84649,13.5441,4.49234,14.135Q4.13819,14.7259,3.81346,15.3334Q3.48873,15.9409,3.1942,16.5636Q2.89967,17.1864,2.63605,17.8228Q2.37243,18.4592,2.1403600000000003,19.1078Q1.90829,19.7564,1.70832,20.4156Q1.50835,21.0749,1.340967,21.7431Q1.173585,22.4113,1.039193,23.0869Q0.904801,23.7626,0.803723,24.444Q0.702645,25.1254,0.635124,25.811Q0.5676025,26.4965,0.5338013,27.1846Q0.5,27.8726,0.5,28.5615Q0.4999999999999988,29.6907,0.5907328000000001,30.8162Q0.681466,31.9418,0.8623449999999999,33.0564Q1.043224,34.171,1.313079,35.2675Q1.58293,36.364,1.94002,37.4353Q2.29711,38.5065,2.73912,39.5456Q3.18112,40.5847,3.7052,41.585Q4.22927,42.5852,4.83202,43.5401Q5.43476,44.495,6.11229,45.3983L4.24155,53.8168L12.0151,51.2256Q12.9088,51.8781,13.8512,52.4582Q14.7935,53.0383,15.7786,53.5424Q16.7637,54.0464,17.7855,54.4714Q18.8072,54.8963,19.8593,55.2395Q20.9113,55.5827,21.9871,55.8419Q23.0629,56.1012,24.1557,56.2749Q25.2486,56.4486,26.3517,56.5358Q27.4549,56.6229,28.5615,56.6229Z" fill-rule="evenodd" fill="#FFCF00" fill-opacity="1"/><path d="M28.5615,56.1229Q33.8186,56.1229,38.7067,54.1878Q44.014,52.0867,48.0504,48.0504Q52.0867,44.0141,54.1878,38.7067Q56.1229,33.8186,56.1229,28.5615Q56.1229,23.3043,54.1878,18.4162Q52.0867,13.1089,48.0504,9.07257Q44.0141,5.03629,38.7067,2.93514Q33.8186,1,28.5615,1Q23.3043,1,18.4162,2.93514Q13.1088,5.03628,9.07257,9.07257Q5.03629,13.1089,2.93514,18.4162Q1,23.3043,1,28.5615Q1,37.7486,6.51229,45.0983L6.65027,45.2823L4.72964,53.9252L4.24155,53.8168L4.08343,53.3424L12.1016,50.6697L12.3099,50.8218Q19.571,56.123,28.5615,56.1229ZM28.5615,57.1229Q19.2449,57.1229,11.7203,51.6294L12.0151,51.2256L12.1732,51.6999L3.56189,54.5704L5.62419,45.2899L6.11229,45.3983L5.71229,45.6983Q0,38.082,0,28.5615Q0,23.1135,2.00535,18.0481Q4.18272,12.5482,8.365459999999999,8.365459999999999Q12.5482,4.182729999999999,18.0481,2.00535Q23.1136,0,28.5615,0Q34.0094,0,39.0748,2.00535Q44.5747,4.182729999999999,48.7575,8.365459999999999Q52.9402,12.5483,55.1176,18.0481Q57.1229,23.1136,57.1229,28.5615Q57.1229,34.0093,55.1176,39.0748Q52.9402,44.5747,48.7575,48.7575Q44.5747,52.9402,39.0748,55.1176Q34.0093,57.1229,28.5615,57.1229Z" fill="#000000" fill-opacity="1"/></g><g><path d="M16.401531246032715,13.159965515136719C16.677671246032716,13.159965515136719,16.901531246032715,12.936107515136719,16.901531246032715,12.659965515136719C16.901531246032715,12.383823515136719,16.677671246032716,12.159965515136719,16.401531246032715,12.159965515136719C16.401531246032715,12.159965515136719,16.401531246032715,13.159965515136719,16.401531246032715,13.159965515136719C16.401531246032715,13.159965515136719,16.401531246032715,13.159965515136719,16.401531246032715,13.159965515136719ZM10.373219046032714,15.18876551513672C10.220043046032714,15.418525515136718,10.282130056032715,15.728965515136718,10.511894246032714,15.882135515136719C10.741658246032715,16.03531551513672,11.052093246032715,15.973225515136718,11.205269246032715,15.74346551513672C11.205269246032715,15.74346551513672,10.373219046032714,15.18876551513672,10.373219046032714,15.18876551513672C10.373219046032714,15.18876551513672,10.373219046032714,15.18876551513672,10.373219046032714,15.18876551513672ZM16.401531246032715,12.159965515136719C15.717251246032715,12.159965515136719,14.625501246032716,12.311345515136718,13.504411246032715,12.756486515136718C12.380771246032715,13.202635515136718,11.193848246032715,13.95781551513672,10.373219046032714,15.18876551513672C10.373219046032714,15.18876551513672,11.205269246032715,15.74346551513672,11.205269246032715,15.74346551513672C11.881251246032715,14.72948551513672,12.876881246032715,14.08159551513672,13.873441246032716,13.685905515136719C14.872551246032714,13.289195515136718,15.838641246032715,13.159965515136719,16.401531246032715,13.159965515136719C16.401531246032715,13.159965515136719,16.401531246032715,12.159965515136719,16.401531246032715,12.159965515136719C16.401531246032715,12.159965515136719,16.401531246032715,12.159965515136719,16.401531246032715,12.159965515136719Z" fill="#000000" fill-opacity="1"/></g><g transform="matrix(-1,0,0,1,91.79670715332031,0)"><path d="M52.01069357666016,12.22458553314209C52.28683357666016,12.22458553314209,52.51069357666016,12.00072753314209,52.51069357666016,11.72458553314209C52.51069357666016,11.44844353314209,52.28683357666016,11.22458553314209,52.01069357666016,11.22458553314209C52.01069357666016,11.22458553314209,52.01069357666016,12.22458553314209,52.01069357666016,12.22458553314209C52.01069357666016,12.22458553314209,52.01069357666016,12.22458553314209,52.01069357666016,12.22458553314209ZM45.98238137666016,14.25338553314209C45.829205376660155,14.483145533142089,45.891292386660155,14.793585533142089,46.12105657666016,14.94675553314209C46.350820576660155,15.09993553314209,46.66125557666015,15.03784553314209,46.814431576660155,14.80808553314209C46.814431576660155,14.80808553314209,45.98238137666016,14.25338553314209,45.98238137666016,14.25338553314209C45.98238137666016,14.25338553314209,45.98238137666016,14.25338553314209,45.98238137666016,14.25338553314209ZM52.01069357666016,11.22458553314209C51.32641357666016,11.22458553314209,50.234663576660154,11.37596553314209,49.11357357666016,11.821106533142089C47.98993357666016,12.26725553314209,46.80301057666016,13.02243553314209,45.98238137666016,14.25338553314209C45.98238137666016,14.25338553314209,46.814431576660155,14.80808553314209,46.814431576660155,14.80808553314209C47.49041357666016,13.79410553314209,48.48604357666016,13.14621553314209,49.48260357666015,12.75052553314209C50.481713576660155,12.35381553314209,51.44780357666016,12.22458553314209,52.01069357666016,12.22458553314209C52.01069357666016,12.22458553314209,52.01069357666016,11.22458553314209,52.01069357666016,11.22458553314209C52.01069357666016,11.22458553314209,52.01069357666016,11.22458553314209,52.01069357666016,11.22458553314209Z" fill="#000000" fill-opacity="1"/></g><g><rect x="21.078401565551758" y="30.432226181030273" width="14.96611213684082" height="22.449169158935547" rx="4" fill="#000000" fill-opacity="1"/></g><g><path d="M28.561477260742187,31.36760902404785C25.755327260742188,31.36760902404785,23.884567260742188,33.23836902404785,23.884567260742188,34.173759024047854C23.884567260742188,35.10913902404785,25.755327260742188,36.04451902404785,28.561477260742187,36.04451902404785C31.36762726074219,36.04451902404785,33.238387260742186,35.10913902404785,33.238387260742186,34.173759024047854C33.238387260742186,33.23836902404785,31.36762726074219,31.36760902404785,28.561477260742187,31.36760902404785C28.561477260742187,31.36760902404785,28.561477260742187,31.36760902404785,28.561477260742187,31.36760902404785Z" fill="#FFFFFF" fill-opacity="1"/></g><g><path d="M34.17375008544922,47.26909694580078C34.17375008544922,50.36867694580078,31.66103008544922,51.946306945800785,28.56144008544922,51.946306945800785C25.461860085449217,51.946306945800785,22.94915008544922,50.36867694580078,22.94915008544922,47.26909694580078C22.94915008544922,44.16951694580078,24.81991008544922,41.65680694580078,28.56144008544922,41.65680694580078C32.30297008544922,41.65680694580078,34.17375008544922,44.462666945800784,34.17375008544922,47.26909694580078C34.17375008544922,47.26909694580078,34.17375008544922,47.26909694580078,34.17375008544922,47.26909694580078Z" fill="#D50B00" fill-opacity="1"/></g><g><path d="M12.888233682434082,20.371299287597655C13.278757682434081,19.980776587597656,13.911921682434082,19.980776587597656,14.302451682434082,20.371299287597655L17.336891682434082,23.405737287597656L20.371331682434082,20.371299287597655C20.761851682434084,19.980776587597656,21.395021682434084,19.980776587597656,21.785541682434083,20.371299287597655C22.17606168243408,20.761823287597657,22.17606168243408,21.394987287597658,21.785541682434083,21.785517287597656L18.751101682434083,24.819957287597656L21.78550168243408,27.854357287597658C22.176031682434083,28.244877287597657,22.176031682434083,28.878047287597656,21.78550168243408,29.268567287597655C21.394981682434082,29.659097287597657,20.761811682434082,29.659097287597657,20.371291682434084,29.268567287597655L17.336891682434082,26.234167287597657L14.302481682434083,29.268567287597655C13.911961682434082,29.659097287597657,13.278795682434081,29.659097287597657,12.888275682434083,29.268567287597655C12.497745482434082,28.878047287597656,12.497745482434082,28.244877287597657,12.888275682434083,27.854357287597658L15.922671682434082,24.819957287597656L12.888233682434082,21.785517287597656C12.497710982434082,21.394987287597658,12.497710982434082,20.761823287597657,12.888233682434082,20.371299287597655Z" fill-rule="evenodd" fill="#000000" fill-opacity="1"/></g><g><path d="M35.337314149658205,20.371299287597655C35.727838149658204,19.980776587597656,36.361002149658205,19.980776587597656,36.7515321496582,20.371299287597655L39.78597214965821,23.405737287597656L42.8204121496582,20.371299287597655C43.210932149658206,19.980776587597656,43.844102149658205,19.980776587597656,44.23462214965821,20.371299287597655C44.6251421496582,20.761823287597657,44.6251421496582,21.394987287597658,44.23462214965821,21.785517287597656L41.200182149658204,24.819957287597656L44.2345821496582,27.854357287597658C44.62511214965821,28.244877287597657,44.62511214965821,28.878047287597656,44.2345821496582,29.268567287597655C43.8440621496582,29.659097287597657,43.21089214965821,29.659097287597657,42.820372149658205,29.268567287597655L39.78597214965821,26.234167287597657L36.751562149658206,29.268567287597655C36.3610421496582,29.659097287597657,35.7278761496582,29.659097287597657,35.337356149658206,29.268567287597655C34.946825949658205,28.878047287597656,34.946825949658205,28.244877287597657,35.337356149658206,27.854357287597658L38.37175214965821,24.819957287597656L35.337314149658205,21.785517287597656C34.9467914496582,21.394987287597658,34.9467914496582,20.761823287597657,35.337314149658205,20.371299287597655Z" fill-rule="evenodd" fill="#000000" fill-opacity="1"/></g></g></svg>