<svg xmlns="http://www.w3.org/2000/svg" xmlns:xlink="http://www.w3.org/1999/xlink" fill="none" version="1.1" width="38.5277099609375" height="55.620086669921875" viewBox="0 0 38.5277099609375 55.620086669921875"><defs><mask id="master_svg0_0_1191" style="mask-type:alpha" maskUnits="userSpaceOnUse"><g><path d="M1.003950720625,19.238508984375C1.1967281406249999,30.611608984375,12.971544140625,37.952608984375,18.834844140625,40.201508984375C24.698044140625,38.086508984375,36.456444140625,30.933008984375,36.584944140625,19.238508984375C36.745644140625,4.620318984375,25.340544140625,1.166772984375,18.834844140625,1.006135574375C12.329244140625,0.845497984375,0.7629791406249999,5.022068984375,1.003950720625,19.238508984375C1.003950720625,19.238508984375,1.003950720625,19.238508984375,1.003950720625,19.238508984375Z" fill="#FFFFFF" fill-opacity="1"/></g></mask></defs><g><g><path d="M1.003950720625,19.238508984375C1.1967281406249999,30.611608984375,12.971544140625,37.952608984375,18.834844140625,40.201508984375C24.698044140625,38.086508984375,36.456444140625,30.933008984375,36.584944140625,19.238508984375C36.745644140625,4.620318984375,25.340544140625,1.166772984375,18.834844140625,1.006135574375C12.329244140625,0.845497984375,0.7629791406249999,5.022068984375,1.003950720625,19.238508984375C1.003950720625,19.238508984375,1.003950720625,19.238508984375,1.003950720625,19.238508984375Z" fill="#D9303B" fill-opacity="1"/><path d="M0.004098140625000024,19.255408984375Q0.13888314062499996,27.207508984375,7.101914140625,33.864408984375Q12.181444140625,38.720608984375,18.476744140625,41.135208984375L18.824144140625,41.268408984375L19.174144140625,41.142208984375Q25.479744140625,38.867608984375,30.550244140625,34.036308984375Q37.495144140625,27.419008984375,37.584844140625,19.249508984375Q37.697244140625,9.023708984375,30.806644140625,3.898358984375Q25.804744140625,0.17792898437500004,18.859544140625,0.006435984375000037Q12.154844140625,-0.15911101562499996,6.783204140625,3.935628984375Q-0.16579585937499997,9.232728984375,0.004098140625000024,19.255408984375ZM18.834844140625,40.201508984375C12.971544140625,37.952608984375,1.1967281406249999,30.611608984375,1.003950720625,19.238508984375C0.7629791406249999,5.022068984375,12.329244140625,0.845497984375,18.834844140625,1.006135574375C25.340544140625,1.166772984375,36.745644140625,4.620318984375,36.584944140625,19.238508984375C36.456444140625,30.933008984375,24.698044140625,38.086508984375,18.834844140625,40.201508984375Z" fill-rule="evenodd" fill="#000000" fill-opacity="1"/></g><g mask="url(#master_svg0_0_1191)"><g><ellipse cx="11.517180442810059" cy="16.736761569976807" rx="20.502838134765625" ry="20.502838134765625" fill="#FF4D4D" fill-opacity="1"/></g></g><g><path d="M14.06223794732666,45.701774907226564C14.06223794732666,45.701774907226564,18.661701947326662,41.881136507226564,18.661701947326662,41.881136507226564C18.77381194732666,41.78800720722656,18.93664194732666,41.78893120722656,19.047691947326662,41.88332650722656C19.047691947326662,41.88332650722656,23.54237194732666,45.70396490722656,23.54237194732666,45.70396490722656C23.755071947326662,45.88474490722656,23.62717194732666,46.23254490722656,23.348081947326662,46.23254490722656C23.348081947326662,46.23254490722656,14.253929947326661,46.23254490722656,14.253929947326661,46.23254490722656C13.97310554732666,46.23254490722656,13.84621994732666,45.881214907226564,14.06223794732666,45.701774907226564C14.06223794732666,45.701774907226564,14.06223794732666,45.701774907226564,14.06223794732666,45.701774907226564Z" fill="#FF4D4D" fill-opacity="1"/><path d="M13.50149794732666,46.20429490722656Q13.69228094732666,46.73254490722656,14.253929947326661,46.73254490722656L23.348081947326662,46.73254490722656Q23.90631194732666,46.73254490722656,24.098931947326662,46.20857490722656Q24.29163194732666,45.68455490722656,23.86620194732666,45.32300490722656L19.37152194732666,41.502361907226565Q19.14942194732666,41.31357190722656,18.857931947326662,41.311917907226565Q18.56643194732666,41.31026390722656,18.34221194732666,41.49652290722656L13.74274994732666,45.31716490722656Q13.31071494732666,45.67604490722656,13.50149794732666,46.20429490722656ZM14.80769894732666,45.73254490722656L22.803991947326658,45.73254490722656L18.85191194732666,42.373137907226564L14.80769894732666,45.73254490722656Z" fill-rule="evenodd" fill="#000000" fill-opacity="1"/></g><g><path d="M2.9534507180007936,21.178609238052367C2.4810253180007935,9.938509238052369,10.372422318000794,4.458299238052368,14.377152318000794,3.123209238052368C14.377152318000794,3.123209238052368,10.337972318000794,9.229099238052367,8.388452318000795,12.062789238052368C6.438942318000794,14.896509238052369,2.9534507180007936,21.178609238052367,2.9534507180007936,21.178609238052367C2.9534507180007936,21.178609238052367,2.9534507180007936,21.178609238052367,2.9534507180007936,21.178609238052367Z" fill="#FF9D8C" fill-opacity="1"/></g><g><path d="M19.27738534362793,46.274831086425785C19.29065534362793,45.99900808642578,19.07780734362793,45.76465488642578,18.80198334362793,45.75138892542578C18.52616034362793,45.73812388642578,18.29180704362793,45.95096908642578,18.27854107362793,46.22679308642578C18.27854107362793,46.22679308642578,19.27738534362793,46.274831086425785,19.27738534362793,46.274831086425785C19.27738534362793,46.274831086425785,19.27738534362793,46.274831086425785,19.27738534362793,46.274831086425785ZM23.27217534362793,50.98390108642578C23.27217534362793,50.98390108642578,23.33521534362793,50.48789108642578,23.33521534362793,50.48789108642578C23.33521534362793,50.48789108642578,23.27217534362793,50.98390108642578,23.27217534362793,50.98390108642578C23.27217534362793,50.98390108642578,23.27217534362793,50.98390108642578,23.27217534362793,50.98390108642578ZM37.70350534362793,55.50075108642578C37.913705343627925,55.67978108642578,38.22930534362793,55.65448108642578,38.40830534362793,55.444241086425784C38.58740534362793,55.23400108642578,38.562105343627934,54.918431086425784,38.35180534362793,54.73940108642578C38.35180534362793,54.73940108642578,37.70350534362793,55.50075108642578,37.70350534362793,55.50075108642578C37.70350534362793,55.50075108642578,37.70350534362793,55.50075108642578,37.70350534362793,55.50075108642578ZM18.27854107362793,46.22679308642578C18.24081204362793,47.01129108642578,18.44815934362793,48.18765108642578,19.181960343627928,49.241251086425784C19.928535343627928,50.31320108642578,21.19732534362793,51.22422108642578,23.209135343627928,51.47991108642578C23.209135343627928,51.47991108642578,23.33521534362793,50.48789108642578,23.33521534362793,50.48789108642578C21.59249534362793,50.26640108642578,20.58101534362793,49.50031108642578,20.00254534362793,48.669731086425784C19.41129534362793,47.82080108642578,19.248801343627928,46.86921108642578,19.27738534362793,46.274831086425785C19.27738534362793,46.274831086425785,18.27854107362793,46.22679308642578,18.27854107362793,46.22679308642578C18.27854107362793,46.22679308642578,18.27854107362793,46.22679308642578,18.27854107362793,46.22679308642578ZM23.209135343627928,51.47991108642578C28.04635534362793,52.09468108642578,32.76230534362793,51.29299108642578,37.70350534362793,55.50075108642578C37.70350534362793,55.50075108642578,38.35180534362793,54.73940108642578,38.35180534362793,54.73940108642578C33.11140534362793,50.27685108642578,27.88433534362793,51.066041086425784,23.33521534362793,50.48789108642578C23.33521534362793,50.48789108642578,23.209135343627928,51.47991108642578,23.209135343627928,51.47991108642578C23.209135343627928,51.47991108642578,23.209135343627928,51.47991108642578,23.209135343627928,51.47991108642578Z" fill="#000000" fill-opacity="1"/></g></g></svg>