<svg xmlns="http://www.w3.org/2000/svg" xmlns:xlink="http://www.w3.org/1999/xlink" fill="none" version="1.1" width="57.1229248046875" height="57.1229248046875" viewBox="0 0 57.1229248046875 57.1229248046875"><defs><filter id="master_svg0_0_53" filterUnits="objectBoundingBox" color-interpolation-filters="sRGB" x="-2" y="-2" width="10.547674179077148" height="6.806146144866943"><feFlood flood-opacity="0" result="BackgroundImageFix"/><feBlend mode="normal" in="SourceGraphic" in2="BackgroundImageFix" result="shape"/><feGaussianBlur stdDeviation="0.5" result="effect1_foregroundBlur"/></filter><filter id="master_svg1_0_54" filterUnits="objectBoundingBox" color-interpolation-filters="sRGB" x="-2" y="-2" width="10.547674179077148" height="6.806146144866943"><feFlood flood-opacity="0" result="BackgroundImageFix"/><feBlend mode="normal" in="SourceGraphic" in2="BackgroundImageFix" result="shape"/><feGaussianBlur stdDeviation="0.5" result="effect1_foregroundBlur"/></filter><mask id="master_svg2_0_57" style="mask-type:alpha" maskUnits="userSpaceOnUse"><g><path d="M29.496851475524902,46.33372996826172C20.187901475524903,46.33372996826172,17.605681475524904,38.932519968261715,15.961189575524902,33.82787996826172C15.734312475524902,33.123638968261716,16.3180694755249,32.43558296826172,17.042941475524902,32.58385816826172C20.065261475524903,33.202081968261716,24.8812814755249,34.44101996826172,29.496851475524902,34.44101996826172C33.8766514755249,34.44101996826172,38.436851475524904,33.77167996826172,41.47375147552491,32.96263796826172C42.2970514755249,32.74331296826172,43.1255514755249,33.54729996826172,42.8609514755249,34.357169968261715C41.2043514755249,39.428179968261716,38.48875147552491,46.33372996826172,29.496851475524902,46.33372996826172C29.496851475524902,46.33372996826172,29.496851475524902,46.33372996826172,29.496851475524902,46.33372996826172Z" fill="#FFFFFF" fill-opacity="1"/></g></mask></defs><g><g><path d="M28.5615,56.6229Q29.2503,56.6229,29.9384,56.5891Q30.6264,56.5553,31.312,56.4878Q31.9975,56.4203,32.6789,56.3192Q33.3603,56.2181,34.036,56.0837Q34.7116,55.9493,35.3798,55.7819Q36.0481,55.6146,36.7073,55.4146Q37.3665,55.2146,38.0151,54.9826Q38.6637,54.7505,39.3001,54.4869Q39.9365,54.2232,40.5593,53.9287Q41.182,53.6342,41.7895,53.3095Q42.3971,52.9847,42.9879,52.6306Q43.5788,52.2764,44.1516,51.8937Q44.7243,51.511,45.2776,51.1006Q45.831,50.6903,46.3635,50.2533Q46.896,49.8162,47.4064,49.3536Q47.9168,48.891,48.4039,48.4039Q48.891,47.9168,49.3536,47.4064Q49.8162,46.896,50.2533,46.3635Q50.6903,45.831,51.1006,45.2776Q51.511,44.7243,51.8937,44.1516Q52.2764,43.5788,52.6306,42.9879Q52.9847,42.3971,53.3095,41.7895Q53.6342,41.182,53.9287,40.5593Q54.2232,39.9365,54.4869,39.3001Q54.7505,38.6637,54.9826,38.0151Q55.2146,37.3665,55.4146,36.7073Q55.6146,36.0481,55.782,35.3798Q55.9493,34.7116,56.0837,34.036Q56.2181,33.3603,56.3192,32.6789Q56.4203,31.9975,56.4878,31.312Q56.5553,30.6264,56.5891,29.9384Q56.6229,29.2503,56.6229,28.5615Q56.6229,27.8726,56.5891,27.1846Q56.5553,26.4965,56.4878,25.811Q56.4203,25.1254,56.3192,24.444Q56.2181,23.7626,56.0837,23.0869Q55.9493,22.4113,55.7819,21.7431Q55.6146,21.0749,55.4146,20.4156Q55.2146,19.7564,54.9826,19.1078Q54.7505,18.4592,54.4869,17.8228Q54.2232,17.1864,53.9287,16.5636Q53.6342,15.9409,53.3095,15.3334Q52.9847,14.7259,52.6306,14.135Q52.2764,13.5441,51.8937,12.9713Q51.511,12.3986,51.1006,11.8453Q50.6903,11.292,50.2533,10.7595Q49.8162,10.22695,49.3536,9.71654Q48.891,9.20612,48.4039,8.71901Q47.9168,8.23191,47.4064,7.76929Q46.896,7.30667,46.3635,6.86966Q45.831,6.43264,45.2776,6.02228Q44.7243,5.61192,44.1516,5.22921Q43.5788,4.84649,42.9879,4.49234Q42.3971,4.13819,41.7895,3.81346Q41.182,3.48873,40.5593,3.1942Q39.9365,2.89967,39.3001,2.63605Q38.6637,2.37243,38.0151,2.1403600000000003Q37.3665,1.90829,36.7073,1.70832Q36.0481,1.50835,35.3798,1.340967Q34.7116,1.173585,34.036,1.039193Q33.3603,0.904801,32.6789,0.803723Q31.9975,0.702645,31.312,0.635124Q30.6264,0.5676025,29.9384,0.5338013Q29.2503,0.5,28.5615,0.5Q27.8726,0.5,27.1846,0.5338013Q26.4965,0.5676025,25.811,0.635124Q25.1254,0.702645,24.444,0.803723Q23.7626,0.904801,23.0869,1.039193Q22.4113,1.173585,21.7431,1.340967Q21.0749,1.50835,20.4156,1.70832Q19.7564,1.90829,19.1078,2.1403600000000003Q18.4592,2.37243,17.8228,2.63605Q17.1864,2.89967,16.5636,3.1942Q15.9409,3.48873,15.3334,3.81346Q14.7259,4.13819,14.135,4.49234Q13.5441,4.84649,12.9713,5.22921Q12.3986,5.61192,11.8453,6.02228Q11.292,6.43264,10.7595,6.86966Q10.22695,7.30667,9.71654,7.76929Q9.20612,8.23191,8.71901,8.71901Q8.23191,9.20612,7.76929,9.71654Q7.30667,10.22695,6.86966,10.7595Q6.43264,11.292,6.02228,11.8453Q5.61192,12.3986,5.22921,12.9713Q4.84649,13.5441,4.49234,14.135Q4.13819,14.7259,3.81346,15.3334Q3.48873,15.9409,3.1942,16.5636Q2.89967,17.1864,2.63605,17.8228Q2.37243,18.4592,2.1403600000000003,19.1078Q1.90829,19.7564,1.70832,20.4156Q1.50835,21.0749,1.340967,21.7431Q1.173585,22.4113,1.039193,23.0869Q0.904801,23.7626,0.803723,24.444Q0.702645,25.1254,0.635124,25.811Q0.5676025,26.4965,0.5338013,27.1846Q0.5,27.8726,0.5,28.5615Q0.4999999999999988,29.6907,0.5907328000000001,30.8162Q0.681466,31.9418,0.8623449999999999,33.0564Q1.043224,34.171,1.313079,35.2675Q1.58293,36.364,1.94002,37.4353Q2.29711,38.5065,2.73912,39.5456Q3.18112,40.5847,3.7052,41.585Q4.22927,42.5852,4.83202,43.5401Q5.43476,44.495,6.11229,45.3983L4.24155,53.8168L12.0151,51.2256Q12.9088,51.8781,13.8512,52.4582Q14.7935,53.0383,15.7786,53.5424Q16.7637,54.0464,17.7855,54.4714Q18.8072,54.8963,19.8593,55.2395Q20.9113,55.5827,21.9871,55.8419Q23.0629,56.1012,24.1557,56.2749Q25.2486,56.4486,26.3517,56.5358Q27.4549,56.6229,28.5615,56.6229Z" fill-rule="evenodd" fill="#FFCF00" fill-opacity="1"/><path d="M28.5615,56.1229Q33.8186,56.1229,38.7067,54.1878Q44.014,52.0867,48.0504,48.0504Q52.0867,44.0141,54.1878,38.7067Q56.1229,33.8186,56.1229,28.5615Q56.1229,23.3043,54.1878,18.4162Q52.0867,13.1089,48.0504,9.07257Q44.0141,5.03629,38.7067,2.93514Q33.8186,1,28.5615,1Q23.3043,1,18.4162,2.93514Q13.1088,5.03628,9.07257,9.07257Q5.03629,13.1089,2.93514,18.4162Q1,23.3043,1,28.5615Q1,37.7486,6.51229,45.0983L6.65027,45.2823L4.72964,53.9252L4.24155,53.8168L4.08343,53.3424L12.1016,50.6697L12.3099,50.8218Q19.571,56.123,28.5615,56.1229ZM28.5615,57.1229Q19.2449,57.1229,11.7203,51.6294L12.0151,51.2256L12.1732,51.6999L3.56189,54.5704L5.62419,45.2899L6.11229,45.3983L5.71229,45.6983Q0,38.082,0,28.5615Q0,23.1135,2.00535,18.0481Q4.18272,12.5482,8.365459999999999,8.365459999999999Q12.5482,4.182729999999999,18.0481,2.00535Q23.1136,0,28.5615,0Q34.0094,0,39.0748,2.00535Q44.5747,4.182729999999999,48.7575,8.365459999999999Q52.9402,12.5483,55.1176,18.0481Q57.1229,23.1136,57.1229,28.5615Q57.1229,34.0093,55.1176,39.0748Q52.9402,44.5747,48.7575,48.7575Q44.5747,52.9402,39.0748,55.1176Q34.0093,57.1229,28.5615,57.1229Z" fill="#000000" fill-opacity="1"/></g><g transform="matrix(0.9452683925628662,-0.32629382610321045,0.32629382610321045,0.9452683925628662,-9.5784956332825,4.087276673500014)" filter="url(#master_svg0_0_53)"><ellipse cx="10.668163299560547" cy="31.998806715011597" rx="3.273837089538574" ry="1.4030730724334717" fill="#FF8B72" fill-opacity="1"/></g><g transform="matrix(-0.9452683925628662,-0.3262938857078552,-0.32629382610321045,0.9452683925628662,108.70479242408123,18.233837967459976)" filter="url(#master_svg1_0_54)"><ellipse cx="54.00083827972412" cy="32.13353610038757" rx="3.273837089538574" ry="1.4030730724334717" fill="#FF8B72" fill-opacity="1"/></g><g><path d="M29.496851475524902,46.33372996826172C20.187901475524903,46.33372996826172,17.605681475524904,38.932519968261715,15.961189575524902,33.82787996826172C15.734312475524902,33.123638968261716,16.3180694755249,32.43558296826172,17.042941475524902,32.58385816826172C20.065261475524903,33.202081968261716,24.8812814755249,34.44101996826172,29.496851475524902,34.44101996826172C33.8766514755249,34.44101996826172,38.436851475524904,33.77167996826172,41.47375147552491,32.96263796826172C42.2970514755249,32.74331296826172,43.1255514755249,33.54729996826172,42.8609514755249,34.357169968261715C41.2043514755249,39.428179968261716,38.48875147552491,46.33372996826172,29.496851475524902,46.33372996826172C29.496851475524902,46.33372996826172,29.496851475524902,46.33372996826172,29.496851475524902,46.33372996826172Z" fill="#000000" fill-opacity="1"/></g><g mask="url(#master_svg2_0_57)"><g><path d="M28.5614775970459,37.91528844833374C22.661867597045898,37.91528844833374,19.202717597045897,42.70049844833374,17.8067525970459,45.35441844833374C17.5344015970459,45.87219844833374,17.812895597045898,46.49239844833374,18.3679145970459,46.67739844833374C18.3679145970459,46.67739844833374,25.601377597045897,49.08858844833374,25.601377597045897,49.08858844833374C25.703347597045898,49.122588448333744,25.8101175970459,49.13988844833374,25.9176075970459,49.13988844833374C25.9176075970459,49.13988844833374,31.108477597045898,49.13988844833374,31.108477597045898,49.13988844833374C31.278377597045896,49.13988844833374,31.445577597045897,49.09658844833374,31.594077597045896,49.01398844833374C31.594077597045896,49.01398844833374,38.9969775970459,44.90134844833374,38.9969775970459,44.90134844833374C39.4451775970459,44.65231844833374,39.6358775970459,44.10353844833374,39.3754775970459,43.66181844833374C38.0197775970459,41.36249844833374,34.5463775970459,37.91528844833374,28.5614775970459,37.91528844833374C28.5614775970459,37.91528844833374,28.5614775970459,37.91528844833374,28.5614775970459,37.91528844833374Z" fill="#D50B00" fill-opacity="1"/></g></g><g transform="matrix(0.98540860414505,-0.17020541429519653,0.17020541429519653,0.98540860414505,-2.2201072612480743,6.611870788224962)"><path d="M37.67415633862305,16.90675905682373C37.47656423862305,17.00555505682373,37.39647423862305,17.24582405682373,37.49527023862305,17.44341605682373C37.594066338623044,17.64100605682373,37.83433533862305,17.72109605682373,38.031926338623045,17.62230605682373C38.031926338623045,17.62230605682373,37.67415633862305,16.90675905682373,37.67415633862305,16.90675905682373C37.67415633862305,16.90675905682373,37.67415633862305,16.90675905682373,37.67415633862305,16.90675905682373ZM44.11787333862305,18.48275605682373C44.27408333862304,18.63896605682373,44.527353338623044,18.63896605682373,44.683563338623046,18.48275605682373C44.83977333862305,18.32654605682373,44.83977333862305,18.07327605682373,44.683563338623046,17.91706605682373C44.683563338623046,17.91706605682373,44.11787333862305,18.48275605682373,44.11787333862305,18.48275605682373C44.11787333862305,18.48275605682373,44.11787333862305,18.48275605682373,44.11787333862305,18.48275605682373ZM38.031926338623045,17.62230605682373C38.60300333862305,17.33676605682373,39.61409333862305,17.027091056823732,40.742343338623044,17.05639605682373C41.86122333862305,17.08545805682373,43.08145333862305,17.446336056823732,44.11787333862305,18.48275605682373C44.11787333862305,18.48275605682373,44.683563338623046,17.91706605682373,44.683563338623046,17.91706605682373C43.475063338623045,16.70857305682373,42.045043338623046,16.28996315682373,40.76311333862305,16.25666614682373C39.490553338623045,16.22361315682373,38.35025633862305,16.56870905682373,37.67415633862305,16.90675905682373C37.67415633862305,16.90675905682373,38.031926338623045,17.62230605682373,38.031926338623045,17.62230605682373C38.031926338623045,17.62230605682373,38.031926338623045,17.62230605682373,38.031926338623045,17.62230605682373Z" fill="#000000" fill-opacity="1"/></g><g transform="matrix(-0.98540860414505,-0.17020535469055176,-0.17020541429519653,0.98540860414505,44.00945461845191,3.772848057288286)"><path d="M20.994184643676757,16.90675905682373C20.79659254367676,17.00555505682373,20.716502543676757,17.24582405682373,20.815298543676757,17.44341605682373C20.91409464367676,17.64100605682373,21.154363643676756,17.72109605682373,21.35195464367676,17.62230605682373C21.35195464367676,17.62230605682373,20.994184643676757,16.90675905682373,20.994184643676757,16.90675905682373C20.994184643676757,16.90675905682373,20.994184643676757,16.90675905682373,20.994184643676757,16.90675905682373ZM27.43790164367676,18.48275605682373C27.594111643676758,18.63896605682373,27.84738164367676,18.63896605682373,28.003591643676756,18.48275605682373C28.159801643676758,18.32654605682373,28.159801643676758,18.07327605682373,28.003591643676756,17.91706605682373C28.003591643676756,17.91706605682373,27.43790164367676,18.48275605682373,27.43790164367676,18.48275605682373C27.43790164367676,18.48275605682373,27.43790164367676,18.48275605682373,27.43790164367676,18.48275605682373ZM21.35195464367676,17.62230605682373C21.923031643676758,17.33676605682373,22.934121643676757,17.027091056823732,24.06237164367676,17.05639605682373C25.18125164367676,17.08545805682373,26.401481643676757,17.446336056823732,27.43790164367676,18.48275605682373C27.43790164367676,18.48275605682373,28.003591643676756,17.91706605682373,28.003591643676756,17.91706605682373C26.795091643676756,16.70857305682373,25.365071643676757,16.28996315682373,24.083141643676758,16.25666614682373C22.81058164367676,16.22361315682373,21.67028464367676,16.56870905682373,20.994184643676757,16.90675905682373C20.994184643676757,16.90675905682373,21.35195464367676,17.62230605682373,21.35195464367676,17.62230605682373C21.35195464367676,17.62230605682373,21.35195464367676,17.62230605682373,21.35195464367676,17.62230605682373Z" fill="#000000" fill-opacity="1"/></g><g><path d="M36.083176902246095,25.142127517700196C36.9527523022461,21.201340517700196,44.89536230224609,19.748877517700194,46.228622302246094,21.810394517700196C46.29442230224609,21.912107517700196,46.22922230224609,22.039617517700194,46.112422302246095,22.071697517700194C44.16175230224609,22.607417517700195,41.947352302246095,23.866997517700195,41.656812302246095,24.819927517700194C41.404532302246096,25.647347517700197,42.683942302246095,27.004637517700196,44.602082302246096,28.148027517700196C44.7632823022461,28.244127517700196,44.72198230224609,28.487167517700193,44.53554230224609,28.508767517700196C40.46914230224609,28.979947517700197,35.812682302246095,26.367967517700194,36.083176902246095,25.142127517700196C36.083176902246095,25.142127517700196,36.083176902246095,25.142127517700196,36.083176902246095,25.142127517700196Z" fill="#000000" fill-opacity="1"/></g><g transform="matrix(-1,0,0,1,43.9727668762207,0)"><path d="M21.997638038110352,25.142127517700196C22.86721343811035,21.201340517700196,30.80982343811035,19.748877517700194,32.14308343811035,21.810394517700196C32.20888343811035,21.912107517700196,32.14368343811035,22.039617517700194,32.02688343811035,22.071697517700194C30.07621343811035,22.607417517700195,27.861813438110353,23.866997517700195,27.571273438110353,24.819927517700194C27.31899343811035,25.647347517700197,28.598403438110353,27.004637517700196,30.516543438110354,28.148027517700196C30.67774343811035,28.244127517700196,30.63644343811035,28.487167517700193,30.45000343811035,28.508767517700196C26.383603438110352,28.979947517700197,21.727143438110353,26.367967517700194,21.997638038110352,25.142127517700196C21.997638038110352,25.142127517700196,21.997638038110352,25.142127517700196,21.997638038110352,25.142127517700196Z" fill="#000000" fill-opacity="1"/></g></g></svg>