<svg xmlns="http://www.w3.org/2000/svg" xmlns:xlink="http://www.w3.org/1999/xlink" fill="none" version="1.1" width="57.3209228515625" height="48.114501953125" viewBox="0 0 57.3209228515625 48.114501953125"><defs><mask id="master_svg0_0_1139" style="mask-type:alpha" maskUnits="userSpaceOnUse"><g><rect x="0" y="0" width="57.32093811035156" height="48.114501953125" rx="0" fill="#FFFFFF" fill-opacity="1"/></g></mask></defs><g mask="url(#master_svg0_0_1139)"><g><g><path d="M32.455154694976805,1.6651288255398482C29.922014694976806,1.6648204573915482,28.069614694976806,3.317438782391548,25.926214694976807,4.4817487823915485C28.746044694976806,6.822248782391548,34.8587346949768,10.411028782391549,37.22741469497681,7.703988782391548C40.18821469497681,4.320178782391548,34.988304694976804,1.6654372793915482,32.455154694976805,1.6651288255398482C32.455154694976805,1.6651288255398482,32.455154694976805,1.6651288255398482,32.455154694976805,1.6651288255398482Z" fill="#F5CEA3" fill-opacity="1"/><path d="M31.563864694976807,8.451348782391548Q35.79112469497681,10.104728782391549,37.60371469497681,8.033238782391548Q38.79701469497681,6.669428782391548,38.581314694976804,5.257408782391549Q38.397914694976805,4.056998782391548,37.230114694976805,3.0388587823915483Q36.26191469497681,2.194846782391548,34.862834694976804,1.6653503083915482Q33.541424694976804,1.1652607823915482,32.4552146949768,1.165127782391548Q31.072354694976806,1.1649607823915482,29.620594694976806,1.7999687823915482Q28.772244694976806,2.171042782391548,27.192334694976807,3.1493487823915483Q26.197444694976806,3.7654087823915483,25.687549694976806,4.042388782391548L25.038666694976808,4.394868782391548L25.60687669497681,4.866488782391548Q28.466204694976806,7.239768782391548,31.563864694976807,8.451348782391548ZM37.59281469497681,5.408418782391548Q37.73831469497681,6.360828782391549,36.85111469497681,7.374738782391548Q35.501154694976805,8.917548782391549,31.928124694976805,7.520048782391548Q29.283634694976808,6.485718782391548,26.809999694976806,4.5518487823915486Q27.202184694976808,4.319448782391548,27.718794694976808,3.9995487823915483Q29.238194694976805,3.058708782391548,30.021344694976808,2.716158782391548Q31.281434694976806,2.164985782391548,32.45509469497681,2.165127782391548Q33.3584646949768,2.1652387823915484,34.50887469497681,2.600613782391548Q35.74011469497681,3.0665787823915482,36.5729146949768,3.792628782391548Q37.464714694976806,4.570078782391548,37.59281469497681,5.408418782391548Z" fill-rule="evenodd" fill="#000000" fill-opacity="1"/></g><g><path d="M42.449261273956296,9.335433746261597C47.3831612739563,10.116413746261596,55.2040612739563,4.715393746261597,58.4977612739563,1.9172637462615967C58.4977612739563,1.9172637462615967,58.4977612739563,23.079263746261596,58.4977612739563,23.079263746261596C54.7838612739563,22.948163746261596,49.763461273956295,28.427763746261597,47.7174612739563,31.183963746261597C47.7174612739563,31.183963746261597,25.5900412739563,20.383663746261597,25.5900412739563,20.383663746261597C25.5900412739563,20.383663746261597,28.3766312739563,14.400463746261597,28.3766312739563,14.400463746261597C21.181001273956298,9.759003746261596,22.0188042739563,4.104643746261597,23.747921273956297,3.2837037462615966C25.803741273956298,2.3076427462615965,36.2817612739563,8.359203746261596,42.449261273956296,9.335433746261597C42.449261273956296,9.335433746261597,42.449261273956296,9.335433746261597,42.449261273956296,9.335433746261597Z" fill="#F5CEA3" fill-opacity="1"/><path d="M26.976991273956298,3.2549137462615967Q24.4292012739563,2.406751746261597,23.5334752739563,2.8320267462615965Q22.632967973956298,3.2595637462615965,22.2497692739563,4.5744337462615965Q21.862466273956297,5.903373746261597,22.2277992739563,7.519623746261597Q23.1217902739563,11.474663746261596,27.741151273956298,14.580663746261596L24.929501273956298,20.617663746261595L47.871361273956296,31.815463746261596L48.1189612739563,31.481963746261595Q50.2169612739563,28.655763746261595,52.8081612739563,26.428063746261596Q56.2150612739563,23.498963746261598,58.4801612739563,23.578963746261596L58.9977612739563,23.597263746261596L58.9977612739563,0.8364237462615967L58.1740612739563,1.5362077462615966Q54.7835612739563,4.4165637462615965,50.852061273956295,6.528023746261597Q45.6297612739563,9.332653746261597,42.5274612739563,8.841583746261596Q39.613461273956304,8.380333746261597,32.1444512739563,5.280023746261596Q28.4353012739563,3.740383746261597,26.976991273956298,3.2549137462615967ZM23.2098292739563,4.854223746261597Q23.4674152739563,3.970373746261597,23.962361273956297,3.7353837462615966L23.9623712739563,3.7353837462615966Q24.826481273956297,3.3251137462615965,31.761071273956297,6.203613746261596Q39.3397612739563,9.349463746261597,42.3710612739563,9.829283746261597Q45.8061612739563,10.373023746261596,51.3251612739563,7.409003746261597Q54.8770612739563,5.501453746261596,57.9977612739563,2.9807337462615964L57.9977612739563,22.591663746261595Q55.5053612739563,22.790363746261598,52.1561612739563,25.669763746261598Q49.6338612739563,27.838263746261596,47.5658612739563,30.553563746261595L26.2505812739563,20.149663746261595L29.013871273956298,14.216563746261597L28.6476612739563,13.980263746261597Q24.041841273956297,11.009363746261597,23.203192273956297,7.299153746261597Q22.8948462739563,5.935023746261597,23.2098292739563,4.854223746261597Z" fill-rule="evenodd" fill="#000000" fill-opacity="1"/></g><g><g><path d="M5.299448986834717,33.02739190589905C4.948639286834717,30.754341905899047,7.4497422868347165,29.297602905899048,8.781552286834717,28.373771905899048C8.781552286834717,28.373771905899048,12.690632286834717,33.84872190589905,12.690632286834717,33.84872190589905C8.249812286834716,37.785971905899046,5.650258286834717,35.300431905899046,5.299448986834717,33.02739190589905C5.299448986834717,33.02739190589905,5.299448986834717,33.02739190589905,5.299448986834717,33.02739190589905Z" fill="#F5CEA3" fill-opacity="1"/><path d="M7.304172286834717,36.24159190589905Q9.809942286834715,37.070981905899046,13.022332286834716,34.22285190589905L13.359002286834716,33.92436190589905L8.901862286834717,27.681802905899048L8.496572286834716,27.96293690589905Q8.384272286834717,28.040835905899048,8.134012286834716,28.21024790589905Q6.536802286834717,29.291484905899047,5.848426286834717,30.062611905899047Q4.558903286834717,31.507141905899047,4.805300286834717,33.10365190589905Q4.964896286834716,34.13774190589905,5.575509286834717,34.96522190589905Q6.263089286834717,35.897001905899046,7.304172286834717,36.24159190589905ZM12.018272286834716,33.767501905899046L8.658942286834717,29.062517905899046Q7.192902286834717,30.05813190589905,6.594422286834717,30.728551905899046Q5.619185286834717,31.821031905899048,5.793599286834716,32.95113190589905Q5.9156582868347165,33.742001905899045,6.380152286834717,34.37146190589905Q6.8790322868347165,35.04751190589905,7.618402286834717,35.29224190589905Q9.456372286834718,35.90060190589905,12.018272286834716,33.767501905899046Z" fill-rule="evenodd" fill="#000000" fill-opacity="1"/></g><g transform="matrix(0.9984166622161865,-0.05625094473361969,0.05625094473361969,0.9984166622161865,-1.908810762226107,0.5591699331136155)"><path d="M9.016100538226318,39.47554420707703C8.619272838226319,36.89216420707702,11.448456838226319,35.236524207077025,12.954976838226319,34.186564207077026C12.954976838226319,34.186564207077026,17.37684683822632,40.40901420707703,17.37684683822632,40.40901420707703C12.353486838226319,44.883864207077025,9.412928838226318,42.05893420707703,9.016100538226318,39.47554420707703C9.016100538226318,39.47554420707703,9.016100538226318,39.47554420707703,9.016100538226318,39.47554420707703Z" fill="#F5CEA3" fill-opacity="1"/><path d="M11.303736838226317,43.06356420707703Q14.103406838226318,43.99463420707703,17.70942683822632,40.78236420707702L18.04384683822632,40.48445420707703L13.07555683822632,33.493076207077024L12.669086838226319,33.776360207077026Q12.541776838226319,33.86508620707703,12.258386838226318,34.05783920707702Q10.458426838226318,35.28208420707703,9.685253838226318,36.15230420707702Q8.248205838226319,37.76970420707703,8.521898838226319,39.55145420707703Q8.699818838226319,40.70973420707703,9.380480838226319,41.63651420707703Q10.145726838226318,42.678454207077024,11.303736838226317,43.06356420707703ZM16.70639683822632,40.32872420707702L12.832186838226319,34.876944207077024Q12.826516838226318,34.880805207077024,12.820776838226319,34.88470620707702Q11.12350683822632,36.03911420707703,10.432806838226318,36.81649420707703Q9.307982838226318,38.08250420707703,9.51030583822632,39.399624207077025Q9.650986838226318,40.31548420707703,10.186456838226318,41.04456420707702Q10.763306838226319,41.82999420707703,11.619306838226318,42.11466420707703Q13.749396838226318,42.82305420707703,16.70639683822632,40.32872420707702Z" fill-rule="evenodd" fill="#000000" fill-opacity="1"/></g><g transform="matrix(0.9984166622161865,-0.05625094473361969,0.05625094473361969,0.9984166622161865,-2.1332383773349655,0.9806306589218607)"><path d="M16.393616337457274,43.65377325141907C15.963650737457275,41.079713251419065,19.029090737457274,39.43006325141907,20.661410737457274,38.38389325141907C20.661410737457274,38.38389325141907,25.452520737457277,44.58386325141907,25.452520737457277,44.58386325141907C20.009690737457277,49.04249325141907,16.823581737457275,46.22782325141907,16.393616337457274,43.65377325141907C16.393616337457274,43.65377325141907,16.393616337457274,43.65377325141907,16.393616337457274,43.65377325141907Z" fill="#F5CEA3" fill-opacity="1"/><path d="M18.897020737457275,47.234213251419064Q21.889120737457276,48.14925325141907,25.769370737457276,44.970653251419066L26.145320737457276,44.66268325141907L20.777090737457275,37.715877251419066L20.391610737457277,37.962931251419064Q20.253490737457277,38.051455251419064,19.946170737457276,38.243677251419065Q17.999640737457277,39.46117325141907,17.164045737457275,40.326023251419066Q15.601049737457275,41.943743251419065,15.900451737457276,43.73615325141907Q16.094459737457274,44.89760325141907,16.834376737457276,45.824053251419066Q17.658000737457275,46.855303251419066,18.897020737457275,47.234213251419064ZM24.755690737457275,44.49983325141907L20.543770737457276,39.049364251419064Q20.510970737457274,39.069908251419065,20.476450737457277,39.09149725141907Q18.633730737457277,40.244063251419064,17.883210737457276,41.02085325141907Q16.670422737457276,42.27611325141907,16.886786737457275,43.57139325141907Q17.037985737457277,44.47657325141907,17.615750737457276,45.199993251419066Q18.246300737457275,45.98949325141907,19.189470737457274,46.27793325141907Q21.532560737457274,46.994493251419065,24.755690737457275,44.49983325141907Z" fill-rule="evenodd" fill="#000000" fill-opacity="1"/></g></g><g><path d="M-2.7481436729431152,2.6096664667129517C0.8925663270568847,5.364226466712951,9.309256327056884,10.830226466712952,13.850356327056886,10.657696466712952C18.391356327056886,10.48516646671295,21.498356327056886,7.784846466712952,22.484156327056883,6.456256466712952C22.590356327056885,7.856886466712952,23.694956327056886,11.259566466712952,27.263556327056886,13.665166466712952C26.857556327056884,14.653566466712952,27.119556327056884,17.22346646671295,28.935656327056886,18.64086646671295C31.205656327056886,20.412566466712953,39.74815632705688,23.973266466712953,46.02805632705689,26.03876646671295C51.369156327056885,27.795566466712952,50.406856327056886,35.680166466712954,42.693656327056885,32.90826646671295C39.954556327056885,31.92386646671295,37.60005632705688,30.93596646671295,35.78665632705688,30.123066466712952C38.474256327056885,31.355866466712953,41.91995632705689,32.86156646671295,44.118056327056884,33.55716646671296C49.31215632705688,35.20086646671295,48.040856327056886,42.81746646671295,39.74815632705688,39.366366466712954C38.80265632705689,38.97286646671295,37.88915632705689,38.58006646671295,37.01765632705688,38.19576646671295C38.90525632705688,39.09436646671295,40.585356327056886,39.883066466712954,41.445156327056885,40.26006646671295C44.804956327056885,41.733266466712955,41.341756327056885,45.89416646671295,36.27635632705689,43.90416646671295C32.22395632705688,42.31216646671295,25.472856327056885,39.218266466712954,27.768756327056884,40.340266466712954C30.064656327056888,41.462266466712954,37.29005632705689,44.44546646671295,37.29005632705689,44.44546646671295C37.313756327056886,45.57306646671295,36.491156327056885,47.65436646671295,33.010656327056886,46.95816646671295C28.660056327056886,46.08806646671295,21.640756327056884,46.49466646671295,15.881656327056884,39.366366466712954C10.122456327056884,32.23806646671295,8.925756327056884,30.592566466712952,6.233136327056885,28.87226646671295C4.079056327056885,27.49606646671295,-0.6519136729431154,25.606266466712952,-2.7481436729431152,24.833366466712953C-2.7481436729431152,24.833366466712953,-2.7481436729431152,2.6096664667129517,-2.7481436729431152,2.6096664667129517C-2.7481436729431152,2.6096664667129517,-2.7481436729431152,2.6096664667129517,-2.7481436729431152,2.6096664667129517Z" fill="#F5CEA3" fill-opacity="1"/><path d="M-3.2481436729431152,1.6043764667129516L-3.2481436729431152,24.833366466712953L-3.2481436729431152,25.18186646671295L-2.921117672943115,25.30246646671295Q3.317026327056885,27.60256646671295,5.963936327056885,29.293566466712953Q7.639756327056885,30.36426646671295,9.181156327056884,32.034866466712955Q10.345556327056885,33.296866466712956,14.037856327056886,37.87726646671295Q14.972356327056886,39.036566466712955,15.492756327056885,39.68056646671295Q18.708556327056886,43.66086646671295,23.192456327056885,45.42486646671295Q25.777556327056885,46.44186646671295,30.435056327056884,47.06686646671295Q32.166656327056884,47.29926646671295,32.91255632705688,47.44846646671295Q35.46455632705688,47.95896646671295,36.798956327056885,46.75726646671295Q37.667756327056885,45.97506646671295,37.77555632705688,44.84166646671295Q38.788256327056885,45.00856646671295,39.760456327056886,44.87696646671295Q41.348856327056886,44.661966466712954,42.35555632705689,43.751666466712955Q43.40135632705689,42.80616646671295,43.263656327056886,41.67066646671295Q43.199856327056885,41.14476646671295,42.892456327056884,40.725966466712954Q43.89735632705688,40.81786646671295,44.76325632705689,40.63496646671295Q46.759556327056885,40.21316646671295,47.45165632705689,38.56596646671295Q48.102856327056884,37.01616646671295,47.232556327056884,35.40586646671295Q46.77975632705689,34.56796646671295,46.03765632705689,33.98626646671295Q46.75435632705688,33.94096646671295,47.38295632705689,33.72396646671295Q49.218256327056885,33.09026646671295,49.736256327056886,31.31156646671295Q50.22265632705688,29.641466466712952,49.278856327056886,27.99446646671295Q48.281156327056884,26.25346646671295,46.184256327056886,25.563766466712952Q41.26395632705688,23.94546646671295,36.17465632705689,21.76986646671295Q30.829956327056884,19.48506646671295,29.243256327056883,18.246666466712952Q28.139556327056884,17.385266466712952,27.750656327056884,15.867966466712952Q27.423556327056886,14.591666466712951,27.726056327056884,13.855166466712951L27.880856327056886,13.478266466712952L27.543056327056885,13.250566466712952Q25.278356327056883,11.723966466712952,24.012756327056884,9.441386466712952Q23.085056327056886,7.7684064667129515,22.982756327056883,6.418456466712952L22.881356327056885,5.081806466712951L22.082656327056885,6.158316466712952Q21.116356327056884,7.460636466712952,19.247056327056885,8.559456466712952Q16.713956327056884,10.048536466712951,13.831356327056884,10.158056466712953Q10.959356327056884,10.267176466712952,5.451116327056885,7.291426466712951Q1.3155063270568847,5.0572364667129515,-2.4464626729431154,2.2109334667129517L-3.2481436729431152,1.6043764667129516ZM35.99515632705688,29.668566466712953Q35.99315632705689,29.66766646671295,35.991156327056885,29.66676646671295L35.78665632705688,30.123066466712952L35.57815632705689,30.577566466712952Q35.58015632705688,30.578466466712953,35.582156327056886,30.57936646671295Q41.21435632705688,33.16276646671295,43.967156327056884,34.03386646671295Q45.640556327056885,34.56336646671295,46.35275632705689,35.881366466712954Q46.99535632705688,37.070366466712954,46.529656327056884,38.178666466712954Q46.04045632705689,39.343066466712955,44.556456327056885,39.65656646671295Q42.69295632705688,40.050266466712955,39.940256327056886,38.90476646671295Q38.594956327056885,38.34486646671295,37.219356327056886,37.73826646671295L36.80275632705688,38.64726646671295Q40.081456327056884,40.20806646671295,41.244356327056884,40.71796646671295Q42.19115632705689,41.133066466712954,42.270956327056886,41.79096646671295Q42.34615632705688,42.411966466712954,41.684856327056885,43.00996646671295Q39.77145632705688,44.74006646671295,36.45915632705688,43.43876646671295Q34.24065632705688,42.56726646671295,29.299356327056884,40.40936646671295Q27.921556327056884,39.80766646671295,27.650256327056884,39.69596646671295Q27.531156327056884,39.64696646671295,27.478556327056886,39.62976646671295Q27.005156327056884,39.47496646671295,26.836056327056884,39.925466466712955Q26.689156327056885,40.317166466712955,27.062856327056885,40.54186646671295Q27.150356327056883,40.594566466712955,27.549256327056884,40.78946646671295Q29.804956327056885,41.891866466712955,36.77595632705688,44.77406646671295Q36.69205632705688,45.50796646671295,36.129856327056885,46.01416646671295Q35.16845632705689,46.879866466712954,33.10875632705689,46.46786646671295Q32.331456327056884,46.312466466712955,30.568056327056887,46.07576646671295Q26.030756327056885,45.46686646671295,23.558556327056884,44.49426646671295Q19.320356327056885,42.82706646671295,16.270556327056884,39.052166466712954Q15.749256327056884,38.40686646671295,14.816456327056883,37.24966646671295Q11.103156327056885,32.64336646671295,9.916056327056884,31.35676646671295Q8.287056327056884,29.591166466712952,6.502336327056884,28.450966466712952Q3.8355063270568843,26.74716646671295,-2.2481436729431152,24.48536646671295L-2.2481436729431152,3.6050564667129517Q1.2114363270568846,6.137606466712952,4.975806327056885,8.171246466712951Q10.724356327056885,11.276826466712953,13.869356327056884,11.157336466712952Q17.003656327056884,11.038256466712951,19.753856327056884,9.42153646671295Q21.202156327056883,8.57018646671295,22.170156327056883,7.586486466712952Q22.453456327056884,8.691416466712951,23.138156327056883,9.92631646671295Q24.432356327056883,12.260276466712952,26.674856327056883,13.864966466712952Q26.445456327056885,14.803566466712951,26.781956327056886,16.11626646671295Q27.255556327056883,17.96386646671295,28.628056327056886,19.03506646671295Q30.31725632705688,20.353466466712952,35.781656327056886,22.68936646671295Q40.91055632705689,24.881966466712953,45.87185632705688,26.51376646671295Q47.60425632705689,27.083566466712952,48.41115632705689,28.491666466712953Q49.14365632705689,29.76986646671295,48.77615632705688,31.03196646671295Q48.40285632705689,32.31386646671295,47.05655632705688,32.77876646671295Q45.401656327056884,33.35016646671295,42.862756327056886,32.43776646671295Q39.38365632705688,31.18736646671295,35.99515632705688,29.668566466712953Z" fill-rule="evenodd" fill="#000000" fill-opacity="1"/></g><g><path d="M58.82154220046997,2.2983197326812745C59.03194220046997,2.1195327326812743,59.05764220046997,1.8039927326812744,58.87884220046997,1.5935417326812744C58.70004220046997,1.3830897326812743,58.38454220046997,1.3574207326812744,58.17404220046997,1.5362077326812744C58.17404220046997,1.5362077326812744,58.82154220046997,2.2983197326812745,58.82154220046997,2.2983197326812745C58.82154220046997,2.2983197326812745,58.82154220046997,2.2983197326812745,58.82154220046997,2.2983197326812745ZM42.44924220046997,9.335433732681274C42.44924220046997,9.335433732681274,42.37104220046997,9.829283732681274,42.37104220046997,9.829283732681274C42.37104220046997,9.829283732681274,42.44924220046997,9.335433732681274,42.44924220046997,9.335433732681274C42.44924220046997,9.335433732681274,42.44924220046997,9.335433732681274,42.44924220046997,9.335433732681274ZM33.18364220046997,17.349853732681275C33.44124220046997,17.449353732681274,33.73074220046997,17.321153732681275,33.83014220046997,17.063553732681275C33.92964220046997,16.805953732681274,33.80154220046997,16.516553732681274,33.54394220046997,16.417053732681275C33.54394220046997,16.417053732681275,33.18364220046997,17.349853732681275,33.18364220046997,17.349853732681275C33.18364220046997,17.349853732681275,33.18364220046997,17.349853732681275,33.18364220046997,17.349853732681275ZM58.17404220046997,1.5362077326812744C56.54864220046997,2.917073732681274,53.798942200469966,4.945383732681274,50.85204220046997,6.528023732681274C49.37914220046997,7.319073732681274,47.86834220046997,7.992553732681275,46.43244220046997,8.420103732681273C44.99194220046997,8.849033732681274,43.658942200469966,9.020683732681274,42.52744220046997,8.841583732681276C42.52744220046997,8.841583732681276,42.37104220046997,9.829283732681274,42.37104220046997,9.829283732681274C43.70654220046997,10.040673732681274,45.201342200469966,9.830073732681274,46.717842200469974,9.378513732681274C48.23894220046997,8.925583732681275,49.81444220046997,8.220363732681275,51.32514220046997,7.409013732681275C54.34564220046997,5.786853732681275,57.15324220046997,3.7155837326812744,58.82154220046997,2.2983197326812745C58.82154220046997,2.2983197326812745,58.17404220046997,1.5362077326812744,58.17404220046997,1.5362077326812744C58.17404220046997,1.5362077326812744,58.17404220046997,1.5362077326812744,58.17404220046997,1.5362077326812744ZM42.52744220046997,8.841583732681276C39.516842200469966,8.365043732681276,35.42154220046997,6.639243732681274,31.74829220046997,5.1156137326812745C29.92916220046997,4.361053732681274,28.21485220046997,3.6573737326812745,26.82480220046997,3.2047937326812743C26.13017220046997,2.978633732681274,25.49793220046997,2.8088837326812746,24.96263220046997,2.7289437326812744C24.449392200469973,2.652293732681274,23.93277220046997,2.6424437326812744,23.53347220046997,2.8320237326812743C23.53347220046997,2.8320237326812743,23.96237220046997,3.7353737326812744,23.96237220046997,3.7353737326812744C24.077032200469972,3.6809437326812744,24.33756220046997,3.646683732681274,24.814932200469972,3.7179737326812745C25.27024220046997,3.7859737326812746,25.84206220046997,3.9364937326812743,26.51521220046997,4.155663732681274C27.860732200469972,4.593743732681274,29.53686220046997,5.2809437326812745,31.36515220046997,6.039303732681274C34.98674220046997,7.541503732681274,39.21414220046997,9.329593732681275,42.37104220046997,9.829283732681274C42.37104220046997,9.829283732681274,42.52744220046997,8.841583732681276,42.52744220046997,8.841583732681276C42.52744220046997,8.841583732681276,42.52744220046997,8.841583732681276,42.52744220046997,8.841583732681276ZM23.53347220046997,2.8320237326812743C22.81166020046997,3.1747237326812745,22.32026120046997,4.034163732681274,22.13765960046997,5.055283732681275C21.950221200469972,6.103443732681274,22.06375556046997,7.417983732681274,22.64728520046997,8.834353732681274C23.81769220046997,11.675153732681274,26.86620220046997,14.909953732681274,33.18364220046997,17.349853732681275C33.18364220046997,17.349853732681275,33.54394220046997,16.417053732681275,33.54394220046997,16.417053732681275C27.39381220046997,14.041753732681274,24.60648220046997,10.964633732681275,23.57189220046997,8.453423732681275C23.05292120046997,7.1937637326812744,22.97166720046997,6.072223732681274,23.12204220046997,5.231313732681274C23.27726220046997,4.363353732681274,23.65628220046997,3.8807037326812743,23.96237220046997,3.7353737326812744C23.96237220046997,3.7353737326812744,23.53347220046997,2.8320237326812743,23.53347220046997,2.8320237326812743C23.53347220046997,2.8320237326812743,23.53347220046997,2.8320237326812743,23.53347220046997,2.8320237326812743Z" fill="#000000" fill-opacity="1"/></g></g></g></svg>