<svg xmlns="http://www.w3.org/2000/svg" xmlns:xlink="http://www.w3.org/1999/xlink" fill="none" version="1.1" width="57.1229248046875" height="58.993682861328125" viewBox="0 0 57.1229248046875 58.993682861328125"><defs><filter id="master_svg0_0_318" filterUnits="objectBoundingBox" color-interpolation-filters="sRGB" x="-2" y="-2" width="9.612292289733887" height="6.806146144866943"><feFlood flood-opacity="0" result="BackgroundImageFix"/><feBlend mode="normal" in="SourceGraphic" in2="BackgroundImageFix" result="shape"/><feGaussianBlur stdDeviation="0.5" result="effect1_foregroundBlur"/></filter><filter id="master_svg1_0_319" filterUnits="objectBoundingBox" color-interpolation-filters="sRGB" x="-2" y="-2" width="9.612292289733887" height="6.806146144866943"><feFlood flood-opacity="0" result="BackgroundImageFix"/><feBlend mode="normal" in="SourceGraphic" in2="BackgroundImageFix" result="shape"/><feGaussianBlur stdDeviation="0.5" result="effect1_foregroundBlur"/></filter><mask id="master_svg2_0_328" style="mask-type:alpha" maskUnits="userSpaceOnUse"><g><ellipse cx="27.626120448112488" cy="51.94601345062256" rx="12.159966468811035" ry="6.547674179077148" fill="#FFFFFF" fill-opacity="1"/></g></mask></defs><g><g><path d="M28.5615,56.6229Q29.2503,56.6229,29.9384,56.5891Q30.6264,56.5553,31.312,56.4878Q31.9975,56.4203,32.6789,56.3192Q33.3603,56.2181,34.036,56.0837Q34.7116,55.9493,35.3798,55.7819Q36.0481,55.6146,36.7073,55.4146Q37.3665,55.2146,38.0151,54.9826Q38.6637,54.7505,39.3001,54.4869Q39.9365,54.2232,40.5593,53.9287Q41.182,53.6342,41.7895,53.3095Q42.3971,52.9847,42.9879,52.6306Q43.5788,52.2764,44.1516,51.8937Q44.7243,51.511,45.2776,51.1006Q45.831,50.6903,46.3635,50.2533Q46.896,49.8162,47.4064,49.3536Q47.9168,48.891,48.4039,48.4039Q48.891,47.9168,49.3536,47.4064Q49.8162,46.896,50.2533,46.3635Q50.6903,45.831,51.1006,45.2776Q51.511,44.7243,51.8937,44.1516Q52.2764,43.5788,52.6306,42.9879Q52.9847,42.3971,53.3095,41.7895Q53.6342,41.182,53.9287,40.5593Q54.2232,39.9365,54.4869,39.3001Q54.7505,38.6637,54.9826,38.0151Q55.2146,37.3665,55.4146,36.7073Q55.6146,36.0481,55.782,35.3798Q55.9493,34.7116,56.0837,34.036Q56.2181,33.3603,56.3192,32.6789Q56.4203,31.9975,56.4878,31.312Q56.5553,30.6264,56.5891,29.9384Q56.6229,29.2503,56.6229,28.5615Q56.6229,27.8726,56.5891,27.1846Q56.5553,26.4965,56.4878,25.811Q56.4203,25.1254,56.3192,24.444Q56.2181,23.7626,56.0837,23.0869Q55.9493,22.4113,55.7819,21.7431Q55.6146,21.0749,55.4146,20.4156Q55.2146,19.7564,54.9826,19.1078Q54.7505,18.4592,54.4869,17.8228Q54.2232,17.1864,53.9287,16.5636Q53.6342,15.9409,53.3095,15.3334Q52.9847,14.7259,52.6306,14.135Q52.2764,13.5441,51.8937,12.9713Q51.511,12.3986,51.1006,11.8453Q50.6903,11.292,50.2533,10.7595Q49.8162,10.22695,49.3536,9.71654Q48.891,9.20612,48.4039,8.71901Q47.9168,8.23191,47.4064,7.76929Q46.896,7.30667,46.3635,6.86966Q45.831,6.43264,45.2776,6.02228Q44.7243,5.61192,44.1516,5.22921Q43.5788,4.84649,42.9879,4.49234Q42.3971,4.13819,41.7895,3.81346Q41.182,3.48873,40.5593,3.1942Q39.9365,2.89967,39.3001,2.63605Q38.6637,2.37243,38.0151,2.1403600000000003Q37.3665,1.90829,36.7073,1.70832Q36.0481,1.50835,35.3798,1.340967Q34.7116,1.173585,34.036,1.039193Q33.3603,0.904801,32.6789,0.803723Q31.9975,0.702645,31.312,0.635124Q30.6264,0.5676025,29.9384,0.5338013Q29.2503,0.5,28.5615,0.5Q27.8726,0.5,27.1846,0.5338013Q26.4965,0.5676025,25.811,0.635124Q25.1254,0.702645,24.444,0.803723Q23.7626,0.904801,23.0869,1.039193Q22.4113,1.173585,21.7431,1.340967Q21.0749,1.50835,20.4156,1.70832Q19.7564,1.90829,19.1078,2.1403600000000003Q18.4592,2.37243,17.8228,2.63605Q17.1864,2.89967,16.5636,3.1942Q15.9409,3.48873,15.3334,3.81346Q14.7259,4.13819,14.135,4.49234Q13.5441,4.84649,12.9713,5.22921Q12.3986,5.61192,11.8453,6.02228Q11.292,6.43264,10.7595,6.86966Q10.22695,7.30667,9.71654,7.76929Q9.20612,8.23191,8.71901,8.71901Q8.23191,9.20612,7.76929,9.71654Q7.30667,10.22695,6.86966,10.7595Q6.43264,11.292,6.02228,11.8453Q5.61192,12.3986,5.22921,12.9713Q4.84649,13.5441,4.49234,14.135Q4.13819,14.7259,3.81346,15.3334Q3.48873,15.9409,3.1942,16.5636Q2.89967,17.1864,2.63605,17.8228Q2.37243,18.4592,2.1403600000000003,19.1078Q1.90829,19.7564,1.70832,20.4156Q1.50835,21.0749,1.340967,21.7431Q1.173585,22.4113,1.039193,23.0869Q0.904801,23.7626,0.803723,24.444Q0.702645,25.1254,0.635124,25.811Q0.5676025,26.4965,0.5338013,27.1846Q0.5,27.8726,0.5,28.5615Q0.5,29.6907,0.5907329,30.8162Q0.681466,31.9418,0.8623449999999999,33.0564Q1.043224,34.171,1.313079,35.2675Q1.58293,36.364,1.94002,37.4353Q2.29711,38.5065,2.73912,39.5456Q3.18113,40.5847,3.7052,41.585Q4.22927,42.5852,4.83202,43.5401Q5.43477,44.495,6.11229,45.3983L4.2415,53.8168L12.0151,51.2256Q12.9088,51.8781,13.8512,52.4582Q14.7935,53.0383,15.7786,53.5423Q16.7637,54.0464,17.7855,54.4714Q18.8072,54.8963,19.8592,55.2395Q20.9113,55.5827,21.9871,55.8419Q23.0628,56.1012,24.1557,56.2749Q25.2486,56.4486,26.3517,56.5358Q27.4549,56.6229,28.5615,56.6229Z" fill-rule="evenodd" fill="#FFCF00" fill-opacity="1"/><path d="M28.5615,56.1229Q33.8186,56.1229,38.7067,54.1878Q44.014,52.0867,48.0504,48.0504Q52.0867,44.0141,54.1878,38.7067Q56.1229,33.8186,56.1229,28.5615Q56.1229,23.3043,54.1878,18.4162Q52.0867,13.1089,48.0504,9.07257Q44.0141,5.03629,38.7067,2.93514Q33.8186,1,28.5615,1Q23.3043,1,18.4162,2.93514Q13.1088,5.03628,9.07257,9.07257Q5.03629,13.1089,2.93514,18.4162Q1,23.3043,1,28.5615Q1,37.7486,6.51229,45.0983L6.65027,45.2823L4.72959,53.9252L4.2415,53.8168L4.08339,53.3424L12.1016,50.6697L12.3099,50.8218Q19.571,56.123,28.5615,56.1229ZM28.5615,57.1229Q19.2449,57.1229,11.7202,51.6294L12.0151,51.2256L12.1732,51.6999L3.56183,54.5704L5.6242,45.2899L6.11229,45.3983L5.71229,45.6983Q0,38.082,0,28.5615Q0,23.1135,2.00535,18.0481Q4.18272,12.5482,8.365459999999999,8.365459999999999Q12.5482,4.182729999999999,18.0481,2.00535Q23.1136,0,28.5615,0Q34.0094,0,39.0748,2.00535Q44.5747,4.182729999999999,48.7575,8.365459999999999Q52.9402,12.5483,55.1176,18.0481Q57.1229,23.1136,57.1229,28.5615Q57.1229,34.0093,55.1176,39.0748Q52.9402,44.5747,48.7575,48.7575Q44.5747,52.9402,39.0748,55.1176Q34.0093,57.1229,28.5615,57.1229Z" fill="#000000" fill-opacity="1"/></g><g><ellipse cx="42.59218513965607" cy="23.884551167488098" rx="0.9353820085525513" ry="0.9353820085525513" fill="#000000" fill-opacity="1"/></g><g><ellipse cx="14.53074848651886" cy="23.884551167488098" rx="0.9353820085525513" ry="0.9353820085525513" fill="#000000" fill-opacity="1"/></g><g filter="url(#master_svg0_0_318)"><ellipse cx="48.20449209213257" cy="31.835299253463745" rx="2.8061461448669434" ry="1.4030730724334717" fill="#FF8B72" fill-opacity="1"/></g><g filter="url(#master_svg1_0_319)"><ellipse cx="7.047685384750366" cy="31.835299253463745" rx="2.8061461448669434" ry="1.4030730724334717" fill="#FF8B72" fill-opacity="1"/></g><g><ellipse cx="14.530710220336914" cy="23.884552001953125" rx="6.547674179077148" ry="6.547674179077148" fill-opacity="0" stroke-opacity="1" stroke="#000000" fill="none" stroke-width="1"/></g><g><ellipse cx="42.59219169616699" cy="23.884552001953125" rx="6.547674179077148" ry="6.547674179077148" fill-opacity="0" stroke-opacity="1" stroke="#000000" fill="none" stroke-width="1"/></g><g><g><rect x="13.595366477966309" y="34.17375183105469" width="28.06146240234375" height="22.449169158935547" rx="3.5" fill="#000000" fill-opacity="1"/></g><g><path d="M15.466153979301453,38.04452323913574C15.466153979301453,36.93995523913574,16.361583979301454,36.04452323913574,17.466153979301453,36.04452323913574C17.466153979301453,36.04452323913574,37.78605397930146,36.04452323913574,37.78605397930146,36.04452323913574C38.89065397930145,36.04452323913574,39.78605397930146,36.93995323913574,39.78605397930146,38.04452323913574C39.78605397930146,38.04452323913574,39.78605397930146,41.656813239135744,39.78605397930146,41.656813239135744C39.78605397930146,41.656813239135744,15.466153979301453,41.656813239135744,15.466153979301453,41.656813239135744C15.466153979301453,41.656813239135744,15.466153979301453,38.04452323913574,15.466153979301453,38.04452323913574C15.466153979301453,38.04452323913574,15.466153979301453,38.04452323913574,15.466153979301453,38.04452323913574Z" fill="#FBFFFF" fill-opacity="1"/></g><g><ellipse cx="27.626120448112488" cy="51.94601345062256" rx="12.159966468811035" ry="6.547674179077148" fill="#D50B00" fill-opacity="1"/></g><g mask="url(#master_svg2_0_328)"><g><path d="M39.78605397930146,51.01063299179077C39.78605397930146,51.01063299179077,15.466153979301453,51.01063299179077,15.466153979301453,51.01063299179077C15.466153979301453,51.01063299179077,15.466153979301453,58.49369299179077,15.466153979301453,58.49369299179077C15.466153979301453,58.49369299179077,39.78605397930146,58.49369299179077,39.78605397930146,58.49369299179077C39.78605397930146,58.49369299179077,39.78605397930146,51.01063299179077,39.78605397930146,51.01063299179077C39.78605397930146,51.01063299179077,39.78605397930146,51.01063299179077,39.78605397930146,51.01063299179077Z" fill="#FFFFFF" fill-opacity="1"/></g><g><path d="M18.95764911174774,51.01063299179077C18.95764911174774,51.01063299179077,18.95764911174774,57.55830299179077,18.95764911174774,57.55830299179077C18.95764911174774,57.55830299179077,19.45764911174774,57.55830299179077,19.45764911174774,57.55830299179077C19.45764911174774,57.55830299179077,19.45764911174774,51.01063299179077,19.45764911174774,51.01063299179077C19.45764911174774,51.01063299179077,18.95764911174774,51.01063299179077,18.95764911174774,51.01063299179077C18.95764911174774,51.01063299179077,18.95764911174774,51.01063299179077,18.95764911174774,51.01063299179077Z" fill="#000000" fill-opacity="1"/></g><g><path d="M24.569936633110046,51.01063299179077C24.569936633110046,51.01063299179077,24.569936633110046,58.49369299179077,24.569936633110046,58.49369299179077C24.569936633110046,58.49369299179077,25.069936633110046,58.49369299179077,25.069936633110046,58.49369299179077C25.069936633110046,58.49369299179077,25.069936633110046,51.01063299179077,25.069936633110046,51.01063299179077C25.069936633110046,51.01063299179077,24.569936633110046,51.01063299179077,24.569936633110046,51.01063299179077C24.569936633110046,51.01063299179077,24.569936633110046,51.01063299179077,24.569936633110046,51.01063299179077Z" fill="#000000" fill-opacity="1"/></g><g><path d="M30.18226706981659,51.01063299179077C30.18226706981659,51.01063299179077,30.18226706981659,58.49369299179077,30.18226706981659,58.49369299179077C30.18226706981659,58.49369299179077,30.68226706981659,58.49369299179077,30.68226706981659,58.49369299179077C30.68226706981659,58.49369299179077,30.68226706981659,51.01063299179077,30.68226706981659,51.01063299179077C30.68226706981659,51.01063299179077,30.18226706981659,51.01063299179077,30.18226706981659,51.01063299179077C30.18226706981659,51.01063299179077,30.18226706981659,51.01063299179077,30.18226706981659,51.01063299179077Z" fill="#000000" fill-opacity="1"/></g><g><path d="M35.79453265666962,51.01063299179077C35.79453265666962,51.01063299179077,35.79453265666962,57.55830299179077,35.79453265666962,57.55830299179077C35.79453265666962,57.55830299179077,36.29453265666962,57.55830299179077,36.29453265666962,57.55830299179077C36.29453265666962,57.55830299179077,36.29453265666962,51.01063299179077,36.29453265666962,51.01063299179077C36.29453265666962,51.01063299179077,35.79453265666962,51.01063299179077,35.79453265666962,51.01063299179077C35.79453265666962,51.01063299179077,35.79453265666962,51.01063299179077,35.79453265666962,51.01063299179077Z" fill="#000000" fill-opacity="1"/></g></g><g><path d="M24.569937705993652,36.04452323913574C24.569937705993652,36.04452323913574,24.569937705993652,41.656813239135744,24.569937705993652,41.656813239135744C24.569937705993652,41.656813239135744,25.069937705993652,41.656813239135744,25.069937705993652,41.656813239135744C25.069937705993652,41.656813239135744,25.069937705993652,36.04452323913574,25.069937705993652,36.04452323913574C25.069937705993652,36.04452323913574,24.569937705993652,36.04452323913574,24.569937705993652,36.04452323913574C24.569937705993652,36.04452323913574,24.569937705993652,36.04452323913574,24.569937705993652,36.04452323913574Z" fill="#000000" fill-opacity="1"/></g><g><path d="M18.957650184631348,36.04452323913574C18.957650184631348,36.04452323913574,18.957650184631348,41.656813239135744,18.957650184631348,41.656813239135744C18.957650184631348,41.656813239135744,19.457650184631348,41.656813239135744,19.457650184631348,41.656813239135744C19.457650184631348,41.656813239135744,19.457650184631348,36.04452323913574,19.457650184631348,36.04452323913574C19.457650184631348,36.04452323913574,18.957650184631348,36.04452323913574,18.957650184631348,36.04452323913574C18.957650184631348,36.04452323913574,18.957650184631348,36.04452323913574,18.957650184631348,36.04452323913574Z" fill="#000000" fill-opacity="1"/></g><g><path d="M30.18226909637451,36.04452323913574C30.18226909637451,36.04452323913574,30.18226909637451,41.656813239135744,30.18226909637451,41.656813239135744C30.18226909637451,41.656813239135744,30.68226909637451,41.656813239135744,30.68226909637451,41.656813239135744C30.68226909637451,41.656813239135744,30.68226909637451,36.04452323913574,30.68226909637451,36.04452323913574C30.68226909637451,36.04452323913574,30.18226909637451,36.04452323913574,30.18226909637451,36.04452323913574C30.18226909637451,36.04452323913574,30.18226909637451,36.04452323913574,30.18226909637451,36.04452323913574Z" fill="#000000" fill-opacity="1"/></g><g><path d="M35.79453372955322,36.04452323913574C35.79453372955322,36.04452323913574,35.79453372955322,41.656813239135744,35.79453372955322,41.656813239135744C35.79453372955322,41.656813239135744,36.29453372955322,41.656813239135744,36.29453372955322,41.656813239135744C36.29453372955322,41.656813239135744,36.29453372955322,36.04452323913574,36.29453372955322,36.04452323913574C36.29453372955322,36.04452323913574,35.79453372955322,36.04452323913574,35.79453372955322,36.04452323913574C35.79453372955322,36.04452323913574,35.79453372955322,36.04452323913574,35.79453372955322,36.04452323913574Z" fill="#000000" fill-opacity="1"/></g><g><ellipse cx="27.626120448112488" cy="51.94601345062256" rx="12.159966468811035" ry="6.547674179077148" fill-opacity="0" stroke-opacity="1" stroke="#000000" fill="none" stroke-width="1"/></g></g></g></svg>