<svg xmlns="http://www.w3.org/2000/svg" xmlns:xlink="http://www.w3.org/1999/xlink" fill="none" version="1.1" width="57.1229248046875" height="57.1229248046875" viewBox="0 0 57.1229248046875 57.1229248046875"><defs><filter id="master_svg0_0_68" filterUnits="objectBoundingBox" color-interpolation-filters="sRGB" x="-2" y="-2" width="9.612292289733887" height="7.741528034210205"><feFlood flood-opacity="0" result="BackgroundImageFix"/><feBlend mode="normal" in="SourceGraphic" in2="BackgroundImageFix" result="shape"/><feGaussianBlur stdDeviation="0.5" result="effect1_foregroundBlur"/></filter><filter id="master_svg1_0_69" filterUnits="objectBoundingBox" color-interpolation-filters="sRGB" x="-2" y="-2" width="9.612292289733887" height="7.741528034210205"><feFlood flood-opacity="0" result="BackgroundImageFix"/><feBlend mode="normal" in="SourceGraphic" in2="BackgroundImageFix" result="shape"/><feGaussianBlur stdDeviation="0.5" result="effect1_foregroundBlur"/></filter><mask id="master_svg2_0_75" style="mask-type:alpha" maskUnits="userSpaceOnUse"><g><path d="M28.56141499786377,43.52752808837891C17.71727499786377,43.52752808837891,14.10255499786377,31.529668088378905,15.90991899786377,30.529970288378905C17.71727499786377,29.530276088378905,22.36477499786377,36.52886808837891,28.56141499786377,36.52886808837891C34.75811499786377,36.52886808837891,39.40551499786377,29.530255088378905,41.213014997863766,30.529970288378905C43.02041499786377,31.529688088378908,39.405614997863765,43.52752808837891,28.56141499786377,43.52752808837891C28.56141499786377,43.52752808837891,28.56141499786377,43.52752808837891,28.56141499786377,43.52752808837891Z" fill="#FFFFFF" fill-opacity="1"/></g></mask></defs><g><g><path d="M28.5615,56.6229Q29.2503,56.6229,29.9384,56.5891Q30.6264,56.5553,31.312,56.4878Q31.9975,56.4203,32.6789,56.3192Q33.3603,56.2181,34.036,56.0837Q34.7116,55.9493,35.3798,55.7819Q36.0481,55.6146,36.7073,55.4146Q37.3665,55.2146,38.0151,54.9826Q38.6637,54.7505,39.3001,54.4869Q39.9365,54.2232,40.5593,53.9287Q41.182,53.6342,41.7895,53.3095Q42.3971,52.9847,42.9879,52.6306Q43.5788,52.2764,44.1516,51.8937Q44.7243,51.511,45.2776,51.1006Q45.831,50.6903,46.3635,50.2533Q46.896,49.8162,47.4064,49.3536Q47.9168,48.891,48.4039,48.4039Q48.891,47.9168,49.3536,47.4064Q49.8162,46.896,50.2533,46.3635Q50.6903,45.831,51.1006,45.2776Q51.511,44.7243,51.8937,44.1516Q52.2764,43.5788,52.6306,42.9879Q52.9847,42.3971,53.3095,41.7895Q53.6342,41.182,53.9287,40.5593Q54.2232,39.9365,54.4869,39.3001Q54.7505,38.6637,54.9826,38.0151Q55.2146,37.3665,55.4146,36.7073Q55.6146,36.0481,55.782,35.3798Q55.9493,34.7116,56.0837,34.036Q56.2181,33.3603,56.3192,32.6789Q56.4203,31.9975,56.4878,31.312Q56.5553,30.6264,56.5891,29.9384Q56.6229,29.2503,56.6229,28.5615Q56.6229,27.8726,56.5891,27.1846Q56.5553,26.4965,56.4878,25.811Q56.4203,25.1254,56.3192,24.444Q56.2181,23.7626,56.0837,23.0869Q55.9493,22.4113,55.7819,21.7431Q55.6146,21.0749,55.4146,20.4156Q55.2146,19.7564,54.9826,19.1078Q54.7505,18.4592,54.4869,17.8228Q54.2232,17.1864,53.9287,16.5636Q53.6342,15.9409,53.3095,15.3334Q52.9847,14.7259,52.6306,14.135Q52.2764,13.5441,51.8937,12.9713Q51.511,12.3986,51.1006,11.8453Q50.6903,11.292,50.2533,10.7595Q49.8162,10.22695,49.3536,9.71654Q48.891,9.20612,48.4039,8.71901Q47.9168,8.23191,47.4064,7.76929Q46.896,7.30667,46.3635,6.86966Q45.831,6.43264,45.2776,6.02228Q44.7243,5.61192,44.1516,5.22921Q43.5788,4.84649,42.9879,4.49234Q42.3971,4.13819,41.7895,3.81346Q41.182,3.48873,40.5593,3.1942Q39.9365,2.89967,39.3001,2.63605Q38.6637,2.37243,38.0151,2.1403600000000003Q37.3665,1.90829,36.7073,1.70832Q36.0481,1.50835,35.3798,1.340967Q34.7116,1.173585,34.036,1.039193Q33.3603,0.904801,32.6789,0.803723Q31.9975,0.702645,31.312,0.635124Q30.6264,0.5676025,29.9384,0.5338013Q29.2503,0.5,28.5615,0.5Q27.8726,0.5,27.1846,0.5338013Q26.4965,0.5676025,25.811,0.635124Q25.1254,0.702645,24.444,0.803723Q23.7626,0.904801,23.0869,1.039193Q22.4113,1.173585,21.7431,1.340967Q21.0749,1.50835,20.4156,1.70832Q19.7564,1.90829,19.1078,2.1403600000000003Q18.4592,2.37243,17.8228,2.63605Q17.1864,2.89967,16.5636,3.1942Q15.9409,3.48873,15.3334,3.81346Q14.7259,4.13819,14.135,4.49234Q13.5441,4.84649,12.9713,5.22921Q12.3986,5.61192,11.8453,6.02228Q11.292,6.43264,10.7595,6.86966Q10.22695,7.30667,9.71654,7.76929Q9.20612,8.23191,8.71901,8.71901Q8.23191,9.20612,7.76929,9.71654Q7.30667,10.22695,6.86966,10.7595Q6.43264,11.292,6.02228,11.8453Q5.61192,12.3986,5.22921,12.9713Q4.84649,13.5441,4.49234,14.135Q4.13819,14.7259,3.81346,15.3334Q3.48873,15.9409,3.1942,16.5636Q2.89967,17.1864,2.63605,17.8228Q2.37243,18.4592,2.1403600000000003,19.1078Q1.90829,19.7564,1.70832,20.4156Q1.50835,21.0749,1.340967,21.7431Q1.173585,22.4113,1.039193,23.0869Q0.904801,23.7626,0.803723,24.444Q0.702645,25.1254,0.635124,25.811Q0.5676025,26.4965,0.5338013,27.1846Q0.5,27.8726,0.5,28.5615Q0.5,29.6907,0.5907329,30.8162Q0.681466,31.9418,0.8623449999999999,33.0564Q1.043224,34.171,1.313079,35.2675Q1.58293,36.364,1.94002,37.4353Q2.29711,38.5065,2.73912,39.5456Q3.18113,40.5847,3.7052,41.585Q4.22927,42.5852,4.83202,43.5401Q5.43477,44.495,6.11229,45.3983L4.24153,53.8168L12.0151,51.2256Q12.9088,51.8781,13.8512,52.4582Q14.7935,53.0383,15.7786,53.5424Q16.7637,54.0464,17.7855,54.4714Q18.8072,54.8963,19.8592,55.2395Q20.9113,55.5827,21.9871,55.8419Q23.0629,56.1012,24.1557,56.2749Q25.2486,56.4486,26.3517,56.5358Q27.4549,56.6229,28.5615,56.6229Z" fill-rule="evenodd" fill="#FFCF00" fill-opacity="1"/><path d="M28.5615,56.1229Q33.8186,56.1229,38.7067,54.1878Q44.014,52.0867,48.0504,48.0504Q52.0867,44.0141,54.1878,38.7067Q56.1229,33.8186,56.1229,28.5615Q56.1229,23.3043,54.1878,18.4162Q52.0867,13.1089,48.0504,9.07257Q44.0141,5.03629,38.7067,2.93514Q33.8186,1,28.5615,1Q23.3043,1,18.4162,2.93514Q13.1088,5.03628,9.07257,9.07257Q5.03629,13.1089,2.93514,18.4162Q1,23.3043,1,28.5615Q1,37.7487,6.51229,45.0983L6.65027,45.2823L4.72963,53.9252L4.24153,53.8168L4.08342,53.3424L12.1016,50.6697L12.3099,50.8218Q19.571,56.123,28.5615,56.1229ZM28.5615,57.1229Q19.2449,57.1229,11.7203,51.6294L12.0151,51.2256L12.1732,51.6999L3.56187,54.5704L5.6242,45.2899L6.11229,45.3983L5.71229,45.6983Q0,38.082,0,28.5615Q0,23.1135,2.00535,18.0481Q4.18272,12.5482,8.365459999999999,8.365459999999999Q12.5482,4.182729999999999,18.0481,2.00535Q23.1136,0,28.5615,0Q34.0094,0,39.0748,2.00535Q44.5747,4.182729999999999,48.7575,8.365459999999999Q52.9402,12.5483,55.1176,18.0481Q57.1229,23.1136,57.1229,28.5615Q57.1229,34.0093,55.1176,39.0748Q52.9402,44.5747,48.7575,48.7575Q44.5747,52.9402,39.0748,55.1176Q34.0093,57.1229,28.5615,57.1229Z" fill="#000000" fill-opacity="1"/></g><g filter="url(#master_svg0_0_68)"><ellipse cx="46.33371877670288" cy="30.432222604751587" rx="2.8061461448669434" ry="1.8707640171051025" fill="#FF8B72" fill-opacity="1"/></g><g filter="url(#master_svg1_0_69)"><ellipse cx="10.78920316696167" cy="30.432222604751587" rx="2.8061461448669434" ry="1.8707640171051025" fill="#FF8B72" fill-opacity="1"/></g><g><path d="M10.984791938549805,24.696622064819337C10.916694938549805,25.105202064819338,11.192710138549804,25.491622064819335,11.601288138549805,25.559722064819336C12.009860138549804,25.627812064819338,12.396290138549805,25.351802064819335,12.464380138549805,24.943222064819338C12.464380138549805,24.943222064819338,10.984791938549805,24.696622064819337,10.984791938549805,24.696622064819337C10.984791938549805,24.696622064819337,10.984791938549805,24.696622064819337,10.984791938549805,24.696622064819337ZM20.338620138549807,24.943222064819338C20.406710138549805,25.351802064819335,20.793130138549806,25.627812064819338,21.201670138549805,25.559722064819336C21.610270138549804,25.491622064819335,21.886270138549804,25.105202064819338,21.818170138549803,24.696622064819337C21.818170138549803,24.696622064819337,20.338620138549807,24.943222064819338,20.338620138549807,24.943222064819338C20.338620138549807,24.943222064819338,20.338620138549807,24.943222064819338,20.338620138549807,24.943222064819338ZM11.724587138549804,24.819922064819337C12.464380138549805,24.943222064819338,12.464350138549804,24.943442064819337,12.464310138549806,24.943632064819337C12.464310138549806,24.943662064819335,12.464280138549805,24.943832064819336,12.464270138549805,24.943912064819337C12.464240138549805,24.944052064819335,12.464230138549805,24.944112064819336,12.464240138549805,24.944092064819337C12.464240138549805,24.944042064819335,12.464310138549806,24.943662064819335,12.464430138549805,24.942962064819337C12.464670138549804,24.941552064819337,12.465140138549804,24.938832064819337,12.465850138549804,24.934842064819335C12.467270138549804,24.926872064819335,12.469620138549805,24.913842064819335,12.472970138549805,24.896102064819335C12.479680138549805,24.860602064819336,12.490350138549804,24.806302064819334,12.505440138549805,24.735922064819334C12.535640138549805,24.594982064819334,12.583310138549805,24.390452064819335,12.651840138549804,24.143732064819336C12.789700138549804,23.647432064819334,13.008120138549804,22.994522064819336,13.330790138549805,22.349192064819334C13.996680138549804,21.017412064819336,14.973540138549804,19.957632064819336,16.401500138549807,19.957632064819336C16.401500138549807,19.957632064819336,16.401500138549807,18.457632064819336,16.401500138549807,18.457632064819336C14.087930138549805,18.457632064819336,12.726340138549805,20.203992064819335,11.989150138549805,21.678372064819335C11.610281138549805,22.436102064819337,11.361009138549806,23.186272064819335,11.206563138549805,23.742272064819335C11.128943138549804,24.021702064819337,11.074302938549804,24.255642064819334,11.038734938549805,24.421622064819335C11.020933938549804,24.504692064819338,11.007859938549805,24.570982064819336,10.999036938549805,24.617692064819337C10.994623938549804,24.641052064819334,10.991270938549805,24.659542064819334,10.988916938549805,24.672802064819336C10.987739938549804,24.679442064819334,10.986812938549805,24.684772064819335,10.986127938549805,24.688752064819337C10.985784938549804,24.690742064819336,10.985502938549805,24.692402064819337,10.985280938549804,24.693712064819337C10.985169938549804,24.694372064819337,10.985072938549804,24.694942064819337,10.984991938549804,24.695432064819336C10.984950938549805,24.695672064819334,10.984900938549805,24.695972064819337,10.984880938549805,24.696092064819336C10.984833938549805,24.696372064819336,10.984791938549805,24.696622064819337,11.724587138549804,24.819922064819337C11.724587138549804,24.819922064819337,11.724587138549804,24.819922064819337,11.724587138549804,24.819922064819337ZM16.401500138549807,19.957632064819336C17.829460138549805,19.957632064819336,18.806320138549804,21.017412064819336,19.472210138549805,22.349192064819334C19.794880138549807,22.994522064819336,20.013290138549806,23.647432064819334,20.151160138549805,24.143732064819336C20.219690138549804,24.390452064819335,20.267360138549805,24.594982064819334,20.297560138549805,24.735922064819334C20.312640138549803,24.806302064819334,20.323320138549803,24.860602064819336,20.330020138549806,24.896102064819335C20.333380138549806,24.913842064819335,20.335730138549806,24.926872064819335,20.337150138549802,24.934842064819335C20.337850138549804,24.938832064819337,20.338320138549804,24.941552064819337,20.338570138549805,24.942962064819337C20.338690138549804,24.943662064819335,20.338750138549806,24.944042064819335,20.338760138549805,24.944092064819337C20.338760138549805,24.944112064819336,20.338750138549806,24.944052064819335,20.338730138549806,24.943912064819337C20.338720138549803,24.943832064819336,20.338690138549804,24.943662064819335,20.338680138549805,24.943632064819337C20.338650138549802,24.943442064819337,20.338620138549807,24.943222064819338,21.078370138549804,24.819922064819337C21.818170138549803,24.696622064819337,21.818170138549803,24.696372064819336,21.818070138549807,24.696092064819336C21.818070138549807,24.695972064819337,21.818070138549807,24.695672064819334,21.817970138549803,24.695432064819336C21.817870138549807,24.694942064819337,21.817770138549804,24.694372064819337,21.817670138549804,24.693712064819337C21.817470138549805,24.692402064819337,21.817170138549805,24.690742064819336,21.816870138549803,24.688752064819337C21.816170138549804,24.684772064819335,21.815270138549806,24.679442064819334,21.814070138549805,24.672802064819336C21.811670138549804,24.659542064819334,21.808370138549805,24.641052064819334,21.803970138549804,24.617692064819337C21.795070138549804,24.570982064819336,21.782070138549805,24.504692064819338,21.764270138549804,24.421622064819335C21.728670138549806,24.255642064819334,21.674070138549805,24.021702064819337,21.596470138549805,23.742272064819335C21.441970138549806,23.186272064819335,21.192670138549804,22.436102064819337,20.813850138549803,21.678372064819335C20.076660138549805,20.203992064819335,18.715070138549805,18.457632064819336,16.401500138549807,18.457632064819336C16.401500138549807,18.457632064819336,16.401500138549807,19.957632064819336,16.401500138549807,19.957632064819336C16.401500138549807,19.957632064819336,16.401500138549807,19.957632064819336,16.401500138549807,19.957632064819336Z" fill="#000000" fill-opacity="1"/></g><g><path d="M35.304717246777344,24.696622064819337C35.23662024677734,25.105202064819338,35.512635446777345,25.491622064819335,35.921213446777344,25.559722064819336C36.32978544677734,25.627812064819338,36.71621544677734,25.351802064819335,36.784305446777346,24.943222064819338C36.784305446777346,24.943222064819338,35.304717246777344,24.696622064819337,35.304717246777344,24.696622064819337C35.304717246777344,24.696622064819337,35.304717246777344,24.696622064819337,35.304717246777344,24.696622064819337ZM44.658545446777346,24.943222064819338C44.726635446777344,25.351802064819335,45.113055446777345,25.627812064819338,45.52159544677734,25.559722064819336C45.93019544677735,25.491622064819335,46.20619544677734,25.105202064819338,46.13809544677734,24.696622064819337C46.13809544677734,24.696622064819337,44.658545446777346,24.943222064819338,44.658545446777346,24.943222064819338C44.658545446777346,24.943222064819338,44.658545446777346,24.943222064819338,44.658545446777346,24.943222064819338ZM36.04451244677735,24.819922064819337C36.784305446777346,24.943222064819338,36.78427544677734,24.943442064819337,36.784235446777345,24.943632064819337C36.784235446777345,24.943662064819335,36.78420544677734,24.943832064819336,36.784195446777346,24.943912064819337C36.784165446777344,24.944052064819335,36.78415544677734,24.944112064819336,36.784165446777344,24.944092064819337C36.784165446777344,24.944042064819335,36.784235446777345,24.943662064819335,36.78435544677734,24.942962064819337C36.784595446777345,24.941552064819337,36.785065446777345,24.938832064819337,36.78577544677734,24.934842064819335C36.787195446777346,24.926872064819335,36.789545446777346,24.913842064819335,36.792895446777344,24.896102064819335C36.79960544677734,24.860602064819336,36.81027544677735,24.806302064819334,36.82536544677734,24.735922064819334C36.85556544677734,24.594982064819334,36.903235446777344,24.390452064819335,36.97176544677735,24.143732064819336C37.10962544677734,23.647432064819334,37.328045446777345,22.994522064819336,37.65071544677734,22.349192064819334C38.316605446777345,21.017412064819336,39.29346544677735,19.957632064819336,40.721425446777346,19.957632064819336C40.721425446777346,19.957632064819336,40.721425446777346,18.457632064819336,40.721425446777346,18.457632064819336C38.40785544677735,18.457632064819336,37.04626544677734,20.203992064819335,36.30907544677734,21.678372064819335C35.93020644677734,22.436102064819337,35.68093444677734,23.186272064819335,35.52648844677734,23.742272064819335C35.44886844677735,24.021702064819337,35.394228246777345,24.255642064819334,35.35866024677734,24.421622064819335C35.34085924677734,24.504692064819338,35.327785246777346,24.570982064819336,35.318962246777346,24.617692064819337C35.31454924677735,24.641052064819334,35.31119624677734,24.659542064819334,35.308842246777346,24.672802064819336C35.30766524677735,24.679442064819334,35.30673824677734,24.684772064819335,35.306053246777346,24.688752064819337C35.305710246777345,24.690742064819336,35.305428246777346,24.692402064819337,35.305206246777345,24.693712064819337C35.30509524677734,24.694372064819337,35.304998246777345,24.694942064819337,35.30491724677734,24.695432064819336C35.30487624677735,24.695672064819334,35.304826246777345,24.695972064819337,35.304806246777346,24.696092064819336C35.304759246777344,24.696372064819336,35.304717246777344,24.696622064819337,36.04451244677735,24.819922064819337C36.04451244677735,24.819922064819337,36.04451244677735,24.819922064819337,36.04451244677735,24.819922064819337ZM40.721425446777346,19.957632064819336C42.149385446777345,19.957632064819336,43.12624544677735,21.017412064819336,43.792135446777344,22.349192064819334C44.114805446777346,22.994522064819336,44.333215446777345,23.647432064819334,44.471085446777344,24.143732064819336C44.53961544677735,24.390452064819335,44.587285446777344,24.594982064819334,44.617485446777344,24.735922064819334C44.63256544677734,24.806302064819334,44.64324544677734,24.860602064819336,44.649945446777345,24.896102064819335C44.653305446777345,24.913842064819335,44.655655446777345,24.926872064819335,44.65707544677734,24.934842064819335C44.65777544677734,24.938832064819337,44.65824544677734,24.941552064819337,44.658495446777344,24.942962064819337C44.65861544677735,24.943662064819335,44.658675446777345,24.944042064819335,44.65868544677734,24.944092064819337C44.65868544677734,24.944112064819336,44.658675446777345,24.944052064819335,44.658655446777345,24.943912064819337C44.65864544677734,24.943832064819336,44.65861544677735,24.943662064819335,44.658605446777344,24.943632064819337C44.65857544677734,24.943442064819337,44.658545446777346,24.943222064819338,45.39829544677734,24.819922064819337C46.13809544677734,24.696622064819337,46.13809544677734,24.696372064819336,46.137995446777346,24.696092064819336C46.137995446777346,24.695972064819337,46.137995446777346,24.695672064819334,46.13789544677734,24.695432064819336C46.137795446777346,24.694942064819337,46.13769544677734,24.694372064819337,46.13759544677734,24.693712064819337C46.13739544677735,24.692402064819337,46.137095446777344,24.690742064819336,46.13679544677734,24.688752064819337C46.13609544677735,24.684772064819335,46.135195446777345,24.679442064819334,46.13399544677735,24.672802064819336C46.13159544677734,24.659542064819334,46.128295446777344,24.641052064819334,46.12389544677734,24.617692064819337C46.11499544677734,24.570982064819336,46.101995446777345,24.504692064819338,46.08419544677734,24.421622064819335C46.04859544677734,24.255642064819334,45.99399544677735,24.021702064819337,45.916395446777344,23.742272064819335C45.761895446777345,23.186272064819335,45.51259544677734,22.436102064819337,45.13377544677734,21.678372064819335C44.396585446777344,20.203992064819335,43.034995446777344,18.457632064819336,40.721425446777346,18.457632064819336C40.721425446777346,18.457632064819336,40.721425446777346,19.957632064819336,40.721425446777346,19.957632064819336C40.721425446777346,19.957632064819336,40.721425446777346,19.957632064819336,40.721425446777346,19.957632064819336Z" fill="#000000" fill-opacity="1"/></g><g><g><path d="M28.56141499786377,43.526048340813816C17.71727499786377,43.526048340813816,14.10255499786377,31.528158340813814,15.90991899786377,30.528464540813815C17.71727499786377,29.528769340813817,22.36479499786377,36.97833834081381,28.56141499786377,36.97833834081381C34.75811499786377,36.97833834081381,39.40551499786377,29.528748340813816,41.213014997863766,30.528464540813815C43.02041499786377,31.528178340813817,39.405614997863765,43.526048340813816,28.56141499786377,43.526048340813816C28.56141499786377,43.526048340813816,28.56141499786377,43.526048340813816,28.56141499786377,43.526048340813816Z" fill="#000000" fill-opacity="1"/></g><g mask="url(#master_svg2_0_75)"><g><path d="M28.56147269687653,39.78605937957764C21.826702696876527,39.78605937957764,18.272254696876526,43.527589379577634,17.336872696876526,45.39834937957764C17.336872696876526,45.39834937957764,39.78607269687653,45.39834937957764,39.78607269687653,45.39834937957764C38.85067269687653,43.527589379577634,35.296172696876525,39.78605937957764,28.56147269687653,39.78605937957764C28.56147269687653,39.78605937957764,28.56147269687653,39.78605937957764,28.56147269687653,39.78605937957764Z" fill="#D50B00" fill-opacity="1"/></g></g></g></g></svg>