<svg xmlns="http://www.w3.org/2000/svg" xmlns:xlink="http://www.w3.org/1999/xlink" fill="none" version="1.1" width="58.99603271484375" height="57.1229248046875" viewBox="0 0 58.99603271484375 57.1229248046875"><defs><filter id="master_svg0_0_568" filterUnits="objectBoundingBox" color-interpolation-filters="sRGB" x="-1" y="-1" width="7.612292289733887" height="4.806146144866943"><feFlood flood-opacity="0" result="BackgroundImageFix"/><feBlend mode="normal" in="SourceGraphic" in2="BackgroundImageFix" result="shape"/><feGaussianBlur stdDeviation="0.25" result="effect1_foregroundBlur"/></filter><filter id="master_svg1_0_569" filterUnits="objectBoundingBox" color-interpolation-filters="sRGB" x="-1" y="-1" width="7.612292289733887" height="4.806146144866943"><feFlood flood-opacity="0" result="BackgroundImageFix"/><feBlend mode="normal" in="SourceGraphic" in2="BackgroundImageFix" result="shape"/><feGaussianBlur stdDeviation="0.25" result="effect1_foregroundBlur"/></filter></defs><g><g><path d="M30.43462841415405,56.6229Q31.123428414154052,56.6229,31.811528414154054,56.5891Q32.49952841415406,56.5553,33.18512841415405,56.4878Q33.870628414154055,56.4203,34.55202841415405,56.3192Q35.233428414154055,56.2181,35.909128414154054,56.0837Q36.58472841415405,55.9493,37.252928414154056,55.7819Q37.92122841415405,55.6146,38.58042841415405,55.4146Q39.239628414154055,55.2146,39.88822841415405,54.9826Q40.53682841415405,54.7505,41.17322841415405,54.4869Q41.809628414154055,54.2232,42.43242841415405,53.9287Q43.055128414154055,53.6342,43.66262841415405,53.3095Q44.270228414154055,52.9847,44.861028414154056,52.6306Q45.451928414154054,52.2764,46.024728414154055,51.8937Q46.59742841415405,51.511,47.15072841415405,51.1006Q47.704128414154056,50.6903,48.236628414154055,50.2533Q48.76912841415405,49.8162,49.27952841415405,49.3536Q49.789928414154055,48.891,50.27702841415405,48.4039Q50.76412841415405,47.9168,51.22672841415405,47.4064Q51.689328414154055,46.896,52.126428414154056,46.3635Q52.56342841415405,45.831,52.97372841415405,45.2776Q53.384128414154056,44.7243,53.766828414154055,44.1516Q54.149528414154055,43.5788,54.503728414154054,42.9879Q54.85782841415405,42.3971,55.18262841415405,41.7895Q55.50732841415405,41.182,55.80182841415405,40.5593Q56.09632841415405,39.9365,56.36002841415405,39.3001Q56.623628414154055,38.6637,56.85572841415405,38.0151Q57.08772841415405,37.3665,57.28772841415405,36.7073Q57.487728414154056,36.0481,57.65512841415405,35.3798Q57.822428414154054,34.7116,57.95682841415405,34.036Q58.09122841415405,33.3603,58.192328414154055,32.6789Q58.29342841415405,31.9975,58.36092841415405,31.312Q58.428428414154055,30.6264,58.462228414154055,29.9384Q58.496028414154054,29.2503,58.496028414154054,28.5615Q58.496028414154054,27.8726,58.462228414154055,27.1846Q58.428428414154055,26.4965,58.36092841415405,25.811Q58.29342841415405,25.1254,58.192328414154055,24.444Q58.09122841415405,23.7626,57.95682841415405,23.0869Q57.822428414154054,22.4113,57.65502841415405,21.7431Q57.487728414154056,21.0749,57.28772841415405,20.4156Q57.08772841415405,19.7564,56.85572841415405,19.1078Q56.623628414154055,18.4592,56.36002841415405,17.8228Q56.09632841415405,17.1864,55.80182841415405,16.5636Q55.50732841415405,15.9409,55.18262841415405,15.3334Q54.85782841415405,14.7259,54.503728414154054,14.135Q54.149528414154055,13.5441,53.766828414154055,12.9713Q53.384128414154056,12.3986,52.97372841415405,11.8453Q52.56342841415405,11.292,52.126428414154056,10.7595Q51.689328414154055,10.22695,51.22672841415405,9.71654Q50.76412841415405,9.20612,50.27702841415405,8.71901Q49.789928414154055,8.23191,49.27952841415405,7.76929Q48.76912841415405,7.30667,48.236628414154055,6.86966Q47.704128414154056,6.43264,47.15072841415405,6.02228Q46.59742841415405,5.61192,46.024728414154055,5.22921Q45.451928414154054,4.84649,44.861028414154056,4.49234Q44.270228414154055,4.13819,43.66262841415405,3.81346Q43.055128414154055,3.48873,42.43242841415405,3.1942Q41.809628414154055,2.89967,41.17322841415405,2.63605Q40.53682841415405,2.37243,39.88822841415405,2.1403600000000003Q39.239628414154055,1.90829,38.58042841415405,1.70832Q37.92122841415405,1.50835,37.252928414154056,1.340967Q36.58472841415405,1.173585,35.909128414154054,1.039193Q35.233428414154055,0.904801,34.55202841415405,0.803723Q33.870628414154055,0.702645,33.18512841415405,0.635124Q32.49952841415406,0.5676025,31.811528414154054,0.5338013Q31.123428414154052,0.5,30.43462841415405,0.5Q29.74572841415405,0.5,29.057728414154052,0.5338013Q28.369628414154054,0.5676025,27.684128414154053,0.635124Q26.998528414154052,0.702645,26.317128414154052,0.803723Q25.635728414154052,0.904801,24.960028414154053,1.039193Q24.284428414154053,1.173585,23.61622841415405,1.340967Q22.948028414154052,1.50835,22.288728414154054,1.70832Q21.629528414154052,1.90829,20.980928414154054,2.1403600000000003Q20.332328414154052,2.37243,19.695928414154054,2.63605Q19.05952841415405,2.89967,18.436728414154054,3.1942Q17.814028414154052,3.48873,17.20652841415405,3.81346Q16.599028414154052,4.13819,16.00812841415405,4.49234Q15.417228414154053,4.84649,14.844428414154052,5.22921Q14.271728414154053,5.61192,13.718428414154053,6.02228Q13.165128414154053,6.43264,12.632628414154052,6.86966Q12.100078414154053,7.30667,11.589668414154053,7.76929Q11.079248414154053,8.23191,10.592138414154054,8.71901Q10.105038414154052,9.20612,9.642418414154053,9.71654Q9.179798414154053,10.22695,8.742788414154052,10.7595Q8.305768414154052,11.292,7.895408414154053,11.8453Q7.485048414154052,12.3986,7.102338414154053,12.9713Q6.719618414154053,13.5441,6.365468414154053,14.135Q6.0113184141540525,14.7259,5.686588414154053,15.3334Q5.361858414154053,15.9409,5.067328414154053,16.5636Q4.772798414154053,17.1864,4.509178414154053,17.8228Q4.245558414154052,18.4592,4.013488414154053,19.1078Q3.7814184141540528,19.7564,3.581448414154053,20.4156Q3.381478414154053,21.0749,3.2140954141540528,21.7431Q3.046713414154053,22.4113,2.9123214141540528,23.0869Q2.7779294141540527,23.7626,2.676851414154053,24.444Q2.5757734141540527,25.1254,2.5082524141540525,25.811Q2.4407309141540527,26.4965,2.4069297141540527,27.1846Q2.3731284141540527,27.8726,2.3731284141540527,28.5615Q2.3731284141540527,29.6907,2.4638613141540526,30.8162Q2.5545944141540526,31.9418,2.7354734141540527,33.0564Q2.9163524141540527,34.171,3.186207414154053,35.2675Q3.456058414154053,36.364,3.813148414154053,37.4353Q4.170238414154053,38.5065,4.6122484141540525,39.5456Q5.054258414154052,40.5847,5.578328414154052,41.585Q6.102398414154052,42.5852,6.705148414154053,43.5401Q7.307898414154053,44.495,7.9854184141540525,45.3983L6.114628414154053,53.8168L13.888228414154053,51.2256Q14.781928414154052,51.8781,15.724328414154053,52.4582Q16.666628414154054,53.0383,17.651728414154054,53.5423Q18.636828414154053,54.0464,19.65862841415405,54.4714Q20.680328414154054,54.8963,21.732328414154054,55.2395Q22.784428414154053,55.5827,23.860228414154054,55.8419Q24.935928414154052,56.1012,26.028828414154052,56.2749Q27.121728414154052,56.4486,28.224828414154054,56.5358Q29.32802841415405,56.6229,30.43462841415405,56.6229Z" fill-rule="evenodd" fill="#FFCF00" fill-opacity="1"/><path d="M30.43462841415405,56.1229Q35.691728414154056,56.1229,40.57982841415405,54.1878Q45.887128414154056,52.0867,49.923528414154056,48.0504Q53.95982841415405,44.0141,56.060928414154056,38.7067Q57.996028414154054,33.8186,57.996028414154054,28.5615Q57.996028414154054,23.3043,56.060928414154056,18.4162Q53.95982841415405,13.1089,49.923528414154056,9.07257Q45.88722841415405,5.03629,40.57982841415405,2.93514Q35.691728414154056,1,30.43462841415405,1Q25.177428414154054,1,20.289328414154053,2.93514Q14.981928414154053,5.03628,10.945698414154053,9.07257Q6.909418414154053,13.1089,4.808268414154053,18.4162Q2.8731284141540527,23.3043,2.8731284141540527,28.5615Q2.8731284141540527,37.7486,8.385418414154053,45.0983L8.523398414154052,45.2823L6.602718414154053,53.9252L6.114628414154053,53.8168L5.956518414154052,53.3424L13.974728414154052,50.6697L14.183028414154053,50.8218Q21.444128414154054,56.123,30.43462841415405,56.1229ZM30.43462841415405,57.1229Q21.118028414154054,57.1229,13.593328414154053,51.6294L13.888228414154053,51.2256L14.046328414154052,51.6999L5.434958414154053,54.5704L7.497328414154053,45.2899L7.9854184141540525,45.3983L7.585418414154053,45.6983Q1.8731284141540527,38.082,1.8731284141540527,28.5615Q1.8731284141540527,23.1135,3.8784784141540527,18.0481Q6.0558484141540525,12.5482,10.238588414154052,8.365459999999999Q14.421328414154052,4.182729999999999,19.921228414154054,2.00535Q24.986728414154054,0,30.43462841415405,0Q35.88252841415405,0,40.947928414154056,2.00535Q46.44782841415405,4.182729999999999,50.63062841415405,8.365459999999999Q54.81332841415405,12.5483,56.990728414154056,18.0481Q58.996028414154054,23.1136,58.996028414154054,28.5615Q58.996028414154054,34.0093,56.990728414154056,39.0748Q54.81332841415405,44.5747,50.63062841415405,48.7575Q46.44782841415405,52.9402,40.947928414154056,55.1176Q35.882428414154056,57.1229,30.43462841415405,57.1229Z" fill="#000000" fill-opacity="1"/></g><g filter="url(#master_svg0_0_568)"><ellipse cx="48.20686864852905" cy="29.96453547477722" rx="2.8061461448669434" ry="1.4030730724334717" fill="#FF8C71" fill-opacity="1"/></g><g filter="url(#master_svg1_0_569)"><ellipse cx="12.662353038787842" cy="29.96453547477722" rx="2.8061461448669434" ry="1.4030730724334717" fill="#FF8D6E" fill-opacity="1"/></g><g><ellipse cx="41.65917253494263" cy="24.81993579864502" rx="3.741528034210205" ry="5.612292289733887" fill="#000000" fill-opacity="1"/></g><g><ellipse cx="19.210022449493408" cy="24.81993579864502" rx="3.741528034210205" ry="5.612292289733887" fill="#000000" fill-opacity="1"/></g><g transform="matrix(-1,0,0,-1,37.549232482910156,33.80298614501953)"><path d="M18.921063241455077,19.854083072509766C18.72580054145508,20.049353072509767,18.72580054145508,20.365933072509765,18.921063241455077,20.561193072509766C19.11632524145508,20.756453072509764,19.432907241455077,20.756453072509764,19.62816924145508,20.561193072509766C19.62816924145508,20.561193072509766,18.921063241455077,19.854083072509766,18.921063241455077,19.854083072509766C18.921063241455077,19.854083072509766,18.921063241455077,19.854083072509766,18.921063241455077,19.854083072509766ZM25.82228624145508,17.901493072509766C26.09843624145508,17.901493072509766,26.32228624145508,17.677635072509766,26.32228624145508,17.401493072509766C26.32228624145508,17.125351072509766,26.09843624145508,16.901493072509766,25.82228624145508,16.901493072509766C25.82228624145508,16.901493072509766,25.82228624145508,17.901493072509766,25.82228624145508,17.901493072509766C25.82228624145508,17.901493072509766,25.82228624145508,17.901493072509766,25.82228624145508,17.901493072509766ZM19.62816924145508,20.561193072509766C20.536076241455078,19.653283072509765,22.28435624145508,17.901493072509766,25.82228624145508,17.901493072509766C25.82228624145508,17.901493072509766,25.82228624145508,16.901493072509766,25.82228624145508,16.901493072509766C21.87716624145508,16.901493072509766,19.88391624145508,18.891233072509767,18.921063241455077,19.854083072509766C18.921063241455077,19.854083072509766,19.62816924145508,20.561193072509766,19.62816924145508,20.561193072509766C19.62816924145508,20.561193072509766,19.62816924145508,20.561193072509766,19.62816924145508,20.561193072509766Z" fill="#000000" fill-opacity="1"/></g><g transform="matrix(1,0,0,-1,0,33.80298614501953)"><path d="M41.30563050219727,19.854083072509766C41.11036780219727,20.049353072509767,41.11036780219727,20.365933072509765,41.30563050219727,20.561193072509766C41.50089250219727,20.756453072509764,41.817474502197264,20.756453072509764,42.012736502197264,20.561193072509766C42.012736502197264,20.561193072509766,41.30563050219727,19.854083072509766,41.30563050219727,19.854083072509766C41.30563050219727,19.854083072509766,41.30563050219727,19.854083072509766,41.30563050219727,19.854083072509766ZM48.20685350219726,17.901493072509766C48.48300350219726,17.901493072509766,48.70685350219726,17.677635072509766,48.70685350219726,17.401493072509766C48.70685350219726,17.125351072509766,48.48300350219726,16.901493072509766,48.20685350219726,16.901493072509766C48.20685350219726,16.901493072509766,48.20685350219726,17.901493072509766,48.20685350219726,17.901493072509766C48.20685350219726,17.901493072509766,48.20685350219726,17.901493072509766,48.20685350219726,17.901493072509766ZM42.012736502197264,20.561193072509766C42.920643502197265,19.653283072509765,44.668923502197266,17.901493072509766,48.20685350219726,17.901493072509766C48.20685350219726,17.901493072509766,48.20685350219726,16.901493072509766,48.20685350219726,16.901493072509766C44.261733502197266,16.901493072509766,42.26848350219726,18.891233072509767,41.30563050219727,19.854083072509766C41.30563050219727,19.854083072509766,42.012736502197264,20.561193072509766,42.012736502197264,20.561193072509766C42.012736502197264,20.561193072509766,42.012736502197264,20.561193072509766,42.012736502197264,20.561193072509766Z" fill="#000000" fill-opacity="1"/></g><g><path d="M11.70758037109375,22.94922799987793C11.95388037109375,25.755327999877927,9.83668037109375,28.56152799987793,6.10272037109375,28.56152799987793C2.42626037109375,28.56152799987793,0.30948937109374997,25.755327999877927,0.51624697109375,22.94922799987793C0.72074137109375,20.17373799987793,3.95809037109375,13.97165799987793,6.03409037109375,11.79534349987793C6.07247037109375,11.75510336987793,6.13295037109375,11.75490499987793,6.17163037109375,11.79485989987793C8.27819037109375,13.97073799987793,11.46398037109375,20.17353799987793,11.70758037109375,22.94922799987793C11.70758037109375,22.94922799987793,11.70758037109375,22.94922799987793,11.70758037109375,22.94922799987793Z" fill="#95F6FC" fill-opacity="1"/><path d="M10.08498037109375,16.92260799987793Q8.19982037109375,13.17095799987793,6.53087037109375,11.44708599987793L6.53086037109375,11.44707499987793Q6.35378037109375,11.26416099987793,6.10103037109375,11.26503099987793Q5.84810037109375,11.26590299987793,5.67230037109375,11.45022699987793Q4.00641037109375,13.19660799987793,2.12694037109375,16.92238799987793Q0.17364737109375,20.79450799987793,0.017599371093749983,22.912427999877927Q-0.16172262890625,25.346227999877932,1.48440137109375,27.14512799987793Q3.23791037109375,29.06152799987793,6.10272037109375,29.06152799987793Q9.00882037109375,29.06152799987793,10.76618037109375,27.14562799987793Q12.41958037109375,25.34302799987793,12.20568037109375,22.90542799987793Q12.01828037109375,20.76999799987793,10.08498037109375,16.92260799987793ZM6.10498037109375,12.45986299987793Q4.66501037109375,14.111327999877929,3.01977037109375,17.37277799987793Q1.15629137109375,21.066857999877932,1.01489637109375,22.98592799987793Q0.86727637109375,24.98942799987793,2.22215037109375,26.47012799987793Q3.67834037109375,28.06152799987793,6.10272037109375,28.06152799987793Q8.56912037109375,28.06152799987793,10.02928037109375,26.46962799987793Q11.38498037109375,24.99172799987793,11.20948037109375,22.992927999877928Q11.03878037109375,21.04802799987793,9.19145037109375,17.371597999877928Q7.54375037109375,14.09251799987793,6.10498037109375,12.45986299987793Z" fill-rule="evenodd" fill="#000000" fill-opacity="1"/></g><g><path d="M29.49859776611328,36.97990036010742C22.951537766113283,36.97990036010742,16.40355776611328,42.59219036010742,18.27431276611328,44.462960360107424C20.145077766113282,46.33372036010742,22.94984776611328,43.52758036010742,29.498297766113282,43.52758036010742C36.046797766113286,43.52758036010742,39.78829776611328,46.33372036010742,40.72369776611328,44.462960360107424C41.65909776611328,42.59219036010742,36.046797766113286,36.97990036010742,29.49859776611328,36.97990036010742C29.49859776611328,36.97990036010742,29.49859776611328,36.97990036010742,29.49859776611328,36.97990036010742Z" fill="#000000" fill-opacity="1"/></g></g></svg>