<svg xmlns="http://www.w3.org/2000/svg" xmlns:xlink="http://www.w3.org/1999/xlink" fill="none" version="1.1" width="56.72998046875" height="61.922607421875" viewBox="0 0 56.72998046875 61.922607421875"><defs><mask id="master_svg0_0_1150" style="mask-type:alpha" maskUnits="userSpaceOnUse"><g><rect x="0" y="0" width="56.72995376586914" height="61.922603607177734" rx="0" fill="#FFFFFF" fill-opacity="1"/></g></mask></defs><g mask="url(#master_svg0_0_1150)"><g><path d="M7.3608196509448245,42.239399932861325C7.196952780944824,57.38279993286133,15.301070780944825,62.29429993286133,18.411870780944824,65.07719993286133C18.411870780944824,65.07719993286133,39.903370780944826,65.07719993286133,39.903370780944826,65.07719993286133C39.903370780944826,65.07719993286133,44.53407078094482,51.357799932861326,44.53407078094482,51.357799932861326C44.53407078094482,51.357799932861326,45.30797078094482,14.870149932861327,45.350870780944824,11.229159932861329C45.39377078094483,7.588169932861328,43.70007078094483,5.452705038861328,41.09347078094483,5.452899946202228C38.48677078094482,5.453094932861328,36.437370780944825,7.9394499328613275,36.394970780944824,11.229159932861329C36.35257078094482,14.518859932861329,35.36217078094482,25.72849993286133,35.36217078094482,25.72849993286133C35.36217078094482,25.72849993286133,35.39387078094482,29.491699932861327,31.874970780944825,30.616099932861328C28.356070780944822,31.74059993286133,7.3608196509448245,37.91739993286133,7.3608196509448245,42.239399932861325C7.3608196509448245,42.239399932861325,7.3608196509448245,42.239399932861325,7.3608196509448245,42.239399932861325Z" fill="#F5CEA3" fill-opacity="1"/><path d="M34.47387078094482,27.56519993286133Q33.697470780944826,29.50889993286133,31.722770780944824,30.13979993286133Q31.455970780944824,30.22509993286133,30.633670780944826,30.480999932861327Q6.860811780944824,37.87879993286133,6.860814780944824,42.239399932861325Q6.763664780944824,51.214999932861325,10.491640780944824,57.40719993286133Q12.585520780944824,60.885199932861326,16.964260780944826,64.50669993286132Q17.759470780944824,65.16439993286133,18.078470780944826,65.44979993286132L18.220870780944825,65.57719993286133L40.262270780944824,65.57719993286133L45.032370780944824,51.44499993286133L45.45757078094483,31.15829993286133L45.85077078094483,11.239029932861328Q45.88467078094482,8.362579932861328,44.615270780944826,6.675029932861328Q43.319870780944825,4.952733932861328,41.09347078094483,4.952900932861328Q38.896470780944824,4.953063932861328,37.39537078094482,6.791189932861328Q35.92897078094482,8.586709932861329,35.894970780944824,11.222719932861327Q35.852870780944826,14.492569932861327,34.86407078094483,25.68449993286133L34.86197078094482,25.70859993286133L34.86217078094482,25.73269993286133Q34.869270780944824,26.575199932861327,34.47387078094482,27.56519993286133ZM30.930870780944826,31.43579993286133Q31.756970780944823,31.178699932861328,32.02717078094483,31.09239993286133Q34.451070780944825,30.317799932861327,35.402470780944824,27.936099932861328Q35.865270780944826,26.77749993286133,35.862270780944826,25.749099932861327Q36.852370780944824,14.539609932861328,36.894970780944824,11.235599932861328Q36.92437078094483,8.948769932861328,38.16987078094482,7.423729932861328Q39.37097078094482,5.953028932861328,41.09347078094483,5.952900932861328Q42.82077078094483,5.952770932861328,43.81617078094482,7.276149932861328Q44.88077078094482,8.691449932861328,44.85097078094483,11.21928993286133L44.45787078094482,31.137399932861328L44.03577078094482,51.27059993286133L39.54447078094483,64.57719993286133L18.600670780944824,64.57719993286133Q18.257070780944822,64.27829993286133,17.601570780944826,63.73609993286133Q13.354270780944823,60.22319993286133,11.348360780944825,56.891399932861326Q7.766674780944824,50.94219993286133,7.860814780944824,42.239399932861325Q7.860811780944824,38.61489993286133,30.930870780944826,31.43579993286133Z" fill-rule="evenodd" fill="#000000" fill-opacity="1"/></g><g><g transform="matrix(0.2682377099990845,0.9633527398109436,-0.9668262004852295,0.25543513894081116,48.185598304292284,-7.855148683877985)"><rect x="29.447712898254395" y="27.550838470458984" width="18.46491050720215" height="7.275498867034912" rx="1.8204282522201538" fill="#F5CEA3" fill-opacity="1"/><rect x="29.447712898254395" y="27.550838470458984" width="18.46491050720215" height="7.275498867034912" rx="1.8204282522201538" fill-opacity="0" stroke-opacity="1" stroke="#000000" fill="none" stroke-width="1"/></g><g transform="matrix(0.2677411139011383,0.963490903377533,-0.96670001745224,0.25591227412223816,43.470753030310554,-0.4649241924626857)"><rect x="22.215084075927734" y="28.1406432390213" width="26.38137435913086" height="8.582380294799805" rx="2.147427797317505" fill="#F5CEA3" fill-opacity="1"/><rect x="22.215084075927734" y="28.1406432390213" width="26.38137435913086" height="8.582380294799805" rx="2.147427797317505" fill-opacity="0" stroke-opacity="1" stroke="#000000" fill="none" stroke-width="1"/></g><g transform="matrix(0.2682377099990845,0.9633527398109436,-0.9668262004852295,0.25543513894081116,41.03696460461413,10.352684418573517)"><rect x="13.9174165725708" y="31.911344528198242" width="23.655763626098633" height="7.756292819976807" rx="2.147427797317505" fill="#F5CEA3" fill-opacity="1"/><rect x="13.9174165725708" y="31.911344528198242" width="23.655763626098633" height="7.756292819976807" rx="2.147427797317505" fill-opacity="0" stroke-opacity="1" stroke="#000000" fill="none" stroke-width="1"/></g></g><g><path d="M28.596583432006835,63.86724719238281C28.023233432006837,62.75434719238281,27.048543432006838,60.11354719238281,27.736563432006836,58.454047192382816C28.346243432006837,56.983547192382815,34.35052343200684,49.84294719238281,38.279683432006834,45.29054719238281C37.26568343200684,46.24924719238281,35.850583432006836,47.33784719238281,34.545223432006836,47.73504719238281C31.655793432006835,48.61444719238281,23.043573432006838,46.490847192382816,25.032964432006835,42.55541719238281C26.080643432006838,40.482877192382816,27.450453432006835,41.21618719238281,30.997833432006836,38.132297192382815C34.54521343200683,35.048397192382815,36.313483432006834,31.233957192382814,45.281183432006834,33.87149419238281C54.48288343200684,36.57788719238281,48.838183432006836,57.91854719238282,44.50778343200683,63.12594719238281C44.50778343200683,63.12594719238281,32.529593432006834,65.57834719238281,28.596583432006835,63.86724719238281C28.596583432006835,63.86724719238281,28.596583432006835,63.86724719238281,28.596583432006835,63.86724719238281Z" fill="#F5CEA3" fill-opacity="1"/><path d="M38.08398343200683,64.63504719238281Q41.59188343200684,64.23334719238281,44.608083432006836,63.61574719238281L44.77998343200684,63.58054719238281L44.89218343200683,63.44564719238281Q46.62338343200683,61.36384719238281,48.220183432006834,56.907347192382815Q49.87228343200684,52.29624719238281,50.46498343200683,47.62374719238281Q51.14238343200684,42.283867192382814,50.13238343200683,38.71577719238282Q48.916083432006836,34.41942719238281,45.422283432006836,33.39181019238281Q40.19328343200684,31.853887192382814,36.92938343200684,32.96934599238281Q34.92658343200684,33.65384419238281,32.20061343200683,36.31721719238281Q31.207733432006837,37.28729719238281,30.669793432006834,37.75495719238281Q29.019253432006835,39.18983719238281,26.972773432006836,40.216467192382815Q25.207379432006835,41.102077192382815,24.586738432006836,42.329847192382815Q23.745591432006837,43.993847192382816,24.878509432006837,45.455047192382814Q25.773083432006835,46.60884719238281,27.772663432006837,47.41454719238281Q29.515303432006835,48.11674719238281,31.502693432006836,48.34684719238281Q33.49464343200684,48.57744719238281,34.690773432006836,48.21334719238281Q34.995483432006836,48.12064719238281,35.309283432006836,47.98644719238281Q27.951033432006835,56.631247192382816,27.274683432006835,58.26254719238281Q26.325793432006837,60.55124719238282,28.152103432006836,64.0962471923828L28.233713432006837,64.2546471923828L28.397113432006837,64.3257471923828Q30.978283432006837,65.44864719238282,38.08398343200683,64.63504719238281ZM44.23298343200683,62.67154719238282Q45.79378343200683,60.714747192382816,47.27878343200683,56.570047192382816Q48.893983432006834,52.06194719238282,49.472983432006835,47.49794719238281Q50.12468343200683,42.36016719238281,49.17018343200684,38.988157192382815Q48.10428343200684,35.22300719238281,45.14008343200683,34.35117719238281Q40.21598343200684,32.90291439238281,37.25278343200684,33.91560819238281Q35.463783432006835,34.52702719238281,32.89945343200684,37.03248719238281Q31.885763432006836,38.02290719238281,31.325873432006837,38.50963719238281Q29.580253432006835,40.02718719238281,27.421173432006835,41.110297192382816Q25.950883432006837,41.84787719238281,25.479190432006835,42.78098719238281Q24.923267432006835,43.88074719238281,25.668799432006836,44.842247192382814Q26.397673432006837,45.782347192382815,28.146413432006835,46.48704719238281Q29.764113432006837,47.13884719238281,31.617693432006835,47.353447192382816Q33.40274343200684,47.560147192382814,34.399673432006836,47.25674719238281Q35.98138343200684,46.77544719238281,37.936183432006835,44.927247192382815L45.097783432006835,38.15617719238281L38.65818343200684,45.61724719238281Q28.924033432006837,56.89544719238281,28.198443432006837,58.645547192382814Q27.447423432006836,60.45694719238281,28.958163432006835,63.47504719238282Q31.361073432006837,64.39834719238281,37.970183432006834,63.641547192382816Q41.332983432006834,63.25644719238281,44.23298343200683,62.67154719238282Z" fill-rule="evenodd" fill="#000000" fill-opacity="1"/></g></g></svg>