<svg xmlns="http://www.w3.org/2000/svg" xmlns:xlink="http://www.w3.org/1999/xlink" fill="none" version="1.1" width="57.1229248046875" height="57.1229248046875" viewBox="0 0 57.1229248046875 57.1229248046875"><defs><filter id="master_svg0_0_178" filterUnits="objectBoundingBox" color-interpolation-filters="sRGB" x="-2" y="-2" width="11.48305606842041" height="7.741528034210205"><feFlood flood-opacity="0" result="BackgroundImageFix"/><feBlend mode="normal" in="SourceGraphic" in2="BackgroundImageFix" result="shape"/><feGaussianBlur stdDeviation="0.5" result="effect1_foregroundBlur"/></filter><filter id="master_svg1_0_179" filterUnits="objectBoundingBox" color-interpolation-filters="sRGB" x="-2" y="-2" width="11.48305606842041" height="7.741528034210205"><feFlood flood-opacity="0" result="BackgroundImageFix"/><feBlend mode="normal" in="SourceGraphic" in2="BackgroundImageFix" result="shape"/><feGaussianBlur stdDeviation="0.5" result="effect1_foregroundBlur"/></filter></defs><g><g><path d="M28.5615,56.6229Q29.2503,56.6229,29.9384,56.5891Q30.6264,56.5553,31.312,56.4878Q31.9975,56.4203,32.6789,56.3192Q33.3603,56.2181,34.036,56.0837Q34.7116,55.9493,35.3798,55.7819Q36.0481,55.6146,36.7073,55.4146Q37.3665,55.2146,38.0151,54.9826Q38.6637,54.7505,39.3001,54.4869Q39.9365,54.2232,40.5593,53.9287Q41.182,53.6342,41.7895,53.3095Q42.3971,52.9847,42.9879,52.6306Q43.5788,52.2764,44.1516,51.8937Q44.7243,51.511,45.2776,51.1006Q45.831,50.6903,46.3635,50.2533Q46.896,49.8162,47.4064,49.3536Q47.9168,48.891,48.4039,48.4039Q48.891,47.9168,49.3536,47.4064Q49.8162,46.896,50.2533,46.3635Q50.6903,45.831,51.1006,45.2776Q51.511,44.7243,51.8937,44.1516Q52.2764,43.5788,52.6306,42.9879Q52.9847,42.3971,53.3095,41.7895Q53.6342,41.182,53.9287,40.5593Q54.2232,39.9365,54.4869,39.3001Q54.7505,38.6637,54.9826,38.0151Q55.2146,37.3665,55.4146,36.7073Q55.6146,36.0481,55.782,35.3798Q55.9493,34.7116,56.0837,34.036Q56.2181,33.3603,56.3192,32.6789Q56.4203,31.9975,56.4878,31.312Q56.5553,30.6264,56.5891,29.9384Q56.6229,29.2503,56.6229,28.5615Q56.6229,27.8726,56.5891,27.1846Q56.5553,26.4965,56.4878,25.811Q56.4203,25.1254,56.3192,24.444Q56.2181,23.7626,56.0837,23.0869Q55.9493,22.4113,55.7819,21.7431Q55.6146,21.0749,55.4146,20.4156Q55.2146,19.7564,54.9826,19.1078Q54.7505,18.4592,54.4869,17.8228Q54.2232,17.1864,53.9287,16.5636Q53.6342,15.9409,53.3095,15.3334Q52.9847,14.7259,52.6306,14.135Q52.2764,13.5441,51.8937,12.9713Q51.511,12.3986,51.1006,11.8453Q50.6903,11.292,50.2533,10.7595Q49.8162,10.22695,49.3536,9.71654Q48.891,9.20612,48.4039,8.71901Q47.9168,8.23191,47.4064,7.76929Q46.896,7.30667,46.3635,6.86966Q45.831,6.43264,45.2776,6.02228Q44.7243,5.61192,44.1516,5.22921Q43.5788,4.84649,42.9879,4.49234Q42.3971,4.13819,41.7895,3.81346Q41.182,3.48873,40.5593,3.1942Q39.9365,2.89967,39.3001,2.63605Q38.6637,2.37243,38.0151,2.1403600000000003Q37.3665,1.90829,36.7073,1.70832Q36.0481,1.50835,35.3798,1.340967Q34.7116,1.173585,34.036,1.039193Q33.3603,0.904801,32.6789,0.803723Q31.9975,0.702645,31.312,0.635124Q30.6264,0.5676025,29.9384,0.5338013Q29.2503,0.5,28.5615,0.5Q27.8726,0.5,27.1846,0.5338013Q26.4965,0.5676025,25.811,0.635124Q25.1254,0.702645,24.444,0.803723Q23.7626,0.904801,23.0869,1.039193Q22.4113,1.173585,21.7431,1.340967Q21.0749,1.50835,20.4156,1.70832Q19.7564,1.90829,19.1078,2.1403600000000003Q18.4592,2.37243,17.8228,2.63605Q17.1864,2.89967,16.5636,3.1942Q15.9409,3.48873,15.3334,3.81346Q14.7259,4.13819,14.135,4.49234Q13.5441,4.84649,12.9713,5.22921Q12.3986,5.61192,11.8453,6.02228Q11.292,6.43264,10.7595,6.86966Q10.22695,7.30667,9.71654,7.76929Q9.20612,8.23191,8.71901,8.71901Q8.23191,9.20612,7.76929,9.71654Q7.30667,10.22695,6.86966,10.7595Q6.43264,11.292,6.02228,11.8453Q5.61192,12.3986,5.22921,12.9713Q4.84649,13.5441,4.49234,14.135Q4.13819,14.7259,3.81346,15.3334Q3.48873,15.9409,3.1942,16.5636Q2.89967,17.1864,2.63605,17.8228Q2.37243,18.4592,2.1403600000000003,19.1078Q1.90829,19.7564,1.70832,20.4156Q1.50835,21.0749,1.340967,21.7431Q1.173585,22.4113,1.039193,23.0869Q0.904801,23.7626,0.803723,24.444Q0.702645,25.1254,0.635124,25.811Q0.5676025,26.4965,0.5338013,27.1846Q0.5,27.8726,0.5,28.5615Q0.4999999999999988,29.6907,0.5907328000000001,30.8162Q0.681466,31.9418,0.8623449999999999,33.0564Q1.043224,34.171,1.313079,35.2675Q1.58293,36.364,1.94002,37.4353Q2.29711,38.5065,2.73912,39.5456Q3.18112,40.5847,3.7052,41.585Q4.22927,42.5852,4.83202,43.5401Q5.43476,44.495,6.11229,45.3983L4.24155,53.8168L12.0151,51.2256Q12.9088,51.8781,13.8512,52.4582Q14.7935,53.0383,15.7786,53.5424Q16.7637,54.0464,17.7855,54.4714Q18.8072,54.8963,19.8593,55.2395Q20.9113,55.5827,21.9871,55.8419Q23.0629,56.1012,24.1557,56.2749Q25.2486,56.4486,26.3517,56.5358Q27.4549,56.6229,28.5615,56.6229Z" fill-rule="evenodd" fill="#FFCF00" fill-opacity="1"/><path d="M28.5615,56.1229Q33.8186,56.1229,38.7067,54.1878Q44.014,52.0867,48.0504,48.0504Q52.0867,44.0141,54.1878,38.7067Q56.1229,33.8186,56.1229,28.5615Q56.1229,23.3043,54.1878,18.4162Q52.0867,13.1089,48.0504,9.07257Q44.0141,5.03629,38.7067,2.93514Q33.8186,1,28.5615,1Q23.3043,1,18.4162,2.93514Q13.1088,5.03628,9.07257,9.07257Q5.03629,13.1089,2.93514,18.4162Q1,23.3043,1,28.5615Q1,37.7486,6.51229,45.0983L6.65027,45.2823L4.72964,53.9252L4.24155,53.8168L4.08343,53.3424L12.1016,50.6697L12.3099,50.8218Q19.571,56.123,28.5615,56.1229ZM28.5615,57.1229Q19.2449,57.1229,11.7203,51.6294L12.0151,51.2256L12.1732,51.6999L3.56189,54.5704L5.62419,45.2899L6.11229,45.3983L5.71229,45.6983Q0,38.082,0,28.5615Q0,23.1135,2.00535,18.0481Q4.18272,12.5482,8.365459999999999,8.365459999999999Q12.5482,4.182729999999999,18.0481,2.00535Q23.1136,0,28.5615,0Q34.0094,0,39.0748,2.00535Q44.5747,4.182729999999999,48.7575,8.365459999999999Q52.9402,12.5483,55.1176,18.0481Q57.1229,23.1136,57.1229,28.5615Q57.1229,34.0093,55.1176,39.0748Q52.9402,44.5747,48.7575,48.7575Q44.5747,52.9402,39.0748,55.1176Q34.0093,57.1229,28.5615,57.1229Z" fill="#000000" fill-opacity="1"/></g><g filter="url(#master_svg0_0_178)"><ellipse cx="49.13986253738403" cy="34.17375206947327" rx="3.741528034210205" ry="1.8707640171051025" fill="#FF8B72" fill-opacity="1"/></g><g filter="url(#master_svg1_0_179)"><ellipse cx="7.9830567836761475" cy="34.17375206947327" rx="3.741528034210205" ry="1.8707640171051025" fill="#FF8B72" fill-opacity="1"/></g><g><path d="M9.453819283203124,20.778371766967773C9.288134583203124,20.999291766967772,9.332905583203125,21.312691766967774,9.553819283203126,21.478371766967772C9.774733283203124,21.644061766967774,10.088134283203125,21.599291766967774,10.253819283203125,21.378371766967774C10.253819283203125,21.378371766967774,9.453819283203124,20.778371766967773,9.453819283203124,20.778371766967773C9.453819283203124,20.778371766967773,9.453819283203124,20.778371766967773,9.453819283203124,20.778371766967773ZM16.280230283203124,18.757301766967775C16.548120283203126,18.824271766967772,16.819590283203127,18.661391766967775,16.886570283203124,18.393498766967774C16.953540283203125,18.125600766967775,16.790660283203124,17.854133766967774,16.522760283203127,17.787159766967772C16.522760283203127,17.787159766967772,16.280230283203124,18.757301766967775,16.280230283203124,18.757301766967775C16.280230283203124,18.757301766967775,16.280230283203124,18.757301766967775,16.280230283203124,18.757301766967775ZM10.253819283203125,21.378371766967774C10.684920283203125,20.803571766967774,11.522250283203125,19.96459176696777,12.599540283203126,19.363651766967774C13.672940283203125,18.764891766967775,14.944020283203125,18.423249766967775,16.280230283203124,18.757301766967775C16.280230283203124,18.757301766967775,16.522760283203127,17.787159766967772,16.522760283203127,17.787159766967772C14.865750283203125,17.372905766967772,13.330680283203126,17.810746766967775,12.112390283203124,18.490340766967773C10.898000283203125,19.167751766967772,9.958099283203126,20.106001766967772,9.453819283203124,20.778371766967773C9.453819283203124,20.778371766967773,10.253819283203125,21.378371766967774,10.253819283203125,21.378371766967774C10.253819283203125,21.378371766967774,10.253819283203125,21.378371766967774,10.253819283203125,21.378371766967774Z" fill="#000000" fill-opacity="1"/></g><g transform="matrix(-1,0,0,1,93.6675033569336,0)"><path d="M46.933780678466796,20.778371766967773C46.768095978466796,20.999291766967772,46.81286697846679,21.312691766967774,47.0337806784668,21.478371766967772C47.2546946784668,21.644061766967774,47.5680956784668,21.599291766967774,47.7337806784668,21.378371766967774C47.7337806784668,21.378371766967774,46.933780678466796,20.778371766967773,46.933780678466796,20.778371766967773C46.933780678466796,20.778371766967773,46.933780678466796,20.778371766967773,46.933780678466796,20.778371766967773ZM53.760191678466796,18.757301766967775C54.0280816784668,18.824271766967772,54.2995516784668,18.661391766967775,54.3665316784668,18.393498766967774C54.4335016784668,18.125600766967775,54.270621678466796,17.854133766967774,54.0027216784668,17.787159766967772C54.0027216784668,17.787159766967772,53.760191678466796,18.757301766967775,53.760191678466796,18.757301766967775C53.760191678466796,18.757301766967775,53.760191678466796,18.757301766967775,53.760191678466796,18.757301766967775ZM47.7337806784668,21.378371766967774C48.1648816784668,20.803571766967774,49.0022116784668,19.96459176696777,50.0795016784668,19.363651766967774C51.1529016784668,18.764891766967775,52.423981678466795,18.423249766967775,53.760191678466796,18.757301766967775C53.760191678466796,18.757301766967775,54.0027216784668,17.787159766967772,54.0027216784668,17.787159766967772C52.3457116784668,17.372905766967772,50.810641678466794,17.810746766967775,49.5923516784668,18.490340766967773C48.3779616784668,19.167751766967772,47.4380606784668,20.106001766967772,46.933780678466796,20.778371766967773C46.933780678466796,20.778371766967773,47.7337806784668,21.378371766967774,47.7337806784668,21.378371766967774C47.7337806784668,21.378371766967774,47.7337806784668,21.378371766967774,47.7337806784668,21.378371766967774Z" fill="#000000" fill-opacity="1"/></g><g><path d="M19.207646278381347,32.30299103027344Q19.39144627838135,32.30299103027344,19.57434627838135,32.28497103027344Q19.75734627838135,32.26695103027344,19.937646278381347,32.23109103027344Q20.11784627838135,32.19523103027344,20.29374627838135,32.14188103027344Q20.469646278381347,32.08852103027344,20.63944627838135,32.01818103027344Q20.809346278381348,31.947841030273437,20.97144627838135,31.86119103027344Q21.133546278381345,31.774541030273436,21.286346278381348,31.672421030273437Q21.439146278381347,31.570301030273438,21.58124627838135,31.453701030273436Q21.72334627838135,31.337091030273438,21.85334627838135,31.207121030273438Q21.983246278381348,31.077141030273438,22.099946278381346,30.935061030273438Q22.216546278381347,30.79297103027344,22.318646278381348,30.640141030273437Q22.420746278381348,30.48731103027344,22.50734627838135,30.325201030273437Q22.59404627838135,30.163101030273438,22.66434627838135,29.993281030273437Q22.734746278381348,29.823461030273435,22.788046278381348,29.647571030273436Q22.841446278381348,29.471671030273438,22.87724627838135,29.291391030273438Q22.913146278381348,29.111121030273438,22.93114627838135,28.92819103027344Q22.94914627838135,28.745271030273436,22.94914627838135,28.56146103027344Q22.94914627838135,28.377651030273437,22.93114627838135,28.19472103027344Q22.913146278381348,28.01180103027344,22.87724627838135,27.831521030273436Q22.841446278381348,27.65124103027344,22.788046278381348,27.475351030273437Q22.734746278381348,27.29945103027344,22.66434627838135,27.129641030273437Q22.59404627838135,26.95982103027344,22.50734627838135,26.797711030273437Q22.420746278381348,26.635611030273438,22.318646278381348,26.482781030273436Q22.216546278381347,26.32994103027344,22.099946278381346,26.18786103027344Q21.983246278381348,26.04577103027344,21.85334627838135,25.91580103027344Q21.72334627838135,25.785826030273437,21.58124627838135,25.66921903027344Q21.439146278381347,25.552611030273436,21.286346278381348,25.450492030273438Q21.133546278381345,25.348373030273436,20.97144627838135,25.261726030273437Q20.809346278381348,25.175079030273437,20.63944627838135,25.104738030273438Q20.469646278381347,25.03439703027344,20.29374627838135,24.981040030273437Q20.11784627838135,24.92768303027344,19.937646278381347,24.891823430273437Q19.75734627838135,24.855964030273437,19.57434627838135,24.83794753027344Q19.39144627838135,24.819931030273438,19.207646278381347,24.819931030273438Q18.74597627838135,24.819931030273438,18.29813627838135,24.93216203027344Q17.85029627838135,25.044393030273437,17.443176278381348,25.262123030273436C17.035246278381347,25.246671030273436,16.60575627838135,25.239138030273438,16.167676278381347,25.23913203027344C14.938066278381347,25.23911503027344,13.606556278381348,25.29847703027344,12.437316278381347,25.418390030273436C11.298146278381347,25.535218030273438,10.220096278381348,25.717671030273436,9.558398278381347,26.001251030273437C9.177676478381347,26.164421030273438,9.001313278381348,26.605331030273437,9.164479478381347,26.986051030273437C9.327646278381348,27.366781030273437,9.768555278381347,27.54314103027344,10.149276278381347,27.37997103027344C10.578856278381348,27.195871030273437,11.449516278381347,27.02756103027344,12.590346278381347,26.91056103027344C13.630256278381347,26.803911030273436,14.818316278381348,26.746681030273436,15.939526278381347,26.739831030273436Q15.706696278381347,27.15754103027344,15.586416278381348,27.62039103027344Q15.466136278381349,28.083241030273438,15.466136278381349,28.56146103027344Q15.466136278381349,28.745271030273436,15.484146278381347,28.92819103027344Q15.502166278381349,29.111121030273438,15.538026278381349,29.291391030273438Q15.573886278381348,29.471671030273438,15.627246278381348,29.647571030273436Q15.680596278381348,29.823461030273435,15.750936278381348,29.993281030273437Q15.821276278381347,30.163101030273438,15.907926278381348,30.325201030273437Q15.994576278381349,30.48731103027344,16.096696278381348,30.640141030273437Q16.198816278381347,30.79297103027344,16.31542627838135,30.935061030273438Q16.432026278381347,31.077151030273438,16.562006278381347,31.207121030273438Q16.691976278381347,31.337091030273438,16.834056278381347,31.453701030273436Q16.976146278381346,31.570311030273437,17.128976278381348,31.672421030273437Q17.28181627838135,31.774541030273436,17.443916278381348,31.86119103027344Q17.60602627838135,31.947841030273437,17.775836278381348,32.01818103027344Q17.94565627838135,32.08852103027344,18.121556278381348,32.14188103027344Q18.297446278381347,32.19523103027344,18.477726278381347,32.23109103027344Q18.65800627838135,32.26695103027344,18.840926278381346,32.28497103027344Q19.02385627838135,32.30299103027344,19.207646278381347,32.30299103027344Z" fill-rule="evenodd" fill="#000000" fill-opacity="1"/></g><g><path d="M43.060336975097655,32.30299103027344Q43.24413697509766,32.30299103027344,43.42703697509766,32.28497103027344Q43.61003697509766,32.26695103027344,43.79033697509766,32.23109103027344Q43.97053697509766,32.19523103027344,44.14643697509766,32.14188103027344Q44.322336975097656,32.08852103027344,44.49213697509766,32.01818103027344Q44.66203697509766,31.947841030273437,44.82413697509766,31.86119103027344Q44.986236975097654,31.774541030273436,45.13903697509765,31.672421030273437Q45.29183697509765,31.570301030273438,45.43393697509766,31.453701030273436Q45.57603697509766,31.337091030273438,45.70603697509766,31.207121030273438Q45.83593697509765,31.077141030273438,45.952636975097654,30.935061030273438Q46.06923697509765,30.79297103027344,46.17133697509766,30.640141030273437Q46.27343697509765,30.48731103027344,46.36003697509766,30.325201030273437Q46.44673697509766,30.163101030273438,46.51703697509765,29.993281030273437Q46.58743697509766,29.823461030273435,46.64073697509765,29.647571030273436Q46.694136975097656,29.471671030273438,46.72993697509766,29.291391030273438Q46.765836975097656,29.111121030273438,46.78383697509766,28.92819103027344Q46.80183697509766,28.745271030273436,46.80183697509766,28.56146103027344Q46.80183697509766,28.377651030273437,46.78383697509766,28.19472103027344Q46.765836975097656,28.01180103027344,46.72993697509766,27.831521030273436Q46.694136975097656,27.65124103027344,46.64073697509765,27.475351030273437Q46.58743697509766,27.29945103027344,46.51703697509765,27.129641030273437Q46.44673697509766,26.95982103027344,46.36003697509766,26.797711030273437Q46.27343697509765,26.635611030273438,46.17133697509766,26.482781030273436Q46.06923697509765,26.32994103027344,45.952636975097654,26.18786103027344Q45.83593697509765,26.04577103027344,45.70603697509766,25.91580103027344Q45.57603697509766,25.785826030273437,45.43393697509766,25.66921903027344Q45.29183697509765,25.552611030273436,45.13903697509765,25.450492030273438Q44.986236975097654,25.348373030273436,44.82413697509766,25.261726030273437Q44.66203697509766,25.175079030273437,44.49213697509766,25.104738030273438Q44.322336975097656,25.03439703027344,44.14643697509766,24.981040030273437Q43.97053697509766,24.92768303027344,43.79033697509766,24.891823430273437Q43.61003697509766,24.855964030273437,43.42703697509766,24.83794753027344Q43.24413697509766,24.819931030273438,43.060336975097655,24.819931030273438Q42.59866697509766,24.819931030273438,42.15082697509766,24.93216203027344Q41.70298697509766,25.044393030273437,41.29586697509765,25.262123030273436C40.88793697509766,25.246671030273436,40.45844697509766,25.239138030273438,40.02036697509766,25.23913203027344C38.79075697509766,25.23911503027344,37.459246975097656,25.29847703027344,36.290006975097654,25.418390030273436C35.150836975097654,25.535218030273438,34.07278697509766,25.717671030273436,33.411088975097655,26.001251030273437C33.03036717509766,26.164421030273438,32.854003975097655,26.605331030273437,33.017170175097654,26.986051030273437C33.18033697509765,27.366781030273437,33.62124597509766,27.54314103027344,34.00196697509766,27.37997103027344C34.43154697509765,27.195871030273437,35.302206975097654,27.02756103027344,36.443036975097655,26.91056103027344C37.482946975097654,26.803911030273436,38.671006975097654,26.746681030273436,39.79221697509766,26.739831030273436Q39.55938697509765,27.15754103027344,39.43910697509766,27.62039103027344Q39.31882697509766,28.083241030273438,39.31882697509766,28.56146103027344Q39.31882697509766,28.745271030273436,39.336836975097654,28.92819103027344Q39.354856975097654,29.111121030273438,39.390716975097654,29.291391030273438Q39.42657697509766,29.471671030273438,39.47993697509766,29.647571030273436Q39.53328697509765,29.823461030273435,39.603626975097654,29.993281030273437Q39.673966975097656,30.163101030273438,39.760616975097655,30.325201030273437Q39.847266975097654,30.48731103027344,39.94938697509765,30.640141030273437Q40.05150697509766,30.79297103027344,40.168116975097654,30.935061030273438Q40.28471697509766,31.077151030273438,40.414696975097655,31.207121030273438Q40.544666975097655,31.337091030273438,40.686746975097655,31.453701030273436Q40.82883697509766,31.570311030273437,40.98166697509765,31.672421030273437Q41.13450697509766,31.774541030273436,41.29660697509766,31.86119103027344Q41.45871697509766,31.947841030273437,41.62852697509766,32.01818103027344Q41.79834697509766,32.08852103027344,41.97424697509766,32.14188103027344Q42.15013697509765,32.19523103027344,42.330416975097656,32.23109103027344Q42.51069697509766,32.26695103027344,42.693616975097655,32.28497103027344Q42.876546975097654,32.30299103027344,43.060336975097655,32.30299103027344Z" fill-rule="evenodd" fill="#000000" fill-opacity="1"/></g><g><path d="M21.208742587890626,40.918215810546876C20.800831587890624,40.84623581054687,20.411800387890626,41.11855581054687,20.339815387890624,41.526465810546874C20.267831387890624,41.934375810546875,20.540153587890625,42.32340581054687,20.948064587890624,42.39539581054687C20.948064587890624,42.39539581054687,21.208742587890626,40.918215810546876,21.208742587890626,40.918215810546876C21.208742587890626,40.918215810546876,21.208742587890626,40.918215810546876,21.208742587890626,40.918215810546876ZM39.57177758789062,37.18593981054688C39.68557758789062,36.787663810546874,39.454977587890625,36.372548810546874,39.056677587890626,36.258755910546874C38.65837758789063,36.14496291054687,38.243277587890624,36.375581810546876,38.12947758789063,36.77385781054687C38.12947758789063,36.77385781054687,39.57177758789062,37.18593981054688,39.57177758789062,37.18593981054688C39.57177758789062,37.18593981054688,39.57177758789062,37.18593981054688,39.57177758789062,37.18593981054688ZM20.948064587890624,42.39539581054687C23.623357587890624,42.867505810546874,27.688147587890626,43.35077581054688,31.348677587890627,42.86805581054688C34.97457758789062,42.389915810546874,38.50757758789062,40.910805810546876,39.57177758789062,37.18593981054688C39.57177758789062,37.18593981054688,38.12947758789063,36.77385781054687,38.12947758789063,36.77385781054687C37.32297758789063,39.596665810546874,34.619977587890624,40.923695810546874,31.152577587890626,41.38093581054687C27.719907587890624,41.83360581054688,23.833957587890623,41.38149581054687,21.208742587890626,40.918215810546876C21.208742587890626,40.918215810546876,20.948064587890624,42.39539581054687,20.948064587890624,42.39539581054687C20.948064587890624,42.39539581054687,20.948064587890624,42.39539581054687,20.948064587890624,42.39539581054687Z" fill="#000000" fill-opacity="1"/></g></g></svg>