<svg xmlns="http://www.w3.org/2000/svg" xmlns:xlink="http://www.w3.org/1999/xlink" fill="none" version="1.1" width="72.0978012084961" height="57.1229248046875" viewBox="0 0 72.0978012084961 57.1229248046875"><defs><mask id="master_svg0_0_247" style="mask-type:alpha" maskUnits="userSpaceOnUse"><g><path d="M52.57012626953125,35.02927199316406C54.62082626953125,37.421107993164064,50.827326269531255,45.39841799316406,37.18842626953125,45.39841799316406C23.54944626953125,45.39831799316406,19.75593626953125,36.62388799316406,21.80681926953125,35.02927199316406C23.85769626953125,33.43465699316406,31.44592626953125,36.97989799316406,37.18842626953125,36.97989799316406C42.93092626953125,36.97989799316406,50.51942626953125,32.63742799316406,52.57012626953125,35.02927199316406C52.57012626953125,35.02927199316406,52.57012626953125,35.02927199316406,52.57012626953125,35.02927199316406Z" fill="#FFFFFF" fill-opacity="1"/></g></mask></defs><g><g><path d="M36.25307981872558,56.6229Q36.94187981872558,56.6229,37.62997981872559,56.5891Q38.31797981872559,56.5553,39.00357981872558,56.4878Q39.68907981872559,56.4203,40.370479818725585,56.3192Q41.05187981872559,56.2181,41.72757981872559,56.0837Q42.40317981872558,55.9493,43.07137981872559,55.7819Q43.739679818725584,55.6146,44.39887981872558,55.4146Q45.05807981872559,55.2146,45.70667981872558,54.9826Q46.355279818725585,54.7505,46.991679818725586,54.4869Q47.62807981872559,54.2232,48.250879818725586,53.9287Q48.87357981872559,53.6342,49.48107981872558,53.3095Q50.08867981872559,52.9847,50.67947981872559,52.6306Q51.27037981872559,52.2764,51.84317981872559,51.8937Q52.415879818725585,51.511,52.969179818725586,51.1006Q53.52257981872559,50.6903,54.05507981872559,50.2533Q54.58757981872559,49.8162,55.097979818725584,49.3536Q55.60837981872559,48.891,56.095479818725586,48.4039Q56.582579818725584,47.9168,57.045179818725586,47.4064Q57.50777981872559,46.896,57.94487981872559,46.3635Q58.38187981872559,45.831,58.792179818725586,45.2776Q59.20257981872559,44.7243,59.58527981872559,44.1516Q59.96797981872559,43.5788,60.32217981872559,42.9879Q60.67627981872558,42.3971,61.001079818725586,41.7895Q61.325779818725586,41.182,61.620279818725585,40.5593Q61.914779818725584,39.9365,62.178479818725584,39.3001Q62.44207981872559,38.6637,62.674179818725584,38.0151Q62.90617981872558,37.3665,63.106179818725586,36.7073Q63.30617981872559,36.0481,63.47357981872558,35.3798Q63.64087981872559,34.7116,63.775279818725586,34.036Q63.909679818725586,33.3603,64.01077981872558,32.6789Q64.11187981872558,31.9975,64.17937981872558,31.312Q64.24687981872559,30.6264,64.28067981872559,29.9384Q64.31447981872559,29.2503,64.31447981872559,28.5615Q64.31447981872559,27.8726,64.28067981872559,27.1846Q64.24687981872559,26.4965,64.17937981872558,25.811Q64.11187981872558,25.1254,64.01077981872558,24.444Q63.909679818725586,23.7626,63.775279818725586,23.0869Q63.64087981872559,22.4113,63.473479818725586,21.7431Q63.30617981872559,21.0749,63.106179818725586,20.4156Q62.90617981872558,19.7564,62.674179818725584,19.1078Q62.44207981872559,18.4592,62.178479818725584,17.8228Q61.914779818725584,17.1864,61.620279818725585,16.5636Q61.325779818725586,15.9409,61.001079818725586,15.3334Q60.67627981872558,14.7259,60.32217981872559,14.135Q59.96797981872559,13.5441,59.58527981872559,12.9713Q59.20257981872559,12.3986,58.792179818725586,11.8453Q58.38187981872559,11.292,57.94487981872559,10.7595Q57.50777981872559,10.22695,57.045179818725586,9.71654Q56.582579818725584,9.20612,56.095479818725586,8.71901Q55.60837981872559,8.23191,55.097979818725584,7.76929Q54.58757981872559,7.30667,54.05507981872559,6.86966Q53.52257981872559,6.43264,52.969179818725586,6.02228Q52.415879818725585,5.61192,51.84317981872559,5.22921Q51.27037981872559,4.84649,50.67947981872559,4.49234Q50.08867981872559,4.13819,49.48107981872558,3.81346Q48.87357981872559,3.48873,48.250879818725586,3.1942Q47.62807981872559,2.89967,46.991679818725586,2.63605Q46.355279818725585,2.37243,45.70667981872558,2.1403600000000003Q45.05807981872559,1.90829,44.39887981872558,1.70832Q43.739679818725584,1.50835,43.07137981872559,1.340967Q42.40317981872558,1.173585,41.72757981872559,1.039193Q41.05187981872559,0.904801,40.370479818725585,0.803723Q39.68907981872559,0.702645,39.00357981872558,0.635124Q38.31797981872559,0.5676025,37.62997981872559,0.5338013Q36.94187981872558,0.5,36.25307981872558,0.5Q35.564179818725584,0.5,34.87617981872559,0.5338013Q34.18807981872558,0.5676025,33.502579818725586,0.635124Q32.816979818725585,0.702645,32.13557981872559,0.803723Q31.454179818725585,0.904801,30.778479818725586,1.039193Q30.102879818725587,1.173585,29.434679818725584,1.340967Q28.766479818725585,1.50835,28.107179818725587,1.70832Q27.447979818725585,1.90829,26.799379818725587,2.1403600000000003Q26.150779818725585,2.37243,25.514379818725587,2.63605Q24.877979818725585,2.89967,24.255179818725587,3.1942Q23.632479818725585,3.48873,23.024979818725583,3.81346Q22.417479818725585,4.13819,21.826579818725584,4.49234Q21.235679818725586,4.84649,20.662879818725585,5.22921Q20.090179818725588,5.61192,19.536879818725588,6.02228Q18.983579818725588,6.43264,18.451079818725585,6.86966Q17.918529818725588,7.30667,17.408119818725588,7.76929Q16.897699818725584,8.23191,16.410589818725587,8.71901Q15.923489818725585,9.20612,15.460869818725586,9.71654Q14.998249818725586,10.22695,14.561239818725586,10.7595Q14.124219818725585,11.292,13.713859818725586,11.8453Q13.303499818725586,12.3986,12.920789818725586,12.9713Q12.538069818725585,13.5441,12.183919818725586,14.135Q11.829769818725586,14.7259,11.505039818725585,15.3334Q11.180309818725586,15.9409,10.885779818725586,16.5636Q10.591249818725586,17.1864,10.327629818725587,17.8228Q10.064009818725586,18.4592,9.831939818725585,19.1078Q9.599869818725587,19.7564,9.399899818725586,20.4156Q9.199929818725586,21.0749,9.032546818725585,21.7431Q8.865164818725585,22.4113,8.730772818725587,23.0869Q8.596380818725587,23.7626,8.495302818725586,24.444Q8.394224818725586,25.1254,8.326703818725585,25.811Q8.259182318725586,26.4965,8.225381118725586,27.1846Q8.191579818725586,27.8726,8.191579818725586,28.5615Q8.191579818725584,29.6907,8.282312618725586,30.8162Q8.373045818725586,31.9418,8.553924818725585,33.0564Q8.734803818725586,34.171,9.004658818725586,35.2675Q9.274509818725585,36.364,9.631599818725586,37.4353Q9.988689818725586,38.5065,10.430699818725586,39.5456Q10.872699818725586,40.5847,11.396779818725586,41.585Q11.920849818725586,42.5852,12.523599818725586,43.5401Q13.126339818725587,44.495,13.803869818725586,45.3983L11.933129818725586,53.8168L19.706679818725586,51.2256Q20.600379818725585,51.8781,21.542779818725585,52.4582Q22.485079818725588,53.0383,23.470179818725587,53.5424Q24.455279818725586,54.0464,25.477079818725585,54.4714Q26.498779818725588,54.8963,27.550879818725587,55.2395Q28.602879818725587,55.5827,29.678679818725588,55.8419Q30.754479818725585,56.1012,31.847279818725585,56.2749Q32.94017981872558,56.4486,34.04327981872559,56.5358Q35.14647981872558,56.6229,36.25307981872558,56.6229Z" fill-rule="evenodd" fill="#FFCF00" fill-opacity="1"/><path d="M36.25307981872558,56.1229Q41.51017981872559,56.1229,46.398279818725584,54.1878Q51.70557981872559,52.0867,55.74197981872559,48.0504Q59.778279818725586,44.0141,61.87937981872559,38.7067Q63.81447981872559,33.8186,63.81447981872559,28.5615Q63.81447981872559,23.3043,61.87937981872559,18.4162Q59.778279818725586,13.1089,55.74197981872559,9.07257Q51.705679818725585,5.03629,46.398279818725584,2.93514Q41.51017981872559,1,36.25307981872558,1Q30.995879818725587,1,26.107779818725586,2.93514Q20.800379818725588,5.03628,16.764149818725585,9.07257Q12.727869818725587,13.1089,10.626719818725586,18.4162Q8.691579818725586,23.3043,8.691579818725586,28.5615Q8.691579818725586,37.7486,14.203869818725586,45.0983L14.341849818725585,45.2823L12.421219818725586,53.9252L11.933129818725586,53.8168L11.775009818725586,53.3424L19.793179818725584,50.6697L20.001479818725585,50.8218Q27.262579818725587,56.123,36.25307981872558,56.1229ZM36.25307981872558,57.1229Q26.936479818725587,57.1229,19.411879818725588,51.6294L19.706679818725586,51.2256L19.864779818725587,51.6999L11.253469818725586,54.5704L13.315769818725585,45.2899L13.803869818725586,45.3983L13.403869818725585,45.6983Q7.691579818725586,38.082,7.691579818725586,28.5615Q7.691579818725586,23.1135,9.696929818725586,18.0481Q11.874299818725586,12.5482,16.057039818725585,8.365459999999999Q20.239779818725587,4.182729999999999,25.739679818725588,2.00535Q30.805179818725588,0,36.25307981872558,0Q41.700979818725585,0,46.76637981872559,2.00535Q52.266279818725586,4.182729999999999,56.449079818725586,8.365459999999999Q60.63177981872558,12.5483,62.80917981872559,18.0481Q64.81447981872559,23.1136,64.81447981872559,28.5615Q64.81447981872559,34.0093,62.80917981872559,39.0748Q60.63177981872558,44.5747,56.449079818725586,48.7575Q52.266279818725586,52.9402,46.76637981872559,55.1176Q41.70087981872559,57.1229,36.25307981872558,57.1229Z" fill="#000000" fill-opacity="1"/></g><g transform="matrix(0.98540860414505,-0.17020541429519653,0.17020541429519653,0.98540860414505,-2.107876403193984,7.921018993214659)"><path d="M45.36573425,16.90675905682373C45.16814215,17.00555505682373,45.08805215,17.24582405682373,45.18684815,17.44341605682373C45.28564425,17.64100605682373,45.52591325,17.72109605682373,45.72350425,17.62230605682373C45.72350425,17.62230605682373,45.36573425,16.90675905682373,45.36573425,16.90675905682373C45.36573425,16.90675905682373,45.36573425,16.90675905682373,45.36573425,16.90675905682373ZM51.80945125,18.48275605682373C51.96566125,18.63896605682373,52.21893125,18.63896605682373,52.37514125,18.48275605682373C52.53135125,18.32654605682373,52.53135125,18.07327605682373,52.37514125,17.91706605682373C52.37514125,17.91706605682373,51.80945125,18.48275605682373,51.80945125,18.48275605682373C51.80945125,18.48275605682373,51.80945125,18.48275605682373,51.80945125,18.48275605682373ZM45.72350425,17.62230605682373C46.29458125,17.33676605682373,47.30567125,17.027091056823732,48.43392125,17.05639605682373C49.55280125,17.08545805682373,50.77303125,17.446336056823732,51.80945125,18.48275605682373C51.80945125,18.48275605682373,52.37514125,17.91706605682373,52.37514125,17.91706605682373C51.16664125,16.70857305682373,49.73662125,16.28996315682373,48.45469125,16.25666614682373C47.18213125,16.22361315682373,46.04183425,16.56870905682373,45.36573425,16.90675905682373C45.36573425,16.90675905682373,45.72350425,17.62230605682373,45.72350425,17.62230605682373C45.72350425,17.62230605682373,45.72350425,17.62230605682373,45.72350425,17.62230605682373Z" fill="#000000" fill-opacity="1"/></g><g transform="matrix(-0.98540860414505,-0.17020535469055176,-0.17020541429519653,0.98540860414505,59.280383370018114,5.081996128465164)"><path d="M28.685764462402343,16.90675905682373C28.488172362402345,17.00555505682373,28.408082362402343,17.24582405682373,28.506878362402343,17.44341605682373C28.605674462402344,17.64100605682373,28.845943462402342,17.72109605682373,29.043534462402345,17.62230605682373C29.043534462402345,17.62230605682373,28.685764462402343,16.90675905682373,28.685764462402343,16.90675905682373C28.685764462402343,16.90675905682373,28.685764462402343,16.90675905682373,28.685764462402343,16.90675905682373ZM35.129481462402346,18.48275605682373C35.28569146240234,18.63896605682373,35.53896146240234,18.63896605682373,35.69517146240234,18.48275605682373C35.851381462402344,18.32654605682373,35.851381462402344,18.07327605682373,35.69517146240234,17.91706605682373C35.69517146240234,17.91706605682373,35.129481462402346,18.48275605682373,35.129481462402346,18.48275605682373C35.129481462402346,18.48275605682373,35.129481462402346,18.48275605682373,35.129481462402346,18.48275605682373ZM29.043534462402345,17.62230605682373C29.614611462402344,17.33676605682373,30.625701462402343,17.027091056823732,31.753951462402345,17.05639605682373C32.872831462402345,17.08545805682373,34.093061462402346,17.446336056823732,35.129481462402346,18.48275605682373C35.129481462402346,18.48275605682373,35.69517146240234,17.91706605682373,35.69517146240234,17.91706605682373C34.48667146240234,16.70857305682373,33.05665146240234,16.28996315682373,31.774721462402344,16.25666614682373C30.502161462402345,16.22361315682373,29.361864462402345,16.56870905682373,28.685764462402343,16.90675905682373C28.685764462402343,16.90675905682373,29.043534462402345,17.62230605682373,29.043534462402345,17.62230605682373C29.043534462402345,17.62230605682373,29.043534462402345,17.62230605682373,29.043534462402345,17.62230605682373Z" fill="#000000" fill-opacity="1"/></g><g><path d="M43.774766257714845,25.14213705444336C44.64434165771485,21.20135005444336,52.58695165771484,19.748887054443358,53.920211657714844,21.81040405444336C53.98601165771484,21.91211705444336,53.92081165771484,22.039627054443358,53.804011657714845,22.07170705444336C51.85334165771484,22.60742705444336,49.638941657714845,23.86700705444336,49.348401657714845,24.819937054443358C49.096121657714846,25.64735705444336,50.375531657714845,27.00464705444336,52.293671657714846,28.14803705444336C52.45487165771485,28.24413705444336,52.41357165771484,28.487177054443357,52.22713165771484,28.50877705444336C48.16073165771484,28.97995705444336,43.504271657714845,26.367977054443358,43.774766257714845,25.14213705444336C43.774766257714845,25.14213705444336,43.774766257714845,25.14213705444336,43.774766257714845,25.14213705444336Z" fill="#000000" fill-opacity="1"/></g><g transform="matrix(-1,0,0,1,59.355926513671875,0)"><path d="M29.68921785683594,25.14213705444336C30.558793256835937,21.20135005444336,38.501403256835935,19.748887054443358,39.83466325683594,21.81040405444336C39.900463256835934,21.91211705444336,39.83526325683594,22.039627054443358,39.71846325683594,22.07170705444336C37.76779325683594,22.60742705444336,35.55339325683594,23.86700705444336,35.26285325683594,24.819937054443358C35.01057325683594,25.64735705444336,36.28998325683594,27.00464705444336,38.20812325683594,28.14803705444336C38.36932325683594,28.24413705444336,38.328023256835934,28.487177054443357,38.141583256835936,28.50877705444336C34.075183256835935,28.97995705444336,29.41872325683594,26.367977054443358,29.68921785683594,25.14213705444336C29.68921785683594,25.14213705444336,29.68921785683594,25.14213705444336,29.68921785683594,25.14213705444336Z" fill="#000000" fill-opacity="1"/></g><g><g><path d="M52.56956527438164,35.02804255670547C54.08306527438164,36.793497556705475,50.82686527438164,45.397227556705474,37.18796527438164,45.39712755670548C23.548965274381636,45.39712755670548,20.10145527438164,36.35343755670547,21.80633227438164,35.02804255670547C23.511205274381638,33.702640556705475,31.445365274381636,36.97840755670548,37.18776527438164,36.97840755670548C42.93026527438164,36.97840755670548,51.05616527438164,33.26257755670547,52.56956527438164,35.02804255670547C52.56956527438164,35.02804255670547,52.56956527438164,35.02804255670547,52.56956527438164,35.02804255670547Z" fill="#000000" fill-opacity="1"/><path d="M45.40756527438164,35.08370055670547Q39.69846527438163,36.47840755670548,37.18776527438164,36.47840755670548Q34.57166527438164,36.47840755670548,28.707335274381638,35.156666556705474Q25.62143527438164,34.46115085670547,24.412765274381638,34.305244556705475Q22.27596427438164,34.029620556705474,21.499448374381636,34.633295956705474Q20.53027027438164,35.38675155670548,21.09185027438164,37.345187556705476Q21.641057274381637,39.26046755670548,23.38428527438164,41.057737556705476Q28.078215274381638,45.89712755670548,37.18796527438164,45.89712755670548Q46.32796527438164,45.897227556705474,50.91756527438164,41.22507755670547Q52.641565274381634,39.47008755670547,53.20296527438164,37.53213755670547Q53.75146527438164,35.63844755670547,52.94916527438164,34.702629556705475Q52.21316527438164,33.84397955670548,49.93026527438164,34.129634556705476Q48.66466527438163,34.288006556705476,45.40756527438164,35.08370055670547ZM28.487465274381638,36.13219755670548Q34.46036527438164,37.47840755670548,37.18776527438164,37.47840755670548Q39.818865274381636,37.47840755670548,45.64486527438164,36.055137556705475Q48.84596527438164,35.273113556705475,50.05446527438164,35.12189655670547Q51.80376527438163,34.902996556705475,52.189965274381635,35.353456556705474Q52.640565274381636,35.879147556705476,52.24236527438164,37.25392755670548Q51.75126527438164,38.94939755670548,50.20426527438164,40.52429755670548Q45.90856527438164,44.897227556705474,37.18796527438164,44.89712755670548Q28.501375274381637,44.89712755670548,24.10210527438164,40.361507556705476Q22.533275274381637,38.744047556705475,22.05311127438164,37.06954755670547Q21.677937274381637,35.761177556705476,22.113212274381638,35.42278555670548Q22.56099527438164,35.074671556705475,24.28483527438164,35.29702755670547Q25.447155274381636,35.44695455670548,28.487465274381638,36.13219755670548Z" fill-rule="evenodd" fill="#000000" fill-opacity="1"/></g><g mask="url(#master_svg0_0_247)"><g><path d="M37.10114799667358,41.42235326766968C30.353767996673582,41.42235326766968,27.964063996673584,44.603333267669676,27.612637996673584,46.19382326766968C27.612637996673584,46.19382326766968,46.58963799667359,46.19382326766968,46.58963799667359,46.19382326766968C46.23823799667358,44.603333267669676,43.848537996673585,41.42235326766968,37.10114799667358,41.42235326766968C37.10114799667358,41.42235326766968,37.10114799667358,41.42235326766968,37.10114799667358,41.42235326766968Z" fill="#D50B00" fill-opacity="1"/></g><g><path d="M37.37602626953125,39.036640233001705C15.65259626953125,39.036640233001705,21.85944426953125,34.79533023300171,22.89388626953125,32.67468023300171C22.89388626953125,32.67468023300171,54.96122626953125,32.67468023300171,54.96122626953125,32.67468023300171C54.96132626953125,34.79533023300171,57.03012626953125,39.036640233001705,37.37602626953125,39.036640233001705C37.37602626953125,39.036640233001705,37.37602626953125,39.036640233001705,37.37602626953125,39.036640233001705Z" fill="#F4F4F6" fill-opacity="1"/></g></g></g><g transform="matrix(0.6792097687721252,-0.7339441776275635,0.7339441776275635,0.6792097687721252,-5.699914112721899,45.66301610865446)"><path d="M60.59203700561523,42.39489928283692C60.83833700561523,45.668799282836915,58.72113700561523,48.94259928283691,54.98717700561524,48.94259928283691C51.31071700561523,48.94259928283691,49.19394600561523,45.668799282836915,49.400703605615234,42.39489928283692C49.60504200561523,39.15944928283692,52.83760700561523,31.932249282836914,54.91379700561524,29.388009982836913C54.952807005615234,29.340193982836915,55.021597005615234,29.339968282836914,55.060957005615236,29.387501382836913C57.16755700561524,31.931289282836914,60.34863700561523,39.159239282836914,60.59203700561523,42.39489928283692C60.59203700561523,42.39489928283692,60.59203700561523,42.39489928283692,60.59203700561523,42.39489928283692Z" fill="#95F6FC" fill-opacity="1"/><path d="M58.984437005615234,35.43402928283692Q57.10777700561523,31.075199282836913,55.446067005615234,29.068609282836913L55.446047005615235,29.068592282836914Q55.26589700561524,28.851049282836915,54.98554700561523,28.852002282836914Q54.705027005615236,28.852956282836914,54.52640700561523,29.071886282836914Q52.867457005615236,31.104829282836914,50.996347005615235,35.43387928283691Q49.05578700561524,39.92359928283692,48.90169800561524,42.363399282836916Q48.72622000561523,45.14199928283691,50.344310005615235,47.20509928283691Q52.09928700561523,49.44259928283691,54.98717700561524,49.44259928283691Q57.916367005615236,49.44259928283691,59.67523700561523,47.20549928283691Q61.299937005615234,45.13919928283691,61.090637005615235,42.357399282836916Q60.905437005615234,39.895899282836915,58.984437005615234,35.43402928283692ZM54.98955700561523,30.105145282836915Q53.551457005615234,32.04279928283692,51.91426700561524,35.83062928283692Q50.04282000561523,40.160499282836916,49.89971000561523,42.426499282836915Q49.74825000561523,44.82469928283692,51.131157005615236,46.587899282836915Q52.585847005615236,48.44259928283691,54.98717700561524,48.44259928283691Q57.43052700561523,48.44259928283691,58.889147005615236,46.587499282836916Q60.27353700561523,44.82669928283691,60.093437005615236,42.43239928283691Q59.92083700561523,40.13769928283691,58.06595700561523,35.829479282836914Q56.426417005615235,32.02139928283692,54.98955700561523,30.105145282836915Z" fill-rule="evenodd" fill="#000000" fill-opacity="1"/></g><g transform="matrix(-0.6792097687721252,-0.7339441776275635,-0.7339441776275635,0.6792097687721252,59.67919551740124,26.084411782179245)"><path d="M33.91616038818359,42.39489928283692C34.16246038818359,45.668799282836915,32.04526038818359,48.94259928283691,28.311300388183593,48.94259928283691C24.634840388183594,48.94259928283691,22.518069388183594,45.668799282836915,22.724826988183594,42.39489928283692C22.929165388183595,39.15944928283692,26.161730388183592,31.932249282836914,28.237920388183593,29.388009982836913C28.276930388183594,29.340193982836915,28.345720388183594,29.339968282836914,28.385080388183596,29.387501382836913C30.491680388183592,31.931289282836914,33.67276038818359,39.159239282836914,33.91616038818359,42.39489928283692C33.91616038818359,42.39489928283692,33.91616038818359,42.39489928283692,33.91616038818359,42.39489928283692Z" fill="#95F6FC" fill-opacity="1"/><path d="M32.308560388183594,35.43402928283692Q30.431900388183593,31.075199282836913,28.770190388183593,29.068609282836913L28.770170388183594,29.068592282836914Q28.590020388183593,28.851049282836915,28.309670388183594,28.852002282836914Q28.029150388183595,28.852956282836914,27.850530388183593,29.071886282836914Q26.191580388183596,31.104829282836914,24.320470388183594,35.43387928283691Q22.379910388183593,39.92359928283692,22.225821388183594,42.363399282836916Q22.050343388183595,45.14199928283691,23.668433388183594,47.20509928283691Q25.423410388183594,49.44259928283691,28.311300388183593,49.44259928283691Q31.240490388183595,49.44259928283691,32.99936038818359,47.20549928283691Q34.624060388183594,45.13919928283691,34.414760388183595,42.357399282836916Q34.22956038818359,39.895899282836915,32.308560388183594,35.43402928283692ZM28.31368038818359,30.105145282836915Q26.875580388183593,32.04279928283692,25.238390388183593,35.83062928283692Q23.366943388183593,40.160499282836916,23.223833388183593,42.426499282836915Q23.072373388183593,44.82469928283692,24.455280388183596,46.587899282836915Q25.909970388183595,48.44259928283691,28.311300388183593,48.44259928283691Q30.75465038818359,48.44259928283691,32.213270388183595,46.587499282836916Q33.59766038818359,44.82669928283691,33.417560388183595,42.43239928283691Q33.24496038818359,40.13769928283691,31.39008038818359,35.829479282836914Q29.750540388183595,32.02139928283692,28.31368038818359,30.105145282836915Z" fill-rule="evenodd" fill="#000000" fill-opacity="1"/></g></g></svg>