<svg xmlns="http://www.w3.org/2000/svg" xmlns:xlink="http://www.w3.org/1999/xlink" fill="none" version="1.1" width="57.1229248046875" height="57.1229248046875" viewBox="0 0 57.1229248046875 57.1229248046875"><defs><filter id="master_svg0_0_1040" filterUnits="objectBoundingBox" color-interpolation-filters="sRGB" x="-2" y="-2" width="10.072674751281738" height="7.741528034210205"><feFlood flood-opacity="0" result="BackgroundImageFix"/><feBlend mode="normal" in="SourceGraphic" in2="BackgroundImageFix" result="shape"/><feGaussianBlur stdDeviation="0.5" result="effect1_foregroundBlur"/></filter><filter id="master_svg1_0_1041" filterUnits="objectBoundingBox" color-interpolation-filters="sRGB" x="-2" y="-2" width="10.072674751281738" height="7.741528034210205"><feFlood flood-opacity="0" result="BackgroundImageFix"/><feBlend mode="normal" in="SourceGraphic" in2="BackgroundImageFix" result="shape"/><feGaussianBlur stdDeviation="0.5" result="effect1_foregroundBlur"/></filter></defs><g><g><path d="M28.5615,56.6229Q29.2503,56.6229,29.9384,56.5891Q30.6264,56.5553,31.312,56.4878Q31.9975,56.4203,32.6789,56.3192Q33.3603,56.2181,34.036,56.0837Q34.7116,55.9493,35.3798,55.7819Q36.0481,55.6146,36.7073,55.4146Q37.3665,55.2146,38.0151,54.9826Q38.6637,54.7505,39.3001,54.4869Q39.9365,54.2232,40.5593,53.9287Q41.182,53.6342,41.7895,53.3095Q42.3971,52.9847,42.9879,52.6306Q43.5788,52.2764,44.1516,51.8937Q44.7243,51.511,45.2776,51.1006Q45.831,50.6903,46.3635,50.2533Q46.896,49.8162,47.4064,49.3536Q47.9168,48.891,48.4039,48.4039Q48.891,47.9168,49.3536,47.4064Q49.8162,46.896,50.2533,46.3635Q50.6903,45.831,51.1006,45.2776Q51.511,44.7243,51.8937,44.1516Q52.2764,43.5788,52.6306,42.9879Q52.9847,42.3971,53.3095,41.7895Q53.6342,41.182,53.9287,40.5593Q54.2232,39.9365,54.4869,39.3001Q54.7505,38.6637,54.9826,38.0151Q55.2146,37.3665,55.4146,36.7073Q55.6146,36.0481,55.782,35.3798Q55.9493,34.7116,56.0837,34.036Q56.2181,33.3603,56.3192,32.6789Q56.4203,31.9975,56.4878,31.312Q56.5553,30.6264,56.5891,29.9384Q56.6229,29.2503,56.6229,28.5615Q56.6229,27.8726,56.5891,27.1846Q56.5553,26.4965,56.4878,25.811Q56.4203,25.1254,56.3192,24.444Q56.2181,23.7626,56.0837,23.0869Q55.9493,22.4113,55.7819,21.7431Q55.6146,21.0749,55.4146,20.4156Q55.2146,19.7564,54.9826,19.1078Q54.7505,18.4592,54.4869,17.8228Q54.2232,17.1864,53.9287,16.5636Q53.6342,15.9409,53.3095,15.3334Q52.9847,14.7259,52.6306,14.135Q52.2764,13.5441,51.8937,12.9713Q51.511,12.3986,51.1006,11.8453Q50.6903,11.292,50.2533,10.7595Q49.8162,10.22695,49.3536,9.71654Q48.891,9.20612,48.4039,8.71901Q47.9168,8.23191,47.4064,7.76929Q46.896,7.30667,46.3635,6.86966Q45.831,6.43264,45.2776,6.02228Q44.7243,5.61192,44.1516,5.22921Q43.5788,4.84649,42.9879,4.49234Q42.3971,4.13819,41.7895,3.81346Q41.182,3.48873,40.5593,3.1942Q39.9365,2.89967,39.3001,2.63605Q38.6637,2.37243,38.0151,2.1403600000000003Q37.3665,1.90829,36.7073,1.70832Q36.0481,1.50835,35.3798,1.340967Q34.7116,1.173585,34.036,1.039193Q33.3603,0.904801,32.6789,0.803723Q31.9975,0.702645,31.312,0.635124Q30.6264,0.5676025,29.9384,0.5338013Q29.2503,0.5,28.5615,0.5Q27.8726,0.5,27.1846,0.5338013Q26.4965,0.5676025,25.811,0.635124Q25.1254,0.702645,24.444,0.803723Q23.7626,0.904801,23.0869,1.039193Q22.4113,1.173585,21.7431,1.340967Q21.0749,1.50835,20.4156,1.70832Q19.7564,1.90829,19.1078,2.1403600000000003Q18.4592,2.37243,17.8228,2.63605Q17.1864,2.89967,16.5636,3.1942Q15.9409,3.48873,15.3334,3.81346Q14.7259,4.13819,14.135,4.49234Q13.5441,4.84649,12.9713,5.22921Q12.3986,5.61192,11.8453,6.02228Q11.292,6.43264,10.7595,6.86966Q10.22695,7.30667,9.71654,7.76929Q9.20612,8.23191,8.71901,8.71901Q8.23191,9.20612,7.76929,9.71654Q7.30667,10.22695,6.86966,10.7595Q6.43264,11.292,6.02228,11.8453Q5.61192,12.3986,5.22921,12.9713Q4.84649,13.5441,4.49234,14.135Q4.13819,14.7259,3.81346,15.3334Q3.48873,15.9409,3.1942,16.5636Q2.89967,17.1864,2.63605,17.8228Q2.37243,18.4592,2.1403600000000003,19.1078Q1.90829,19.7564,1.70832,20.4156Q1.50835,21.0749,1.340967,21.7431Q1.173585,22.4113,1.039193,23.0869Q0.904801,23.7626,0.803723,24.444Q0.702645,25.1254,0.635124,25.811Q0.5676025,26.4965,0.5338013,27.1846Q0.5,27.8726,0.5,28.5615Q0.4999999999999988,29.6907,0.5907328000000001,30.8162Q0.681466,31.9418,0.8623449999999999,33.0564Q1.043224,34.171,1.313079,35.2675Q1.58293,36.364,1.94002,37.4353Q2.29711,38.5065,2.73912,39.5456Q3.18112,40.5847,3.7052,41.585Q4.22927,42.5852,4.83202,43.5401Q5.43476,44.495,6.11229,45.3983L4.24155,53.8168L12.0151,51.2256Q12.9088,51.8781,13.8512,52.4582Q14.7935,53.0383,15.7786,53.5424Q16.7637,54.0464,17.7855,54.4714Q18.8072,54.8963,19.8593,55.2395Q20.9113,55.5827,21.9871,55.8419Q23.0629,56.1012,24.1557,56.2749Q25.2486,56.4486,26.3517,56.5358Q27.4549,56.6229,28.5615,56.6229Z" fill-rule="evenodd" fill="#FFCF00" fill-opacity="1"/><path d="M28.5615,56.1229Q33.8186,56.1229,38.7067,54.1878Q44.014,52.0867,48.0504,48.0504Q52.0867,44.0141,54.1878,38.7067Q56.1229,33.8186,56.1229,28.5615Q56.1229,23.3043,54.1878,18.4162Q52.0867,13.1089,48.0504,9.07257Q44.0141,5.03629,38.7067,2.93514Q33.8186,1,28.5615,1Q23.3043,1,18.4162,2.93514Q13.1088,5.03628,9.07257,9.07257Q5.03629,13.1089,2.93514,18.4162Q1,23.3043,1,28.5615Q1,37.7486,6.51229,45.0983L6.65027,45.2823L4.72964,53.9252L4.24155,53.8168L4.08343,53.3424L12.1016,50.6697L12.3099,50.8218Q19.571,56.123,28.5615,56.1229ZM28.5615,57.1229Q19.2449,57.1229,11.7203,51.6294L12.0151,51.2256L12.1732,51.6999L3.56189,54.5704L5.62419,45.2899L6.11229,45.3983L5.71229,45.6983Q0,38.082,0,28.5615Q0,23.1135,2.00535,18.0481Q4.18272,12.5482,8.365459999999999,8.365459999999999Q12.5482,4.182729999999999,18.0481,2.00535Q23.1136,0,28.5615,0Q34.0094,0,39.0748,2.00535Q44.5747,4.182729999999999,48.7575,8.365459999999999Q52.9402,12.5483,55.1176,18.0481Q57.1229,23.1136,57.1229,28.5615Q57.1229,34.0093,55.1176,39.0748Q52.9402,44.5747,48.7575,48.7575Q44.5747,52.9402,39.0748,55.1176Q34.0093,57.1229,28.5615,57.1229Z" fill="#000000" fill-opacity="1"/></g><g filter="url(#master_svg0_0_1040)"><ellipse cx="10.51424789428711" cy="24.929102182388306" rx="3.036337375640869" ry="1.8707640171051025" fill="#FF8D6E" fill-opacity="1"/></g><g transform="matrix(1,0,0,-1,0,53.59967041015625)" filter="url(#master_svg1_0_1041)"><ellipse cx="45.95004892349243" cy="28.670599222183228" rx="3.036337375640869" ry="1.8707640171051025" fill="#FF8D6E" fill-opacity="1"/></g><g><g><path d="M23.31956672668457,33.08420777320862C23.31956672668457,32.53192377320862,23.76728172668457,32.08420777320862,24.31956672668457,32.08420777320862C24.31956672668457,32.08420777320862,32.80286672668457,32.08420777320862,32.80286672668457,32.08420777320862C33.35516672668457,32.08420777320862,33.80286672668457,32.53192277320862,33.80286672668457,33.08420777320862C33.80286672668457,33.08420777320862,33.80286672668457,37.63453777320862,33.80286672668457,37.63453777320862C33.80286672668457,40.39596777320862,31.56428672668457,42.63450777320862,28.80286672668457,42.63450777320862C28.80286672668457,42.63450777320862,28.31956672668457,42.63450777320862,28.31956672668457,42.63450777320862C25.55814672668457,42.63450777320862,23.31956672668457,40.39596777320862,23.31956672668457,37.63453777320862C23.31956672668457,37.63453777320862,23.31956672668457,33.08420777320862,23.31956672668457,33.08420777320862C23.31956672668457,33.08420777320862,23.31956672668457,33.08420777320862,23.31956672668457,33.08420777320862Z" fill="#D50B00" fill-opacity="1"/><path d="M23.06956672668457,33.08420777320862L23.06956672668457,37.63453777320862Q23.06956672668457,39.80915777320862,24.60725672668457,41.34683777320862Q26.14494672668457,42.88450777320862,28.31956672668457,42.88450777320862L28.80286672668457,42.88450777320862Q30.97749672668457,42.88450777320862,32.51517672668457,41.34683777320862Q34.05286672668457,39.80915777320862,34.05286672668457,37.63453777320862L34.05286672668457,33.08420777320862Q34.05286672668457,32.56643877320862,33.68676672668457,32.20032477320862Q33.32066672668457,31.834207773208618,32.80286672668457,31.834207773208618L24.31956672668457,31.834207773208618Q23.80179972668457,31.834207773208618,23.435682726684572,32.20032477320862Q23.06956672668457,32.56644077320862,23.06956672668457,33.08420777320862ZM24.96080672668457,40.99327777320862Q23.56956572668457,39.60204777320862,23.56956672668457,37.63453777320862L23.56956672668457,33.08420777320862Q23.56956672668457,32.77354777320862,23.78923672668457,32.55387777320862Q24.00890672668457,32.33420777320862,24.31956672668457,32.33420777320862L32.80286672668457,32.33420777320862Q33.11353672668457,32.33420777320862,33.33316672668457,32.55387677320862Q33.55286672668457,32.773543773208615,33.55286672668457,33.08420777320862L33.55286672668457,37.63453777320862Q33.55286672668457,39.60204777320862,32.161626726684574,40.99327777320862Q30.77038672668457,42.38450777320862,28.80286672668457,42.38450777320862L28.31956672668457,42.38450777320862Q26.35204672668457,42.38450777320862,24.96080672668457,40.99327777320862Z" fill-rule="evenodd" fill="#000000" fill-opacity="1"/></g><g><path d="M28.810969829559326,32.08418655395508C28.810969829559326,31.946115553955078,28.699040829559326,31.834186553955078,28.560969829559326,31.834186553955078C28.422898829559326,31.834186553955078,28.310969829559326,31.946115553955078,28.310969829559326,32.08418655395508C28.310969829559326,32.08418655395508,28.810969829559326,32.08418655395508,28.810969829559326,32.08418655395508C28.810969829559326,32.08418655395508,28.810969829559326,32.08418655395508,28.810969829559326,32.08418655395508ZM28.310969829559326,36.304316553955076C28.310969829559326,36.442386553955075,28.422898829559326,36.554316553955076,28.560969829559326,36.554316553955076C28.699040829559326,36.554316553955076,28.810969829559326,36.442386553955075,28.810969829559326,36.304316553955076C28.810969829559326,36.304316553955076,28.310969829559326,36.304316553955076,28.310969829559326,36.304316553955076C28.310969829559326,36.304316553955076,28.310969829559326,36.304316553955076,28.310969829559326,36.304316553955076ZM28.310969829559326,32.08418655395508C28.310969829559326,32.08418655395508,28.310969829559326,36.304316553955076,28.310969829559326,36.304316553955076C28.310969829559326,36.304316553955076,28.810969829559326,36.304316553955076,28.810969829559326,36.304316553955076C28.810969829559326,36.304316553955076,28.810969829559326,32.08418655395508,28.810969829559326,32.08418655395508C28.810969829559326,32.08418655395508,28.310969829559326,32.08418655395508,28.310969829559326,32.08418655395508C28.310969829559326,32.08418655395508,28.310969829559326,32.08418655395508,28.310969829559326,32.08418655395508Z" fill="#000000" fill-opacity="1"/></g></g><g><path d="M19.898541188964845,29.498812639892577C19.688241188964845,29.141957239892577,19.228468188964843,29.023153639892577,18.871613188964844,29.23345563989258C18.514758188964844,29.44375863989258,18.395954188964843,29.90353063989258,18.606256188964842,30.260384639892578C18.606256188964842,30.260384639892578,19.898541188964845,29.498812639892577,19.898541188964845,29.498812639892577C19.898541188964845,29.498812639892577,19.898541188964845,29.498812639892577,19.898541188964845,29.498812639892577ZM38.519481188964846,30.25528463989258C38.72698118896484,29.896788639892577,38.60448118896484,29.43796663989258,38.24598118896485,29.230478639892578C37.88748118896484,29.022991639892577,37.428681188964845,29.145410239892577,37.22118118896485,29.503910639892577C37.22118118896485,29.503910639892577,38.519481188964846,30.25528463989258,38.519481188964846,30.25528463989258C38.519481188964846,30.25528463989258,38.519481188964846,30.25528463989258,38.519481188964846,30.25528463989258ZM28.593881188964843,29.89220463989258C28.593881188964843,29.89220463989258,29.241181188964845,29.51330563989258,29.241181188964845,29.51330563989258C29.241181188964845,29.51330563989258,28.593881188964843,29.89220463989258,28.593881188964843,29.89220463989258C28.593881188964843,29.89220463989258,28.593881188964843,29.89220463989258,28.593881188964843,29.89220463989258ZM28.578281188964844,29.891666639892577C28.578281188964844,29.891666639892577,29.193881188964845,30.32003463989258,29.193881188964845,30.32003463989258C29.193881188964845,30.32003463989258,28.578281188964844,29.891666639892577,28.578281188964844,29.891666639892577C28.578281188964844,29.891666639892577,28.578281188964844,29.891666639892577,28.578281188964844,29.891666639892577ZM27.946631188964844,30.271104639892577C28.027051188964844,30.408484639892578,28.535781188964844,31.251664639892578,29.403881188964846,32.06919463989258C30.266081188964844,32.881074639892574,31.564781188964844,33.743094639892576,33.211181188964844,33.743094639892576C33.211181188964844,33.743094639892576,33.211181188964844,32.243094639892576,33.211181188964844,32.243094639892576C32.10668118896484,32.243094639892576,31.159581188964843,31.66203463989258,30.432281188964843,30.97715463989258C29.710881188964844,30.297924639892578,29.286381188964846,29.59066063989258,29.241181188964845,29.51330563989258C29.241181188964845,29.51330563989258,27.946631188964844,30.271104639892577,27.946631188964844,30.271104639892577C27.946631188964844,30.271104639892577,27.946631188964844,30.271104639892577,27.946631188964844,30.271104639892577ZM33.211181188964844,33.743094639892576C34.91938118896485,33.743094639892576,36.26208118896484,32.81534463989258,37.132681188964845,31.97637463989258C37.574881188964845,31.550174639892578,37.91728118896484,31.126204639892578,38.14938118896484,30.80896463989258C38.26588118896484,30.64973463989258,38.355881188964844,30.515754639892577,38.417781188964845,30.41960463989258C38.448781188964844,30.37148463989258,38.47288118896485,30.33270463989258,38.489881188964844,30.30483463989258C38.49838118896484,30.290894639892578,38.505081188964844,30.279664639892577,38.509981188964844,30.27134463989258C38.51248118896484,30.267184639892577,38.514481188964844,30.26375463989258,38.51608118896485,30.261064639892577C38.516881188964845,30.25972463989258,38.51758118896484,30.25857463989258,38.51808118896484,30.257604639892577C38.518381188964845,30.257124639892577,38.51868118896485,30.25669463989258,38.51888118896484,30.256304639892576C38.518981188964844,30.25611463989258,38.51908118896485,30.25585463989258,38.51918118896484,30.25576463989258C38.51928118896484,30.255514639892578,38.519481188964846,30.25528463989258,37.87038118896484,29.87959963989258C37.22118118896485,29.503910639892577,37.221281188964845,29.50370463989258,37.221481188964844,29.503509639892577C37.221481188964844,29.503460639892577,37.22158118896485,29.503277639892577,37.221681188964844,29.503178639892578C37.22178118896484,29.502981639892578,37.22188118896484,29.50283063989258,37.22188118896484,29.502724639892577C37.22198118896485,29.502514639892578,37.22208118896484,29.50248863989258,37.22198118896485,29.502642639892578C37.22178118896484,29.50295163989258,37.22118118896485,29.503982639892577,37.220181188964844,29.505714639892577C37.218081188964845,29.509177639892577,37.21438118896484,29.515433639892578,37.20898118896484,29.524297639892577C37.19808118896484,29.54203263989258,37.18068118896484,29.570149639892577,37.156881188964846,29.607164639892577C37.10908118896484,29.681284639892578,37.035881188964844,29.79054263989258,36.93888118896484,29.923199639892577C36.743781188964846,30.189744639892577,36.45718118896484,30.54414463989258,36.091781188964845,30.89632463989258C35.34698118896485,31.614094639892578,34.360181188964845,32.243094639892576,33.211181188964844,32.243094639892576C33.211181188964844,32.243094639892576,33.211181188964844,33.743094639892576,33.211181188964844,33.743094639892576C33.211181188964844,33.743094639892576,33.211181188964844,33.743094639892576,33.211181188964844,33.743094639892576ZM19.252400188964845,29.87959963989258C18.606256188964842,30.260384639892578,18.606383188964845,30.260604639892577,18.606517188964844,30.26082463989258C18.606571188964843,30.26091463989258,18.606712188964845,30.261154639892577,18.606820188964843,30.261344639892577C18.607036188964845,30.261704639892578,18.607281188964844,30.262124639892576,18.607555188964845,30.262584639892577C18.608102188964843,30.263504639892577,18.608763188964843,30.264614639892578,18.609538188964844,30.26591463989258C18.611089188964844,30.26851463989258,18.613095188964845,30.271864639892577,18.615553188964842,30.27594463989258C18.620470188964845,30.28409463989258,18.627197188964843,30.295144639892577,18.635706188964843,30.308914639892578C18.652719188964845,30.336434639892577,18.676887188964844,30.37485463989258,18.707976188964842,30.42260463989258C18.770097188964844,30.518014639892577,18.860183188964843,30.65121463989258,18.976377188964843,30.80964463989258C19.207840188964845,31.12522463989258,19.547721188964843,31.54753463989258,19.981681188964842,31.972314639892577C20.830411188964845,32.803084639892575,22.142341188964842,33.743094639892576,23.779121188964844,33.743094639892576C23.779121188964844,33.743094639892576,23.779121188964844,32.243094639892576,23.779121188964844,32.243094639892576C22.724031188964844,32.243094639892576,21.772611188964845,31.62635463989258,21.030941188964842,30.90037463989258C20.669711188964843,30.54678463989258,20.382631188964844,30.19071463989258,20.185941188964843,29.92252763989258C20.088051188964844,29.789065639892577,20.013761188964843,29.67902263989258,19.965021188964844,29.604165639892578C19.940681188964845,29.566779639892577,19.922801188964844,29.538302639892578,19.911621188964844,29.52021763989258C19.906031188964842,29.51117963989258,19.902131188964844,29.504750639892578,19.899941188964842,29.501117639892577C19.898841188964845,29.49930163989258,19.898181188964845,29.49818563989258,19.897941188964843,29.497793639892578C19.897821188964844,29.49759763989258,19.897811188964845,29.497582639892578,19.897921188964844,29.497751639892577C19.897961188964842,29.49783563989258,19.898041188964843,29.497966639892578,19.898151188964842,29.498142639892578C19.898201188964844,29.498231639892577,19.898301188964844,29.498398639892578,19.898321188964843,29.498442639892577C19.898431188964842,29.49862163989258,19.898541188964845,29.498812639892577,19.252400188964845,29.87959963989258C19.252400188964845,29.87959963989258,19.252400188964845,29.87959963989258,19.252400188964845,29.87959963989258ZM23.779121188964844,33.743094639892576C25.347151188964844,33.743094639892576,26.683431188964846,32.87820463989258,27.59000118896484,32.08604463989258C28.51248118896484,31.27998463989258,29.103981188964845,30.449224639892577,29.193881188964845,30.32003463989258C29.193881188964845,30.32003463989258,27.962621188964846,29.463300639892577,27.962621188964846,29.463300639892577C27.906121188964846,29.544499639892578,27.395021188964844,30.264454639892577,26.603011188964842,30.95650463989258C25.795091188964843,31.662464639892576,24.805001188964845,32.243094639892576,23.779121188964844,32.243094639892576C23.779121188964844,32.243094639892576,23.779121188964844,33.743094639892576,23.779121188964844,33.743094639892576C23.779121188964844,33.743094639892576,23.779121188964844,33.743094639892576,23.779121188964844,33.743094639892576ZM29.241181188964845,29.51330563989258C29.123881188964845,29.31301463989258,28.899081188964843,29.14712723989258,28.610881188964843,29.137662269892576C28.324641188964844,29.128262269892577,28.092371188964844,29.276824639892578,27.962621188964846,29.463300639892577C27.962621188964846,29.463300639892577,29.193881188964845,30.32003463989258,29.193881188964845,30.32003463989258C29.068381188964842,30.50042463989258,28.842081188964844,30.64606463989258,28.561581188964844,30.63685463989258C28.279241188964846,30.62758463989258,28.06014118896484,30.465004639892577,27.946631188964844,30.271104639892577C27.946631188964844,30.271104639892577,29.241181188964845,29.51330563989258,29.241181188964845,29.51330563989258C29.241181188964845,29.51330563989258,29.241181188964845,29.51330563989258,29.241181188964845,29.51330563989258Z" fill="#000000" fill-opacity="1"/></g><g><path d="M11.16269732310791,19.159085528259276C11.06448732310791,19.56149552825928,11.31108312310791,19.967315528259277,11.71348512310791,20.06552552825928C12.11588712310791,20.163735528259277,12.52171712310791,19.917145528259276,12.61992712310791,19.514745528259276C12.61992712310791,19.514745528259276,11.16269732310791,19.159085528259276,11.16269732310791,19.159085528259276C11.16269732310791,19.159085528259276,11.16269732310791,19.159085528259276,11.16269732310791,19.159085528259276ZM20.41596712310791,19.51081552825928C20.51201712310791,19.913745528259277,20.916507123107912,20.162515528259277,21.31943712310791,20.06647552825928C21.722337123107913,19.970425528259277,21.97113712310791,19.565935528259278,21.875137123107912,19.163005528259276C21.875137123107912,19.163005528259276,20.41596712310791,19.51081552825928,20.41596712310791,19.51081552825928C20.41596712310791,19.51081552825928,20.41596712310791,19.51081552825928,20.41596712310791,19.51081552825928ZM11.89131112310791,19.336915528259276C12.61992712310791,19.514745528259276,12.61986712310791,19.514985528259277,12.61980712310791,19.515215528259276C12.61979712310791,19.515265528259278,12.61974712310791,19.515475528259277,12.619717123107911,19.515585528259276C12.61966712310791,19.515795528259275,12.619627123107911,19.515935528259277,12.61960712310791,19.516015528259278C12.61957712310791,19.51617552825928,12.61959712310791,19.516065528259276,12.61969712310791,19.51569552825928C12.61987712310791,19.51495552825928,12.62032712310791,19.513155528259276,12.62104712310791,19.51035552825928C12.62248712310791,19.50473552825928,12.62500712310791,19.49506552825928,12.62863712310791,19.481605528259276C12.63590712310791,19.454685528259276,12.64761712310791,19.412705528259277,12.66405712310791,19.357805528259277C12.69698712310791,19.24785552825928,12.748657123107911,19.086995528259276,12.82135712310791,18.892205528259275C12.96765712310791,18.500275528259277,13.19464712310791,17.983205528259276,13.51783712310791,17.47037552825928C14.17381712310791,16.429455528259275,15.13541712310791,15.534915528259278,16.52989712310791,15.513595528259277C16.52989712310791,15.513595528259277,16.50696712310791,14.013769159259278,16.50696712310791,14.013769159259278C14.37732712310791,14.046330128259278,13.02535712310791,15.438405528259278,12.24881712310791,16.67063552825928C11.85573612310791,17.294375528259277,11.58671412310791,17.91051552825928,11.41607612310791,18.367635528259278C11.33031512310791,18.597385528259277,11.26827612310791,18.790025528259278,11.22712132310791,18.927435528259277C11.20652132310791,18.996215528259278,11.19108732310791,19.05137552825928,11.18047732310791,19.09068552825928C11.17517032310791,19.110345528259277,11.17106432310791,19.12605552825928,11.16811632310791,19.137545528259277C11.16664232310791,19.143295528259276,11.16545732310791,19.147985528259277,11.16455632310791,19.151585528259275C11.16410532310791,19.153385528259278,11.16372532310791,19.154915528259277,11.16341632310791,19.15616552825928C11.16326132310791,19.156795528259277,11.16312432310791,19.157345528259278,11.163004323107911,19.157835528259277C11.16294432310791,19.15807552825928,11.16286732310791,19.158395528259277,11.162838323107911,19.15851552825928C11.16276532310791,19.158815528259275,11.16269732310791,19.159085528259276,11.89131112310791,19.336915528259276C11.89131112310791,19.336915528259276,11.89131112310791,19.336915528259276,11.89131112310791,19.336915528259276ZM16.52989712310791,15.513595528259277C17.90672712310791,15.492545528259278,18.85989712310791,16.371675528259278,19.51690712310791,17.426585528259277C19.83999712310791,17.945355528259277,20.06719712310791,18.47197552825928,20.21382712310791,18.872555528259277C20.28666712310791,19.071585528259277,20.33846712310791,19.236295528259276,20.37151712310791,19.349095528259276C20.38801712310791,19.405415528259276,20.39977712310791,19.448565528259277,20.40709712310791,19.476305528259278C20.41075712310791,19.49017552825928,20.41330712310791,19.500175528259277,20.41476712310791,19.50602552825928C20.415507123107908,19.508945528259275,20.41596712310791,19.51083552825928,20.41616712310791,19.51164552825928C20.41626712310791,19.51205552825928,20.41629712310791,19.512185528259277,20.41626712310791,19.51205552825928C20.416247123107908,19.511985528259277,20.416217123107913,19.51184552825928,20.41616712310791,19.51164552825928C20.416147123107912,19.511535528259277,20.41609712310791,19.511335528259277,20.41607712310791,19.51128552825928C20.41602712310791,19.511065528259277,20.41596712310791,19.51081552825928,21.14553712310791,19.336915528259276C21.875137123107912,19.163005528259276,21.87503712310791,19.162735528259276,21.874937123107912,19.162445528259276C21.874937123107912,19.162315528259278,21.87483712310791,19.16200552825928,21.87483712310791,19.161765528259277C21.87463712310791,19.161275528259278,21.87453712310791,19.160715528259278,21.87443712310791,19.160095528259276C21.87413712310791,19.158835528259278,21.873737123107908,19.157295528259276,21.873237123107913,19.155475528259277C21.87233712310791,19.151845528259276,21.87123712310791,19.14708552825928,21.86973712310791,19.141265528259275C21.86683712310791,19.129605528259276,21.862737123107912,19.113625528259277,21.85743712310791,19.093615528259278C21.84693712310791,19.05361552825928,21.83153712310791,18.997395528259275,21.81103712310791,18.92730552825928C21.76993712310791,18.787265528259276,21.70803712310791,18.590905528259277,21.622437123107908,18.356985528259276C21.45213712310791,17.891665528259278,21.18333712310791,17.264875528259278,20.79015712310791,16.633595528259278C20.01464712310791,15.388425528259278,18.65426712310791,13.980939128259278,16.50696712310791,14.013769159259278C16.50696712310791,14.013769159259278,16.52989712310791,15.513595528259277,16.52989712310791,15.513595528259277C16.52989712310791,15.513595528259277,16.52989712310791,15.513595528259277,16.52989712310791,15.513595528259277Z" fill="#000000" fill-opacity="1"/></g><g transform="matrix(-1,0,0,1,90.89942932128906,0)"><path d="M45.471274860644534,19.159085528259276C45.37306486064453,19.56149552825928,45.619660660644534,19.967315528259277,46.02206266064453,20.06552552825928C46.42446466064453,20.163735528259277,46.83029466064453,19.917145528259276,46.928504660644535,19.514745528259276C46.928504660644535,19.514745528259276,45.471274860644534,19.159085528259276,45.471274860644534,19.159085528259276C45.471274860644534,19.159085528259276,45.471274860644534,19.159085528259276,45.471274860644534,19.159085528259276ZM54.72454466064453,19.51081552825928C54.82059466064453,19.913745528259277,55.225084660644534,20.162515528259277,55.62801466064453,20.06647552825928C56.030914660644534,19.970425528259277,56.27971466064453,19.565935528259278,56.18371466064453,19.163005528259276C56.18371466064453,19.163005528259276,54.72454466064453,19.51081552825928,54.72454466064453,19.51081552825928C54.72454466064453,19.51081552825928,54.72454466064453,19.51081552825928,54.72454466064453,19.51081552825928ZM46.19988866064453,19.336915528259276C46.928504660644535,19.514745528259276,46.92844466064453,19.514985528259277,46.92838466064453,19.515215528259276C46.92837466064453,19.515265528259278,46.928324660644535,19.515475528259277,46.92829466064453,19.515585528259276C46.92824466064453,19.515795528259275,46.92820466064453,19.515935528259277,46.92818466064453,19.516015528259278C46.92815466064453,19.51617552825928,46.92817466064453,19.516065528259276,46.92827466064453,19.51569552825928C46.92845466064453,19.51495552825928,46.928904660644534,19.513155528259276,46.92962466064453,19.51035552825928C46.93106466064453,19.50473552825928,46.933584660644534,19.49506552825928,46.93721466064453,19.481605528259276C46.944484660644534,19.454685528259276,46.956194660644535,19.412705528259277,46.97263466064453,19.357805528259277C47.00556466064453,19.24785552825928,47.05723466064453,19.086995528259276,47.12993466064453,18.892205528259275C47.27623466064453,18.500275528259277,47.503224660644534,17.983205528259276,47.82641466064453,17.47037552825928C48.48239466064453,16.429455528259275,49.443994660644535,15.534915528259278,50.83847466064453,15.513595528259277C50.83847466064453,15.513595528259277,50.815544660644534,14.013769159259278,50.815544660644534,14.013769159259278C48.68590466064453,14.046330128259278,47.33393466064453,15.438405528259278,46.55739466064453,16.67063552825928C46.16431366064453,17.294375528259277,45.89529166064453,17.91051552825928,45.724653660644535,18.367635528259278C45.63889266064453,18.597385528259277,45.57685366064453,18.790025528259278,45.53569886064453,18.927435528259277C45.51509886064453,18.996215528259278,45.49966486064453,19.05137552825928,45.48905486064453,19.09068552825928C45.483747860644534,19.110345528259277,45.479641860644534,19.12605552825928,45.47669386064453,19.137545528259277C45.47521986064453,19.143295528259276,45.47403486064453,19.147985528259277,45.47313386064453,19.151585528259275C45.47268286064453,19.153385528259278,45.47230286064453,19.154915528259277,45.47199386064453,19.15616552825928C45.47183886064453,19.156795528259277,45.47170186064453,19.157345528259278,45.471581860644534,19.157835528259277C45.47152186064453,19.15807552825928,45.47144486064453,19.158395528259277,45.471415860644534,19.15851552825928C45.47134286064453,19.158815528259275,45.471274860644534,19.159085528259276,46.19988866064453,19.336915528259276C46.19988866064453,19.336915528259276,46.19988866064453,19.336915528259276,46.19988866064453,19.336915528259276ZM50.83847466064453,15.513595528259277C52.215304660644534,15.492545528259278,53.168474660644534,16.371675528259278,53.825484660644534,17.426585528259277C54.14857466064453,17.945355528259277,54.37577466064453,18.47197552825928,54.52240466064453,18.872555528259277C54.59524466064453,19.071585528259277,54.64704466064453,19.236295528259276,54.68009466064453,19.349095528259276C54.696594660644536,19.405415528259276,54.70835466064453,19.448565528259277,54.71567466064453,19.476305528259278C54.719334660644535,19.49017552825928,54.721884660644534,19.500175528259277,54.72334466064453,19.50602552825928C54.72408466064453,19.508945528259275,54.72454466064453,19.51083552825928,54.72474466064453,19.51164552825928C54.724844660644536,19.51205552825928,54.72487466064453,19.512185528259277,54.724844660644536,19.51205552825928C54.72482466064453,19.511985528259277,54.724794660644534,19.51184552825928,54.72474466064453,19.51164552825928C54.72472466064453,19.511535528259277,54.72467466064453,19.511335528259277,54.72465466064453,19.51128552825928C54.72460466064453,19.511065528259277,54.72454466064453,19.51081552825928,55.454114660644535,19.336915528259276C56.18371466064453,19.163005528259276,56.18361466064453,19.162735528259276,56.18351466064453,19.162445528259276C56.18351466064453,19.162315528259278,56.18341466064453,19.16200552825928,56.18341466064453,19.161765528259277C56.18321466064453,19.161275528259278,56.183114660644534,19.160715528259278,56.18301466064453,19.160095528259276C56.182714660644535,19.158835528259278,56.18231466064453,19.157295528259276,56.181814660644534,19.155475528259277C56.18091466064453,19.151845528259276,56.17981466064453,19.14708552825928,56.17831466064453,19.141265528259275C56.175414660644535,19.129605528259276,56.17131466064453,19.113625528259277,56.166014660644535,19.093615528259278C56.15551466064453,19.05361552825928,56.14011466064453,18.997395528259275,56.11961466064453,18.92730552825928C56.07851466064453,18.787265528259276,56.016614660644535,18.590905528259277,55.93101466064453,18.356985528259276C55.76071466064453,17.891665528259278,55.49191466064453,17.264875528259278,55.09873466064453,16.633595528259278C54.32322466064453,15.388425528259278,52.962844660644535,13.980939128259278,50.815544660644534,14.013769159259278C50.815544660644534,14.013769159259278,50.83847466064453,15.513595528259277,50.83847466064453,15.513595528259277C50.83847466064453,15.513595528259277,50.83847466064453,15.513595528259277,50.83847466064453,15.513595528259277Z" fill="#000000" fill-opacity="1"/></g></g></svg>