<svg xmlns="http://www.w3.org/2000/svg" xmlns:xlink="http://www.w3.org/1999/xlink" fill="none" version="1.1" width="51.1654052734375" height="51.670623779296875" viewBox="0 0 51.1654052734375 51.670623779296875"><defs><mask id="master_svg0_0_1218" style="mask-type:alpha" maskUnits="userSpaceOnUse"><g><path d="M25.177453520965575,1.38916303515625C25.569253520965574,0.88143603515625,26.330953520965576,0.86851003515625,26.739653520965575,1.36265203515625C26.739653520965575,1.36265203515625,36.136253520965575,12.72156103515625,36.136253520965575,12.72156103515625C36.250353520965575,12.85946103515625,36.39945352096558,12.96426103515625,36.567953520965574,13.02496103515625C36.567953520965574,13.02496103515625,48.807953520965576,17.43326103515625,48.807953520965576,17.43326103515625C49.43085352096558,17.65756103515625,49.667753520965576,18.41436103515625,49.283953520965575,18.95376103515625C49.283953520965575,18.95376103515625,41.02555352096557,30.56196103515625,41.02555352096557,30.56196103515625C40.90505352096557,30.73126103515625,40.84035352096558,30.93386103515625,40.84035352096558,31.14166103515625C40.84035352096558,31.14166103515625,40.84035352096558,44.77996103515625,40.84035352096558,44.77996103515625C40.84035352096558,45.46196103515625,40.172653520965575,45.94386103515625,39.525353520965574,45.72906103515625C39.525353520965574,45.72906103515625,26.256953520965578,41.32516103515625,26.256953520965578,41.32516103515625C26.052453520965575,41.25726103515625,25.831453520965574,41.25726103515625,25.626953520965575,41.32516103515625C25.626953520965575,41.32516103515625,12.358643520965575,45.72906103515625,12.358643520965575,45.72906103515625C11.711343520965576,45.94386103515625,11.043633520965576,45.46196103515625,11.043633520965576,44.77996103515625C11.043633520965576,44.77996103515625,11.043633520965576,31.14166103515625,11.043633520965576,31.14166103515625C11.043633520965576,30.93386103515625,10.978913520965577,30.73126103515625,10.858463520965577,30.56196103515625C10.858463520965577,30.56196103515625,2.612391520965576,18.97126103515625,2.612391520965576,18.97126103515625C2.224872520965576,18.42656103515625,2.470613920965576,17.66226103515625,3.102980520965576,17.44556103515625C3.102980520965576,17.44556103515625,15.986453520965576,13.02966103515625,15.986453520965576,13.02966103515625C16.171753520965574,12.96616103515625,16.33435352096558,12.84966103515625,16.453953520965577,12.69456103515625C16.453953520965577,12.69456103515625,25.177453520965575,1.38916303515625,25.177453520965575,1.38916303515625C25.177453520965575,1.38916303515625,25.177453520965575,1.38916303515625,25.177453520965575,1.38916303515625Z" fill="#FFFFFF" fill-opacity="1"/></g></mask></defs><g><g><path d="M25.177453520965575,1.38916303515625C25.569253520965574,0.88143603515625,26.330953520965576,0.86851003515625,26.739653520965575,1.36265203515625C26.739653520965575,1.36265203515625,36.136253520965575,12.72156103515625,36.136253520965575,12.72156103515625C36.250353520965575,12.85946103515625,36.39945352096558,12.96426103515625,36.567953520965574,13.02496103515625C36.567953520965574,13.02496103515625,48.807953520965576,17.43326103515625,48.807953520965576,17.43326103515625C49.43085352096558,17.65756103515625,49.667753520965576,18.41436103515625,49.283953520965575,18.95376103515625C49.283953520965575,18.95376103515625,41.02555352096557,30.56196103515625,41.02555352096557,30.56196103515625C40.90505352096557,30.73126103515625,40.84035352096558,30.93386103515625,40.84035352096558,31.14166103515625C40.84035352096558,31.14166103515625,40.84035352096558,44.77996103515625,40.84035352096558,44.77996103515625C40.84035352096558,45.46196103515625,40.172653520965575,45.94386103515625,39.525353520965574,45.72906103515625C39.525353520965574,45.72906103515625,26.256953520965578,41.32516103515625,26.256953520965578,41.32516103515625C26.052453520965575,41.25726103515625,25.831453520965574,41.25726103515625,25.626953520965575,41.32516103515625C25.626953520965575,41.32516103515625,12.358643520965575,45.72906103515625,12.358643520965575,45.72906103515625C11.711343520965576,45.94386103515625,11.043633520965576,45.46196103515625,11.043633520965576,44.77996103515625C11.043633520965576,44.77996103515625,11.043633520965576,31.14166103515625,11.043633520965576,31.14166103515625C11.043633520965576,30.93386103515625,10.978913520965577,30.73126103515625,10.858463520965577,30.56196103515625C10.858463520965577,30.56196103515625,2.612391520965576,18.97126103515625,2.612391520965576,18.97126103515625C2.224872520965576,18.42656103515625,2.470613920965576,17.66226103515625,3.102980520965576,17.44556103515625C3.102980520965576,17.44556103515625,15.986453520965576,13.02966103515625,15.986453520965576,13.02966103515625C16.171753520965574,12.96616103515625,16.33435352096558,12.84966103515625,16.453953520965577,12.69456103515625C16.453953520965577,12.69456103515625,25.177453520965575,1.38916303515625,25.177453520965575,1.38916303515625C25.177453520965575,1.38916303515625,25.177453520965575,1.38916303515625,25.177453520965575,1.38916303515625Z" fill="#FFEF32" fill-opacity="1"/><path d="M1.5232325209655762,17.77926103515625Q1.2162835209655762,18.73386103515625,1.7975625209655761,19.55096103515625L10.043633520965576,31.14166103515625L10.043633520965576,44.77996103515625Q10.043633520965576,45.80296103515625,10.873163520965576,46.40166103515625Q11.702673520965575,47.00036103515625,12.673653520965576,46.67816103515625L25.941953520965576,42.27426103515625L39.210353520965576,46.67816103515625Q40.18135352096558,47.00036103515625,41.010853520965576,46.40166103515625Q41.84035352096558,45.80296103515625,41.84035352096558,44.77996103515625L41.84035352096558,31.14166103515625L50.09875352096557,19.53346103515625Q50.67445352096558,18.72436103515625,50.37775352096558,17.77656103515625Q50.081053520965575,16.82886103515625,49.146753520965575,16.49246103515625L36.906853520965576,12.08416103515625L36.90675352096557,12.08416103515625L27.510253520965577,0.72531203515625Q26.897153520965578,-0.01596896484374999,25.935253520965578,0.0003500351562499837Q24.973453520965577,0.016672035156250042,24.385753520965576,0.77823703515625L24.385753520965576,0.7782630351562501L15.662153520965576,12.08366103515625L2.778807520965576,16.499561035156248Q1.8301985209655762,16.82466103515625,1.5232325209655762,17.77926103515625ZM26.739653520965575,1.36265203515625C26.330953520965576,0.86851003515625,25.569253520965574,0.88143603515625,25.177453520965575,1.38916303515625L16.453953520965577,12.69456103515625C16.33435352096558,12.84966103515625,16.171753520965574,12.96616103515625,15.986453520965576,13.02966103515625L3.102980520965576,17.44556103515625C2.470613920965576,17.66226103515625,2.224872520965576,18.42656103515625,2.612391520965576,18.97126103515625L10.858463520965577,30.56196103515625C10.978913520965577,30.73126103515625,11.043633520965576,30.93386103515625,11.043633520965576,31.14166103515625L11.043633520965576,44.77996103515625C11.043633520965576,45.46196103515625,11.711343520965576,45.94386103515625,12.358643520965575,45.72906103515625L25.626953520965575,41.32516103515625C25.831453520965574,41.25726103515625,26.052453520965575,41.25726103515625,26.256953520965578,41.32516103515625L39.525353520965574,45.72906103515625C40.172653520965575,45.94386103515625,40.84035352096558,45.46196103515625,40.84035352096558,44.77996103515625L40.84035352096558,31.14166103515625C40.84035352096558,30.93386103515625,40.90505352096557,30.73126103515625,41.02555352096557,30.56196103515625L49.283953520965575,18.95376103515625C49.667753520965576,18.41436103515625,49.43085352096558,17.65756103515625,48.807953520965576,17.43326103515625L36.567953520965574,13.02496103515625C36.39945352096558,12.96426103515625,36.250353520965575,12.85946103515625,36.136253520965575,12.72156103515625L26.739653520965575,1.36265203515625Z" fill-rule="evenodd" fill="#000000" fill-opacity="1"/></g><g mask="url(#master_svg0_0_1218)"><g><path d="M25.469468349456786,24.80369532775879C25.469468349456786,24.80369532775879,-0.7870316505432129,17.51340532775879,-0.7870316505432129,17.51340532775879C-0.7870316505432129,17.51340532775879,13.519868349456788,9.071695327758789,13.519868349456788,9.071695327758789C13.519868349456788,9.071695327758789,25.469468349456786,24.80369532775879,25.469468349456786,24.80369532775879C25.469468349456786,24.80369532775879,25.469468349456786,24.80369532775879,25.469468349456786,24.80369532775879Z" fill="#FFCE32" fill-opacity="1"/></g><g transform="matrix(-0.7985182404518127,0.6019706130027771,-0.6019706130027771,-0.7985182404518127,114.4365501394004,5.018218401445637)"><path d="M82.6349670829773,37.392274505615234C82.6349670829773,37.392274505615234,56.378467082977295,30.101984505615235,56.378467082977295,30.101984505615235C56.378467082977295,30.101984505615235,70.6853670829773,21.660274505615234,70.6853670829773,21.660274505615234C70.6853670829773,21.660274505615234,82.6349670829773,37.392274505615234,82.6349670829773,37.392274505615234C82.6349670829773,37.392274505615234,82.6349670829773,37.392274505615234,82.6349670829773,37.392274505615234Z" fill="#FFCE32" fill-opacity="1"/></g><g transform="matrix(0.3441299796104431,-0.9389220476150513,0.9389220476150513,0.3441299796104431,-40.03798229708781,30.950929181369368)"><path d="M28.391677195072173,59.86599505615234C28.391677195072173,59.86599505615234,2.135177195072174,52.575705056152344,2.135177195072174,52.575705056152344C2.135177195072174,52.575705056152344,16.442077195072173,44.133995056152344,16.442077195072173,44.133995056152344C16.442077195072173,44.133995056152344,28.391677195072173,59.86599505615234,28.391677195072173,59.86599505615234C28.391677195072173,59.86599505615234,28.391677195072173,59.86599505615234,28.391677195072173,59.86599505615234Z" fill="#FFCE32" fill-opacity="1"/></g><g transform="matrix(-0.7977554798126221,-0.6029810905456543,0.6029810905456543,-0.7977554798126221,34.72078932331749,119.50642297655509)"><path d="M63.65858387374878,69.66240084838867C63.65858387374878,69.66240084838867,37.40208387374878,62.37211084838867,37.40208387374878,62.37211084838867C37.40208387374878,62.37211084838867,51.70898387374878,53.93040084838867,51.70898387374878,53.93040084838867C51.70898387374878,53.93040084838867,63.65858387374878,69.66240084838867,63.65858387374878,69.66240084838867C63.65858387374878,69.66240084838867,63.65858387374878,69.66240084838867,63.65858387374878,69.66240084838867Z" fill="#FFCE32" fill-opacity="1"/></g><g transform="matrix(0.290409654378891,0.9569023847579956,-0.9569023847579956,0.290409654378891,18.883751910617306,-35.48905546224479)"><path d="M59.62736820602417,10.720105297088622C59.62736820602417,10.720105297088622,33.37086820602417,3.4298152970886235,33.37086820602417,3.4298152970886235C33.37086820602417,3.4298152970886235,47.67776820602417,-5.011894702911377,47.67776820602417,-5.011894702911377C47.67776820602417,-5.011894702911377,59.62736820602417,10.720105297088622,59.62736820602417,10.720105297088622C59.62736820602417,10.720105297088622,59.62736820602417,10.720105297088622,59.62736820602417,10.720105297088622Z" fill="#FFCE32" fill-opacity="1"/></g></g><g><path d="M25.17737598388672,18.308251398803712C25.56915598388672,17.80052439880371,26.33083598388672,17.78759839880371,26.73960598388672,18.281739398803712C26.73960598388672,18.281739398803712,28.92053598388672,20.91806939880371,28.92053598388672,20.91806939880371C29.03463598388672,21.056029398803712,29.18373598388672,21.16082939880371,29.352145983886718,21.22149939880371C29.352145983886718,21.22149939880371,32.03214598388672,22.18669939880371,32.03214598388672,22.18669939880371C32.65504598388672,22.411029398803713,32.89194598388672,23.167789398803713,32.50814598388672,23.70723939880371C32.50814598388672,23.70723939880371,30.657445983886717,26.30859939880371,30.657445983886717,26.30859939880371C30.536945983886717,26.47789939880371,30.47224598388672,26.68051939880371,30.47224598388672,26.88829939880371C30.47224598388672,26.88829939880371,30.47224598388672,29.84894939880371,30.47224598388672,29.84894939880371C30.47224598388672,30.530949398803713,29.80454598388672,31.01284939880371,29.157235983886718,30.798049398803713C29.157235983886718,30.798049398803713,26.25691598388672,29.83544939880371,26.25691598388672,29.83544939880371C26.05239598388672,29.76754939880371,25.831415983886718,29.76754939880371,25.62689598388672,29.83544939880371C25.62689598388672,29.83544939880371,22.72655598388672,30.798049398803713,22.72655598388672,30.798049398803713C22.079265983886717,31.01284939880371,21.411545983886718,30.530949398803713,21.411545983886718,29.84894939880371C21.411545983886718,29.84894939880371,21.411545983886718,26.88829939880371,21.411545983886718,26.88829939880371C21.411545983886718,26.68051939880371,21.346825983886717,26.47789939880371,21.22637598388672,26.30859939880371C21.22637598388672,26.30859939880371,19.38808398388672,23.724679398803712,19.38808398388672,23.724679398803712C19.00056498388672,23.17997939880371,19.24630638388672,22.41575939880371,19.87867298388672,22.19900939880371C19.87867298388672,22.19900939880371,22.716925983886718,21.226179398803712,22.716925983886718,21.226179398803712C22.90220598388672,21.16266939880371,23.06474598388672,21.04615939880371,23.18439598388672,20.89109939880371C23.18439598388672,20.89109939880371,25.17737598388672,18.308251398803712,25.17737598388672,18.308251398803712C25.17737598388672,18.308251398803712,25.17737598388672,18.308251398803712,25.17737598388672,18.308251398803712Z" fill="#FFFF64" fill-opacity="1"/></g><g><path d="M10.150367203918456,4.062045522109985C9.970658203918457,3.8523810221099852,9.655008203918458,3.8280970221099855,9.445343203918457,4.007805522109986C9.235678703918458,4.187514522109986,9.211394703918456,4.503164522109985,9.391103203918457,4.712829522109986C9.391103203918457,4.712829522109986,10.150367203918456,4.062045522109985,10.150367203918456,4.062045522109985C10.150367203918456,4.062045522109985,10.150367203918456,4.062045522109985,10.150367203918456,4.062045522109985ZM12.514676203918457,8.357078522109985C12.694386203918457,8.566738522109986,13.010036203918457,8.591028522109985,13.219696203918456,8.411318522109985C13.429366203918457,8.231608522109985,13.453646203918456,7.915958522109985,13.273936203918456,7.706288522109985C13.273936203918456,7.706288522109985,12.514676203918457,8.357078522109985,12.514676203918457,8.357078522109985C12.514676203918457,8.357078522109985,12.514676203918457,8.357078522109985,12.514676203918457,8.357078522109985ZM9.391103203918457,4.712829522109986C9.391103203918457,4.712829522109986,12.514676203918457,8.357078522109985,12.514676203918457,8.357078522109985C12.514676203918457,8.357078522109985,13.273936203918456,7.706288522109985,13.273936203918456,7.706288522109985C13.273936203918456,7.706288522109985,10.150367203918456,4.062045522109985,10.150367203918456,4.062045522109985C10.150367203918456,4.062045522109985,9.391103203918457,4.712829522109986,9.391103203918457,4.712829522109986C9.391103203918457,4.712829522109986,9.391103203918457,4.712829522109986,9.391103203918457,4.712829522109986Z" fill="#000000" fill-opacity="1"/></g><g transform="matrix(0.8630850911140442,0.5050585269927979,0.5050585865974426,-0.8630850315093994,-17.44115204251102,64.33778212067409)"><path d="M0.879641,34.70754546679687C0.699932,34.49788096679688,0.384282,34.473596966796876,0.174617,34.65330546679687C-0.0350475,34.833014466796875,-0.0593315,35.14866446679687,0.120377,35.358329466796874C0.120377,35.358329466796874,0.879641,34.70754546679687,0.879641,34.70754546679687C0.879641,34.70754546679687,0.879641,34.70754546679687,0.879641,34.70754546679687ZM3.24395,39.00257846679688C3.42366,39.212238466796876,3.73931,39.23652846679688,3.94897,39.05681846679688C4.15864,38.87710846679688,4.18292,38.56145846679688,4.00321,38.351788466796876C4.00321,38.351788466796876,3.24395,39.00257846679688,3.24395,39.00257846679688C3.24395,39.00257846679688,3.24395,39.00257846679688,3.24395,39.00257846679688ZM0.120377,35.358329466796874C0.120377,35.358329466796874,3.24395,39.00257846679688,3.24395,39.00257846679688C3.24395,39.00257846679688,4.00321,38.351788466796876,4.00321,38.351788466796876C4.00321,38.351788466796876,0.879641,34.70754546679687,0.879641,34.70754546679687C0.879641,34.70754546679687,0.120377,35.358329466796874,0.120377,35.358329466796874C0.120377,35.358329466796874,0.120377,35.358329466796874,0.120377,35.358329466796874Z" fill="#000000" fill-opacity="1"/></g><g transform="matrix(-0.753646731376648,-0.6572796702384949,0.6572796702384949,-0.753646731376648,11.542877555103132,107.66761691291867)"><path d="M26.828386727539062,51.845248408691404C26.648677727539063,51.63558390869141,26.33302772753906,51.61129990869141,26.123362727539064,51.791008408691404C25.91369822753906,51.97071740869141,25.889414227539064,52.286367408691405,26.069122727539064,52.496032408691406C26.069122727539064,52.496032408691406,26.828386727539062,51.845248408691404,26.828386727539062,51.845248408691404C26.828386727539062,51.845248408691404,26.828386727539062,51.845248408691404,26.828386727539062,51.845248408691404ZM29.19269572753906,56.14028140869141C29.37240572753906,56.34994140869141,29.688055727539062,56.37423140869141,29.89771572753906,56.19452140869141C30.10738572753906,56.01481140869141,30.131665727539062,55.69916140869141,29.95195572753906,55.48949140869141C29.95195572753906,55.48949140869141,29.19269572753906,56.14028140869141,29.19269572753906,56.14028140869141C29.19269572753906,56.14028140869141,29.19269572753906,56.14028140869141,29.19269572753906,56.14028140869141ZM26.069122727539064,52.496032408691406C26.069122727539064,52.496032408691406,29.19269572753906,56.14028140869141,29.19269572753906,56.14028140869141C29.19269572753906,56.14028140869141,29.95195572753906,55.48949140869141,29.95195572753906,55.48949140869141C29.95195572753906,55.48949140869141,26.828386727539062,51.845248408691404,26.828386727539062,51.845248408691404C26.828386727539062,51.845248408691404,26.069122727539064,52.496032408691406,26.069122727539064,52.496032408691406C26.069122727539064,52.496032408691406,26.069122727539064,52.496032408691406,26.069122727539064,52.496032408691406Z" fill="#000000" fill-opacity="1"/></g><g transform="matrix(-1,0,0,1,86.13423156738281,0)"><path d="M43.946756783691406,4.062045522109985C43.7670477836914,3.8523810221099852,43.451397783691405,3.8280970221099855,43.241732783691404,4.007805522109986C43.03206828369141,4.187514522109986,43.00778428369141,4.503164522109985,43.187492783691404,4.712829522109986C43.187492783691404,4.712829522109986,43.946756783691406,4.062045522109985,43.946756783691406,4.062045522109985C43.946756783691406,4.062045522109985,43.946756783691406,4.062045522109985,43.946756783691406,4.062045522109985ZM46.311065783691404,8.357078522109985C46.490775783691404,8.566738522109986,46.80642578369141,8.591028522109985,47.01608578369141,8.411318522109985C47.225755783691405,8.231608522109985,47.25003578369141,7.915958522109985,47.07032578369141,7.706288522109985C47.07032578369141,7.706288522109985,46.311065783691404,8.357078522109985,46.311065783691404,8.357078522109985C46.311065783691404,8.357078522109985,46.311065783691404,8.357078522109985,46.311065783691404,8.357078522109985ZM43.187492783691404,4.712829522109986C43.187492783691404,4.712829522109986,46.311065783691404,8.357078522109985,46.311065783691404,8.357078522109985C46.311065783691404,8.357078522109985,47.07032578369141,7.706288522109985,47.07032578369141,7.706288522109985C47.07032578369141,7.706288522109985,43.946756783691406,4.062045522109985,43.946756783691406,4.062045522109985C43.946756783691406,4.062045522109985,43.187492783691404,4.712829522109986,43.187492783691404,4.712829522109986C43.187492783691404,4.712829522109986,43.187492783691404,4.712829522109986,43.187492783691404,4.712829522109986Z" fill="#000000" fill-opacity="1"/></g><g transform="matrix(-0.8795141577720642,0.4758727550506592,-0.4758727550506592,-0.8795141577720642,112.63411075617228,40.694215907949456)"><path d="M52.04502719995117,34.78059691943359C51.86531819995117,34.570932419433596,51.54966819995117,34.546648419433595,51.34000319995117,34.72635691943359C51.130338699951174,34.906065919433594,51.10605469995117,35.22171591943359,51.28576319995117,35.43138091943359C51.28576319995117,35.43138091943359,52.04502719995117,34.78059691943359,52.04502719995117,34.78059691943359C52.04502719995117,34.78059691943359,52.04502719995117,34.78059691943359,52.04502719995117,34.78059691943359ZM54.40933619995117,39.075629919433595C54.58904619995117,39.285289919433595,54.904696199951175,39.309579919433595,55.114356199951175,39.129869919433595C55.32402619995117,38.950159919433595,55.348306199951175,38.6345099194336,55.168596199951175,38.424839919433595C55.168596199951175,38.424839919433595,54.40933619995117,39.075629919433595,54.40933619995117,39.075629919433595C54.40933619995117,39.075629919433595,54.40933619995117,39.075629919433595,54.40933619995117,39.075629919433595ZM51.28576319995117,35.43138091943359C51.28576319995117,35.43138091943359,54.40933619995117,39.075629919433595,54.40933619995117,39.075629919433595C54.40933619995117,39.075629919433595,55.168596199951175,38.424839919433595,55.168596199951175,38.424839919433595C55.168596199951175,38.424839919433595,52.04502719995117,34.78059691943359,52.04502719995117,34.78059691943359C52.04502719995117,34.78059691943359,51.28576319995117,35.43138091943359,51.28576319995117,35.43138091943359C51.28576319995117,35.43138091943359,51.28576319995117,35.43138091943359,51.28576319995117,35.43138091943359Z" fill="#000000" fill-opacity="1"/></g></g></svg>