<svg xmlns="http://www.w3.org/2000/svg" xmlns:xlink="http://www.w3.org/1999/xlink" fill="none" version="1.1" width="65.95005798339844" height="53.38139343261719" viewBox="0 0 65.95005798339844 53.38139343261719"><defs><filter id="master_svg0_0_124" filterUnits="objectBoundingBox" color-interpolation-filters="sRGB" x="-2" y="-2" width="8.676909923553467" height="6.338454961776733"><feFlood flood-opacity="0" result="BackgroundImageFix"/><feBlend mode="normal" in="SourceGraphic" in2="BackgroundImageFix" result="shape"/><feGaussianBlur stdDeviation="0.5" result="effect1_foregroundBlur"/></filter><filter id="master_svg1_0_125" filterUnits="objectBoundingBox" color-interpolation-filters="sRGB" x="-2" y="-2" width="8.676909923553467" height="6.338454961776733"><feFlood flood-opacity="0" result="BackgroundImageFix"/><feBlend mode="normal" in="SourceGraphic" in2="BackgroundImageFix" result="shape"/><feGaussianBlur stdDeviation="0.5" result="effect1_foregroundBlur"/></filter></defs><g><g><path d="M6.749315327148437,17.114437498931885C3.6313753271484375,16.490867498931884,-1.8562046728515624,14.121277498931885,1.1370233271484373,9.631447498931884C4.130215327148438,5.141657498931885,11.737935327148438,10.878607498931885,15.167735327148437,14.308357498931885C15.167735327148437,14.308357498931885,9.555315327148438,28.339057498931886,9.555315327148438,28.339057498931886C9.243525327148438,28.650857498931884,7.7548953271484375,29.496857498931885,5.813795327148438,27.403657498931885C3.8726953271484374,25.310457498931886,5.501995327148437,24.285657498931887,6.749175327148437,23.662057498931887C5.501995327148437,23.350357498931885,2.1425953271484373,22.949157498931886,2.0722653271484375,19.920557498931885C2.001925327148437,16.892007498931886,4.878505327148438,17.114437498931885,6.749315327148437,17.114437498931885C6.749315327148437,17.114437498931885,6.749315327148437,17.114437498931885,6.749315327148437,17.114437498931885Z" fill="#F9FFD3" fill-opacity="1"/><path d="M3.4144553271484375,17.215367498931883Q1.7749053271484374,17.884067498931884,1.8223353271484375,19.926357498931885Q1.8667053271484375,21.837257498931884,3.5414753271484374,22.856857498931884Q4.395015327148437,23.376457498931885,6.052375327148438,23.759957498931882Q5.170505327148438,24.296857498931885,4.8657253271484375,24.863257498931883Q4.223655327148437,26.056557498931884,5.630485327148437,27.573657498931883Q6.953495327148437,29.000357498931884,8.291275327148437,29.023157498931884Q9.209065327148437,29.038857498931886,9.732095327148437,28.515857498931886Q9.768375327148437,28.479557498931886,9.787435327148437,28.431857498931883L15.399835327148438,14.401207498931885Q15.413435327148438,14.367137498931886,15.416735327148437,14.330587498931884Q15.420035327148437,14.294037498931885,15.412635327148438,14.258087498931886Q15.405235327148437,14.222147498931886,15.387835327148437,14.189837498931885Q15.370435327148437,14.157527498931884,15.344535327148437,14.131577498931886Q11.741735327148438,10.528877498931884,8.097065327148439,8.774805498931885Q3.0325753271484377,6.337427498931885,0.9290113271484375,9.492767498931885Q-1.1747546728515625,12.648407498931885,1.4855253271484374,15.009757498931885Q2.8545153271484374,16.224927498931883,4.9569653271484375,16.908697498931886Q3.9660553271484376,16.990387498931884,3.4144553271484375,17.215367498931883ZM3.8014653271484375,22.429757498931885Q2.3602253271484375,21.552357498931883,2.3221953271484375,19.914757498931884Q2.2827653271484376,18.216957498931883,3.6032853271484373,17.678337498931885Q4.412025327148437,17.348487498931885,6.386115327148437,17.362677498931884Q6.631595327148437,17.364437498931885,6.749315327148437,17.364437498931885Q6.799045327148438,17.364437498931885,6.8449853271484375,17.345407498931884Q6.890925327148437,17.326377498931883,6.926095327148437,17.291217498931886Q6.961255327148438,17.256047498931885,6.9802853271484375,17.210107498931883Q6.999315327148437,17.164167498931885,6.999315327148437,17.114437498931885Q6.999315327148437,17.071087498931885,6.984725327148437,17.030277498931884Q6.970135327148437,16.989457498931884,6.9426553271484375,16.955937498931885Q6.915175327148438,16.922417498931885,6.878015327148438,16.900107498931884Q6.840845327148437,16.877787498931884,6.7983453271484375,16.869287498931882Q3.6168253271484376,16.232997498931887,1.8174453271484374,14.635817498931885Q-0.5172206728515625,12.563497498931884,1.3450353271484374,9.770117498931885Q3.2074553271484376,6.976487498931885,7.880235327148437,9.225347498931885Q11.389535327148437,10.914257498931885,14.874235327148437,14.368927498931885L9.343275327148438,28.195957498931886Q8.972825327148437,28.534757498931885,8.299825327148438,28.523257498931883Q7.1751753271484375,28.504057498931886,5.997105327148438,27.233657498931883Q4.833345327148438,25.978757498931884,5.306035327148438,25.100257498931885Q5.627765327148437,24.502257498931886,6.860985327148438,23.885657498931884Q6.905455327148437,23.863457498931886,6.938045327148438,23.825857498931885Q6.970625327148437,23.788257498931884,6.986345327148437,23.741157498931884Q7.002075327148438,23.693957498931887,6.998545327148437,23.644357498931885Q6.995025327148437,23.594757498931884,6.972785327148437,23.550257498931884Q6.948305327148438,23.501257498931885,6.905605327148438,23.467057498931887Q6.862905327148438,23.432757498931885,6.8097953271484375,23.419557498931887Q6.680885327148437,23.387257498931884,6.367935327148437,23.318557498931884Q4.636595327148438,22.938157498931886,3.8014653271484375,22.429757498931885Z" fill-rule="evenodd" fill="#000000" fill-opacity="1"/></g><g transform="matrix(-1,0,0,1,131.35646057128906,0)"><path d="M72.15571028564453,17.114437498931885C69.03777028564453,16.490867498931884,63.55019028564453,14.121277498931885,66.54341828564453,9.631447498931884C69.53661028564453,5.141657498931885,77.14433028564453,10.878607498931885,80.57413028564453,14.308357498931885C80.57413028564453,14.308357498931885,74.96171028564453,28.339057498931886,74.96171028564453,28.339057498931886C74.64992028564453,28.650857498931884,73.16129028564453,29.496857498931885,71.22019028564453,27.403657498931885C69.27909028564453,25.310457498931886,70.90839028564453,24.285657498931887,72.15557028564453,23.662057498931887C70.90839028564453,23.350357498931885,67.54899028564454,22.949157498931886,67.47866028564454,19.920557498931885C67.40832028564454,16.892007498931886,70.28490028564453,17.114437498931885,72.15571028564453,17.114437498931885C72.15571028564453,17.114437498931885,72.15571028564453,17.114437498931885,72.15571028564453,17.114437498931885Z" fill="#F9FFD3" fill-opacity="1"/><path d="M68.82085028564453,17.215367498931883Q67.18130028564453,17.884067498931884,67.22873028564453,19.926357498931885Q67.27310028564453,21.837257498931884,68.94787028564453,22.856857498931884Q69.80141028564454,23.376457498931885,71.45877028564453,23.759957498931882Q70.57690028564453,24.296857498931885,70.27212028564453,24.863257498931883Q69.63005028564453,26.056557498931884,71.03688028564453,27.573657498931883Q72.35989028564452,29.000357498931884,73.69767028564453,29.023157498931884Q74.61546028564453,29.038857498931886,75.13849028564454,28.515857498931886Q75.17477028564453,28.479557498931886,75.19383028564454,28.431857498931883L80.80623028564453,14.401207498931885Q80.81983028564453,14.367137498931886,80.82313028564454,14.330587498931884Q80.82643028564453,14.294037498931885,80.81903028564453,14.258087498931886Q80.81163028564453,14.222147498931886,80.79423028564453,14.189837498931885Q80.77683028564454,14.157527498931884,80.75093028564453,14.131577498931886Q77.14813028564453,10.528877498931884,73.50346028564454,8.774805498931885Q68.43897028564453,6.337427498931885,66.33540628564454,9.492767498931885Q64.23164028564453,12.648407498931885,66.89192028564453,15.009757498931885Q68.26091028564453,16.224927498931883,70.36336028564453,16.908697498931886Q69.37245028564453,16.990387498931884,68.82085028564453,17.215367498931883ZM69.20786028564453,22.429757498931885Q67.76662028564454,21.552357498931883,67.72859028564453,19.914757498931884Q67.68916028564453,18.216957498931883,69.00968028564454,17.678337498931885Q69.81842028564454,17.348487498931885,71.79251028564452,17.362677498931884Q72.03799028564453,17.364437498931885,72.15571028564453,17.364437498931885Q72.20544028564453,17.364437498931885,72.25138028564453,17.345407498931884Q72.29732028564453,17.326377498931883,72.33249028564452,17.291217498931886Q72.36765028564453,17.256047498931885,72.38668028564453,17.210107498931883Q72.40571028564453,17.164167498931885,72.40571028564453,17.114437498931885Q72.40571028564453,17.071087498931885,72.39112028564453,17.030277498931884Q72.37653028564453,16.989457498931884,72.34905028564454,16.955937498931885Q72.32157028564453,16.922417498931885,72.28441028564453,16.900107498931884Q72.24724028564454,16.877787498931884,72.20474028564453,16.869287498931882Q69.02322028564453,16.232997498931887,67.22384028564453,14.635817498931885Q64.88917428564453,12.563497498931884,66.75143028564453,9.770117498931885Q68.61385028564453,6.976487498931885,73.28663028564453,9.225347498931885Q76.79593028564453,10.914257498931885,80.28063028564453,14.368927498931885L74.74967028564453,28.195957498931886Q74.37922028564454,28.534757498931885,73.70622028564453,28.523257498931883Q72.58157028564453,28.504057498931886,71.40350028564453,27.233657498931883Q70.23974028564453,25.978757498931884,70.71243028564453,25.100257498931885Q71.03416028564453,24.502257498931886,72.26738028564453,23.885657498931884Q72.31185028564452,23.863457498931886,72.34444028564454,23.825857498931885Q72.37702028564453,23.788257498931884,72.39274028564454,23.741157498931884Q72.40847028564453,23.693957498931887,72.40494028564453,23.644357498931885Q72.40142028564453,23.594757498931884,72.37918028564454,23.550257498931884Q72.35470028564453,23.501257498931885,72.31200028564453,23.467057498931887Q72.26930028564453,23.432757498931885,72.21619028564453,23.419557498931887Q72.08728028564452,23.387257498931884,71.77433028564454,23.318557498931884Q70.04299028564454,22.938157498931886,69.20786028564453,22.429757498931885Z" fill-rule="evenodd" fill="#000000" fill-opacity="1"/></g><g><g><path d="M33.0102628036499,52.881387521362306Q33.58426280364991,52.881387521362306,34.1576628036499,52.85318752136231Q34.7309628036499,52.825087521362306,35.3022628036499,52.768787521362306Q35.873562803649904,52.712487521362306,36.4414628036499,52.6282875213623Q37.009262803649904,52.54408752136231,37.572262803649906,52.432087521362305Q38.1353628036499,52.320087521362304,38.69216280364991,52.180587521362305Q39.249062803649906,52.04108752136231,39.7983628036499,51.874487521362305Q40.3477628036499,51.707787521362306,40.8882628036499,51.5143875213623Q41.4287628036499,51.320987521362305,41.9590628036499,51.101387521362305Q42.4894628036499,50.8816875213623,43.0083628036499,50.6361875213623Q43.5273628036499,50.390787521362306,44.033662803649904,50.120187521362304Q44.5398628036499,49.8495875213623,45.0322628036499,49.55438752136231Q45.5246628036499,49.2592875213623,46.0019628036499,48.940387521362304Q46.4792628036499,48.621487521362305,46.940362803649904,48.279487521362306Q47.4014628036499,47.93748752136231,47.8452628036499,47.57338752136231Q48.2889628036499,47.2091875213623,48.714362803649905,46.8236875213623Q49.139662803649905,46.438087521362306,49.5455628036499,46.0321875213623Q49.9514628036499,45.62628752136231,50.3370628036499,45.20098752136231Q50.7225628036499,44.775587521362304,51.086762803649904,44.331887521362304Q51.450862803649905,43.8880875213623,51.7928628036499,43.42698752136231Q52.1348628036499,42.965887521362305,52.4537628036499,42.488587521362305Q52.7726628036499,42.011287521362306,53.0678628036499,41.5188875213623Q53.3629628036499,41.026487521362306,53.6335628036499,40.520287521362306Q53.9041628036499,40.0139875213623,54.1495628036499,39.494987521362305Q54.3950628036499,38.9760875213623,54.6147628036499,38.4456875213623Q54.8343628036499,37.915387521362305,55.0277628036499,37.374887521362304Q55.221162803649904,36.8343875213623,55.3878628036499,36.284987521362304Q55.554462803649905,35.73568752136231,55.6939628036499,35.17878752136231Q55.8334628036499,34.6219875213623,55.9454628036499,34.05888752136231Q56.057462803649905,33.495887521362306,56.1416628036499,32.9280875213623Q56.2258628036499,32.360187521362306,56.2821628036499,31.788887521362305Q56.338462803649904,31.217587521362304,56.366562803649906,30.644287521362305Q56.394762803649904,30.070887521362305,56.394762803649904,29.496887521362304Q56.394762803649904,28.922787521362306,56.366562803649906,28.349387521362306Q56.338462803649904,27.776087521362303,56.2821628036499,27.204787521362306Q56.2258628036499,26.633487521362305,56.1416628036499,26.065587521362303Q56.057462803649905,25.497787521362305,55.9454628036499,24.934787521362306Q55.8334628036499,24.371687521362304,55.6939628036499,23.814887521362305Q55.554462803649905,23.257987521362306,55.3878628036499,22.708687521362304Q55.221162803649904,22.159287521362305,55.0277628036499,21.618787521362307Q54.8343628036499,21.078287521362306,54.6147628036499,20.547987521362305Q54.3950628036499,20.017587521362305,54.1495628036499,19.498687521362307Q53.9041628036499,18.979687521362305,53.6335628036499,18.473487521362305Q53.3629628036499,17.967187521362305,53.067762803649906,17.474787521362305Q52.7726628036499,16.982387521362305,52.4537628036499,16.505087521362306Q52.1348628036499,16.027767521362307,51.7928628036499,15.566677521362305Q51.450862803649905,15.105587521362304,51.086762803649904,14.661837521362305Q50.7225628036499,14.218087521362305,50.3370628036499,13.792737521362305Q49.9514628036499,13.367387521362303,49.5455628036499,12.961467521362305Q49.139662803649905,12.555547521362305,48.714362803649905,12.170027521362304Q48.2889628036499,11.784517521362304,47.8452628036499,11.420337521362304Q47.4014628036499,11.056157521362305,46.940362803649904,10.714187521362305Q46.4792628036499,10.372227521362305,46.0019628036499,10.053297521362305Q45.5246628036499,9.734367521362305,45.0322628036499,9.439237521362305Q44.5398628036499,9.144117521362304,44.033662803649904,8.873507521362304Q43.5273628036499,8.602897521362305,43.0083628036499,8.357457521362305Q42.4894628036499,8.112017521362304,41.9590628036499,7.892327521362304Q41.4287628036499,7.672647521362305,40.8882628036499,7.479257521362305Q40.3477628036499,7.2858575213623045,39.7983628036499,7.119217521362305Q39.249062803649906,6.952577521362304,38.69216280364991,6.813093521362305Q38.1353628036499,6.673608521362304,37.572262803649906,6.561615521362305Q37.009262803649904,6.449621521362305,36.4414628036499,6.365389521362305Q35.873562803649904,6.281158521362305,35.3022628036499,6.224890521362305Q34.7309628036499,6.168622921362305,34.1576628036499,6.140455221362305Q33.58426280364991,6.112287521362305,33.0102628036499,6.112287521362305Q32.43616280364991,6.112287521362305,31.862762803649904,6.140455221362305Q31.2894628036499,6.168622921362305,30.718162803649903,6.224890521362305Q30.146862803649903,6.281158521362305,29.5789628036499,6.365389521362305Q29.011162803649903,6.449621521362305,28.448162803649904,6.561615521362305Q27.8850628036499,6.673608521362304,27.328262803649903,6.813093521362305Q26.771362803649904,6.952577521362304,26.2220628036499,7.119217521362305Q25.672662803649903,7.2858575213623045,25.132162803649905,7.479257521362305Q24.591662803649903,7.672647521362305,24.061362803649903,7.892327521362304Q23.530962803649903,8.112017521362304,23.012062803649904,8.357457521362305Q22.493062803649902,8.602897521362305,21.986862803649903,8.873507521362304Q21.480562803649903,9.144117521362304,20.988162803649903,9.439237521362305Q20.495762803649903,9.734367521362305,20.018462803649903,10.053297521362305Q19.541142803649905,10.372227521362305,19.080052803649902,10.714187521362305Q18.6189628036499,11.056157521362305,18.175212803649902,11.420337521362304Q17.731462803649904,11.784517521362304,17.306112803649903,12.170027521362304Q16.8807628036499,12.555547521362305,16.474842803649903,12.961467521362305Q16.068922803649905,13.367387521362303,15.683402803649901,13.792737521362305Q15.297892803649901,14.218087521362305,14.933712803649902,14.661837521362305Q14.569532803649903,15.105587521362304,14.227562803649903,15.566677521362305Q13.885602803649903,16.027767521362307,13.566672803649903,16.505087521362306Q13.247742803649903,16.982387521362305,12.952612803649902,17.474787521362305Q12.657492803649902,17.967187521362305,12.386882803649902,18.473487521362305Q12.116272803649903,18.979687521362305,11.870832803649902,19.498687521362307Q11.625392803649902,20.017587521362305,11.405702803649902,20.547987521362305Q11.186022803649902,21.078287521362306,10.992632803649903,21.618787521362307Q10.799232803649902,22.159287521362305,10.632592803649903,22.708687521362304Q10.465952803649902,23.257987521362306,10.326468803649902,23.814887521362305Q10.186983803649902,24.371687521362304,10.074990803649902,24.934787521362306Q9.962996803649903,25.497787521362305,9.878764803649903,26.065587521362303Q9.794533803649902,26.633487521362305,9.738265803649902,27.204787521362306Q9.681998203649902,27.776087521362303,9.653830503649901,28.349387521362306Q9.625662803649902,28.922787521362306,9.625662803649902,29.496887521362304Q9.625662803649904,30.437887521362306,9.701274503649902,31.375787521362305Q9.776885803649902,32.3137875213623,9.927620803649903,33.242687521362306Q10.078354803649903,34.17148752136231,10.303237803649903,35.085287521362304Q10.528119803649902,35.99898752136231,10.825692803649902,36.8916875213623Q11.123272803649902,37.78448752136231,11.491622803649902,38.650387521362305Q11.859962803649903,39.51628752136231,12.296692803649902,40.3497875213623Q12.733432803649903,41.183387521362306,13.235722803649903,41.9790875213623Q13.738022803649901,42.7748875213623,14.302632803649903,43.5276875213623L12.743702803649903,50.542987521362306L19.2216828036499,48.383687521362305Q19.966462803649904,48.927387521362306,20.751762803649903,49.4107875213623Q21.537062803649903,49.894187521362305,22.357962803649905,50.3142875213623Q23.178862803649903,50.73438752136231,24.030262803649904,51.0884875213623Q24.881762803649902,51.442587521362306,25.758462803649902,51.72858752136231Q26.6351628036499,52.014487521362305,27.5315628036499,52.2305875213623Q28.4280628036499,52.446587521362304,29.338762803649903,52.59138752136231Q30.2494628036499,52.736187521362304,31.1687628036499,52.808787521362305Q32.088062803649905,52.881387521362306,33.0102628036499,52.881387521362306Z" fill-rule="evenodd" fill="#FFCF00" fill-opacity="1"/><path d="M33.0102628036499,52.381387521362306Q42.4892628036499,52.381387521362306,49.192062803649904,45.678687521362306Q55.894762803649904,38.975987521362306,55.894762803649904,29.496887521362304Q55.8946628036499,20.017687521362305,49.192062803649904,13.315017521362304Q42.489362803649904,6.612287521362305,33.0102628036499,6.612287521362305Q23.531062803649903,6.612287521362305,16.8283928036499,13.315017521362304Q10.125662803649902,20.017787521362305,10.125662803649902,29.496887521362304Q10.125662803649902,37.1250875213623,14.702632803649902,43.227687521362306L14.840612803649902,43.41158752136231L13.231802803649902,50.651487521362306L12.743702803649903,50.542987521362306L12.585592803649902,50.06868752136231L19.3082128036499,47.8277875213623L19.516502803649903,47.97988752136231Q25.545462803649905,52.381387521362306,33.0102628036499,52.381387521362306ZM33.0102628036499,53.381387521362306Q25.2193628036499,53.381387521362306,18.926862803649904,48.7874875213623L19.2216828036499,48.383687521362305L19.379792803649902,48.85808752136231L12.064042803649903,51.296587521362305L13.814532803649902,43.4191875213623L14.302632803649903,43.5276875213623L13.902632803649903,43.82768752136231Q9.125662803649902,37.458387521362305,9.125662803649902,29.496887521362304Q9.125662803649902,19.603587521362307,16.1212828036499,12.607907521362304Q23.116962803649905,5.612287521362305,33.0102628036499,5.612287521362305Q42.9034628036499,5.612287521362305,49.8991628036499,12.607907521362304Q56.8946628036499,19.603587521362307,56.894762803649904,29.496887521362304Q56.894762803649904,39.390087521362304,49.8991628036499,46.3857875213623Q42.903562803649905,53.381387521362306,33.0102628036499,53.381387521362306Z" fill="#000000" fill-opacity="1"/></g><g><path d="M29.072943561706545,34.05062132946777C29.004853561706543,33.642043329467775,28.618423561706543,33.36602812946777,28.209851561706543,33.43412512946777C27.801273561706545,33.50222112946777,27.525258361706545,33.88864232946777,27.593355361706543,34.29721932946777C27.593355361706543,34.29721932946777,29.072943561706545,34.05062132946777,29.072943561706545,34.05062132946777C29.072943561706545,34.05062132946777,29.072943561706545,34.05062132946777,29.072943561706545,34.05062132946777ZM38.42673356170654,34.29721932946777C38.49483356170654,33.88864232946777,38.218833561706546,33.50222112946777,37.81023356170654,33.43412512946777C37.401693561706544,33.36602812946777,37.01527356170654,33.642043329467775,36.94717356170654,34.05062132946777C36.94717356170654,34.05062132946777,38.42673356170654,34.29721932946777,38.42673356170654,34.29721932946777C38.42673356170654,34.29721932946777,38.42673356170654,34.29721932946777,38.42673356170654,34.29721932946777ZM27.593355361706543,34.29721932946777C27.739015561706545,35.17118332946777,28.167963561706543,36.462043329467775,29.004603561706542,37.55331332946777C29.855673561706542,38.66339332946777,31.16191356170654,39.600833329467775,33.010063561706545,39.600833329467775C33.010063561706545,39.600833329467775,33.010063561706545,38.100833329467775,33.010063561706545,38.100833329467775C31.740273561706545,38.100833329467775,30.837973561706544,37.479303329467776,30.19502356170654,36.640673329467774C29.53765356170654,35.78323332946778,29.187113561706543,34.735633329467774,29.072943561706545,34.05062132946777C29.072943561706545,34.05062132946777,27.593355361706543,34.29721932946777,27.593355361706543,34.29721932946777C27.593355361706543,34.29721932946777,27.593355361706543,34.29721932946777,27.593355361706543,34.29721932946777ZM33.010063561706545,39.600833329467775C34.85821356170654,39.600833329467775,36.164453561706544,38.66339332946777,37.01551356170654,37.55331332946777C37.852133561706545,36.462043329467775,38.28113356170654,35.17118332946777,38.42673356170654,34.29721932946777C38.42673356170654,34.29721932946777,36.94717356170654,34.05062132946777,36.94717356170654,34.05062132946777C36.833013561706544,34.735633329467774,36.48247356170654,35.78323332946778,35.82510356170654,36.640673329467774C35.18215356170654,37.479303329467776,34.279853561706545,38.100833329467775,33.010063561706545,38.100833329467775C33.010063561706545,38.100833329467775,33.010063561706545,39.600833329467775,33.010063561706545,39.600833329467775C33.010063561706545,39.600833329467775,33.010063561706545,39.600833329467775,33.010063561706545,39.600833329467775Z" fill="#000000" fill-opacity="1"/></g><g><ellipse cx="23.656391859054565" cy="26.379107236862183" rx="3.1179397106170654" ry="3.1179397106170654" fill="#000000" fill-opacity="1"/></g><g><ellipse cx="42.36385130882263" cy="26.379107236862183" rx="3.1179397106170654" ry="3.1179397106170654" fill="#000000" fill-opacity="1"/></g><g filter="url(#master_svg0_0_124)"><ellipse cx="47.820494413375854" cy="32.22509181499481" rx="2.3384549617767334" ry="1.1692274808883667" fill="#FF8B72" fill-opacity="1"/></g><g filter="url(#master_svg1_0_125)"><ellipse cx="18.19982075691223" cy="32.22509181499481" rx="2.3384549617767334" ry="1.1692274808883667" fill="#FF8B72" fill-opacity="1"/></g></g><g><path d="M33.0102628036499,15.4661Q33.58426280364991,15.4661,34.1576628036499,15.4571Q34.7309628036499,15.4481,35.3022628036499,15.4301Q35.873562803649904,15.4121,36.4414628036499,15.3851Q37.009262803649904,15.3582,37.572262803649906,15.3223Q38.1353628036499,15.2865,38.69216280364991,15.2419Q39.249062803649906,15.1972,39.7983628036499,15.1439Q40.3477628036499,15.0906,40.8882628036499,15.0287Q41.4287628036499,14.9668,41.9590628036499,14.8965Q42.4894628036499,14.8262,43.0083628036499,14.7477Q43.5273628036499,14.6691,44.033662803649904,14.5825Q44.5398628036499,14.4959,45.0322628036499,14.4015Q45.5246628036499,14.307,46.0019628036499,14.205Q46.4792628036499,14.1029,46.940362803649904,13.9935Q47.4014628036499,13.8841,47.8452628036499,13.7675Q48.2889628036499,13.651,48.714362803649905,13.5276Q49.139662803649905,13.4043,49.5455628036499,13.2744Q49.9514628036499,13.1445,50.3370628036499,13.0084Q50.7225628036499,12.8723,51.086762803649904,12.7303Q51.450862803649905,12.5883,51.7928628036499,12.4407Q52.1348628036499,12.2932,52.4537628036499,12.1404Q52.7726628036499,11.9877,53.0678628036499,11.8301Q53.3629628036499,11.6725,53.6335628036499,11.5105Q53.9041628036499,11.3485,54.1495628036499,11.1825Q54.3950628036499,11.0164,54.6147628036499,10.8467Q54.8343628036499,10.677,55.0277628036499,10.504Q55.221162803649904,10.33106,55.3878628036499,10.15527Q55.554462803649905,9.97948,55.6939628036499,9.80129Q55.8334628036499,9.6231,55.9454628036499,9.44293Q56.057462803649905,9.26276,56.1416628036499,9.08105Q56.2258628036499,8.89934,56.2821628036499,8.71652Q56.338462803649904,8.53371,56.366562803649906,8.35023Q56.394762803649904,8.16675,56.394762803649904,7.98306Q56.394762803649904,7.79936,56.366562803649906,7.61588Q56.338462803649904,7.4324,56.2821628036499,7.24959Q56.2258628036499,7.06677,56.1416628036499,6.88506Q56.057462803649905,6.70335,55.9454628036499,6.52318Q55.8334628036499,6.34301,55.6939628036499,6.16482Q55.554462803649905,5.98663,55.3878628036499,5.81084Q55.221162803649904,5.63505,55.0277628036499,5.46209Q54.8343628036499,5.28913,54.6147628036499,5.11941Q54.3950628036499,4.9497,54.1495628036499,4.78364Q53.9041628036499,4.61758,53.6335628036499,4.45557Q53.3629628036499,4.293559999999999,53.067762803649906,4.136Q52.7726628036499,3.97843,52.4537628036499,3.82569Q52.1348628036499,3.67295,51.7928628036499,3.5254Q51.450862803649905,3.37786,51.086762803649904,3.23586Q50.7225628036499,3.09385,50.3370628036499,2.95774Q49.9514628036499,2.82163,49.5455628036499,2.69174Q49.139662803649905,2.56184,48.714362803649905,2.43848Q48.2889628036499,2.31511,47.8452628036499,2.1985799999999998Q47.4014628036499,2.08204,46.940362803649904,1.97261Q46.4792628036499,1.86318,46.0019628036499,1.76112Q45.5246628036499,1.65906,45.0322628036499,1.56462Q44.5398628036499,1.4701849999999999,44.033662803649904,1.3835899999999999Q43.5273628036499,1.296995,43.0083628036499,1.218453Q42.4894628036499,1.139912,41.9590628036499,1.069614Q41.4287628036499,0.999315,40.8882628036499,0.9374290000000001Q40.3477628036499,0.875543,39.7983628036499,0.822218Q39.249062803649906,0.768893,38.69216280364991,0.7242580000000001Q38.1353628036499,0.679623,37.572262803649906,0.643785Q37.009262803649904,0.607947,36.4414628036499,0.5809928Q35.873562803649904,0.5540386,35.3022628036499,0.536033Q34.7309628036499,0.5180273,34.1576628036499,0.50901367Q33.58426280364991,0.5,33.0102628036499,0.5Q32.43616280364991,0.5,31.862762803649904,0.50901367Q31.2894628036499,0.5180273,30.718162803649903,0.536033Q30.146862803649903,0.5540386,29.5789628036499,0.5809928Q29.011162803649903,0.607947,28.448162803649904,0.643785Q27.8850628036499,0.679623,27.328262803649903,0.7242580000000001Q26.771362803649904,0.768893,26.2220628036499,0.822218Q25.672662803649903,0.875543,25.132162803649905,0.9374290000000001Q24.591662803649903,0.999315,24.061362803649903,1.069614Q23.530962803649903,1.139912,23.012062803649904,1.218453Q22.493062803649902,1.296995,21.986862803649903,1.3835899999999999Q21.480562803649903,1.4701849999999999,20.988162803649903,1.56462Q20.495762803649903,1.65906,20.018462803649903,1.76112Q19.541142803649905,1.86318,19.080052803649902,1.97261Q18.6189628036499,2.08204,18.175212803649902,2.1985799999999998Q17.731462803649904,2.31511,17.306112803649903,2.43848Q16.8807628036499,2.56184,16.474842803649903,2.69174Q16.068922803649905,2.82163,15.683402803649901,2.95774Q15.297892803649901,3.09385,14.933712803649902,3.23586Q14.569532803649903,3.37786,14.227562803649903,3.5254Q13.885602803649903,3.67295,13.566672803649903,3.82569Q13.247742803649903,3.97843,12.952612803649902,4.136Q12.657492803649902,4.293559999999999,12.386882803649902,4.45557Q12.116272803649903,4.61757,11.870832803649902,4.78364Q11.625392803649902,4.9497,11.405702803649902,5.11941Q11.186022803649902,5.28913,10.992632803649903,5.46209Q10.799232803649902,5.63505,10.632592803649903,5.81084Q10.465952803649902,5.98663,10.326468803649902,6.16482Q10.186983803649902,6.34301,10.074990803649902,6.52318Q9.962996803649903,6.70335,9.878764803649903,6.88506Q9.794533803649902,7.06677,9.738265803649902,7.24959Q9.681998203649902,7.4324,9.653830503649901,7.61588Q9.625662803649902,7.79936,9.625662803649902,7.98306Q9.625662803649902,8.16675,9.653830503649901,8.35023Q9.681998203649902,8.53371,9.738265803649902,8.71652Q9.794533803649902,8.89934,9.878764803649903,9.08105Q9.962996803649903,9.26276,10.074990803649902,9.44293Q10.186983803649902,9.6231,10.326468803649902,9.80129Q10.465952803649902,9.97948,10.632592803649903,10.15527Q10.799232803649902,10.33106,10.992632803649903,10.504Q11.186022803649902,10.677,11.405702803649902,10.8467Q11.625392803649902,11.0164,11.870832803649902,11.1825Q12.116272803649903,11.3485,12.386882803649902,11.5105Q12.657492803649902,11.6726,12.952612803649902,11.8301Q13.247742803649903,11.9877,13.566672803649903,12.1404Q13.885602803649903,12.2932,14.227562803649903,12.4407Q14.569532803649903,12.5883,14.933712803649902,12.7303Q15.297892803649901,12.8723,15.683402803649901,13.0084Q16.068922803649905,13.1445,16.474842803649903,13.2744Q16.8807628036499,13.4043,17.306112803649903,13.5276Q17.731462803649904,13.651,18.175212803649902,13.7675Q18.6189628036499,13.8841,19.080052803649902,13.9935Q19.541142803649905,14.1029,20.018462803649903,14.205Q20.495762803649903,14.307,20.988162803649903,14.4015Q21.480562803649903,14.4959,21.986862803649903,14.5825Q22.493062803649902,14.6691,23.012062803649904,14.7477Q23.530962803649903,14.8262,24.061362803649903,14.8965Q24.591662803649903,14.9668,25.132162803649905,15.0287Q25.672662803649903,15.0906,26.2220628036499,15.1439Q26.771362803649904,15.1972,27.328262803649903,15.2419Q27.8850628036499,15.2865,28.448162803649904,15.3223Q29.011162803649903,15.3582,29.5789628036499,15.3851Q30.146862803649903,15.4121,30.718162803649903,15.4301Q31.2894628036499,15.4481,31.862762803649904,15.4571Q32.43616280364991,15.4661,33.0102628036499,15.4661ZM33.010162803649905,11.7246Q33.4464628036499,11.7246,33.8822628036499,11.7189Q34.3180628036499,11.7133,34.7521628036499,11.7021Q35.1863628036499,11.6908,35.6179628036499,11.674Q36.0494628036499,11.6571,36.4773628036499,11.6347Q36.905262803649904,11.6123,37.3285628036499,11.5844Q37.7517628036499,11.5565,38.1692628036499,11.5232Q38.586762803649904,11.4899,38.9974628036499,11.4512Q39.408262803649905,11.4125,39.8113628036499,11.3686Q40.2144628036499,11.3246,40.6088628036499,11.2755Q41.0032628036499,11.2265,41.3879628036499,11.1723Q41.772762803649904,11.1182,42.1469628036499,11.0592Q42.5211628036499,11.0002,42.8839628036499,10.9364Q43.246662803649905,10.8726,43.5971628036499,10.8042Q43.9475628036499,10.7358,44.2848628036499,10.663Q44.622062803649904,10.5901,44.9453628036499,10.513Q45.2685628036499,10.43593,45.5770628036499,10.35474Q45.885562803649904,10.27356,46.1785628036499,10.18849Q46.4715628036499,10.10342,46.748362803649904,10.01467Q47.025162803649906,9.92592,47.2850628036499,9.8337Q47.5449628036499,9.74148,47.7872628036499,9.64602Q48.029662803649906,9.55056,48.253962803649905,9.45208Q48.478262803649905,9.3536,48.683962803649905,9.25235Q48.8895628036499,9.15109,49.0761628036499,9.0473Q49.2626628036499,8.94352,49.429662803649904,8.83744Q49.5965628036499,8.73137,49.7435628036499,8.62327Q49.8905628036499,8.51517,50.0171628036499,8.4053Q50.1438628036499,8.29543,50.249862803649904,8.184059999999999Q50.355862803649906,8.07269,50.4409628036499,7.96009Q50.5260628036499,7.84748,50.5900628036499,7.73391Q50.6541628036499,7.62034,50.6968628036499,7.50609Q50.7396628036499,7.39183,50.7610628036499,7.27715Q50.7824628036499,7.16248,50.7824628036499,7.04767Q50.7824628036499,6.93286,50.7610628036499,6.81818Q50.7396628036499,6.70351,50.6968628036499,6.58925Q50.6541628036499,6.47499,50.5901628036499,6.36142Q50.5260628036499,6.24785,50.4409628036499,6.13525Q50.355862803649906,6.02264,50.249862803649904,5.91127Q50.1438628036499,5.7999,50.0171628036499,5.69003Q49.8905628036499,5.58016,49.7435628036499,5.47206Q49.5965628036499,5.36396,49.429662803649904,5.25789Q49.2626628036499,5.15182,49.0761628036499,5.04803Q48.8895628036499,4.94424,48.683962803649905,4.84299Q48.478262803649905,4.74173,48.253962803649905,4.64326Q48.029662803649906,4.54478,47.7872628036499,4.44932Q47.5448628036499,4.3538499999999996,47.2850628036499,4.26164Q47.025162803649906,4.169420000000001,46.748362803649904,4.08067Q46.4715628036499,3.99192,46.1785628036499,3.90685Q45.885562803649904,3.82178,45.5770628036499,3.74059Q45.2685628036499,3.65941,44.9453628036499,3.58231Q44.622062803649904,3.5052,44.284762803649905,3.43237Q43.9475628036499,3.35953,43.5971628036499,3.29114Q43.246662803649905,3.22275,42.8839628036499,3.15896Q42.5211628036499,3.09517,42.1469628036499,3.03615Q41.772762803649904,2.97712,41.3879628036499,2.923Q41.0032628036499,2.86888,40.6088628036499,2.81979Q40.2144628036499,2.7707,39.8113628036499,2.72677Q39.408262803649905,2.68283,38.9974628036499,2.64415Q38.586762803649904,2.60547,38.1692628036499,2.57214Q37.7517628036499,2.53882,37.3285628036499,2.51092Q36.905262803649904,2.48302,36.4773628036499,2.46062Q36.0494628036499,2.43823,35.6179628036499,2.42138Q35.1863628036499,2.4045300000000003,34.7521628036499,2.39328Q34.3180628036499,2.3820300000000003,33.8822628036499,2.37639Q33.4464628036499,2.3707599999999998,33.010162803649905,2.3707599999999998Q32.573962803649906,2.3707599999999998,32.138162803649905,2.37639Q31.7023628036499,2.3820300000000003,31.268262803649904,2.39328Q30.834062803649903,2.4045300000000003,30.402462803649904,2.42138Q29.970962803649904,2.43823,29.543062803649903,2.46062Q29.115062803649902,2.48302,28.6918628036499,2.51092Q28.268662803649903,2.53882,27.851162803649903,2.57214Q27.433662803649902,2.60547,27.022962803649904,2.64415Q26.612162803649902,2.68283,26.209062803649903,2.72677Q25.8059628036499,2.7707,25.4115628036499,2.81979Q25.017162803649903,2.86888,24.6324628036499,2.923Q24.247662803649902,2.97712,23.8734628036499,3.03615Q23.499262803649902,3.09517,23.136462803649902,3.15896Q22.773762803649902,3.22275,22.4232628036499,3.29114Q22.072862803649905,3.35953,21.735562803649902,3.43237Q21.398362803649903,3.5052,21.075062803649903,3.58231Q20.751862803649903,3.65941,20.443362803649904,3.74059Q20.134862803649902,3.82178,19.841862803649903,3.90685Q19.548842803649904,3.99192,19.272072803649902,4.08067Q18.995292803649903,4.169420000000001,18.735402803649905,4.26164Q18.475502803649903,4.3538499999999996,18.233112803649902,4.44932Q17.9907328036499,4.54478,17.766432803649902,4.64326Q17.542142803649902,4.74173,17.336472803649905,4.84299Q17.130812803649903,4.94424,16.944272803649902,5.04803Q16.757742803649904,5.15182,16.5907828036499,5.25789Q16.4238228036499,5.36396,16.276842803649902,5.47206Q16.129862803649903,5.58016,16.0032228036499,5.69003Q15.876572803649903,5.7999,15.770562803649902,5.91127Q15.664552803649903,6.02264,15.579442803649902,6.13525Q15.494322803649903,6.24785,15.430312803649901,6.36142Q15.366292803649902,6.47499,15.323532803649902,6.58925Q15.280762803649903,6.70351,15.259362803649903,6.81818Q15.237952803649902,6.93286,15.237952803649902,7.04767Q15.237952803649902,7.16248,15.259362803649903,7.27715Q15.280762803649903,7.39183,15.323532803649902,7.50609Q15.366292803649902,7.62034,15.430312803649901,7.73391Q15.494322803649903,7.84748,15.579442803649902,7.96009Q15.664552803649903,8.07269,15.770562803649902,8.184059999999999Q15.876572803649903,8.29543,16.0032228036499,8.4053Q16.129862803649903,8.51517,16.276842803649902,8.62327Q16.4238228036499,8.73137,16.5907828036499,8.83744Q16.757742803649904,8.94352,16.9442828036499,9.0473Q17.130812803649903,9.15109,17.336472803649905,9.25235Q17.542142803649902,9.3536,17.766432803649902,9.45208Q17.9907328036499,9.55056,18.233112803649902,9.64602Q18.475502803649903,9.74148,18.735402803649905,9.8337Q18.995292803649903,9.92592,19.272072803649902,10.01467Q19.548842803649904,10.10342,19.841862803649903,10.18849Q20.134862803649902,10.27356,20.443362803649904,10.35474Q20.751862803649903,10.43593,21.075062803649903,10.513Q21.398362803649903,10.5901,21.735562803649902,10.663Q22.072862803649905,10.7358,22.4232628036499,10.8042Q22.773762803649902,10.8726,23.136462803649902,10.9364Q23.499262803649902,11.0002,23.8734628036499,11.0592Q24.247662803649902,11.1182,24.6324628036499,11.1723Q25.017162803649903,11.2265,25.4115628036499,11.2755Q25.8059628036499,11.3246,26.209062803649903,11.3686Q26.612162803649902,11.4125,27.022962803649904,11.4512Q27.433662803649902,11.4899,27.851162803649903,11.5232Q28.268662803649903,11.5565,28.6918628036499,11.5844Q29.115062803649902,11.6123,29.543062803649903,11.6347Q29.970962803649904,11.6571,30.402462803649904,11.674Q30.834062803649903,11.6908,31.268262803649904,11.7021Q31.7023628036499,11.7133,32.138162803649905,11.7189Q32.573962803649906,11.7246,33.010162803649905,11.7246Z" fill-rule="evenodd" fill="#95F6FC" fill-opacity="1"/><path d="M16.322452803649902,13.7506Q23.245962803649903,15.9661,33.0102628036499,15.9661Q42.774462803649904,15.9661,49.6979628036499,13.7506Q56.894762803649904,11.4476,56.894762803649904,7.98306Q56.894762803649904,4.5185,49.6979628036499,2.2155199999999997Q42.774462803649904,-0.0000010000000000287557,33.0102628036499,0Q23.245962803649903,9.999999999732445e-7,16.322452803649902,2.2155199999999997Q9.125657803649903,4.5185,9.125662803649902,7.98306Q9.125662803649902,11.4476,16.322452803649902,13.7506ZM56.394762803649904,7.98306Q56.394762803649904,8.16675,56.366562803649906,8.35023Q56.338462803649904,8.53371,56.2821628036499,8.71652Q56.2258628036499,8.89934,56.1416628036499,9.08105Q56.057462803649905,9.26276,55.9454628036499,9.44293Q55.8334628036499,9.6231,55.6939628036499,9.80129Q55.554462803649905,9.97948,55.3878628036499,10.15527Q55.221162803649904,10.33106,55.0277628036499,10.504Q54.8343628036499,10.677,54.6147628036499,10.8467Q54.3950628036499,11.0164,54.1495628036499,11.1825Q53.9041628036499,11.3485,53.6335628036499,11.5105Q53.3629628036499,11.6726,53.067762803649906,11.8301Q52.7726628036499,11.9877,52.4537628036499,12.1404Q52.1348628036499,12.2932,51.7928628036499,12.4407Q51.450862803649905,12.5883,51.086762803649904,12.7303Q50.7225628036499,12.8723,50.3370628036499,13.0084Q49.9514628036499,13.1445,49.5455628036499,13.2744Q49.139662803649905,13.4043,48.714362803649905,13.5276Q48.2889628036499,13.651,47.8452628036499,13.7675Q47.4014628036499,13.8841,46.940362803649904,13.9935Q46.4792628036499,14.1029,46.0019628036499,14.205Q45.5246628036499,14.307,45.0322628036499,14.4015Q44.5398628036499,14.4959,44.033662803649904,14.5825Q43.5273628036499,14.6691,43.0083628036499,14.7477Q42.4894628036499,14.8262,41.9590628036499,14.8965Q41.4287628036499,14.9668,40.8882628036499,15.0287Q40.3477628036499,15.0906,39.7983628036499,15.1439Q39.249062803649906,15.1972,38.69216280364991,15.2419Q38.1353628036499,15.2865,37.572262803649906,15.3223Q37.009262803649904,15.3582,36.4414628036499,15.3851Q35.873562803649904,15.4121,35.3022628036499,15.4301Q34.7309628036499,15.4481,34.1576628036499,15.4571Q33.58426280364991,15.4661,33.0102628036499,15.4661Q32.43616280364991,15.4661,31.862762803649904,15.4571Q31.2894628036499,15.4481,30.718162803649903,15.4301Q30.146862803649903,15.4121,29.5789628036499,15.3851Q29.011162803649903,15.3582,28.448162803649904,15.3223Q27.8850628036499,15.2865,27.328262803649903,15.2419Q26.771362803649904,15.1972,26.2220628036499,15.1439Q25.672662803649903,15.0906,25.132162803649905,15.0287Q24.591662803649903,14.9668,24.061362803649903,14.8965Q23.530962803649903,14.8262,23.012062803649904,14.7477Q22.493062803649902,14.6691,21.986862803649903,14.5825Q21.480562803649903,14.4959,20.988162803649903,14.4015Q20.495762803649903,14.307,20.018462803649903,14.205Q19.541142803649905,14.1029,19.080052803649902,13.9935Q18.6189628036499,13.8841,18.175212803649902,13.7675Q17.731462803649904,13.651,17.306112803649903,13.5276Q16.8807628036499,13.4043,16.474842803649903,13.2744Q16.068922803649905,13.1445,15.683402803649901,13.0084Q15.297892803649901,12.8723,14.933712803649902,12.7303Q14.569532803649903,12.5883,14.227562803649903,12.4407Q13.885602803649903,12.2932,13.566672803649903,12.1404Q13.247742803649903,11.9877,12.952612803649902,11.8301Q12.657492803649902,11.6725,12.386882803649902,11.5105Q12.116272803649903,11.3485,11.870832803649902,11.1825Q11.625392803649902,11.0164,11.405702803649902,10.8467Q11.186022803649902,10.677,10.992632803649903,10.504Q10.799232803649902,10.33106,10.632592803649903,10.15527Q10.465952803649902,9.97948,10.326468803649902,9.80129Q10.186983803649902,9.6231,10.074990803649902,9.44293Q9.962996803649903,9.26276,9.878764803649903,9.08105Q9.794533803649902,8.89934,9.738265803649902,8.71652Q9.681998203649902,8.53371,9.653830503649901,8.35023Q9.625662803649902,8.16675,9.625662803649902,7.98306Q9.625662803649902,7.79936,9.653830503649901,7.61588Q9.681998203649902,7.4324,9.738265803649902,7.24959Q9.794533803649902,7.06677,9.878764803649903,6.88506Q9.962996803649903,6.70335,10.074990803649902,6.52318Q10.186983803649902,6.34301,10.326468803649902,6.16482Q10.465952803649902,5.98663,10.632592803649903,5.81084Q10.799232803649902,5.63505,10.992632803649903,5.46209Q11.186022803649902,5.28913,11.405702803649902,5.11941Q11.625392803649902,4.9497,11.870832803649902,4.78364Q12.116272803649903,4.61758,12.386882803649902,4.45557Q12.657492803649902,4.293559999999999,12.952612803649902,4.136Q13.247742803649903,3.97843,13.566672803649903,3.82569Q13.885602803649903,3.67295,14.227562803649903,3.5254Q14.569532803649903,3.37786,14.933712803649902,3.23586Q15.297892803649901,3.09385,15.683402803649901,2.95774Q16.068922803649905,2.82163,16.474842803649903,2.69174Q16.8807628036499,2.56184,17.306112803649903,2.43848Q17.731462803649904,2.31511,18.175212803649902,2.1985799999999998Q18.6189628036499,2.08204,19.080052803649902,1.97261Q19.541142803649905,1.86318,20.018462803649903,1.76112Q20.495762803649903,1.65906,20.988162803649903,1.56462Q21.480562803649903,1.4701849999999999,21.986862803649903,1.3835899999999999Q22.493062803649902,1.296995,23.012062803649904,1.218453Q23.530962803649903,1.139912,24.061362803649903,1.069614Q24.591662803649903,0.999315,25.132162803649905,0.9374290000000001Q25.672662803649903,0.875543,26.2220628036499,0.822218Q26.771362803649904,0.768893,27.328262803649903,0.7242580000000001Q27.8850628036499,0.679623,28.448162803649904,0.643785Q29.011162803649903,0.607947,29.5789628036499,0.5809928Q30.146862803649903,0.5540386,30.718162803649903,0.536033Q31.2894628036499,0.5180273,31.862762803649904,0.50901367Q32.43616280364991,0.5,33.0102628036499,0.5Q33.58426280364991,0.5,34.1576628036499,0.50901367Q34.7309628036499,0.5180273,35.3022628036499,0.536033Q35.873562803649904,0.5540386,36.4414628036499,0.5809928Q37.009262803649904,0.607947,37.572262803649906,0.643785Q38.1353628036499,0.679623,38.69216280364991,0.7242580000000001Q39.249062803649906,0.768893,39.7983628036499,0.822218Q40.3477628036499,0.875543,40.8882628036499,0.9374290000000001Q41.4287628036499,0.999315,41.9590628036499,1.069614Q42.4894628036499,1.139912,43.0083628036499,1.218453Q43.5273628036499,1.296995,44.033662803649904,1.3835899999999999Q44.5398628036499,1.4701849999999999,45.0322628036499,1.56462Q45.5246628036499,1.65906,46.0019628036499,1.76112Q46.4792628036499,1.86318,46.940362803649904,1.97261Q47.4014628036499,2.08204,47.8452628036499,2.1985799999999998Q48.2889628036499,2.31511,48.714362803649905,2.43848Q49.139662803649905,2.56184,49.5455628036499,2.69174Q49.9514628036499,2.82163,50.3370628036499,2.95774Q50.7225628036499,3.09385,51.086762803649904,3.23586Q51.450862803649905,3.37786,51.7928628036499,3.5254Q52.1348628036499,3.67295,52.4537628036499,3.82569Q52.7726628036499,3.97843,53.0678628036499,4.136Q53.3629628036499,4.293559999999999,53.6335628036499,4.45557Q53.9041628036499,4.61757,54.1495628036499,4.78364Q54.3950628036499,4.9497,54.6147628036499,5.11941Q54.8343628036499,5.28913,55.0277628036499,5.46209Q55.221162803649904,5.63505,55.3878628036499,5.81084Q55.554462803649905,5.98663,55.6939628036499,6.16482Q55.8334628036499,6.34301,55.9454628036499,6.52318Q56.057462803649905,6.70335,56.1416628036499,6.88506Q56.2258628036499,7.06677,56.2821628036499,7.24959Q56.338462803649904,7.4324,56.366562803649906,7.61588Q56.394762803649904,7.79936,56.394762803649904,7.98306ZM50.7824628036499,7.04767Q50.7824628036499,7.16248,50.7610628036499,7.27715Q50.7396628036499,7.39183,50.6968628036499,7.50609Q50.6541628036499,7.62034,50.5900628036499,7.73391Q50.5260628036499,7.84748,50.4409628036499,7.96009Q50.355862803649906,8.07269,50.249862803649904,8.184059999999999Q50.1438628036499,8.29543,50.0171628036499,8.4053Q49.8905628036499,8.51517,49.7435628036499,8.62327Q49.5965628036499,8.73137,49.429662803649904,8.83744Q49.2626628036499,8.94352,49.0761628036499,9.0473Q48.8895628036499,9.15109,48.683962803649905,9.25235Q48.478262803649905,9.3536,48.253962803649905,9.45208Q48.029662803649906,9.55056,47.7872628036499,9.64602Q47.5448628036499,9.74148,47.2850628036499,9.8337Q47.025162803649906,9.92592,46.748362803649904,10.01467Q46.4715628036499,10.10342,46.1785628036499,10.18849Q45.885562803649904,10.27356,45.5770628036499,10.35474Q45.2685628036499,10.43593,44.9453628036499,10.513Q44.622062803649904,10.5901,44.284762803649905,10.663Q43.9475628036499,10.7358,43.5971628036499,10.8042Q43.246662803649905,10.8726,42.8839628036499,10.9364Q42.5211628036499,11.0002,42.1469628036499,11.0592Q41.772762803649904,11.1182,41.3879628036499,11.1723Q41.0032628036499,11.2265,40.6088628036499,11.2755Q40.2144628036499,11.3246,39.8113628036499,11.3686Q39.408262803649905,11.4125,38.9974628036499,11.4512Q38.586762803649904,11.4899,38.1692628036499,11.5232Q37.7517628036499,11.5565,37.3284628036499,11.5844Q36.905262803649904,11.6123,36.4773628036499,11.6347Q36.0494628036499,11.6571,35.6179628036499,11.674Q35.1863628036499,11.6908,34.7521628036499,11.7021Q34.3180628036499,11.7133,33.8822628036499,11.7189Q33.4464628036499,11.7246,33.010162803649905,11.7246Q32.573962803649906,11.7246,32.138162803649905,11.7189Q31.7023628036499,11.7133,31.268262803649904,11.7021Q30.834062803649903,11.6908,30.402462803649904,11.674Q29.970962803649904,11.6571,29.543062803649903,11.6347Q29.115062803649902,11.6123,28.6918628036499,11.5844Q28.268662803649903,11.5565,27.851162803649903,11.5232Q27.433662803649902,11.4899,27.022962803649904,11.4512Q26.612162803649902,11.4125,26.209062803649903,11.3686Q25.8059628036499,11.3246,25.4115628036499,11.2755Q25.017162803649903,11.2265,24.6324628036499,11.1723Q24.247662803649902,11.1182,23.8734628036499,11.0592Q23.499262803649902,11.0002,23.136462803649902,10.9364Q22.773762803649902,10.8726,22.4232628036499,10.8042Q22.072862803649905,10.7358,21.735562803649902,10.663Q21.398362803649903,10.5901,21.075062803649903,10.513Q20.751862803649903,10.43593,20.443362803649904,10.35474Q20.134862803649902,10.27356,19.841862803649903,10.18849Q19.548842803649904,10.10342,19.272072803649902,10.01467Q18.995292803649903,9.92592,18.735402803649905,9.8337Q18.475502803649903,9.74148,18.233112803649902,9.64602Q17.9907328036499,9.55056,17.766432803649902,9.45208Q17.542142803649902,9.3536,17.336472803649905,9.25235Q17.130812803649903,9.15109,16.944272803649902,9.0473Q16.757742803649904,8.94352,16.5907828036499,8.83744Q16.4238228036499,8.73137,16.276842803649902,8.62327Q16.129862803649903,8.51517,16.0032228036499,8.4053Q15.876572803649903,8.29543,15.770562803649902,8.184059999999999Q15.664552803649903,8.07269,15.579442803649902,7.96009Q15.494322803649903,7.84748,15.430312803649901,7.73391Q15.366292803649902,7.62034,15.323532803649902,7.50609Q15.280762803649903,7.39183,15.259362803649903,7.27715Q15.237952803649902,7.16248,15.237952803649902,7.04767Q15.237952803649902,6.93286,15.259362803649903,6.81818Q15.280762803649903,6.70351,15.323532803649902,6.58925Q15.366292803649902,6.47499,15.430312803649901,6.36142Q15.494322803649903,6.24785,15.579442803649902,6.13525Q15.664552803649903,6.02264,15.770562803649902,5.91127Q15.876572803649903,5.7999,16.0032228036499,5.69003Q16.129862803649903,5.58016,16.276842803649902,5.47206Q16.4238228036499,5.36396,16.5907828036499,5.25789Q16.757742803649904,5.15182,16.9442828036499,5.04803Q17.130812803649903,4.94424,17.336472803649905,4.84299Q17.542142803649902,4.74173,17.766432803649902,4.64326Q17.9907328036499,4.54478,18.233112803649902,4.44932Q18.475502803649903,4.3538499999999996,18.735402803649905,4.26164Q18.995292803649903,4.169420000000001,19.272072803649902,4.08067Q19.548842803649904,3.99192,19.841862803649903,3.90685Q20.134862803649902,3.82178,20.443362803649904,3.74059Q20.751862803649903,3.65941,21.075062803649903,3.58231Q21.398362803649903,3.5052,21.735562803649902,3.43237Q22.072862803649905,3.35953,22.4232628036499,3.29114Q22.773762803649902,3.22274,23.136462803649902,3.15896Q23.499262803649902,3.09517,23.8734628036499,3.03615Q24.247662803649902,2.97712,24.6324628036499,2.923Q25.017162803649903,2.86888,25.4115628036499,2.81979Q25.8059628036499,2.7707,26.209062803649903,2.72677Q26.612162803649902,2.68283,27.022962803649904,2.64415Q27.433662803649902,2.60547,27.851162803649903,2.57214Q28.268662803649903,2.53882,28.6918628036499,2.51092Q29.115062803649902,2.48302,29.543062803649903,2.46062Q29.970962803649904,2.4382200000000003,30.402462803649904,2.42138Q30.834062803649903,2.4045300000000003,31.268262803649904,2.39328Q31.7023628036499,2.3820300000000003,32.138162803649905,2.37639Q32.573962803649906,2.3707599999999998,33.010162803649905,2.3707599999999998Q33.4464628036499,2.3707599999999998,33.8822628036499,2.37639Q34.3180628036499,2.3820300000000003,34.7521628036499,2.39328Q35.1863628036499,2.4045300000000003,35.6179628036499,2.42138Q36.0494628036499,2.4382200000000003,36.4773628036499,2.46062Q36.905262803649904,2.48302,37.3285628036499,2.51092Q37.7517628036499,2.53882,38.1692628036499,2.57214Q38.586762803649904,2.60547,38.9974628036499,2.64415Q39.408262803649905,2.68283,39.8113628036499,2.72677Q40.2144628036499,2.7707,40.6088628036499,2.81979Q41.0032628036499,2.86888,41.3879628036499,2.923Q41.772762803649904,2.97712,42.1469628036499,3.03615Q42.5211628036499,3.09517,42.8839628036499,3.15896Q43.246662803649905,3.22274,43.5971628036499,3.29114Q43.9475628036499,3.35953,44.284762803649905,3.43237Q44.622062803649904,3.5052,44.9453628036499,3.58231Q45.2685628036499,3.65941,45.5770628036499,3.74059Q45.885562803649904,3.82178,46.1785628036499,3.90685Q46.4715628036499,3.99192,46.748362803649904,4.08067Q47.025162803649906,4.169420000000001,47.2850628036499,4.26164Q47.5448628036499,4.3538499999999996,47.7872628036499,4.44932Q48.029662803649906,4.54478,48.253962803649905,4.64326Q48.478262803649905,4.74173,48.683962803649905,4.84299Q48.8895628036499,4.94424,49.0761628036499,5.04803Q49.2626628036499,5.15182,49.429662803649904,5.25789Q49.5965628036499,5.36396,49.7435628036499,5.47206Q49.8905628036499,5.58016,50.0171628036499,5.69003Q50.1438628036499,5.7999,50.249862803649904,5.91127Q50.355862803649906,6.02264,50.4409628036499,6.13525Q50.5260628036499,6.24785,50.5900628036499,6.36142Q50.6541628036499,6.47499,50.6968628036499,6.58925Q50.7396628036499,6.70351,50.7610628036499,6.81818Q50.7824628036499,6.93286,50.7824628036499,7.04767ZM45.4498628036499,9.8712Q40.3069628036499,11.2246,33.010162803649905,11.2246Q25.713362803649904,11.2246,20.570562803649903,9.8712Q18.048232803649903,9.20743,16.762562803649903,8.352820000000001Q15.737952803649902,7.67173,15.737952803649902,7.04767Q15.737952803649902,6.4236,16.762562803649903,5.74252Q18.048242803649902,4.8879,20.570562803649903,4.224130000000001Q25.713362803649904,2.87076,33.010162803649905,2.87076Q40.3070628036499,2.87076,45.4498628036499,4.224130000000001Q47.9721628036499,4.8879,49.2578628036499,5.74252Q50.2824628036499,6.4236,50.2824628036499,7.04767Q50.2824628036499,7.67173,49.2578628036499,8.352820000000001Q47.9721628036499,9.20743,45.4498628036499,9.8712Z" fill-rule="evenodd" fill="#000000" fill-opacity="1"/></g></g></svg>