<svg xmlns="http://www.w3.org/2000/svg" xmlns:xlink="http://www.w3.org/1999/xlink" fill="none" version="1.1" width="54.60296630859375" height="44.638671875" viewBox="0 0 54.60296630859375 44.638671875"><g><g><path d="M26.23692470703125,1.475021C26.62592470703125,0.844471,27.54152470703125,0.8410070000000001,27.93522470703125,1.468601C27.93522470703125,1.468601,53.42782470703125,42.1073,53.42782470703125,42.1073C53.84562470703125,42.7732,53.36692470703125,43.6387,52.58072470703125,43.6387C52.58072470703125,43.6387,2.02191470703125,43.6387,2.02191470703125,43.6387C1.23912170703125,43.6387,0.75984670703125,42.7799,1.17078970703125,42.1137C1.17078970703125,42.1137,26.23692470703125,1.475021,26.23692470703125,1.475021C26.23692470703125,1.475021,26.23692470703125,1.475021,26.23692470703125,1.475021Z" fill="#FFD529" fill-opacity="0.5"/><path d="M0.27548770703125003,43.6133Q0.84772770703125,44.6387,2.02191470703125,44.6387L52.58072470703125,44.6387Q53.76002470703125,44.6387,54.33092470703125,43.6067Q54.90172470703125,42.5747,54.27502470703125,41.5759L28.78242470703125,0.9371926Q28.19182470703125,-0.004189999999999916,27.08062470703125,0.00001399999999995849Q25.96932470703125,0.0042159999999999975,25.38592470703125,0.9499753L25.38582470703125,0.9500463L0.31968670703125,41.5887Q-0.29674529296874996,42.588,0.27548770703125003,43.6133ZM27.93522470703125,1.468601C27.54152470703125,0.8410070000000001,26.62592470703125,0.844471,26.23692470703125,1.475021L1.17078970703125,42.1137C0.75984670703125,42.7799,1.23912170703125,43.6387,2.02191470703125,43.6387L52.58072470703125,43.6387C53.36692470703125,43.6387,53.84562470703125,42.7732,53.42782470703125,42.1073L27.93522470703125,1.468601Z" fill-rule="evenodd" fill="#000000" fill-opacity="1"/></g><g><path d="M24.846008821665038,12.86805458190918C24.846008821665038,12.86805458190918,25.81290558166504,31.20162458190918,25.81290558166504,31.20162458190918C25.81290558166504,31.20162458190918,25.85706558166504,32.08172458190918,27.00018558166504,32.08122458190918C28.14329558166504,32.08072458190918,28.14329558166504,31.20162458190918,28.14329558166504,31.20162458190918C28.14329558166504,31.20162458190918,29.19847558166504,12.86805458190918,29.19847558166504,12.86805458190918C29.19847558166504,12.86805458190918,29.31119558166504,10.98663875990918,27.014315581665038,10.98652458710375C24.71743958166504,10.98641042490918,24.846008821665038,12.86805458190918,24.846008821665038,12.86805458190918C24.846008821665038,12.86805458190918,24.846008821665038,12.86805458190918,24.846008821665038,12.86805458190918Z" fill="#000000" fill-opacity="1"/></g><g><ellipse cx="27.022037982940674" cy="37.53725290298462" rx="2.644136905670166" ry="2.644136905670166" fill="#000000" fill-opacity="1"/></g></g></svg>