<svg xmlns="http://www.w3.org/2000/svg" xmlns:xlink="http://www.w3.org/1999/xlink" fill="none" version="1.1" width="57.1229248046875" height="57.1229248046875" viewBox="0 0 57.1229248046875 57.1229248046875"><defs><filter id="master_svg0_0_1004" filterUnits="objectBoundingBox" color-interpolation-filters="sRGB" x="-1" y="-1" width="8.072674751281738" height="5.741528034210205"><feFlood flood-opacity="0" result="BackgroundImageFix"/><feBlend mode="normal" in="SourceGraphic" in2="BackgroundImageFix" result="shape"/><feGaussianBlur stdDeviation="0.25" result="effect1_foregroundBlur"/></filter><filter id="master_svg1_0_1005" filterUnits="objectBoundingBox" color-interpolation-filters="sRGB" x="-1" y="-1" width="8.072674751281738" height="5.741528034210205"><feFlood flood-opacity="0" result="BackgroundImageFix"/><feBlend mode="normal" in="SourceGraphic" in2="BackgroundImageFix" result="shape"/><feGaussianBlur stdDeviation="0.25" result="effect1_foregroundBlur"/></filter></defs><g><g><path d="M28.5615,56.6229Q29.2503,56.6229,29.9384,56.5891Q30.6264,56.5553,31.312,56.4878Q31.9975,56.4203,32.6789,56.3192Q33.3603,56.2181,34.036,56.0837Q34.7116,55.9493,35.3798,55.7819Q36.0481,55.6146,36.7073,55.4146Q37.3665,55.2146,38.0151,54.9826Q38.6637,54.7505,39.3001,54.4869Q39.9365,54.2232,40.5593,53.9287Q41.182,53.6342,41.7895,53.3095Q42.3971,52.9847,42.9879,52.6306Q43.5788,52.2764,44.1516,51.8937Q44.7243,51.511,45.2776,51.1006Q45.831,50.6903,46.3635,50.2533Q46.896,49.8162,47.4064,49.3536Q47.9168,48.891,48.4039,48.4039Q48.891,47.9168,49.3536,47.4064Q49.8162,46.896,50.2533,46.3635Q50.6903,45.831,51.1006,45.2776Q51.511,44.7243,51.8937,44.1516Q52.2764,43.5788,52.6306,42.9879Q52.9847,42.3971,53.3095,41.7895Q53.6342,41.182,53.9287,40.5593Q54.2232,39.9365,54.4869,39.3001Q54.7505,38.6637,54.9826,38.0151Q55.2146,37.3665,55.4146,36.7073Q55.6146,36.0481,55.782,35.3798Q55.9493,34.7116,56.0837,34.036Q56.2181,33.3603,56.3192,32.6789Q56.4203,31.9975,56.4878,31.312Q56.5553,30.6264,56.5891,29.9384Q56.6229,29.2503,56.6229,28.5615Q56.6229,27.8726,56.5891,27.1846Q56.5553,26.4965,56.4878,25.811Q56.4203,25.1254,56.3192,24.444Q56.2181,23.7626,56.0837,23.0869Q55.9493,22.4113,55.7819,21.7431Q55.6146,21.0749,55.4146,20.4156Q55.2146,19.7564,54.9826,19.1078Q54.7505,18.4592,54.4869,17.8228Q54.2232,17.1864,53.9287,16.5636Q53.6342,15.9409,53.3095,15.3334Q52.9847,14.7259,52.6306,14.135Q52.2764,13.5441,51.8937,12.9713Q51.511,12.3986,51.1006,11.8453Q50.6903,11.292,50.2533,10.7595Q49.8162,10.22695,49.3536,9.71654Q48.891,9.20612,48.4039,8.71901Q47.9168,8.23191,47.4064,7.76929Q46.896,7.30667,46.3635,6.86966Q45.831,6.43264,45.2776,6.02228Q44.7243,5.61192,44.1516,5.22921Q43.5788,4.84649,42.9879,4.49234Q42.3971,4.13819,41.7895,3.81346Q41.182,3.48873,40.5593,3.1942Q39.9365,2.89967,39.3001,2.63605Q38.6637,2.37243,38.0151,2.1403600000000003Q37.3665,1.90829,36.7073,1.70832Q36.0481,1.50835,35.3798,1.340967Q34.7116,1.173585,34.036,1.039193Q33.3603,0.904801,32.6789,0.803723Q31.9975,0.702645,31.312,0.635124Q30.6264,0.5676025,29.9384,0.5338013Q29.2503,0.5,28.5615,0.5Q27.8726,0.5,27.1846,0.5338013Q26.4965,0.5676025,25.811,0.635124Q25.1254,0.702645,24.444,0.803723Q23.7626,0.904801,23.0869,1.039193Q22.4113,1.173585,21.7431,1.340967Q21.0749,1.50835,20.4156,1.70832Q19.7564,1.90829,19.1078,2.1403600000000003Q18.4592,2.37243,17.8228,2.63605Q17.1864,2.89967,16.5636,3.1942Q15.9409,3.48873,15.3334,3.81346Q14.7259,4.13819,14.135,4.49234Q13.5441,4.84649,12.9713,5.22921Q12.3986,5.61192,11.8453,6.02228Q11.292,6.43264,10.7595,6.86966Q10.22695,7.30667,9.71654,7.76929Q9.20612,8.23191,8.71901,8.71901Q8.23191,9.20612,7.76929,9.71654Q7.30667,10.22695,6.86966,10.7595Q6.43264,11.292,6.02228,11.8453Q5.61192,12.3986,5.22921,12.9713Q4.84649,13.5441,4.49234,14.135Q4.13819,14.7259,3.81346,15.3334Q3.48873,15.9409,3.1942,16.5636Q2.89967,17.1864,2.63605,17.8228Q2.37243,18.4592,2.1403600000000003,19.1078Q1.90829,19.7564,1.70832,20.4156Q1.50835,21.0749,1.340967,21.7431Q1.173585,22.4113,1.039193,23.0869Q0.904801,23.7626,0.803723,24.444Q0.702645,25.1254,0.635124,25.811Q0.5676025,26.4965,0.5338013,27.1846Q0.5,27.8726,0.5,28.5615Q0.4999999999999988,29.6907,0.5907328000000001,30.8162Q0.681466,31.9418,0.8623449999999999,33.0564Q1.043224,34.171,1.313079,35.2675Q1.58293,36.364,1.94002,37.4353Q2.29711,38.5065,2.73912,39.5456Q3.18112,40.5847,3.7052,41.585Q4.22927,42.5852,4.83202,43.5401Q5.43476,44.495,6.11229,45.3983L4.24155,53.8168L12.0151,51.2256Q12.9088,51.8781,13.8512,52.4582Q14.7935,53.0383,15.7786,53.5424Q16.7637,54.0464,17.7855,54.4714Q18.8072,54.8963,19.8593,55.2395Q20.9113,55.5827,21.9871,55.8419Q23.0629,56.1012,24.1557,56.2749Q25.2486,56.4486,26.3517,56.5358Q27.4549,56.6229,28.5615,56.6229Z" fill-rule="evenodd" fill="#FFCF00" fill-opacity="1"/><path d="M28.5615,56.1229Q33.8186,56.1229,38.7067,54.1878Q44.014,52.0867,48.0504,48.0504Q52.0867,44.0141,54.1878,38.7067Q56.1229,33.8186,56.1229,28.5615Q56.1229,23.3043,54.1878,18.4162Q52.0867,13.1089,48.0504,9.07257Q44.0141,5.03629,38.7067,2.93514Q33.8186,1,28.5615,1Q23.3043,1,18.4162,2.93514Q13.1088,5.03628,9.07257,9.07257Q5.03629,13.1089,2.93514,18.4162Q1,23.3043,1,28.5615Q1,37.7486,6.51229,45.0983L6.65027,45.2823L4.72964,53.9252L4.24155,53.8168L4.08343,53.3424L12.1016,50.6697L12.3099,50.8218Q19.571,56.123,28.5615,56.1229ZM28.5615,57.1229Q19.2449,57.1229,11.7203,51.6294L12.0151,51.2256L12.1732,51.6999L3.56189,54.5704L5.62419,45.2899L6.11229,45.3983L5.71229,45.6983Q0,38.082,0,28.5615Q0,23.1135,2.00535,18.0481Q4.18272,12.5482,8.365459999999999,8.365459999999999Q12.5482,4.182729999999999,18.0481,2.00535Q23.1136,0,28.5615,0Q34.0094,0,39.0748,2.00535Q44.5747,4.182729999999999,48.7575,8.365459999999999Q52.9402,12.5483,55.1176,18.0481Q57.1229,23.1136,57.1229,28.5615Q57.1229,34.0093,55.1176,39.0748Q52.9402,44.5747,48.7575,48.7575Q44.5747,52.9402,39.0748,55.1176Q34.0093,57.1229,28.5615,57.1229Z" fill="#000000" fill-opacity="1"/></g><g transform="matrix(0.9500440955162048,-0.31211569905281067,0.31211569905281067,0.9500440955162048,-8.031557609783903,3.624582014408773)" filter="url(#master_svg0_0_1004)"><ellipse cx="10.34343433380127" cy="28.77293610572815" rx="3.036337375640869" ry="1.8707640171051025" fill="#FF8D6E" fill-opacity="1"/></g><g transform="matrix(-0.9500440955162048,-0.31211572885513306,-0.31211569905281067,0.9500440955162048,107.9514327810632,17.27824521473076)" filter="url(#master_svg1_0_1005)"><ellipse cx="54.15247201919556" cy="28.37605118751526" rx="3.036337375640869" ry="1.8707640171051025" fill="#FF8D6E" fill-opacity="1"/></g><g><g><g><ellipse cx="42.455172538757324" cy="18.99755573272705" rx="5.612292289733887" ry="5.612292289733887" fill="#000000" fill-opacity="1"/></g><g><ellipse cx="43.91451692581177" cy="17.782790184020996" rx="2.32485294342041" ry="2.32485294342041" fill="#FFFFFF" fill-opacity="1"/></g><g><ellipse cx="40.25512635707855" cy="22.202945828437805" rx="1.3345900774002075" ry="1.3345900774002075" fill="#FFFFFF" fill-opacity="1"/></g></g></g><g><g><ellipse cx="16.11147117614746" cy="18.99755573272705" rx="5.612292289733887" ry="5.612292289733887" fill="#000000" fill-opacity="1"/></g><g><ellipse cx="17.570818424224854" cy="17.782790184020996" rx="2.32485294342041" ry="2.32485294342041" fill="#FFFFFF" fill-opacity="1"/></g><g><ellipse cx="13.911429524421692" cy="22.202945828437805" rx="1.3345900774002075" ry="1.3345900774002075" fill="#FFFFFF" fill-opacity="1"/></g></g><g><g><path d="M21.141433715820312,31.456885827945708C21.141433715820312,30.90460082794571,21.58914871582031,30.45688682794571,22.141433715820312,30.45688682794571C22.141433715820312,30.45688682794571,35.842733715820316,30.45688682794571,35.842733715820316,30.45688682794571C36.39503371582031,30.45688682794571,36.842733715820316,30.904601827945708,36.842733715820316,31.45688682794571C36.842733715820316,31.45688682794571,36.842733715820316,45.43198682794571,36.842733715820316,45.43198682794571C36.842733715820316,48.193486827945705,34.604233715820314,50.43198682794571,31.842733715820312,50.43198682794571C31.842733715820312,50.43198682794571,26.141433715820312,50.43198682794571,26.141433715820312,50.43198682794571C23.380003715820312,50.43198682794571,21.141433715820312,48.193486827945705,21.141433715820312,45.43198682794571C21.141433715820312,45.43198682794571,21.141433715820312,31.456885827945708,21.141433715820312,31.456885827945708C21.141433715820312,31.456885827945708,21.141433715820312,31.456885827945708,21.141433715820312,31.456885827945708Z" fill="#D50B00" fill-opacity="1"/><path d="M20.641433715820312,31.456885827945708L20.641433715820312,45.43198682794571Q20.641433715820312,47.710186827945705,22.252343715820313,49.321086827945706Q23.863243715820314,50.93198682794571,26.141433715820312,50.93198682794571L31.842733715820312,50.93198682794571Q34.120933715820314,50.93198682794571,35.731833715820315,49.321086827945706Q37.342733715820316,47.710186827945705,37.342733715820316,45.43198682794571L37.342733715820316,31.45688682794571Q37.342733715820316,30.83556482794571,36.90343371582031,30.396228427945708Q36.464033715820314,29.95688682794571,35.842733715820316,29.95688682794571L22.141433715820312,29.95688682794571Q21.52011371582031,29.95688682794571,21.080773715820314,30.39622582794571Q20.641433715820312,30.83556482794571,20.641433715820312,31.456885827945708ZM22.959453715820313,48.61398682794571Q21.641433715820312,47.29598682794571,21.641433715820312,45.43198682794571L21.641433715820312,31.456885827945708Q21.641433715820312,30.95688682794571,22.141433715820312,30.95688682794571L35.842733715820316,30.95688682794571Q36.342733715820316,30.95688682794571,36.342733715820316,31.45688682794571L36.342733715820316,45.43198682794571Q36.342733715820316,47.29598682794571,35.02473371582031,48.61398682794571Q33.70673371582031,49.93198682794571,31.842733715820312,49.93198682794571L26.141433715820312,49.93198682794571Q24.27745371582031,49.93198682794571,22.959453715820313,48.61398682794571Z" fill-rule="evenodd" fill="#000000" fill-opacity="1"/></g><g><path d="M29.491979598999023,30.456897735595703C29.491979598999023,30.180755735595703,29.268121598999024,29.956897735595703,28.991979598999023,29.956897735595703C28.715837598999023,29.956897735595703,28.491979598999023,30.180755735595703,28.491979598999023,30.456897735595703C28.491979598999023,30.456897735595703,29.491979598999023,30.456897735595703,29.491979598999023,30.456897735595703C29.491979598999023,30.456897735595703,29.491979598999023,30.456897735595703,29.491979598999023,30.456897735595703ZM28.491979598999023,38.4469577355957C28.491979598999023,38.7230977355957,28.715837598999023,38.9469577355957,28.991979598999023,38.9469577355957C29.268121598999024,38.9469577355957,29.491979598999023,38.7230977355957,29.491979598999023,38.4469577355957C29.491979598999023,38.4469577355957,28.491979598999023,38.4469577355957,28.491979598999023,38.4469577355957C28.491979598999023,38.4469577355957,28.491979598999023,38.4469577355957,28.491979598999023,38.4469577355957ZM28.491979598999023,30.456897735595703C28.491979598999023,30.456897735595703,28.491979598999023,38.4469577355957,28.491979598999023,38.4469577355957C28.491979598999023,38.4469577355957,29.491979598999023,38.4469577355957,29.491979598999023,38.4469577355957C29.491979598999023,38.4469577355957,29.491979598999023,30.456897735595703,29.491979598999023,30.456897735595703C29.491979598999023,30.456897735595703,28.491979598999023,30.456897735595703,28.491979598999023,30.456897735595703C28.491979598999023,30.456897735595703,28.491979598999023,30.456897735595703,28.491979598999023,30.456897735595703Z" fill="#000000" fill-opacity="1"/></g></g><g><path d="M20.54161713195801,27.73307319897461C20.33131713195801,27.376217798974608,19.871544131958007,27.257414198974608,19.514689131958008,27.46771619897461C19.15783413195801,27.67801919897461,19.039030131958008,28.13779119897461,19.249332131958006,28.49464519897461C19.249332131958006,28.49464519897461,20.54161713195801,27.73307319897461,20.54161713195801,27.73307319897461C20.54161713195801,27.73307319897461,20.54161713195801,27.73307319897461,20.54161713195801,27.73307319897461ZM39.16255713195801,28.48954519897461C39.370057131958006,28.13104919897461,39.247557131958004,27.67222719897461,38.88905713195801,27.46473919897461C38.530557131958005,27.25725219897461,38.07175713195801,27.379670798974608,37.86425713195801,27.73817119897461C37.86425713195801,27.73817119897461,39.16255713195801,28.48954519897461,39.16255713195801,28.48954519897461C39.16255713195801,28.48954519897461,39.16255713195801,28.48954519897461,39.16255713195801,28.48954519897461ZM29.236957131958007,28.12646519897461C29.236957131958007,28.12646519897461,29.88425713195801,27.74756619897461,29.88425713195801,27.74756619897461C29.88425713195801,27.74756619897461,29.236957131958007,28.12646519897461,29.236957131958007,28.12646519897461C29.236957131958007,28.12646519897461,29.236957131958007,28.12646519897461,29.236957131958007,28.12646519897461ZM29.22135713195801,28.12592719897461C29.22135713195801,28.12592719897461,29.83695713195801,28.55429519897461,29.83695713195801,28.55429519897461C29.83695713195801,28.55429519897461,29.22135713195801,28.12592719897461,29.22135713195801,28.12592719897461C29.22135713195801,28.12592719897461,29.22135713195801,28.12592719897461,29.22135713195801,28.12592719897461ZM28.589707131958008,28.50536519897461C28.670127131958008,28.64274519897461,29.178857131958008,29.48592519897461,30.04695713195801,30.30345519897461C30.909157131958008,31.11533519897461,32.20785713195801,31.97735519897461,33.85425713195801,31.97735519897461C33.85425713195801,31.97735519897461,33.85425713195801,30.47735519897461,33.85425713195801,30.47735519897461C32.749757131958006,30.47735519897461,31.802657131958007,29.89629519897461,31.075357131958008,29.21141519897461C30.35395713195801,28.53218519897461,29.92945713195801,27.82492119897461,29.88425713195801,27.74756619897461C29.88425713195801,27.74756619897461,28.589707131958008,28.50536519897461,28.589707131958008,28.50536519897461C28.589707131958008,28.50536519897461,28.589707131958008,28.50536519897461,28.589707131958008,28.50536519897461ZM33.85425713195801,31.97735519897461C35.56245713195801,31.97735519897461,36.905157131958006,31.04960519897461,37.77575713195801,30.21063519897461C38.21795713195801,29.78443519897461,38.56035713195801,29.36046519897461,38.792457131958,29.04322519897461C38.908957131958005,28.88399519897461,38.99895713195801,28.75001519897461,39.06085713195801,28.65386519897461C39.09185713195801,28.60574519897461,39.11595713195801,28.56696519897461,39.13295713195801,28.53909519897461C39.141457131958006,28.52515519897461,39.14815713195801,28.513925198974608,39.15305713195801,28.50560519897461C39.155557131958005,28.501445198974608,39.15755713195801,28.49801519897461,39.15915713195801,28.49532519897461C39.15995713195801,28.49398519897461,39.160657131958004,28.49283519897461,39.16115713195801,28.491865198974608C39.16145713195801,28.49138519897461,39.16175713195801,28.49095519897461,39.161957131958005,28.490565198974608C39.16205713195801,28.49037519897461,39.16215713195801,28.49011519897461,39.16225713195801,28.49002519897461C39.162357131958004,28.48977519897461,39.16255713195801,28.48954519897461,38.513457131958006,28.11386019897461C37.86425713195801,27.73817119897461,37.86435713195801,27.73796519897461,37.86455713195801,27.73777019897461C37.86455713195801,27.737721198974608,37.86465713195801,27.737538198974608,37.86475713195801,27.73743919897461C37.864857131958004,27.73724219897461,37.86495713195801,27.73709119897461,37.86495713195801,27.736985198974608C37.86505713195801,27.73677519897461,37.86515713195801,27.73674919897461,37.86505713195801,27.73690319897461C37.864857131958004,27.73721219897461,37.86425713195801,27.738243198974608,37.86325713195801,27.73997519897461C37.86115713195801,27.74343819897461,37.85745713195801,27.74969419897461,37.852057131958006,27.758558198974608C37.841157131958006,27.77629319897461,37.823757131958004,27.804410198974608,37.79995713195801,27.84142519897461C37.75215713195801,27.91554519897461,37.67895713195801,28.02480319897461,37.581957131958006,28.157460198974608C37.38685713195801,28.42400519897461,37.100257131958,28.77840519897461,36.73485713195801,29.13058519897461C35.99005713195801,29.84835519897461,35.00325713195801,30.47735519897461,33.85425713195801,30.47735519897461C33.85425713195801,30.47735519897461,33.85425713195801,31.97735519897461,33.85425713195801,31.97735519897461C33.85425713195801,31.97735519897461,33.85425713195801,31.97735519897461,33.85425713195801,31.97735519897461ZM19.89547613195801,28.11386019897461C19.249332131958006,28.49464519897461,19.24945913195801,28.49486519897461,19.249593131958008,28.49508519897461C19.249647131958007,28.49517519897461,19.24978813195801,28.49541519897461,19.249896131958007,28.49560519897461C19.25011213195801,28.49596519897461,19.25035713195801,28.496385198974608,19.25063113195801,28.496845198974608C19.251178131958007,28.49776519897461,19.251839131958008,28.49887519897461,19.25261413195801,28.50017519897461C19.254165131958008,28.50277519897461,19.25617113195801,28.50612519897461,19.258629131958006,28.51020519897461C19.26354613195801,28.51835519897461,19.270273131958007,28.529405198974608,19.278782131958007,28.54317519897461C19.29579513195801,28.570695198974608,19.31996313195801,28.60911519897461,19.351052131958006,28.65686519897461C19.413173131958008,28.75227519897461,19.503259131958007,28.88547519897461,19.619453131958007,29.04390519897461C19.85091613195801,29.35948519897461,20.190797131958007,29.78179519897461,20.624757131958006,30.20657519897461C21.47348713195801,31.03734519897461,22.785417131958006,31.97735519897461,24.422197131958008,31.97735519897461C24.422197131958008,31.97735519897461,24.422197131958008,30.47735519897461,24.422197131958008,30.47735519897461C23.367107131958008,30.47735519897461,22.41568713195801,29.86061519897461,21.674017131958006,29.13463519897461C21.312787131958007,28.78104519897461,21.025707131958008,28.42497519897461,20.829017131958008,28.15678819897461C20.731127131958008,28.02332619897461,20.656837131958007,27.91328319897461,20.608097131958008,27.83842619897461C20.58375713195801,27.801040198974608,20.565877131958008,27.77256319897461,20.554697131958008,27.75447819897461C20.549107131958007,27.74544019897461,20.54520713195801,27.73901119897461,20.543017131958006,27.735378198974608C20.54191713195801,27.73356219897461,20.54125713195801,27.73244619897461,20.541017131958007,27.73205419897461C20.54089713195801,27.73185819897461,20.54088713195801,27.73184319897461,20.540997131958008,27.73201219897461C20.541037131958007,27.73209619897461,20.541117131958007,27.73222719897461,20.541227131958006,27.73240319897461C20.541277131958008,27.732492198974608,20.541377131958008,27.73265919897461,20.541397131958007,27.73270319897461C20.541507131958006,27.73288219897461,20.54161713195801,27.73307319897461,19.89547613195801,28.11386019897461C19.89547613195801,28.11386019897461,19.89547613195801,28.11386019897461,19.89547613195801,28.11386019897461ZM24.422197131958008,31.97735519897461C25.990227131958008,31.97735519897461,27.32650713195801,31.11246519897461,28.233077131958005,30.32030519897461C29.155557131958005,29.51424519897461,29.74705713195801,28.68348519897461,29.83695713195801,28.55429519897461C29.83695713195801,28.55429519897461,28.60569713195801,27.697561198974608,28.60569713195801,27.697561198974608C28.54919713195801,27.77876019897461,28.038097131958008,28.498715198974608,27.246087131958006,29.19076519897461C26.438167131958007,29.896725198974607,25.44807713195801,30.47735519897461,24.422197131958008,30.47735519897461C24.422197131958008,30.47735519897461,24.422197131958008,31.97735519897461,24.422197131958008,31.97735519897461C24.422197131958008,31.97735519897461,24.422197131958008,31.97735519897461,24.422197131958008,31.97735519897461ZM29.88425713195801,27.74756619897461C29.76695713195801,27.54727519897461,29.542157131958007,27.38138779897461,29.253957131958007,27.371922828974608C28.967717131958008,27.36252282897461,28.735447131958008,27.51108519897461,28.60569713195801,27.697561198974608C28.60569713195801,27.697561198974608,29.83695713195801,28.55429519897461,29.83695713195801,28.55429519897461C29.711457131958007,28.73468519897461,29.485157131958008,28.88032519897461,29.204657131958008,28.87111519897461C28.92231713195801,28.86184519897461,28.703217131958006,28.699265198974608,28.589707131958008,28.50536519897461C28.589707131958008,28.50536519897461,29.88425713195801,27.74756619897461,29.88425713195801,27.74756619897461C29.88425713195801,27.74756619897461,29.88425713195801,27.74756619897461,29.88425713195801,27.74756619897461Z" fill="#000000" fill-opacity="1"/></g></g></svg>