<svg xmlns="http://www.w3.org/2000/svg" xmlns:xlink="http://www.w3.org/1999/xlink" fill="none" version="1.1" width="46.96990966796875" height="57.572052001953125" viewBox="0 0 46.96990966796875 57.572052001953125"><defs><mask id="master_svg0_0_1125" style="mask-type:alpha" maskUnits="userSpaceOnUse"><g><rect x="0" y="0" width="46.96992111206055" height="57.572044372558594" rx="0" fill="#FFFFFF" fill-opacity="1"/></g></mask></defs><g mask="url(#master_svg0_0_1125)"><g><path d="M13.35899363861084,59.699340612792966C7.021443638610839,57.54054061279297,3.34762363861084,47.94703061279297,2.30289363861084,43.42014061279297C2.30289363861084,43.42014061279297,34.77429363861084,41.80944061279297,34.77429363861084,41.80944061279297C34.77429363861084,41.80944061279297,29.11569363861084,59.35094061279297,29.11569363861084,59.35094061279297C29.11569363861084,59.35094061279297,13.35899363861084,59.699340612792966,13.35899363861084,59.699340612792966C13.35899363861084,59.699340612792966,13.35899363861084,59.699340612792966,13.35899363861084,59.699340612792966Z" fill="#F5CEA3" fill-opacity="1"/><path d="M13.28159363861084,60.20114061279297L29.126793638610838,59.850840612792965L29.48239363861084,59.84294061279297L35.47229363861084,41.27420061279297L1.6813326386108398,42.95036061279297L1.8156996386108397,43.532570612792966Q2.9204266386108397,48.31943061279297,5.411623638610839,52.69514061279297Q8.81965363861084,58.68124061279297,13.19779363861084,60.17264061279297L13.28159363861084,60.20114061279297ZM28.74899363861084,58.85894061279296L13.43779363861084,59.197440612792974Q9.46800363861084,57.79884061279297,6.28065363861084,52.20044061279297Q4.01384363861084,48.21880061279297,2.93006663861084,43.88964061279297L34.076293638610835,42.344679612792966L28.74899363861084,58.85894061279296Z" fill-rule="evenodd" fill="#000000" fill-opacity="1"/></g><g><path d="M38.488143206787115,3.0924869971466062C43.90824320678711,5.819246997146607,37.349443206787114,25.563116997146608,32.95484320678711,36.53381699714661C32.95484320678711,36.53381699714661,20.79284320678711,43.687616997146606,20.79284320678711,43.687616997146606C20.79284320678711,43.687616997146606,20.73564320678711,43.583816997146606,20.73564320678711,43.583816997146606C14.96758320678711,33.094516997146606,0.6468232067871096,7.052236997146607,9.56967320678711,1.8893389971466066C17.52734320678711,-2.7155330028533937,24.32894320678711,25.050416997146606,24.75374320678711,26.822016997146605C24.75874320678711,26.843016997146606,24.788143206787108,26.844216997146606,24.79244320678711,26.823216997146606C25.140343206787108,25.120816997146605,30.59524320678711,-0.8782430028533934,38.488143206787115,3.0924869971466062C38.488143206787115,3.0924869971466062,38.488143206787115,3.0924869971466062,38.488143206787115,3.0924869971466062Z" fill="#F5CEA3" fill-opacity="1"/><path d="M24.73844320678711,24.693316997146606Q26.19434320678711,18.233716997146608,28.34434320678711,12.650716997146606Q30.45074320678711,7.180806997146607,32.68704320678711,4.561226997146607Q35.64124320678711,1.1005799971466064,38.71284320678711,2.645816997146606Q42.66314320678711,4.633176997146606,39.88954320678711,16.832516997146605Q37.92634320678711,25.467616997146607,33.418943206787105,36.719716997146605L33.35554320678711,36.87821699714661L20.60314320678711,44.37931699714661L20.29774320678711,43.82511699714661L20.29734320678711,43.824416997146606Q12.37395320678711,29.415716997146607,9.17549320678711,20.915016997146605Q3.1887732067871095,5.003786997146607,9.31926320678711,1.4565570971466064Q12.415653206787109,-0.33523300285339364,15.613243206787109,3.2610269971466064Q18.032243206787108,5.981636997146606,20.44794320678711,11.772016997146606Q22.939143206787108,17.743116997146608,24.73844320678711,24.693316997146606ZM24.75574320678711,27.338016997146607Q25.19424320678711,27.353516997146606,25.282243206787108,26.923516997146606L25.28234320678711,26.923316997146607Q26.82314320678711,19.383516997146607,29.277543206787108,13.010116997146607Q31.32244320678711,7.699896997146606,33.44754320678711,5.210496997146606Q35.89254320678711,2.3464089971466064,38.26344320678711,3.5391469971466063Q41.51454320678711,5.174726997146607,38.91444320678711,16.610816997146607Q36.98244320678711,25.108316997146606,32.554043206787114,36.18941699714661L20.98304320678711,42.995616997146605Q13.24622320678711,28.894316997146607,10.11143320678711,20.562816997146605Q4.4231732067871095,5.444866997146606,9.82008320678711,2.3221079971466065Q12.21041320678711,0.9388999971466064,14.86593320678711,3.9254969971466065Q17.17374320678711,6.521076997146606,19.52504320678711,12.157016997146606Q22.34234320678711,18.909916997146606,24.26754320678711,26.938616997146607Q24.35934320678711,27.324116997146607,24.75574320678711,27.338016997146607Z" fill-rule="evenodd" fill="#000000" fill-opacity="1"/></g><g><path d="M2.0145515823898315,43.37601689086914C0.5317155823898316,38.26156689086914,3.4897455823898316,36.378088890869144,5.1541155823898315,36.07565689086914C5.1541155823898315,36.07565689086914,20.36104558238983,41.52267689086914,20.36104558238983,41.52267689086914C20.36104558238983,41.52267689086914,22.55504558238983,45.72153689086914,22.55504558238983,45.72153689086914C13.930345582389831,48.974756890869145,3.8681055823898314,49.76905689086914,2.0145515823898315,43.37601689086914C2.0145515823898315,43.37601689086914,2.0145515823898315,43.37601689086914,2.0145515823898315,43.37601689086914Z" fill="#F5CEA3" fill-opacity="1"/><path d="M9.720305582389832,48.66545689086914Q15.403345582389832,48.95355689086914,22.73154558238983,46.18935689086914L23.25954558238983,45.99017689086914L20.71364558238983,41.11787689086914L5.196565582389832,35.559754890869144L5.064725582389832,35.583712890869144Q3.1215855823898315,35.936800890869144,1.9875825823898317,37.64476689086914Q0.4873955823898315,39.90426689086914,1.5343268823898315,43.51524689086914Q2.9277255823898316,48.32115689086914,9.720305582389832,48.66545689086914ZM21.84914558238983,45.45016689086914Q15.041445582389832,47.93395689086914,9.77092558238983,47.66675689086914Q3.6898055823898317,47.35855689086914,2.4947735823898314,43.23678689086914Q1.5769512823898315,40.07112689086914,2.8206755823898315,38.19789689086914Q3.6811855823898316,36.90185389086914,5.115605582389831,36.59297289086914L20.008445582389832,41.927476890869144L21.84914558238983,45.45016689086914Z" fill-rule="evenodd" fill="#000000" fill-opacity="1"/></g><g><path d="M17.13856507110596,34.99145667663574C19.188165071105956,36.53259667663574,24.15226507110596,37.37797667663574,25.605865071105956,37.13580667663574C25.605865071105956,37.13580667663574,23.933765071105956,42.55029667663574,23.933765071105956,42.55029667663574C20.08166507110596,43.13169667663574,11.316335071105957,43.34249667663574,7.071745071105957,39.53399667663574C1.766005071105957,34.77339667663574,5.434382071105957,27.877004676635742,10.669665071105957,28.63188937663574C13.503155071105956,29.04045567663574,15.088865071105957,33.450316676635744,17.13856507110596,34.99145667663574C17.13856507110596,34.99145667663574,17.13856507110596,34.99145667663574,17.13856507110596,34.99145667663574Z" fill="#F5CEA3" fill-opacity="1"/><path d="M13.351405071105956,29.60899667663574Q12.075115071105957,28.329373676635743,10.741015071105956,28.137007676635744Q8.651985071105958,27.835786676635742,6.890345071105957,28.921796676635743Q5.220037071105957,29.95150667663574,4.454910671105957,31.82565667663574Q3.664415071105957,33.76193667663574,4.173785071105957,35.83529667663574Q4.731665071105957,38.10611667663574,6.7378250711059575,39.906196676635744Q9.669525071105957,42.53669667663574,15.595565071105957,43.18539667663574Q19.931365071105958,43.65999667663574,24.008365071105956,43.044696676635745L24.318865071105957,42.997796676635744L26.322565071105956,36.50951667663574L25.523665071105956,36.642606676635744Q24.36266507110596,36.83603667663574,21.704365071105958,36.24431667663574Q18.767265071105957,35.59054667663574,17.439065071105958,34.591816676635744Q16.722865071105957,34.05330667663574,15.318565071105956,32.08193667663574Q14.070525071105957,30.33000667663574,13.351405071105956,29.60899667663574ZM7.415125071105956,29.77303667663574Q8.868125071105958,28.87729367663574,10.598305071105958,29.126772676635742Q11.602485071105956,29.271565676635742,12.643375071105957,30.315176676635744Q13.304065071105956,30.97759667663574,14.504065071105957,32.66213667663574Q15.998165071105957,34.75956667663574,16.83806507110596,35.39109667663574Q18.339065071105956,36.51969667663574,21.487065071105956,37.22042667663574Q23.618065071105956,37.69477667663574,24.912065071105957,37.688026676635744L23.549265071105957,42.100996676635745Q19.745965071105957,42.63379667663574,15.704365071105958,42.191296676635744Q10.098025071105958,41.57759667663574,7.4056650711059575,39.161796676635745Q5.629175071105957,37.567886676635744,5.144908071105957,35.596716676635744Q4.713082071105957,33.838996676635745,5.380729071105957,32.20361667663574Q6.022535071105957,30.631536676635744,7.415125071105956,29.77303667663574Z" fill-rule="evenodd" fill="#000000" fill-opacity="1"/></g><g><path d="M21.710382075195312,55.42530472106934C21.710382075195312,51.557304721069336,30.80950207519531,44.25750472106934,32.302302075195314,43.08600472106934C32.321802075195315,43.07070472106933,32.30100207519531,43.037804721069335,32.27910207519531,43.04940472106934C30.323502075195314,44.09180472106934,16.579012075195312,51.120404721069335,19.157478075195314,41.32990472106934C20.76888207519531,36.123604721069334,25.420792075195312,34.09700472106934,30.380802075195312,31.436174721069335C35.34080207519531,28.775344721069334,44.392402075195314,30.825335721069337,45.540302075195314,36.86159472106934C46.68820207519531,42.89790472106934,41.78140207519532,55.26570472106934,38.94460207519531,59.25500472106934C38.94460207519531,59.25500472106934,21.710382075195312,59.25500472106934,21.710382075195312,59.25500472106934C21.674972075195313,59.73380472106933,21.710382075195312,57.87820472106934,21.710382075195312,55.42530472106934C21.710382075195312,55.42530472106934,21.710382075195312,55.42530472106934,21.710382075195312,55.42530472106934Z" fill="#F5CEA3" fill-opacity="1"/><path d="M21.980092075195312,59.75500472106934Q21.75807207519531,59.92580472106934,21.467982075195312,59.77290472106934Q21.230042075195314,59.64750472106934,21.201702075195314,59.372104721069334Q21.195652075195312,59.313304721069336,21.19484207519531,59.12330472106933Q21.193912075195314,58.90600472106934,21.199642075195314,58.05070472106934Q21.210382075195312,56.44540472106934,21.210382075195312,55.42530472106934Q21.210382075195312,52.760604721069335,26.093452075195312,47.89040472106933Q27.466722075195314,46.52080472106934,28.988502075195314,45.184804721069334Q26.347662075195313,46.301304721069336,24.114942075195312,46.74250472106934Q21.016372075195314,47.354804721069335,19.549214075195312,46.27870472106933Q17.69522207519531,44.91890472106934,18.673962075195313,41.202604721069335L18.676680075195314,41.192304721069334L18.67983307519531,41.18210472106934Q19.70697707519531,37.863464721069334,22.674152075195313,35.44968472106934Q24.448032075195314,34.00663472106933,28.821842075195313,31.697594721069336Q29.700902075195312,31.233530721069336,30.144402075195313,30.995572721069337Q34.268902075195314,28.782974721069337,39.53760207519531,30.409730721069337Q45.15200207519531,32.14322472106934,46.03150207519531,36.76818472106933Q46.84240207519531,41.03210472106934,44.21140207519531,48.983004721069335Q41.90400207519531,55.95610472106934,39.35210207519531,59.54480472106934L39.202602075195315,59.75500472106934L21.980092075195312,59.75500472106934ZM22.195542075195313,58.75500472106934L38.68430207519531,58.75500472106934Q41.06940207519531,55.29490472106934,43.26200207519531,48.66890472106934Q45.811502075195314,40.964204721069336,45.04910207519531,36.955004721069336Q44.28200207519531,32.921194721069334,39.24260207519531,31.365224721069335Q34.37330207519531,29.861782721069336,30.617202075195312,31.876784721069335Q30.17080207519531,32.11623472106933,29.28870207519531,32.581924721069335Q25.00235207519531,34.84480472106934,23.305212075195314,36.225414721069335Q20.57734207519531,38.444524721069335,19.638251075195313,41.467604721069335Q18.837862245195314,44.516804721069335,20.140652075195312,45.47240472106934Q21.253532075195313,46.28860472106933,23.92108207519531,45.761504721069336Q27.42841207519531,45.068404721069335,32.04500207519531,42.607604721069336Q32.47040207519531,42.382204721069336,32.728702075195315,42.79020472106934Q32.98110207519531,43.188904721069335,32.611002075195316,43.47930472106934Q29.427102075195315,45.97800472106934,26.799622075195312,48.59850472106933Q22.210382075195312,53.175604721069334,22.210382075195312,55.42530472106934Q22.210382075195312,56.44870472106933,22.19961207519531,58.05740472106933Q22.196732075195314,58.48820472106934,22.195542075195313,58.75500472106934Z" fill-rule="evenodd" fill="#000000" fill-opacity="1"/></g></g></svg>