<svg xmlns="http://www.w3.org/2000/svg" xmlns:xlink="http://www.w3.org/1999/xlink" fill="none" version="1.1" width="56.266998291015625" height="56.997314453125" viewBox="0 0 56.266998291015625 56.997314453125"><defs><mask id="master_svg0_0_1121" style="mask-type:alpha" maskUnits="userSpaceOnUse"><g><rect x="0" y="0" width="56.266990661621094" height="56.99732971191406" rx="0" fill="#FFFFFF" fill-opacity="1"/></g></mask></defs><g mask="url(#master_svg0_0_1121)"><g><path d="M2.5493806565475463,36.94866665935516C5.579220656547546,34.21786665935517,8.713870656547545,40.171366659355165,11.831010656547546,41.95166665935516C14.948210656547547,43.731966659355166,18.423710656547545,41.53406665935516,19.452810656547545,38.169466659355166C20.730210656547545,34.65586665935516,15.161010656547546,26.547866659355165,10.128520656547547,31.477766659355165C5.096000656547546,36.407666659355165,1.2403016565475464,34.48846665935516,0.9608032565475464,32.74276665935516C0.6813046565475464,30.997166659355162,1.3948026565475464,28.050266659355163,3.6755206565475462,25.778366659355164C5.951130656547546,23.511566659355164,9.591710656547546,21.099166659355163,14.269510656547546,22.896266659355163C14.278810656547547,22.899766659355162,14.286910656547546,22.888466659355164,14.281210656547547,22.880366659355165C1.3332446565475464,4.580146659355163,10.154790656547547,-0.5599733406448364,13.231710656547547,1.4747206593551636C16.305310656547547,3.5071866593551637,16.178810656547547,12.670266659355164,24.225610656547545,22.375266659355162C24.232810656547546,22.383966659355163,24.246410656547546,22.374466659355164,24.242410656547545,22.363966659355164C16.408710656547548,1.6844966593551636,29.893810656547547,0.11781465935516355,29.962210656547548,5.484436659355164C30.030310656547545,10.827916659355164,30.827010656547547,20.873766659355162,31.680310656547547,23.543666659355164C31.683610656547547,23.553966659355165,31.697610656547546,23.549166659355162,31.698810656547547,23.538466659355162C32.75011065654755,13.734266659355164,40.404310656547544,8.306336659355164,42.878610656547544,9.519566659355164C47.247410656547544,11.661866659355164,38.37571065654755,18.313166659355165,40.922310656547545,27.975266659355164C43.059110656547546,36.08266665935516,49.739510656547544,48.53616665935516,54.53141065654755,56.607966659355164C55.45041065654755,58.155966659355165,56.299910656547546,59.542766659355166,57.03461065654755,60.706866659355164C57.03461065654755,60.706866659355164,32.405410656547545,60.706866659355164,32.405410656547545,60.706866659355164C32.25911065654755,59.158966659355166,32.02771065654755,57.797866659355165,31.724610656547547,56.607966659355164C30.488410656547547,51.75366665935516,28.061510656547547,49.747766659355165,25.374210656547547,49.534766659355164C22.028210656547547,49.26956665935516,20.993810656547545,51.863566659355165,13.264510656547547,51.29396665935516C5.535170656547546,50.724466659355166,-1.2379293434524534,40.362066659355165,2.5493806565475463,36.94866665935516C2.5493806565475463,36.94866665935516,2.5493806565475463,36.94866665935516,2.5493806565475463,36.94866665935516Z" fill="#F5CEA3" fill-opacity="1"/><path d="M7.520140656547547,49.70866665935517Q10.335430656547546,51.57946665935516,13.227810656547547,51.79266665935516Q17.984010656547547,52.14306665935516,22.076010656547545,50.66866665935516Q24.109310656547546,49.93606665935516,25.334710656547546,50.03316665935516Q29.620810656547548,50.37286665935516,31.240110656547547,56.73136665935516Q31.697010656547548,58.524966659355165,31.907610656547547,60.753966659355164L31.950410656547547,61.206866659355164L57.941410656547546,61.206866659355164L57.457410656547545,60.439966659355164Q56.284910656547545,58.58216665935517,54.96141065654755,56.35276665935516Q44.09371065654754,38.04626665935516,41.405810656547544,27.847866659355162Q40.54701065654755,24.589366659355164,41.332810656547544,21.063166659355165Q41.792610656547545,18.999866659355163,43.28391065654755,15.569666659355164Q44.457610656547544,12.869866659355164,44.58171065654755,11.815066659355164Q44.80601065654755,9.907816659355163,43.098710656547546,9.070636659355163Q41.933410656547544,8.499216659355163,40.02901065654755,9.364236659355164Q38.18591065654755,10.201396659355163,36.39591065654755,12.049666659355164Q32.81451065654755,15.747666659355163,31.636110656547547,20.874966659355163Q31.323910656547547,18.814366659355162,31.024810656547547,15.472066659355164Q30.517210656547547,9.799256659355164,30.462210656547548,5.4780666593551635Q30.431210656547545,3.0511466593551635,28.058010656547545,2.4643866593551635Q25.768710656547547,1.8983586593551636,23.792710656547545,3.7963166593551634Q21.558110656547548,5.942626659355164,21.322410656547547,10.220206659355163Q21.099010656547545,14.274566659355164,22.777810656547548,19.661566659355163Q20.887110656547545,16.981066659355164,19.434310656547545,13.958866659355163Q18.207510656547548,11.406666659355164,16.69661065654755,7.073006659355164Q15.764410656547547,4.399036659355163,15.288210656547546,3.3945566593551635Q14.487610656547547,1.7057906593551637,13.507510656547547,1.0576627254451636Q11.993110656547547,0.05621665935516362,10.069530656547546,0.9324896593551636Q8.011320656547547,1.8701056593551635,7.267270656547546,4.411456659355164Q5.411580656547547,10.749766659355164,13.061510656547547,21.999666659355164Q7.961720656547547,20.803066659355164,3.3226506565475464,25.424166659355162Q1.6468726565475462,27.093466659355162,0.8855492565475463,29.294466659355162Q0.2134366565475464,31.237666659355163,0.4670906565475464,32.82176665935516Q0.6120356565475464,33.72706665935517,1.5095416565475464,34.37936665935516Q2.428680656547546,35.04726665935517,3.7371906565475466,35.112966659355166Q6.966540656547546,35.27526665935516,10.478420656547547,31.834966659355164Q13.574310656547546,28.802166659355162,16.804410656547546,32.01196665935517Q18.133510656547546,33.33266665935516,18.771710656547548,35.116766659355164Q19.396110656547545,36.86216665935516,18.982910656547546,37.998666659355166L18.978510656547545,38.010866659355166L18.974710656547547,38.02316665935516Q18.233210656547545,40.447466659355165,16.187710656547544,41.549766659355164Q14.102710656547547,42.673266659355164,12.079010656547547,41.517466659355165Q11.120610656547546,40.970166659355165,9.132690656547547,38.969966659355165Q6.984040656547546,36.80806665935516,5.878980656547546,36.21346665935516Q3.8372206565475464,35.114866659355165,2.2146306565475466,36.57726665935516Q0.6425386565475464,37.994166659355166,1.0446456565475464,40.625566659355165Q1.4020726565475463,42.96466665935516,3.1800906565475464,45.47666665935516Q4.981580656547546,48.02186665935516,7.520140656547547,49.70866665935517ZM21.737010656547547,49.72796665935516Q17.845310656547547,51.130266659355165,13.301210656547546,50.79536665935516Q10.670470656547547,50.60146665935516,8.073590656547546,48.87586665935516Q5.690180656547547,47.292066659355164,3.9963106565475464,44.898866659355164Q2.3548906565475463,42.57986665935516,2.0331706565475463,40.47456665935516Q1.7125016565475464,38.37606665935516,2.8841206565475463,37.32006665935516Q3.9835806565475465,36.32916665935517,5.405150656547546,37.094066659355164Q6.379440656547547,37.618266659355164,8.423410656547546,39.67486665935516Q10.506950656547547,41.77126665935516,11.583010656547547,42.385866659355166Q14.088710656547546,43.81686665935516,16.662110656547547,42.43006665935516Q19.064110656547545,41.13566665935517,19.927210656547548,38.327866659355166Q20.456010656547548,36.85616665935516,19.713310656547545,34.779866659355164Q18.998910656547547,32.78276665935516,17.509310656547548,31.302666659355165Q15.839410656547546,29.643266659355163,13.938210656547547,29.451966659355165Q11.710810656547546,29.227766659355165,9.778630656547547,31.120566659355163Q6.579480656547546,34.25446665935517,3.787360656547546,34.11426665935517Q2.7759306565475463,34.063466659355164,2.097410656547546,33.570366659355166Q1.5341396565475462,33.161066659355164,1.4545156565475463,32.66376665935516Q1.2405386565475465,31.327366659355164,1.8306126565475465,29.621366659355164Q2.5163706565475463,27.638766659355163,4.028390656547547,26.132566659355163Q8.835380656547546,21.344266659355164,14.090210656547546,23.362966659355163Q14.456710656547546,23.500966659355164,14.685210656547547,23.186866659355164Q14.900310656547546,22.891366659355164,14.690110656547546,22.592566659355164Q6.411770656547547,10.892346659355164,8.226980656547546,4.692446659355164Q8.842430656547545,2.5903766593551634,10.484090656547547,1.8425116593551636Q11.903510656547546,1.1958766593551635,12.955910656547546,1.8917826593551634Q14.093510656547547,2.644066659355164,15.752410656547546,7.402206659355164Q17.281810656547545,11.789066659355164,18.533110656547546,14.392166659355164Q20.707510656547548,18.915566659355164,23.840710656547547,22.694366659355165Q24.136710656547546,23.052166659355162,24.520610656547547,22.789466659355163Q24.852810656547547,22.562066659355164,24.709710656547546,22.186066659355163Q22.051310656547546,15.168466659355163,22.320910656547547,10.275216659355163Q22.534910656547545,6.390956659355163,24.485410656547547,4.5175266593551635Q26.063810656547545,3.001446659355164,27.818010656547546,3.4351566593551635Q29.441210656547547,3.8364666593551635,29.462210656547548,5.490816659355164Q29.517810656547546,9.850286659355163,30.028810656547545,15.561166659355164Q30.582710656547548,21.751766659355162,31.204010656547545,23.695866659355165Q31.357310656547547,24.174566659355165,31.837410656547547,24.026866659355164Q32.15831065654754,23.928066659355164,32.19571065654755,23.594066659355164Q32.891510656547545,17.105466659355162,37.11421065654755,12.745366659355163Q38.77221065654754,11.033406659355164,40.44251065654755,10.274716659355164Q41.917010656547546,9.604956659355164,42.65851065654755,9.968506659355164Q43.73021065654755,10.494016659355163,43.58851065654755,11.698166659355163Q43.48171065654755,12.606466659355164,42.36681065654755,15.170966659355164Q40.83741065654755,18.688866659355163,40.356810656547545,20.845666659355164Q39.518010656547546,24.609166659355164,40.438810656547545,28.102666659355165Q43.16241065654754,38.43646665935516,54.101510656547546,56.863166659355166Q55.16451065654755,58.65376665935516,56.131210656547545,60.206866659355164L32.85741065654754,60.206866659355164Q32.63801065654755,58.168166659355165,32.20911065654755,56.48456665935517Q30.413310656547548,49.43256665935516,25.413710656547547,49.03636665935517Q23.973210656547547,48.92216665935516,21.737010656547547,49.72796665935516Z" fill-rule="evenodd" fill="#000000" fill-opacity="1"/></g></g></svg>