<svg xmlns="http://www.w3.org/2000/svg" xmlns:xlink="http://www.w3.org/1999/xlink" fill="none" version="1.1" width="67.03515625" height="63.906982421875" viewBox="0 0 67.03515625 63.906982421875"><defs><mask id="master_svg0_0_1337" style="mask-type:alpha" maskUnits="userSpaceOnUse"><g transform="matrix(-0.9531612396240234,0.3024626076221466,0.302462637424469,0.9531612396240234,99.87365965840763,-15.4662333572354)"><path d="M51.724865135330965,19.85026943359375C55.678117135330965,6.86856943359375,67.43396713533096,8.55876943359375,74.72316713533097,11.62406943359375C74.77466713533096,11.64576943359375,74.83126713533096,11.62456943359375,74.85296713533097,11.57306943359375C77.03996713533097,6.38194943359375,89.34296713533097,-4.84726056640625,99.78236713533096,5.48389943359375C110.27606713533096,15.86866943359375,98.57566713533097,42.14246943359375,86.68536713533096,48.98476943359375C86.67026713533096,48.99346943359375,86.65356713533097,48.99776943359375,86.63616713533096,48.99776943359375C67.91946713533096,48.98086943359375,48.28484713533096,31.14656943359375,51.724865135330965,19.85026943359375C51.724865135330965,19.85026943359375,51.724865135330965,19.85026943359375,51.724865135330965,19.85026943359375Z" fill="#FFFFFF" fill-opacity="1"/></g></mask></defs><g><g transform="matrix(-0.9531612396240234,0.3024626076221466,0.302462637424469,0.9531612396240234,99.87330752607886,-15.466178826733653)"><path d="M51.72468484692383,19.85026943359375C55.67793684692383,6.86856943359375,67.43378684692382,8.55876943359375,74.72298684692383,11.62406943359375C74.77448684692382,11.64576943359375,74.83108684692382,11.62456943359375,74.85278684692383,11.57306943359375C77.03978684692383,6.38194943359375,89.34278684692383,-4.84726056640625,99.78218684692382,5.48389943359375C110.27588684692383,15.86866943359375,98.57548684692384,42.14246943359375,86.68518684692383,48.98476943359375C86.67008684692382,48.99346943359375,86.65338684692384,48.99776943359375,86.63598684692383,48.99776943359375C67.91928684692382,48.98086943359375,48.28466684692383,31.14656943359375,51.72468484692383,19.85026943359375C51.72468484692383,19.85026943359375,51.72468484692383,19.85026943359375,51.72468484692383,19.85026943359375Z" fill="#E02D65" fill-opacity="1"/><path d="M50.76805784692383,19.55896943359375Q49.39529684692383,24.06676943359375,52.203952846923826,29.61916943359375Q54.79344684692383,34.73836943359375,60.21895684692383,39.41146943359375Q65.70538684692383,44.13706943359375,72.41488684692382,46.94726943359375Q79.68338684692382,49.99146943359375,86.63598684692383,49.99776943359375Q86.93028684692382,49.99776943359375,87.18398684692383,49.85146943359375Q91.77888684692383,47.20736943359375,96.03268684692384,41.34906943359375Q100.16958684692383,35.65176943359375,102.56998684692383,28.89766943359375Q105.12388684692382,21.71146943359375,104.83378684692383,15.65196943359375Q104.50318684692382,8.749039433593751,100.48558684692384,4.773119433593751Q96.58798684692383,0.91593343359375,91.90968684692382,0.35400843359375Q87.93748684692383,-0.12309056640625005,83.80108684692382,1.80091643359375Q80.37978684692382,3.39230943359375,77.49608684692383,6.27110943359375Q75.35738684692383,8.40615943359375,74.31468684692382,10.37832943359375Q67.43878684692383,7.67407943359375,61.78808684692383,8.73676943359375Q53.59443684692383,10.27768943359375,50.76805784692383,19.55896943359375ZM74.72298684692383,11.62406943359375C67.43378684692382,8.55876943359375,55.67793684692383,6.86856943359375,51.72468484692383,19.85026943359375C48.28466684692383,31.14656943359375,67.91928684692382,48.98086943359375,86.63598684692383,48.99776943359375C86.65338684692384,48.99776943359375,86.67008684692382,48.99346943359375,86.68518684692383,48.98476943359375C98.57548684692384,42.14246943359375,110.27588684692383,15.86866943359375,99.78218684692382,5.48389943359375C89.34278684692383,-4.84726056640625,77.03978684692383,6.38194943359375,74.85278684692383,11.57306943359375C74.83108684692382,11.62456943359375,74.77448684692382,11.64576943359375,74.72298684692383,11.62406943359375Z" fill-rule="evenodd" fill="#000000" fill-opacity="1"/></g><g mask="url(#master_svg0_0_1337)"><g transform="matrix(-0.9531612396240234,0.3024626076221466,0.302462637424469,0.9531612396240234,91.92528395199784,-14.235363972272342)"><path d="M46.842970368973546,14.661813375091551C50.70632036897354,1.6821133750915527,62.19360036897354,3.369793375091553,69.31840036897354,6.434213375091552C69.37030036897355,6.4565133750915535,69.42780036897355,6.435013375091552,69.44930036897354,6.382713375091553C71.58900036897354,1.190853375091553,83.61240036897354,-10.034496624908448,93.81480036897355,0.29544337509155305C104.07120036897354,10.680013375091553,92.63590036897355,36.95281337509155,81.01450036897354,43.79591337509155C80.99920036897353,43.80491337509155,80.98220036897354,43.809313375091556,80.96440036897354,43.809313375091556C62.67090036897355,43.791713375091554,43.48074036897354,25.957913375091554,46.842970368973546,14.661813375091551C46.842970368973546,14.661813375091551,46.842970368973546,14.661813375091551,46.842970368973546,14.661813375091551Z" fill="#FF4D83" fill-opacity="1"/></g></g><g><path d="M9.615995192675781,25.098841494750978C9.54510019267578,25.506941494750976,9.81845999267578,25.895251494750976,10.22656099267578,25.96614149475098C10.63466499267578,26.037041494750977,11.022964992675782,25.763681494750976,11.093864992675782,25.355571494750976C11.093864992675782,25.355571494750976,9.615995192675781,25.098841494750978,9.615995192675781,25.098841494750978C9.615995192675781,25.098841494750978,9.615995192675781,25.098841494750978,9.615995192675781,25.098841494750978ZM19.840704992675782,19.731101494750977C20.24490499267578,19.821661494750977,20.64600499267578,19.567421494750977,20.736504992675783,19.163231494750978C20.827104992675782,18.759043494750976,20.57290499267578,18.357962494750975,20.16870499267578,18.267395494750975C20.16870499267578,18.267395494750975,19.840704992675782,19.731101494750977,19.840704992675782,19.731101494750977C19.840704992675782,19.731101494750977,19.840704992675782,19.731101494750977,19.840704992675782,19.731101494750977ZM11.093864992675782,25.355571494750976C11.306574992675781,24.131111494750975,12.008784992675782,22.369541494750976,13.388584992675781,21.101631494750976C14.73001499267578,19.868991494750976,16.772294992675782,19.043561494750975,19.840704992675782,19.731101494750977C19.840704992675782,19.731101494750977,20.16870499267578,18.267395494750975,20.16870499267578,18.267395494750975C16.63963499267578,17.476633494750978,14.09084499267578,18.419211494750975,12.373664992675781,19.997131494750978C10.69486499267578,21.539791494750975,9.870924992675782,23.631361494750976,9.615995192675781,25.098841494750978C9.615995192675781,25.098841494750978,11.093864992675782,25.355571494750976,11.093864992675782,25.355571494750976C11.093864992675782,25.355571494750976,11.093864992675782,25.355571494750976,11.093864992675782,25.355571494750976Z" fill="#FFFFFF" fill-opacity="1"/></g><g><ellipse cx="24.48417103290558" cy="20.45787250995636" rx="1.7258702516555786" ry="1.7258702516555786" fill="#FFFFFF" fill-opacity="1"/></g></g></svg>