<svg xmlns="http://www.w3.org/2000/svg" xmlns:xlink="http://www.w3.org/1999/xlink" fill="none" version="1.1" width="60.92034912109375" height="58.506744384765625" viewBox="0 0 60.92034912109375 58.506744384765625"><defs><filter id="master_svg0_0_1110" filterUnits="objectBoundingBox" color-interpolation-filters="sRGB" x="-1" y="-1" width="7.612292289733887" height="4.806146144866943"><feFlood flood-opacity="0" result="BackgroundImageFix"/><feBlend mode="normal" in="SourceGraphic" in2="BackgroundImageFix" result="shape"/><feGaussianBlur stdDeviation="0.25" result="effect1_foregroundBlur"/></filter><filter id="master_svg1_0_1111" filterUnits="objectBoundingBox" color-interpolation-filters="sRGB" x="-1" y="-1" width="7.612292289733887" height="4.806146144866943"><feFlood flood-opacity="0" result="BackgroundImageFix"/><feBlend mode="normal" in="SourceGraphic" in2="BackgroundImageFix" result="shape"/><feGaussianBlur stdDeviation="0.25" result="effect1_foregroundBlur"/></filter></defs><g><g><path d="M28.5615,58.00670479812622Q29.2503,58.00670479812622,29.9384,57.97290479812622Q30.6264,57.93910479812622,31.312,57.87160479812622Q31.9975,57.80410479812622,32.6789,57.70300479812622Q33.3603,57.60190479812622,34.036,57.46750479812622Q34.7116,57.33310479812622,35.3798,57.16570479812622Q36.0481,56.998404798126224,36.7073,56.79840479812622Q37.3665,56.59840479812622,38.0151,56.36640479812622Q38.6637,56.13430479812622,39.3001,55.87070479812622Q39.9365,55.60700479812622,40.5593,55.31250479812622Q41.182,55.01800479812622,41.7895,54.69330479812622Q42.3971,54.36850479812622,42.9879,54.01440479812622Q43.5788,53.66020479812622,44.1516,53.27750479812622Q44.7243,52.89480479812622,45.2776,52.48440479812622Q45.831,52.07410479812622,46.3635,51.637104798126224Q46.896,51.20000479812622,47.4064,50.73740479812622Q47.9168,50.27480479812622,48.4039,49.78770479812622Q48.891,49.30060479812622,49.3536,48.79020479812622Q49.8162,48.27980479812622,50.2533,47.74730479812622Q50.6903,47.214804798126224,51.1006,46.66140479812622Q51.511,46.10810479812622,51.8937,45.53540479812622Q52.2764,44.96260479812622,52.6306,44.371704798126224Q52.9847,43.78090479812622,53.3095,43.17330479812622Q53.6342,42.56580479812622,53.9287,41.94310479812622Q54.2232,41.32030479812622,54.4869,40.68390479812622Q54.7505,40.04750479812622,54.9826,39.39890479812622Q55.2146,38.75030479812622,55.4146,38.09110479812622Q55.6146,37.43190479812622,55.782,36.763604798126224Q55.9493,36.09540479812622,56.0837,35.41980479812622Q56.2181,34.74410479812622,56.3192,34.06270479812622Q56.4203,33.38130479812622,56.4878,32.69580479812622Q56.5553,32.010204798126225,56.5891,31.322204798126222Q56.6229,30.63410479812622,56.6229,29.94530479812622Q56.6229,29.25640479812622,56.5891,28.56840479812622Q56.5553,27.88030479812622,56.4878,27.19480479812622Q56.4203,26.50920479812622,56.3192,25.82780479812622Q56.2181,25.14640479812622,56.0837,24.47070479812622Q55.9493,23.79510479812622,55.7819,23.12690479812622Q55.6146,22.45870479812622,55.4146,21.799404798126222Q55.2146,21.14020479812622,54.9826,20.49160479812622Q54.7505,19.84300479812622,54.4869,19.20660479812622Q54.2232,18.57020479812622,53.9287,17.94740479812622Q53.6342,17.32470479812622,53.3095,16.717204798126218Q52.9847,16.10970479812622,52.6306,15.51880479812622Q52.2764,14.927904798126221,51.8937,14.35510479812622Q51.511,13.78240479812622,51.1006,13.22910479812622Q50.6903,12.67580479812622,50.2533,12.14330479812622Q49.8162,11.610754798126221,49.3536,11.10034479812622Q48.891,10.589924798126221,48.4039,10.102814798126222Q47.9168,9.61571479812622,47.4064,9.15309479812622Q46.896,8.690474798126221,46.3635,8.25346479812622Q45.831,7.816444798126221,45.2776,7.406084798126221Q44.7243,6.99572479812622,44.1516,6.613014798126221Q43.5788,6.230294798126221,42.9879,5.876144798126221Q42.3971,5.5219947981262205,41.7895,5.197264798126221Q41.182,4.872534798126221,40.5593,4.578004798126221Q39.9365,4.283474798126221,39.3001,4.019854798126221Q38.6637,3.7562347981262207,38.0151,3.524164798126221Q37.3665,3.2920947981262207,36.7073,3.0921247981262208Q36.0481,2.892154798126221,35.3798,2.7247717981262207Q34.7116,2.557389798126221,34.036,2.4229977981262207Q33.3603,2.2886057981262207,32.6789,2.187527798126221Q31.9975,2.0864497981262207,31.312,2.0189287981262205Q30.6264,1.9514072981262207,29.9384,1.9176060981262206Q29.2503,1.8838047981262207,28.5615,1.8838047981262207Q27.8726,1.8838047981262207,27.1846,1.9176060981262206Q26.4965,1.9514072981262207,25.811,2.0189287981262205Q25.1254,2.0864497981262207,24.444,2.187527798126221Q23.7626,2.2886057981262207,23.0869,2.4229977981262207Q22.4113,2.557389798126221,21.7431,2.7247717981262207Q21.0749,2.892154798126221,20.4156,3.0921247981262208Q19.7564,3.2920947981262207,19.1078,3.524164798126221Q18.4592,3.7562347981262207,17.8228,4.019854798126221Q17.1864,4.283474798126221,16.5636,4.578004798126221Q15.9409,4.872534798126221,15.3334,5.197264798126221Q14.7259,5.5219947981262205,14.135,5.876144798126221Q13.5441,6.230294798126221,12.9713,6.613014798126221Q12.3986,6.99572479812622,11.8453,7.406084798126221Q11.292,7.816444798126221,10.7595,8.25346479812622Q10.22695,8.690474798126221,9.71654,9.15309479812622Q9.20612,9.61571479812622,8.71901,10.102814798126222Q8.23191,10.589924798126221,7.76929,11.10034479812622Q7.30667,11.610754798126221,6.86966,12.14330479812622Q6.43264,12.67580479812622,6.02228,13.22910479812622Q5.61192,13.78240479812622,5.22921,14.35510479812622Q4.84649,14.927904798126221,4.49234,15.51880479812622Q4.13819,16.10970479812622,3.81346,16.717204798126218Q3.48873,17.32470479812622,3.1942,17.94740479812622Q2.89967,18.57020479812622,2.63605,19.20660479812622Q2.37243,19.84300479812622,2.1403600000000003,20.49160479812622Q1.90829,21.14020479812622,1.70832,21.799404798126222Q1.50835,22.45870479812622,1.340967,23.12690479812622Q1.173585,23.79510479812622,1.039193,24.47070479812622Q0.904801,25.14640479812622,0.803723,25.82780479812622Q0.702645,26.50920479812622,0.635124,27.19480479812622Q0.5676025,27.88030479812622,0.5338013,28.56840479812622Q0.5,29.25640479812622,0.5,29.94530479812622Q0.4999999999999988,31.07450479812622,0.5907328000000001,32.200004798126216Q0.681466,33.32560479812622,0.8623449999999999,34.44020479812622Q1.043224,35.55480479812622,1.313079,36.65130479812622Q1.58293,37.74780479812622,1.94002,38.81910479812622Q2.29711,39.89030479812622,2.73912,40.92940479812622Q3.18112,41.96850479812622,3.7052,42.96880479812622Q4.22927,43.96900479812622,4.83202,44.92390479812622Q5.43476,45.87880479812622,6.11229,46.78210479812622L4.24155,55.20060479812622L12.0151,52.60940479812622Q12.9088,53.261904798126224,13.8512,53.84200479812622Q14.7935,54.42210479812622,15.7786,54.92620479812622Q16.7637,55.43020479812622,17.7855,55.85520479812622Q18.8072,56.28010479812622,19.8593,56.62330479812622Q20.9113,56.96650479812622,21.9871,57.22570479812622Q23.0629,57.48500479812622,24.1557,57.65870479812622Q25.2486,57.83240479812622,26.3517,57.91960479812622Q27.4549,58.00670479812622,28.5615,58.00670479812622Z" fill-rule="evenodd" fill="#FFCF00" fill-opacity="1"/><path d="M28.5615,57.50670479812622Q33.8186,57.50670479812622,38.7067,55.571604798126224Q44.014,53.47050479812622,48.0504,49.434204798126224Q52.0867,45.39790479812622,54.1878,40.09050479812622Q56.1229,35.202404798126224,56.1229,29.94530479812622Q56.1229,24.688104798126222,54.1878,19.80000479812622Q52.0867,14.492704798126221,48.0504,10.456374798126221Q44.0141,6.420094798126221,38.7067,4.318944798126221Q33.8186,2.3838047981262207,28.5615,2.3838047981262207Q23.3043,2.3838047981262207,18.4162,4.318944798126221Q13.1088,6.42008479812622,9.07257,10.456374798126221Q5.03629,14.492704798126221,2.93514,19.80000479812622Q1,24.688104798126222,1,29.94530479812622Q1,39.132404798126224,6.51229,46.48210479812622L6.65027,46.66610479812622L4.72964,55.30900479812622L4.24155,55.20060479812622L4.08343,54.72620479812622L12.1016,52.05350479812622L12.3099,52.205604798126224Q19.571,57.50680479812622,28.5615,57.50670479812622ZM28.5615,58.50670479812622Q19.2449,58.50670479812622,11.7203,53.01320479812622L12.0151,52.60940479812622L12.1732,53.08370479812622L3.56189,55.95420479812622L5.62419,46.673704798126224L6.11229,46.78210479812622L5.71229,47.082104798126224Q0,39.46580479812622,0,29.94530479812622Q0,24.49730479812622,2.00535,19.431904798126222Q4.18272,13.93200479812622,8.365459999999999,9.74926479812622Q12.5482,5.56653479812622,18.0481,3.3891547981262207Q23.1136,1.3838047981262207,28.5615,1.3838047981262207Q34.0094,1.3838047981262207,39.0748,3.3891547981262207Q44.5747,5.56653479812622,48.7575,9.74926479812622Q52.9402,13.93210479812622,55.1176,19.431904798126222Q57.1229,24.497404798126222,57.1229,29.94530479812622Q57.1229,35.393104798126224,55.1176,40.458604798126224Q52.9402,45.95850479812622,48.7575,50.14130479812622Q44.5747,54.32400479812622,39.0748,56.501404798126224Q34.0093,58.50670479812622,28.5615,58.50670479812622Z" fill="#000000" fill-opacity="1"/></g><g filter="url(#master_svg0_0_1110)"><ellipse cx="50.16841650009155" cy="34.02977442741394" rx="2.8061461448669434" ry="1.4030730724334717" fill="#FF8C71" fill-opacity="1"/></g><g filter="url(#master_svg1_0_1111)"><ellipse cx="7.632288932800293" cy="34.02977442741394" rx="2.8061461448669434" ry="1.4030730724334717" fill="#FF8D6E" fill-opacity="1"/></g><g><path d="M22.898849568164064,42.72811233398438C22.693971368164064,43.08811233398438,22.819720568164062,43.54603233398437,23.179717368164063,43.750912333984374C23.539714368164063,43.95579233398438,23.997632368164062,43.83004233398437,24.20251236816406,43.470042333984374C24.20251236816406,43.470042333984374,22.898849568164064,42.72811233398438,22.898849568164064,42.72811233398438C22.898849568164064,42.72811233398438,22.898849568164064,42.72811233398438,22.898849568164064,42.72811233398438ZM33.84295236816406,43.476762333984375C34.05155236816406,43.83462233398438,34.51075236816406,43.955632333984376,34.86855236816406,43.747042333984375C35.22645236816406,43.53846233398438,35.34745236816406,43.079262333984374,35.138852368164066,42.72140233398437C35.138852368164066,42.72140233398437,33.84295236816406,43.476762333984375,33.84295236816406,43.476762333984375C33.84295236816406,43.476762333984375,33.84295236816406,43.476762333984375,33.84295236816406,43.476762333984375ZM23.550681368164064,43.09908233398438C24.20251236816406,43.470042333984374,24.202352368164064,43.47032233398438,24.202202368164063,43.470582333984375C24.202162368164064,43.47066233398438,24.202022368164062,43.47091233398437,24.20194236816406,43.471052333984375C24.20177236816406,43.471342333984374,24.201632368164063,43.471592333984376,24.201522368164063,43.471792333984375C24.20129236816406,43.472192333984374,24.201162368164063,43.47240233398438,24.201142368164064,43.472442333984375C24.201092368164062,43.47252233398437,24.201462368164062,43.471882333984375,24.20225236816406,43.47055233398437C24.203812368164062,43.46789233398437,24.20703236816406,43.46246233398438,24.21191236816406,43.45445233398438C24.22166236816406,43.43843233398437,24.238022368164064,43.41214233398438,24.26099236816406,43.377032333984374C24.306992368164064,43.306742333984374,24.379202368164062,43.201642333984374,24.477802368164063,43.07327233398438C24.675652368164062,42.815702333984376,24.975862368164062,42.469552333984375,25.37914236816406,42.123702333984376C26.183792368164063,41.43364233398437,27.379162368164064,40.759152333984375,28.99890236816406,40.758392333984375C28.99890236816406,40.758392333984375,28.998202368164062,39.25839313735637,28.998202368164062,39.25839313735637C26.92803236816406,39.259358136984375,25.399472368164062,40.13021333398437,24.402662368164062,40.985062333984374C23.90521236816406,41.41167233398438,23.53530936816406,41.83787233398438,23.28823336816406,42.15953233398437C23.16437036816406,42.320782333984376,23.070412368164064,42.457022333984376,23.00586036816406,42.55566233398437C22.973557368164062,42.60502233398437,22.948536368164064,42.645102333984376,22.930739368164062,42.67432233398438C22.921837368164063,42.68894233398437,22.914735368164063,42.700862333984375,22.909424368164064,42.70989233398438C22.906769368164063,42.714402333984374,22.904560368164063,42.718192333984376,22.902798368164063,42.72124233398438C22.901917368164064,42.72276233398438,22.901148368164062,42.724102333984376,22.900489568164062,42.725242333984376C22.90016056816406,42.725822333984375,22.89985956816406,42.72634233398438,22.89958656816406,42.72682233398437C22.899449568164062,42.72706233398438,22.899264568164064,42.727392333984376,22.89919656816406,42.727502333984376C22.899019568164064,42.72782233398438,22.898849568164064,42.72811233398438,23.550681368164064,43.09908233398438C23.550681368164064,43.09908233398438,23.550681368164064,43.09908233398438,23.550681368164064,43.09908233398438ZM28.99890236816406,40.758392333984375C30.619052368164063,40.757632333984375,31.82638236816406,41.432622333984376,32.64351236816406,42.125222333984375C33.052752368164064,42.47209233398438,33.35865236816406,42.819372333984376,33.56075236816406,43.07786233398438C33.66145236816406,43.206682333984375,33.73545236816406,43.31221233398438,33.782652368164065,43.38286233398438C33.806152368164064,43.418152333984374,33.82305236816406,43.44460233398438,33.83305236816406,43.46077233398437C33.83815236816406,43.46885233398437,33.84145236816406,43.47435233398438,33.84305236816407,43.47708233398438C33.84395236816406,43.478442333984376,33.84435236816406,43.479112333984375,33.844252368164064,43.47907233398438C33.844252368164064,43.47905233398438,33.84415236816406,43.478842333984375,33.84395236816406,43.478462333984375C33.843852368164065,43.47827233398438,33.843652368164065,43.47803233398437,33.84355236816406,43.47775233398438C33.843452368164066,43.47760233398438,33.84325236816406,43.477362333984374,33.84325236816406,43.47729233398437C33.84305236816407,43.477032333984376,33.84295236816406,43.476762333984375,34.49085236816406,43.09908233398438C35.138852368164066,42.72140233398437,35.13865236816406,42.72111233398437,35.13855236816406,42.72080233398437C35.13845236816406,42.72068233398438,35.13825236816406,42.72037233398437,35.138152368164064,42.720132333984374C35.13785236816406,42.719662333984374,35.137552368164066,42.71914233398437,35.13725236816406,42.718572333984376C35.13655236816406,42.71744233398437,35.13575236816406,42.71612233398437,35.13485236816406,42.71461233398438C35.13305236816406,42.71159233398438,35.130852368164064,42.707822333984375,35.128152368164066,42.703342333984374C35.122752368164065,42.69436233398437,35.115452368164064,42.68249233398438,35.106452368164064,42.667932333984375C35.08825236816406,42.63880233398437,35.06275236816406,42.59882233398437,35.029852368164065,42.54955233398437C34.96405236816406,42.45109233398438,34.86835236816406,42.31504233398437,34.74245236816407,42.153982333984374C34.49125236816406,41.83270233398437,34.11595236816406,41.40697233398438,33.61335236816406,40.98096233398437C32.606812368164064,40.12778733398437,31.06796236816406,39.257427136984376,28.998202368164062,39.25839313735637C28.998202368164062,39.25839313735637,28.99890236816406,40.758392333984375,28.99890236816406,40.758392333984375C28.99890236816406,40.758392333984375,28.99890236816406,40.758392333984375,28.99890236816406,40.758392333984375Z" fill="#000000" fill-opacity="1"/></g><g><ellipse cx="14.979826927185059" cy="25.920674800872803" rx="6.705831050872803" ry="6.705831050872803" fill="#FFFFFF" fill-opacity="1"/><ellipse cx="14.979826927185059" cy="25.920674800872803" rx="6.705831050872803" ry="6.705831050872803" fill-opacity="0" stroke-opacity="1" stroke="#000000" fill="none" stroke-width="0.5"/></g><g><ellipse cx="42.45301580429077" cy="25.920674800872803" rx="6.705831050872803" ry="6.705831050872803" fill="#FFFFFF" fill-opacity="1"/><ellipse cx="42.45301580429077" cy="25.920674800872803" rx="6.705831050872803" ry="6.705831050872803" fill-opacity="0" stroke-opacity="1" stroke="#000000" fill="none" stroke-width="0.5"/></g><g><ellipse cx="14.979654669761658" cy="25.920490622520447" rx="1.0472358465194702" ry="1.0472358465194702" fill="#000000" fill-opacity="1"/></g><g><ellipse cx="42.452844977378845" cy="25.920490622520447" rx="1.0472358465194702" ry="1.0472358465194702" fill="#000000" fill-opacity="1"/></g><g><path d="M49.451983463134766,3.189735693359375L49.22139346313477,3.500075693359375L51.22317346313476,4.887935693359375L51.44180346313477,4.618705693359375C52.28488346313477,3.580445693359375,53.11224346313477,3.010245693359375,53.915583463134766,2.831755693359375C54.70637346313477,2.656055693359375,55.540243463134765,2.845565693359375,56.43844346313477,3.468295693359375C57.27024346313476,4.045025693359375,57.73344346313476,4.701735693359375,57.88734346313477,5.432215693359375L57.888543463134766,5.437215693359375C58.055443463134765,6.178715693359375,57.90444346313477,6.902705693359375,57.39934346313477,7.631125693359375C57.05964346313476,8.121115693359375,56.69234346313476,8.438895693359374,56.304843463134766,8.613915693359376L56.30064346313476,8.615865693359375C55.910343463134765,8.797915693359375,55.02763346313476,9.028325693359376,53.600703463134764,9.299385693359374L53.597503463134764,9.300005693359376C52.17983346313476,9.582095693359374,51.09630346313477,9.942175693359374,50.38449346313477,10.399495693359375C49.692983463134766,10.835935693359374,49.032613463134766,11.488235693359375,48.39913346313477,12.338935693359375L48.167973463134764,12.649335693359374L50.27866346313476,14.112635693359374L50.49181346313477,13.805235693359375C51.13360346313477,12.879535693359376,51.655193463134765,12.345335693359376,52.05315346313476,12.127435693359375C52.466773463134764,11.900935693359376,53.380503463134765,11.661635693359376,54.862993463134764,11.430835693359375C56.21074346313476,11.236935693359374,57.210843463134765,10.996335693359375,57.82094346313477,10.691835693359375C58.44044346313477,10.382605693359375,58.97554346313477,9.888815693359374,59.43144346313477,9.231215693359376C60.329443463134766,7.936005693359375,60.624143463134764,6.575725693359375,60.27554346313477,5.174535693359375C59.95434346313476,3.780745693359375,59.10334346313476,2.620665693359375,57.76504346313477,1.692785693359375C57.12814346313476,1.251273693359375,56.43264346313477,0.926221693359375,55.680243463134765,0.718040693359375C54.94086346313477,0.502238513359375,54.17210346313477,0.447550993359375,53.37774346313476,0.551007293359375C52.59022346313476,0.640506693359375,51.89000346313477,0.8808786933593751,51.28647346313477,1.279804693359375L51.28174346313477,1.283035693359375C50.707193463134764,1.675575693359375,50.097913463134766,2.320365693359375,49.451983463134766,3.189735693359375ZM48.92797346313476,12.265635693359375C49.47041346313477,11.586735693359374,50.02295346313477,11.069835693359375,50.58550346313476,10.715035693359376C51.23734346313476,10.295855693359375,52.265663463134764,9.946505693359375,53.67051346313477,9.666965693359375C55.08972346313477,9.397375693359376,56.01914346313477,9.160035693359376,56.45884346313477,8.954935693359374C56.922743463134765,8.745435693359376,57.33874346313476,8.375225693359376,57.70684346313477,7.844305693359375C58.263943463134765,7.040755693359375,58.44614346313477,6.210995693359375,58.25354346313476,5.355045693359375C58.242343463134766,5.302175693359375,58.22984346313476,5.249745693359375,58.215943463134764,5.197765693359375C58.22984346313476,5.249805693359375,58.24244346313476,5.302295693359375,58.25354346313476,5.355235693359375C58.44624346313476,6.211195693359375,58.26404346313477,7.040945693359375,57.70694346313476,7.844495693359375C57.338843463134765,8.375405693359376,56.92284346313477,8.745625693359376,56.45884346313477,8.955125693359374C56.019243463134764,9.160225693359376,55.089783463134765,9.397565693359375,53.670573463134765,9.667155693359375C52.265713463134766,9.946685693359376,51.23736346313476,10.296085693359375,50.58558346313477,10.715235693359375C49.94368346313477,11.120135693359375,49.314933463134764,11.735835693359375,48.699333463134764,12.562435693359374L48.699203463134765,12.562435693359374C48.775273463134766,12.460235693359374,48.851513463134765,12.361335693359376,48.92797346313476,12.265635693359375ZM59.871843463134766,5.100545693359375C59.548643463134766,3.881945693359375,58.775243463134764,2.848515693359375,57.551843463134766,2.000265693359375Q56.64784346313476,1.373511693359375,55.577943463134766,1.077935693359375C54.889013463134766,0.876489693359375,54.170703463134764,0.824651693359375,53.42302346313477,0.922419693359375C52.685303463134765,1.005844693359375,52.04189346313477,1.229032693359375,51.492813463134766,1.591975693359375C51.031153463134764,1.907385693359375,50.52664346313477,2.415045693359375,49.97927346313477,3.114955693359375C49.904413463134766,3.210675693359375,49.82876346313476,3.309975693359375,49.75231346313477,3.412875693359375L49.752433463134764,3.412965693359375C50.38796346313477,2.557615693359375,50.96810346313477,1.950685693359375,51.49286346313477,1.592155693359375C52.041943463134764,1.2292226933593748,52.68535346313477,1.006036693359375,53.42307346313476,0.922611693359375C54.170753463134766,0.824839693359375,54.88906346313477,0.8766736933593751,55.57804346313476,1.078125693359375C56.29124346313476,1.275174693359375,56.94924346313476,1.582615693359375,57.551843463134766,2.000455693359375C58.775243463134764,2.848655693359375,59.54854346313476,3.882015693359375,59.871843463134766,5.100545693359375ZM45.53063917160477,16.429935693359376L47.660073463134765,17.917935693359375L49.32621346313476,15.506435693359375L47.18063346313477,14.050035693359375L45.53063917160477,16.429935693359376ZM46.051449463134766,16.335635693359375L47.27498346313477,14.570935693359376L48.93218346313476,15.719835693359375L48.932283463134766,15.719735693359375L47.274973463134764,14.570635693359375L46.05133346313477,16.335535693359375L46.051449463134766,16.335635693359375Z" fill-rule="evenodd" fill="#FFFFFF" fill-opacity="1"/><path d="M50.999633463134764,0.870224693359375Q50.09142346313477,1.490726693359375,49.050633463134766,2.891535693359375L48.51191346313477,3.616605693359375L51.319163463134764,5.562905693359375L51.82994346313477,4.933905693359375Q52.946093463134765,3.559345693359375,54.02402346313477,3.319855693359375Q55.02573346313476,3.097295693359375,56.15354346313477,3.879195693359375Q57.20234346313477,4.606345693359375,57.398143463134765,5.535345693359375L57.400743463134766,5.547295693359375Q57.60544346313476,6.456415693359375,56.988443463134764,7.346245693359375Q56.57434346313477,7.943595693359375,56.09904346313476,8.158225693359375L56.089443463134764,8.162635693359375Q55.52883346313477,8.424185693359375,53.50739346313477,8.808175693359376L53.502993463134764,8.809015693359376Q51.23151346313477,9.260995693359375,50.11422346313476,9.978835693359375Q49.018013463134764,10.670735693359376,47.99812346313477,12.040235693359374L47.458023463134765,12.765535693359375L50.404683463134766,14.808435693359375L50.90272346313476,14.090135693359375Q51.75511346313476,12.860635693359376,52.293263463134764,12.566035693359375Q52.87789346313477,12.245935693359375,54.93990346313477,11.924935693359375Q57.08964346313476,11.615635693359375,58.044143463134766,11.139235693359375Q59.07314346313477,10.625535693359375,59.84234346313477,9.516095693359375Q61.33514346313477,7.362965693359375,60.760743463134766,5.053835693359375Q60.24174346313477,2.801535693359375,58.04984346313476,1.281879693359375Q57.025043463134764,0.571327093359375,55.81364346313477,0.23614769335937502Q54.61350346313476,-0.11416030664062504,53.31317346313477,0.05519469335937499Q52.00813346313477,0.20344069335937498,51.010763463134765,0.8626896933593751L50.999633463134764,0.870224693359375ZM60.23344346313476,5.004615693359375C60.248343463134766,5.060855693359375,60.26234346313477,5.117495693359375,60.27554346313477,5.174535693359375C60.624143463134764,6.575725693359375,60.329443463134766,7.936005693359375,59.43144346313477,9.231215693359376C58.97554346313477,9.888815693359374,58.44044346313477,10.382605693359375,57.82094346313477,10.691835693359375C57.210843463134765,10.996335693359375,56.21074346313476,11.236935693359374,54.862993463134764,11.430835693359375C53.380503463134765,11.661635693359376,52.466773463134764,11.900935693359376,52.05315346313476,12.127435693359375C51.65549346313477,12.345135693359374,51.13438346313477,12.878735693359374,50.493253463134764,13.803135693359375L50.49181346313477,13.805235693359375L50.27866346313476,14.112635693359374L49.867763463134764,13.827735693359376L48.88689346313477,13.147735693359374L48.57911346313477,12.934335693359374L48.167973463134764,12.649335693359374L48.39913346313477,12.338935693359375C48.421803463134765,12.308435693359375,48.44449346313476,12.278235693359376,48.46723346313477,12.248335693359374C49.07990346313476,11.441835693359375,49.71772346313477,10.820335693359375,50.38449346313477,10.399495693359375C51.09630346313477,9.942175693359374,52.17983346313476,9.582095693359374,53.597503463134764,9.300005693359376L53.600703463134764,9.299385693359374C55.02763346313476,9.028325693359376,55.910343463134765,8.797915693359375,56.30064346313476,8.615865693359375L56.304843463134766,8.613915693359376C56.69234346313476,8.438895693359374,57.05964346313476,8.121115693359375,57.39934346313477,7.631125693359375C57.90444346313477,6.902705693359375,58.055443463134765,6.178715693359375,57.888543463134766,5.437215693359375L57.88734346313477,5.432215693359375C57.87764346313477,5.386065693359375,57.866643463134764,5.340215693359375,57.854443463134764,5.294655693359375L57.854443463134764,5.294575693359375C57.67334346313476,4.619025693359375,57.21764346313476,4.008565693359375,56.43844346313477,3.468295693359375C55.540243463134765,2.845565693359375,54.70637346313477,2.656055693359375,53.915583463134766,2.831755693359375C53.11224346313477,3.010245693359375,52.28488346313477,3.580445693359375,51.44180346313477,4.618705693359375L51.22317346313476,4.887935693359375L49.940293463134765,3.998495693359375L49.63252346313477,3.785115693359375L49.22139346313477,3.500075693359375L49.451983463134766,3.189735693359375L49.451983463134766,3.189725693359375C49.474723463134765,3.159115693359375,49.497423463134766,3.128785693359375,49.520073463134764,3.098735693359375C50.140773463134764,2.275265693359375,50.72742346313477,1.661755693359375,51.28174346313477,1.283035693359375L51.28647346313477,1.279804693359375C51.89000346313477,0.8808786933593751,52.59022346313476,0.640506693359375,53.37774346313476,0.551007293359375C54.17210346313477,0.447550993359375,54.94086346313477,0.502238513359375,55.680243463134765,0.718040693359375C56.43264346313477,0.926221693359375,57.12814346313476,1.251273693359375,57.76504346313477,1.692785693359375C59.04854346313476,2.582695693359375,59.88384346313477,3.686195693359375,60.23344346313476,5.004615693359375ZM49.75231346313477,3.412875693359375L49.75231346313477,3.412875693359375L49.752433463134764,3.412965693359375C49.77769346313477,3.378975693359375,49.80285346313477,3.345385693359375,49.82793346313477,3.312185693359375C50.43397346313476,2.509775693359375,50.98895346313476,1.936445693359375,51.49286346313477,1.592155693359375C52.041943463134764,1.2292226933593748,52.68535346313477,1.006036693359375,53.42307346313476,0.922611693359375C54.170753463134766,0.824839693359375,54.88906346313477,0.8766736933593751,55.57804346313476,1.078125693359375Q56.64784346313476,1.373699693359375,57.551843463134766,2.000455693359375C58.775243463134764,2.848655693359375,59.54854346313476,3.882015693359375,59.871843463134766,5.100545693359375C59.548643463134766,3.881945693359375,58.775243463134764,2.848515693359375,57.551843463134766,2.000265693359375Q56.64784346313476,1.373511693359375,55.577943463134766,1.077935693359375C54.889013463134766,0.876489693359375,54.170703463134764,0.824651693359375,53.42302346313477,0.922419693359375C52.685303463134765,1.005844693359375,52.04189346313477,1.229032693359375,51.492813463134766,1.591975693359375C51.031153463134764,1.907385693359375,50.52664346313477,2.415045693359375,49.97927346313477,3.114955693359375C49.929143463134764,3.179055693359375,49.87865346313477,3.244765693359375,49.827803463134764,3.312095693359375C49.80361346313477,3.344125693359375,49.77933346313476,3.376525693359375,49.75497346313477,3.409285693359375C49.754093463134765,3.410485693359375,49.75320346313477,3.411675693359375,49.75231346313477,3.412875693359375ZM48.69921346313477,12.562335693359374L48.699333463134764,12.562435693359374C48.72458346313476,12.528535693359375,48.749843463134766,12.495035693359375,48.77514346313477,12.461835693359374C49.36652346313477,11.685735693359375,49.970003463134766,11.103535693359374,50.58558346313477,10.715235693359375C51.23736346313476,10.296085693359375,52.265713463134766,9.946685693359376,53.670573463134765,9.667155693359375C55.089783463134765,9.397565693359375,56.019243463134764,9.160225693359376,56.45884346313477,8.955125693359374C56.92284346313477,8.745625693359376,57.338843463134765,8.375405693359376,57.70694346313476,7.844495693359375C58.26404346313477,7.040945693359375,58.44624346313476,6.211195693359375,58.25354346313476,5.355235693359375C58.24244346313476,5.302295693359375,58.22984346313476,5.249805693359375,58.215943463134764,5.197765693359375C58.22984346313476,5.249745693359375,58.242343463134766,5.302175693359375,58.25354346313476,5.355045693359375C58.44614346313477,6.210995693359375,58.263943463134765,7.040755693359375,57.70684346313477,7.844305693359375C57.33874346313476,8.375225693359376,56.922743463134765,8.745435693359376,56.45884346313477,8.954935693359374C56.01914346313477,9.160035693359376,55.08972346313477,9.397375693359376,53.670523463134764,9.666965693359375C52.265663463134764,9.946505693359375,51.23734346313476,10.295855693359375,50.58550346313476,10.715035693359376C50.02295346313477,11.069835693359375,49.47041346313477,11.586735693359374,48.92797346313476,12.265635693359375C48.87689346313476,12.329535693359375,48.82591346313477,12.394935693359376,48.77501346313477,12.461735693359374C48.75043346313477,12.494035693359375,48.725883463134764,12.526635693359376,48.70134346313476,12.559535693359376C48.700633463134764,12.560435693359375,48.69991346313476,12.561435693359375,48.69921346313477,12.562335693359374ZM47.05181346313476,13.358335693359376L44.83590346313476,16.554435693359373L45.244238463134764,16.839735693359376L47.785703463134766,18.615735693359376L50.02414346313476,15.375935693359375L47.05181346313476,13.358335693359376ZM46.24730346313476,16.930735693359374L45.53063917160477,16.429935693359376L45.743846463134766,16.122435693359375L47.18063346313477,14.050035693359375L48.91250346313477,15.225635693359376L49.158883463134764,15.392835693359375L49.32621346313476,15.506435693359375L49.04198346313476,15.917835693359375L48.814693463134766,16.246835693359372L47.94429346313476,17.506635693359375L47.660073463134765,17.917935693359375L47.250223463134766,17.631535693359375L46.24730346313476,16.930735693359374ZM47.685883463134765,14.855735693359374L48.68800346313476,15.550535693359375L48.93218346313476,15.719835693359375L48.932283463134766,15.719735693359375L48.87917346313476,15.682835693359374L48.688103463134766,15.550435693359375L47.68587346313477,14.855535693359375L47.37838346313477,14.642335693359374L47.274973463134764,14.570635693359375L47.20532346313477,14.671135693359375L46.990083463134766,14.981535693359374L46.12222446313476,16.233335693359376L46.05133346313477,16.335535693359375L46.051449463134766,16.335635693359375L46.06959546313477,16.309435693359376L46.12234046313477,16.233435693359375L46.990103463134766,14.981835693359375L46.99020346313477,14.981635693359374L47.20544346313476,14.671235693359375L47.27498346313477,14.570935693359376L47.378283463134764,14.642535693359376L47.685773463134765,14.855735693359374L47.685883463134765,14.855735693359374L47.685883463134765,14.855735693359374Z" fill-rule="evenodd" fill="#000000" fill-opacity="1"/></g></g></svg>