<svg xmlns="http://www.w3.org/2000/svg" xmlns:xlink="http://www.w3.org/1999/xlink" fill="none" version="1.1" width="57.1229248046875" height="62.658966064453125" viewBox="0 0 57.1229248046875 62.658966064453125"><defs><filter id="master_svg0_0_1023" filterUnits="objectBoundingBox" color-interpolation-filters="sRGB" x="-1" y="-1" width="7.612292289733887" height="4.806146144866943"><feFlood flood-opacity="0" result="BackgroundImageFix"/><feBlend mode="normal" in="SourceGraphic" in2="BackgroundImageFix" result="shape"/><feGaussianBlur stdDeviation="0.25" result="effect1_foregroundBlur"/></filter><filter id="master_svg1_0_1024" filterUnits="objectBoundingBox" color-interpolation-filters="sRGB" x="-1" y="-1" width="7.612292289733887" height="4.806146144866943"><feFlood flood-opacity="0" result="BackgroundImageFix"/><feBlend mode="normal" in="SourceGraphic" in2="BackgroundImageFix" result="shape"/><feGaussianBlur stdDeviation="0.25" result="effect1_foregroundBlur"/></filter><mask id="master_svg2_0_1034" style="mask-type:alpha" maskUnits="userSpaceOnUse"><g><ellipse cx="28.561457633972168" cy="47.771645069122314" rx="7.48305606842041" ry="6.638718128204346" fill="#FFFFFF" fill-opacity="1"/></g></mask></defs><g><g><path d="M28.5615,62.15893172302246Q29.2503,62.15893172302246,29.9384,62.12513172302246Q30.6264,62.09133172302246,31.312,62.02383172302246Q31.9975,61.95633172302246,32.6789,61.85523172302246Q33.3603,61.75413172302246,34.036,61.61973172302246Q34.7116,61.48533172302246,35.3798,61.31793172302246Q36.0481,61.150631723022464,36.7073,60.95063172302246Q37.3665,60.75063172302246,38.0151,60.51863172302246Q38.6637,60.28653172302246,39.3001,60.02293172302246Q39.9365,59.75923172302246,40.5593,59.46473172302246Q41.182,59.17023172302246,41.7895,58.84553172302246Q42.3971,58.52073172302246,42.9879,58.16663172302246Q43.5788,57.81243172302246,44.1516,57.42973172302246Q44.7243,57.047031723022464,45.2776,56.63663172302246Q45.831,56.22633172302246,46.3635,55.789331723022464Q46.896,55.35223172302246,47.4064,54.88963172302246Q47.9168,54.42703172302246,48.4039,53.93993172302246Q48.891,53.45283172302246,49.3536,52.94243172302246Q49.8162,52.43203172302246,50.2533,51.89953172302246Q50.6903,51.367031723022464,51.1006,50.81363172302246Q51.511,50.26033172302246,51.8937,49.68763172302246Q52.2764,49.11483172302246,52.6306,48.523931723022464Q52.9847,47.93313172302246,53.3095,47.32553172302246Q53.6342,46.71803172302246,53.9287,46.09533172302246Q54.2232,45.47253172302246,54.4869,44.83613172302246Q54.7505,44.19973172302246,54.9826,43.55113172302246Q55.2146,42.90253172302246,55.4146,42.24333172302246Q55.6146,41.58413172302246,55.782,40.915831723022464Q55.9493,40.24763172302246,56.0837,39.57203172302246Q56.2181,38.89633172302246,56.3192,38.21493172302246Q56.4203,37.53353172302246,56.4878,36.84803172302246Q56.5553,36.162431723022465,56.5891,35.47443172302246Q56.6229,34.78633172302246,56.6229,34.097531723022456Q56.6229,33.40863172302246,56.5891,32.720631723022464Q56.5553,32.03253172302246,56.4878,31.34703172302246Q56.4203,30.66143172302246,56.3192,29.98003172302246Q56.2181,29.29863172302246,56.0837,28.62293172302246Q55.9493,27.94733172302246,55.7819,27.27913172302246Q55.6146,26.61093172302246,55.4146,25.951631723022462Q55.2146,25.29243172302246,54.9826,24.643831723022462Q54.7505,23.99523172302246,54.4869,23.358831723022462Q54.2232,22.72243172302246,53.9287,22.099631723022462Q53.6342,21.47693172302246,53.3095,20.86943172302246Q52.9847,20.26193172302246,52.6306,19.67103172302246Q52.2764,19.08013172302246,51.8937,18.50733172302246Q51.511,17.934631723022463,51.1006,17.381331723022463Q50.6903,16.828031723022463,50.2533,16.29553172302246Q49.8162,15.762981723022461,49.3536,15.252571723022461Q48.891,14.742151723022461,48.4039,14.255041723022462Q47.9168,13.76794172302246,47.4064,13.30532172302246Q46.896,12.842701723022461,46.3635,12.40569172302246Q45.831,11.96867172302246,45.2776,11.558311723022461Q44.7243,11.14795172302246,44.1516,10.765241723022461Q43.5788,10.38252172302246,42.9879,10.028371723022461Q42.3971,9.67422172302246,41.7895,9.34949172302246Q41.182,9.024761723022461,40.5593,8.730231723022461Q39.9365,8.435701723022461,39.3001,8.172081723022462Q38.6637,7.9084617230224605,38.0151,7.676391723022461Q37.3665,7.444321723022461,36.7073,7.244351723022461Q36.0481,7.044381723022461,35.3798,6.876998723022461Q34.7116,6.709616723022461,34.036,6.575224723022461Q33.3603,6.440832723022461,32.6789,6.339754723022461Q31.9975,6.238676723022461,31.312,6.171155723022461Q30.6264,6.1036342230224605,29.9384,6.069833023022461Q29.2503,6.036031723022461,28.5615,6.036031723022461Q27.8726,6.036031723022461,27.1846,6.069833023022461Q26.4965,6.1036342230224605,25.811,6.171155723022461Q25.1254,6.238676723022461,24.444,6.339754723022461Q23.7626,6.440832723022461,23.0869,6.575224723022461Q22.4113,6.709616723022461,21.7431,6.876998723022461Q21.0749,7.044381723022461,20.4156,7.244351723022461Q19.7564,7.444321723022461,19.1078,7.676391723022461Q18.4592,7.9084617230224605,17.8228,8.172081723022462Q17.1864,8.435701723022461,16.5636,8.730231723022461Q15.9409,9.024761723022461,15.3334,9.34949172302246Q14.7259,9.67422172302246,14.135,10.028371723022461Q13.5441,10.38252172302246,12.9713,10.765241723022461Q12.3986,11.14795172302246,11.8453,11.558311723022461Q11.292,11.96867172302246,10.7595,12.40569172302246Q10.22695,12.842701723022461,9.71654,13.30532172302246Q9.20612,13.76794172302246,8.71901,14.255041723022462Q8.23191,14.742151723022461,7.76929,15.252571723022461Q7.30667,15.762981723022461,6.86966,16.29553172302246Q6.43264,16.828031723022463,6.02228,17.381331723022463Q5.61192,17.934631723022463,5.22921,18.50733172302246Q4.84649,19.08013172302246,4.49234,19.67103172302246Q4.13819,20.26193172302246,3.81346,20.86943172302246Q3.48873,21.47693172302246,3.1942,22.099631723022462Q2.89967,22.72243172302246,2.63605,23.358831723022462Q2.37243,23.99523172302246,2.1403600000000003,24.643831723022462Q1.90829,25.29243172302246,1.70832,25.951631723022462Q1.50835,26.61093172302246,1.340967,27.27913172302246Q1.173585,27.94733172302246,1.039193,28.62293172302246Q0.904801,29.29863172302246,0.803723,29.98003172302246Q0.702645,30.66143172302246,0.635124,31.34703172302246Q0.5676025,32.03253172302246,0.5338013,32.720631723022464Q0.5,33.40863172302246,0.5,34.097531723022456Q0.4999999999999988,35.22673172302246,0.5907328000000001,36.352231723022456Q0.681466,37.47783172302246,0.8623449999999999,38.59243172302246Q1.043224,39.70703172302246,1.313079,40.80353172302246Q1.58293,41.90003172302246,1.94002,42.97133172302246Q2.29711,44.04253172302246,2.73912,45.08163172302246Q3.18112,46.12073172302246,3.7052,47.12103172302246Q4.22927,48.12123172302246,4.83202,49.07613172302246Q5.43476,50.03103172302246,6.11229,50.93433172302246L4.24155,59.35283172302246L12.0151,56.76163172302246Q12.9088,57.414131723022464,13.8512,57.99423172302246Q14.7935,58.57433172302246,15.7786,59.07843172302246Q16.7637,59.58243172302246,17.7855,60.007431723022464Q18.8072,60.43233172302246,19.8593,60.77553172302246Q20.9113,61.118731723022464,21.9871,61.37793172302246Q23.0629,61.63723172302246,24.1557,61.81093172302246Q25.2486,61.98463172302246,26.3517,62.07183172302246Q27.4549,62.15893172302246,28.5615,62.15893172302246Z" fill-rule="evenodd" fill="#FFCF00" fill-opacity="1"/><path d="M28.5615,61.65893172302246Q33.8186,61.65893172302246,38.7067,59.723831723022464Q44.014,57.62273172302246,48.0504,53.586431723022464Q52.0867,49.55013172302246,54.1878,44.24273172302246Q56.1229,39.354631723022464,56.1229,34.097531723022456Q56.1229,28.840331723022462,54.1878,23.95223172302246Q52.0867,18.64493172302246,48.0504,14.608601723022462Q44.0141,10.572321723022462,38.7067,8.471171723022461Q33.8186,6.536031723022461,28.5615,6.536031723022461Q23.3043,6.536031723022461,18.4162,8.471171723022461Q13.1088,10.57231172302246,9.07257,14.608601723022462Q5.03629,18.64493172302246,2.93514,23.95223172302246Q1,28.840331723022462,1,34.097531723022456Q1,43.284631723022464,6.51229,50.63433172302246L6.65027,50.81833172302246L4.72964,59.46123172302246L4.24155,59.35283172302246L4.08343,58.87843172302246L12.1016,56.20573172302246L12.3099,56.357831723022464Q19.571,61.65903172302246,28.5615,61.65893172302246ZM28.5615,62.65893172302246Q19.2449,62.65893172302246,11.7203,57.16543172302246L12.0151,56.76163172302246L12.1732,57.23593172302246L3.56189,60.10643172302246L5.62419,50.825931723022464L6.11229,50.93433172302246L5.71229,51.234331723022464Q0,43.61803172302246,0,34.097531723022456Q0,28.64953172302246,2.00535,23.584131723022463Q4.18272,18.084231723022462,8.365459999999999,13.90149172302246Q12.5482,9.71876172302246,18.0481,7.541381723022461Q23.1136,5.536031723022461,28.5615,5.536031723022461Q34.0094,5.536031723022461,39.0748,7.541381723022461Q44.5747,9.71876172302246,48.7575,13.90149172302246Q52.9402,18.08433172302246,55.1176,23.584131723022463Q57.1229,28.649631723022463,57.1229,34.097531723022456Q57.1229,39.545331723022464,55.1176,44.610831723022464Q52.9402,50.11073172302246,48.7575,54.29353172302246Q44.5747,58.47623172302246,39.0748,60.653631723022464Q34.0093,62.65893172302246,28.5615,62.65893172302246Z" fill="#000000" fill-opacity="1"/></g><g filter="url(#master_svg0_0_1023)"><ellipse cx="46.31955862045288" cy="38.774372816085815" rx="2.8061461448669434" ry="1.4030730724334717" fill="#FF8C71" fill-opacity="1"/></g><g filter="url(#master_svg1_0_1024)"><ellipse cx="10.78920316696167" cy="38.774372816085815" rx="2.8061461448669434" ry="1.4030730724334717" fill="#FF8D6E" fill-opacity="1"/></g><g><path d="M38.58062082214355,5.1375C38.58062082214355,5.1375,39.02542082214355,4.90903,39.02542082214355,4.90903C39.02542082214355,4.90903,38.58062082214355,5.1375,38.58062082214355,5.1375C38.58062082214355,5.1375,38.58062082214355,5.1375,38.58062082214355,5.1375ZM39.02542082214355,4.90903C38.74672082214355,4.36658,38.202720822143554,3.97549,37.55112082214356,3.68512C36.89062082214355,3.39071,36.05372082214355,3.1705,35.092320822143556,3.0087C33.167620822143554,2.68476,30.657620822143556,2.58124,27.860820822143555,2.64053C27.860820822143555,2.64053,27.882020822143556,3.64031,27.882020822143556,3.64031C30.653020822143553,3.58156,33.09152082214355,3.68601,34.92632082214355,3.99483C35.844820822143554,4.14941,36.59052082214355,4.35178,37.144120822143556,4.59851C37.70672082214355,4.84926,38.008420822143556,5.11785,38.135920822143554,5.36597C38.135920822143554,5.36597,39.02542082214355,4.90903,39.02542082214355,4.90903C39.02542082214355,4.90903,39.02542082214355,4.90903,39.02542082214355,4.90903ZM27.860820822143555,2.64053C25.050220822143554,2.70012,22.002620822143555,3.0598,19.641720822143554,3.76669C18.464220822143552,4.11923,17.423520822143555,4.56799,16.666820822143556,5.13378C15.908580822143554,5.70072,15.374710822143555,6.43533,15.374710822143555,7.34872C15.374710822143555,7.34872,16.374720822143555,7.34872,16.374720822143555,7.34872C16.374720822143555,6.87123,16.644420822143555,6.39912,17.265620822143553,5.93466C17.888320822143555,5.46905,18.802820822143556,5.06172,19.928520822143554,4.72467C22.174020822143554,4.05235,25.124720822143555,3.69876,27.882020822143556,3.64031C27.882020822143556,3.64031,27.860820822143555,2.64053,27.860820822143555,2.64053C27.860820822143555,2.64053,27.860820822143555,2.64053,27.860820822143555,2.64053ZM15.374710822143555,7.34872C15.374710822143555,8.3789,16.272620822143555,9.07758,17.391320822143555,9.56251C18.557920822143554,10.0682,20.211320822143556,10.454,22.208320822143556,10.7473C26.212320822143553,11.3354,31.736620822143554,11.5702,37.854920822143555,11.5702C37.854920822143555,11.5702,37.854920822143555,10.5702,37.854920822143555,10.5702C31.749620822143555,10.5702,26.283920822143553,10.3352,22.353620822143554,9.75795C20.383520822143552,9.46859,18.833720822143555,9.09787,17.789020822143556,8.64501C16.696420822143555,8.17137,16.374720822143555,7.70941,16.374720822143555,7.34872C16.374720822143555,7.34872,15.374710822143555,7.34872,15.374710822143555,7.34872C15.374710822143555,7.34872,15.374710822143555,7.34872,15.374710822143555,7.34872ZM37.854920822143555,11.5702C43.97912082214356,11.5702,47.04302082214355,10.8267,48.583120822143556,9.91459C49.37082082214356,9.44804,49.781520822143555,8.92468,49.976720822143555,8.41974C50.166820822143556,7.92804,50.12862082214355,7.49714,50.12642082214356,7.3418C50.12642082214356,7.3418,49.126520822143554,7.35564,49.126520822143554,7.35564C49.12942082214356,7.56682,49.15022082214355,7.78437,49.04402082214355,8.05918C48.942920822143556,8.32075,48.70202082214355,8.68196,48.07352082214356,9.05416C46.781120822143556,9.81957,43.95412082214356,10.5702,37.854920822143555,10.5702C37.854920822143555,10.5702,37.854920822143555,11.5702,37.854920822143555,11.5702C37.854920822143555,11.5702,37.854920822143555,11.5702,37.854920822143555,11.5702ZM50.12642082214356,7.3418C50.124220822143556,7.18229,50.063220822143556,7.03379,50.01282082214355,6.93095C49.95502082214355,6.81302,49.875220822143554,6.6847,49.77712082214355,6.54989C49.58042082214355,6.27929,49.29042082214355,5.95517,48.89832082214355,5.59909C48.11252082214355,4.88557,46.89672082214356,4.02595,45.141920822143554,3.19711C41.630820822143555,1.53867,35.95462082214355,-0.000342943,27.214920822143554,5.73225e-8C27.214920822143554,5.73225e-8,27.214920822143554,1,27.214920822143554,1C35.839320822143556,0.999662,41.36382082214355,2.51848,44.714920822143554,4.10132C46.39122082214355,4.8931,47.52192082214356,5.69998,48.22612082214356,6.33942C48.57892082214355,6.65983,48.81992082214355,6.9338,48.96832082214355,7.138C49.04292082214356,7.24059,49.089320822143556,7.31884,49.11492082214355,7.37104C49.147920822143554,7.43833,49.127420822143556,7.42352,49.126520822143554,7.35564C49.126520822143554,7.35564,50.12642082214356,7.3418,50.12642082214356,7.3418C50.12642082214356,7.3418,50.12642082214356,7.3418,50.12642082214356,7.3418ZM27.214920822143554,5.73225e-8C18.487420822143555,0.000342057,13.166940822143555,1.37914,10.025180822143554,2.99001C8.453230822143555,3.796,7.4172908221435545,4.66509,6.777680822143555,5.45769C6.152791822143555,6.23204,5.867244322143555,6.9857,5.916945322143555,7.54867C5.916945322143555,7.54867,6.913070822143554,7.46073,6.913070822143554,7.46073C6.895952822143554,7.26682,7.006470822143555,6.76653,7.555890822143555,6.08569C8.090600822143555,5.42309,9.007220822143555,4.63574,10.481440822143554,3.87986C13.432020822143555,2.36701,18.578320822143553,1.00034,27.214920822143554,1C27.214920822143554,1,27.214920822143554,5.73225e-8,27.214920822143554,5.73225e-8C27.214920822143554,5.73225e-8,27.214920822143554,5.73225e-8,27.214920822143554,5.73225e-8ZM5.916945322143555,7.54867C6.082956822143554,9.42911,8.496460822143554,13.4718,17.451220822143554,13.0739C17.451220822143554,13.0739,17.406820822143555,12.0749,17.406820822143555,12.0749C8.760250822143554,12.4591,7.014340822143555,8.60785,6.913070822143554,7.46073C6.913070822143554,7.46073,5.916945322143555,7.54867,5.916945322143555,7.54867C5.916945322143555,7.54867,5.916945322143555,7.54867,5.916945322143555,7.54867ZM38.135920822143554,5.36597C38.203620822143556,5.49784,38.20862082214355,5.57779,38.20452082214356,5.61915C38.200620822143556,5.65851,38.18462082214356,5.70374,38.13562082214356,5.76134C38.021020822143555,5.89636,37.779120822143554,6.03569,37.426020822143556,6.15358C37.089320822143556,6.26602,36.72022082214356,6.33687,36.427720822143556,6.37945C36.28312082214356,6.40049,36.16092082214355,6.41411,36.075620822143556,6.42241C36.03312082214356,6.42655,35.99992082214355,6.42935,35.97792082214356,6.43108C35.96692082214355,6.43194,35.95882082214355,6.43254,35.95372082214355,6.4329C35.95112082214355,6.43308,35.949320822143555,6.4332,35.94832082214356,6.43327C35.947820822143555,6.4333,35.94752082214356,6.43332,35.947420822143556,6.43332C35.947420822143556,6.43333,35.947420822143556,6.43333,35.947420822143556,6.43332C35.947420822143556,6.43332,35.94752082214356,6.43332,35.94752082214356,6.43332C35.947620822143556,6.43331,35.94772082214355,6.4333,35.97902082214355,6.93233C36.01022082214355,7.43135,36.010320822143555,7.43134,36.010520822143555,7.43133C36.010520822143555,7.43133,36.010720822143554,7.43132,36.01082082214356,7.43131C36.01112082214355,7.4313,36.011420822143556,7.43128,36.011820822143555,7.43125C36.01252082214356,7.4312,36.01342082214356,7.43114,36.014620822143556,7.43107C36.01682082214356,7.43092,36.019920822143554,7.43071,36.023820822143556,7.43043C36.03162082214355,7.42989,36.04252082214356,7.42909,36.056320822143554,7.428C36.08402082214356,7.42583,36.123320822143555,7.42249,36.172520822143554,7.41771C36.27072082214356,7.40815,36.40892082214356,7.39272,36.571720822143554,7.36902C36.893920822143556,7.32212,37.327520822143555,7.24074,37.74272082214355,7.10211C38.14162082214356,6.96894,38.60092082214356,6.75838,38.897920822143554,6.40864C39.054820822143554,6.22386,39.17222082214356,5.99299,39.19962082214356,5.71802C39.226720822143555,5.44505,39.16072082214355,5.17245,39.02542082214355,4.90903C39.02542082214355,4.90903,38.135920822143554,5.36597,38.135920822143554,5.36597C38.135920822143554,5.36597,38.135920822143554,5.36597,38.135920822143554,5.36597Z" fill="#000000" fill-opacity="1"/></g><g transform="matrix(0.903461217880249,0.42866986989974976,-0.42866986989974976,0.903461217880249,1.1475504832286276,-2.1880999109744437)"><path d="M8.242723199310303,1.5319045283996582C8.266033199310304,1.4276795283996582,8.414583199310304,1.4276795283996582,8.437893199310302,1.5319045283996582C8.437893199310302,1.5319045283996582,9.141353199310302,4.676445828399658,9.141353199310302,4.676445828399658C9.147263199310302,4.702875828399659,9.163643199310304,4.725765828399658,9.186733199310304,4.7399058283996585C9.186733199310304,4.7399058283996585,11.201033199310302,5.972795828399658,11.201033199310302,5.972795828399658C11.264763199310302,6.011805828399658,11.264763199310302,6.104375828399658,11.201033199310302,6.1433858283996585C11.201033199310302,6.1433858283996585,9.186733199310304,7.376275828399658,9.186733199310304,7.376275828399658C9.163643199310304,7.390415828399658,9.147263199310302,7.413315828399658,9.141353199310302,7.439735828399658C9.141353199310302,7.439735828399658,8.437893199310302,10.584275828399658,8.437893199310302,10.584275828399658C8.414583199310304,10.688505828399657,8.266033199310304,10.688505828399657,8.242723199310303,10.584275828399658C8.242723199310303,10.584275828399658,7.5392631993103025,7.439735828399658,7.5392631993103025,7.439735828399658C7.533353199310303,7.413315828399658,7.516973199310303,7.390415828399658,7.493883199310303,7.376275828399658C7.493883199310303,7.376275828399658,5.479578399310303,6.1433858283996585,5.479578399310303,6.1433858283996585C5.415851399310303,6.104375828399658,5.415851599310303,6.011805828399658,5.479578399310303,5.972795828399658C5.479578399310303,5.972795828399658,7.493883199310303,4.7399058283996585,7.493883199310303,4.7399058283996585C7.516973199310303,4.725765828399658,7.533353199310303,4.702875828399659,7.5392631993103025,4.676445828399658C7.5392631993103025,4.676445828399658,8.242723199310303,1.5319045283996582,8.242723199310303,1.5319045283996582C8.242723199310303,1.5319045283996582,8.242723199310303,1.5319045283996582,8.242723199310303,1.5319045283996582Z" fill="#FEFFB4" fill-opacity="1"/><path d="M4.931783199310303,6.058085828399658Q4.931783199310303,6.394295828399658,5.218556199310303,6.569845828399658L7.088313199310303,7.714265828399658L7.754773199310303,10.693395828399659Q7.859673199310302,11.162445828399658,8.340303199310302,11.162445828399658Q8.820933199310304,11.162445828399658,8.925833199310302,10.693425828399658L9.592293199310303,7.714265828399658L11.462063199310304,6.5698358283996585Q11.748823199310303,6.394305828399658,11.748823199310303,6.058085828399658Q11.748823199310303,5.721875828399658,11.462053199310303,5.546335828399658L9.592293199310303,4.401915828399658L8.925833199310302,1.4227755283996582Q8.820933199310304,0.9537358283996582,8.340303199310302,0.9537358283996582Q7.8596931993103025,0.9537358283996582,7.754783199310303,1.4227484283996583L7.754773199310303,1.4227756283996582L7.088313199310303,4.401915828399658L5.218532199310303,5.546345828399658Q4.931783199310303,5.7218858283996585,4.931783199310303,6.058085828399658ZM8.524623199310302,1.9196298283996582L8.437893199310302,1.5319045283996582C8.414583199310304,1.4276795283996582,8.266033199310304,1.4276795283996582,8.242723199310303,1.5319045283996582L8.155983199310302,1.9196298283996582L8.084123199310303,2.240837828399658L7.5392631993103025,4.676445828399658C7.533353199310303,4.702875828399659,7.516973199310303,4.725765828399658,7.493883199310303,4.7399058283996585L5.819110199310303,5.764975828399658L5.811319199310303,5.7697458283996585L5.479578399310303,5.972795828399658C5.415851599310303,6.011805828399658,5.415851399310303,6.104375828399658,5.479578399310303,6.1433858283996585L5.811322199310303,6.346435828399658L5.819109199310303,6.351195828399658L7.493883199310303,7.376275828399658C7.516973199310303,7.390415828399658,7.533353199310303,7.413315828399658,7.5392631993103025,7.439735828399658L8.084123199310303,9.875345828399658L8.155983199310302,10.196545828399659L8.242723199310303,10.584275828399658C8.266033199310304,10.688505828399657,8.414583199310304,10.688505828399657,8.437893199310302,10.584275828399658L8.524623199310302,10.196555828399658L8.596483199310303,9.875345828399658L9.141353199310302,7.439735828399658C9.147263199310302,7.413315828399658,9.163643199310304,7.390415828399658,9.186733199310304,7.376275828399658L10.861503199310302,6.351195828399658L10.869283199310303,6.346435828399658L11.201033199310302,6.1433858283996585C11.264763199310302,6.104375828399658,11.264763199310302,6.011805828399658,11.201033199310302,5.972795828399658L10.869283199310303,5.7697458283996585L10.861503199310302,5.764975828399658L9.186733199310304,4.7399058283996585C9.163643199310304,4.725765828399658,9.147263199310302,4.702875828399659,9.141353199310302,4.676445828399658L8.596483199310303,2.240837828399658L8.524623199310302,1.9196298283996582Z" fill-rule="evenodd" fill="#000000" fill-opacity="1"/></g><g transform="matrix(-0.9201927781105042,0.39146557450294495,0.39146551489830017,0.9201927781105042,93.3929333303628,-19.03981662186621)"><path d="M51.400819575195314,3.469680993951416C51.42412957519531,3.365455993951416,51.57267957519531,3.365455993951416,51.59598957519531,3.469681993951416C51.59598957519531,3.469681993951416,52.09989957519531,5.722222393951416,52.09989957519531,5.722222393951416C52.10581957519531,5.748652393951415,52.122189575195314,5.771552393951416,52.145289575195314,5.785692393951416C52.145289575195314,5.785692393951416,53.62031957519531,6.688512393951417,53.62031957519531,6.688512393951417C53.68404957519531,6.727522393951416,53.68404957519531,6.820092393951416,53.62031957519531,6.8591023939514155C53.62031957519531,6.8591023939514155,52.145289575195314,7.761922393951416,52.145289575195314,7.761922393951416C52.122189575195314,7.776062393951416,52.10581957519531,7.798962393951416,52.09989957519531,7.825382393951416C52.09989957519531,7.825382393951416,51.59598957519531,10.077932393951416,51.59598957519531,10.077932393951416C51.57267957519531,10.182152393951416,51.42412957519531,10.182152393951416,51.400819575195314,10.077932393951416C51.400819575195314,10.077932393951416,50.89690957519531,7.825382393951416,50.89690957519531,7.825382393951416C50.89099957519531,7.798962393951416,50.87461957519531,7.776062393951416,50.85151957519531,7.761922393951416C50.85151957519531,7.761922393951416,49.376484675195314,6.8591023939514155,49.376484675195314,6.8591023939514155C49.31275787519531,6.820092393951416,49.31275787519531,6.727522393951416,49.376484675195314,6.688512393951417C49.376484675195314,6.688512393951417,50.85151957519531,5.785692393951416,50.85151957519531,5.785692393951416C50.87461957519531,5.771552393951416,50.89099957519531,5.748652393951415,50.89690957519531,5.7222323939514155C50.89690957519531,5.7222323939514155,51.400819575195314,3.469680993951416,51.400819575195314,3.469680993951416C51.400819575195314,3.469680993951416,51.400819575195314,3.469680993951416,51.400819575195314,3.469680993951416Z" fill="#FEFFB4" fill-opacity="1"/><path d="M50.91287957519531,3.360525793951416L50.912869575195316,3.360551593951416L50.44595957519531,5.4476923939514155L49.115440575195315,6.262062393951416Q48.82868957519531,6.437592393951416,48.82868957519531,6.773802393951415Q48.82868957519531,7.110012393951417,49.11546257519531,7.285562393951416L50.44595957519531,8.099912393951417L50.912869575195316,10.187062393951416Q50.96184957519531,10.406042393951417,51.14004957519531,10.538182393951416Q51.29906957519531,10.656092393951415,51.498399575195315,10.656092393951415Q51.697739575195314,10.656092393951415,51.85674957519531,10.538182393951416Q52.03494957519531,10.406042393951417,52.08392957519531,10.187082393951416L52.55083957519531,8.099922393951417L53.881349575195316,7.285552393951416Q54.16810957519531,7.110022393951416,54.16810957519531,6.773802393951415Q54.16810957519531,6.437592393951416,53.88133957519531,6.262052393951416L52.55083957519531,5.4476923939514155L52.08392957519531,3.360553593951416Q52.034959575195316,3.141577393951416,51.85675957519531,3.009433393951416Q51.697739575195314,2.891513393951416,51.498399575195315,2.891512393951416Q51.299059575195315,2.891511393951416,51.14003957519531,3.009431393951416Q50.96185957519531,3.141567393951416,50.91287957519531,3.360525793951416ZM51.59598957519531,3.469681993951416C51.57267957519531,3.365455993951416,51.42412957519531,3.365455993951416,51.400819575195314,3.469680993951416L51.314079575195315,3.857407393951416L51.242219575195314,4.178618393951416L50.89690957519531,5.7222323939514155C50.89099957519531,5.748652393951415,50.87461957519531,5.771552393951416,50.85151957519531,5.785692393951416L49.716015575195314,6.480692393951416L49.708225575195314,6.4854623939514155L49.376484675195314,6.688512393951417C49.31275787519531,6.727522393951416,49.31275787519531,6.820092393951416,49.376484675195314,6.8591023939514155L49.708228575195314,7.062152393951417L49.716015575195314,7.066922393951415L50.85151957519531,7.761922393951416C50.87461957519531,7.776062393951416,50.89099957519531,7.798962393951416,50.89690957519531,7.825382393951416L51.242219575195314,9.368992393951416L51.314079575195315,9.690202393951417L51.400819575195314,10.077932393951416C51.42412957519531,10.182152393951416,51.57267957519531,10.182152393951416,51.59598957519531,10.077932393951416L51.682719575195314,9.690202393951417L51.754579575195315,9.368992393951416L52.09989957519531,7.825382393951416C52.10581957519531,7.798962393951416,52.122189575195314,7.776062393951416,52.145289575195314,7.761922393951416L53.28077957519531,7.066922393951415L53.28856957519531,7.062152393951417L53.62031957519531,6.8591023939514155C53.68404957519531,6.820092393951416,53.68404957519531,6.727522393951416,53.62031957519531,6.688512393951417L53.28856957519531,6.4854623939514155L53.28077957519531,6.480692393951416L52.145289575195314,5.785692393951416C52.122189575195314,5.771552393951416,52.10581957519531,5.748652393951415,52.09989957519531,5.722222393951416L51.754579575195315,4.178618393951416L51.682719575195314,3.857407393951416L51.59598957519531,3.469681993951416Z" fill-rule="evenodd" fill="#000000" fill-opacity="1"/></g><g><path d="M16.74422319671631,28.216234486694336C16.491563196716307,28.104794486694335,16.196403196716307,28.219274486694335,16.08496319671631,28.471934486694337C15.973523196716307,28.724594486694336,16.088013196716307,29.019754486694335,16.340663196716307,29.131184486694337C16.340663196716307,29.131184486694337,16.74422319671631,28.216234486694336,16.74422319671631,28.216234486694336C16.74422319671631,28.216234486694336,16.74422319671631,28.216234486694336,16.74422319671631,28.216234486694336ZM22.856853196716308,28.785214486694336C22.856853196716308,28.785214486694336,23.34085319671631,28.910964486694336,23.34085319671631,28.910964486694336C23.34085319671631,28.910964486694336,22.856853196716308,28.785214486694336,22.856853196716308,28.785214486694336C22.856853196716308,28.785214486694336,22.856853196716308,28.785214486694336,22.856853196716308,28.785214486694336ZM19.82435319671631,36.923264486694336C20.089253196716307,36.84516448669434,20.24065319671631,36.56716448669434,20.16255319671631,36.302264486694334C20.08445319671631,36.03736448669434,19.80635319671631,35.88606448669434,19.541553196716308,35.96416448669434C19.541553196716308,35.96416448669434,19.82435319671631,36.923264486694336,19.82435319671631,36.923264486694336C19.82435319671631,36.923264486694336,19.82435319671631,36.923264486694336,19.82435319671631,36.923264486694336ZM16.340663196716307,29.131184486694337C17.370303196716307,29.585324486694336,18.25565319671631,29.612684486694334,18.91829319671631,29.234844486694335C19.58185319671631,28.856504486694334,19.87925319671631,28.153314486694335,19.90385319671631,27.463034486694337C19.95235319671631,26.103864486694334,18.94615319671631,24.459654486694337,16.98265319671631,24.459654486694337C16.98265319671631,24.459654486694337,16.98265319671631,25.459654486694337,16.98265319671631,25.459654486694337C18.26345319671631,25.459654486694337,18.937213196716307,26.510524486694337,18.90452319671631,27.427404486694336C18.88855319671631,27.875154486694335,18.705163196716306,28.205224486694334,18.42296319671631,28.366144486694335C18.13988319671631,28.527554486694335,17.61463319671631,28.600144486694337,16.74422319671631,28.216234486694336C16.74422319671631,28.216234486694336,16.340663196716307,29.131184486694337,16.340663196716307,29.131184486694337C16.340663196716307,29.131184486694337,16.340663196716307,29.131184486694337,16.340663196716307,29.131184486694337ZM16.98265319671631,24.459654486694337C15.667993196716308,24.459654486694337,14.607923196716309,24.905754486694335,13.880643196716308,25.704864486694337C13.159533196716309,26.497194486694337,12.812923196716309,27.584164486694334,12.812923196716309,28.785214486694336C12.812923196716309,28.785214486694336,13.812923196716309,28.785214486694336,13.812923196716309,28.785214486694336C13.812923196716309,27.770184486694337,14.104693196716308,26.944374486694336,14.620203196716307,26.377954486694335C15.129553196716309,25.818294486694334,15.904343196716308,25.459654486694337,16.98265319671631,25.459654486694337C16.98265319671631,25.459654486694337,16.98265319671631,24.459654486694337,16.98265319671631,24.459654486694337C16.98265319671631,24.459654486694337,16.98265319671631,24.459654486694337,16.98265319671631,24.459654486694337ZM12.812923196716309,28.785214486694336C12.812923196716309,31.26516448669434,15.065263196716309,33.01176448669433,17.39691319671631,33.29946448669433C18.58591319671631,33.446164486694336,19.84875319671631,33.228864486694334,20.93415319671631,32.51946448669433C22.024653196716308,31.806564486694334,22.89595319671631,30.622864486694336,23.34085319671631,28.910964486694336C23.34085319671631,28.910964486694336,22.37295319671631,28.659454486694337,22.37295319671631,28.659454486694337C21.98215319671631,30.163424486694336,21.242653196716308,31.123064486694336,20.38695319671631,31.682364486694336C19.52605319671631,32.245164486694335,18.50744319671631,32.42886448669434,17.51936319671631,32.30696448669433C15.496883196716308,32.057464486694336,13.812923196716309,30.588104486694334,13.812923196716309,28.785214486694336C13.812923196716309,28.785214486694336,12.812923196716309,28.785214486694336,12.812923196716309,28.785214486694336C12.812923196716309,28.785214486694336,12.812923196716309,28.785214486694336,12.812923196716309,28.785214486694336ZM23.34085319671631,28.910964486694336C23.95385319671631,26.551824486694336,23.36935319671631,24.587764486694336,22.10925319671631,23.192374486694337C20.86425319671631,21.813711486694334,18.994453196716307,21.026029486694338,17.07521319671631,20.910682186694334C15.152453196716309,20.795122486694336,13.134003196716309,21.351431486694334,11.591003196716308,22.721964486694336C10.039083196716309,24.100414486694337,9.016753196716309,26.259164486694335,9.016753196716309,29.249144486694334C9.016753196716309,29.249144486694334,10.016753196716309,29.249144486694334,10.016753196716309,29.249144486694334C10.016753196716309,26.500294486694337,10.948073196716308,24.630544486694337,12.25509319671631,23.469614486694336C13.571033196716309,22.300764486694337,15.316823196716308,21.806806486694335,17.01522319671631,21.908884486694337C18.717143196716307,22.011164486694337,20.325353196716307,22.709024486694336,21.36715319671631,23.862574486694335C22.393653196716308,24.999404486694335,22.90445319671631,26.614234486694336,22.37295319671631,28.659454486694337C22.37295319671631,28.659454486694337,23.34085319671631,28.910964486694336,23.34085319671631,28.910964486694336C23.34085319671631,28.910964486694336,23.34085319671631,28.910964486694336,23.34085319671631,28.910964486694336ZM9.016753196716309,29.249144486694334C9.016753196716309,32.42826448669434,10.57350319671631,34.704264486694335,12.712913196716308,35.99956448669434C14.833703196716309,37.283664486694335,17.52079319671631,37.60266448669434,19.82435319671631,36.923264486694336C19.82435319671631,36.923264486694336,19.541553196716308,35.96416448669434,19.541553196716308,35.96416448669434C17.50384319671631,36.56506448669434,15.10784319671631,36.280664486694334,13.230843196716307,35.144164486694336C11.372463196716309,34.01906448669433,10.016753196716309,32.057664486694335,10.016753196716309,29.249144486694334C10.016753196716309,29.249144486694334,9.016753196716309,29.249144486694334,9.016753196716309,29.249144486694334C9.016753196716309,29.249144486694334,9.016753196716309,29.249144486694334,9.016753196716309,29.249144486694334Z" fill="#000000" fill-opacity="1"/></g><g><path d="M40.969153959960934,28.216234486694336C40.716493959960935,28.104794486694335,40.42133395996094,28.219274486694335,40.30989395996094,28.471934486694337C40.198453959960936,28.724594486694336,40.31294395996094,29.019754486694335,40.565593959960935,29.131184486694337C40.565593959960935,29.131184486694337,40.969153959960934,28.216234486694336,40.969153959960934,28.216234486694336C40.969153959960934,28.216234486694336,40.969153959960934,28.216234486694336,40.969153959960934,28.216234486694336ZM47.08178395996094,28.785214486694336C47.08178395996094,28.785214486694336,47.56578395996094,28.910964486694336,47.56578395996094,28.910964486694336C47.56578395996094,28.910964486694336,47.08178395996094,28.785214486694336,47.08178395996094,28.785214486694336C47.08178395996094,28.785214486694336,47.08178395996094,28.785214486694336,47.08178395996094,28.785214486694336ZM44.04928395996094,36.923264486694336C44.314183959960936,36.84516448669434,44.46558395996094,36.56716448669434,44.38748395996094,36.302264486694334C44.30938395996094,36.03736448669434,44.03128395996094,35.88606448669434,43.76648395996094,35.96416448669434C43.76648395996094,35.96416448669434,44.04928395996094,36.923264486694336,44.04928395996094,36.923264486694336C44.04928395996094,36.923264486694336,44.04928395996094,36.923264486694336,44.04928395996094,36.923264486694336ZM40.565593959960935,29.131184486694337C41.595233959960936,29.585324486694336,42.48058395996094,29.612684486694334,43.143223959960935,29.234844486694335C43.80678395996094,28.856504486694334,44.104183959960935,28.153314486694335,44.12878395996094,27.463034486694337C44.17728395996094,26.103864486694334,43.17108395996094,24.459654486694337,41.207583959960935,24.459654486694337C41.207583959960935,24.459654486694337,41.207583959960935,25.459654486694337,41.207583959960935,25.459654486694337C42.48838395996094,25.459654486694337,43.162143959960936,26.510524486694337,43.12945395996094,27.427404486694336C43.11348395996094,27.875154486694335,42.930093959960935,28.205224486694334,42.64789395996094,28.366144486694335C42.36481395996094,28.527554486694335,41.83956395996094,28.600144486694337,40.969153959960934,28.216234486694336C40.969153959960934,28.216234486694336,40.565593959960935,29.131184486694337,40.565593959960935,29.131184486694337C40.565593959960935,29.131184486694337,40.565593959960935,29.131184486694337,40.565593959960935,29.131184486694337ZM41.207583959960935,24.459654486694337C39.89292395996094,24.459654486694337,38.832853959960936,24.905754486694335,38.105573959960935,25.704864486694337C37.38446395996094,26.497194486694337,37.03785395996094,27.584164486694334,37.03785395996094,28.785214486694336C37.03785395996094,28.785214486694336,38.03785395996094,28.785214486694336,38.03785395996094,28.785214486694336C38.03785395996094,27.770184486694337,38.32962395996094,26.944374486694336,38.84513395996094,26.377954486694335C39.35448395996094,25.818294486694334,40.12927395996094,25.459654486694337,41.207583959960935,25.459654486694337C41.207583959960935,25.459654486694337,41.207583959960935,24.459654486694337,41.207583959960935,24.459654486694337C41.207583959960935,24.459654486694337,41.207583959960935,24.459654486694337,41.207583959960935,24.459654486694337ZM37.03785395996094,28.785214486694336C37.03785395996094,31.26516448669434,39.29019395996094,33.01176448669433,41.62184395996094,33.29946448669433C42.810843959960934,33.446164486694336,44.07368395996094,33.228864486694334,45.15908395996094,32.51946448669433C46.24958395996094,31.806564486694334,47.120883959960935,30.622864486694336,47.56578395996094,28.910964486694336C47.56578395996094,28.910964486694336,46.59788395996094,28.659454486694337,46.59788395996094,28.659454486694337C46.20708395996094,30.163424486694336,45.46758395996093,31.123064486694336,44.611883959960934,31.682364486694336C43.750983959960934,32.245164486694335,42.73237395996094,32.42886448669434,41.74429395996094,32.30696448669433C39.72181395996094,32.057464486694336,38.03785395996094,30.588104486694334,38.03785395996094,28.785214486694336C38.03785395996094,28.785214486694336,37.03785395996094,28.785214486694336,37.03785395996094,28.785214486694336C37.03785395996094,28.785214486694336,37.03785395996094,28.785214486694336,37.03785395996094,28.785214486694336ZM47.56578395996094,28.910964486694336C48.17878395996094,26.551824486694336,47.59428395996094,24.587764486694336,46.33418395996094,23.192374486694337C45.089183959960934,21.813711486694334,43.219383959960936,21.026029486694338,41.300143959960934,20.910682186694334C39.37738395996094,20.795122486694336,37.358933959960936,21.351431486694334,35.81593395996094,22.721964486694336C34.264013959960934,24.100414486694337,33.24168395996094,26.259164486694335,33.24168395996094,29.249144486694334C33.24168395996094,29.249144486694334,34.24168395996094,29.249144486694334,34.24168395996094,29.249144486694334C34.24168395996094,26.500294486694337,35.17300395996094,24.630544486694337,36.48002395996094,23.469614486694336C37.795963959960936,22.300764486694337,39.541753959960936,21.806806486694335,41.240153959960935,21.908884486694337C42.942073959960936,22.011164486694337,44.550283959960936,22.709024486694336,45.59208395996094,23.862574486694335C46.61858395996094,24.999404486694335,47.12938395996094,26.614234486694336,46.59788395996094,28.659454486694337C46.59788395996094,28.659454486694337,47.56578395996094,28.910964486694336,47.56578395996094,28.910964486694336C47.56578395996094,28.910964486694336,47.56578395996094,28.910964486694336,47.56578395996094,28.910964486694336ZM33.24168395996094,29.249144486694334C33.24168395996094,32.42826448669434,34.79843395996094,34.704264486694335,36.93784395996094,35.99956448669434C39.058633959960936,37.283664486694335,41.74572395996094,37.60266448669434,44.04928395996094,36.923264486694336C44.04928395996094,36.923264486694336,43.76648395996094,35.96416448669434,43.76648395996094,35.96416448669434C41.72877395996094,36.56506448669434,39.33277395996094,36.280664486694334,37.455773959960936,35.144164486694336C35.59739395996094,34.01906448669433,34.24168395996094,32.057664486694335,34.24168395996094,29.249144486694334C34.24168395996094,29.249144486694334,33.24168395996094,29.249144486694334,33.24168395996094,29.249144486694334C33.24168395996094,29.249144486694334,33.24168395996094,29.249144486694334,33.24168395996094,29.249144486694334Z" fill="#000000" fill-opacity="1"/></g><g><path d="M17.066857254333495,6.472261813488769C17.090177254333497,6.36803681348877,17.238717254333494,6.36803781348877,17.262037254333496,6.472262713488769C17.262037254333496,6.472262713488769,18.097467254333495,10.20675351348877,18.097467254333495,10.20675351348877C18.103377254333495,10.233173513488769,18.119757254333496,10.256073513488769,18.142847254333496,10.27021351348877C18.142847254333496,10.27021351348877,20.513807254333496,11.72140351348877,20.513807254333496,11.72140351348877C20.577537254333496,11.76041351348877,20.577537254333496,11.85298351348877,20.513807254333496,11.891993513488769C20.513807254333496,11.891993513488769,18.142847254333496,13.34318351348877,18.142847254333496,13.34318351348877C18.119757254333496,13.357323513488769,18.103377254333495,13.380223513488769,18.097467254333495,13.40664351348877C18.097467254333495,13.40664351348877,17.262037254333496,17.14109351348877,17.262037254333496,17.14109351348877C17.238717254333494,17.245293513488768,17.090177254333497,17.245293513488768,17.066857254333495,17.14109351348877C17.066857254333495,17.14109351348877,16.231427254333497,13.40664351348877,16.231427254333497,13.40664351348877C16.225517254333496,13.380223513488769,16.209137254333495,13.357323513488769,16.186047254333495,13.34318351348877C16.186047254333495,13.34318351348877,13.815082354333496,11.891993513488769,13.815082354333496,11.891993513488769C13.751355654333496,11.85298351348877,13.751355554333497,11.76041351348877,13.815082354333496,11.72140351348877C13.815082354333496,11.72140351348877,16.186047254333495,10.27021351348877,16.186047254333495,10.27021351348877C16.209137254333495,10.256073513488769,16.225517254333496,10.233173513488769,16.231427254333497,10.20675351348877C16.231427254333497,10.20675351348877,17.066857254333495,6.472261813488769,17.066857254333495,6.472261813488769C17.066857254333495,6.472261813488769,17.066857254333495,6.472261813488769,17.066857254333495,6.472261813488769Z" fill="#FEFFB4" fill-opacity="1"/><path d="M13.267287254333496,11.80669351348877Q13.267287254333496,12.142903513488768,13.554060254333496,12.31845351348877L15.780477254333496,13.681173513488769L16.578927254333497,17.25029351348877Q16.683877254333495,17.719293513488772,17.164447254333496,17.719293513488772Q17.645017254333496,17.719293513488772,17.749977254333494,17.25029351348877L18.548407254333497,13.681173513488769L20.774837254333498,12.31844351348877Q21.061597254333495,12.14291351348877,21.061597254333495,11.80669351348877Q21.061597254333495,11.47048351348877,20.774827254333495,11.29494351348877L18.548407254333497,9.93222351348877L17.749967254333498,6.36308941348877Q17.645037254333495,5.894096513488769,17.164447254333496,5.8940935134887695Q16.683857254333496,5.89409051348877,16.578917254333497,6.36308751348877L16.578917254333497,6.36310641348877L15.780477254333496,9.93222351348877L13.554036254333496,11.29495351348877Q13.267287254333496,11.470493513488769,13.267287254333496,11.80669351348877ZM17.262037254333496,6.472262713488769C17.238717254333494,6.36803781348877,17.090177254333497,6.36803681348877,17.066857254333495,6.472261813488769L16.980117254333496,6.8599835134887694L16.908267254333495,7.18117851348877L16.231427254333497,10.20675351348877C16.225517254333496,10.233173513488769,16.209137254333495,10.256073513488769,16.186047254333495,10.27021351348877L14.154613254333496,11.513583513488769L14.146823254333496,11.51835351348877L13.815082354333496,11.72140351348877C13.751355554333497,11.76041351348877,13.751355654333496,11.85298351348877,13.815082354333496,11.891993513488769L14.146826254333495,12.095043513488768L14.154613254333496,12.09980351348877L16.186047254333495,13.34318351348877C16.209137254333495,13.357323513488769,16.225517254333496,13.380223513488769,16.231427254333497,13.40664351348877L16.908267254333495,16.43219351348877L16.980117254333496,16.753393513488767L17.066857254333495,17.14109351348877C17.090177254333497,17.245293513488768,17.238717254333494,17.245293513488768,17.262037254333496,17.14109351348877L17.348777254333495,16.753393513488767L17.420627254333496,16.43219351348877L18.097467254333495,13.40664351348877C18.103377254333495,13.380223513488769,18.119757254333496,13.357323513488769,18.142847254333496,13.34318351348877L20.174277254333497,12.09980351348877L20.182057254333497,12.095043513488768L20.513807254333496,11.891993513488769C20.577537254333496,11.85298351348877,20.577537254333496,11.76041351348877,20.513807254333496,11.72140351348877L20.182057254333497,11.51835351348877L20.174267254333497,11.513583513488769L18.142847254333496,10.27021351348877C18.119757254333496,10.256073513488769,18.103377254333495,10.233173513488769,18.097467254333495,10.20675351348877L17.420627254333496,7.18117751348877L17.348767254333495,6.8599835134887694L17.262037254333496,6.472262713488769Z" fill-rule="evenodd" fill="#000000" fill-opacity="1"/></g><g><g><ellipse cx="28.561457633972168" cy="47.771645069122314" rx="7.48305606842041" ry="6.638718128204346" fill="#000000" fill-opacity="1"/></g><g mask="url(#master_svg2_0_1034)"><g><path d="M28.56146156555176,49.43144226074219C23.884551565551757,49.43144226074219,22.01378356555176,52.75080226074219,21.078401565551758,54.410482260742185C21.078401565551758,54.410482260742185,36.044501565551755,54.410482260742185,36.044501565551755,54.410482260742185C35.109101565551754,52.75080226074219,33.238401565551754,49.43144226074219,28.56146156555176,49.43144226074219C28.56146156555176,49.43144226074219,28.56146156555176,49.43144226074219,28.56146156555176,49.43144226074219Z" fill="#D50B00" fill-opacity="1"/></g></g></g></g></svg>