<svg xmlns="http://www.w3.org/2000/svg" xmlns:xlink="http://www.w3.org/1999/xlink" fill="none" version="1.1" width="57.1229248046875" height="57.1229248046875" viewBox="0 0 57.1229248046875 57.1229248046875"><defs><filter id="master_svg0_0_896" filterUnits="objectBoundingBox" color-interpolation-filters="sRGB" x="-1" y="-1" width="7.612292289733887" height="4.806146144866943"><feFlood flood-opacity="0" result="BackgroundImageFix"/><feBlend mode="normal" in="SourceGraphic" in2="BackgroundImageFix" result="shape"/><feGaussianBlur stdDeviation="0.25" result="effect1_foregroundBlur"/></filter><filter id="master_svg1_0_897" filterUnits="objectBoundingBox" color-interpolation-filters="sRGB" x="-1" y="-1" width="7.612292289733887" height="4.806146144866943"><feFlood flood-opacity="0" result="BackgroundImageFix"/><feBlend mode="normal" in="SourceGraphic" in2="BackgroundImageFix" result="shape"/><feGaussianBlur stdDeviation="0.25" result="effect1_foregroundBlur"/></filter></defs><g><g><path d="M28.5615,56.6229Q29.2503,56.6229,29.9384,56.5891Q30.6264,56.5553,31.312,56.4878Q31.9975,56.4203,32.6789,56.3192Q33.3603,56.2181,34.036,56.0837Q34.7116,55.9493,35.3798,55.7819Q36.0481,55.6146,36.7073,55.4146Q37.3665,55.2146,38.0151,54.9826Q38.6637,54.7505,39.3001,54.4869Q39.9365,54.2232,40.5593,53.9287Q41.182,53.6342,41.7895,53.3095Q42.3971,52.9847,42.9879,52.6306Q43.5788,52.2764,44.1516,51.8937Q44.7243,51.511,45.2776,51.1006Q45.831,50.6903,46.3635,50.2533Q46.896,49.8162,47.4064,49.3536Q47.9168,48.891,48.4039,48.4039Q48.891,47.9168,49.3536,47.4064Q49.8162,46.896,50.2533,46.3635Q50.6903,45.831,51.1006,45.2776Q51.511,44.7243,51.8937,44.1516Q52.2764,43.5788,52.6306,42.9879Q52.9847,42.3971,53.3095,41.7895Q53.6342,41.182,53.9287,40.5593Q54.2232,39.9365,54.4869,39.3001Q54.7505,38.6637,54.9826,38.0151Q55.2146,37.3665,55.4146,36.7073Q55.6146,36.0481,55.782,35.3798Q55.9493,34.7116,56.0837,34.036Q56.2181,33.3603,56.3192,32.6789Q56.4203,31.9975,56.4878,31.312Q56.5553,30.6264,56.5891,29.9384Q56.6229,29.2503,56.6229,28.5615Q56.6229,27.8726,56.5891,27.1846Q56.5553,26.4965,56.4878,25.811Q56.4203,25.1254,56.3192,24.444Q56.2181,23.7626,56.0837,23.0869Q55.9493,22.4113,55.7819,21.7431Q55.6146,21.0749,55.4146,20.4156Q55.2146,19.7564,54.9826,19.1078Q54.7505,18.4592,54.4869,17.8228Q54.2232,17.1864,53.9287,16.5636Q53.6342,15.9409,53.3095,15.3334Q52.9847,14.7259,52.6306,14.135Q52.2764,13.5441,51.8937,12.9713Q51.511,12.3986,51.1006,11.8453Q50.6903,11.292,50.2533,10.7595Q49.8162,10.22695,49.3536,9.71654Q48.891,9.20612,48.4039,8.71901Q47.9168,8.23191,47.4064,7.76929Q46.896,7.30667,46.3635,6.86966Q45.831,6.43264,45.2776,6.02228Q44.7243,5.61192,44.1516,5.22921Q43.5788,4.84649,42.9879,4.49234Q42.3971,4.13819,41.7895,3.81346Q41.182,3.48873,40.5593,3.1942Q39.9365,2.89967,39.3001,2.63605Q38.6637,2.37243,38.0151,2.1403600000000003Q37.3665,1.90829,36.7073,1.70832Q36.0481,1.50835,35.3798,1.340967Q34.7116,1.173585,34.036,1.039193Q33.3603,0.904801,32.6789,0.803723Q31.9975,0.702645,31.312,0.635124Q30.6264,0.5676025,29.9384,0.5338013Q29.2503,0.5,28.5615,0.5Q27.8726,0.5,27.1846,0.5338013Q26.4965,0.5676025,25.811,0.635124Q25.1254,0.702645,24.444,0.803723Q23.7626,0.904801,23.0869,1.039193Q22.4113,1.173585,21.7431,1.340967Q21.0749,1.50835,20.4156,1.70832Q19.7564,1.90829,19.1078,2.1403600000000003Q18.4592,2.37243,17.8228,2.63605Q17.1864,2.89967,16.5636,3.1942Q15.9409,3.48873,15.3334,3.81346Q14.7259,4.13819,14.135,4.49234Q13.5441,4.84649,12.9713,5.22921Q12.3986,5.61192,11.8453,6.02228Q11.292,6.43264,10.7595,6.86966Q10.22695,7.30667,9.71654,7.76929Q9.20612,8.23191,8.71901,8.71901Q8.23191,9.20612,7.76929,9.71654Q7.30667,10.22695,6.86966,10.7595Q6.43264,11.292,6.02228,11.8453Q5.61192,12.3986,5.22921,12.9713Q4.84649,13.5441,4.49234,14.135Q4.13819,14.7259,3.81346,15.3334Q3.48873,15.9409,3.1942,16.5636Q2.89967,17.1864,2.63605,17.8228Q2.37243,18.4592,2.1403600000000003,19.1078Q1.90829,19.7564,1.70832,20.4156Q1.50835,21.0749,1.340967,21.7431Q1.173585,22.4113,1.039193,23.0869Q0.904801,23.7626,0.803723,24.444Q0.702645,25.1254,0.635124,25.811Q0.5676025,26.4965,0.5338013,27.1846Q0.5,27.8726,0.5,28.5615Q0.4999999999999988,29.6907,0.5907328000000001,30.8162Q0.681466,31.9418,0.8623449999999999,33.0564Q1.043224,34.171,1.313079,35.2675Q1.58293,36.364,1.94002,37.4353Q2.29711,38.5065,2.73912,39.5456Q3.18112,40.5847,3.7052,41.585Q4.22927,42.5852,4.83202,43.5401Q5.43476,44.495,6.11229,45.3983L4.24155,53.8168L12.0151,51.2256Q12.9088,51.8781,13.8512,52.4582Q14.7935,53.0383,15.7786,53.5424Q16.7637,54.0464,17.7855,54.4714Q18.8072,54.8963,19.8593,55.2395Q20.9113,55.5827,21.9871,55.8419Q23.0629,56.1012,24.1557,56.2749Q25.2486,56.4486,26.3517,56.5358Q27.4549,56.6229,28.5615,56.6229Z" fill-rule="evenodd" fill="#A2D250" fill-opacity="1"/><path d="M28.5615,56.1229Q33.8186,56.1229,38.7067,54.1878Q44.014,52.0867,48.0504,48.0504Q52.0867,44.0141,54.1878,38.7067Q56.1229,33.8186,56.1229,28.5615Q56.1229,23.3043,54.1878,18.4162Q52.0867,13.1089,48.0504,9.07257Q44.0141,5.03629,38.7067,2.93514Q33.8186,1,28.5615,1Q23.3043,1,18.4162,2.93514Q13.1088,5.03628,9.07257,9.07257Q5.03629,13.1089,2.93514,18.4162Q1,23.3043,1,28.5615Q1,37.7486,6.51229,45.0983L6.65027,45.2823L4.72964,53.9252L4.24155,53.8168L4.08343,53.3424L12.1016,50.6697L12.3099,50.8218Q19.571,56.123,28.5615,56.1229ZM28.5615,57.1229Q19.2449,57.1229,11.7203,51.6294L12.0151,51.2256L12.1732,51.6999L3.56189,54.5704L5.62419,45.2899L6.11229,45.3983L5.71229,45.6983Q0,38.082,0,28.5615Q0,23.1135,2.00535,18.0481Q4.18272,12.5482,8.365459999999999,8.365459999999999Q12.5482,4.182729999999999,18.0481,2.00535Q23.1136,0,28.5615,0Q34.0094,0,39.0748,2.00535Q44.5747,4.182729999999999,48.7575,8.365459999999999Q52.9402,12.5483,55.1176,18.0481Q57.1229,23.1136,57.1229,28.5615Q57.1229,34.0093,55.1176,39.0748Q52.9402,44.5747,48.7575,48.7575Q44.5747,52.9402,39.0748,55.1176Q34.0093,57.1229,28.5615,57.1229Z" fill="#000000" fill-opacity="1"/></g><g transform="matrix(0.876794159412384,0.48086586594581604,-0.48086586594581604,0.876794159412384,19.556626435820192,-17.8170945969199)" filter="url(#master_svg0_0_896)"><ellipse cx="47.35405111312866" cy="30.658766508102417" rx="2.8061461448669434" ry="1.4030730724334717" fill="#D0DD8E" fill-opacity="1"/></g><g transform="matrix(-0.8767940998077393,0.480866014957428,0.48086586594581604,0.876794159412384,10.149824127927957,-2.6005554783714615)" filter="url(#master_svg1_0_897)"><ellipse cx="15.71000623703003" cy="30.658766508102417" rx="2.8061461448669434" ry="1.4030730724334717" fill="#D0DD8E" fill-opacity="1"/></g><g><ellipse cx="39.31835079193115" cy="22.013793468475342" rx="3.273837089538574" ry="4.676909923553467" fill="#000000" fill-opacity="1"/></g><g><ellipse cx="16.869186401367188" cy="22.013793468475342" rx="3.273837089538574" ry="4.676909923553467" fill="#000000" fill-opacity="1"/></g><g><path d="M21.578405815734865,8.918431282043457C21.578405815734865,8.642289282043457,21.354545815734863,8.418431282043457,21.078405815734865,8.418431282043457C20.802265815734863,8.418431282043457,20.578405815734865,8.642289282043457,20.578405815734865,8.918431282043457C20.578405815734865,8.918431282043457,21.578405815734865,8.918431282043457,21.578405815734865,8.918431282043457C21.578405815734865,8.918431282043457,21.578405815734865,8.918431282043457,21.578405815734865,8.918431282043457ZM15.368053815734863,14.040431282043457C15.097273815734864,14.094591282043456,14.921665915734863,14.358001282043457,14.975821925734863,14.628781282043457C15.029977915734863,14.899561282043457,15.293389815734864,15.075171282043456,15.564169815734862,15.021011282043457C15.564169815734862,15.021011282043457,15.368053815734863,14.040431282043457,15.368053815734863,14.040431282043457C15.368053815734863,14.040431282043457,15.368053815734863,14.040431282043457,15.368053815734863,14.040431282043457ZM20.578405815734865,8.918431282043457C20.578405815734865,10.526261282043457,18.900855815734865,13.333871282043457,15.368053815734863,14.040431282043457C15.368053815734863,14.040431282043457,15.564169815734862,15.021011282043457,15.564169815734862,15.021011282043457C19.514435815734863,14.230961282043456,21.578405815734865,11.052121282043457,21.578405815734865,8.918431282043457C21.578405815734865,8.918431282043457,20.578405815734865,8.918431282043457,20.578405815734865,8.918431282043457C20.578405815734865,8.918431282043457,20.578405815734865,8.918431282043457,20.578405815734865,8.918431282043457Z" fill="#000000" fill-opacity="1"/></g><g transform="matrix(-1,0,0,1,84.31380462646484,0)"><path d="M48.76929231323242,8.918431282043457C48.76929231323242,8.642289282043457,48.545432313232425,8.418431282043457,48.26929231323242,8.418431282043457C47.99315231323242,8.418431282043457,47.76929231323242,8.642289282043457,47.76929231323242,8.918431282043457C47.76929231323242,8.918431282043457,48.76929231323242,8.918431282043457,48.76929231323242,8.918431282043457C48.76929231323242,8.918431282043457,48.76929231323242,8.918431282043457,48.76929231323242,8.918431282043457ZM42.55894031323242,14.040431282043457C42.288160313232424,14.094591282043456,42.11255241323242,14.358001282043457,42.16670842323242,14.628781282043457C42.22086441323242,14.899561282043457,42.48427631323242,15.075171282043456,42.75505631323242,15.021011282043457C42.75505631323242,15.021011282043457,42.55894031323242,14.040431282043457,42.55894031323242,14.040431282043457C42.55894031323242,14.040431282043457,42.55894031323242,14.040431282043457,42.55894031323242,14.040431282043457ZM47.76929231323242,8.918431282043457C47.76929231323242,10.526261282043457,46.09174231323242,13.333871282043457,42.55894031323242,14.040431282043457C42.55894031323242,14.040431282043457,42.75505631323242,15.021011282043457,42.75505631323242,15.021011282043457C46.70532231323242,14.230961282043456,48.76929231323242,11.052121282043457,48.76929231323242,8.918431282043457C48.76929231323242,8.918431282043457,47.76929231323242,8.918431282043457,47.76929231323242,8.918431282043457C47.76929231323242,8.918431282043457,47.76929231323242,8.918431282043457,47.76929231323242,8.918431282043457Z" fill="#000000" fill-opacity="1"/></g><g><g><path d="M18.6076704486084,32.56752869047546C18.2371904486084,32.38228669047546,17.7866864486084,32.53245469047546,17.601444448608397,32.902938690475466C17.4162024486084,33.27342269047546,17.5663704486084,33.723924690475464,17.936854448608397,33.909164690475464C17.936854448608397,33.909164690475464,18.6076704486084,32.56752869047546,18.6076704486084,32.56752869047546C18.6076704486084,32.56752869047546,18.6076704486084,32.56752869047546,18.6076704486084,32.56752869047546ZM21.263790448608397,38.85063469047547C21.263790448608397,39.26485469047547,21.599570448608397,39.60063469047547,22.013790448608397,39.60063469047547C22.428000448608397,39.60063469047547,22.763790448608397,39.26485469047547,22.763790448608397,38.85063469047547C22.763790448608397,38.85063469047547,21.263790448608397,38.85063469047547,21.263790448608397,38.85063469047547C21.263790448608397,38.85063469047547,21.263790448608397,38.85063469047547,21.263790448608397,38.85063469047547ZM17.936854448608397,33.909164690475464C18.4734604486084,34.177474690475464,19.3231304486084,34.76812469047546,20.030670448608397,35.631324690475466C20.7331104486084,36.48829469047546,21.263790448608397,37.57295469047546,21.263790448608397,38.85063469047547C21.263790448608397,38.85063469047547,22.763790448608397,38.85063469047547,22.763790448608397,38.85063469047547C22.763790448608397,37.13509469047546,22.0472904486084,35.725404690475465,21.190760448608398,34.680434690475465C20.339330448608397,33.64169469047546,19.3182404486084,32.922813690475465,18.6076704486084,32.56752869047546C18.6076704486084,32.56752869047546,17.936854448608397,33.909164690475464,17.936854448608397,33.909164690475464C17.936854448608397,33.909164690475464,17.936854448608397,33.909164690475464,17.936854448608397,33.909164690475464Z" fill="#000000" fill-opacity="1"/></g><g transform="matrix(-1,0,0,1,77.33090209960938,0)"><path d="M39.751021049804685,32.56752869047546C39.38054104980469,32.38228669047546,38.93003704980469,32.53245469047546,38.74479504980469,32.902938690475466C38.559553049804684,33.27342269047546,38.709721049804685,33.723924690475464,39.08020504980469,33.909164690475464C39.08020504980469,33.909164690475464,39.751021049804685,32.56752869047546,39.751021049804685,32.56752869047546C39.751021049804685,32.56752869047546,39.751021049804685,32.56752869047546,39.751021049804685,32.56752869047546ZM42.407141049804686,38.85063469047547C42.407141049804686,39.26485469047547,42.742921049804686,39.60063469047547,43.157141049804686,39.60063469047547C43.57135104980469,39.60063469047547,43.907141049804686,39.26485469047547,43.907141049804686,38.85063469047547C43.907141049804686,38.85063469047547,42.407141049804686,38.85063469047547,42.407141049804686,38.85063469047547C42.407141049804686,38.85063469047547,42.407141049804686,38.85063469047547,42.407141049804686,38.85063469047547ZM39.08020504980469,33.909164690475464C39.61681104980469,34.177474690475464,40.466481049804685,34.76812469047546,41.174021049804686,35.631324690475466C41.87646104980469,36.48829469047546,42.407141049804686,37.57295469047546,42.407141049804686,38.85063469047547C42.407141049804686,38.85063469047547,43.907141049804686,38.85063469047547,43.907141049804686,38.85063469047547C43.907141049804686,37.13509469047546,43.19064104980469,35.725404690475465,42.33411104980469,34.680434690475465C41.48268104980469,33.64169469047546,40.46159104980469,32.922813690475465,39.751021049804685,32.56752869047546C39.751021049804685,32.56752869047546,39.08020504980469,33.909164690475464,39.08020504980469,33.909164690475464C39.08020504980469,33.909164690475464,39.08020504980469,33.909164690475464,39.08020504980469,33.909164690475464Z" fill="#000000" fill-opacity="1"/></g><g><path d="M20.548080625457764,34.578726329956055C20.255187425457763,34.871616329956055,20.255187425457763,35.346496329956054,20.548080625457764,35.639386329956054C20.840973625457764,35.93227632995605,21.315847625457764,35.93227632995605,21.608740625457763,35.639386329956054C21.608740625457763,35.639386329956054,20.548080625457764,34.578726329956055,20.548080625457764,34.578726329956055C20.548080625457764,34.578726329956055,20.548080625457764,34.578726329956055,20.548080625457764,34.578726329956055ZM34.69311062545776,35.733096329956055C35.037810625457766,35.962856329956054,35.50341062545776,35.86972632995605,35.733210625457765,35.52507632995606C35.962910625457766,35.18043632995605,35.86981062545776,34.714786329956056,35.52521062545776,34.48501632995605C35.52521062545776,34.48501632995605,34.69311062545776,35.733096329956055,34.69311062545776,35.733096329956055C34.69311062545776,35.733096329956055,34.69311062545776,35.733096329956055,34.69311062545776,35.733096329956055ZM21.608740625457763,35.639386329956054C23.259490625457765,33.98863632995605,28.292790625457762,31.466212329956054,34.69311062545776,35.733096329956055C34.69311062545776,35.733096329956055,35.52521062545776,34.48501632995605,35.52521062545776,34.48501632995605C28.455990625457765,29.772226329956055,22.638860625457763,32.48794632995605,20.548080625457764,34.578726329956055C20.548080625457764,34.578726329956055,21.608740625457763,35.639386329956054,21.608740625457763,35.639386329956054C21.608740625457763,35.639386329956054,21.608740625457763,35.639386329956054,21.608740625457763,35.639386329956054Z" fill="#000000" fill-opacity="1"/></g></g></g></svg>