<svg xmlns="http://www.w3.org/2000/svg" xmlns:xlink="http://www.w3.org/1999/xlink" fill="none" version="1.1" width="58.81283187866211" height="57.1229248046875" viewBox="0 0 58.81283187866211 57.1229248046875"><defs><filter id="master_svg0_0_1087" filterUnits="objectBoundingBox" color-interpolation-filters="sRGB" x="-2" y="-2" width="10.547674179077148" height="6.806146144866943"><feFlood flood-opacity="0" result="BackgroundImageFix"/><feBlend mode="normal" in="SourceGraphic" in2="BackgroundImageFix" result="shape"/><feGaussianBlur stdDeviation="0.5" result="effect1_foregroundBlur"/></filter><filter id="master_svg1_0_1090" filterUnits="objectBoundingBox" color-interpolation-filters="sRGB" x="-2" y="-2" width="10.547674179077148" height="6.806146144866943"><feFlood flood-opacity="0" result="BackgroundImageFix"/><feBlend mode="normal" in="SourceGraphic" in2="BackgroundImageFix" result="shape"/><feGaussianBlur stdDeviation="0.5" result="effect1_foregroundBlur"/></filter><mask id="master_svg2_0_1097" style="mask-type:alpha" maskUnits="userSpaceOnUse"><g><path d="M54.07642422485351,42.300239638671876Q54.18042422485351,42.30022963867187,54.28432422485352,42.295129638671874Q54.388224224853516,42.29001963867188,54.49172422485351,42.279819638671874Q54.59522422485352,42.26962963867187,54.698124224853515,42.25435963867187Q54.80092422485352,42.239099638671874,54.902924224853514,42.218799638671875Q55.00492422485351,42.19850963867188,55.10582422485352,42.17323963867187Q55.20672422485352,42.14795963867188,55.30632422485351,42.117769638671874Q55.40582422485352,42.087579638671876,55.503724224853514,42.052539638671874Q55.601624224853516,42.017489638671876,55.697724224853516,41.977689638671876Q55.793824224853516,41.93788963867188,55.88782422485352,41.89341963867187Q55.98182422485351,41.848949638671876,56.07362422485352,41.799919638671874Q56.16532422485352,41.75088963867188,56.25452422485351,41.697419638671875Q56.34372422485352,41.643939638671874,56.43022422485352,41.58615963867187Q56.51672422485352,41.52837963867187,56.60022422485352,41.46641963867187Q56.68372422485352,41.404459638671874,56.76412422485352,41.33847963867188Q56.844524224853515,41.272499638671874,56.92162422485352,41.20264963867187Q56.998624224853515,41.13279963867188,57.072224224853514,41.059259638671875Q57.14572422485352,40.98570963867188,57.215624224853514,40.908649638671875Q57.285424224853514,40.83158963867187,57.35142422485352,40.751189638671875Q57.41742422485352,40.67078963867188,57.479324224853514,40.58724963867188Q57.54132422485351,40.50370963867188,57.59912422485351,40.41722963867188Q57.656824224853516,40.33075963867188,57.710324224853515,40.24154963867188Q57.763824224853515,40.152339638671876,57.812824224853514,40.06060963867188Q57.861824224853514,39.968889638671875,57.90632422485352,39.874869638671875Q57.95082422485352,39.780849638671874,57.99062422485352,39.68475963867188Q58.03042422485352,39.588669638671874,58.065424224853516,39.490739638671876Q58.100524224853515,39.392819638671874,58.13062422485352,39.29328963867187Q58.16082422485351,39.19375963867188,58.186124224853515,39.09286963867187Q58.211424224853516,38.99197963867188,58.231724224853515,38.889979638671875Q58.252024224853514,38.787969638671875,58.267224224853514,38.685089638671876Q58.28252422485352,38.58220963867188,58.292724224853515,38.47870963867187Q58.30292422485351,38.37519963867187,58.30802422485351,38.271319638671876Q58.31312422485352,38.16743963867187,58.31312422485352,38.06342963867188Q58.31312422485352,37.95942963867188,58.30802422485351,37.85553963867187Q58.30292422485351,37.751659638671875,58.292724224853515,37.648149638671875Q58.28252422485352,37.54464963867188,58.267224224853514,37.441759638671876Q58.25192422485351,37.33887963867188,58.231724224853515,37.23686963867188Q58.211424224853516,37.13485963867188,58.186124224853515,37.03396963867188Q58.16082422485351,36.93307963867188,58.13062422485352,36.833549638671876Q58.10042422485351,36.734019638671874,58.065424224853516,36.63609963867187Q58.03042422485352,36.538169638671874,57.99062422485352,36.44207963867188Q57.95082422485352,36.345989638671874,57.90632422485352,36.25196963867187Q57.861824224853514,36.15793963867188,57.812824224853514,36.066219638671875Q57.763824224853515,35.974489638671876,57.710324224853515,35.885279638671875Q57.656824224853516,35.796069638671874,57.599024224853515,35.70958963867187Q57.54132422485351,35.62310963867188,57.479324224853514,35.53956963867188Q57.417324224853516,35.45602963867187,57.35142422485352,35.375629638671874Q57.285424224853514,35.29522963867188,57.21552422485351,35.218169638671874Q57.14572422485352,35.14110963867188,57.07212422485351,35.067559638671874Q56.998624224853515,34.99401963867187,56.92152422485351,34.92416963867188Q56.844524224853515,34.854319638671875,56.76412422485352,34.78833963867187Q56.68372422485352,34.72235763867187,56.600124224853516,34.660400638671874Q56.516624224853516,34.598443638671874,56.430124224853515,34.540659638671876Q56.343624224853514,34.48287563867188,56.254424224853516,34.429405638671874Q56.16522422485352,34.37593463867187,56.073524224853514,34.326905638671874Q55.98182422485351,34.27787663867188,55.887724224853514,34.23340763867188Q55.79372422485352,34.18893863867188,55.69762422485351,34.14913663867188Q55.60152422485352,34.109334638671875,55.50362422485351,34.07429563867188Q55.405724224853515,34.03925663867187,55.30612422485352,34.00906463867187Q55.20662422485351,33.978872638671874,55.10572422485352,33.95360163867188Q55.004824224853515,33.928329638671876,54.90282422485352,33.908038638671876Q54.800824224853514,33.88774773867188,54.697924224853516,33.87248663867187Q54.59502422485352,33.85722553867188,54.49152422485352,33.84703103867187Q54.38802422485352,33.836836438671874,54.28422422485352,33.83173304867187Q54.180324224853514,33.826629638671875,54.076324224853515,33.826629638671875Q53.972324224853516,33.826629638671875,53.86842422485351,33.83173304867187Q53.76452422485352,33.836836438671874,53.66102422485352,33.84703103867187Q53.557524224853516,33.85722553867188,53.45462422485352,33.87248663867187Q53.35172422485351,33.88774773867188,53.249724224853516,33.908038638671876Q53.14772422485352,33.928329638671876,53.046824224853516,33.95360163867188Q52.94592422485351,33.978872638671874,52.846424224853514,34.00906463867187Q52.746924224853515,34.03925663867187,52.648924224853516,34.07429563867188Q52.55102422485351,34.109334638671875,52.454924224853514,34.14913663867188Q52.358824224853514,34.18893863867188,52.26482422485351,34.23340763867188Q52.17082422485352,34.27787663867188,52.07902422485351,34.326905638671874Q51.987324224853516,34.37593463867187,51.89812422485352,34.429405638671874Q51.80892422485351,34.48287563867188,51.72242422485351,34.540659638671876Q51.63592422485352,34.598443638671874,51.55242422485352,34.660400638671874Q51.46892422485352,34.72235763867187,51.38852422485351,34.78833963867187Q51.308124224853515,34.854319638671875,51.23102422485351,34.92416963867188Q51.15392422485351,34.99401963867187,51.080424224853516,35.067559638671874Q51.00682422485352,35.14110963867188,50.937024224853516,35.218169638671874Q50.867224224853516,35.29522963867188,50.80122422485351,35.375629638671874Q50.73522422485352,35.45602963867187,50.67322422485351,35.53956963867188Q50.61132422485352,35.62310963867188,50.55352422485352,35.70958963867187Q50.49572422485352,35.796069638671874,50.44222422485352,35.885279638671875Q50.388824224853515,35.974489638671876,50.33972422485351,36.066219638671875Q50.29072422485352,36.15793963867188,50.24622422485351,36.25196963867187Q50.20182422485352,36.345989638671874,50.16202422485352,36.44207963867188Q50.12222422485352,36.538169638671874,50.08712422485352,36.63609963867187Q50.052124224853515,36.734019638671874,50.021924224853514,36.833549638671876Q49.99172422485351,36.93307963867188,49.96642422485351,37.03396963867188Q49.941224224853514,37.13485963867188,49.920924224853515,37.23686963867188Q49.900624224853516,37.33887963867188,49.88532422485352,37.441759638671876Q49.87012422485351,37.54464963867188,49.859924224853515,37.648149638671875Q49.84972422485352,37.751659638671875,49.84462422485352,37.85553963867187Q49.83952422485352,37.95942963867188,49.83952422485352,38.06342963867188Q49.83952422485352,38.254189638671875,49.85662422485352,38.444179638671876L37.005924224853516,38.444179638671876L37.005924224853516,42.30024963867187L54.07642422485351,42.30024963867187L54.07642422485351,42.300239638671876Z" fill-rule="evenodd" fill="#FFFFFF" fill-opacity="1"/></g></mask></defs><g><g><path d="M28.5615,56.6229Q29.2503,56.6229,29.9384,56.5891Q30.6264,56.5553,31.312,56.4878Q31.9975,56.4203,32.6789,56.3192Q33.3603,56.2181,34.036,56.0837Q34.7116,55.9493,35.3798,55.7819Q36.0481,55.6146,36.7073,55.4146Q37.3665,55.2146,38.0151,54.9826Q38.6637,54.7505,39.3001,54.4869Q39.9365,54.2232,40.5593,53.9287Q41.182,53.6342,41.7895,53.3095Q42.3971,52.9847,42.9879,52.6306Q43.5788,52.2764,44.1516,51.8937Q44.7243,51.511,45.2776,51.1006Q45.831,50.6903,46.3635,50.2533Q46.896,49.8162,47.4064,49.3536Q47.9168,48.891,48.4039,48.4039Q48.891,47.9168,49.3536,47.4064Q49.8162,46.896,50.2533,46.3635Q50.6903,45.831,51.1006,45.2776Q51.511,44.7243,51.8937,44.1516Q52.2764,43.5788,52.6306,42.9879Q52.9847,42.3971,53.3095,41.7895Q53.6342,41.182,53.9287,40.5593Q54.2232,39.9365,54.4869,39.3001Q54.7505,38.6637,54.9826,38.0151Q55.2146,37.3665,55.4146,36.7073Q55.6146,36.0481,55.782,35.3798Q55.9493,34.7116,56.0837,34.036Q56.2181,33.3603,56.3192,32.6789Q56.4203,31.9975,56.4878,31.312Q56.5553,30.6264,56.5891,29.9384Q56.6229,29.2503,56.6229,28.5615Q56.6229,27.8726,56.5891,27.1846Q56.5553,26.4965,56.4878,25.811Q56.4203,25.1254,56.3192,24.444Q56.2181,23.7626,56.0837,23.0869Q55.9493,22.4113,55.7819,21.7431Q55.6146,21.0749,55.4146,20.4156Q55.2146,19.7564,54.9826,19.1078Q54.7505,18.4592,54.4869,17.8228Q54.2232,17.1864,53.9287,16.5636Q53.6342,15.9409,53.3095,15.3334Q52.9847,14.7259,52.6306,14.135Q52.2764,13.5441,51.8937,12.9713Q51.511,12.3986,51.1006,11.8453Q50.6903,11.292,50.2533,10.7595Q49.8162,10.22695,49.3536,9.71654Q48.891,9.20612,48.4039,8.71901Q47.9168,8.23191,47.4064,7.76929Q46.896,7.30667,46.3635,6.86966Q45.831,6.43264,45.2776,6.02228Q44.7243,5.61192,44.1516,5.22921Q43.5788,4.84649,42.9879,4.49234Q42.3971,4.13819,41.7895,3.81346Q41.182,3.48873,40.5593,3.1942Q39.9365,2.89967,39.3001,2.63605Q38.6637,2.37243,38.0151,2.1403600000000003Q37.3665,1.90829,36.7073,1.70832Q36.0481,1.50835,35.3798,1.340967Q34.7116,1.173585,34.036,1.039193Q33.3603,0.904801,32.6789,0.803723Q31.9975,0.702645,31.312,0.635124Q30.6264,0.5676025,29.9384,0.5338013Q29.2503,0.5,28.5615,0.5Q27.8726,0.5,27.1846,0.5338013Q26.4965,0.5676025,25.811,0.635124Q25.1254,0.702645,24.444,0.803723Q23.7626,0.904801,23.0869,1.039193Q22.4113,1.173585,21.7431,1.340967Q21.0749,1.50835,20.4156,1.70832Q19.7564,1.90829,19.1078,2.1403600000000003Q18.4592,2.37243,17.8228,2.63605Q17.1864,2.89967,16.5636,3.1942Q15.9409,3.48873,15.3334,3.81346Q14.7259,4.13819,14.135,4.49234Q13.5441,4.84649,12.9713,5.22921Q12.3986,5.61192,11.8453,6.02228Q11.292,6.43264,10.7595,6.86966Q10.22695,7.30667,9.71654,7.76929Q9.20612,8.23191,8.71901,8.71901Q8.23191,9.20612,7.76929,9.71654Q7.30667,10.22695,6.86966,10.7595Q6.43264,11.292,6.02228,11.8453Q5.61192,12.3986,5.22921,12.9713Q4.84649,13.5441,4.49234,14.135Q4.13819,14.7259,3.81346,15.3334Q3.48873,15.9409,3.1942,16.5636Q2.89967,17.1864,2.63605,17.8228Q2.37243,18.4592,2.1403600000000003,19.1078Q1.90829,19.7564,1.70832,20.4156Q1.50835,21.0749,1.340967,21.7431Q1.173585,22.4113,1.039193,23.0869Q0.904801,23.7626,0.803723,24.444Q0.702645,25.1254,0.635124,25.811Q0.5676025,26.4965,0.5338013,27.1846Q0.5,27.8726,0.5,28.5615Q0.4999999999999988,29.6907,0.5907328000000001,30.8162Q0.681466,31.9418,0.8623449999999999,33.0564Q1.043224,34.171,1.313079,35.2675Q1.58293,36.364,1.94002,37.4353Q2.29711,38.5065,2.73912,39.5456Q3.18112,40.5847,3.7052,41.585Q4.22927,42.5852,4.83202,43.5401Q5.43476,44.495,6.11229,45.3983L4.24155,53.8168L12.0151,51.2256Q12.9088,51.8781,13.8512,52.4582Q14.7935,53.0383,15.7786,53.5424Q16.7637,54.0464,17.7855,54.4714Q18.8072,54.8963,19.8593,55.2395Q20.9113,55.5827,21.9871,55.8419Q23.0629,56.1012,24.1557,56.2749Q25.2486,56.4486,26.3517,56.5358Q27.4549,56.6229,28.5615,56.6229Z" fill-rule="evenodd" fill="#FFCF00" fill-opacity="1"/><path d="M28.5615,56.1229Q33.8186,56.1229,38.7067,54.1878Q44.014,52.0867,48.0504,48.0504Q52.0867,44.0141,54.1878,38.7067Q56.1229,33.8186,56.1229,28.5615Q56.1229,23.3043,54.1878,18.4162Q52.0867,13.1089,48.0504,9.07257Q44.0141,5.03629,38.7067,2.93514Q33.8186,1,28.5615,1Q23.3043,1,18.4162,2.93514Q13.1088,5.03628,9.07257,9.07257Q5.03629,13.1089,2.93514,18.4162Q1,23.3043,1,28.5615Q1,37.7486,6.51229,45.0983L6.65027,45.2823L4.72964,53.9252L4.24155,53.8168L4.08343,53.3424L12.1016,50.6697L12.3099,50.8218Q19.571,56.123,28.5615,56.1229ZM28.5615,57.1229Q19.2449,57.1229,11.7203,51.6294L12.0151,51.2256L12.1732,51.6999L3.56189,54.5704L5.62419,45.2899L6.11229,45.3983L5.71229,45.6983Q0,38.082,0,28.5615Q0,23.1135,2.00535,18.0481Q4.18272,12.5482,8.365459999999999,8.365459999999999Q12.5482,4.182729999999999,18.0481,2.00535Q23.1136,0,28.5615,0Q34.0094,0,39.0748,2.00535Q44.5747,4.182729999999999,48.7575,8.365459999999999Q52.9402,12.5483,55.1176,18.0481Q57.1229,23.1136,57.1229,28.5615Q57.1229,34.0093,55.1176,39.0748Q52.9402,44.5747,48.7575,48.7575Q44.5747,52.9402,39.0748,55.1176Q34.0093,57.1229,28.5615,57.1229Z" fill="#000000" fill-opacity="1"/></g><g transform="matrix(1,-0.010207165032625198,0.010207165032625198,1,-0.3157408699809139,0.08430477059468089)" filter="url(#master_svg0_0_1087)"><ellipse cx="11.533208847045898" cy="32.3363311290741" rx="3.273837089538574" ry="1.4030730724334717" fill="#FF8B72" fill-opacity="1"/></g><g><path d="M10.325965089611817,17.777160569763183C10.162475089611817,17.999700569763185,10.210348089611816,18.312640569763182,10.432891789611816,18.476130569763185C10.655435789611817,18.639620569763185,10.968377789611816,18.591750569763185,11.131866789611816,18.369210569763183C11.131866789611816,18.369210569763183,10.325965089611817,17.777160569763183,10.325965089611817,17.777160569763183C10.325965089611817,17.777160569763183,10.325965089611817,17.777160569763183,10.325965089611817,17.777160569763183ZM16.810262789611816,16.035840569763185C17.08553278961182,16.057790569763185,17.326472789611817,15.852432569763184,17.348422789611817,15.577164569763184C17.370362789611818,15.301895569763184,17.165012789611815,15.060953869763184,16.889742789611816,15.039006869763183C16.889742789611816,15.039006869763183,16.810262789611816,16.035840569763185,16.810262789611816,16.035840569763185C16.810262789611816,16.035840569763185,16.810262789611816,16.035840569763185,16.810262789611816,16.035840569763185ZM11.131866789611816,18.369210569763183C11.754952789611817,17.521050569763183,13.804692789611817,15.796209569763183,16.810262789611816,16.035840569763185C16.810262789611816,16.035840569763185,16.889742789611816,15.039006869763183,16.889742789611816,15.039006869763183C13.459142789611816,14.765484569763183,11.101867789611816,16.720990569763185,10.325965089611817,17.777160569763183C10.325965089611817,17.777160569763183,11.131866789611816,18.369210569763183,11.131866789611816,18.369210569763183C11.131866789611816,18.369210569763183,11.131866789611816,18.369210569763183,11.131866789611816,18.369210569763183Z" fill="#000000" fill-opacity="1"/></g><g transform="matrix(-1,0,0,1,93.58438873291016,0)"><path d="M46.889276666455075,17.777160569763183C46.72578666645508,17.999700569763185,46.77365966645508,18.312640569763182,46.99620336645508,18.476130569763185C47.21874736645508,18.639620569763185,47.531689366455076,18.591750569763185,47.69517836645508,18.369210569763183C47.69517836645508,18.369210569763183,46.889276666455075,17.777160569763183,46.889276666455075,17.777160569763183C46.889276666455075,17.777160569763183,46.889276666455075,17.777160569763183,46.889276666455075,17.777160569763183ZM53.37357436645508,16.035840569763185C53.64884436645508,16.057790569763185,53.889784366455075,15.852432569763184,53.91173436645508,15.577164569763184C53.93367436645508,15.301895569763184,53.72832436645508,15.060953869763184,53.45305436645508,15.039006869763183C53.45305436645508,15.039006869763183,53.37357436645508,16.035840569763185,53.37357436645508,16.035840569763185C53.37357436645508,16.035840569763185,53.37357436645508,16.035840569763185,53.37357436645508,16.035840569763185ZM47.69517836645508,18.369210569763183C48.318264366455075,17.521050569763183,50.368004366455075,15.796209569763183,53.37357436645508,16.035840569763185C53.37357436645508,16.035840569763185,53.45305436645508,15.039006869763183,53.45305436645508,15.039006869763183C50.02245436645508,14.765484569763183,47.66517936645508,16.720990569763185,46.889276666455075,17.777160569763183C46.889276666455075,17.777160569763183,47.69517836645508,18.369210569763183,47.69517836645508,18.369210569763183C47.69517836645508,18.369210569763183,47.69517836645508,18.369210569763183,47.69517836645508,18.369210569763183Z" fill="#000000" fill-opacity="1"/></g><g transform="matrix(1,-0.010207165032625198,0.010207165032625198,1,-0.311307455848997,0.44429311732272936)" filter="url(#master_svg1_0_1090)"><ellipse cx="46.80140972137451" cy="31.9019877910614" rx="3.273837089538574" ry="1.4030730724334717" fill="#FF8B72" fill-opacity="1"/></g><g><g><path d="M54.07615706353188,42.300239638671876Q54.18015706353188,42.30022963867187,54.284057063531876,42.295129638671874Q54.38795706353187,42.29001963867188,54.491457063531875,42.279819638671874Q54.59495706353188,42.26962963867187,54.69785706353187,42.25435963867187Q54.80065706353187,42.239099638671874,54.902657063531876,42.21880963867187Q55.00465706353188,42.19850963867188,55.105557063531876,42.17323963867187Q55.20645706353187,42.14795963867188,55.30595706353188,42.117769638671874Q55.40555706353187,42.087579638671876,55.503457063531876,42.052539638671874Q55.60135706353188,42.01749963867188,55.69745706353187,41.977689638671876Q55.79355706353188,41.93788963867188,55.88755706353187,41.89341963867187Q55.98155706353188,41.848949638671876,56.07335706353187,41.799919638671874Q56.165057063531876,41.75088963867188,56.254257063531874,41.697419638671875Q56.34345706353187,41.64394963867188,56.42995706353187,41.58615963867187Q56.516457063531874,41.52837963867187,56.599957063531875,41.46641963867187Q56.683457063531876,41.404459638671874,56.76385706353187,41.33847963867188Q56.84425706353188,41.272499638671874,56.92135706353187,41.20264963867187Q56.99835706353188,41.13279963867188,57.071957063531876,41.059259638671875Q57.14545706353188,40.985719638671874,57.215357063531876,40.908649638671875Q57.28515706353188,40.83158963867187,57.35115706353187,40.751189638671875Q57.417157063531874,40.67078963867188,57.479057063531876,40.58724963867188Q57.54105706353188,40.50370963867188,57.59885706353188,40.41722963867188Q57.65655706353188,40.33075963867188,57.71005706353188,40.24154963867188Q57.76355706353188,40.152339638671876,57.81255706353188,40.06060963867188Q57.861557063531876,39.968889638671875,57.906057063531875,39.874869638671875Q57.950557063531875,39.780849638671874,57.990357063531874,39.68475963867188Q58.030157063531874,39.588669638671874,58.06515706353187,39.490739638671876Q58.10025706353187,39.392819638671874,58.130357063531875,39.29328963867187Q58.160557063531876,39.19375963867188,58.18585706353188,39.09286963867187Q58.21115706353187,38.99197963867188,58.23145706353188,38.889979638671875Q58.251757063531876,38.787969638671875,58.266957063531876,38.685089638671876Q58.28225706353187,38.58220963867188,58.29245706353188,38.47869963867188Q58.302657063531875,38.37519963867187,58.30775706353188,38.271319638671876Q58.31285706353188,38.16743963867187,58.31285706353188,38.06342963867188Q58.31285706353188,37.95942963867188,58.30775706353188,37.85553963867187Q58.302657063531875,37.751659638671875,58.29245706353188,37.648149638671875Q58.28225706353187,37.54464963867188,58.266957063531876,37.441759638671876Q58.251757063531876,37.33887963867188,58.23145706353188,37.23686963867188Q58.21115706353187,37.13485963867188,58.18585706353188,37.03396963867188Q58.160557063531876,36.93307963867188,58.130357063531875,36.833549638671876Q58.100157063531874,36.734019638671874,58.06515706353187,36.63609963867187Q58.030157063531874,36.538169638671874,57.990357063531874,36.44207963867188Q57.950557063531875,36.345989638671874,57.906057063531875,36.25196963867187Q57.861557063531876,36.15793963867188,57.81255706353188,36.066219638671875Q57.76355706353188,35.974489638671876,57.71005706353188,35.885279638671875Q57.65655706353188,35.796069638671874,57.59875706353188,35.70958963867187Q57.54105706353188,35.62310963867188,57.479057063531876,35.53956963867188Q57.41705706353187,35.45602963867187,57.35115706353187,35.375629638671874Q57.28515706353188,35.29522963867188,57.21525706353188,35.218169638671874Q57.14545706353188,35.14110963867188,57.07185706353188,35.067559638671874Q56.99835706353188,34.99401963867187,56.921257063531876,34.92416963867188Q56.84425706353188,34.854319638671875,56.76385706353187,34.78833963867187Q56.683457063531876,34.72235763867187,56.59985706353187,34.660400638671874Q56.51635706353187,34.598443638671874,56.42985706353188,34.540659638671876Q56.343357063531876,34.48287563867188,56.25415706353188,34.429405638671874Q56.16495706353187,34.37593463867187,56.07325706353188,34.326905638671874Q55.98155706353188,34.27787663867188,55.887457063531876,34.23340763867188Q55.793457063531875,34.18893863867188,55.697357063531875,34.14913663867188Q55.601257063531875,34.109334638671875,55.50335706353188,34.07429563867188Q55.40545706353188,34.03925663867187,55.30595706353188,34.00906463867187Q55.206357063531875,33.978872638671874,55.10545706353187,33.95360163867188Q55.00455706353188,33.928329638671876,54.90255706353187,33.908038638671876Q54.800557063531876,33.88774773867188,54.69765706353188,33.87248663867187Q54.594857063531876,33.85722553867188,54.49135706353188,33.84703103867187Q54.38775706353188,33.836836438671874,54.28395706353187,33.83173304867187Q54.180057063531876,33.826629638671875,54.07605706353188,33.826629638671875Q53.97205706353188,33.826629638671875,53.868157063531875,33.83173304867187Q53.76425706353187,33.836836438671874,53.660757063531875,33.84703103867187Q53.55725706353188,33.85722553867188,53.45435706353187,33.87248663867187Q53.351457063531875,33.88774773867188,53.24945706353188,33.908038638671876Q53.147457063531874,33.928329638671876,53.04655706353188,33.95360163867188Q52.945657063531876,33.978872638671874,52.84615706353188,34.00906463867187Q52.74665706353188,34.03925663867187,52.64865706353187,34.07429563867188Q52.550757063531876,34.109334638671875,52.454657063531876,34.14913663867188Q52.358557063531876,34.18893863867188,52.264557063531875,34.23340763867188Q52.170557063531874,34.27787663867188,52.07885706353188,34.326905638671874Q51.98705706353188,34.37593463867187,51.89785706353187,34.429405638671874Q51.808657063531875,34.48287563867188,51.722157063531874,34.540659638671876Q51.63565706353187,34.598443638671874,51.55215706353188,34.660400638671874Q51.46865706353188,34.72235763867187,51.388257063531874,34.78833963867187Q51.30785706353188,34.854319638671875,51.230757063531875,34.92416963867188Q51.153657063531874,34.99401963867187,51.08015706353188,35.067559638671874Q51.006657063531875,35.14110963867188,50.93675706353187,35.218169638671874Q50.86695706353188,35.29522963867188,50.800957063531875,35.375629638671874Q50.73495706353188,35.45602963867187,50.672957063531875,35.53956963867188Q50.611057063531874,35.62310963867188,50.55325706353187,35.70958963867187Q50.49545706353187,35.796069638671874,50.44195706353187,35.885279638671875Q50.38855706353188,35.974489638671876,50.339457063531874,36.066219638671875Q50.290457063531875,36.15793963867188,50.245957063531876,36.25196963867187Q50.20155706353188,36.345989638671874,50.16175706353188,36.44207963867188Q50.12195706353187,36.538169638671874,50.08685706353187,36.63609963867187Q50.05185706353188,36.734019638671874,50.021657063531876,36.833549638671876Q49.991457063531875,36.93307963867188,49.966157063531874,37.03396963867188Q49.940957063531876,37.13485963867188,49.92065706353188,37.23686963867188Q49.90035706353188,37.33887963867188,49.885057063531875,37.441759638671876Q49.869857063531875,37.54464963867188,49.85965706353188,37.648149638671875Q49.84945706353187,37.751659638671875,49.844357063531874,37.85553963867187Q49.839257063531875,37.95942963867188,49.839257063531875,38.06342963867188Q49.839257063531875,38.254189638671875,49.856357063531874,38.444179638671876L37.085857063531876,38.44411963867188L37.085857063531876,42.300189638671874L54.07615706353188,42.30026963867188L54.07615706353188,42.300239638671876Z" fill-rule="evenodd" fill="#A052FF" fill-opacity="1"/><path d="M54.57615706353188,42.77680963867188L54.57615706353188,42.800279638671874L36.585857063531876,42.800189638671874L36.585857063531876,37.94411963867188L49.340557063531875,37.944179638671876Q49.38155706353187,36.05902963867187,50.72655706353188,34.71400763867187Q52.11395706353188,33.326629638671875,54.07605706353188,33.326629638671875Q56.03805706353188,33.326629638671875,57.42545706353188,34.71400763867187Q58.81285706353188,36.10137963867187,58.81285706353188,38.06342963867188Q58.81285706353188,40.02543963867188,57.42545706353188,41.412809638671874Q56.218357063531876,42.619969638671876,54.57615706353188,42.77680963867188ZM54.07615706353188,42.300239638671876Q54.18015706353188,42.30022963867187,54.284057063531876,42.295129638671874Q54.38795706353187,42.29001963867188,54.491457063531875,42.279819638671874Q54.59495706353188,42.26962963867187,54.69785706353187,42.25435963867187Q54.80065706353187,42.239099638671874,54.902657063531876,42.21880963867187Q55.00465706353188,42.19850963867188,55.105557063531876,42.17323963867187Q55.20645706353187,42.14795963867188,55.30595706353188,42.117769638671874Q55.40555706353187,42.087579638671876,55.503457063531876,42.052539638671874Q55.60135706353188,42.01749963867188,55.69745706353187,41.977689638671876Q55.79355706353188,41.93788963867188,55.88755706353187,41.89341963867187Q55.98155706353188,41.848949638671876,56.07335706353187,41.799919638671874Q56.165057063531876,41.75088963867188,56.254257063531874,41.697419638671875Q56.34345706353187,41.64394963867188,56.42995706353187,41.58615963867187Q56.516457063531874,41.52837963867187,56.599957063531875,41.46641963867187Q56.683457063531876,41.404459638671874,56.76385706353187,41.33847963867188Q56.84425706353188,41.272499638671874,56.92135706353187,41.20264963867187Q56.99835706353188,41.13279963867188,57.071957063531876,41.059259638671875Q57.14545706353188,40.985719638671874,57.215357063531876,40.908649638671875Q57.28515706353188,40.83158963867187,57.35115706353187,40.751189638671875Q57.417157063531874,40.67078963867188,57.479057063531876,40.58724963867188Q57.54105706353188,40.50370963867188,57.59885706353188,40.41722963867188Q57.65655706353188,40.33075963867188,57.71005706353188,40.24154963867188Q57.76355706353188,40.152339638671876,57.81255706353188,40.06060963867188Q57.861557063531876,39.968889638671875,57.906057063531875,39.874869638671875Q57.950557063531875,39.780849638671874,57.990357063531874,39.68475963867188Q58.030157063531874,39.588669638671874,58.06515706353187,39.490739638671876Q58.10025706353187,39.392819638671874,58.130357063531875,39.29328963867187Q58.160557063531876,39.19375963867188,58.18585706353188,39.09286963867187Q58.21115706353187,38.99197963867188,58.23145706353188,38.889979638671875Q58.251757063531876,38.787969638671875,58.266957063531876,38.685089638671876Q58.28225706353187,38.58220963867188,58.29245706353188,38.47869963867188Q58.302657063531875,38.37519963867187,58.30775706353188,38.271319638671876Q58.31285706353188,38.16743963867187,58.31285706353188,38.06342963867188Q58.31285706353188,37.95942963867188,58.30775706353188,37.85553963867187Q58.302657063531875,37.751659638671875,58.29245706353188,37.648149638671875Q58.28225706353187,37.54464963867188,58.266957063531876,37.441759638671876Q58.251757063531876,37.33887963867188,58.23145706353188,37.23686963867188Q58.21115706353187,37.13485963867188,58.18585706353188,37.03396963867188Q58.160557063531876,36.93307963867188,58.130357063531875,36.833549638671876Q58.100157063531874,36.734019638671874,58.06515706353187,36.63609963867187Q58.030157063531874,36.538169638671874,57.990357063531874,36.44207963867188Q57.950557063531875,36.345989638671874,57.906057063531875,36.25196963867187Q57.861557063531876,36.15793963867188,57.81255706353188,36.066219638671875Q57.76355706353188,35.974489638671876,57.71005706353188,35.885279638671875Q57.65655706353188,35.796069638671874,57.59875706353188,35.70958963867187Q57.54105706353188,35.62310963867188,57.479057063531876,35.53956963867188Q57.41705706353187,35.45602963867187,57.35115706353187,35.375629638671874Q57.28515706353188,35.29522963867188,57.21525706353188,35.218169638671874Q57.14545706353188,35.14110963867188,57.07185706353188,35.067559638671874Q56.99835706353188,34.99401963867187,56.921257063531876,34.92416963867188Q56.84425706353188,34.854319638671875,56.76385706353187,34.78833963867187Q56.683457063531876,34.72235763867187,56.59985706353187,34.660400638671874Q56.51635706353187,34.598443638671874,56.42985706353188,34.540659638671876Q56.343357063531876,34.48287563867188,56.25415706353188,34.429405638671874Q56.16495706353187,34.37593463867187,56.07325706353188,34.326905638671874Q55.98155706353188,34.27787663867188,55.887457063531876,34.23340763867188Q55.793457063531875,34.18893863867188,55.697357063531875,34.14913663867188Q55.601257063531875,34.109334638671875,55.50335706353188,34.07429563867188Q55.40545706353188,34.03925663867187,55.30595706353188,34.00906463867187Q55.206357063531875,33.978872638671874,55.10545706353187,33.95360163867188Q55.00455706353188,33.928329638671876,54.90255706353187,33.908038638671876Q54.800557063531876,33.88774773867188,54.69765706353188,33.87248663867187Q54.594857063531876,33.85722553867188,54.49135706353188,33.84703103867187Q54.38775706353188,33.836836438671874,54.28395706353187,33.83173304867187Q54.180057063531876,33.826629638671875,54.07605706353188,33.826629638671875Q53.87165706353187,33.826629638671875,53.66815706353188,33.84630693867187Q53.46475706353188,33.86598413867188,53.26405706353188,33.905155838671874Q53.06345706353188,33.94432763867187,52.867557063531876,34.00262963867188Q52.671657063531875,34.06093263867187,52.482257063531875,34.137823638671875Q52.292857063531876,34.21471463867187,52.111757063531876,34.309481638671876Q51.930657063531875,34.404247638671876,51.759457063531876,34.51600863867188Q51.58835706353187,34.62776963867187,51.428757063531876,34.755486638671876Q51.26915706353188,34.883199638671876,51.122657063531875,35.02568963867188Q50.976057063531876,35.16817963867187,50.84385706353187,35.32410963867188Q50.71175706353188,35.48004963867187,50.595257063531875,35.64797963867188Q50.47865706353188,35.815909638671876,50.378857063531875,35.99427963867188Q50.27905706353187,36.17264963867188,50.19685706353188,36.35979963867187Q50.11465706353188,36.54695963867187,50.05085706353188,36.74114963867188Q49.98705706353188,36.93534963867187,49.942257063531876,37.13477963867187Q49.897457063531874,37.334219638671875,49.87205706353188,37.53703963867188Q49.84665706353188,37.739859638671874,49.84085706353188,37.944179638671876Q49.839257063531875,38.00379963867188,49.839257063531875,38.06342963867188Q49.839257063531875,38.254189638671875,49.856357063531874,38.444179638671876L49.35455706353188,38.444179638671876L37.585857063531876,38.444129638671875L37.085857063531876,38.44411963867188L37.085854769651874,38.94411963867188L37.085857063531876,42.300189638671874L37.585857063531876,42.300189638671874L53.57615706353188,42.30026963867188L54.07615706353188,42.30026963867188L54.07615706353188,42.300239638671876Z" fill-rule="evenodd" fill="#000000" fill-opacity="1"/></g><g mask="url(#master_svg2_0_1097)"><g transform="matrix(0.6842027306556702,0.7292919158935547,-0.7292919158935547,0.6842027306556702,39.777705839933276,-26.70812215814979)"><rect x="50.72828006744385" y="32.576603412628174" width="12.075794219970703" height="3.991896152496338" rx="0" fill="#D07BFF" fill-opacity="1"/></g><g transform="matrix(0.6842027306556702,0.7292919158935547,-0.7292919158935547,0.6842027306556702,38.824352174280165,-20.021820469162577)"><rect x="42.53104066848755" y="34.818932056427" width="12.075794219970703" height="3.991896152496338" rx="0" fill="#D07BFF" fill-opacity="1"/></g></g></g><g><path d="M36.04451805236816,36.044506608276365C36.04451805236816,35.10912660827637,33.23837005236816,32.30297660827637,33.23837005236816,32.30297660827637C33.23837005236816,32.30297660827637,39.786048052368166,36.044506608276365,39.786048052368166,36.97988660827637C39.786048052368166,37.91526660827637,36.97989805236816,39.78603660827637,36.97989805236816,39.78603660827637C36.97989805236816,39.78603660827637,39.786048052368166,41.656796608276366,39.786048052368166,42.59217660827637C39.786048052368166,43.52757660827637,33.23837005236816,47.269076608276364,33.23837005236816,47.269076608276364C33.23837005236816,47.269076608276364,36.04451805236816,44.462976608276364,36.04451805236816,43.52757660827637C36.04451805236816,42.59217660827637,32.302988052368164,39.78603660827637,32.302988052368164,39.78603660827637C32.302988052368164,39.78603660827637,36.04451805236816,36.97988660827637,36.04451805236816,36.044506608276365C36.04451805236816,36.044506608276365,36.04451805236816,36.044506608276365,36.04451805236816,36.044506608276365Z" fill="#000000" fill-opacity="1"/></g><g><path d="M11.993616045483398,26.962273459472655C11.885307045483398,27.503833459472656,12.236520745483398,28.030663459472656,12.778080745483399,28.138973459472655C13.319644745483398,28.247283459472655,13.846464745483399,27.896073459472657,13.954774745483398,27.354513459472656C13.954774745483398,27.354513459472656,11.993616045483398,26.962273459472655,11.993616045483398,26.962273459472655C11.993616045483398,26.962273459472655,11.993616045483398,26.962273459472655,11.993616045483398,26.962273459472655ZM21.347434745483397,27.354513459472656C21.4557447454834,27.896073459472657,21.9826047454834,28.247283459472655,22.5241047454834,28.138973459472655C23.065704745483398,28.030663459472656,23.4169047454834,27.503833459472656,23.3086047454834,26.962273459472655C23.3086047454834,26.962273459472655,21.347434745483397,27.354513459472656,21.347434745483397,27.354513459472656C21.347434745483397,27.354513459472656,21.347434745483397,27.354513459472656,21.347434745483397,27.354513459472656ZM13.954774745483398,27.354513459472656C14.087004745483398,26.693343459472658,14.454944745483399,25.675963459472655,15.097144745483398,24.848393459472657C15.725354745483399,24.038843459472655,16.5516147454834,23.481483459472656,17.651104745483398,23.481483459472656C17.651104745483398,23.481483459472656,17.651104745483398,21.481483459472656,17.651104745483398,21.481483459472656C15.757374745483398,21.481483459472656,14.401074745483399,22.483093459472656,13.517084745483398,23.622263459472656C12.647082745483399,24.743393459472657,12.173177745483398,26.064473459472655,11.993616045483398,26.962273459472655C11.993616045483398,26.962273459472655,13.954774745483398,27.354513459472656,13.954774745483398,27.354513459472656C13.954774745483398,27.354513459472656,13.954774745483398,27.354513459472656,13.954774745483398,27.354513459472656ZM17.651104745483398,23.481483459472656C18.750594745483397,23.481483459472656,19.5768547454834,24.038843459472655,20.205064745483398,24.848393459472657C20.8472647454834,25.675963459472655,21.215204745483398,26.693343459472658,21.347434745483397,27.354513459472656C21.347434745483397,27.354513459472656,23.3086047454834,26.962273459472655,23.3086047454834,26.962273459472655C23.1290047454834,26.064473459472655,22.6551047454834,24.743393459472657,21.7851247454834,23.622263459472656C20.901134745483397,22.483093459472656,19.5448347454834,21.481483459472656,17.651104745483398,21.481483459472656C17.651104745483398,21.481483459472656,17.651104745483398,23.481483459472656,17.651104745483398,23.481483459472656C17.651104745483398,23.481483459472656,17.651104745483398,23.481483459472656,17.651104745483398,23.481483459472656Z" fill="#000000" fill-opacity="1"/></g><g><path d="M35.0639342675293,26.962273459472655C34.9556252675293,27.503833459472656,35.306838967529295,28.030663459472656,35.8483989675293,28.138973459472655C36.3899629675293,28.247283459472655,36.916782967529294,27.896073459472657,37.0250929675293,27.354513459472656C37.0250929675293,27.354513459472656,35.0639342675293,26.962273459472655,35.0639342675293,26.962273459472655C35.0639342675293,26.962273459472655,35.0639342675293,26.962273459472655,35.0639342675293,26.962273459472655ZM44.417752967529296,27.354513459472656C44.5260629675293,27.896073459472657,45.0529229675293,28.247283459472655,45.5944229675293,28.138973459472655C46.1360229675293,28.030663459472656,46.4872229675293,27.503833459472656,46.3789229675293,26.962273459472655C46.3789229675293,26.962273459472655,44.417752967529296,27.354513459472656,44.417752967529296,27.354513459472656C44.417752967529296,27.354513459472656,44.417752967529296,27.354513459472656,44.417752967529296,27.354513459472656ZM37.0250929675293,27.354513459472656C37.157322967529296,26.693343459472658,37.525262967529294,25.675963459472655,38.167462967529296,24.848393459472657C38.7956729675293,24.038843459472655,39.6219329675293,23.481483459472656,40.7214229675293,23.481483459472656C40.7214229675293,23.481483459472656,40.7214229675293,21.481483459472656,40.7214229675293,21.481483459472656C38.827692967529295,21.481483459472656,37.4713929675293,22.483093459472656,36.5874029675293,23.622263459472656C35.717400967529294,24.743393459472657,35.2434959675293,26.064473459472655,35.0639342675293,26.962273459472655C35.0639342675293,26.962273459472655,37.0250929675293,27.354513459472656,37.0250929675293,27.354513459472656C37.0250929675293,27.354513459472656,37.0250929675293,27.354513459472656,37.0250929675293,27.354513459472656ZM40.7214229675293,23.481483459472656C41.820912967529296,23.481483459472656,42.6471729675293,24.038843459472655,43.275382967529296,24.848393459472657C43.9175829675293,25.675963459472655,44.285522967529296,26.693343459472658,44.417752967529296,27.354513459472656C44.417752967529296,27.354513459472656,46.3789229675293,26.962273459472655,46.3789229675293,26.962273459472655C46.1993229675293,26.064473459472655,45.7254229675293,24.743393459472657,44.8554429675293,23.622263459472656C43.971452967529295,22.483093459472656,42.6151529675293,21.481483459472656,40.7214229675293,21.481483459472656C40.7214229675293,21.481483459472656,40.7214229675293,23.481483459472656,40.7214229675293,23.481483459472656C40.7214229675293,23.481483459472656,40.7214229675293,23.481483459472656,40.7214229675293,23.481483459472656Z" fill="#000000" fill-opacity="1"/></g></g></svg>