<svg xmlns="http://www.w3.org/2000/svg" xmlns:xlink="http://www.w3.org/1999/xlink" fill="none" version="1.1" width="58.84927749633789" height="57.1229248046875" viewBox="0 0 58.84927749633789 57.1229248046875"><g><g><path d="M30.28785245323181,56.6229Q30.97665245323181,56.6229,31.664752453231813,56.5891Q32.352752453231815,56.5553,33.03835245323181,56.4878Q33.723852453231814,56.4203,34.40525245323181,56.3192Q35.086652453231814,56.2181,35.76235245323181,56.0837Q36.43795245323181,55.9493,37.106152453231815,55.7819Q37.77445245323181,55.6146,38.43365245323181,55.4146Q39.092852453231814,55.2146,39.74145245323181,54.9826Q40.39005245323181,54.7505,41.02645245323181,54.4869Q41.662852453231814,54.2232,42.28565245323181,53.9287Q42.908352453231814,53.6342,43.51585245323181,53.3095Q44.12345245323181,52.9847,44.714252453231815,52.6306Q45.30515245323181,52.2764,45.87795245323181,51.8937Q46.45065245323181,51.511,47.00395245323181,51.1006Q47.557352453231815,50.6903,48.08985245323181,50.2533Q48.62235245323181,49.8162,49.13275245323181,49.3536Q49.643152453231814,48.891,50.13025245323181,48.4039Q50.61735245323181,47.9168,51.07995245323181,47.4064Q51.542552453231814,46.896,51.979652453231814,46.3635Q52.41665245323181,45.831,52.82695245323181,45.2776Q53.237352453231814,44.7243,53.620052453231814,44.1516Q54.002752453231814,43.5788,54.35695245323181,42.9879Q54.71105245323181,42.3971,55.03585245323181,41.7895Q55.36055245323181,41.182,55.65505245323181,40.5593Q55.94955245323181,39.9365,56.21325245323181,39.3001Q56.476852453231814,38.6637,56.70895245323181,38.0151Q56.94095245323181,37.3665,57.14095245323181,36.7073Q57.340952453231814,36.0481,57.50835245323181,35.3798Q57.67565245323181,34.7116,57.81005245323181,34.036Q57.94445245323181,33.3603,58.045552453231814,32.6789Q58.14665245323181,31.9975,58.21415245323181,31.312Q58.281652453231814,30.6264,58.31545245323181,29.9384Q58.34925245323181,29.2503,58.34925245323181,28.5615Q58.34925245323181,27.8726,58.31545245323181,27.1846Q58.281652453231814,26.4965,58.21415245323181,25.811Q58.14665245323181,25.1254,58.045552453231814,24.444Q57.94445245323181,23.7626,57.81005245323181,23.0869Q57.67565245323181,22.4113,57.50825245323181,21.7431Q57.340952453231814,21.0749,57.14095245323181,20.4156Q56.94095245323181,19.7564,56.70895245323181,19.1078Q56.476852453231814,18.4592,56.21325245323181,17.8228Q55.94955245323181,17.1864,55.65505245323181,16.5636Q55.36055245323181,15.9409,55.03585245323181,15.3334Q54.71105245323181,14.7259,54.35695245323181,14.135Q54.002752453231814,13.5441,53.620052453231814,12.9713Q53.237352453231814,12.3986,52.82695245323181,11.8453Q52.41665245323181,11.292,51.979652453231814,10.7595Q51.542552453231814,10.22695,51.07995245323181,9.71654Q50.61735245323181,9.20612,50.13025245323181,8.71901Q49.643152453231814,8.23191,49.13275245323181,7.76929Q48.62235245323181,7.30667,48.08985245323181,6.86966Q47.557352453231815,6.43264,47.00395245323181,6.02228Q46.45065245323181,5.61192,45.87795245323181,5.22921Q45.30515245323181,4.84649,44.714252453231815,4.49234Q44.12345245323181,4.13819,43.51585245323181,3.81346Q42.908352453231814,3.48873,42.28565245323181,3.1942Q41.662852453231814,2.89967,41.02645245323181,2.63605Q40.39005245323181,2.37243,39.74145245323181,2.1403600000000003Q39.092852453231814,1.90829,38.43365245323181,1.70832Q37.77445245323181,1.50835,37.106152453231815,1.340967Q36.43795245323181,1.173585,35.76235245323181,1.039193Q35.086652453231814,0.904801,34.40525245323181,0.803723Q33.723852453231814,0.702645,33.03835245323181,0.635124Q32.352752453231815,0.5676025,31.664752453231813,0.5338013Q30.97665245323181,0.5,30.28785245323181,0.5Q29.59895245323181,0.5,28.91095245323181,0.5338013Q28.222852453231813,0.5676025,27.53735245323181,0.635124Q26.85175245323181,0.702645,26.17035245323181,0.803723Q25.48895245323181,0.904801,24.81325245323181,1.039193Q24.137652453231812,1.173585,23.46945245323181,1.340967Q22.80125245323181,1.50835,22.141952453231813,1.70832Q21.48275245323181,1.90829,20.834152453231813,2.1403600000000003Q20.18555245323181,2.37243,19.549152453231812,2.63605Q18.91275245323181,2.89967,18.289952453231813,3.1942Q17.66725245323181,3.48873,17.05975245323181,3.81346Q16.45225245323181,4.13819,15.861352453231811,4.49234Q15.270452453231812,4.84649,14.697652453231811,5.22921Q14.124952453231812,5.61192,13.571652453231811,6.02228Q13.018352453231811,6.43264,12.48585245323181,6.86966Q11.953302453231812,7.30667,11.442892453231812,7.76929Q10.932472453231812,8.23191,10.445362453231812,8.71901Q9.95826245323181,9.20612,9.495642453231811,9.71654Q9.033022453231812,10.22695,8.596012453231811,10.7595Q8.15899245323181,11.292,7.748632453231812,11.8453Q7.338272453231811,12.3986,6.955562453231812,12.9713Q6.572842453231812,13.5441,6.218692453231812,14.135Q5.864542453231811,14.7259,5.539812453231812,15.3334Q5.215082453231812,15.9409,4.920552453231812,16.5636Q4.626022453231812,17.1864,4.3624024532318115,17.8228Q4.098782453231811,18.4592,3.866712453231812,19.1078Q3.6346424532318116,19.7564,3.4346724532318116,20.4156Q3.2347024532318116,21.0749,3.0673194532318115,21.7431Q2.8999374532318116,22.4113,2.7655454532318116,23.0869Q2.6311534532318115,23.7626,2.5300754532318117,24.444Q2.4289974532318115,25.1254,2.3614764532318113,25.811Q2.2939549532318115,26.4965,2.2601537532318114,27.1846Q2.2263524532318115,27.8726,2.2263524532318115,28.5615Q2.22635245323181,29.6907,2.3170852532318116,30.8162Q2.4078184532318114,31.9418,2.5886974532318114,33.0564Q2.7695764532318115,34.171,3.0394314532318116,35.2675Q3.3092824532318117,36.364,3.6663724532318116,37.4353Q4.0234624532318115,38.5065,4.465472453231811,39.5456Q4.9074724532318115,40.5847,5.431552453231811,41.585Q5.955622453231811,42.5852,6.5583724532318115,43.5401Q7.161112453231811,44.495,7.838642453231811,45.3983L5.967902453231812,53.8168L13.741452453231812,51.2256Q14.635152453231811,51.8781,15.577552453231812,52.4582Q16.519852453231813,53.0383,17.504952453231812,53.5424Q18.49005245323181,54.0464,19.51185245323181,54.4714Q20.533552453231813,54.8963,21.585652453231813,55.2395Q22.637652453231812,55.5827,23.713452453231813,55.8419Q24.78925245323181,56.1012,25.88205245323181,56.2749Q26.97495245323181,56.4486,28.078052453231813,56.5358Q29.18125245323181,56.6229,30.28785245323181,56.6229Z" fill-rule="evenodd" fill="#FFCF00" fill-opacity="1"/><path d="M30.28785245323181,56.1229Q35.544952453231815,56.1229,40.43305245323181,54.1878Q45.740352453231814,52.0867,49.776752453231815,48.0504Q53.81305245323181,44.0141,55.914152453231814,38.7067Q57.84925245323181,33.8186,57.84925245323181,28.5615Q57.84925245323181,23.3043,55.914152453231814,18.4162Q53.81305245323181,13.1089,49.776752453231815,9.07257Q45.74045245323181,5.03629,40.43305245323181,2.93514Q35.544952453231815,1,30.28785245323181,1Q25.030652453231813,1,20.14255245323181,2.93514Q14.835152453231812,5.03628,10.798922453231812,9.07257Q6.762642453231812,13.1089,4.661492453231812,18.4162Q2.7263524532318115,23.3043,2.7263524532318115,28.5615Q2.7263524532318115,37.7486,8.238642453231812,45.0983L8.37662245323181,45.2823L6.455992453231811,53.9252L5.967902453231812,53.8168L5.809782453231811,53.3424L13.827952453231811,50.6697L14.036252453231812,50.8218Q21.297352453231813,56.123,30.28785245323181,56.1229ZM30.28785245323181,57.1229Q20.971252453231813,57.1229,13.446652453231811,51.6294L13.741452453231812,51.2256L13.899552453231811,51.6999L5.2882424532318115,54.5704L7.350542453231811,45.2899L7.838642453231811,45.3983L7.438642453231812,45.6983Q1.7263524532318115,38.082,1.7263524532318115,28.5615Q1.7263524532318115,23.1135,3.7317024532318115,18.0481Q5.909072453231811,12.5482,10.09181245323181,8.365459999999999Q14.274552453231811,4.182729999999999,19.774452453231813,2.00535Q24.839952453231813,0,30.28785245323181,0Q35.73575245323181,0,40.801152453231815,2.00535Q46.30105245323181,4.182729999999999,50.48385245323181,8.365459999999999Q54.66655245323181,12.5483,56.843952453231815,18.0481Q58.84925245323181,23.1136,58.84925245323181,28.5615Q58.84925245323181,34.0093,56.843952453231815,39.0748Q54.66655245323181,44.5747,50.48385245323181,48.7575Q46.30105245323181,52.9402,40.801152453231815,55.1176Q35.735652453231815,57.1229,30.28785245323181,57.1229Z" fill="#000000" fill-opacity="1"/></g><g><path d="M25.57615172032013,45.155793131103515C25.44220382032013,45.69159313110352,25.76796282032013,46.234523131103515,26.30375782032013,46.368473131103514C26.839547820320128,46.50242313110351,27.38248782032013,46.17666313110352,27.516437820320128,45.640863131103515C27.516437820320128,45.640863131103515,25.57615172032013,45.155793131103515,25.57615172032013,45.155793131103515C25.57615172032013,45.155793131103515,25.57615172032013,45.155793131103515,25.57615172032013,45.155793131103515ZM34.92997782032013,45.640863131103515C35.06392782032013,46.17666313110352,35.60685782032013,46.50242313110351,36.14265782032013,46.368473131103514C36.67845782032013,46.234523131103515,37.00415782032013,45.69159313110352,36.87025782032013,45.155793131103515C36.87025782032013,45.155793131103515,34.92997782032013,45.640863131103515,34.92997782032013,45.640863131103515C34.92997782032013,45.640863131103515,34.92997782032013,45.640863131103515,34.92997782032013,45.640863131103515ZM26.54629782032013,45.39833313110351C27.516437820320128,45.640863131103515,27.51632782032013,45.64130313110351,27.51622782032013,45.641713131103515C27.51618782032013,45.64183313110352,27.51608782032013,45.64224313110351,27.51602782032013,45.64248313110352C27.51590782032013,45.64297313110352,27.51579782032013,45.64340313110352,27.51570782032013,45.643773131103515C27.515507820320128,45.64452313110352,27.51537782032013,45.64506313110351,27.51529782032013,45.645383131103515C27.515127820320128,45.64602313110352,27.51517782032013,45.645813131103516,27.51545782032013,45.64477313110351C27.51600782032013,45.64270313110352,27.51744782032013,45.63734313110351,27.51983782032013,45.628913131103516C27.52461782032013,45.61204313110352,27.533147820320128,45.58301313110351,27.545817820320128,45.543573131103514C27.571247820320128,45.46448313110351,27.61293782032013,45.34485313110351,27.67398782032013,45.19833313110352C27.79718782032013,44.90265313110351,27.99300782032013,44.51247313110352,28.28167782032013,44.127563131103514C28.84672782032013,43.374163131103515,29.74529782032013,42.656803131103516,31.22320782032013,42.656803131103516C31.22320782032013,42.656803131103516,31.22320782032013,40.656803131103516,31.22320782032013,40.656803131103516C28.95958782032013,40.656803131103516,27.51969782032013,41.81020313110351,26.68167782032013,42.92756313110352C26.26881482032013,43.47804313110352,25.99693782032013,44.02324313110351,25.827831820320128,44.42910313110352C25.74272682032013,44.63335313110352,25.68211182032013,44.80603313110352,25.64176472032013,44.93155313110351C25.62155772032013,44.99442313110352,25.60633272032013,45.045773131103516,25.59558472032013,45.083713131103515C25.59020872032013,45.10268313110352,25.58594272032013,45.11833313110351,25.582726720320128,45.13042313110351C25.58111872032013,45.13646313110352,25.579771720320128,45.141623131103515,25.57867872032013,45.145853131103514C25.57813172032013,45.14797313110351,25.57764872032013,45.149863131103515,25.577227720320128,45.15152313110352C25.57701772032013,45.15235313110352,25.57682272032013,45.15312313110351,25.57664272032013,45.15383313110352C25.576553720320128,45.15419313110352,25.57643072032013,45.15468313110352,25.57638572032013,45.15486313110352C25.57626672032013,45.15533313110352,25.57615172032013,45.155793131103515,26.54629782032013,45.39833313110351C26.54629782032013,45.39833313110351,26.54629782032013,45.39833313110351,26.54629782032013,45.39833313110351ZM31.22320782032013,42.656803131103516C32.70111782032013,42.656803131103516,33.59968782032013,43.374163131103515,34.16473782032013,44.127563131103514C34.45340782032013,44.51247313110352,34.64922782032013,44.90265313110351,34.77242782032013,45.19833313110352C34.83347782032013,45.34485313110351,34.87516782032013,45.46448313110351,34.900587820320126,45.543573131103514C34.91326782032013,45.58301313110351,34.921787820320134,45.61204313110352,34.92656782032013,45.628913131103516C34.92895782032013,45.63734313110351,34.93040782032013,45.64270313110352,34.93095782032013,45.64477313110351C34.93122782032013,45.645813131103516,34.93128782032013,45.64602313110352,34.931117820320125,45.645383131103515C34.93103782032013,45.64506313110351,34.930897820320126,45.64452313110352,34.93070782032013,45.643773131103515C34.930607820320134,45.64340313110352,34.93050782032013,45.64297313110352,34.93037782032013,45.64248313110352C34.93031782032013,45.64224313110351,34.93021782032013,45.64183313110352,34.93018782032013,45.641713131103515C34.930087820320125,45.64130313110351,34.92997782032013,45.640863131103515,35.90015782032013,45.39833313110351C36.87025782032013,45.155793131103515,36.87005782032013,45.15533313110352,36.86995782032013,45.15486313110352C36.86995782032013,45.15468313110352,36.86985782032013,45.15419313110352,36.86975782032013,45.15383313110352C36.869557820320125,45.15312313110351,36.86935782032013,45.15235313110352,36.869157820320126,45.15152313110352C36.86875782032013,45.149863131103515,36.86825782032013,45.14797313110351,36.86765782032013,45.145853131103514C36.866557820320125,45.141623131103515,36.86525782032013,45.13646313110352,36.86365782032013,45.13042313110351C36.86045782032013,45.11833313110351,36.85615782032013,45.10268313110352,36.850757820320126,45.083713131103515C36.840057820320126,45.045773131103516,36.82485782032013,44.99442313110352,36.80455782032013,44.93155313110351C36.764257820320125,44.80603313110352,36.70365782032013,44.63335313110352,36.61855782032013,44.42910313110352C36.44945782032013,44.02324313110351,36.17755782032013,43.47804313110352,35.76475782032013,42.92756313110352C34.92670782032013,41.81020313110351,33.48682782032013,40.656803131103516,31.22320782032013,40.656803131103516C31.22320782032013,40.656803131103516,31.22320782032013,42.656803131103516,31.22320782032013,42.656803131103516C31.22320782032013,42.656803131103516,31.22320782032013,42.656803131103516,31.22320782032013,42.656803131103516Z" fill="#000000" fill-opacity="1"/></g><g><path d="M14.257972836494446,30.821603775024414C13.705687836494446,30.821603775024414,13.257972836494446,31.269318775024413,13.257972836494446,31.821603775024414C13.257972836494446,32.37388377502442,13.705687836494446,32.821603775024414,14.257972836494446,32.821603775024414C14.257972836494446,32.821603775024414,14.257972836494446,30.821603775024414,14.257972836494446,30.821603775024414C14.257972836494446,30.821603775024414,14.257972836494446,30.821603775024414,14.257972836494446,30.821603775024414ZM22.896102836494446,32.821603775024414C23.448372836494446,32.821603775024414,23.896072836494447,32.37388377502442,23.896072836494447,31.821603775024414C23.896072836494447,31.269318775024413,23.448372836494446,30.821603775024414,22.896102836494446,30.821603775024414C22.896102836494446,30.821603775024414,22.896102836494446,32.821603775024414,22.896102836494446,32.821603775024414C22.896102836494446,32.821603775024414,22.896102836494446,32.821603775024414,22.896102836494446,32.821603775024414ZM14.257972836494446,32.821603775024414C14.257972836494446,32.821603775024414,22.896102836494446,32.821603775024414,22.896102836494446,32.821603775024414C22.896102836494446,32.821603775024414,22.896102836494446,30.821603775024414,22.896102836494446,30.821603775024414C22.896102836494446,30.821603775024414,14.257972836494446,30.821603775024414,14.257972836494446,30.821603775024414C14.257972836494446,30.821603775024414,14.257972836494446,32.821603775024414,14.257972836494446,32.821603775024414C14.257972836494446,32.821603775024414,14.257972836494446,32.821603775024414,14.257972836494446,32.821603775024414Z" fill="#000000" fill-opacity="1"/></g><g><path d="M37.790515065193176,30.821603775024414C37.23823006519318,30.821603775024414,36.790515065193176,31.269318775024413,36.790515065193176,31.821603775024414C36.790515065193176,32.37388377502442,37.23823006519318,32.821603775024414,37.790515065193176,32.821603775024414C37.790515065193176,32.821603775024414,37.790515065193176,30.821603775024414,37.790515065193176,30.821603775024414C37.790515065193176,30.821603775024414,37.790515065193176,30.821603775024414,37.790515065193176,30.821603775024414ZM46.42864506519318,32.821603775024414C46.98091506519317,32.821603775024414,47.42861506519318,32.37388377502442,47.42861506519318,31.821603775024414C47.42861506519318,31.269318775024413,46.98091506519317,30.821603775024414,46.42864506519318,30.821603775024414C46.42864506519318,30.821603775024414,46.42864506519318,32.821603775024414,46.42864506519318,32.821603775024414C46.42864506519318,32.821603775024414,46.42864506519318,32.821603775024414,46.42864506519318,32.821603775024414ZM37.790515065193176,32.821603775024414C37.790515065193176,32.821603775024414,46.42864506519318,32.821603775024414,46.42864506519318,32.821603775024414C46.42864506519318,32.821603775024414,46.42864506519318,30.821603775024414,46.42864506519318,30.821603775024414C46.42864506519318,30.821603775024414,37.790515065193176,30.821603775024414,37.790515065193176,30.821603775024414C37.790515065193176,30.821603775024414,37.790515065193176,32.821603775024414,37.790515065193176,32.821603775024414C37.790515065193176,32.821603775024414,37.790515065193176,32.821603775024414,37.790515065193176,32.821603775024414Z" fill="#000000" fill-opacity="1"/></g><g><path d="M15.471315773200988,18.98356813621521C15.80021577320099,22.83276813621521,12.972015773200988,26.68186813621521,7.984155773200989,26.68186813621521C3.0730657732009887,26.68186813621521,0.2454487732009888,22.83276813621521,0.5216390732009888,18.98356813621521C0.7955377732009887,15.16636813621521,5.142515773200989,6.62367813621521,7.914735773200989,3.66022993621521C7.953435773200988,3.61885883621521,8.014775773200988,3.61866583621521,8.053785773200989,3.65974563621521C10.867515773200989,6.622748136215209,15.145015773200988,15.16616813621521,15.471315773200988,18.98356813621521C15.471315773200988,18.98356813621521,15.471315773200988,18.98356813621521,15.471315773200988,18.98356813621521Z" fill="#95F6FC" fill-opacity="1"/><path d="M13.144315773200988,10.78123813621521Q10.626515773200989,5.6428281362152095,8.416355773200989,3.31544313621521Q8.23854577320099,3.12820613621521,7.982455773200988,3.12907113621521Q7.726125773200989,3.12993813621521,7.549595773200989,3.31865313621521Q5.343405773200989,5.67702813621521,2.8326657732009886,10.781028136215209Q0.22915277320098876,16.073568136215208,0.022920773200988787,18.94776813621521Q-0.21056222679901127,22.20176813621521,1.9343757732009887,24.60876813621521Q4.227275773200988,27.18186813621521,7.984155773200989,27.18186813621521Q11.79631577320099,27.18186813621521,14.09441577320099,24.60926813621521Q16.24781577320099,22.19856813621521,15.969515773200989,18.94096813621521Q15.72161577320099,16.04096813621521,13.144315773200988,10.78123813621521ZM7.986485773200989,4.32675613621521Q6.005675773200989,6.59622813621521,3.7299757732009886,11.22243813621521Q1.2126187732009888,16.33986813621521,1.0203567732009886,19.01936813621521Q0.8171107732009888,21.85196813621521,2.680955773200989,23.94346813621521Q4.675595773200989,26.18186813621521,7.984155773200989,26.18186813621521Q11.348715773200988,26.18186813621521,13.348615773200988,23.94306813621521Q15.21481577320099,21.85406813621521,14.97311577320099,19.02616813621521Q14.741215773200988,16.31276813621521,12.246315773200989,11.22125813621521Q9.96678577320099,6.56916813621521,7.986485773200989,4.32675613621521Z" fill-rule="evenodd" fill="#000000" fill-opacity="1"/></g></g></svg>