<svg xmlns="http://www.w3.org/2000/svg" xmlns:xlink="http://www.w3.org/1999/xlink" fill="none" version="1.1" width="56.0582275390625" height="58.899993896484375" viewBox="0 0 56.0582275390625 58.899993896484375"><defs><mask id="master_svg0_0_1132" style="mask-type:alpha" maskUnits="userSpaceOnUse"><g><rect x="0" y="0" width="56.0582275390625" height="58.900001525878906" rx="0" fill="#FFFFFF" fill-opacity="1"/></g></mask></defs><g mask="url(#master_svg0_0_1132)"><g><path d="M12.73685020942688,28.689538378334046C7.327950209426881,30.548938378334046,-0.5036497905731201,27.914738378334047,-3.74334979057312,26.365238378334045C-3.74334979057312,26.365238378334045,-3.74334979057312,52.43893837833404,-3.74334979057312,52.43893837833404C-2.32299979057312,52.63833837833405,1.8191102094268796,52.91763837833405,7.02485020942688,52.43893837833404C13.531950209426881,51.840538378334045,18.24755020942688,55.14353837833404,26.25055020942688,56.265438378334046C32.652950209426876,57.16293837833405,39.74815020942688,56.85173837833405,42.46565020942688,56.702238378334044C42.46565020942688,56.702238378334044,52.20065020942688,27.233238378334047,52.20065020942688,27.233238378334047C45.87755020942688,26.943838378334046,33.37625020942688,23.850338378334044,34.99215020942688,18.054738378334047C37.70935020942688,8.307178378334045,29.92125020942688,-1.6653116216659547,23.79405020942688,1.9265323783340453C17.66675020942688,5.518368378334046,22.80805020942688,9.744238378334046,23.01935020942688,16.364538378334046C23.23055020942688,22.984738378334047,19.49795020942688,26.365238378334045,12.73685020942688,28.689538378334046C12.73685020942688,28.689538378334046,12.73685020942688,28.689538378334046,12.73685020942688,28.689538378334046Z" fill="#F5CEA3" fill-opacity="1"/><path d="M21.25315020942688,10.521258378334045Q22.44995020942688,14.197938378334046,22.51965020942688,16.380538378334045Q22.66545020942688,20.952238378334044,20.11965020942688,23.805138378334046Q17.77985020942688,26.427138378334046,12.574250209426879,28.216738378334046Q9.11985020942688,29.404238378334046,3.7832202094268803,28.315838378334046Q-0.20838979057312024,27.501738378334046,-3.5276127905731203,25.914138378334044L-4.24334979057312,25.571838378334046L-4.24334979057312,52.87363837833404L-3.81286269057312,52.934038378334044Q0.50646020942688,53.540438378334045,7.07065020942688,52.936838378334045Q9.53895020942688,52.70983837833405,12.28435020942688,53.24943837833405Q13.97595020942688,53.58183837833405,17.43135020942688,54.64093837833405Q22.80145020942688,56.286838378334046,26.181150209426878,56.76063837833404Q33.03725020942688,57.721738378334045,42.49315020942688,57.201438378334046L42.83345020942688,57.182738378334044L52.88225020942688,26.763938378334046L52.22355020942688,26.733738378334046Q46.15935020942688,26.456238378334046,40.81015020942688,24.246738378334044Q34.51035020942688,21.644438378334044,35.47375020942688,18.189038378334047Q36.48145020942688,14.574238378334046,35.74095020942688,10.820578378334046Q35.06015020942688,7.369548378334045,33.11405020942688,4.694238378334045Q31.17385020942688,2.0269773783340455,28.68665020942688,1.0924528783340455Q25.96965020942688,0.07159837833404548,23.54115020942688,1.4951853783340454Q20.59965020942688,3.2195083783340452,20.330550209426878,5.696198378334046Q20.16845020942688,7.188548378334046,21.25315020942688,10.521258378334045ZM20.86575020942688,24.470938378334047Q23.67765020942688,21.319838378334044,23.51905020942688,16.348638378334044Q23.44495020942688,14.023738378334045,22.204050209426878,10.211738378334045Q21.185750209426878,7.083148378334045,21.32475020942688,5.804228378334045Q21.53945020942688,3.8277483783340456,24.04695020942688,2.3578783783340453Q26.06415020942688,1.1753596883340454,28.33495020942688,2.028557378334045Q30.54155020942688,2.857648378334045,32.30545020942688,5.282488378334046Q34.12175020942688,7.779458378334046,34.75985020942688,11.014118378334045Q35.45435020942688,14.534638378334046,34.51055020942688,17.920438378334044Q33.30885020942688,22.230138378334047,40.42835020942688,25.170938378334046Q45.64805020942688,27.326938378334045,51.52085020942688,27.697038378334046L42.09795020942688,56.22123837833404Q32.95635020942688,56.700538378334045,26.31995020942688,55.77023837833404Q23.01875020942688,55.307538378334044,17.72435020942688,53.68483837833404Q14.219550209426881,52.610638378334045,12.477250209426881,52.268138378334044Q9.59065020942688,51.700938378334044,6.97905020942688,51.94103837833404Q0.8562302094268794,52.50413837833405,-3.24334979057312,52.000438378334046L-3.24334979057312,27.146638378334046Q-0.10416979057312004,28.543538378334045,3.5833802094268803,29.295638378334047Q9.18715020942688,30.438538378334044,12.899350209426881,29.162338378334045Q18.35195020942688,27.287938378334044,20.86575020942688,24.470938378334047Z" fill-rule="evenodd" fill="#000000" fill-opacity="1"/></g><g><rect x="28.171531677246094" y="24.794483184814453" width="26.72315788269043" height="8.787310600280762" rx="2.26933217048645" fill="#F5CEA3" fill-opacity="1"/><rect x="28.171531677246094" y="24.794483184814453" width="26.72315788269043" height="8.787310600280762" rx="2.26933217048645" fill-opacity="0" stroke-opacity="1" stroke="#000000" fill="none" stroke-width="1"/></g><g><rect x="26.168315887451172" y="33.58195114135742" width="28.726348876953125" height="8.787310600280762" rx="2.26933217048645" fill="#F5CEA3" fill-opacity="1"/><rect x="26.168315887451172" y="33.58195114135742" width="28.726348876953125" height="8.787310600280762" rx="2.26933217048645" fill-opacity="0" stroke-opacity="1" stroke="#000000" fill="none" stroke-width="1"/></g><g><rect x="26.168315887451172" y="42.36941909790039" width="26.032352447509766" height="7.518243312835693" rx="2.26933217048645" fill="#F5CEA3" fill-opacity="1"/><rect x="26.168315887451172" y="42.36941909790039" width="26.032352447509766" height="7.518243312835693" rx="2.26933217048645" fill-opacity="0" stroke-opacity="1" stroke="#000000" fill="none" stroke-width="1"/></g><g><rect x="29.049358367919922" y="49.88764953613281" width="20.638980865478516" height="6.820820331573486" rx="2.26933217048645" fill="#F5CEA3" fill-opacity="1"/><rect x="29.049358367919922" y="49.88764953613281" width="20.638980865478516" height="6.820820331573486" rx="2.26933217048645" fill-opacity="0" stroke-opacity="1" stroke="#000000" fill="none" stroke-width="1"/></g></g></svg>