<svg xmlns="http://www.w3.org/2000/svg" xmlns:xlink="http://www.w3.org/1999/xlink" fill="none" version="1.1" width="59.38441848754883" height="57.1229248046875" viewBox="0 0 59.38441848754883 57.1229248046875"><defs><filter id="master_svg0_0_964" filterUnits="objectBoundingBox" color-interpolation-filters="sRGB" x="-1" y="-1" width="7.612292289733887" height="5.741528034210205"><feFlood flood-opacity="0" result="BackgroundImageFix"/><feBlend mode="normal" in="SourceGraphic" in2="BackgroundImageFix" result="shape"/><feGaussianBlur stdDeviation="0.25" result="effect1_foregroundBlur"/></filter></defs><g><g><path d="M28.5615,56.6229Q29.2503,56.6229,29.9384,56.5891Q30.6264,56.5553,31.312,56.4878Q31.9975,56.4203,32.6789,56.3192Q33.3603,56.2181,34.036,56.0837Q34.7116,55.9493,35.3798,55.7819Q36.0481,55.6146,36.7073,55.4146Q37.3665,55.2146,38.0151,54.9826Q38.6637,54.7505,39.3001,54.4869Q39.9365,54.2232,40.5593,53.9287Q41.182,53.6342,41.7895,53.3095Q42.3971,52.9847,42.9879,52.6306Q43.5788,52.2764,44.1516,51.8937Q44.7243,51.511,45.2776,51.1006Q45.831,50.6903,46.3635,50.2533Q46.896,49.8162,47.4064,49.3536Q47.9168,48.891,48.4039,48.4039Q48.891,47.9168,49.3536,47.4064Q49.8162,46.896,50.2533,46.3635Q50.6903,45.831,51.1006,45.2776Q51.511,44.7243,51.8937,44.1516Q52.2764,43.5788,52.6306,42.9879Q52.9847,42.3971,53.3095,41.7895Q53.6342,41.182,53.9287,40.5593Q54.2232,39.9365,54.4869,39.3001Q54.7505,38.6637,54.9826,38.0151Q55.2146,37.3665,55.4146,36.7073Q55.6146,36.0481,55.782,35.3798Q55.9493,34.7116,56.0837,34.036Q56.2181,33.3603,56.3192,32.6789Q56.4203,31.9975,56.4878,31.312Q56.5553,30.6264,56.5891,29.9384Q56.6229,29.2503,56.6229,28.5615Q56.6229,27.8726,56.5891,27.1846Q56.5553,26.4965,56.4878,25.811Q56.4203,25.1254,56.3192,24.444Q56.2181,23.7626,56.0837,23.0869Q55.9493,22.4113,55.7819,21.7431Q55.6146,21.0749,55.4146,20.4156Q55.2146,19.7564,54.9826,19.1078Q54.7505,18.4592,54.4869,17.8228Q54.2232,17.1864,53.9287,16.5636Q53.6342,15.9409,53.3095,15.3334Q52.9847,14.7259,52.6306,14.135Q52.2764,13.5441,51.8937,12.9713Q51.511,12.3986,51.1006,11.8453Q50.6903,11.292,50.2533,10.7595Q49.8162,10.22695,49.3536,9.71654Q48.891,9.20612,48.4039,8.71901Q47.9168,8.23191,47.4064,7.76929Q46.896,7.30667,46.3635,6.86966Q45.831,6.43264,45.2776,6.02228Q44.7243,5.61192,44.1516,5.22921Q43.5788,4.84649,42.9879,4.49234Q42.3971,4.13819,41.7895,3.81346Q41.182,3.48873,40.5593,3.1942Q39.9365,2.89967,39.3001,2.63605Q38.6637,2.37243,38.0151,2.1403600000000003Q37.3665,1.90829,36.7073,1.70832Q36.0481,1.50835,35.3798,1.340967Q34.7116,1.173585,34.036,1.039193Q33.3603,0.904801,32.6789,0.803723Q31.9975,0.702645,31.312,0.635124Q30.6264,0.5676025,29.9384,0.5338013Q29.2503,0.5,28.5615,0.5Q27.8726,0.5,27.1846,0.5338013Q26.4965,0.5676025,25.811,0.635124Q25.1254,0.702645,24.444,0.803723Q23.7626,0.904801,23.0869,1.039193Q22.4113,1.173585,21.7431,1.340967Q21.0749,1.50835,20.4156,1.70832Q19.7564,1.90829,19.1078,2.1403600000000003Q18.4592,2.37243,17.8228,2.63605Q17.1864,2.89967,16.5636,3.1942Q15.9409,3.48873,15.3334,3.81346Q14.7259,4.13819,14.135,4.49234Q13.5441,4.84649,12.9713,5.22921Q12.3986,5.61192,11.8453,6.02228Q11.292,6.43264,10.7595,6.86966Q10.22695,7.30667,9.71654,7.76929Q9.20612,8.23191,8.71901,8.71901Q8.23191,9.20612,7.76929,9.71654Q7.30667,10.22695,6.86966,10.7595Q6.43264,11.292,6.02228,11.8453Q5.61192,12.3986,5.22921,12.9713Q4.84649,13.5441,4.49234,14.135Q4.13819,14.7259,3.81346,15.3334Q3.48873,15.9409,3.1942,16.5636Q2.89967,17.1864,2.63605,17.8228Q2.37243,18.4592,2.1403600000000003,19.1078Q1.90829,19.7564,1.70832,20.4156Q1.50835,21.0749,1.340967,21.7431Q1.173585,22.4113,1.039193,23.0869Q0.904801,23.7626,0.803723,24.444Q0.702645,25.1254,0.635124,25.811Q0.5676025,26.4965,0.5338013,27.1846Q0.5,27.8726,0.5,28.5615Q0.4999999999999988,29.6907,0.5907328000000001,30.8162Q0.681466,31.9418,0.8623449999999999,33.0564Q1.043224,34.171,1.313079,35.2675Q1.58293,36.364,1.94002,37.4353Q2.29711,38.5065,2.73912,39.5456Q3.18112,40.5847,3.7052,41.585Q4.22927,42.5852,4.83202,43.5401Q5.43476,44.495,6.11229,45.3983L4.24155,53.8168L12.0151,51.2256Q12.9088,51.8781,13.8512,52.4582Q14.7935,53.0383,15.7786,53.5424Q16.7637,54.0464,17.7855,54.4714Q18.8072,54.8963,19.8593,55.2395Q20.9113,55.5827,21.9871,55.8419Q23.0629,56.1012,24.1557,56.2749Q25.2486,56.4486,26.3517,56.5358Q27.4549,56.6229,28.5615,56.6229Z" fill-rule="evenodd" fill="#FFCF00" fill-opacity="1"/><path d="M28.5615,56.1229Q33.8186,56.1229,38.7067,54.1878Q44.014,52.0867,48.0504,48.0504Q52.0867,44.0141,54.1878,38.7067Q56.1229,33.8186,56.1229,28.5615Q56.1229,23.3043,54.1878,18.4162Q52.0867,13.1089,48.0504,9.07257Q44.0141,5.03629,38.7067,2.93514Q33.8186,1,28.5615,1Q23.3043,1,18.4162,2.93514Q13.1088,5.03628,9.07257,9.07257Q5.03629,13.1089,2.93514,18.4162Q1,23.3043,1,28.5615Q1,37.7486,6.51229,45.0983L6.65027,45.2823L4.72964,53.9252L4.24155,53.8168L4.08343,53.3424L12.1016,50.6697L12.3099,50.8218Q19.571,56.123,28.5615,56.1229ZM28.5615,57.1229Q19.2449,57.1229,11.7203,51.6294L12.0151,51.2256L12.1732,51.6999L3.56189,54.5704L5.62419,45.2899L6.11229,45.3983L5.71229,45.6983Q0,38.082,0,28.5615Q0,23.1135,2.00535,18.0481Q4.18272,12.5482,8.365459999999999,8.365459999999999Q12.5482,4.182729999999999,18.0481,2.00535Q23.1136,0,28.5615,0Q34.0094,0,39.0748,2.00535Q44.5747,4.182729999999999,48.7575,8.365459999999999Q52.9402,12.5483,55.1176,18.0481Q57.1229,23.1136,57.1229,28.5615Q57.1229,34.0093,55.1176,39.0748Q52.9402,44.5747,48.7575,48.7575Q44.5747,52.9402,39.0748,55.1176Q34.0093,57.1229,28.5615,57.1229Z" fill="#000000" fill-opacity="1"/></g><g><path d="M11.979802870300293,13.239507596435548C11.704312870300292,13.258467596435548,11.496359670300293,13.497177596435547,11.515325660300293,13.772667596435546C11.534291670300293,14.048157596435548,11.772995870300292,14.256107596435548,12.048485870300293,14.237137596435547C12.048485870300293,14.237137596435547,11.979802870300293,13.239507596435548,11.979802870300293,13.239507596435548C11.979802870300293,13.239507596435548,11.979802870300293,13.239507596435548,11.979802870300293,13.239507596435548ZM18.50554487030029,9.984788596435546C18.603344870300294,9.726544596435547,18.473274870300294,9.437914596435547,18.215034870300293,9.340112096435547C17.956794870300293,9.242311096435547,17.668164870300295,9.372375096435547,17.570354870300292,9.630617596435547C17.570354870300292,9.630617596435547,18.50554487030029,9.984788596435546,18.50554487030029,9.984788596435546C18.50554487030029,9.984788596435546,18.50554487030029,9.984788596435546,18.50554487030029,9.984788596435546ZM12.048485870300293,14.237137596435547C12.884814870300293,14.179567596435547,14.185134870300292,13.903207596435546,15.427804870300292,13.259997596435547C16.673644870300294,12.615137596435547,17.901694870300293,11.579247596435547,18.50554487030029,9.984788596435546C18.50554487030029,9.984788596435546,17.570354870300292,9.630617596435547,17.570354870300292,9.630617596435547C17.080464870300293,10.924187596435546,16.072704870300292,11.800167596435546,14.968134870300293,12.371907596435546C13.860394870300293,12.945277596435547,12.695674870300293,13.190217596435547,11.979802870300293,13.239507596435548C11.979802870300293,13.239507596435548,12.048485870300293,14.237137596435547,12.048485870300293,14.237137596435547C12.048485870300293,14.237137596435547,12.048485870300293,14.237137596435547,12.048485870300293,14.237137596435547Z" fill="#000000" fill-opacity="1"/></g><g transform="matrix(-1,0,0,1,89.29842376708984,0)"><path d="M45.11488988354492,13.239507596435548C44.83939988354492,13.258467596435548,44.63144668354492,13.497177596435547,44.65041267354492,13.772667596435546C44.66937868354492,14.048157596435548,44.90808288354492,14.256107596435548,45.18357288354492,14.237137596435547C45.18357288354492,14.237137596435547,45.11488988354492,13.239507596435548,45.11488988354492,13.239507596435548C45.11488988354492,13.239507596435548,45.11488988354492,13.239507596435548,45.11488988354492,13.239507596435548ZM51.64063188354492,9.984788596435546C51.73843188354492,9.726544596435547,51.60836188354492,9.437914596435547,51.35012188354492,9.340112096435547C51.09188188354492,9.242311096435547,50.803251883544924,9.372375096435547,50.70544188354492,9.630617596435547C50.70544188354492,9.630617596435547,51.64063188354492,9.984788596435546,51.64063188354492,9.984788596435546C51.64063188354492,9.984788596435546,51.64063188354492,9.984788596435546,51.64063188354492,9.984788596435546ZM45.18357288354492,14.237137596435547C46.019901883544925,14.179567596435547,47.320221883544924,13.903207596435546,48.56289188354492,13.259997596435547C49.80873188354492,12.615137596435547,51.03678188354492,11.579247596435547,51.64063188354492,9.984788596435546C51.64063188354492,9.984788596435546,50.70544188354492,9.630617596435547,50.70544188354492,9.630617596435547C50.21555188354492,10.924187596435546,49.20779188354492,11.800167596435546,48.10322188354492,12.371907596435546C46.99548188354492,12.945277596435547,45.83076188354492,13.190217596435547,45.11488988354492,13.239507596435548C45.11488988354492,13.239507596435548,45.18357288354492,14.237137596435547,45.18357288354492,14.237137596435547C45.18357288354492,14.237137596435547,45.18357288354492,14.237137596435547,45.18357288354492,14.237137596435547Z" fill="#000000" fill-opacity="1"/></g><g filter="url(#master_svg0_0_964)"><ellipse cx="10.633458614349365" cy="31.095829248428345" rx="2.8061461448669434" ry="1.8707640171051025" fill="#FF8D6E" fill-opacity="1"/></g><g transform="matrix(1,0,0,-1,0,54.088417053222656)"><ellipse cx="16.78764057159424" cy="31.34423065185547" rx="3.5663557052612305" ry="4.300022125244141" fill="#000000" fill-opacity="1"/></g><g transform="matrix(1,0,0,-1,0,54.088417053222656)"><ellipse cx="39.21260738372803" cy="31.34423065185547" rx="3.5663557052612305" ry="4.300022125244141" fill="#000000" fill-opacity="1"/></g><g><path d="M20.454607769287108,43.97250517578125C20.20951286928711,44.30641517578125,20.28151786928711,44.77580517578125,20.61543576928711,45.02089517578125C20.94935476928711,45.26599517578125,21.41873976928711,45.19398517578125,21.66382976928711,44.86006517578125C21.66382976928711,44.86006517578125,20.454607769287108,43.97250517578125,20.454607769287108,43.97250517578125C20.454607769287108,43.97250517578125,20.454607769287108,43.97250517578125,20.454607769287108,43.97250517578125ZM30.33836976928711,43.01082517578125C30.650069769287107,43.28357517578125,31.12386976928711,43.25198517578125,31.396669769287108,42.94025517578125C31.66946976928711,42.62852517578125,31.637869769287107,42.15469517578125,31.32606976928711,41.88194517578125C31.32606976928711,41.88194517578125,30.33836976928711,43.01082517578125,30.33836976928711,43.01082517578125C30.33836976928711,43.01082517578125,30.33836976928711,43.01082517578125,30.33836976928711,43.01082517578125ZM21.66382976928711,44.86006517578125C22.28387976928711,44.015315175781254,23.707949769287108,42.83080517578125,25.38581976928711,42.23831517578125C27.03414976928711,41.65624517578125,28.81265976928711,41.67587517578125,30.33836976928711,43.01082517578125C30.33836976928711,43.01082517578125,31.32606976928711,41.88194517578125,31.32606976928711,41.88194517578125C29.27226976928711,40.08490517578125,26.874519769287108,40.12184517578125,24.88635976928711,40.82390717578125C22.92771976928711,41.51554517578125,21.25505076928711,42.88197517578125,20.454607769287108,43.97250517578125C20.454607769287108,43.97250517578125,21.66382976928711,44.86006517578125,21.66382976928711,44.86006517578125C21.66382976928711,44.86006517578125,21.66382976928711,44.86006517578125,21.66382976928711,44.86006517578125Z" fill="#000000" fill-opacity="1"/></g><g><ellipse cx="53.877511978149414" cy="35.722984313964844" rx="4.627126693725586" ry="4.627126693725586" fill="#FFCF00" fill-opacity="1"/></g><g><path d="M30.910535598754883,30.08478355407715C30.63439559875488,30.08478355407715,30.41053359875488,30.30864155407715,30.41053359875488,30.58478355407715C30.41053359875488,30.86092555407715,30.63439559875488,31.08478355407715,30.910535598754883,31.08478355407715C30.910535598754883,31.08478355407715,30.910535598754883,30.08478355407715,30.910535598754883,30.08478355407715C30.910535598754883,30.08478355407715,30.910535598754883,30.08478355407715,30.910535598754883,30.08478355407715ZM30.214383598754882,34.54072355407715C29.947697598754882,34.469083554077145,29.673426098754884,34.62719355407715,29.601781098754884,34.89388355407715C29.53013709875488,35.16056355407715,29.688249598754883,35.43484355407715,29.954935598754883,35.50648355407715C29.954935598754883,35.50648355407715,30.214383598754882,34.54072355407715,30.214383598754882,34.54072355407715C30.214383598754882,34.54072355407715,30.214383598754882,34.54072355407715,30.214383598754882,34.54072355407715ZM52.79843559875488,41.12558355407715C52.79843559875488,41.12558355407715,52.66863559875488,41.60848355407715,52.66863559875488,41.60848355407715C52.66863559875488,41.60848355407715,52.79843559875488,41.12558355407715,52.79843559875488,41.12558355407715C52.79843559875488,41.12558355407715,52.79843559875488,41.12558355407715,52.79843559875488,41.12558355407715ZM30.910535598754883,31.08478355407715C30.910535598754883,31.08478355407715,54.88013559875488,31.08478355407715,54.88013559875488,31.08478355407715C54.88013559875488,31.08478355407715,54.88013559875488,30.08478355407715,54.88013559875488,30.08478355407715C54.88013559875488,30.08478355407715,30.910535598754883,30.08478355407715,30.910535598754883,30.08478355407715C30.910535598754883,30.08478355407715,30.910535598754883,31.08478355407715,30.910535598754883,31.08478355407715C30.910535598754883,31.08478355407715,30.910535598754883,31.08478355407715,30.910535598754883,31.08478355407715ZM58.14103559875488,35.85604355407715C58.14103559875488,35.85604355407715,57.09713559875488,38.53383355407715,57.09713559875488,38.53383355407715C57.09713559875488,38.53383355407715,58.02883559875488,38.89705355407715,58.02883559875488,38.89705355407715C58.02883559875488,38.89705355407715,59.07273559875488,36.219263554077145,59.07273559875488,36.219263554077145C59.07273559875488,36.219263554077145,58.14103559875488,35.85604355407715,58.14103559875488,35.85604355407715C58.14103559875488,35.85604355407715,58.14103559875488,35.85604355407715,58.14103559875488,35.85604355407715ZM52.92813559875488,40.64268355407715C52.92813559875488,40.64268355407715,30.214383598754882,34.54072355407715,30.214383598754882,34.54072355407715C30.214383598754882,34.54072355407715,29.954935598754883,35.50648355407715,29.954935598754883,35.50648355407715C29.954935598754883,35.50648355407715,52.66863559875488,41.60848355407715,52.66863559875488,41.60848355407715C52.66863559875488,41.60848355407715,52.92813559875488,40.64268355407715,52.92813559875488,40.64268355407715C52.92813559875488,40.64268355407715,52.92813559875488,40.64268355407715,52.92813559875488,40.64268355407715ZM57.09713559875488,38.53383355407715C56.44873559875488,40.19718355407715,54.652235598754885,41.10588355407715,52.92813559875488,40.64268355407715C52.92813559875488,40.64268355407715,52.66863559875488,41.60848355407715,52.66863559875488,41.60848355407715C54.88543559875488,42.20398355407715,57.19513559875489,41.03568355407715,58.02883559875488,38.89705355407715C58.02883559875488,38.89705355407715,57.09713559875488,38.53383355407715,57.09713559875488,38.53383355407715C57.09713559875488,38.53383355407715,57.09713559875488,38.53383355407715,57.09713559875488,38.53383355407715ZM54.88013559875488,31.08478355407715C57.343135598754884,31.08478355407715,59.03563559875488,33.56125355407715,58.14103559875488,35.85604355407715C58.14103559875488,35.85604355407715,59.07273559875488,36.219263554077145,59.07273559875488,36.219263554077145C60.22303559875488,33.26882355407715,58.04683559875488,30.08478355407715,54.88013559875488,30.08478355407715C54.88013559875488,30.08478355407715,54.88013559875488,31.08478355407715,54.88013559875488,31.08478355407715C54.88013559875488,31.08478355407715,54.88013559875488,31.08478355407715,54.88013559875488,31.08478355407715Z" fill="#000000" fill-opacity="1"/></g></g></svg>