<svg xmlns="http://www.w3.org/2000/svg" xmlns:xlink="http://www.w3.org/1999/xlink" fill="none" version="1.1" width="57.1229248046875" height="57.1229248046875" viewBox="0 0 57.1229248046875 57.1229248046875"><defs><filter id="master_svg0_0_352" filterUnits="objectBoundingBox" color-interpolation-filters="sRGB" x="-2" y="-2" width="10.547674179077148" height="6.806146144866943"><feFlood flood-opacity="0" result="BackgroundImageFix"/><feBlend mode="normal" in="SourceGraphic" in2="BackgroundImageFix" result="shape"/><feGaussianBlur stdDeviation="0.5" result="effect1_foregroundBlur"/></filter><filter id="master_svg1_0_353" filterUnits="objectBoundingBox" color-interpolation-filters="sRGB" x="-2" y="-2" width="10.547674179077148" height="6.806146144866943"><feFlood flood-opacity="0" result="BackgroundImageFix"/><feBlend mode="normal" in="SourceGraphic" in2="BackgroundImageFix" result="shape"/><feGaussianBlur stdDeviation="0.5" result="effect1_foregroundBlur"/></filter></defs><g><g><path d="M28.5615,56.6229Q29.2503,56.6229,29.9384,56.5891Q30.6264,56.5553,31.312,56.4878Q31.9975,56.4203,32.6789,56.3192Q33.3603,56.2181,34.036,56.0837Q34.7116,55.9493,35.3798,55.7819Q36.0481,55.6146,36.7073,55.4146Q37.3665,55.2146,38.0151,54.9826Q38.6637,54.7505,39.3001,54.4869Q39.9365,54.2232,40.5593,53.9287Q41.182,53.6342,41.7895,53.3095Q42.3971,52.9847,42.9879,52.6306Q43.5788,52.2764,44.1516,51.8937Q44.7243,51.511,45.2776,51.1006Q45.831,50.6903,46.3635,50.2533Q46.896,49.8162,47.4064,49.3536Q47.9168,48.891,48.4039,48.4039Q48.891,47.9168,49.3536,47.4064Q49.8162,46.896,50.2533,46.3635Q50.6903,45.831,51.1006,45.2776Q51.511,44.7243,51.8937,44.1516Q52.2764,43.5788,52.6306,42.9879Q52.9847,42.3971,53.3095,41.7895Q53.6342,41.182,53.9287,40.5593Q54.2232,39.9365,54.4869,39.3001Q54.7505,38.6637,54.9826,38.0151Q55.2146,37.3665,55.4146,36.7073Q55.6146,36.0481,55.782,35.3798Q55.9493,34.7116,56.0837,34.036Q56.2181,33.3603,56.3192,32.6789Q56.4203,31.9975,56.4878,31.312Q56.5553,30.6264,56.5891,29.9384Q56.6229,29.2503,56.6229,28.5615Q56.6229,27.8726,56.5891,27.1846Q56.5553,26.4965,56.4878,25.811Q56.4203,25.1254,56.3192,24.444Q56.2181,23.7626,56.0837,23.0869Q55.9493,22.4113,55.7819,21.7431Q55.6146,21.0749,55.4146,20.4156Q55.2146,19.7564,54.9826,19.1078Q54.7505,18.4592,54.4869,17.8228Q54.2232,17.1864,53.9287,16.5636Q53.6342,15.9409,53.3095,15.3334Q52.9847,14.7259,52.6306,14.135Q52.2764,13.5441,51.8937,12.9713Q51.511,12.3986,51.1006,11.8453Q50.6903,11.292,50.2533,10.7595Q49.8162,10.22695,49.3536,9.71654Q48.891,9.20612,48.4039,8.71901Q47.9168,8.23191,47.4064,7.76929Q46.896,7.30667,46.3635,6.86966Q45.831,6.43264,45.2776,6.02228Q44.7243,5.61192,44.1516,5.22921Q43.5788,4.84649,42.9879,4.49234Q42.3971,4.13819,41.7895,3.81346Q41.182,3.48873,40.5593,3.1942Q39.9365,2.89967,39.3001,2.63605Q38.6637,2.37243,38.0151,2.1403600000000003Q37.3665,1.90829,36.7073,1.70832Q36.0481,1.50835,35.3798,1.340967Q34.7116,1.173585,34.036,1.039193Q33.3603,0.904801,32.6789,0.803723Q31.9975,0.702645,31.312,0.635124Q30.6264,0.5676025,29.9384,0.5338013Q29.2503,0.5,28.5615,0.5Q27.8726,0.5,27.1846,0.5338013Q26.4965,0.5676025,25.811,0.635124Q25.1254,0.702645,24.444,0.803723Q23.7626,0.904801,23.0869,1.039193Q22.4113,1.173585,21.7431,1.340967Q21.0749,1.50835,20.4156,1.70832Q19.7564,1.90829,19.1078,2.1403600000000003Q18.4592,2.37243,17.8228,2.63605Q17.1864,2.89967,16.5636,3.1942Q15.9409,3.48873,15.3334,3.81346Q14.7259,4.13819,14.135,4.49234Q13.5441,4.84649,12.9713,5.22921Q12.3986,5.61192,11.8453,6.02228Q11.292,6.43264,10.7595,6.86966Q10.22695,7.30667,9.71654,7.76929Q9.20612,8.23191,8.71901,8.71901Q8.23191,9.20612,7.76929,9.71654Q7.30667,10.22695,6.86966,10.7595Q6.43264,11.292,6.02228,11.8453Q5.61192,12.3986,5.22921,12.9713Q4.84649,13.5441,4.49234,14.135Q4.13819,14.7259,3.81346,15.3334Q3.48873,15.9409,3.1942,16.5636Q2.89967,17.1864,2.63605,17.8228Q2.37243,18.4592,2.1403600000000003,19.1078Q1.90829,19.7564,1.70832,20.4156Q1.50835,21.0749,1.340967,21.7431Q1.173585,22.4113,1.039193,23.0869Q0.904801,23.7626,0.803723,24.444Q0.702645,25.1254,0.635124,25.811Q0.5676025,26.4965,0.5338013,27.1846Q0.5,27.8726,0.5,28.5615Q0.4999999999999988,29.6907,0.5907328000000001,30.8162Q0.681466,31.9418,0.8623449999999999,33.0564Q1.043224,34.171,1.313079,35.2675Q1.58293,36.364,1.94002,37.4353Q2.29711,38.5065,2.73912,39.5456Q3.18112,40.5847,3.7052,41.585Q4.22927,42.5852,4.83202,43.5401Q5.43476,44.495,6.11229,45.3983L4.24155,53.8168L12.0151,51.2256Q12.9088,51.8781,13.8512,52.4582Q14.7935,53.0383,15.7786,53.5424Q16.7637,54.0464,17.7855,54.4714Q18.8072,54.8963,19.8593,55.2395Q20.9113,55.5827,21.9871,55.8419Q23.0629,56.1012,24.1557,56.2749Q25.2486,56.4486,26.3517,56.5358Q27.4549,56.6229,28.5615,56.6229Z" fill-rule="evenodd" fill="#FFCF00" fill-opacity="1"/><path d="M28.5615,56.1229Q33.8186,56.1229,38.7067,54.1878Q44.014,52.0867,48.0504,48.0504Q52.0867,44.0141,54.1878,38.7067Q56.1229,33.8186,56.1229,28.5615Q56.1229,23.3043,54.1878,18.4162Q52.0867,13.1089,48.0504,9.07257Q44.0141,5.03629,38.7067,2.93514Q33.8186,1,28.5615,1Q23.3043,1,18.4162,2.93514Q13.1088,5.03628,9.07257,9.07257Q5.03629,13.1089,2.93514,18.4162Q1,23.3043,1,28.5615Q1,37.7486,6.51229,45.0983L6.65027,45.2823L4.72964,53.9252L4.24155,53.8168L4.08343,53.3424L12.1016,50.6697L12.3099,50.8218Q19.571,56.123,28.5615,56.1229ZM28.5615,57.1229Q19.2449,57.1229,11.7203,51.6294L12.0151,51.2256L12.1732,51.6999L3.56189,54.5704L5.62419,45.2899L6.11229,45.3983L5.71229,45.6983Q0,38.082,0,28.5615Q0,23.1135,2.00535,18.0481Q4.18272,12.5482,8.365459999999999,8.365459999999999Q12.5482,4.182729999999999,18.0481,2.00535Q23.1136,0,28.5615,0Q34.0094,0,39.0748,2.00535Q44.5747,4.182729999999999,48.7575,8.365459999999999Q52.9402,12.5483,55.1176,18.0481Q57.1229,23.1136,57.1229,28.5615Q57.1229,34.0093,55.1176,39.0748Q52.9402,44.5747,48.7575,48.7575Q44.5747,52.9402,39.0748,55.1176Q34.0093,57.1229,28.5615,57.1229Z" fill="#000000" fill-opacity="1"/></g><g transform="matrix(1,-0.010207165032625198,0.010207165032625198,1,-0.3113073779745079,0.08148438048937834)" filter="url(#master_svg0_0_352)"><ellipse cx="11.2568941116333" cy="31.90198016166687" rx="3.273837089538574" ry="1.4030730724334717" fill="#FF8B72" fill-opacity="1"/></g><g transform="matrix(1,-0.010207165032625198,0.010207165032625198,1,-0.3113073779745079,0.44429311732272936)" filter="url(#master_svg1_0_353)"><ellipse cx="46.80140972137451" cy="31.90198016166687" rx="3.273837089538574" ry="1.4030730724334717" fill="#FF8B72" fill-opacity="1"/></g><g><path d="M36.04451805236816,36.044519959716794C36.04451805236816,35.1091399597168,33.23837005236816,32.3029899597168,33.23837005236816,32.3029899597168C33.23837005236816,32.3029899597168,39.786048052368166,36.044519959716794,39.786048052368166,36.979899959716796C39.786048052368166,37.9152799597168,36.97989805236816,39.7860499597168,36.97989805236816,39.7860499597168C36.97989805236816,39.7860499597168,39.786048052368166,41.656809959716796,39.786048052368166,42.5921899597168C39.786048052368166,43.5275899597168,33.23837005236816,47.269089959716794,33.23837005236816,47.269089959716794C33.23837005236816,47.269089959716794,36.04451805236816,44.46298995971679,36.04451805236816,43.5275899597168C36.04451805236816,42.5921899597168,32.302988052368164,39.7860499597168,32.302988052368164,39.7860499597168C32.302988052368164,39.7860499597168,36.04451805236816,36.979899959716796,36.04451805236816,36.044519959716794C36.04451805236816,36.044519959716794,36.04451805236816,36.044519959716794,36.04451805236816,36.044519959716794Z" fill="#000000" fill-opacity="1"/></g><g><path d="M12.614763201245117,24.623812537231444C12.506454201245116,25.165372537231445,12.857667901245117,25.692202537231445,13.399227901245117,25.800512537231445C13.940791901245117,25.908822537231444,14.467611901245117,25.557612537231446,14.575921901245117,25.016052537231445C14.575921901245117,25.016052537231445,12.614763201245117,24.623812537231444,12.614763201245117,24.623812537231444C12.614763201245117,24.623812537231444,12.614763201245117,24.623812537231444,12.614763201245117,24.623812537231444ZM21.968581901245116,25.016052537231445C22.07689190124512,25.557612537231446,22.60375190124512,25.908822537231444,23.145251901245118,25.800512537231445C23.686851901245117,25.692202537231445,24.03805190124512,25.165372537231445,23.92975190124512,24.623812537231444C23.92975190124512,24.623812537231444,21.968581901245116,25.016052537231445,21.968581901245116,25.016052537231445C21.968581901245116,25.016052537231445,21.968581901245116,25.016052537231445,21.968581901245116,25.016052537231445ZM14.575921901245117,25.016052537231445C14.708151901245117,24.354882537231447,15.076091901245118,23.337502537231444,15.718291901245117,22.509932537231446C16.346501901245116,21.700382537231445,17.172761901245117,21.143022537231445,18.272251901245117,21.143022537231445C18.272251901245117,21.143022537231445,18.272251901245117,19.143022537231445,18.272251901245117,19.143022537231445C16.37852190124512,19.143022537231445,15.022221901245118,20.144632537231445,14.138231901245117,21.283802537231445C13.268229901245117,22.404932537231446,12.794324901245117,23.726012537231444,12.614763201245117,24.623812537231444C12.614763201245117,24.623812537231444,14.575921901245117,25.016052537231445,14.575921901245117,25.016052537231445C14.575921901245117,25.016052537231445,14.575921901245117,25.016052537231445,14.575921901245117,25.016052537231445ZM18.272251901245117,21.143022537231445C19.371741901245116,21.143022537231445,20.198001901245117,21.700382537231445,20.826211901245117,22.509932537231446C21.46841190124512,23.337502537231444,21.836351901245116,24.354882537231447,21.968581901245116,25.016052537231445C21.968581901245116,25.016052537231445,23.92975190124512,24.623812537231444,23.92975190124512,24.623812537231444C23.75015190124512,23.726012537231444,23.276251901245118,22.404932537231446,22.40627190124512,21.283802537231445C21.522281901245115,20.144632537231445,20.165981901245118,19.143022537231445,18.272251901245117,19.143022537231445C18.272251901245117,19.143022537231445,18.272251901245117,21.143022537231445,18.272251901245117,21.143022537231445C18.272251901245117,21.143022537231445,18.272251901245117,21.143022537231445,18.272251901245117,21.143022537231445Z" fill="#000000" fill-opacity="1"/></g><g><path d="M35.063938082226564,24.623812537231444C34.955629082226565,25.165372537231445,35.30684278222656,25.692202537231445,35.848402782226565,25.800512537231445C36.389966782226566,25.908822537231444,36.91678678222656,25.557612537231446,37.02509678222656,25.016052537231445C37.02509678222656,25.016052537231445,35.063938082226564,24.623812537231444,35.063938082226564,24.623812537231444C35.063938082226564,24.623812537231444,35.063938082226564,24.623812537231444,35.063938082226564,24.623812537231444ZM44.41775678222656,25.016052537231445C44.526066782226565,25.557612537231446,45.052926782226564,25.908822537231444,45.59442678222656,25.800512537231445C46.136026782226566,25.692202537231445,46.487226782226564,25.165372537231445,46.378926782226564,24.623812537231444C46.378926782226564,24.623812537231444,44.41775678222656,25.016052537231445,44.41775678222656,25.016052537231445C44.41775678222656,25.016052537231445,44.41775678222656,25.016052537231445,44.41775678222656,25.016052537231445ZM37.02509678222656,25.016052537231445C37.15732678222656,24.354882537231447,37.52526678222656,23.337502537231444,38.16746678222656,22.509932537231446C38.795676782226565,21.700382537231445,39.62193678222656,21.143022537231445,40.721426782226565,21.143022537231445C40.721426782226565,21.143022537231445,40.721426782226565,19.143022537231445,40.721426782226565,19.143022537231445C38.82769678222656,19.143022537231445,37.47139678222656,20.144632537231445,36.587406782226566,21.283802537231445C35.71740478222656,22.404932537231446,35.243499782226564,23.726012537231444,35.063938082226564,24.623812537231444C35.063938082226564,24.623812537231444,37.02509678222656,25.016052537231445,37.02509678222656,25.016052537231445C37.02509678222656,25.016052537231445,37.02509678222656,25.016052537231445,37.02509678222656,25.016052537231445ZM40.721426782226565,21.143022537231445C41.82091678222656,21.143022537231445,42.647176782226566,21.700382537231445,43.27538678222656,22.509932537231446C43.917586782226564,23.337502537231444,44.28552678222656,24.354882537231447,44.41775678222656,25.016052537231445C44.41775678222656,25.016052537231445,46.378926782226564,24.623812537231444,46.378926782226564,24.623812537231444C46.199326782226564,23.726012537231444,45.72542678222656,22.404932537231446,44.855446782226565,21.283802537231445C43.97145678222656,20.144632537231445,42.61515678222656,19.143022537231445,40.721426782226565,19.143022537231445C40.721426782226565,19.143022537231445,40.721426782226565,21.143022537231445,40.721426782226565,21.143022537231445C40.721426782226565,21.143022537231445,40.721426782226565,21.143022537231445,40.721426782226565,21.143022537231445Z" fill="#000000" fill-opacity="1"/></g></g></svg>