<svg xmlns="http://www.w3.org/2000/svg" xmlns:xlink="http://www.w3.org/1999/xlink" fill="none" version="1.1" width="57.1229248046875" height="57.1229248046875" viewBox="0 0 57.1229248046875 57.1229248046875"><defs><filter id="master_svg0_0_209" filterUnits="objectBoundingBox" color-interpolation-filters="sRGB" x="-2" y="-2" width="11.48305606842041" height="7.741528034210205"><feFlood flood-opacity="0" result="BackgroundImageFix"/><feBlend mode="normal" in="SourceGraphic" in2="BackgroundImageFix" result="shape"/><feGaussianBlur stdDeviation="0.5" result="effect1_foregroundBlur"/></filter><filter id="master_svg1_0_210" filterUnits="objectBoundingBox" color-interpolation-filters="sRGB" x="-2" y="-2" width="11.48305606842041" height="7.741528034210205"><feFlood flood-opacity="0" result="BackgroundImageFix"/><feBlend mode="normal" in="SourceGraphic" in2="BackgroundImageFix" result="shape"/><feGaussianBlur stdDeviation="0.5" result="effect1_foregroundBlur"/></filter><mask id="master_svg2_0_214" style="mask-type:alpha" maskUnits="userSpaceOnUse"><g><path d="M28.561465524291993,45.39746457680166C16.16812552429199,45.39746457680166,12.037015524291991,35.11352457680166,14.102568524291993,34.25664367680166C16.16812552429199,33.399762576801656,21.479555524291992,39.39855457680166,28.561465524291993,39.39855457680166C35.643365524291994,39.39855457680166,40.954665524292,33.39974457680166,43.02036552429199,34.25664367680166C45.08596552429199,35.113542576801656,40.95476552429199,45.39746457680166,28.561465524291993,45.39746457680166C28.561465524291993,45.39746457680166,28.561465524291993,45.39746457680166,28.561465524291993,45.39746457680166Z" fill="#FFFFFF" fill-opacity="1"/></g></mask></defs><g><g><path d="M28.5615,56.6229Q29.2503,56.6229,29.9384,56.5891Q30.6264,56.5553,31.312,56.4878Q31.9975,56.4203,32.6789,56.3192Q33.3603,56.2181,34.036,56.0837Q34.7116,55.9493,35.3798,55.7819Q36.0481,55.6146,36.7073,55.4146Q37.3665,55.2146,38.0151,54.9826Q38.6637,54.7505,39.3001,54.4869Q39.9365,54.2232,40.5593,53.9287Q41.182,53.6342,41.7895,53.3095Q42.3971,52.9847,42.9879,52.6306Q43.5788,52.2764,44.1516,51.8937Q44.7243,51.511,45.2776,51.1006Q45.831,50.6903,46.3635,50.2533Q46.896,49.8162,47.4064,49.3536Q47.9168,48.891,48.4039,48.4039Q48.891,47.9168,49.3536,47.4064Q49.8162,46.896,50.2533,46.3635Q50.6903,45.831,51.1006,45.2776Q51.511,44.7243,51.8937,44.1516Q52.2764,43.5788,52.6306,42.9879Q52.9847,42.3971,53.3095,41.7895Q53.6342,41.182,53.9287,40.5593Q54.2232,39.9365,54.4869,39.3001Q54.7505,38.6637,54.9826,38.0151Q55.2146,37.3665,55.4146,36.7073Q55.6146,36.0481,55.782,35.3798Q55.9493,34.7116,56.0837,34.036Q56.2181,33.3603,56.3192,32.6789Q56.4203,31.9975,56.4878,31.312Q56.5553,30.6264,56.5891,29.9384Q56.6229,29.2503,56.6229,28.5615Q56.6229,27.8726,56.5891,27.1846Q56.5553,26.4965,56.4878,25.811Q56.4203,25.1254,56.3192,24.444Q56.2181,23.7626,56.0837,23.0869Q55.9493,22.4113,55.7819,21.7431Q55.6146,21.0749,55.4146,20.4156Q55.2146,19.7564,54.9826,19.1078Q54.7505,18.4592,54.4869,17.8228Q54.2232,17.1864,53.9287,16.5636Q53.6342,15.9409,53.3095,15.3334Q52.9847,14.7259,52.6306,14.135Q52.2764,13.5441,51.8937,12.9713Q51.511,12.3986,51.1006,11.8453Q50.6903,11.292,50.2533,10.7595Q49.8162,10.22695,49.3536,9.71654Q48.891,9.20612,48.4039,8.71901Q47.9168,8.23191,47.4064,7.76929Q46.896,7.30667,46.3635,6.86966Q45.831,6.43264,45.2776,6.02228Q44.7243,5.61192,44.1516,5.22921Q43.5788,4.84649,42.9879,4.49234Q42.3971,4.13819,41.7895,3.81346Q41.182,3.48873,40.5593,3.1942Q39.9365,2.89967,39.3001,2.63605Q38.6637,2.37243,38.0151,2.1403600000000003Q37.3665,1.90829,36.7073,1.70832Q36.0481,1.50835,35.3798,1.340967Q34.7116,1.173585,34.036,1.039193Q33.3603,0.904801,32.6789,0.803723Q31.9975,0.702645,31.312,0.635124Q30.6264,0.5676025,29.9384,0.5338013Q29.2503,0.5,28.5615,0.5Q27.8726,0.5,27.1846,0.5338013Q26.4965,0.5676025,25.811,0.635124Q25.1254,0.702645,24.444,0.803723Q23.7626,0.904801,23.0869,1.039193Q22.4113,1.173585,21.7431,1.340967Q21.0749,1.50835,20.4156,1.70832Q19.7564,1.90829,19.1078,2.1403600000000003Q18.4592,2.37243,17.8228,2.63605Q17.1864,2.89967,16.5636,3.1942Q15.9409,3.48873,15.3334,3.81346Q14.7259,4.13819,14.135,4.49234Q13.5441,4.84649,12.9713,5.22921Q12.3986,5.61192,11.8453,6.02228Q11.292,6.43264,10.7595,6.86966Q10.22695,7.30667,9.71654,7.76929Q9.20612,8.23191,8.71901,8.71901Q8.23191,9.20612,7.76929,9.71654Q7.30667,10.22695,6.86966,10.7595Q6.43264,11.292,6.02228,11.8453Q5.61192,12.3986,5.22921,12.9713Q4.84649,13.5441,4.49234,14.135Q4.13819,14.7259,3.81346,15.3334Q3.48873,15.9409,3.1942,16.5636Q2.89967,17.1864,2.63605,17.8228Q2.37243,18.4592,2.1403600000000003,19.1078Q1.90829,19.7564,1.70832,20.4156Q1.50835,21.0749,1.340967,21.7431Q1.173585,22.4113,1.039193,23.0869Q0.904801,23.7626,0.803723,24.444Q0.702645,25.1254,0.635124,25.811Q0.5676025,26.4965,0.5338013,27.1846Q0.5,27.8726,0.5,28.5615Q0.5,29.6907,0.5907329,30.8162Q0.681466,31.9418,0.8623449999999999,33.0564Q1.043224,34.171,1.313079,35.2675Q1.58293,36.364,1.94002,37.4353Q2.29711,38.5065,2.73912,39.5456Q3.18113,40.5847,3.7052,41.585Q4.22927,42.5852,4.83202,43.5401Q5.43477,44.495,6.11229,45.3983L4.24153,53.8168L12.0151,51.2256Q12.9088,51.8781,13.8512,52.4582Q14.7935,53.0383,15.7786,53.5424Q16.7637,54.0464,17.7855,54.4714Q18.8072,54.8963,19.8592,55.2395Q20.9113,55.5827,21.9871,55.8419Q23.0629,56.1012,24.1557,56.2749Q25.2486,56.4486,26.3517,56.5358Q27.4549,56.6229,28.5615,56.6229Z" fill-rule="evenodd" fill="#FFCF00" fill-opacity="1"/><path d="M28.5615,56.1229Q33.8186,56.1229,38.7067,54.1878Q44.014,52.0867,48.0504,48.0504Q52.0867,44.0141,54.1878,38.7067Q56.1229,33.8186,56.1229,28.5615Q56.1229,23.3043,54.1878,18.4162Q52.0867,13.1089,48.0504,9.07257Q44.0141,5.03629,38.7067,2.93514Q33.8186,1,28.5615,1Q23.3043,1,18.4162,2.93514Q13.1088,5.03628,9.07257,9.07257Q5.03629,13.1089,2.93514,18.4162Q1,23.3043,1,28.5615Q1,37.7487,6.51229,45.0983L6.65027,45.2823L4.72963,53.9252L4.24153,53.8168L4.08342,53.3424L12.1016,50.6697L12.3099,50.8218Q19.571,56.123,28.5615,56.1229ZM28.5615,57.1229Q19.2449,57.1229,11.7203,51.6294L12.0151,51.2256L12.1732,51.6999L3.56187,54.5704L5.6242,45.2899L6.11229,45.3983L5.71229,45.6983Q0,38.082,0,28.5615Q0,23.1135,2.00535,18.0481Q4.18272,12.5482,8.365459999999999,8.365459999999999Q12.5482,4.182729999999999,18.0481,2.00535Q23.1136,0,28.5615,0Q34.0094,0,39.0748,2.00535Q44.5747,4.182729999999999,48.7575,8.365459999999999Q52.9402,12.5483,55.1176,18.0481Q57.1229,23.1136,57.1229,28.5615Q57.1229,34.0093,55.1176,39.0748Q52.9402,44.5747,48.7575,48.7575Q44.5747,52.9402,39.0748,55.1176Q34.0093,57.1229,28.5615,57.1229Z" fill="#000000" fill-opacity="1"/></g><g transform="matrix(0.9818311333656311,-0.18975675106048584,0.18975675106048584,0.9818311333656311,-5.612115517898275,1.3495894243596354)" filter="url(#master_svg0_0_209)"><ellipse cx="7.983067512512207" cy="31.852197885513306" rx="3.741528034210205" ry="1.8707640171051025" fill="#FF8B72" fill-opacity="1"/></g><g transform="matrix(0.9818311333656311,0.18975675106048584,0.18975666165351868,-0.9818311333656311,-5.325947082541859,55.624547944885194)" filter="url(#master_svg1_0_210)"><ellipse cx="47.269123554229736" cy="34.10570168495178" rx="3.741528034210205" ry="1.8707640171051025" fill="#FF8B72" fill-opacity="1"/></g><g><g><path d="M28.561465524291993,45.399005340576174C16.16812552429199,45.399005340576174,12.037015524291991,35.11507834057617,14.102568524291993,34.25819634057617C16.16812552429199,33.40131634057617,21.47957552429199,37.91589534057617,28.561465524291993,37.91589534057617C35.643365524291994,37.91589534057617,40.954665524292,33.40129734057617,43.02036552429199,34.25819634057617C45.08596552429199,35.11509634057617,40.95476552429199,45.399005340576174,28.561465524291993,45.399005340576174C28.561465524291993,45.399005340576174,28.561465524291993,45.399005340576174,28.561465524291993,45.399005340576174Z" fill="#000000" fill-opacity="1"/></g><g mask="url(#master_svg2_0_214)"><g><path d="M28.561857257461547,42.19119896553457C20.864997257461546,42.19119896553457,16.802767257461547,45.39821896553457,15.733757257461548,47.00173896553457C15.733757257461548,47.00173896553457,41.389957257461546,47.00173896553457,41.389957257461546,47.00173896553457C40.320957257461544,45.39821896553457,36.258757257461546,42.19119896553457,28.561857257461547,42.19119896553457C28.561857257461547,42.19119896553457,28.561857257461547,42.19119896553457,28.561857257461547,42.19119896553457Z" fill="#D50B00" fill-opacity="1"/></g></g></g><g><path d="M7.982936228295898,19.20772618713379C8.720768128295898,15.51856618713379,13.1567521282959,16.37631618713379,15.372972128295899,17.297696187133788C15.4248521282959,17.31926618713379,15.4822921282959,17.29556618713379,15.506062128295898,17.24465618713379C16.2461921282959,15.659446187133788,20.197372128295896,12.71450618713379,22.9491721282959,15.46629618713379C25.7465721282959,18.26366618713379,22.3468721282959,25.08907618713379,19.236772128295897,28.52937618713379C19.217872128295898,28.55027618713379,19.1916721282959,28.56167618713379,19.1634721282959,28.561576187133788C13.561042128295899,28.537176187133788,7.049999128295898,23.87240618713379,7.982936228295898,19.20772618713379C7.982936228295898,19.20772618713379,7.982936228295898,19.20772618713379,7.982936228295898,19.20772618713379Z" fill="#D50B00" fill-opacity="1"/><path d="M10.811912128295898,26.01667618713379Q14.629732128295899,29.041876187133788,19.1612721282959,29.061576187133788L19.161672128295898,29.061576187133788Q19.428772128295897,29.06247618713379,19.6076721282959,28.86467618713379Q22.4033721282959,25.772176187133788,23.779072128295898,21.92509618713379Q25.448072128295898,17.25801618713379,23.3027721282959,15.11274318713379Q21.233572128295897,13.043596187133788,18.2817721282959,14.267214787133788Q16.1100121282959,15.16747918713379,15.226162128295899,16.70048618713379Q13.020352128295897,15.85300618713379,11.079242128295899,16.025726187133788Q8.055626128295899,16.29476618713379,7.492645128295899,19.10966618713379Q6.754292128295899,22.80141618713379,10.811912128295898,26.01667618713379ZM18.9864721282959,28.05947618713379Q21.5583721282959,25.16527618713379,22.8374721282959,21.58837618713379Q24.2932721282959,17.51744618713379,22.5955721282959,15.819856187133789Q20.9990721282959,14.223318187133788,18.664672128295898,15.190990187133789Q16.621222128295898,16.03807618713379,15.959112128295898,17.456186187133788Q15.714072128295898,17.98100618713379,15.181032128295898,17.75938618713379Q13.012152128295899,16.85768618713379,11.167872128295897,17.021796187133788Q8.889479128295898,17.22452618713379,8.473225128295898,19.30578618713379Q7.854858828295899,22.39762618713379,11.432962128295898,25.23287618713379Q14.903772128295898,27.98307618713379,18.9864721282959,28.05947618713379Z" fill-rule="evenodd" fill="#000000" fill-opacity="1"/></g><g transform="matrix(-1,0,0,1,96.7962875366211,0)"><path d="M48.48800786831055,18.465993589782716C49.22583976831055,14.776833589782715,53.66182376831055,15.634583589782714,55.87804376831055,16.555963589782714C55.929923768310545,16.577533589782714,55.987363768310544,16.553833589782716,56.01113376831054,16.502923589782714C56.75126376831055,14.917713589782714,60.702443768310545,11.972773589782715,63.45424376831055,14.724563589782715C66.25164376831054,17.521933589782716,62.85194376831055,24.347343589782717,59.741843768310545,27.787643589782714C59.72294376831054,27.808543589782715,59.69674376831055,27.819943589782717,59.66854376831055,27.819843589782714C54.066113768310544,27.795443589782714,47.55507076831055,23.130673589782717,48.48800786831055,18.465993589782716C48.48800786831055,18.465993589782716,48.48800786831055,18.465993589782716,48.48800786831055,18.465993589782716Z" fill="#D50B00" fill-opacity="1"/><path d="M51.31698376831055,25.274943589782715Q55.13480376831055,28.300143589782714,59.66634376831055,28.319843589782714L59.666743768310546,28.319843589782714Q59.933843768310545,28.320743589782715,60.11274376831055,28.122943589782714Q62.90844376831055,25.030443589782713,64.28414376831054,21.183363589782715Q65.95314376831055,16.516283589782716,63.80784376831055,14.371010589782715Q61.738643768310546,12.301863589782714,58.78684376831055,13.525482189782714Q56.61508376831055,14.425746589782715,55.731233768310545,15.958753589782715Q53.525423768310546,15.111273589782716,51.584313768310544,15.283993589782714Q48.56069776831055,15.553033589782714,47.997716768310546,18.367933589782716Q47.25936376831055,22.059683589782715,51.31698376831055,25.274943589782715ZM59.49154376831055,27.317743589782715Q62.06344376831055,24.423543589782717,63.34254376831055,20.846643589782715Q64.79834376831054,16.775713589782715,63.10064376831055,15.078123589782715Q61.50414376831055,13.481585589782714,59.169743768310546,14.449257589782714Q57.126293768310546,15.296343589782715,56.46418376831055,16.714453589782714Q56.219143768310545,17.239273589782716,55.686103768310545,17.017653589782714Q53.517223768310544,16.115953589782716,51.672943768310546,16.280063589782714Q49.394550768310545,16.482793589782716,48.97829676831055,18.564053589782716Q48.359930468310544,21.655893589782714,51.93803376831055,24.491143589782716Q55.40884376831055,27.241343589782716,59.49154376831055,27.317743589782715Z" fill-rule="evenodd" fill="#000000" fill-opacity="1"/></g><g><path d="M43.51467370239258,46.64551667724609C43.67884370239258,48.8281066772461,42.26738370239258,51.010606677246095,39.778073702392575,51.010606677246095C37.32709370239258,51.010606677246095,35.91591970239258,48.8281066772461,36.053758162392576,46.64551667724609C36.18917670239258,44.50125667724609,38.31958370239258,39.72730667724609,39.704493702392575,38.00464037724609C39.74316370239258,37.956540477246094,39.81313370239258,37.95629177724609,39.85213370239258,38.004120977246096C41.25655370239258,39.72634667724609,43.35335370239258,44.501046677246094,43.51467370239258,46.64551667724609C43.51467370239258,46.64551667724609,43.51467370239258,46.64551667724609,43.51467370239258,46.64551667724609Z" fill="#95F6FC" fill-opacity="1"/><path d="M42.60902370239258,41.969236677246094Q41.36211370239258,39.064626677246096,40.23964370239258,37.68814767724609L40.23962370239258,37.68813167724609Q40.05964370239258,37.46741067724609,39.77642370239258,37.46841067724609Q39.493243702392576,37.46940967724609,39.31481370239258,37.69135967724609Q38.19416370239258,39.085306677246095,36.95139070239258,41.96909667724609Q35.658651702392575,44.96882667724609,35.55475270239258,46.61399667724609Q35.433763702392575,48.52980667724609,36.55168670239258,49.95510667724609Q37.77171370239258,51.510606677246095,39.778073702392575,51.510606677246095Q41.811833702392576,51.510606677246095,43.03448370239258,49.95550667724609Q44.15761370239258,48.527106677246096,44.01326370239258,46.608006677246095Q43.888523702392575,44.94977667724609,42.60902370239258,41.969236677246094ZM39.78029370239258,38.737126677246096Q38.88048370239258,40.019496677246096,37.869743702392576,42.364856677246095Q36.645719702392576,45.205136677246095,36.55276470239258,46.67702667724609Q36.455793702392576,48.2125066772461,37.33853370239258,49.337906677246096Q38.258283702392575,50.510606677246095,39.778073702392575,50.510606677246095Q41.326003702392576,50.510606677246095,42.24837370239258,49.3375066772461Q43.13128370239258,48.21450667724609,43.01608370239258,46.683016677246094Q42.90384370239258,45.19104667724609,41.69011370239258,42.36370667724609Q40.67834370239258,40.00683667724609,39.78029370239258,38.737126677246096Z" fill-rule="evenodd" fill="#000000" fill-opacity="1"/></g></g></svg>