<svg xmlns="http://www.w3.org/2000/svg" xmlns:xlink="http://www.w3.org/1999/xlink" fill="none" version="1.1" width="57.1229248046875" height="58.5758056640625" viewBox="0 0 57.1229248046875 58.5758056640625"><defs><filter id="master_svg0_0_1071" filterUnits="objectBoundingBox" color-interpolation-filters="sRGB" x="-1" y="-1" width="7.612292289733887" height="4.806146144866943"><feFlood flood-opacity="0" result="BackgroundImageFix"/><feBlend mode="normal" in="SourceGraphic" in2="BackgroundImageFix" result="shape"/><feGaussianBlur stdDeviation="0.25" result="effect1_foregroundBlur"/></filter><filter id="master_svg1_0_1073" filterUnits="objectBoundingBox" color-interpolation-filters="sRGB" x="-1" y="-1" width="7.612292289733887" height="4.806146144866943"><feFlood flood-opacity="0" result="BackgroundImageFix"/><feBlend mode="normal" in="SourceGraphic" in2="BackgroundImageFix" result="shape"/><feGaussianBlur stdDeviation="0.25" result="effect1_foregroundBlur"/></filter></defs><g><g><path d="M28.5615,56.6229Q29.2503,56.6229,29.9384,56.5891Q30.6264,56.5553,31.312,56.4878Q31.9975,56.4203,32.6789,56.3192Q33.3603,56.2181,34.036,56.0837Q34.7116,55.9493,35.3798,55.7819Q36.0481,55.6146,36.7073,55.4146Q37.3665,55.2146,38.0151,54.9826Q38.6637,54.7505,39.3001,54.4869Q39.9365,54.2232,40.5593,53.9287Q41.182,53.6342,41.7895,53.3095Q42.3971,52.9847,42.9879,52.6306Q43.5788,52.2764,44.1516,51.8937Q44.7243,51.511,45.2776,51.1006Q45.831,50.6903,46.3635,50.2533Q46.896,49.8162,47.4064,49.3536Q47.9168,48.891,48.4039,48.4039Q48.891,47.9168,49.3536,47.4064Q49.8162,46.896,50.2533,46.3635Q50.6903,45.831,51.1006,45.2776Q51.511,44.7243,51.8937,44.1516Q52.2764,43.5788,52.6306,42.9879Q52.9847,42.3971,53.3095,41.7895Q53.6342,41.182,53.9287,40.5593Q54.2232,39.9365,54.4869,39.3001Q54.7505,38.6637,54.9826,38.0151Q55.2146,37.3665,55.4146,36.7073Q55.6146,36.0481,55.782,35.3798Q55.9493,34.7116,56.0837,34.036Q56.2181,33.3603,56.3192,32.6789Q56.4203,31.9975,56.4878,31.312Q56.5553,30.6264,56.5891,29.9384Q56.6229,29.2503,56.6229,28.5615Q56.6229,27.8726,56.5891,27.1846Q56.5553,26.4965,56.4878,25.811Q56.4203,25.1254,56.3192,24.444Q56.2181,23.7626,56.0837,23.0869Q55.9493,22.4113,55.7819,21.7431Q55.6146,21.0749,55.4146,20.4156Q55.2146,19.7564,54.9826,19.1078Q54.7505,18.4592,54.4869,17.8228Q54.2232,17.1864,53.9287,16.5636Q53.6342,15.9409,53.3095,15.3334Q52.9847,14.7259,52.6306,14.135Q52.2764,13.5441,51.8937,12.9713Q51.511,12.3986,51.1006,11.8453Q50.6903,11.292,50.2533,10.7595Q49.8162,10.22695,49.3536,9.71654Q48.891,9.20612,48.4039,8.71901Q47.9168,8.23191,47.4064,7.76929Q46.896,7.30667,46.3635,6.86966Q45.831,6.43264,45.2776,6.02228Q44.7243,5.61192,44.1516,5.22921Q43.5788,4.84649,42.9879,4.49234Q42.3971,4.13819,41.7895,3.81346Q41.182,3.48873,40.5593,3.1942Q39.9365,2.89967,39.3001,2.63605Q38.6637,2.37243,38.0151,2.1403600000000003Q37.3665,1.90829,36.7073,1.70832Q36.0481,1.50835,35.3798,1.340967Q34.7116,1.173585,34.036,1.039193Q33.3603,0.904801,32.6789,0.803723Q31.9975,0.702645,31.312,0.635124Q30.6264,0.5676025,29.9384,0.5338013Q29.2503,0.5,28.5615,0.5Q27.8726,0.5,27.1846,0.5338013Q26.4965,0.5676025,25.811,0.635124Q25.1254,0.702645,24.444,0.803723Q23.7626,0.904801,23.0869,1.039193Q22.4113,1.173585,21.7431,1.340967Q21.0749,1.50835,20.4156,1.70832Q19.7564,1.90829,19.1078,2.1403600000000003Q18.4592,2.37243,17.8228,2.63605Q17.1864,2.89967,16.5636,3.1942Q15.9409,3.48873,15.3334,3.81346Q14.7259,4.13819,14.135,4.49234Q13.5441,4.84649,12.9713,5.22921Q12.3986,5.61192,11.8453,6.02228Q11.292,6.43264,10.7595,6.86966Q10.22695,7.30667,9.71654,7.76929Q9.20612,8.23191,8.71901,8.71901Q8.23191,9.20612,7.76929,9.71654Q7.30667,10.22695,6.86966,10.7595Q6.43264,11.292,6.02228,11.8453Q5.61192,12.3986,5.22921,12.9713Q4.84649,13.5441,4.49234,14.135Q4.13819,14.7259,3.81346,15.3334Q3.48873,15.9409,3.1942,16.5636Q2.89967,17.1864,2.63605,17.8228Q2.37243,18.4592,2.1403600000000003,19.1078Q1.90829,19.7564,1.70832,20.4156Q1.50835,21.0749,1.340967,21.7431Q1.173585,22.4113,1.039193,23.0869Q0.904801,23.7626,0.803723,24.444Q0.702645,25.1254,0.635124,25.811Q0.5676025,26.4965,0.5338013,27.1846Q0.5,27.8726,0.5,28.5615Q0.4999999999999988,29.6907,0.5907328000000001,30.8162Q0.681466,31.9418,0.8623449999999999,33.0564Q1.043224,34.171,1.313079,35.2675Q1.58293,36.364,1.94002,37.4353Q2.29711,38.5065,2.73912,39.5456Q3.18112,40.5847,3.7052,41.585Q4.22927,42.5852,4.83202,43.5401Q5.43476,44.495,6.11229,45.3983L4.24155,53.8168L12.0151,51.2256Q12.9088,51.8781,13.8512,52.4582Q14.7935,53.0383,15.7786,53.5424Q16.7637,54.0464,17.7855,54.4714Q18.8072,54.8963,19.8593,55.2395Q20.9113,55.5827,21.9871,55.8419Q23.0629,56.1012,24.1557,56.2749Q25.2486,56.4486,26.3517,56.5358Q27.4549,56.6229,28.5615,56.6229Z" fill-rule="evenodd" fill="#FFCF00" fill-opacity="1"/><path d="M28.5615,56.1229Q33.8186,56.1229,38.7067,54.1878Q44.014,52.0867,48.0504,48.0504Q52.0867,44.0141,54.1878,38.7067Q56.1229,33.8186,56.1229,28.5615Q56.1229,23.3043,54.1878,18.4162Q52.0867,13.1089,48.0504,9.07257Q44.0141,5.03629,38.7067,2.93514Q33.8186,1,28.5615,1Q23.3043,1,18.4162,2.93514Q13.1088,5.03628,9.07257,9.07257Q5.03629,13.1089,2.93514,18.4162Q1,23.3043,1,28.5615Q1,37.7486,6.51229,45.0983L6.65027,45.2823L4.72964,53.9252L4.24155,53.8168L4.08343,53.3424L12.1016,50.6697L12.3099,50.8218Q19.571,56.123,28.5615,56.1229ZM28.5615,57.1229Q19.2449,57.1229,11.7203,51.6294L12.0151,51.2256L12.1732,51.6999L3.56189,54.5704L5.62419,45.2899L6.11229,45.3983L5.71229,45.6983Q0,38.082,0,28.5615Q0,23.1135,2.00535,18.0481Q4.18272,12.5482,8.365459999999999,8.365459999999999Q12.5482,4.182729999999999,18.0481,2.00535Q23.1136,0,28.5615,0Q34.0094,0,39.0748,2.00535Q44.5747,4.182729999999999,48.7575,8.365459999999999Q52.9402,12.5483,55.1176,18.0481Q57.1229,23.1136,57.1229,28.5615Q57.1229,34.0093,55.1176,39.0748Q52.9402,44.5747,48.7575,48.7575Q44.5747,52.9402,39.0748,55.1176Q34.0093,57.1229,28.5615,57.1229Z" fill="#000000" fill-opacity="1"/></g><g filter="url(#master_svg0_0_1071)"><ellipse cx="45.57646322250366" cy="33.61379885673523" rx="2.8061461448669434" ry="1.4030730724334717" fill="#FF8C71" fill-opacity="1"/></g><g transform="matrix(-0.9767284393310547,-0.21447962522506714,-0.2144794762134552,0.9767284989356995,51.077567077442694,5.542034426213206)"><path d="M25.11936691015625,13.793105417175294C24.86084611015625,13.890165417175293,24.72996011015625,14.178425417175294,24.82702511015625,14.436945417175293C24.92408891015625,14.695465417175292,25.21234791015625,14.826355417175293,25.47086891015625,14.729295417175294C25.47086891015625,14.729295417175294,25.11936691015625,13.793105417175294,25.11936691015625,13.793105417175294C25.11936691015625,13.793105417175294,25.11936691015625,13.793105417175294,25.11936691015625,13.793105417175294ZM35.19018291015625,12.300165417175293C35.38678291015625,12.494025417175294,35.70338291015625,12.491755417175293,35.89728291015625,12.295095417175293C36.091082910156246,12.098445417175293,36.08888291015625,11.781875417175293,35.89218291015625,11.588015417175292C35.89218291015625,11.588015417175292,35.19018291015625,12.300165417175293,35.19018291015625,12.300165417175293C35.19018291015625,12.300165417175293,35.19018291015625,12.300165417175293,35.19018291015625,12.300165417175293ZM25.47086891015625,14.729295417175294C26.82096291015625,14.222385417175293,27.88129291015625,13.124595417175293,28.795222910156248,12.249895417175292C29.26794291015625,11.797465417175292,29.70295291015625,11.399825417175293,30.14437291015625,11.107255417175294C30.58115291015625,10.817745417175292,30.99614291015625,10.650565417175294,31.425012910156248,10.629835417175293C31.425012910156248,10.629835417175293,31.37674291015625,9.631006117175293,31.37674291015625,9.631006117175293C30.70910291015625,9.663271117175293,30.12058291015625,9.923303417175292,29.59190291015625,10.273719417175293C29.06784291015625,10.621068417175293,28.57542291015625,11.076055417175294,28.10379291015625,11.527445417175294C27.12902291015625,12.460375417175293,26.23298291015625,13.374985417175292,25.11936691015625,13.793105417175294C25.11936691015625,13.793105417175294,25.47086891015625,14.729295417175294,25.47086891015625,14.729295417175294C25.47086891015625,14.729295417175294,25.47086891015625,14.729295417175294,25.47086891015625,14.729295417175294ZM31.425012910156248,10.629835417175293C32.37613291015625,10.583876417175293,33.30792291015625,10.979665417175292,34.032032910156246,11.423745417175294C34.38865291015625,11.642435417175292,34.68175291015625,11.864755417175292,34.88508291015625,12.031985417175292C34.98648291015625,12.115385417175293,35.06488291015625,12.184505417175293,35.11698291015625,12.231835417175294C35.14298291015625,12.255475417175294,35.16238291015625,12.273635417175292,35.17478291015625,12.285345417175293C35.18088291015625,12.291205417175293,35.18538291015625,12.295445417175292,35.18788291015625,12.297955417175293C35.18918291015625,12.299215417175294,35.19008291015625,12.300035417175293,35.19048291015625,12.300405417175293C35.19068291015625,12.300595417175293,35.19068291015625,12.300665417175292,35.19068291015625,12.300625417175294C35.19068291015625,12.300605417175293,35.19058291015625,12.300555417175293,35.19048291015625,12.300475417175292C35.19048291015625,12.300445417175293,35.19038291015625,12.300365417175293,35.19038291015625,12.300345417175294C35.19028291015625,12.300255417175293,35.19018291015625,12.300165417175293,35.54118291015625,11.944085417175293C35.89218291015625,11.588015417175292,35.89208291015625,11.587905417175293,35.89198291015625,11.587785417175294C35.89188291015625,11.587735417175292,35.89178291015625,11.587615417175293,35.89168291015625,11.587515417175293C35.89148291015625,11.587325417175293,35.89128291015625,11.587105417175293,35.890982910156254,11.586845417175294C35.89048291015625,11.586345417175293,35.88988291015625,11.585725417175293,35.88908291015625,11.584985417175293C35.88758291015625,11.583515417175294,35.88558291015625,11.581585417175294,35.88318291015625,11.579205417175293C35.87828291015625,11.574465417175293,35.871482910156246,11.567935417175294,35.86288291015625,11.559755417175293C35.84558291015625,11.543405417175293,35.820982910156246,11.520425417175293,35.78948291015625,11.491785417175294C35.72648291015625,11.434545417175293,35.63568291015625,11.354525417175292,35.520282910156254,11.259615417175294C35.28998291015625,11.070215417175293,34.95918291015625,10.819245417175292,34.55482291015625,10.571276417175293C33.75702291015625,10.082024417175292,32.61866291015625,9.570988117175293,31.37674291015625,9.631006117175293C31.37674291015625,9.631006117175293,31.425012910156248,10.629835417175293,31.425012910156248,10.629835417175293C31.425012910156248,10.629835417175293,31.425012910156248,10.629835417175293,31.425012910156248,10.629835417175293Z" fill="#000000" fill-opacity="1"/></g><g filter="url(#master_svg1_0_1073)"><ellipse cx="10.498728275299072" cy="33.61379885673523" rx="2.8061461448669434" ry="1.4030730724334717" fill="#FF8D6E" fill-opacity="1"/></g><g><ellipse cx="38.16692638397217" cy="24.398826122283936" rx="3.273837089538574" ry="4.676909923553467" fill="#000000" fill-opacity="1"/></g><g><ellipse cx="17.88311767578125" cy="22.17913007736206" rx="3.273837089538574" ry="4.676909923553467" fill="#000000" fill-opacity="1"/></g><g><path d="M33.800116025195315,18.726807612304686C33.684992025195314,18.977817612304687,33.79514202519531,19.274617612304688,34.04614282519531,19.38973761230469C34.297142825195316,19.504857612304686,34.593944825195315,19.394707612304686,34.70906782519531,19.143707612304688C34.70906782519531,19.143707612304688,33.800116025195315,18.726807612304686,33.800116025195315,18.726807612304686C33.800116025195315,18.726807612304686,33.800116025195315,18.726807612304686,33.800116025195315,18.726807612304686ZM42.11988082519531,17.970877612304687C42.33909082519531,18.13880761230469,42.65293082519531,18.09723761230469,42.82086082519531,17.878027612304688C42.98879082519531,17.658807612304688,42.947220825195316,17.344967612304686,42.72801082519531,17.177037612304687C42.72801082519531,17.177037612304687,42.11988082519531,17.970877612304687,42.11988082519531,17.970877612304687C42.11988082519531,17.970877612304687,42.11988082519531,17.970877612304687,42.11988082519531,17.970877612304687ZM34.70906782519531,19.143707612304688C34.91126082519531,18.702867612304686,35.341600825195314,18.029607612304687,35.952770825195316,17.49044761230469C36.56094082519531,16.95393761230469,37.30774082519531,16.58325061230469,38.165650825195314,16.64122761230469C38.165650825195314,16.64122761230469,38.23307082519531,15.643499502304687,38.23307082519531,15.643499502304687C37.024020825195315,15.561797512304688,36.025270825195314,16.092982612304688,35.29122082519531,16.740547612304688C34.56017282519531,17.385467612304687,34.05160782519531,18.178487612304686,33.800116025195315,18.726807612304686C33.800116025195315,18.726807612304686,34.70906782519531,19.143707612304688,34.70906782519531,19.143707612304688C34.70906782519531,19.143707612304688,34.70906782519531,19.143707612304688,34.70906782519531,19.143707612304688ZM38.165650825195314,16.64122761230469C40.12391082519531,16.77354761230469,41.64223082519531,17.604967612304687,42.11988082519531,17.970877612304687C42.11988082519531,17.970877612304687,42.72801082519531,17.177037612304687,42.72801082519531,17.177037612304687C42.11174082519531,16.704947612304686,40.40875082519531,15.790520612304688,38.23307082519531,15.643499502304687C38.23307082519531,15.643499502304687,38.165650825195314,16.64122761230469,38.165650825195314,16.64122761230469C38.165650825195314,16.64122761230469,38.165650825195314,16.64122761230469,38.165650825195314,16.64122761230469Z" fill="#000000" fill-opacity="1"/></g><g><path d="M21.038498511083983,32.95440163757324C20.901990511083984,33.34548163757324,21.108355111083984,33.77317163757324,21.499429111083984,33.90968163757324C21.890502111083983,34.04618163757324,22.318195111083984,33.839821637573245,22.454705111083985,33.448751637573245C22.454705111083985,33.448751637573245,21.038498511083983,32.95440163757324,21.038498511083983,32.95440163757324C21.038498511083983,32.95440163757324,21.038498511083983,32.95440163757324,21.038498511083983,32.95440163757324ZM29.624865111083984,34.97119163757324C29.931415111083986,35.24975163757324,30.405755111083984,35.22706163757324,30.684315111083983,34.92051163757324C30.962885111083985,34.61396163757324,30.940195111083984,34.139631637573245,30.633645111083986,33.86106163757324C30.633645111083986,33.86106163757324,29.624865111083984,34.97119163757324,29.624865111083984,34.97119163757324C29.624865111083984,34.97119163757324,29.624865111083984,34.97119163757324,29.624865111083984,34.97119163757324ZM22.454705111083985,33.448751637573245C22.558575111083986,33.15117163757324,23.032415111083985,32.39458163757324,24.021455111083984,32.21940163757324C25.010185111083985,32.04427163757324,26.793625111083983,32.39843163757324,29.624865111083984,34.97119163757324C29.624865111083984,34.97119163757324,30.633645111083986,33.86106163757324,30.633645111083986,33.86106163757324C27.675045111083985,31.17257463757324,25.432375111083985,30.446142637573242,23.759835111083984,30.74239243757324C22.087615111083984,31.038587637573244,21.265056111083986,32.30535163757324,21.038498511083983,32.95440163757324C21.038498511083983,32.95440163757324,22.454705111083985,33.448751637573245,22.454705111083985,33.448751637573245C22.454705111083985,33.448751637573245,22.454705111083985,33.448751637573245,22.454705111083985,33.448751637573245Z" fill="#000000" fill-opacity="1"/></g><g><g><path d="M13.264322799987793,42.15482268188477C14.258522799987793,39.626772681884766,12.605302799987793,37.58066268188477,13.254222799987794,33.92722968188477C13.260392799987793,33.89251268188477,13.276722799987793,33.85832368188476,13.300032799987793,33.83186668188477C15.000822799987793,31.901432681884767,17.158772799987794,33.71004168188477,18.726752799987793,36.25016268188477C20.305852799987793,38.80830268188477,17.779292799987793,42.503402681884765,20.684832799987795,43.07184268188477C23.59035279998779,43.64034268188477,35.78105279998779,33.249879681884764,37.928652799987795,37.860852681884765C39.5796527999878,41.405712681884765,33.17705279998779,44.651142681884764,29.376952799987794,45.982742681884766C29.209752799987793,46.041342681884764,29.193052799987793,46.276642681884766,29.34475279998779,46.368242681884766C31.77155279998779,47.83344268188476,31.604752799987793,49.841442681884764,29.415852799987793,51.02284268188477C30.92705279998779,52.61644268188476,30.361952799987794,53.77174268188477,28.927752799987793,54.50384268188476C29.32185279998779,56.812342681884765,28.425252799987792,57.29144268188477,24.38425279998779,57.93104268188476C19.332862799987794,58.73054268188477,13.445932799987792,55.78874268188477,12.064641799987793,53.243042681884766C10.174782799987792,49.760142681884766,12.233682799987793,44.775542681884765,13.264322799987793,42.15482268188477C13.264322799987793,42.15482268188477,13.264322799987793,42.15482268188477,13.264322799987793,42.15482268188477Z" fill="#FDD224" fill-opacity="1"/><path d="M11.045063799987792,47.44964268188477Q10.341694799987794,51.11614268188477,11.625169799987793,53.48154268188476Q12.828402799987792,55.69904268188476,16.65491279998779,57.30264268188476Q20.73908279998779,59.01424268188477,24.462452799987794,58.424942681884765Q27.683852799987793,57.91504268188477,28.610752799987793,57.249442681884766Q29.657652799987794,56.49764268188477,29.470452799987793,54.77454268188477Q30.553752799987794,54.12244268188476,30.76395279998779,53.19714268188477Q30.986752799987794,52.21594268188477,30.177352799987794,51.146042681884765Q31.591352799987792,50.183742681884766,31.611152799987792,48.809142681884765Q31.631752799987794,47.37554268188477,30.086452799987793,46.25874268188477Q33.63515279998779,44.94704268188477,35.9995527999878,43.14984268188476Q39.65085279998779,40.374332681884766,38.38195279998779,37.64974268188477Q37.311752799987794,35.352142681884764,33.45785279998779,36.648412681884764Q31.396052799987793,37.34192268188477,26.726852799987793,39.95387268188477Q21.706552799987794,42.76227268188477,20.78083279998779,42.58115268188477Q19.976152799987794,42.42372268188477,19.787312799987795,41.79561268188476Q19.644422799987794,41.32036268188477,19.740342799987793,39.92255268188477Q19.924502799987792,37.23862268188476,19.152222799987793,35.987532681884765Q17.765302799987793,33.740732681884765,16.306602799987793,32.927801681884766Q14.377402799987793,31.852672681884766,12.924872799987792,33.50132968188476Q12.796102799987793,33.64748168188476,12.761922799987794,33.839787681884765Q12.432572799987794,35.69405268188476,12.875942799987794,38.42439268188477Q13.261172799987794,40.79666268188477,12.799012799987793,41.97183268188476Q12.770092799987793,42.04536268188477,12.710732799987793,42.19592268188477Q11.429577799987793,45.445242681884764,11.045063799987792,47.44964268188477ZM17.041412799987793,56.38034268188477Q13.539512799987794,54.91284268188477,12.504112799987793,53.004542681884764Q11.391140899987793,50.953442681884766,12.027155799987792,47.63804268188477Q12.394092799987792,45.725242681884765,13.641032799987793,42.562722681884765Q13.700592799987792,42.41165268188477,13.729632799987794,42.33781268188476Q14.292222799987794,40.90725268188476,13.863012799987793,38.264102681884765Q13.457342799987792,35.76593268188476,13.731912799987793,34.099972681884765Q14.632382799987793,33.139575681884764,15.819792799987793,33.80131268188477Q17.05111279998779,34.48752268188476,18.301282799987792,36.512802681884764Q18.904862799987793,37.49059268188476,18.742682799987794,39.85410268188477Q18.634292799987794,41.433742681884766,18.82965279998779,42.08353268188476Q19.192172799987794,43.28934268188476,20.58883279998779,43.562542681884764Q21.874552799987793,43.81414268188477,27.215052799987795,40.826602681884765Q31.803052799987793,38.260072681884765,33.776652799987794,37.596232681884764Q36.78285279998779,36.585082681884764,37.47545279998779,38.07195268188477Q38.404052799987795,40.06594268188476,35.39435279998779,42.35372268188476Q32.97655279998779,44.191642681884765,29.211652799987792,45.51084268188477Q28.77915279998779,45.66244268188477,28.742852799987794,46.12384268188477Q28.707852799987794,46.567742681884766,29.086252799987793,46.79624268188476Q30.626552799987792,47.72624268188477,30.611252799987792,48.79474268188476Q30.596552799987794,49.81744268188477,29.178352799987792,50.58284268188477L28.603652799987792,50.893042681884765L29.053052799987793,51.366942681884765Q29.941352799987794,52.30364268188477,29.788752799987794,52.975642681884764Q29.653252799987794,53.57214268188477,28.700452799987794,54.05854268188477L28.373052799987793,54.225642681884764L28.434852799987794,54.58794268188477Q28.671652799987793,55.97464268188477,28.02755279998779,56.437142681884765Q27.29325279998779,56.964342681884766,24.306052799987793,57.437142681884765Q20.863462799987794,57.982042681884764,17.041412799987793,56.38034268188477Z" fill-rule="evenodd" fill="#000000" fill-opacity="1"/></g><g><path d="M29.4859155267334,51.02770389245605C29.6238955267334,51.022704892456055,29.731695526733397,50.90679689245606,29.726705526733397,50.768815892456054C29.7217055267334,50.63083489245606,29.6057955267334,50.52303189245605,29.4678155267334,50.528031892456056C29.4678155267334,50.528031892456056,29.4859155267334,51.02770389245605,29.4859155267334,51.02770389245605C29.4859155267334,51.02770389245605,29.4859155267334,51.02770389245605,29.4859155267334,51.02770389245605ZM26.036098526733397,50.409011792456056C25.913859526733397,50.344812792456054,25.762722426733397,50.39186379245606,25.6985244267334,50.514101892456054C25.634325426733398,50.636340892456055,25.681376426733397,50.78747789245605,25.803614526733398,50.85167589245606C25.803614526733398,50.85167589245606,26.036098526733397,50.409011792456056,26.036098526733397,50.409011792456056C26.036098526733397,50.409011792456056,26.036098526733397,50.409011792456056,26.036098526733397,50.409011792456056ZM29.4678155267334,50.528031892456056C28.960275526733398,50.54641989245606,28.1745655267334,50.56112789245606,27.468455526733397,50.545612892456056C27.115015526733398,50.53784689245605,26.7854855267334,50.522583892456055,26.522294526733397,50.497032892456055C26.390538526733398,50.484241892456055,26.279168526733397,50.46922279245605,26.191616526733398,50.45218979245605C26.0986175267334,50.43409679245605,26.0517395267334,50.417226792456056,26.036098526733397,50.409011792456056C26.036098526733397,50.409011792456056,25.803614526733398,50.85167589245606,25.803614526733398,50.85167589245606C25.886435526733397,50.89517289245605,25.992638526733398,50.922852892456056,26.0961335267334,50.94298789245605C26.2050755267334,50.964181892456054,26.3336155267334,50.98106589245605,26.473981526733397,50.99469289245606C26.755025526733398,51.02197789245606,27.098595526733398,51.037606892456054,27.457475526733397,51.04549289245605C28.176025526733397,51.061280892456054,28.971895526733398,51.04632689245606,29.4859155267334,51.02770389245605C29.4859155267334,51.02770389245605,29.4678155267334,50.528031892456056,29.4678155267334,50.528031892456056C29.4678155267334,50.528031892456056,29.4678155267334,50.528031892456056,29.4678155267334,50.528031892456056Z" fill="#000000" fill-opacity="1"/></g><g><path d="M29.08612190185547,54.58927119897461C29.22410190185547,54.58427219897461,29.331901901855467,54.46836419897461,29.326911901855468,54.33038319897461C29.32191190185547,54.19240219897461,29.20600190185547,54.08459919897461,29.06802190185547,54.08959919897461C29.06802190185547,54.08959919897461,29.08612190185547,54.58927119897461,29.08612190185547,54.58927119897461C29.08612190185547,54.58927119897461,29.08612190185547,54.58927119897461,29.08612190185547,54.58927119897461ZM25.636304901855468,53.97057909897461C25.514065901855467,53.90638009897461,25.362928801855467,53.95343109897461,25.29873080185547,54.07566919897461C25.234531801855468,54.19790819897461,25.281582801855468,54.34904519897461,25.403820901855468,54.41324319897461C25.403820901855468,54.41324319897461,25.636304901855468,53.97057909897461,25.636304901855468,53.97057909897461C25.636304901855468,53.97057909897461,25.636304901855468,53.97057909897461,25.636304901855468,53.97057909897461ZM29.06802190185547,54.08959919897461C28.560481901855468,54.10798719897461,27.77477190185547,54.12269519897461,27.068661901855467,54.10718019897461C26.715221901855468,54.09941419897461,26.38569190185547,54.08415119897461,26.122500901855467,54.05860019897461C25.990744901855468,54.04580919897461,25.879374901855467,54.030790098974606,25.79182290185547,54.01375709897461C25.69882390185547,53.99566409897461,25.65194590185547,53.97879409897461,25.636304901855468,53.97057909897461C25.636304901855468,53.97057909897461,25.403820901855468,54.41324319897461,25.403820901855468,54.41324319897461C25.486641901855467,54.45674019897461,25.592844901855468,54.48442019897461,25.69633990185547,54.50455519897461C25.80528190185547,54.52574919897461,25.93382190185547,54.542633198974606,26.074187901855467,54.55626019897461C26.35523190185547,54.58354519897461,26.698801901855468,54.59917419897461,27.057681901855467,54.60706019897461C27.776231901855468,54.62284819897461,28.57210190185547,54.60789419897461,29.08612190185547,54.58927119897461C29.08612190185547,54.58927119897461,29.06802190185547,54.08959919897461,29.06802190185547,54.08959919897461C29.06802190185547,54.08959919897461,29.06802190185547,54.08959919897461,29.06802190185547,54.08959919897461Z" fill="#000000" fill-opacity="1"/></g></g></g></svg>