<svg xmlns="http://www.w3.org/2000/svg" xmlns:xlink="http://www.w3.org/1999/xlink" fill="none" version="1.1" width="57.1229248046875" height="57.1229248046875" viewBox="0 0 57.1229248046875 57.1229248046875"><defs><filter id="master_svg0_0_44" filterUnits="objectBoundingBox" color-interpolation-filters="sRGB" x="-2" y="-2" width="9.612292289733887" height="6.806146144866943"><feFlood flood-opacity="0" result="BackgroundImageFix"/><feBlend mode="normal" in="SourceGraphic" in2="BackgroundImageFix" result="shape"/><feGaussianBlur stdDeviation="0.5" result="effect1_foregroundBlur"/></filter><filter id="master_svg1_0_45" filterUnits="objectBoundingBox" color-interpolation-filters="sRGB" x="-2" y="-2" width="9.612292289733887" height="6.806146144866943"><feFlood flood-opacity="0" result="BackgroundImageFix"/><feBlend mode="normal" in="SourceGraphic" in2="BackgroundImageFix" result="shape"/><feGaussianBlur stdDeviation="0.5" result="effect1_foregroundBlur"/></filter></defs><g><g><path d="M28.5615,56.6229Q29.2503,56.6229,29.9384,56.5891Q30.6264,56.5553,31.312,56.4878Q31.9975,56.4203,32.6789,56.3192Q33.3603,56.2181,34.036,56.0837Q34.7116,55.9493,35.3798,55.7819Q36.0481,55.6146,36.7073,55.4146Q37.3665,55.2146,38.0151,54.9826Q38.6637,54.7505,39.3001,54.4869Q39.9365,54.2232,40.5593,53.9287Q41.182,53.6342,41.7895,53.3095Q42.3971,52.9847,42.9879,52.6306Q43.5788,52.2764,44.1516,51.8937Q44.7243,51.511,45.2776,51.1006Q45.831,50.6903,46.3635,50.2533Q46.896,49.8162,47.4064,49.3536Q47.9168,48.891,48.4039,48.4039Q48.891,47.9168,49.3536,47.4064Q49.8162,46.896,50.2533,46.3635Q50.6903,45.831,51.1006,45.2776Q51.511,44.7243,51.8937,44.1516Q52.2764,43.5788,52.6306,42.9879Q52.9847,42.3971,53.3095,41.7895Q53.6342,41.182,53.9287,40.5593Q54.2232,39.9365,54.4869,39.3001Q54.7505,38.6637,54.9826,38.0151Q55.2146,37.3665,55.4146,36.7073Q55.6146,36.0481,55.782,35.3798Q55.9493,34.7116,56.0837,34.036Q56.2181,33.3603,56.3192,32.6789Q56.4203,31.9975,56.4878,31.312Q56.5553,30.6264,56.5891,29.9384Q56.6229,29.2503,56.6229,28.5615Q56.6229,27.8726,56.5891,27.1846Q56.5553,26.4965,56.4878,25.811Q56.4203,25.1254,56.3192,24.444Q56.2181,23.7626,56.0837,23.0869Q55.9493,22.4113,55.7819,21.7431Q55.6146,21.0749,55.4146,20.4156Q55.2146,19.7564,54.9826,19.1078Q54.7505,18.4592,54.4869,17.8228Q54.2232,17.1864,53.9287,16.5636Q53.6342,15.9409,53.3095,15.3334Q52.9847,14.7259,52.6306,14.135Q52.2764,13.5441,51.8937,12.9713Q51.511,12.3986,51.1006,11.8453Q50.6903,11.292,50.2533,10.7595Q49.8162,10.22695,49.3536,9.71654Q48.891,9.20612,48.4039,8.71901Q47.9168,8.23191,47.4064,7.76929Q46.896,7.30667,46.3635,6.86966Q45.831,6.43264,45.2776,6.02228Q44.7243,5.61192,44.1516,5.22921Q43.5788,4.84649,42.9879,4.49234Q42.3971,4.13819,41.7895,3.81346Q41.182,3.48873,40.5593,3.1942Q39.9365,2.89967,39.3001,2.63605Q38.6637,2.37243,38.0151,2.1403600000000003Q37.3665,1.90829,36.7073,1.70832Q36.0481,1.50835,35.3798,1.340967Q34.7116,1.173585,34.036,1.039193Q33.3603,0.904801,32.6789,0.803723Q31.9975,0.702645,31.312,0.635124Q30.6264,0.5676025,29.9384,0.5338013Q29.2503,0.5,28.5615,0.5Q27.8726,0.5,27.1846,0.5338013Q26.4965,0.5676025,25.811,0.635124Q25.1254,0.702645,24.444,0.803723Q23.7626,0.904801,23.0869,1.039193Q22.4113,1.173585,21.7431,1.340967Q21.0749,1.50835,20.4156,1.70832Q19.7564,1.90829,19.1078,2.1403600000000003Q18.4592,2.37243,17.8228,2.63605Q17.1864,2.89967,16.5636,3.1942Q15.9409,3.48873,15.3334,3.81346Q14.7259,4.13819,14.135,4.49234Q13.5441,4.84649,12.9713,5.22921Q12.3986,5.61192,11.8453,6.02228Q11.292,6.43264,10.7595,6.86966Q10.22695,7.30667,9.71654,7.76929Q9.20612,8.23191,8.71901,8.71901Q8.23191,9.20612,7.76929,9.71654Q7.30667,10.22695,6.86966,10.7595Q6.43264,11.292,6.02228,11.8453Q5.61192,12.3986,5.22921,12.9713Q4.84649,13.5441,4.49234,14.135Q4.13819,14.7259,3.81346,15.3334Q3.48873,15.9409,3.1942,16.5636Q2.89967,17.1864,2.63605,17.8228Q2.37243,18.4592,2.1403600000000003,19.1078Q1.90829,19.7564,1.70832,20.4156Q1.50835,21.0749,1.340967,21.7431Q1.173585,22.4113,1.039193,23.0869Q0.904801,23.7626,0.803723,24.444Q0.702645,25.1254,0.635124,25.811Q0.5676025,26.4965,0.5338013,27.1846Q0.5,27.8726,0.5,28.5615Q0.4999999999999988,29.6907,0.5907328000000001,30.8162Q0.681466,31.9418,0.8623449999999999,33.0564Q1.043224,34.171,1.313079,35.2675Q1.58293,36.364,1.94002,37.4353Q2.29711,38.5065,2.73912,39.5456Q3.18112,40.5847,3.7052,41.585Q4.22927,42.5852,4.83202,43.5401Q5.43476,44.495,6.11229,45.3983L4.24155,53.8168L12.0151,51.2256Q12.9088,51.8781,13.8512,52.4582Q14.7935,53.0383,15.7786,53.5424Q16.7637,54.0464,17.7855,54.4714Q18.8072,54.8963,19.8593,55.2395Q20.9113,55.5827,21.9871,55.8419Q23.0629,56.1012,24.1557,56.2749Q25.2486,56.4486,26.3517,56.5358Q27.4549,56.6229,28.5615,56.6229Z" fill-rule="evenodd" fill="#FFCF00" fill-opacity="1"/><path d="M28.5615,56.1229Q33.8186,56.1229,38.7067,54.1878Q44.014,52.0867,48.0504,48.0504Q52.0867,44.0141,54.1878,38.7067Q56.1229,33.8186,56.1229,28.5615Q56.1229,23.3043,54.1878,18.4162Q52.0867,13.1089,48.0504,9.07257Q44.0141,5.03629,38.7067,2.93514Q33.8186,1,28.5615,1Q23.3043,1,18.4162,2.93514Q13.1088,5.03628,9.07257,9.07257Q5.03629,13.1089,2.93514,18.4162Q1,23.3043,1,28.5615Q1,37.7486,6.51229,45.0983L6.65027,45.2823L4.72964,53.9252L4.24155,53.8168L4.08343,53.3424L12.1016,50.6697L12.3099,50.8218Q19.571,56.123,28.5615,56.1229ZM28.5615,57.1229Q19.2449,57.1229,11.7203,51.6294L12.0151,51.2256L12.1732,51.6999L3.56189,54.5704L5.62419,45.2899L6.11229,45.3983L5.71229,45.6983Q0,38.082,0,28.5615Q0,23.1135,2.00535,18.0481Q4.18272,12.5482,8.365459999999999,8.365459999999999Q12.5482,4.182729999999999,18.0481,2.00535Q23.1136,0,28.5615,0Q34.0094,0,39.0748,2.00535Q44.5747,4.182729999999999,48.7575,8.365459999999999Q52.9402,12.5483,55.1176,18.0481Q57.1229,23.1136,57.1229,28.5615Q57.1229,34.0093,55.1176,39.0748Q52.9402,44.5747,48.7575,48.7575Q44.5747,52.9402,39.0748,55.1176Q34.0093,57.1229,28.5615,57.1229Z" fill="#000000" fill-opacity="1"/></g><g><path d="M23.68896471801758,34.05044776074219C23.62087471801758,33.64186976074219,23.234444718017578,33.365854560742186,22.825872718017578,33.43395156074219C22.41729471801758,33.502047560742184,22.14127951801758,33.888468760742185,22.209376518017578,34.297045760742186C22.209376518017578,34.297045760742186,23.68896471801758,34.05044776074219,23.68896471801758,34.05044776074219C23.68896471801758,34.05044776074219,23.68896471801758,34.05044776074219,23.68896471801758,34.05044776074219ZM34.91355471801758,34.297045760742186C34.98165471801758,33.888468760742185,34.70565471801758,33.502047560742184,34.29705471801758,33.43395156074219C33.88845471801758,33.365854560742186,33.502054718017575,33.64186976074219,33.433954718017574,34.05044776074219C33.433954718017574,34.05044776074219,34.91355471801758,34.297045760742186,34.91355471801758,34.297045760742186C34.91355471801758,34.297045760742186,34.91355471801758,34.297045760742186,34.91355471801758,34.297045760742186ZM22.209376518017578,34.297045760742186C22.38101971801758,35.32690976074219,22.887915718017577,36.851609760742186,23.87396471801758,38.137759760742185C24.87442471801758,39.44270976074219,26.40151471801758,40.536039760742185,28.56146471801758,40.536039760742185C28.56146471801758,40.536039760742185,28.56146471801758,39.036039760742185,28.56146471801758,39.036039760742185C26.97988471801758,39.036039760742185,25.856724718017578,38.25860976074219,25.06437471801758,37.225109760742185C24.25760471801758,36.17279976074219,23.82911471801758,34.89134976074219,23.68896471801758,34.05044776074219C23.68896471801758,34.05044776074219,22.209376518017578,34.297045760742186,22.209376518017578,34.297045760742186C22.209376518017578,34.297045760742186,22.209376518017578,34.297045760742186,22.209376518017578,34.297045760742186ZM28.56146471801758,40.536039760742185C30.721414718017577,40.536039760742185,32.24845471801758,39.44270976074219,33.24895471801758,38.137759760742185C34.234954718017576,36.851609760742186,34.74185471801758,35.32690976074219,34.91355471801758,34.297045760742186C34.91355471801758,34.297045760742186,33.433954718017574,34.05044776074219,33.433954718017574,34.05044776074219C33.29375471801758,34.89134976074219,32.86535471801758,36.17279976074219,32.058554718017575,37.225109760742185C31.266204718017576,38.25860976074219,30.143044718017578,39.036039760742185,28.56146471801758,39.036039760742185C28.56146471801758,39.036039760742185,28.56146471801758,40.536039760742185,28.56146471801758,40.536039760742185C28.56146471801758,40.536039760742185,28.56146471801758,40.536039760742185,28.56146471801758,40.536039760742185Z" fill="#000000" fill-opacity="1"/></g><g><ellipse cx="17.336872577667236" cy="23.884541988372803" rx="3.741528034210205" ry="4.676909923553467" fill="#000000" fill-opacity="1"/></g><g filter="url(#master_svg0_0_44)"><ellipse cx="46.33371877670288" cy="29.964531660079956" rx="2.8061461448669434" ry="1.4030730724334717" fill="#FF8B72" fill-opacity="1"/></g><g filter="url(#master_svg1_0_45)"><ellipse cx="10.78920316696167" cy="29.964531660079956" rx="2.8061461448669434" ry="1.4030730724334717" fill="#FF8B72" fill-opacity="1"/></g><g transform="matrix(0.9971702694892883,0.07517614960670471,-0.07517614960670471,0.9971702694892883,0.9864444494269264,-0.8224677179508149)"><path d="M19.319273462524414,13.776554639892579C19.591653462524413,13.821954639892578,19.849273462524415,13.637940639892578,19.894663462524413,13.365555639892579C19.940063462524414,13.093169639892578,19.756053462524413,12.835556639892578,19.483673462524415,12.790158439892577C19.483673462524415,12.790158439892577,19.319273462524414,13.776554639892579,19.319273462524414,13.776554639892579C19.319273462524414,13.776554639892579,19.319273462524414,13.776554639892579,19.319273462524414,13.776554639892579ZM11.454178262524414,16.83918463989258C11.351621262524414,17.09557463989258,11.476329262524414,17.386564639892576,11.732721462524413,17.48912463989258C11.989112462524414,17.591674639892577,12.280098462524414,17.466964639892577,12.382654462524414,17.210574639892577C12.382654462524414,17.210574639892577,11.454178262524414,16.83918463989258,11.454178262524414,16.83918463989258C11.454178262524414,16.83918463989258,11.454178262524414,16.83918463989258,11.454178262524414,16.83918463989258ZM19.483673462524415,12.790158439892577C18.479833462524415,12.622852439892577,16.896543462524413,12.623293439892578,15.354683462524413,13.162115639892578C13.798413462524413,13.705974639892577,12.266953462524414,14.807244639892579,11.454178262524414,16.83918463989258C11.454178262524414,16.83918463989258,12.382654462524414,17.210574639892577,12.382654462524414,17.210574639892577C13.066483462524413,15.500984639892579,14.341163462524413,14.575604639892578,15.684583462524415,14.106134639892579C17.042403462524412,13.631623639892577,18.452343462524414,13.632065639892579,19.319273462524414,13.776554639892579C19.319273462524414,13.776554639892579,19.483673462524415,12.790158439892577,19.483673462524415,12.790158439892577C19.483673462524415,12.790158439892577,19.483673462524415,12.790158439892577,19.483673462524415,12.790158439892577Z" fill="#000000" fill-opacity="1"/></g><g transform="matrix(0.98540860414505,-0.17020541429519653,0.17020541429519653,0.98540860414505,-2.515762718419296,6.462505904627619)"><path d="M36.6551744050293,18.55645445324707C36.4575823050293,18.65525045324707,36.3774923050293,18.89551945324707,36.4762883050293,19.09311145324707C36.575084405029294,19.29070145324707,36.8153534050293,19.37079145324707,37.012944405029295,19.27200145324707C37.012944405029295,19.27200145324707,36.6551744050293,18.55645445324707,36.6551744050293,18.55645445324707C36.6551744050293,18.55645445324707,36.6551744050293,18.55645445324707,36.6551744050293,18.55645445324707ZM43.0988914050293,20.13245145324707C43.25510140502929,20.28866145324707,43.508371405029294,20.28866145324707,43.664581405029296,20.13245145324707C43.8207914050293,19.97624145324707,43.8207914050293,19.72297145324707,43.664581405029296,19.56676145324707C43.664581405029296,19.56676145324707,43.0988914050293,20.13245145324707,43.0988914050293,20.13245145324707C43.0988914050293,20.13245145324707,43.0988914050293,20.13245145324707,43.0988914050293,20.13245145324707ZM37.012944405029295,19.27200145324707C37.5840214050293,18.98646145324707,38.5951114050293,18.67678645324707,39.723361405029294,18.70609145324707C40.8422414050293,18.73515345324707,42.0624714050293,19.096031453247072,43.0988914050293,20.13245145324707C43.0988914050293,20.13245145324707,43.664581405029296,19.56676145324707,43.664581405029296,19.56676145324707C42.456081405029295,18.35826845324707,41.026061405029296,17.93965855324707,39.7441314050293,17.90636154324707C38.471571405029295,17.87330855324707,37.3312744050293,18.21840445324707,36.6551744050293,18.55645445324707C36.6551744050293,18.55645445324707,37.012944405029295,19.27200145324707,37.012944405029295,19.27200145324707C37.012944405029295,19.27200145324707,37.012944405029295,19.27200145324707,37.012944405029295,19.27200145324707Z" fill="#000000" fill-opacity="1"/></g><g><path d="M36.083184531640626,25.142127517700196C36.95275993164063,21.201340517700196,44.89536993164062,19.748877517700194,46.228629931640626,21.810394517700196C46.29442993164062,21.912107517700196,46.229229931640624,22.039617517700194,46.11242993164063,22.071697517700194C44.161759931640624,22.607417517700195,41.94735993164063,23.866997517700195,41.65681993164063,24.819927517700194C41.40453993164063,25.647347517700197,42.683949931640626,27.004637517700196,44.60208993164063,28.148027517700196C44.76328993164063,28.244127517700196,44.72198993164062,28.487167517700193,44.535549931640624,28.508767517700196C40.46914993164062,28.979947517700197,35.81268993164063,26.367967517700194,36.083184531640626,25.142127517700196C36.083184531640626,25.142127517700196,36.083184531640626,25.142127517700196,36.083184531640626,25.142127517700196Z" fill="#000000" fill-opacity="1"/></g></g></svg>