<svg xmlns="http://www.w3.org/2000/svg" xmlns:xlink="http://www.w3.org/1999/xlink" fill="none" version="1.1" width="57.1229248046875" height="57.1229248046875" viewBox="0 0 57.1229248046875 57.1229248046875"><g><g><path d="M28.5615,56.6229Q29.2503,56.6229,29.9384,56.5891Q30.6264,56.5553,31.312,56.4878Q31.9975,56.4203,32.6789,56.3192Q33.3603,56.2181,34.036,56.0837Q34.7116,55.9493,35.3798,55.7819Q36.0481,55.6146,36.7073,55.4146Q37.3665,55.2146,38.0151,54.9826Q38.6637,54.7505,39.3001,54.4869Q39.9365,54.2232,40.5593,53.9287Q41.182,53.6342,41.7895,53.3095Q42.3971,52.9847,42.9879,52.6306Q43.5788,52.2764,44.1516,51.8937Q44.7243,51.511,45.2776,51.1006Q45.831,50.6903,46.3635,50.2533Q46.896,49.8162,47.4064,49.3536Q47.9168,48.891,48.4039,48.4039Q48.891,47.9168,49.3536,47.4064Q49.8162,46.896,50.2533,46.3635Q50.6903,45.831,51.1006,45.2776Q51.511,44.7243,51.8937,44.1516Q52.2764,43.5788,52.6306,42.9879Q52.9847,42.3971,53.3095,41.7895Q53.6342,41.182,53.9287,40.5593Q54.2232,39.9365,54.4869,39.3001Q54.7505,38.6637,54.9826,38.0151Q55.2146,37.3665,55.4146,36.7073Q55.6146,36.0481,55.782,35.3798Q55.9493,34.7116,56.0837,34.036Q56.2181,33.3603,56.3192,32.6789Q56.4203,31.9975,56.4878,31.312Q56.5553,30.6264,56.5891,29.9384Q56.6229,29.2503,56.6229,28.5615Q56.6229,27.8726,56.5891,27.1846Q56.5553,26.4965,56.4878,25.811Q56.4203,25.1254,56.3192,24.444Q56.2181,23.7626,56.0837,23.0869Q55.9493,22.4113,55.7819,21.7431Q55.6146,21.0749,55.4146,20.4156Q55.2146,19.7564,54.9826,19.1078Q54.7505,18.4592,54.4869,17.8228Q54.2232,17.1864,53.9287,16.5636Q53.6342,15.9409,53.3095,15.3334Q52.9847,14.7259,52.6306,14.135Q52.2764,13.5441,51.8937,12.9713Q51.511,12.3986,51.1006,11.8453Q50.6903,11.292,50.2533,10.7595Q49.8162,10.22695,49.3536,9.71654Q48.891,9.20612,48.4039,8.71901Q47.9168,8.23191,47.4064,7.76929Q46.896,7.30667,46.3635,6.86966Q45.831,6.43264,45.2776,6.02228Q44.7243,5.61192,44.1516,5.22921Q43.5788,4.84649,42.9879,4.49234Q42.3971,4.13819,41.7895,3.81346Q41.182,3.48873,40.5593,3.1942Q39.9365,2.89967,39.3001,2.63605Q38.6637,2.37243,38.0151,2.1403600000000003Q37.3665,1.90829,36.7073,1.70832Q36.0481,1.50835,35.3798,1.340967Q34.7116,1.173585,34.036,1.039193Q33.3603,0.904801,32.6789,0.803723Q31.9975,0.702645,31.312,0.635124Q30.6264,0.5676025,29.9384,0.5338013Q29.2503,0.5,28.5615,0.5Q27.8726,0.5,27.1846,0.5338013Q26.4965,0.5676025,25.811,0.635124Q25.1254,0.702645,24.444,0.803723Q23.7626,0.904801,23.0869,1.039193Q22.4113,1.173585,21.7431,1.340967Q21.0749,1.50835,20.4156,1.70832Q19.7564,1.90829,19.1078,2.1403600000000003Q18.4592,2.37243,17.8228,2.63605Q17.1864,2.89967,16.5636,3.1942Q15.9409,3.48873,15.3334,3.81346Q14.7259,4.13819,14.135,4.49234Q13.5441,4.84649,12.9713,5.22921Q12.3986,5.61192,11.8453,6.02228Q11.292,6.43264,10.7595,6.86966Q10.22695,7.30667,9.71654,7.76929Q9.20612,8.23191,8.71901,8.71901Q8.23191,9.20612,7.76929,9.71654Q7.30667,10.22695,6.86966,10.7595Q6.43264,11.292,6.02228,11.8453Q5.61192,12.3986,5.22921,12.9713Q4.84649,13.5441,4.49234,14.135Q4.13819,14.7259,3.81346,15.3334Q3.48873,15.9409,3.1942,16.5636Q2.89967,17.1864,2.63605,17.8228Q2.37243,18.4592,2.1403600000000003,19.1078Q1.90829,19.7564,1.70832,20.4156Q1.50835,21.0749,1.340967,21.7431Q1.173585,22.4113,1.039193,23.0869Q0.904801,23.7626,0.803723,24.444Q0.702645,25.1254,0.635124,25.811Q0.5676025,26.4965,0.5338013,27.1846Q0.5,27.8726,0.5,28.5615Q0.4999999999999988,29.6907,0.5907328000000001,30.8162Q0.681466,31.9418,0.8623449999999999,33.0564Q1.043224,34.171,1.313079,35.2675Q1.58293,36.364,1.94002,37.4353Q2.29711,38.5065,2.73912,39.5456Q3.18112,40.5847,3.7052,41.585Q4.22927,42.5852,4.83202,43.5401Q5.43476,44.495,6.11229,45.3983L4.24155,53.8168L12.0151,51.2256Q12.9088,51.8781,13.8512,52.4582Q14.7935,53.0383,15.7786,53.5424Q16.7637,54.0464,17.7855,54.4714Q18.8072,54.8963,19.8593,55.2395Q20.9113,55.5827,21.9871,55.8419Q23.0629,56.1012,24.1557,56.2749Q25.2486,56.4486,26.3517,56.5358Q27.4549,56.6229,28.5615,56.6229Z" fill-rule="evenodd" fill="#FFCF00" fill-opacity="1"/><path d="M28.5615,56.1229Q33.8186,56.1229,38.7067,54.1878Q44.014,52.0867,48.0504,48.0504Q52.0867,44.0141,54.1878,38.7067Q56.1229,33.8186,56.1229,28.5615Q56.1229,23.3043,54.1878,18.4162Q52.0867,13.1089,48.0504,9.07257Q44.0141,5.03629,38.7067,2.93514Q33.8186,1,28.5615,1Q23.3043,1,18.4162,2.93514Q13.1088,5.03628,9.07257,9.07257Q5.03629,13.1089,2.93514,18.4162Q1,23.3043,1,28.5615Q1,37.7486,6.51229,45.0983L6.65027,45.2823L4.72964,53.9252L4.24155,53.8168L4.08343,53.3424L12.1016,50.6697L12.3099,50.8218Q19.571,56.123,28.5615,56.1229ZM28.5615,57.1229Q19.2449,57.1229,11.7203,51.6294L12.0151,51.2256L12.1732,51.6999L3.56189,54.5704L5.62419,45.2899L6.11229,45.3983L5.71229,45.6983Q0,38.082,0,28.5615Q0,23.1135,2.00535,18.0481Q4.18272,12.5482,8.365459999999999,8.365459999999999Q12.5482,4.182729999999999,18.0481,2.00535Q23.1136,0,28.5615,0Q34.0094,0,39.0748,2.00535Q44.5747,4.182729999999999,48.7575,8.365459999999999Q52.9402,12.5483,55.1176,18.0481Q57.1229,23.1136,57.1229,28.5615Q57.1229,34.0093,55.1176,39.0748Q52.9402,44.5747,48.7575,48.7575Q44.5747,52.9402,39.0748,55.1176Q34.0093,57.1229,28.5615,57.1229Z" fill="#000000" fill-opacity="1"/></g><g><g><path d="M12.375365969238281,29.672957834472655C11.956045969238282,29.313537834472655,11.324741969238282,29.362097834472657,10.96531896923828,29.781427834472655C10.605895969238281,30.200747834472658,10.654455569238282,30.832047834472657,11.07378496923828,31.191467834472657C11.07378496923828,31.191467834472657,12.375365969238281,29.672957834472655,12.375365969238281,29.672957834472655C12.375365969238281,29.672957834472655,12.375365969238281,29.672957834472655,12.375365969238281,29.672957834472655ZM23.84355596923828,27.137897834472657C24.09055596923828,26.643923834472655,23.890355969238282,26.043250834472655,23.39635596923828,25.796261834472656C22.90235596923828,25.549268834472656,22.301655969238283,25.749496334472656,22.05475596923828,26.243474834472657C22.05475596923828,26.243474834472657,23.84355596923828,27.137897834472657,23.84355596923828,27.137897834472657C23.84355596923828,27.137897834472657,23.84355596923828,27.137897834472657,23.84355596923828,27.137897834472657ZM11.07378496923828,31.191467834472657C12.306435969238281,32.24802783447266,14.44378596923828,33.33685783447265,16.86474596923828,33.06278783447266C19.35997596923828,32.78030783447266,21.868855969238282,31.087357834472655,23.84355596923828,27.137897834472657C23.84355596923828,27.137897834472657,22.05475596923828,26.243474834472657,22.05475596923828,26.243474834472657C20.287935969238283,29.777077834472657,18.27580596923828,30.890267834472656,16.639765969238283,31.075477834472657C14.929455969238282,31.269097834472657,13.32527596923828,30.487167834472658,12.375365969238281,29.672957834472655C12.375365969238281,29.672957834472655,11.07378496923828,31.191467834472657,11.07378496923828,31.191467834472657C11.07378496923828,31.191467834472657,11.07378496923828,31.191467834472657,11.07378496923828,31.191467834472657Z" fill="#000000" fill-opacity="1"/></g><g transform="matrix(-1,0,0,1,96.53823852539062,0)"><path d="M49.91992926269531,29.67295866893768C49.50060926269531,29.31353866893768,48.86930526269531,29.362098668937683,48.509882262695314,29.781428668937682C48.150459262695314,30.200748668937685,48.19901886269531,30.832048668937684,48.618348262695314,31.191468668937684C48.618348262695314,31.191468668937684,49.91992926269531,29.67295866893768,49.91992926269531,29.67295866893768C49.91992926269531,29.67295866893768,49.91992926269531,29.67295866893768,49.91992926269531,29.67295866893768ZM61.38811926269531,27.137898668937684C61.63511926269531,26.643924668937682,61.43491926269532,26.043251668937682,60.94091926269531,25.796262668937683C60.44691926269531,25.549269668937683,59.846219262695314,25.749497168937683,59.59931926269531,26.243475668937684C59.59931926269531,26.243475668937684,61.38811926269531,27.137898668937684,61.38811926269531,27.137898668937684C61.38811926269531,27.137898668937684,61.38811926269531,27.137898668937684,61.38811926269531,27.137898668937684ZM48.618348262695314,31.191468668937684C49.85099926269531,32.248028668937685,51.988349262695316,33.33685866893768,54.40930926269531,33.062788668937685C56.90453926269531,32.780308668937685,59.413419262695314,31.087358668937682,61.38811926269531,27.137898668937684C61.38811926269531,27.137898668937684,59.59931926269531,26.243475668937684,59.59931926269531,26.243475668937684C57.832499262695315,29.777078668937683,55.82036926269531,30.890268668937683,54.184329262695314,31.075478668937684C52.474019262695315,31.269098668937684,50.869839262695315,30.487168668937684,49.91992926269531,29.67295866893768C49.91992926269531,29.67295866893768,48.618348262695314,31.191468668937684,48.618348262695314,31.191468668937684C48.618348262695314,31.191468668937684,48.618348262695314,31.191468668937684,48.618348262695314,31.191468668937684Z" fill="#000000" fill-opacity="1"/></g><g><path d="M23.849799863134766,45.155793131103515C23.715851963134767,45.69159313110352,24.041610963134765,46.234523131103515,24.577405963134765,46.368473131103514C25.113195963134764,46.50242313110351,25.656135963134766,46.17666313110352,25.790085963134764,45.640863131103515C25.790085963134764,45.640863131103515,23.849799863134766,45.155793131103515,23.849799863134766,45.155793131103515C23.849799863134766,45.155793131103515,23.849799863134766,45.155793131103515,23.849799863134766,45.155793131103515ZM33.20362596313477,45.640863131103515C33.33757596313477,46.17666313110352,33.880505963134766,46.50242313110351,34.41630596313477,46.368473131103514C34.95210596313477,46.234523131103515,35.27780596313477,45.69159313110352,35.14390596313476,45.155793131103515C35.14390596313476,45.155793131103515,33.20362596313477,45.640863131103515,33.20362596313477,45.640863131103515C33.20362596313477,45.640863131103515,33.20362596313477,45.640863131103515,33.20362596313477,45.640863131103515ZM24.819945963134767,45.39833313110351C25.790085963134764,45.640863131103515,25.789975963134765,45.64130313110351,25.789875963134765,45.641713131103515C25.789835963134767,45.64183313110352,25.789735963134767,45.64224313110351,25.789675963134766,45.64248313110352C25.789555963134767,45.64297313110352,25.789445963134767,45.64340313110352,25.789355963134767,45.643773131103515C25.789155963134764,45.64452313110352,25.789025963134765,45.64506313110351,25.788945963134765,45.645383131103515C25.788775963134764,45.64602313110352,25.788825963134766,45.645813131103516,25.789105963134766,45.64477313110351C25.789655963134766,45.64270313110352,25.791095963134765,45.63734313110351,25.793485963134767,45.628913131103516C25.798265963134767,45.61204313110352,25.806795963134764,45.58301313110351,25.819465963134764,45.543573131103514C25.844895963134764,45.46448313110351,25.886585963134767,45.34485313110351,25.947635963134765,45.19833313110352C26.070835963134765,44.90265313110351,26.266655963134767,44.51247313110352,26.555325963134766,44.127563131103514C27.120375963134766,43.374163131103515,28.018945963134765,42.656803131103516,29.496855963134767,42.656803131103516C29.496855963134767,42.656803131103516,29.496855963134767,40.656803131103516,29.496855963134767,40.656803131103516C27.233235963134767,40.656803131103516,25.793345963134765,41.81020313110351,24.955325963134765,42.92756313110352C24.542462963134767,43.47804313110352,24.270585963134767,44.02324313110351,24.101479963134764,44.42910313110352C24.016374963134766,44.63335313110352,23.955759963134767,44.80603313110352,23.915412863134765,44.93155313110351C23.895205863134766,44.99442313110352,23.879980863134765,45.045773131103516,23.869232863134766,45.083713131103515C23.863856863134767,45.10268313110352,23.859590863134766,45.11833313110351,23.856374863134764,45.13042313110351C23.854766863134767,45.13646313110352,23.853419863134764,45.141623131103515,23.852326863134767,45.145853131103514C23.851779863134766,45.14797313110351,23.851296863134767,45.149863131103515,23.850875863134764,45.15152313110352C23.850665863134765,45.15235313110352,23.850470863134767,45.15312313110351,23.850290863134767,45.15383313110352C23.850201863134764,45.15419313110352,23.850078863134765,45.15468313110352,23.850033863134765,45.15486313110352C23.849914863134767,45.15533313110352,23.849799863134766,45.155793131103515,24.819945963134767,45.39833313110351C24.819945963134767,45.39833313110351,24.819945963134767,45.39833313110351,24.819945963134767,45.39833313110351ZM29.496855963134767,42.656803131103516C30.974765963134764,42.656803131103516,31.873335963134764,43.374163131103515,32.43838596313476,44.127563131103514C32.72705596313477,44.51247313110352,32.922875963134764,44.90265313110351,33.04607596313477,45.19833313110352C33.10712596313476,45.34485313110351,33.148815963134766,45.46448313110351,33.17423596313476,45.543573131103514C33.186915963134766,45.58301313110351,33.19543596313477,45.61204313110352,33.20021596313477,45.628913131103516C33.202605963134765,45.63734313110351,33.20405596313476,45.64270313110352,33.20460596313477,45.64477313110351C33.20487596313477,45.645813131103516,33.204935963134766,45.64602313110352,33.20476596313476,45.645383131103515C33.204685963134764,45.64506313110351,33.20454596313476,45.64452313110352,33.204355963134766,45.643773131103515C33.20425596313477,45.64340313110352,33.20415596313477,45.64297313110352,33.20402596313477,45.64248313110352C33.20396596313476,45.64224313110351,33.20386596313477,45.64183313110352,33.203835963134765,45.641713131103515C33.20373596313476,45.64130313110351,33.20362596313477,45.640863131103515,34.17380596313477,45.39833313110351C35.14390596313476,45.155793131103515,35.143705963134764,45.15533313110352,35.14360596313477,45.15486313110352C35.14360596313477,45.15468313110352,35.143505963134764,45.15419313110352,35.14340596313477,45.15383313110352C35.14320596313476,45.15312313110351,35.14300596313477,45.15235313110352,35.14280596313476,45.15152313110352C35.14240596313476,45.149863131103515,35.14190596313477,45.14797313110351,35.14130596313477,45.145853131103514C35.14020596313476,45.141623131103515,35.13890596313477,45.13646313110352,35.137305963134764,45.13042313110351C35.134105963134765,45.11833313110351,35.129805963134764,45.10268313110352,35.12440596313476,45.083713131103515C35.11370596313476,45.045773131103516,35.09850596313477,44.99442313110352,35.078205963134764,44.93155313110351C35.03790596313476,44.80603313110352,34.97730596313477,44.63335313110352,34.892205963134764,44.42910313110352C34.72310596313476,44.02324313110351,34.45120596313477,43.47804313110352,34.038405963134764,42.92756313110352C33.20035596313477,41.81020313110351,31.760475963134766,40.656803131103516,29.496855963134767,40.656803131103516C29.496855963134767,40.656803131103516,29.496855963134767,42.656803131103516,29.496855963134767,42.656803131103516C29.496855963134767,42.656803131103516,29.496855963134767,42.656803131103516,29.496855963134767,42.656803131103516Z" fill="#000000" fill-opacity="1"/></g></g></g></svg>