<svg xmlns="http://www.w3.org/2000/svg" xmlns:xlink="http://www.w3.org/1999/xlink" fill="none" version="1.1" width="57.1229248046875" height="57.1229248046875" viewBox="0 0 57.1229248046875 57.1229248046875"><g><g><path d="M28.5615,56.6229Q29.2503,56.6229,29.9384,56.5891Q30.6264,56.5553,31.312,56.4878Q31.9975,56.4203,32.6789,56.3192Q33.3603,56.2181,34.036,56.0837Q34.7116,55.9493,35.3798,55.7819Q36.0481,55.6146,36.7073,55.4146Q37.3665,55.2146,38.0151,54.9826Q38.6637,54.7505,39.3001,54.4869Q39.9365,54.2232,40.5593,53.9287Q41.182,53.6342,41.7895,53.3095Q42.3971,52.9847,42.9879,52.6306Q43.5788,52.2764,44.1516,51.8937Q44.7243,51.511,45.2776,51.1006Q45.831,50.6903,46.3635,50.2533Q46.896,49.8162,47.4064,49.3536Q47.9168,48.891,48.4039,48.4039Q48.891,47.9168,49.3536,47.4064Q49.8162,46.896,50.2533,46.3635Q50.6903,45.831,51.1006,45.2776Q51.511,44.7243,51.8937,44.1516Q52.2764,43.5788,52.6306,42.9879Q52.9847,42.3971,53.3095,41.7895Q53.6342,41.182,53.9287,40.5593Q54.2232,39.9365,54.4869,39.3001Q54.7505,38.6637,54.9826,38.0151Q55.2146,37.3665,55.4146,36.7073Q55.6146,36.0481,55.782,35.3798Q55.9493,34.7116,56.0837,34.036Q56.2181,33.3603,56.3192,32.6789Q56.4203,31.9975,56.4878,31.312Q56.5553,30.6264,56.5891,29.9384Q56.6229,29.2503,56.6229,28.5615Q56.6229,27.8726,56.5891,27.1846Q56.5553,26.4965,56.4878,25.811Q56.4203,25.1254,56.3192,24.444Q56.2181,23.7626,56.0837,23.0869Q55.9493,22.4113,55.7819,21.7431Q55.6146,21.0749,55.4146,20.4156Q55.2146,19.7564,54.9826,19.1078Q54.7505,18.4592,54.4869,17.8228Q54.2232,17.1864,53.9287,16.5636Q53.6342,15.9409,53.3095,15.3334Q52.9847,14.7259,52.6306,14.135Q52.2764,13.5441,51.8937,12.9713Q51.511,12.3986,51.1006,11.8453Q50.6903,11.292,50.2533,10.7595Q49.8162,10.22695,49.3536,9.71654Q48.891,9.20612,48.4039,8.71901Q47.9168,8.23191,47.4064,7.76929Q46.896,7.30667,46.3635,6.86966Q45.831,6.43264,45.2776,6.02228Q44.7243,5.61192,44.1516,5.22921Q43.5788,4.84649,42.9879,4.49234Q42.3971,4.13819,41.7895,3.81346Q41.182,3.48873,40.5593,3.1942Q39.9365,2.89967,39.3001,2.63605Q38.6637,2.37243,38.0151,2.1403600000000003Q37.3665,1.90829,36.7073,1.70832Q36.0481,1.50835,35.3798,1.340967Q34.7116,1.173585,34.036,1.039193Q33.3603,0.904801,32.6789,0.803723Q31.9975,0.702645,31.312,0.635124Q30.6264,0.5676025,29.9384,0.5338013Q29.2503,0.5,28.5615,0.5Q27.8726,0.5,27.1846,0.5338013Q26.4965,0.5676025,25.811,0.635124Q25.1254,0.702645,24.444,0.803723Q23.7626,0.904801,23.0869,1.039193Q22.4113,1.173585,21.7431,1.340967Q21.0749,1.50835,20.4156,1.70832Q19.7564,1.90829,19.1078,2.1403600000000003Q18.4592,2.37243,17.8228,2.63605Q17.1864,2.89967,16.5636,3.1942Q15.9409,3.48873,15.3334,3.81346Q14.7259,4.13819,14.135,4.49234Q13.5441,4.84649,12.9713,5.22921Q12.3986,5.61192,11.8453,6.02228Q11.292,6.43264,10.7595,6.86966Q10.22695,7.30667,9.71654,7.76929Q9.20612,8.23191,8.71901,8.71901Q8.23191,9.20612,7.76929,9.71654Q7.30667,10.22695,6.86966,10.7595Q6.43264,11.292,6.02228,11.8453Q5.61192,12.3986,5.22921,12.9713Q4.84649,13.5441,4.49234,14.135Q4.13819,14.7259,3.81346,15.3334Q3.48873,15.9409,3.1942,16.5636Q2.89967,17.1864,2.63605,17.8228Q2.37243,18.4592,2.1403600000000003,19.1078Q1.90829,19.7564,1.70832,20.4156Q1.50835,21.0749,1.340967,21.7431Q1.173585,22.4113,1.039193,23.0869Q0.904801,23.7626,0.803723,24.444Q0.702645,25.1254,0.635124,25.811Q0.5676025,26.4965,0.5338013,27.1846Q0.5,27.8726,0.5,28.5615Q0.4999999999999988,29.6907,0.5907328000000001,30.8162Q0.681466,31.9418,0.8623449999999999,33.0564Q1.043224,34.171,1.313079,35.2675Q1.58293,36.364,1.94002,37.4353Q2.29711,38.5065,2.73912,39.5456Q3.18112,40.5847,3.7052,41.585Q4.22927,42.5852,4.83202,43.5401Q5.43476,44.495,6.11229,45.3983L4.24155,53.8168L12.0151,51.2256Q12.9088,51.8781,13.8512,52.4582Q14.7935,53.0383,15.7786,53.5424Q16.7637,54.0464,17.7855,54.4714Q18.8072,54.8963,19.8593,55.2395Q20.9113,55.5827,21.9871,55.8419Q23.0629,56.1012,24.1557,56.2749Q25.2486,56.4486,26.3517,56.5358Q27.4549,56.6229,28.5615,56.6229Z" fill-rule="evenodd" fill="#FF5700" fill-opacity="1"/><path d="M28.5615,56.1229Q33.8186,56.1229,38.7067,54.1878Q44.014,52.0867,48.0504,48.0504Q52.0867,44.0141,54.1878,38.7067Q56.1229,33.8186,56.1229,28.5615Q56.1229,23.3043,54.1878,18.4162Q52.0867,13.1089,48.0504,9.07257Q44.0141,5.03629,38.7067,2.93514Q33.8186,1,28.5615,1Q23.3043,1,18.4162,2.93514Q13.1088,5.03628,9.07257,9.07257Q5.03629,13.1089,2.93514,18.4162Q1,23.3043,1,28.5615Q1,37.7486,6.51229,45.0983L6.65027,45.2823L4.72964,53.9252L4.24155,53.8168L4.08343,53.3424L12.1016,50.6697L12.3099,50.8218Q19.571,56.123,28.5615,56.1229ZM28.5615,57.1229Q19.2449,57.1229,11.7203,51.6294L12.0151,51.2256L12.1732,51.6999L3.56189,54.5704L5.62419,45.2899L6.11229,45.3983L5.71229,45.6983Q0,38.082,0,28.5615Q0,23.1135,2.00535,18.0481Q4.18272,12.5482,8.365459999999999,8.365459999999999Q12.5482,4.182729999999999,18.0481,2.00535Q23.1136,0,28.5615,0Q34.0094,0,39.0748,2.00535Q44.5747,4.182729999999999,48.7575,8.365459999999999Q52.9402,12.5483,55.1176,18.0481Q57.1229,23.1136,57.1229,28.5615Q57.1229,34.0093,55.1176,39.0748Q52.9402,44.5747,48.7575,48.7575Q44.5747,52.9402,39.0748,55.1176Q34.0093,57.1229,28.5615,57.1229Z" fill="#000000" fill-opacity="1"/></g><g><ellipse cx="17.909614086151123" cy="28.689807415008545" rx="2.8061461448669434" ry="4.676909923553467" fill="#000000" fill-opacity="1"/></g><g><path d="M14.945353565856934,17.926337018310548C14.683381665856933,18.013661018310547,14.541801665856934,18.296821018310546,14.629125665856934,18.558793018310546C14.716449565856934,18.820765018310546,14.999609565856934,18.962345018310547,15.261581565856934,18.875025018310545C15.261581565856934,18.875025018310545,14.945353565856934,17.926337018310548,14.945353565856934,17.926337018310548C14.945353565856934,17.926337018310548,14.945353565856934,17.926337018310548,14.945353565856934,17.926337018310548ZM23.05374156585693,24.188525018310546C23.150701565856934,24.447085018310545,23.438911565856934,24.57809501831055,23.697471565856933,24.481135018310546C23.956031565856932,24.384175018310547,24.087031565856933,24.095965018310547,23.990071565856933,23.837405018310548C23.990071565856933,23.837405018310548,23.05374156585693,24.188525018310546,23.05374156585693,24.188525018310546C23.05374156585693,24.188525018310546,23.05374156585693,24.188525018310546,23.05374156585693,24.188525018310546ZM15.261581565856934,18.875025018310545C16.085641565856932,18.600334018310548,17.496981565856935,18.506591018310548,18.963131565856933,19.182165018310545C20.414601565856934,19.850985018310546,21.969601565856934,21.297495018310546,23.05374156585693,24.188525018310546C23.05374156585693,24.188525018310546,23.990071565856933,23.837405018310548,23.990071565856933,23.837405018310548C22.829301565856934,20.741995018310547,21.110461565856934,19.070575018310546,19.381631565856935,18.273953018310547C17.667491565856935,17.484102018310548,15.992061565856934,17.577435218310548,14.945353565856934,17.926337018310548C14.945353565856934,17.926337018310548,15.261581565856934,18.875025018310545,15.261581565856934,18.875025018310545C15.261581565856934,18.875025018310545,15.261581565856934,18.875025018310545,15.261581565856934,18.875025018310545Z" fill="#000000" fill-opacity="1"/></g><g transform="matrix(-1,0,0,1,85.45935821533203,0)"><path d="M43.071701107666016,18.159287228881837C42.80972920766602,18.246611228881836,42.66814920766602,18.529771228881835,42.755473207666014,18.791743228881835C42.842797107666016,19.053715228881835,43.12595710766602,19.195295228881836,43.38792910766602,19.107975228881834C43.38792910766602,19.107975228881834,43.071701107666016,18.159287228881837,43.071701107666016,18.159287228881837C43.071701107666016,18.159287228881837,43.071701107666016,18.159287228881837,43.071701107666016,18.159287228881837ZM51.180089107666014,24.421475228881835C51.277049107666016,24.680035228881835,51.565259107666016,24.811045228881838,51.82381910766601,24.714085228881835C52.082379107666014,24.617125228881836,52.213379107666015,24.328915228881836,52.11641910766602,24.070355228881837C52.11641910766602,24.070355228881837,51.180089107666014,24.421475228881835,51.180089107666014,24.421475228881835C51.180089107666014,24.421475228881835,51.180089107666014,24.421475228881835,51.180089107666014,24.421475228881835ZM43.38792910766602,19.107975228881834C44.211989107666014,18.833284228881837,45.62332910766602,18.739541228881837,47.089479107666016,19.415115228881834C48.540949107666016,20.083935228881835,50.095949107666016,21.530445228881835,51.180089107666014,24.421475228881835C51.180089107666014,24.421475228881835,52.11641910766602,24.070355228881837,52.11641910766602,24.070355228881837C50.95564910766602,20.974945228881836,49.23680910766602,19.303525228881835,47.50797910766602,18.506903228881836C45.79383910766602,17.717052228881837,44.11840910766602,17.810385428881837,43.071701107666016,18.159287228881837C43.071701107666016,18.159287228881837,43.38792910766602,19.107975228881834,43.38792910766602,19.107975228881834C43.38792910766602,19.107975228881834,43.38792910766602,19.107975228881834,43.38792910766602,19.107975228881834Z" fill="#000000" fill-opacity="1"/></g><g><ellipse cx="38.48801565170288" cy="28.689807415008545" rx="2.8061461448669434" ry="4.676909923553467" fill="#000000" fill-opacity="1"/></g><g><rect x="9.491174697875977" y="36.044517517089844" width="37.415279388427734" height="14.96611213684082" rx="1" fill="#000000" fill-opacity="1"/></g><g><path d="M12.919559430236816,45.103597517089845C13.272259430236817,45.103597517089845,13.666139430236816,44.99438751708985,13.945439430236817,44.752687517089846L14.201459430236817,45.044517517089844L14.965939430236816,45.044517517089844L14.380489430236816,44.36059751708984C14.575639430236816,44.097417517089845,14.727829430236817,43.70890751708984,14.727829430236817,43.161057517089844L14.120889430236817,43.161057517089844C14.120889430236817,43.42423751708984,14.058229430236816,43.660567517089845,13.952599430236816,43.85750751708984L13.222129430236816,43.00349751708984L13.474569430236816,42.817307517089844C13.807579430236817,42.57560751708984,14.004519430236817,42.283777517089845,14.004519430236817,41.90421751708985C14.004519430236817,41.417237517089845,13.621379430236816,40.996507517089846,12.989379430236816,40.996507517089846C12.357382430236816,40.996507517089846,11.940227430236817,41.417237517089845,11.940227430236817,41.98478751708984C11.940227430236817,42.34285751708984,12.121054430236816,42.632897517089845,12.352011430236816,42.91935751708984C11.906210430236817,43.225507517089845,11.601848430236817,43.51196751708984,11.601848430236817,43.982827517089845C11.601848430236817,44.62019751708984,12.101360430236817,45.103597517089845,12.919559430236816,45.103597517089845ZM13.560509430236817,44.31046751708985C13.370729430236816,44.448327517089844,13.154099430236815,44.52172751708984,12.941039430236817,44.52172751708984C12.548949430236817,44.52172751708984,12.294719430236816,44.26749751708984,12.294719430236816,43.95239751708984C12.294719430236816,43.812747517089846,12.400349430236817,43.60327751708984,12.665329430236817,43.408127517089845L12.729779430236816,43.36157751708984L13.560509430236817,44.31046751708985ZM12.860479430236817,42.57023751708984C12.692179430236816,42.364337517089844,12.572229430236817,42.17814751708984,12.572229430236817,41.99552751708984C12.572229430236817,41.778897517089845,12.744099430236817,41.576577517089845,13.000119430236817,41.576577517089845C13.250769430236817,41.576577517089845,13.406539430236815,41.764567517089844,13.406539430236815,41.936447517089846C13.406539430236815,42.13875751708984,13.297319430236817,42.281987517089846,13.087849430236817,42.416257517089846L12.860479430236817,42.57023751708984ZM16.672159430236817,45.545817517089844L16.992639430236817,45.545817517089844L16.992639430236817,45.101807517089846C17.852009430236816,45.04988751708984,18.346149430236817,44.58618751708984,18.347939430236817,43.921957517089844C18.346149430236817,43.229087517089845,17.773239430236817,42.912197517089844,17.17166943023682,42.77075751708984L16.992639430236817,42.725997517089844L16.992639430236817,41.61238751708984C17.339969430236817,41.65535751708984,17.561969430236815,41.846927517089846,17.595989430236816,42.14591751708984L18.29243943023682,42.14591751708984C18.279909430236817,41.506757517089845,17.76606943023682,41.04484751708984,16.992639430236817,40.994717517089846L16.992639430236817,40.545327517089845L16.672159430236817,40.545327517089845L16.672159430236817,40.998297517089846C15.923789430236816,41.06095751708985,15.381309430236817,41.513917517089844,15.383099430236816,42.170977517089845C15.383099430236816,42.74568751708984,15.791299430236815,43.07511751708984,16.450159430236816,43.24519751708984L16.672159430236817,43.300697517089844L16.672159430236817,44.47876751708984C16.294389430236816,44.437587517089845,16.015099430236816,44.235267517089845,15.990029430236817,43.86466751708984L15.277469430236817,43.86466751708984C15.304319430236816,44.61124751708984,15.832479430236816,45.05346751708984,16.672159430236817,45.101807517089846L16.672159430236817,45.545817517089844ZM16.992639430236817,44.47696751708985L16.992639430236817,43.384847517089845C17.375769430236815,43.49047751708984,17.621049430236816,43.62833751708985,17.622849430236815,43.916587517089845C17.621049430236816,44.21557751708984,17.370399430236816,44.42862751708984,16.992639430236817,44.47696751708985ZM16.672159430236817,42.64363751708984C16.385699430236816,42.55948751708984,16.113569430236815,42.416257517089846,16.117149430236815,42.126227517089845C16.118939430236814,41.86482751708984,16.32303943023682,41.664307517089846,16.672159430236817,41.61596751708984L16.672159430236817,42.64363751708984ZM19.835739430236817,43.295327517089845L20.310179430236815,43.295327517089845L20.267209430236818,42.50398751708984L20.931439430236814,42.94083751708985L21.169559430236816,42.52547751708984L20.458779430236817,42.170977517089845L21.169559430236816,41.81469751708984L20.931439430236814,41.40112751708985L20.267209430236818,41.83618751708984L20.310179430236815,41.04484751708984L19.835739430236817,41.04484751708984L19.880489430236814,41.83618751708984L19.216269430236817,41.40112751708985L18.978149430236815,41.81469751708984L19.68713943023682,42.170977517089845L18.978149430236815,42.52547751708984L19.216269430236817,42.94083751708985L19.880489430236814,42.50398751708984L19.835739430236817,43.295327517089845ZM24.052039430236817,44.29614751708984C24.052039430236817,44.759847517089845,24.349239430236814,45.15730751708985,24.898839430236816,45.15730751708985C25.444939430236815,45.15730751708985,25.743939430236814,44.759847517089845,25.743939430236814,44.29614751708984L25.743939430236814,44.08487751708984C25.743939430236814,43.61580751708984,25.453939430236815,43.223717517089845,24.898839430236816,43.223717517089845C24.358239430236814,43.223717517089845,24.052039430236817,43.61938751708984,24.052039430236817,44.08487751708984L24.052039430236817,44.29614751708984ZM22.019939430236818,42.006267517089846C22.019939430236818,42.471767517089845,22.317139430236814,42.86385751708984,22.866839430236816,42.86385751708984C23.412839430236815,42.86385751708984,23.711839430236815,42.475347517089844,23.711839430236815,42.006267517089846L23.711839430236815,41.79500751708984C23.711839430236815,41.327717517089845,23.420039430236816,40.93383751708984,22.866839430236816,40.93383751708984C22.327939430236817,40.93383751708984,22.019939430236818,41.327717517089845,22.019939430236818,41.79500751708984L22.019939430236818,42.006267517089846ZM22.240239430236816,45.044517517089844L22.730739430236817,45.044517517089844L25.480739430236817,41.04484751708984L24.990239430236816,41.04484751708984L22.240239430236816,45.044517517089844ZM24.56233943023682,44.08487751708984C24.56233943023682,43.87719751708984,24.651839430236816,43.667727517089844,24.898839430236816,43.667727517089844C25.15673943023682,43.667727517089844,25.230139430236818,43.87719751708984,25.230139430236818,44.08487751708984L25.230139430236818,44.29614751708984C25.230139430236818,44.502037517089846,25.14773943023682,44.70792751708984,24.898839430236816,44.70792751708984C24.648239430236817,44.70792751708984,24.56233943023682,44.500247517089846,24.56233943023682,44.29614751708984L24.56233943023682,44.08487751708984ZM22.533839430236817,41.79500751708984C22.533839430236817,41.590907517089846,22.619739430236816,41.37963751708985,22.866839430236816,41.37963751708985C23.12463943023682,41.37963751708985,23.19803943023682,41.589117517089846,23.19803943023682,41.79500751708984L23.19803943023682,42.006267517089846C23.19803943023682,42.21394751708984,23.117439430236814,42.41805751708984,22.866839430236816,42.41805751708984C22.617939430236817,42.41805751708984,22.533839430236817,42.21394751708984,22.533839430236817,42.006267517089846L22.533839430236817,41.79500751708984ZM28.128739430236816,45.044517517089844L28.674739430236816,45.044517517089844L28.844839430236817,44.01505751708984L29.403439430236816,44.01505751708984L29.494739430236816,43.46720751708985L28.934339430236815,43.46720751708985L29.070439430236817,42.623947517089846L29.636239430236817,42.623947517089846L29.725739430236818,42.07609751708984L29.161739430236818,42.07609751708984L29.330039430236816,41.04484751708984L28.783939430236817,41.04484751708984L28.613939430236815,42.07609751708984L27.754539430236818,42.07609751708984L27.924639430236816,41.04484751708984L27.378539430236817,41.04484751708984L27.208439430236815,42.07609751708984L26.648039430236814,42.07609751708984L26.556739430236817,42.623947517089846L27.118939430236814,42.623947517089846L26.981039430236816,43.46720751708985L26.417139430236816,43.46720751708985L26.32583943023682,44.01505751708984L26.89153943023682,44.01505751708984L26.721439430236817,45.044517517089844L27.26933943023682,45.044517517089844L27.437639430236818,44.01505751708984L28.297039430236815,44.01505751708984L28.128739430236816,45.044517517089844ZM27.528939430236818,43.46720751708985L27.665039430236817,42.623947517089846L28.524339430236818,42.623947517089846L28.388339430236815,43.46720751708985L27.528939430236818,43.46720751708985Z" fill="#FFFFFF" fill-opacity="1"/></g></g></svg>