<svg xmlns="http://www.w3.org/2000/svg" xmlns:xlink="http://www.w3.org/1999/xlink" fill="none" version="1.1" width="51.812744140625" height="48.813018798828125" viewBox="0 0 51.812744140625 48.813018798828125"><defs><mask id="master_svg0_0_1254" style="mask-type:alpha" maskUnits="userSpaceOnUse"><g><path d="M41.3392,36.78106957931519C41.7397,36.065469579315184,41.0211,35.264769579315185,40.2199,35.43926957931519C39.0834,35.68676957931518,37.9041,35.81706957931519,36.6949,35.81706957931519C27.4626,35.81706957931519,19.9783,28.222769579315184,19.9783,18.854669579315186C19.9783,13.996469579315185,21.991,9.615319579315186,25.2165,6.522949579315186C25.8008,5.962819579315186,25.549,4.937327579315186,24.7438,4.855282579315186C24.0175,4.781281479315186,23.2806,4.7433695793151855,22.5348,4.7433695793151855C10.64147,4.7433695793151855,1,14.384839579315186,1,26.278169579315186C1,38.17156957931518,10.64147,47.81306957931518,22.5348,47.81306957931518C30.6145,47.81306957931518,37.6548,43.363469579315186,41.3392,36.78106957931519C41.3392,36.78106957931519,41.3392,36.78106957931519,41.3392,36.78106957931519Z" fill-rule="evenodd" fill="#FFFFFF" fill-opacity="1"/></g></mask></defs><g><g><g><path d="M42.296,34.83656957931518Q40.9473,35.32326957931518,39.5368,35.570169579315184Q38.1262,35.81706957931519,36.6948,35.81706957931519Q36.2845,35.81706957931519,35.8746,35.796669579315186Q35.4647,35.77626957931518,35.0563,35.735469579315186Q34.6479,35.694569579315186,34.242,35.63346957931519Q33.8361,35.572369579315186,33.4336,35.491169579315184Q33.0311,35.40996957931519,32.632999999999996,35.30876957931518Q32.235,35.20756957931519,31.8423,35.086669579315185Q31.4496,34.96586957931518,31.0632,34.825569579315186Q30.6768,34.68526957931519,30.2977,34.525869579315184Q29.9186,34.36656957931518,29.5476,34.188569579315185Q29.1766,34.010469579315185,28.8147,33.814169579315184Q28.4528,33.61786957931518,28.1008,33.403869579315185Q27.7488,33.18976957931518,27.4076,32.95836957931519Q27.0664,32.727069579315184,26.7368,32.47896957931519Q26.4072,32.230969579315186,26.09,31.966769579315187Q25.7727,31.702669579315184,25.4687,31.422969579315186Q25.1646,31.143369579315184,24.8744,30.848869579315185Q24.5843,30.554469579315185,24.3087,30.245969579315187Q24.0331,29.937369579315185,23.7728,29.615469579315185Q23.5124,29.293669579315186,23.268,28.959169579315187Q23.0235,28.624669579315185,22.7955,28.278469579315185Q22.5675,27.932269579315186,22.3566,27.575069579315187Q22.1456,27.217969579315184,21.9521,26.850669579315184Q21.7587,26.483469579315187,21.5832,26.107069579315187Q21.4078,25.730569579315187,21.2507,25.345869579315185Q21.0937,24.961169579315186,20.9555,24.569169579315187Q20.8172,24.177069579315187,20.6981,23.778569579315185Q20.579,23.380069579315187,20.4792,22.976169579315187Q20.3795,22.572269579315186,20.2995,22.163869579315186Q20.2194,21.755469579315186,20.1592,21.343569579315187Q20.099,20.931669579315187,20.0588,20.517269579315183Q20.0185,20.102869579315186,19.9984,19.686969579315186Q19.9783,19.271069579315185,19.9783,18.854669579315186Q19.9783,18.357069579315187,20.007,17.860369579315186Q20.0358,17.363669579315186,20.0931,16.869569579315186Q20.1505,16.375469579315187,20.2363,15.885569579315186Q20.3222,15.395669579315186,20.4362,14.911769579315186Q20.5501,14.427829579315185,20.6919,13.951509579315186Q20.8336,13.475199579315186,21.0026,13.008129579315186Q21.1716,12.541069579315185,21.3673,12.084859579315186Q21.563,11.628649579315185,21.7847,11.184869579315185Q22.0064,10.741079579315185,22.2534,10.311239579315185Q22.5004,9.881409579315186,22.7717,9.466999579315186Q23.0431,9.052589579315185,23.338,8.655039579315186Q23.6328,8.257479579315186,23.9501,7.878149579315186Q24.2674,7.498809579315186,24.6061,7.138999579315186Q24.9447,6.779189579315186,25.3036,6.440139579315185Q25.6625,6.101089579315186,26.0403,5.783969579315185Q26.4182,5.466845579315185,26.8137,5.172741579315185Q24.6958,4.7433695793151855,22.5348,4.7433695793151855Q22.0062,4.7433695793151855,21.4782,4.769309179315186Q20.9502,4.795248879315186,20.424,4.847065579315186Q19.8979,4.898882579315186,19.375,4.976451579315185Q18.8521,5.054020579315186,18.3336,5.1571555793151855Q17.8151,5.260289579315185,17.3023,5.388741579315186Q16.7895,5.517192579315186,16.2836,5.6706515793151855Q15.7777,5.824109579315186,15.28,6.002209579315186Q14.7822,6.180309579315185,14.2938,6.382609579315186Q13.8054,6.584919579315185,13.3275,6.8109395793151855Q12.8496,7.036969579315185,12.3834,7.286179579315185Q11.9172,7.535379579315185,11.4637,7.807159579315186Q11.0103,8.078939579315186,10.57072,8.372639579315186Q10.13116,8.666349579315185,9.70654,8.981259579315186Q9.28193,9.296179579315186,8.873280000000001,9.631549579315186Q8.46463,9.966919579315185,8.07292,10.321939579315185Q7.68122,10.676959579315184,7.3074,11.050769579315187Q6.93359,11.424589579315185,6.57857,11.816289579315185Q6.22355,12.207989579315186,5.88818,12.616649579315187Q5.55281,13.025299579315185,5.23789,13.449909579315186Q4.922969999999999,13.874529579315185,4.62927,14.314089579315185Q4.335570000000001,14.753669579315186,4.06379,15.207069579315185Q3.79201,15.660569579315185,3.54281,16.126769579315187Q3.2936,16.592969579315188,3.06757,17.070869579315186Q2.84155,17.548769579315184,2.63924,18.037169579315183Q2.43694,18.525569579315185,2.25884,19.023369579315187Q2.08074,19.521069579315185,1.927282,20.026969579315185Q1.7738230000000001,20.532869579315186,1.645372,21.045669579315184Q1.51692,21.558469579315187,1.413786,22.076969579315186Q1.310651,22.595469579315186,1.233082,23.118369579315186Q1.155513,23.641269579315185,1.103696,24.167369579315185Q1.0518793,24.693569579315184,1.0259396,25.221569579315187Q1,25.749569579315185,1,26.278169579315186Q1,26.806869579315187,1.0259396,27.334869579315185Q1.0518793,27.862869579315184,1.103696,28.388969579315187Q1.155513,28.915069579315187,1.233082,29.437969579315187Q1.310651,29.960969579315186,1.413786,30.479469579315186Q1.51692,30.997969579315185,1.645372,31.510769579315184Q1.7738230000000001,32.023569579315186,1.927282,32.52946957931519Q2.08074,33.035269579315184,2.25884,33.53306957931518Q2.43694,34.03076957931519,2.63924,34.51916957931519Q2.84155,35.007669579315184,3.06757,35.48556957931518Q3.2936,35.963369579315184,3.54281,36.42966957931519Q3.79201,36.89586957931519,4.06379,37.349269579315184Q4.335570000000001,37.80276957931518,4.62927,38.242269579315185Q4.92298,38.68186957931518,5.23789,39.10646957931519Q5.55281,39.53106957931519,5.88818,39.93976957931518Q6.22355,40.34836957931518,6.57857,40.74006957931518Q6.93359,41.13176957931518,7.3074,41.505569579315186Q7.68122,41.879469579315185,8.07292,42.23446957931519Q8.46462,42.589469579315185,8.873280000000001,42.924869579315185Q9.28193,43.26016957931519,9.70654,43.57516957931519Q10.13116,43.89006957931519,10.57072,44.18376957931518Q11.0103,44.47746957931518,11.4637,44.74926957931518Q11.9172,45.020969579315185,12.3834,45.27026957931518Q12.8496,45.519469579315185,13.3275,45.745469579315184Q13.8054,45.97146957931518,14.2938,46.173769579315184Q14.7822,46.376069579315185,15.28,46.554169579315186Q15.7777,46.73226957931519,16.2836,46.88576957931519Q16.7895,47.039169579315185,17.3023,47.16766957931519Q17.8151,47.29606957931519,18.3336,47.39926957931519Q18.8521,47.502369579315186,19.375,47.57996957931518Q19.8979,47.65746957931518,20.424,47.70936957931519Q20.9502,47.76116957931519,21.4782,47.78706957931519Q22.0062,47.81306957931518,22.5348,47.81306957931518Q22.9259,47.81306957931518,23.3167,47.79886957931519Q23.7075,47.784669579315185,24.0975,47.75626957931519Q24.4876,47.72786957931518,24.8763,47.685369579315186Q25.2651,47.64286957931519,25.652,47.586269579315186Q26.039,47.529569579315186,26.4236,47.45896957931519Q26.8082,47.38836957931519,27.1901,47.30386957931518Q27.5719,47.21926957931519,27.9504,47.12096957931519Q28.3289,47.02256957931519,28.7035,46.91056957931519Q29.0782,46.798569579315185,29.4486,46.672969579315186Q29.819,46.547469579315184,30.1845,46.408569579315184Q30.5501,46.269669579315185,30.9103,46.11756957931519Q31.2706,45.96546957931518,31.6251,45.80036957931519Q31.9797,45.635269579315185,32.3279,45.45746957931519Q32.6762,45.279569579315186,33.0178,45.089269579315186Q33.3594,44.89886957931519,33.6939,44.696269579315185Q34.0284,44.493569579315185,34.3553,44.27896957931519Q34.6821,44.06426957931519,35.001,43.83786957931518Q35.3199,43.611469579315184,35.6304,43.373669579315184Q35.9408,43.135869579315184,36.2424,42.886969579315185Q36.544,42.638069579315186,36.8364,42.378369579315184Q37.1288,42.118569579315185,37.4115,41.848469579315186Q37.6943,41.57826957931518,37.967,41.29806957931518Q38.2398,41.017769579315186,38.5022,40.72786957931518Q38.7646,40.43786957931518,39.0163,40.13856957931519Q39.268,39.839269579315186,39.5086,39.53106957931519Q39.7493,39.222769579315184,39.9786,38.90606957931519Q40.2079,38.589269579315186,40.4256,38.264369579315186Q40.6433,37.93946957931519,40.849,37.60686957931519Q41.0547,37.274369579315184,41.2482,36.934469579315184Q41.4418,36.59466957931518,41.6228,36.248069579315185Q41.8039,35.90136957931519,41.9722,35.54846957931518Q42.1405,35.19546957931519,42.296,34.83656957931518Z" fill-rule="evenodd" fill="#FFEF32" fill-opacity="1"/><path d="M44.1333,33.110469579315186L41.9565,33.895969579315185Q39.4038,34.81706957931519,36.6948,34.81706957931519Q30.1891,34.81706957931519,25.5867,30.146969579315186Q20.9783,25.470769579315185,20.9783,18.854669579315186Q20.9783,10.758189579315186,27.4104,5.975199579315186L29.2087,4.637956579315185L27.0124,4.192680579315185Q24.7961,3.7433695793151855,22.5348,3.7433695793151855Q13.2006,3.7433695793151855,6.6003,10.343669579315186Q0,16.943969579315187,0,26.278169579315186Q0,35.612369579315185,6.6003,42.212769579315186Q13.2006,48.81296957931519,22.5348,48.81306957931518Q29.2723,48.81296957931519,34.9042,45.11476957931519Q40.536,41.41656957931519,43.2136,35.233969579315186L44.1333,33.110469579315186ZM42.296,34.83656957931518Q41.6618,35.065469579315184,41.0115,35.24176957931519Q38.8904,35.81706957931519,36.6948,35.81706957931519Q36.2845,35.81706957931519,35.8746,35.796669579315186Q35.4647,35.77626957931518,35.0563,35.735469579315186Q34.6479,35.694569579315186,34.242,35.63346957931519Q33.8361,35.572369579315186,33.4336,35.491169579315184Q33.0311,35.40996957931519,32.632999999999996,35.30876957931518Q32.235,35.20756957931519,31.8423,35.086669579315185Q31.4496,34.96586957931518,31.0632,34.825569579315186Q30.6768,34.68526957931519,30.2977,34.525869579315184Q29.9186,34.36656957931518,29.5476,34.188569579315185Q29.1766,34.010469579315185,28.8147,33.814169579315184Q28.4528,33.61786957931518,28.1008,33.403869579315185Q27.7488,33.18976957931518,27.4076,32.95836957931519Q27.0664,32.727069579315184,26.7368,32.47896957931519Q26.4072,32.230969579315186,26.09,31.966769579315187Q25.7727,31.702669579315184,25.4687,31.422969579315186Q25.1646,31.143369579315184,24.8744,30.848869579315185Q24.5843,30.554469579315185,24.3087,30.245969579315187Q24.0331,29.937369579315185,23.7728,29.615469579315185Q23.5124,29.293669579315186,23.268,28.959169579315187Q23.0235,28.624669579315185,22.7955,28.278469579315185Q22.5675,27.932269579315186,22.3566,27.575069579315187Q22.1456,27.217969579315184,21.9521,26.850669579315184Q21.7587,26.483469579315187,21.5832,26.107069579315187Q21.4078,25.730569579315187,21.2507,25.345869579315185Q21.0937,24.961169579315186,20.9555,24.569169579315187Q20.8172,24.177069579315187,20.6981,23.778569579315185Q20.579,23.380069579315187,20.4792,22.976169579315187Q20.3795,22.572269579315186,20.2995,22.163869579315186Q20.2194,21.755469579315186,20.1592,21.343569579315187Q20.099,20.931669579315187,20.0588,20.517269579315183Q20.0185,20.102869579315186,19.9984,19.686969579315186Q19.9783,19.271069579315185,19.9783,18.854669579315186Q19.9783,18.398769579315186,20.0024,17.943569579315188Q20.0265,17.488369579315183,20.0747,17.035169579315188Q20.1229,16.581869579315185,20.195,16.131969579315186Q20.2671,15.682069579315186,20.3629,15.236669579315185Q20.4588,14.791269579315186,20.578,14.351779579315185Q20.6973,13.912269579315186,20.8396,13.479899579315186Q20.982,13.047529579315185,21.147,12.623549579315185Q21.312,12.199559579315185,21.4993,11.785179579315185Q21.6865,11.370789579315186,21.8954,10.967219579315184Q22.1043,10.563639579315186,22.3343,10.172019579315187Q22.5642,9.780409579315187,22.8146,9.401899579315184Q23.0649,9.023389579315186,23.335,8.659059579315185Q23.605,8.294739579315186,23.8939,7.945659579315185Q24.1829,7.596579579315185,24.4898,7.263749579315185Q24.7968,6.930919579315185,25.121,6.615309579315186Q25.4451,6.299689579315185,25.7855,6.002189579315186Q26.2835,5.5669575793151855,26.8137,5.172741579315185Q26.1491,5.038003579315186,25.4773,4.945346579315186Q24.013,4.7433695793151855,22.5348,4.7433695793151855Q22.0062,4.7433695793151855,21.4782,4.769309179315186Q20.9502,4.795248879315186,20.424,4.847065579315186Q19.8979,4.898882579315186,19.375,4.976451579315185Q18.8521,5.054020579315186,18.3336,5.1571555793151855Q17.8151,5.260289579315185,17.3023,5.388741579315186Q16.7895,5.517192579315186,16.2836,5.6706515793151855Q15.7777,5.824109579315186,15.28,6.002209579315186Q14.7822,6.180309579315185,14.2938,6.382609579315186Q13.8054,6.584919579315185,13.3275,6.8109395793151855Q12.8496,7.036969579315185,12.3834,7.286179579315185Q11.9172,7.535379579315185,11.4637,7.807159579315186Q11.0103,8.078939579315186,10.57072,8.372639579315186Q10.13116,8.666349579315185,9.70654,8.981259579315186Q9.28193,9.296179579315186,8.873280000000001,9.631549579315186Q8.46463,9.966919579315185,8.07292,10.321939579315185Q7.68122,10.676959579315184,7.3074,11.050769579315187Q6.93359,11.424589579315185,6.57857,11.816289579315185Q6.22355,12.207989579315186,5.88818,12.616649579315187Q5.55281,13.025299579315185,5.23789,13.449909579315186Q4.922969999999999,13.874529579315185,4.62927,14.314089579315185Q4.335570000000001,14.753669579315186,4.06379,15.207069579315185Q3.79201,15.660569579315185,3.54281,16.126769579315187Q3.2936,16.592969579315188,3.06757,17.070869579315186Q2.84155,17.548769579315184,2.63924,18.037169579315183Q2.43694,18.525569579315185,2.25884,19.023369579315187Q2.08074,19.521069579315185,1.927282,20.026969579315185Q1.7738230000000001,20.532869579315186,1.645372,21.045669579315184Q1.51692,21.558469579315187,1.413786,22.076969579315186Q1.310651,22.595469579315186,1.233082,23.118369579315186Q1.155513,23.641269579315185,1.103696,24.167369579315185Q1.0518793,24.693569579315184,1.0259396,25.221569579315187Q1,25.749569579315185,1,26.278169579315186Q1,26.806869579315187,1.0259396,27.334869579315185Q1.0518793,27.862869579315184,1.103696,28.388969579315187Q1.155513,28.915069579315187,1.233082,29.437969579315187Q1.310651,29.960969579315186,1.413786,30.479469579315186Q1.51692,30.997969579315185,1.645372,31.510769579315184Q1.7738230000000001,32.023569579315186,1.927282,32.52946957931519Q2.08074,33.035269579315184,2.25884,33.53306957931518Q2.43694,34.03076957931519,2.63924,34.51916957931519Q2.84155,35.007669579315184,3.06757,35.48556957931518Q3.2936,35.963369579315184,3.54281,36.42966957931519Q3.79201,36.89586957931519,4.06379,37.349269579315184Q4.335570000000001,37.80276957931518,4.62927,38.242269579315185Q4.92298,38.68186957931518,5.23789,39.10646957931519Q5.55281,39.53106957931519,5.88818,39.93976957931518Q6.22355,40.34836957931518,6.57857,40.74006957931518Q6.93359,41.13176957931518,7.3074,41.505569579315186Q7.68122,41.879469579315185,8.07292,42.23446957931519Q8.46462,42.589469579315185,8.873280000000001,42.924869579315185Q9.28193,43.26016957931519,9.70654,43.57516957931519Q10.13116,43.89006957931519,10.57072,44.18376957931518Q11.0103,44.47746957931518,11.4637,44.74926957931518Q11.9172,45.020969579315185,12.3834,45.27026957931518Q12.8496,45.519469579315185,13.3275,45.745469579315184Q13.8054,45.97146957931518,14.2938,46.173769579315184Q14.7822,46.376069579315185,15.28,46.554169579315186Q15.7777,46.73226957931519,16.2836,46.88576957931519Q16.7895,47.039169579315185,17.3023,47.16766957931519Q17.8151,47.29606957931519,18.3336,47.39926957931519Q18.8521,47.502369579315186,19.375,47.57996957931518Q19.8979,47.65746957931518,20.424,47.70936957931519Q20.9502,47.76116957931519,21.4782,47.78706957931519Q22.0062,47.81306957931518,22.5348,47.81306957931518Q22.9043,47.81306957931518,23.2736,47.80036957931519Q23.6429,47.787669579315185,24.0116,47.762369579315184Q24.3802,47.736969579315186,24.7478,47.699069579315186Q25.1153,47.66106957931519,25.4814,47.610469579315186Q25.8474,47.55996957931519,26.2115,47.49686957931519Q26.5756,47.43376957931518,26.9373,47.35816957931519Q27.299,47.28266957931518,27.6579,47.194769579315185Q28.0168,47.10686957931519,28.3725,47.00666957931519Q28.7281,46.90656957931519,29.0802,46.794269579315184Q29.4322,46.68186957931518,29.7802,46.557569579315185Q30.1281,46.43326957931519,30.4716,46.297069579315185Q30.8151,46.16086957931518,31.1538,46.01296957931518Q31.4924,45.86506957931518,31.8257,45.705669579315185Q32.159099999999995,45.54626957931519,32.4868,45.37546957931519Q32.814499999999995,45.20476957931518,33.1361,45.022869579315184Q33.4577,44.840969579315185,33.7729,44.648069579315184Q34.0881,44.455269579315186,34.3965,44.25176957931519Q34.7049,44.048169579315186,35.0062,43.83426957931518Q35.3074,43.620269579315185,35.6011,43.39606957931519Q35.8949,43.171869579315185,36.1807,42.937669579315184Q36.4666,42.703569579315186,36.7442,42.45966957931518Q37.0219,42.21586957931518,37.291,41.96266957931518Q37.5601,41.70946957931518,37.8204,41.44716957931519Q38.0807,41.18496957931519,38.3318,40.91386957931518Q38.583,40.64286957931519,38.8247,40.36326957931519Q39.0663,40.08376957931519,39.2983,39.79616957931518Q39.5302,39.50846957931518,39.7522,39.21306957931519Q39.9741,38.91766957931519,40.1858,38.61476957931519Q40.3975,38.31196957931519,40.5987,38.00196957931519Q40.7998,37.691969579315185,40.9902,37.37536957931518Q41.1807,37.058669579315186,41.3601,36.735669579315186Q41.5395,36.412669579315185,41.7078,36.083669579315185Q42.0218,35.469569579315184,42.296,34.83656957931518Z" fill-rule="evenodd" fill="#000000" fill-opacity="1"/></g><g mask="url(#master_svg0_0_1254)"><g><path d="M44.00523151054382,39.30799490680695C37.97283151054382,41.59299490680694,23.220731510543825,44.225294906806944,12.472031510543824,36.47459490680694C1.921321510543823,28.866694906806945,5.537191510543823,13.297544906806946,8.814631510543823,6.070594906806946C4.1537615105438235,11.513384906806944,-1.7858784894561768,18.651594906806945,-0.5972434894561768,29.802394906806946C0.5913915105438232,40.95319490680694,12.838531510543824,50.824394906806944,24.354931510543825,49.45339490680695C35.87143151054382,48.08239490680695,42.26863151054382,43.177194906806946,44.00523151054382,39.30799490680695C44.00523151054382,39.30799490680695,44.00523151054382,39.30799490680695,44.00523151054382,39.30799490680695Z" fill="#F5CF1E" fill-opacity="1"/></g></g></g><g><path d="M42.13182470947265,0.5790507C42.15440470947266,0.4736497,42.304804709472656,0.4736497,42.32738470947265,0.5790507C42.32738470947265,0.5790507,43.054444709472655,3.97272,43.054444709472655,3.97272C43.06564470947266,4.02497,43.09728470947265,4.07057,43.142304709472654,4.09934C43.142304709472654,4.09934,45.08465470947266,5.34072,45.08465470947266,5.34072C45.207714709472654,5.41937,45.207714709472654,5.59912,45.08465470947266,5.67776C45.08465470947266,5.67776,43.142304709472654,6.91914,43.142304709472654,6.91914C43.09728470947265,6.94792,43.06564470947266,6.99352,43.054444709472655,7.04577C43.054444709472655,7.04577,42.32738470947265,10.43945,42.32738470947265,10.43945C42.304804709472656,10.5448,42.15440470947266,10.5448,42.13182470947265,10.43945C42.13182470947265,10.43945,41.404754709472655,7.04577,41.404754709472655,7.04577C41.393564709472656,6.99352,41.36192470947265,6.94792,41.316894709472656,6.91914C41.316894709472656,6.91914,39.374559709472656,5.67776,39.374559709472656,5.67776C39.251499709472654,5.59912,39.251499709472654,5.41937,39.374559709472656,5.34072C39.374559709472656,5.34072,41.316894709472656,4.09934,41.316894709472656,4.09934C41.36192470947265,4.07057,41.393564709472656,4.02497,41.404754709472655,3.97272C41.404754709472655,3.97272,42.13182470947265,0.5790507,42.13182470947265,0.5790507C42.13182470947265,0.5790507,42.13182470947265,0.5790507,42.13182470947265,0.5790507Z" fill="#FFEF32" fill-opacity="1"/><path d="M38.782264709472656,5.50924Q38.782264709472656,5.89263,39.105296709472654,6.09906L40.942094709472656,7.27298L41.64292470947266,10.5442Q41.74453470947266,11.0185,42.22960470947265,11.0185Q42.71468470947266,11.0185,42.81629470947266,10.5442L43.51711470947266,7.27299L45.353894709472655,6.09908Q45.67695470947265,5.89263,45.67695470947265,5.50924Q45.67695470947265,5.12587,45.35392470947266,4.91941L43.51711470947266,3.74548L42.81629470947266,0.4743131Q42.71468470947266,0,42.22960470947265,0Q41.74453470947266,0,41.64292470947266,0.474306L40.942094709472656,3.74548L39.105296709472654,4.91941Q38.782264709472656,5.12587,38.782264709472656,5.50924ZM42.410614709472654,0.9675279999999999L42.32738470947265,0.5790507C42.304804709472656,0.4736497,42.15440470947266,0.4736497,42.13182470947265,0.5790507L42.048604709472656,0.9675279999999999L41.97393470947266,1.316036L41.404754709472655,3.97272C41.393564709472656,4.02497,41.36192470947265,4.07057,41.316894709472656,4.09934L39.374559709472656,5.34072C39.251499709472654,5.41937,39.251499709472654,5.59912,39.374559709472656,5.67776L41.316894709472656,6.91914C41.36192470947265,6.94792,41.393564709472656,6.99352,41.404754709472655,7.04577L41.97393470947266,9.70246L42.048604709472656,10.05097L42.13182470947265,10.43945C42.15440470947266,10.5448,42.304804709472656,10.5448,42.32738470947265,10.43945L42.410614709472654,10.05097L42.48528470947266,9.70246L43.054444709472655,7.04577C43.06564470947266,6.99352,43.09728470947265,6.94792,43.142304709472654,6.91914L45.08465470947266,5.67776C45.207714709472654,5.59912,45.207714709472654,5.41937,45.08465470947266,5.34072L43.142304709472654,4.09934C43.09728470947265,4.07057,43.06564470947266,4.02497,43.054444709472655,3.97272L42.48528470947266,1.316036L42.410614709472654,0.9675279999999999Z" fill-rule="evenodd" fill="#000000" fill-opacity="1"/></g><g><path d="M49.039448586425785,23.255221949121093C49.06202858642578,23.149819949121095,49.21242858642578,23.149819949121095,49.23500858642578,23.255220949121092C49.23500858642578,23.255220949121092,49.753608586425784,25.675840349121096,49.753608586425784,25.675840349121096C49.76480858642578,25.728090349121093,49.79643858642578,25.773690349121093,49.84146858642578,25.802460349121095C49.84146858642578,25.802460349121095,51.22043858642578,26.683780349121093,51.22043858642578,26.683780349121093C51.34349858642578,26.762430349121093,51.34349858642578,26.942170349121092,51.22043858642578,27.020820349121095C51.22043858642578,27.020820349121095,49.84146858642578,27.902140349121094,49.84146858642578,27.902140349121094C49.79643858642578,27.930920349121095,49.76480858642578,27.976510349121092,49.753608586425784,28.028760349121093C49.753608586425784,28.028760349121093,49.23500858642578,30.449380349121093,49.23500858642578,30.449380349121093C49.21242858642578,30.554780349121096,49.06202858642578,30.554780349121096,49.039448586425785,30.449380349121093C49.039448586425785,30.449380349121093,48.52085858642578,28.028760349121093,48.52085858642578,28.028760349121093C48.50965858642578,27.976510349121092,48.47801858642578,27.930920349121095,48.43299858642578,27.902140349121094C48.43299858642578,27.902140349121094,47.05403358642578,27.020820349121095,47.05403358642578,27.020820349121095C46.93097358642578,26.942170349121092,46.93097358642578,26.762430349121093,47.05403358642578,26.683780349121093C47.05403358642578,26.683780349121093,48.43299858642578,25.802460349121095,48.43299858642578,25.802460349121095C48.47801858642578,25.773690349121093,48.50965858642578,25.728090349121093,48.52085858642578,25.675840349121096C48.52085858642578,25.675840349121096,49.039448586425785,23.255221949121093,49.039448586425785,23.255221949121093C49.039448586425785,23.255221949121093,49.039448586425785,23.255221949121093,49.039448586425785,23.255221949121093Z" fill="#FFEF32" fill-opacity="1"/><path d="M46.46173858642578,26.852300349121094Q46.46173858642578,27.235660349121094,46.784771586425784,27.442120349121094L48.05819858642578,28.25599034912109L48.55054858642578,30.554110349121093Q48.59792858642578,30.775310349121092,48.77702858642578,30.909170349121094Q48.93659858642578,31.028430349121095,49.13722858642578,31.028430349121095Q49.337868586425785,31.028430349121095,49.49743858642578,30.909170349121094Q49.67652858642578,30.775310349121092,49.72391858642578,30.554120349121092L50.21627858642578,28.25599034912109L51.48970858642578,27.442120349121094Q51.81273858642578,27.235660349121094,51.81273858642578,26.852300349121094Q51.81273858642578,26.468930349121095,51.48970858642578,26.262470349121095L50.21627858642578,25.448600349121094L49.72391858642578,23.150482949121095Q49.67652858642578,22.929286349121092,49.49743858642578,22.795432349121093Q49.337868586425785,22.676169349121093,49.13722858642578,22.676170349121094Q48.93659858642578,22.676171349121095,48.77702858642578,22.795434349121095Q48.59792858642578,22.929289349121095,48.55054858642578,23.150479249121094L48.05819858642578,25.448600349121094L46.78477058642578,26.262470349121095Q46.46173858642578,26.468930349121095,46.46173858642578,26.852300349121094ZM49.23500858642578,23.255220949121092C49.21242858642578,23.149819949121095,49.06202858642578,23.149819949121095,49.039448586425785,23.255221949121093L48.95622858642578,23.643699349121093L48.88155858642578,23.992210349121095L48.52085858642578,25.675840349121096C48.50965858642578,25.728090349121093,48.47801858642578,25.773690349121093,48.43299858642578,25.802460349121095L47.05403358642578,26.683780349121093C46.93097358642578,26.762430349121093,46.93097358642578,26.942170349121092,47.05403358642578,27.020820349121095L48.43299858642578,27.902140349121094C48.47801858642578,27.930920349121095,48.50965858642578,27.976510349121092,48.52085858642578,28.028760349121093L48.88155858642578,29.712390349121094L48.95622858642578,30.060900349121095L49.039448586425785,30.449380349121093C49.06202858642578,30.554780349121096,49.21242858642578,30.554780349121096,49.23500858642578,30.449380349121093L49.31823858642578,30.060900349121095L49.39290858642578,29.712390349121094L49.753608586425784,28.028760349121093C49.76480858642578,27.976510349121092,49.79643858642578,27.930920349121095,49.84146858642578,27.902140349121094L51.22043858642578,27.020820349121095C51.34349858642578,26.942170349121092,51.34349858642578,26.762430349121093,51.22043858642578,26.683780349121093L49.84146858642578,25.802460349121095C49.79643858642578,25.773690349121093,49.76480858642578,25.728090349121093,49.753608586425784,25.675840349121096L49.39290858642578,23.992209349121094L49.31823858642578,23.643698349121095L49.23500858642578,23.255220949121092Z" fill-rule="evenodd" fill="#000000" fill-opacity="1"/></g><g><path d="M32.9095952734375,14.813945452502441C32.9321752734375,14.70854445250244,33.0825752734375,14.70854445250244,33.105155273437504,14.813945452502441C33.105155273437504,14.813945452502441,33.9219252734375,18.62632475250244,33.9219252734375,18.62632475250244C33.9331252734375,18.678574752502442,33.9647552734375,18.724174752502442,34.0097852734375,18.75295475250244C34.0097852734375,18.75295475250244,36.1945552734375,20.14926475250244,36.1945552734375,20.14926475250244C36.3176152734375,20.227914752502443,36.3176152734375,20.40766475250244,36.1945552734375,20.48631475250244C36.1945552734375,20.48631475250244,34.0097852734375,21.88262475250244,34.0097852734375,21.88262475250244C33.9647552734375,21.911404752502442,33.9331252734375,21.956994752502442,33.9219252734375,22.00924475250244C33.9219252734375,22.00924475250244,33.105155273437504,25.821594752502442,33.105155273437504,25.821594752502442C33.0825752734375,25.92699475250244,32.9321752734375,25.92699475250244,32.9095952734375,25.821594752502442C32.9095952734375,25.821594752502442,32.0928252734375,22.00924475250244,32.0928252734375,22.00924475250244C32.0816252734375,21.956994752502442,32.0499952734375,21.911404752502442,32.0049652734375,21.88262475250244C32.0049652734375,21.88262475250244,29.8202011734375,20.48631475250244,29.8202011734375,20.48631475250244C29.6971401734375,20.40766475250244,29.6971401734375,20.227914752502443,29.8202001734375,20.14926475250244C29.8202001734375,20.14926475250244,32.0049652734375,18.75295475250244,32.0049652734375,18.75295475250244C32.0499952734375,18.724174752502442,32.0816252734375,18.678574752502442,32.0928252734375,18.62632475250244C32.0928252734375,18.62632475250244,32.9095952734375,14.813945452502441,32.9095952734375,14.813945452502441C32.9095952734375,14.813945452502441,32.9095952734375,14.813945452502441,32.9095952734375,14.813945452502441Z" fill="#FFEF32" fill-opacity="1"/><path d="M29.2279052734375,20.31778475250244Q29.2279062734375,20.701164752502443,29.5509402734375,20.90761475250244L31.6301652734375,22.236474752502442L32.4206952734375,25.92639475250244Q32.5223052734375,26.400694752502442,33.0073752734375,26.400694752502442Q33.4924552734375,26.400694752502442,33.5940652734375,25.92639475250244L34.3845952734375,22.236474752502442L36.4638252734375,20.90761475250244Q36.7868552734375,20.70115475250244,36.7868552734375,20.31778475250244Q36.7868552734375,19.93441475250244,36.4638152734375,19.72795475250244L34.3845952734375,18.399104752502442L33.5940652734375,14.709208752502441Q33.4924552734375,14.234894752502441,33.0073752734375,14.234894752502441Q32.5223052734375,14.234894752502441,32.4206952734375,14.709201552502442L31.6301652734375,18.399104752502442L29.5509362734375,19.72795475250244Q29.2279042734375,19.93441475250244,29.2279052734375,20.31778475250244ZM33.1883852734375,15.202422752502441L33.105155273437504,14.813945452502441C33.0825752734375,14.70854445250244,32.9321752734375,14.70854445250244,32.9095952734375,14.813945452502441L32.8263752734375,15.202422752502441L32.7517052734375,15.550931752502441L32.0928252734375,18.62632475250244C32.0816252734375,18.678574752502442,32.0499952734375,18.724174752502442,32.0049652734375,18.75295475250244L29.8202001734375,20.14926475250244C29.6971401734375,20.227914752502443,29.6971401734375,20.40766475250244,29.8202011734375,20.48631475250244L32.0049652734375,21.88262475250244C32.0499952734375,21.911404752502442,32.0816252734375,21.956994752502442,32.0928252734375,22.00924475250244L32.7517052734375,25.084694752502443L32.8263752734375,25.43319475250244L32.9095952734375,25.821594752502442C32.9321752734375,25.92699475250244,33.0825752734375,25.92699475250244,33.105155273437504,25.821594752502442L33.1883852734375,25.43319475250244L33.2630552734375,25.084694752502443L33.9219252734375,22.00924475250244C33.9331252734375,21.956994752502442,33.9647552734375,21.911404752502442,34.0097852734375,21.88262475250244L36.1945552734375,20.48631475250244C36.3176152734375,20.40766475250244,36.3176152734375,20.227914752502443,36.1945552734375,20.14926475250244L34.0097852734375,18.75295475250244C33.9647552734375,18.724174752502442,33.9331252734375,18.678574752502442,33.9219252734375,18.62632475250244L33.1883852734375,15.202422752502441Z" fill-rule="evenodd" fill="#000000" fill-opacity="1"/></g></g></svg>