<svg xmlns="http://www.w3.org/2000/svg" xmlns:xlink="http://www.w3.org/1999/xlink" fill="none" version="1.1" width="57.1229248046875" height="57.1229248046875" viewBox="0 0 57.1229248046875 57.1229248046875"><g><g><path d="M28.5615,56.6229Q29.2503,56.6229,29.9384,56.5891Q30.6264,56.5553,31.312,56.4878Q31.9975,56.4203,32.6789,56.3192Q33.3603,56.2181,34.036,56.0837Q34.7116,55.9493,35.3798,55.7819Q36.0481,55.6146,36.7073,55.4146Q37.3665,55.2146,38.0151,54.9826Q38.6637,54.7505,39.3001,54.4869Q39.9365,54.2232,40.5593,53.9287Q41.182,53.6342,41.7895,53.3095Q42.3971,52.9847,42.9879,52.6306Q43.5788,52.2764,44.1516,51.8937Q44.7243,51.511,45.2776,51.1006Q45.831,50.6903,46.3635,50.2533Q46.896,49.8162,47.4064,49.3536Q47.9168,48.891,48.4039,48.4039Q48.891,47.9168,49.3536,47.4064Q49.8162,46.896,50.2533,46.3635Q50.6903,45.831,51.1006,45.2776Q51.511,44.7243,51.8937,44.1516Q52.2764,43.5788,52.6306,42.9879Q52.9847,42.3971,53.3095,41.7895Q53.6342,41.182,53.9287,40.5593Q54.2232,39.9365,54.4869,39.3001Q54.7505,38.6637,54.9826,38.0151Q55.2146,37.3665,55.4146,36.7073Q55.6146,36.0481,55.782,35.3798Q55.9493,34.7116,56.0837,34.036Q56.2181,33.3603,56.3192,32.6789Q56.4203,31.9975,56.4878,31.312Q56.5553,30.6264,56.5891,29.9384Q56.6229,29.2503,56.6229,28.5615Q56.6229,27.8726,56.5891,27.1846Q56.5553,26.4965,56.4878,25.811Q56.4203,25.1254,56.3192,24.444Q56.2181,23.7626,56.0837,23.0869Q55.9493,22.4113,55.7819,21.7431Q55.6146,21.0749,55.4146,20.4156Q55.2146,19.7564,54.9826,19.1078Q54.7505,18.4592,54.4869,17.8228Q54.2232,17.1864,53.9287,16.5636Q53.6342,15.9409,53.3095,15.3334Q52.9847,14.7259,52.6306,14.135Q52.2764,13.5441,51.8937,12.9713Q51.511,12.3986,51.1006,11.8453Q50.6903,11.292,50.2533,10.7595Q49.8162,10.22695,49.3536,9.71654Q48.891,9.20612,48.4039,8.71901Q47.9168,8.23191,47.4064,7.76929Q46.896,7.30667,46.3635,6.86966Q45.831,6.43264,45.2776,6.02228Q44.7243,5.61192,44.1516,5.22921Q43.5788,4.84649,42.9879,4.49234Q42.3971,4.13819,41.7895,3.81346Q41.182,3.48873,40.5593,3.1942Q39.9365,2.89967,39.3001,2.63605Q38.6637,2.37243,38.0151,2.1403600000000003Q37.3665,1.90829,36.7073,1.70832Q36.0481,1.50835,35.3798,1.340967Q34.7116,1.173585,34.036,1.039193Q33.3603,0.904801,32.6789,0.803723Q31.9975,0.702645,31.312,0.635124Q30.6264,0.5676025,29.9384,0.5338013Q29.2503,0.5,28.5615,0.5Q27.8726,0.5,27.1846,0.5338013Q26.4965,0.5676025,25.811,0.635124Q25.1254,0.702645,24.444,0.803723Q23.7626,0.904801,23.0869,1.039193Q22.4113,1.173585,21.7431,1.340967Q21.0749,1.50835,20.4156,1.70832Q19.7564,1.90829,19.1078,2.1403600000000003Q18.4592,2.37243,17.8228,2.63605Q17.1864,2.89967,16.5636,3.1942Q15.9409,3.48873,15.3334,3.81346Q14.7259,4.13819,14.135,4.49234Q13.5441,4.84649,12.9713,5.22921Q12.3986,5.61192,11.8453,6.02228Q11.292,6.43264,10.7595,6.86966Q10.22695,7.30667,9.71654,7.76929Q9.20612,8.23191,8.71901,8.71901Q8.23191,9.20612,7.76929,9.71654Q7.30667,10.22695,6.86966,10.7595Q6.43264,11.292,6.02228,11.8453Q5.61192,12.3986,5.22921,12.9713Q4.84649,13.5441,4.49234,14.135Q4.13819,14.7259,3.81346,15.3334Q3.48873,15.9409,3.1942,16.5636Q2.89967,17.1864,2.63605,17.8228Q2.37243,18.4592,2.1403600000000003,19.1078Q1.90829,19.7564,1.70832,20.4156Q1.50835,21.0749,1.340967,21.7431Q1.173585,22.4113,1.039193,23.0869Q0.904801,23.7626,0.803723,24.444Q0.702645,25.1254,0.635124,25.811Q0.5676025,26.4965,0.5338013,27.1846Q0.5,27.8726,0.5,28.5615Q0.4999999999999988,29.6907,0.5907328000000001,30.8162Q0.681466,31.9418,0.8623449999999999,33.0564Q1.043224,34.171,1.313079,35.2675Q1.58293,36.364,1.94002,37.4353Q2.29711,38.5065,2.73912,39.5456Q3.18112,40.5847,3.7052,41.585Q4.22927,42.5852,4.83202,43.5401Q5.43476,44.495,6.11229,45.3983L4.24155,53.8168L12.0151,51.2256Q12.9088,51.8781,13.8512,52.4582Q14.7935,53.0383,15.7786,53.5424Q16.7637,54.0464,17.7855,54.4714Q18.8072,54.8963,19.8593,55.2395Q20.9113,55.5827,21.9871,55.8419Q23.0629,56.1012,24.1557,56.2749Q25.2486,56.4486,26.3517,56.5358Q27.4549,56.6229,28.5615,56.6229Z" fill-rule="evenodd" fill="#FFCF00" fill-opacity="1"/><path d="M28.5615,56.1229Q33.8186,56.1229,38.7067,54.1878Q44.014,52.0867,48.0504,48.0504Q52.0867,44.0141,54.1878,38.7067Q56.1229,33.8186,56.1229,28.5615Q56.1229,23.3043,54.1878,18.4162Q52.0867,13.1089,48.0504,9.07257Q44.0141,5.03629,38.7067,2.93514Q33.8186,1,28.5615,1Q23.3043,1,18.4162,2.93514Q13.1088,5.03628,9.07257,9.07257Q5.03629,13.1089,2.93514,18.4162Q1,23.3043,1,28.5615Q1,37.7486,6.51229,45.0983L6.65027,45.2823L4.72964,53.9252L4.24155,53.8168L4.08343,53.3424L12.1016,50.6697L12.3099,50.8218Q19.571,56.123,28.5615,56.1229ZM28.5615,57.1229Q19.2449,57.1229,11.7203,51.6294L12.0151,51.2256L12.1732,51.6999L3.56189,54.5704L5.62419,45.2899L6.11229,45.3983L5.71229,45.6983Q0,38.082,0,28.5615Q0,23.1135,2.00535,18.0481Q4.18272,12.5482,8.365459999999999,8.365459999999999Q12.5482,4.182729999999999,18.0481,2.00535Q23.1136,0,28.5615,0Q34.0094,0,39.0748,2.00535Q44.5747,4.182729999999999,48.7575,8.365459999999999Q52.9402,12.5483,55.1176,18.0481Q57.1229,23.1136,57.1229,28.5615Q57.1229,34.0093,55.1176,39.0748Q52.9402,44.5747,48.7575,48.7575Q44.5747,52.9402,39.0748,55.1176Q34.0093,57.1229,28.5615,57.1229Z" fill="#000000" fill-opacity="1"/></g><g><path d="M36.0552272903418,32.82796049499512C36.9248026003418,28.887172494995117,44.867411600341796,27.434710494995116,46.2006216003418,29.496226494995117C46.2664216003418,29.597940494995118,46.2013216003418,29.725450494995115,46.084521600341795,29.757530494995116C44.1338016003418,30.293250494995117,41.9194016003418,31.552830494995117,41.6288616003418,32.50575049499512C41.372111600341796,33.347850494995114,44.6570816003418,34.680250494995114,46.864521600341796,35.82901049499512C47.0194216003418,35.90963049499511,46.9981216003418,36.13205049499512,46.830021600341794,36.17932049499512C41.3543716003418,37.718690494995116,35.779785600341796,34.07622049499512,36.0552272903418,32.82796049499512C36.0552272903418,32.82796049499512,36.0552272903418,32.82796049499512,36.0552272903418,32.82796049499512Z" fill="#000000" fill-opacity="1"/></g><g transform="matrix(-1,0,0,1,42.154991149902344,0)"><path d="M21.087301264951172,32.82796049499512C21.95687657495117,28.887172494995117,29.89948557495117,27.434710494995116,31.232695574951173,29.496226494995117C31.298495574951172,29.597940494995118,31.233395574951174,29.725450494995115,31.11659557495117,29.757530494995116C29.165875574951173,30.293250494995117,26.95147557495117,31.552830494995117,26.66093557495117,32.50575049499512C26.40418557495117,33.347850494995114,29.689155574951172,34.680250494995114,31.89659557495117,35.82901049499512C32.051495574951176,35.90963049499511,32.03019557495117,36.13205049499512,31.86209557495117,36.17932049499512C26.38644557495117,37.718690494995116,20.81185957495117,34.07622049499512,21.087301264951172,32.82796049499512C21.087301264951172,32.82796049499512,21.087301264951172,32.82796049499512,21.087301264951172,32.82796049499512Z" fill="#000000" fill-opacity="1"/></g><g><path d="M42.14187387548828,20.957135217285156C42.074899875488285,20.689238217285155,41.803432875488284,20.526357417285155,41.53553487548828,20.593332417285158C41.26763787548828,20.660306417285156,41.10475707548828,20.931773217285155,41.17173207548828,21.199671217285157C41.17173207548828,21.199671217285157,42.14187387548828,20.957135217285156,42.14187387548828,20.957135217285156C42.14187387548828,20.957135217285156,42.14187387548828,20.957135217285156,42.14187387548828,20.957135217285156ZM47.26909487548828,25.319935217285156C47.54523487548828,25.319935217285156,47.76909487548828,25.096075217285154,47.76909487548828,24.819935217285156C47.76909487548828,24.543795217285158,47.54523487548828,24.319935217285156,47.26909487548828,24.319935217285156C47.26909487548828,24.319935217285156,47.26909487548828,25.319935217285156,47.26909487548828,25.319935217285156C47.26909487548828,25.319935217285156,47.26909487548828,25.319935217285156,47.26909487548828,25.319935217285156ZM41.17173207548828,21.199671217285157C41.527971875488284,22.624635217285157,43.25497487548828,25.319935217285156,47.26909487548828,25.319935217285156C47.26909487548828,25.319935217285156,47.26909487548828,24.319935217285156,47.26909487548828,24.319935217285156C43.80015487548828,24.319935217285156,42.409224875488285,22.026525217285155,42.14187387548828,20.957135217285156C42.14187387548828,20.957135217285156,41.17173207548828,21.199671217285157,41.17173207548828,21.199671217285157C41.17173207548828,21.199671217285157,41.17173207548828,21.199671217285157,41.17173207548828,21.199671217285157Z" fill="#000000" fill-opacity="1"/></g><g transform="matrix(-1,0,0,1,31.932464599609375,0)"><path d="M16.951421299804686,20.957135217285156C16.884447299804688,20.689238217285155,16.612980299804686,20.526357417285155,16.345082299804687,20.593332417285158C16.077185299804686,20.660306417285156,15.914304499804688,20.931773217285155,15.981279499804687,21.199671217285157C15.981279499804687,21.199671217285157,16.951421299804686,20.957135217285156,16.951421299804686,20.957135217285156C16.951421299804686,20.957135217285156,16.951421299804686,20.957135217285156,16.951421299804686,20.957135217285156ZM22.078642299804688,25.319935217285156C22.35478229980469,25.319935217285156,22.578642299804688,25.096075217285154,22.578642299804688,24.819935217285156C22.578642299804688,24.543795217285158,22.35478229980469,24.319935217285156,22.078642299804688,24.319935217285156C22.078642299804688,24.319935217285156,22.078642299804688,25.319935217285156,22.078642299804688,25.319935217285156C22.078642299804688,25.319935217285156,22.078642299804688,25.319935217285156,22.078642299804688,25.319935217285156ZM15.981279499804687,21.199671217285157C16.337519299804686,22.624635217285157,18.064522299804686,25.319935217285156,22.078642299804688,25.319935217285156C22.078642299804688,25.319935217285156,22.078642299804688,24.319935217285156,22.078642299804688,24.319935217285156C18.609702299804688,24.319935217285156,17.218772299804687,22.026525217285155,16.951421299804686,20.957135217285156C16.951421299804686,20.957135217285156,15.981279499804687,21.199671217285157,15.981279499804687,21.199671217285157C15.981279499804687,21.199671217285157,15.981279499804687,21.199671217285157,15.981279499804687,21.199671217285157Z" fill="#000000" fill-opacity="1"/></g><g><path d="M22.054743813842773,44.95112076049805C21.807750813842773,45.44510076049805,22.007978313842774,46.04578076049805,22.501956813842774,46.292770760498044C22.995939813842774,46.539750760498045,23.596609813842772,46.33953076049805,23.843599813842772,45.84555076049805C23.843599813842772,45.84555076049805,22.054743813842773,44.95112076049805,22.054743813842773,44.95112076049805C22.054743813842773,44.95112076049805,22.054743813842773,44.95112076049805,22.054743813842773,44.95112076049805ZM33.27934981384277,45.84555076049805C33.526249813842774,46.33953076049805,34.12694981384277,46.539750760498045,34.62094981384277,46.292770760498044C35.11494981384277,46.04578076049805,35.31514981384277,45.44510076049805,35.06814981384277,44.95112076049805C35.06814981384277,44.95112076049805,33.27934981384277,45.84555076049805,33.27934981384277,45.84555076049805C33.27934981384277,45.84555076049805,33.27934981384277,45.84555076049805,33.27934981384277,45.84555076049805ZM22.949169813842772,45.398340760498044C23.843599813842772,45.84555076049805,23.843429813842775,45.845890760498044,23.843269813842774,45.846210760498046C23.843219813842772,45.846300760498046,23.843069813842774,45.846610760498045,23.842979813842774,45.84678076049805C23.842799813842774,45.84714076049805,23.842649813842772,45.847440760498046,23.842529813842773,45.84768076049805C23.842279813842772,45.84817076049805,23.842149813842774,45.84844076049805,23.842119813842775,45.848490760498045C23.842069813842773,45.848600760498044,23.842449813842773,45.847840760498045,23.843269813842774,45.846250760498044C23.844919813842772,45.84306076049805,23.848309813842775,45.836540760498046,23.853449813842772,45.826910760498045C23.863729813842774,45.80763076049805,23.880949813842772,45.77597076049805,23.905109813842774,45.73371076049805C23.953479813842772,45.64905076049805,24.029179813842774,45.52264076049805,24.13198981384277,45.36842076049805C24.338729813842775,45.058310760498046,24.648869813842772,44.645160760498044,25.059349813842772,44.234680760498044C25.885739813842772,43.408300760498044,27.049459813842773,42.65681076049805,28.561459813842774,42.65681076049805C28.561459813842774,42.65681076049805,28.561459813842774,40.65681076049805,28.561459813842774,40.65681076049805C26.331939813842773,40.65681076049805,24.68951981384277,41.77609076049805,23.645139813842775,42.82047076049805C23.120239813842772,43.34537076049805,22.728837813842773,43.86760076049805,22.467888813842773,44.259020760498046C22.336852813842775,44.455580760498044,22.237163813842773,44.621480760498045,22.168619813842774,44.74143076049805C22.134309813842773,44.80147076049805,22.107689813842775,44.85020076049805,22.088740813842772,44.88573076049805C22.079262813842774,44.90350076049805,22.071693813842774,44.91799076049805,22.066030813842772,44.92896076049804C22.063198813842774,44.934450760498045,22.060842813842772,44.939060760498045,22.058961813842775,44.94276076049805C22.058021813842775,44.944610760498044,22.057199813842775,44.94624076049805,22.056496813842774,44.94763076049804C22.05614581384277,44.948330760498045,22.055823813842775,44.94897076049805,22.055530813842772,44.94955076049805C22.055385813842772,44.94984076049805,22.055187813842775,44.95024076049805,22.055114813842774,44.95038076049805C22.05492581384277,44.95076076049805,22.054743813842773,44.95112076049805,22.949169813842772,45.398340760498044C22.949169813842772,45.398340760498044,22.949169813842772,45.398340760498044,22.949169813842772,45.398340760498044ZM28.561459813842774,42.65681076049805C30.073469813842774,42.65681076049805,31.237189813842775,43.408300760498044,32.06354981384277,44.234680760498044C32.474049813842775,44.645160760498044,32.784149813842774,45.058310760498046,32.990949813842775,45.36842076049805C33.09374981384278,45.52264076049805,33.169449813842775,45.64905076049805,33.217849813842776,45.73371076049805C33.24194981384277,45.77597076049805,33.259149813842775,45.80763076049805,33.26944981384277,45.826910760498045C33.274549813842775,45.836540760498046,33.277949813842774,45.84306076049805,33.279649813842774,45.846250760498044C33.28044981384277,45.847840760498045,33.28084981384277,45.848600760498044,33.280749813842775,45.848490760498045C33.280749813842775,45.84844076049805,33.28064981384277,45.84817076049805,33.280349813842776,45.84768076049805C33.28024981384277,45.847440760498046,33.280149813842776,45.84714076049805,33.27994981384278,45.84678076049805C33.27984981384277,45.846610760498045,33.279649813842774,45.846300760498046,33.279649813842774,45.846210760498046C33.279449813842774,45.845890760498044,33.27934981384277,45.84555076049805,34.173749813842775,45.398340760498044C35.06814981384277,44.95112076049805,35.06794981384277,44.95076076049805,35.067749813842774,44.95038076049805C35.067749813842774,44.95024076049805,35.067549813842774,44.94984076049805,35.067349813842775,44.94955076049805C35.06704981384277,44.94897076049805,35.066749813842776,44.948330760498045,35.06644981384277,44.94763076049804C35.06574981384277,44.94624076049805,35.06484981384277,44.944610760498044,35.063949813842775,44.94276076049805C35.062049813842776,44.939060760498045,35.05974981384277,44.934450760498045,35.056849813842774,44.92896076049804C35.05124981384277,44.91799076049805,35.04364981384278,44.90350076049805,35.034149813842774,44.88573076049805C35.01524981384277,44.85020076049805,34.98854981384277,44.80147076049805,34.95424981384277,44.74143076049805C34.88574981384277,44.621480760498045,34.78604981384277,44.455580760498044,34.65504981384277,44.259020760498046C34.39404981384277,43.86760076049805,34.00264981384277,43.34537076049805,33.47774981384278,42.82047076049805C32.43344981384277,41.77609076049805,30.790979813842775,40.65681076049805,28.561459813842774,40.65681076049805C28.561459813842774,40.65681076049805,28.561459813842774,42.65681076049805,28.561459813842774,42.65681076049805C28.561459813842774,42.65681076049805,28.561459813842774,42.65681076049805,28.561459813842774,42.65681076049805Z" fill="#000000" fill-opacity="1"/></g></g></svg>