<svg xmlns="http://www.w3.org/2000/svg" xmlns:xlink="http://www.w3.org/1999/xlink" fill="none" version="1.1" width="55.252197265625" height="42.70367431640625" viewBox="0 0 55.252197265625 42.70367431640625"><defs><mask id="master_svg0_0_1310" style="mask-type:alpha" maskUnits="userSpaceOnUse"><g><path d="M49.54853521575928,30.9002C49.54853521575928,30.9002,49.54853521575928,2,49.54853521575928,2C49.54853521575928,1.447715,49.100835215759275,1,48.54853521575928,1C48.54853521575928,1,33.71593521575927,1,33.71593521575927,1C33.18543521575928,1,32.67673521575928,1.210714,32.301635215759276,1.5857869999999998C32.301635215759276,1.5857869999999998,27.979635215759277,5.90783,27.979635215759277,5.90783C27.784335215759278,6.10309,27.467735215759276,6.10309,27.272535215759277,5.90783C27.272535215759277,5.90783,22.950435215759278,1.5857860000000001,22.950435215759278,1.5857860000000001C22.575435215759278,1.210714,22.066735215759277,1,21.536235215759277,1C21.536235215759277,1,6.703635215759277,1,6.703635215759277,1C6.151350215759277,1,5.703635215759277,1.447714,5.703635215759277,1.9999989999999999C5.703635215759277,1.9999989999999999,5.703635215759277,30.9002,5.703635215759277,30.9002C5.703635215759277,31.4525,6.151350215759277,31.9002,6.703635215759277,31.9002C6.703635215759277,31.9002,22.515335215759276,31.9002,22.515335215759276,31.9002C23.362835215759276,31.9002,24.170835215759276,32.2586,24.73953521575928,32.887C24.73953521575928,32.887,27.255335215759278,35.6664,27.255335215759278,35.6664C27.453835215759277,35.8857,27.798235215759277,35.8857,27.996735215759276,35.6664C27.996735215759276,35.6664,30.51263521575928,32.887,30.51263521575928,32.887C31.081335215759278,32.2586,31.889335215759278,31.9002,32.73673521575928,31.9002C32.73673521575928,31.9002,48.54853521575928,31.9002,48.54853521575928,31.9002C49.100835215759275,31.9002,49.54853521575928,31.4525,49.54853521575928,30.9002C49.54853521575928,30.9002,49.54853521575928,30.9002,49.54853521575928,30.9002Z" fill="#FFFFFF" fill-opacity="1"/></g></mask></defs><g><g><path d="M51.7522,3.124690294265747C51.7522,3.124690294265747,3.5,3.124690294265747,3.5,3.124690294265747C1.84315,3.124690294265747,0.5,4.467830294265747,0.5,6.124690294265747C0.5,6.124690294265747,0.5,34.733790294265745,0.5,34.733790294265745C0.5,36.390690294265745,1.84315,37.733790294265745,3.5,37.733790294265745C3.5,37.733790294265745,21.7065,37.733790294265745,21.7065,37.733790294265745C22.5022,37.733790294265745,23.2652,38.049890294265744,23.8278,38.61249029426575C23.8278,38.61249029426575,27.2725,42.057190294265745,27.2725,42.057190294265745C27.4678,42.25249029426575,27.7844,42.25249029426575,27.9796,42.057190294265745C27.9796,42.057190294265745,31.4243,38.61249029426575,31.4243,38.61249029426575C31.9869,38.049890294265744,32.75,37.733790294265745,33.5456,37.733790294265745C33.5456,37.733790294265745,51.7522,37.733790294265745,51.7522,37.733790294265745C53.409,37.733790294265745,54.7522,36.390690294265745,54.7522,34.733790294265745C54.7522,34.733790294265745,54.7522,6.124690294265747,54.7522,6.124690294265747C54.7522,4.467840294265747,53.409,3.124690294265747,51.7522,3.124690294265747C51.7522,3.124690294265747,51.7522,3.124690294265747,51.7522,3.124690294265747Z" fill="#4B91FF" fill-opacity="1"/><path d="M55.2522,34.733790294265745L55.2522,6.124690294265747Q55.2522,4.674950294265747,54.2271,3.6498162942657473Q53.2019,2.624690294265747,51.7522,2.624690294265747L3.5,2.624690294265747Q2.05025,2.624690294265747,1.025128,3.649814294265747Q0,4.674940294265747,0,6.124690294265747L0,34.733790294265745Q0,36.18359029426575,1.0251299999999999,37.20869029426575Q2.05025,38.233790294265745,3.5,38.233790294265745L21.7065,38.233790294265745Q22.742,38.233790294265745,23.4742,38.96609029426575L26.9189,42.410790294265745Q27.2119,42.70369029426575,27.6261,42.70369029426575Q28.0404,42.70369029426575,28.3332,42.41069029426575L31.7779,38.96609029426575Q32.5101,38.233790294265745,33.5456,38.233790294265745L51.7522,38.233790294265745Q53.2019,38.233790294265745,54.2271,37.20869029426575Q55.2522,36.18359029426575,55.2522,34.733790294265745ZM53.52,4.356930294265747Q54.2522,5.089170294265747,54.2522,6.124690294265747L54.2522,34.733790294265745Q54.2522,35.76939029426575,53.52,36.501590294265746Q52.7877,37.233790294265745,51.7522,37.233790294265745L33.5456,37.233790294265745Q32.0959,37.233790294265745,31.0707,38.25889029426575L27.626,41.703590294265744L24.1814,38.25889029426575Q23.1562,37.233790294265745,21.7065,37.233790294265745L3.5,37.233790294265745Q2.46446,37.233790294265745,1.73223,36.501590294265746Q1,35.76939029426575,1,34.733790294265745L1,6.124690294265747Q1,5.089150294265747,1.73223,4.356920294265747Q2.46447,3.624690294265747,3.5,3.624690294265747L51.7522,3.624690294265747Q52.7877,3.624690294265747,53.52,4.356930294265747Z" fill-rule="evenodd" fill="#000000" fill-opacity="1"/></g><g><g><path d="M49.54853521575928,30.9002C49.54853521575928,30.9002,49.54853521575928,2,49.54853521575928,2C49.54853521575928,1.447715,49.100835215759275,1,48.54853521575928,1C48.54853521575928,1,33.71593521575927,1,33.71593521575927,1C33.18543521575928,1,32.67673521575928,1.210714,32.301635215759276,1.5857869999999998C32.301635215759276,1.5857869999999998,27.979635215759277,5.90783,27.979635215759277,5.90783C27.784335215759278,6.10309,27.467735215759276,6.10309,27.272535215759277,5.90783C27.272535215759277,5.90783,22.950435215759278,1.5857860000000001,22.950435215759278,1.5857860000000001C22.575435215759278,1.210714,22.066735215759277,1,21.536235215759277,1C21.536235215759277,1,6.703635215759277,1,6.703635215759277,1C6.151350215759277,1,5.703635215759277,1.447714,5.703635215759277,1.9999989999999999C5.703635215759277,1.9999989999999999,5.703635215759277,30.9002,5.703635215759277,30.9002C5.703635215759277,31.4525,6.151350215759277,31.9002,6.703635215759277,31.9002C6.703635215759277,31.9002,22.515335215759276,31.9002,22.515335215759276,31.9002C23.362835215759276,31.9002,24.170835215759276,32.2586,24.73953521575928,32.887C24.73953521575928,32.887,27.255335215759278,35.6664,27.255335215759278,35.6664C27.453835215759277,35.8857,27.798235215759277,35.8857,27.996735215759276,35.6664C27.996735215759276,35.6664,30.51263521575928,32.887,30.51263521575928,32.887C31.081335215759278,32.2586,31.889335215759278,31.9002,32.73673521575928,31.9002C32.73673521575928,31.9002,48.54853521575928,31.9002,48.54853521575928,31.9002C49.100835215759275,31.9002,49.54853521575928,31.4525,49.54853521575928,30.9002C49.54853521575928,30.9002,49.54853521575928,30.9002,49.54853521575928,30.9002Z" fill="#FFFFFF" fill-opacity="1"/><path d="M49.962735215759274,32.3144Q50.54853521575928,31.7286,50.54853521575928,30.9002L50.54853521575928,2Q50.54853521575928,1.171573,49.962735215759274,0.585791Q49.376935215759275,0,48.54853521575928,0L33.71593521575927,0Q32.473235215759274,0,31.594535215759276,0.878653L27.626035215759277,4.84717L23.657535215759278,0.878675Q22.779035215759276,0,21.536235215759277,0L6.703635215759277,0Q5.875208215759278,0,5.289422215759277,0.585785Q4.703635215759277,1.171571,4.703635215759277,1.9999989999999999L4.703635215759277,30.9002Q4.703635215759277,31.7286,5.289425215759278,32.3144Q5.875209215759277,32.9002,6.703635215759277,32.9002L22.515335215759276,32.9002Q23.40273521575928,32.9002,23.998135215759277,33.558L26.51393521575928,36.3375Q26.96053521575928,36.8309,27.626035215759277,36.8309Q28.29153521575928,36.8309,28.73813521575928,36.3375L31.254035215759277,33.5581Q31.84943521575928,32.9002,32.73673521575928,32.9002L48.54853521575928,32.9002Q49.376935215759275,32.9002,49.962735215759274,32.3144ZM49.54853521575928,2L49.54853521575928,30.9002C49.54853521575928,31.4525,49.100835215759275,31.9002,48.54853521575928,31.9002L32.73673521575928,31.9002C31.889335215759278,31.9002,31.081335215759278,32.2586,30.51263521575928,32.887L27.996735215759276,35.6664C27.798235215759277,35.8857,27.453835215759277,35.8857,27.255335215759278,35.6664L24.73953521575928,32.887C24.170835215759276,32.2586,23.362835215759276,31.9002,22.515335215759276,31.9002L6.703635215759277,31.9002C6.151350215759277,31.9002,5.703635215759277,31.4525,5.703635215759277,30.9002L5.703635215759277,1.9999989999999999C5.703635215759277,1.447714,6.151350215759277,1,6.703635215759277,1L21.536235215759277,1C22.066735215759277,1,22.575435215759278,1.210714,22.950435215759278,1.5857860000000001L27.272535215759277,5.90783C27.467735215759276,6.10309,27.784335215759278,6.10309,27.979635215759277,5.90783L32.301635215759276,1.5857869999999998C32.67673521575928,1.210714,33.18543521575928,1,33.71593521575927,1L48.54853521575928,1C49.100835215759275,1,49.54853521575928,1.447715,49.54853521575928,2Z" fill-rule="evenodd" fill="#000000" fill-opacity="1"/></g><g mask="url(#master_svg0_0_1310)"><g><path d="M32.69909191131592,0.6597624123096466C32.69909191131592,0.6597624123096466,49.54794191131592,0.6597624123096466,49.54794191131592,0.6597624123096466C49.54794191131592,0.6597624123096466,49.54794191131592,32.361162412309646,49.54794191131592,32.361162412309646C49.54794191131592,32.361162412309646,32.14680191131592,32.361162412309646,32.14680191131592,32.361162412309646C32.14680191131592,32.361162412309646,27.355341911315918,36.50916241230965,27.355341911315918,36.50916241230965C27.355341911315918,36.50916241230965,27.355770084315918,5.338902412309647,27.355770084315918,5.338902412309647C27.355770084315918,5.338902412309647,32.69909191131592,0.6597624123096466,32.69909191131592,0.6597624123096466C32.69909191131592,0.6597624123096466,32.69909191131592,0.6597624123096466,32.69909191131592,0.6597624123096466Z" fill="#E5E2D7" fill-opacity="1"/></g></g><g><g><rect x="9.36067509651184" y="6.461116313934326" width="15.490073204040527" height="3.5075900554656982" rx="0" fill="#ECECEC" fill-opacity="1"/></g><g><rect x="9.36067509651184" y="12.981099128723145" width="15.490073204040527" height="3.5075900554656982" rx="0" fill="#ECECEC" fill-opacity="1"/></g><g><rect x="9.36067509651184" y="19.501776218414307" width="15.490073204040527" height="3.5075900554656982" rx="0" fill="#ECECEC" fill-opacity="1"/></g><g><rect x="9.36067509651184" y="26.022367000579834" width="15.490073204040527" height="3.5075900554656982" rx="0" fill="#ECECEC" fill-opacity="1"/></g></g><g><g><rect x="30.201434134913143" y="6.461116313934326" width="15.490073204040527" height="3.5075900554656982" rx="0" fill="#CAC8BE" fill-opacity="1"/></g><g><rect x="30.20065975189209" y="12.981099128723145" width="15.490073204040527" height="3.5075900554656982" rx="0" fill="#CAC8BE" fill-opacity="1"/></g><g><rect x="30.20065975189209" y="19.501776218414307" width="15.490073204040527" height="3.5075900554656982" rx="0" fill="#CAC8BE" fill-opacity="1"/></g><g><rect x="30.20065975189209" y="26.022367000579834" width="15.490073204040527" height="3.5075900554656982" rx="0" fill="#CAC8BE" fill-opacity="1"/></g></g></g></g></svg>