<svg xmlns="http://www.w3.org/2000/svg" xmlns:xlink="http://www.w3.org/1999/xlink" fill="none" version="1.1" width="57.1229248046875" height="58.036651611328125" viewBox="0 0 57.1229248046875 58.036651611328125"><g><g><path d="M28.5615,56.6229Q29.2503,56.6229,29.9384,56.5891Q30.6264,56.5553,31.312,56.4878Q31.9975,56.4203,32.6789,56.3192Q33.3603,56.2181,34.036,56.0837Q34.7116,55.9493,35.3798,55.7819Q36.0481,55.6146,36.7073,55.4146Q37.3665,55.2146,38.0151,54.9826Q38.6637,54.7505,39.3001,54.4869Q39.9365,54.2232,40.5593,53.9287Q41.182,53.6342,41.7895,53.3095Q42.3971,52.9847,42.9879,52.6306Q43.5788,52.2764,44.1516,51.8937Q44.7243,51.511,45.2776,51.1006Q45.831,50.6903,46.3635,50.2533Q46.896,49.8162,47.4064,49.3536Q47.9168,48.891,48.4039,48.4039Q48.891,47.9168,49.3536,47.4064Q49.8162,46.896,50.2533,46.3635Q50.6903,45.831,51.1006,45.2776Q51.511,44.7243,51.8937,44.1516Q52.2764,43.5788,52.6306,42.9879Q52.9847,42.3971,53.3095,41.7895Q53.6342,41.182,53.9287,40.5593Q54.2232,39.9365,54.4869,39.3001Q54.7505,38.6637,54.9826,38.0151Q55.2146,37.3665,55.4146,36.7073Q55.6146,36.0481,55.782,35.3798Q55.9493,34.7116,56.0837,34.036Q56.2181,33.3603,56.3192,32.6789Q56.4203,31.9975,56.4878,31.312Q56.5553,30.6264,56.5891,29.9384Q56.6229,29.2503,56.6229,28.5615Q56.6229,27.8726,56.5891,27.1846Q56.5553,26.4965,56.4878,25.811Q56.4203,25.1254,56.3192,24.444Q56.2181,23.7626,56.0837,23.0869Q55.9493,22.4113,55.7819,21.7431Q55.6146,21.0749,55.4146,20.4156Q55.2146,19.7564,54.9826,19.1078Q54.7505,18.4592,54.4869,17.8228Q54.2232,17.1864,53.9287,16.5636Q53.6342,15.9409,53.3095,15.3334Q52.9847,14.7259,52.6306,14.135Q52.2764,13.5441,51.8937,12.9713Q51.511,12.3986,51.1006,11.8453Q50.6903,11.292,50.2533,10.7595Q49.8162,10.22695,49.3536,9.71654Q48.891,9.20612,48.4039,8.71901Q47.9168,8.23191,47.4064,7.76929Q46.896,7.30667,46.3635,6.86966Q45.831,6.43264,45.2776,6.02228Q44.7243,5.61192,44.1516,5.22921Q43.5788,4.84649,42.9879,4.49234Q42.3971,4.13819,41.7895,3.81346Q41.182,3.48873,40.5593,3.1942Q39.9365,2.89967,39.3001,2.63605Q38.6637,2.37243,38.0151,2.1403600000000003Q37.3665,1.90829,36.7073,1.70832Q36.0481,1.50835,35.3798,1.340967Q34.7116,1.173585,34.036,1.039193Q33.3603,0.904801,32.6789,0.803723Q31.9975,0.702645,31.312,0.635124Q30.6264,0.5676025,29.9384,0.5338013Q29.2503,0.5,28.5615,0.5Q27.8726,0.5,27.1846,0.5338013Q26.4965,0.5676025,25.811,0.635124Q25.1254,0.702645,24.444,0.803723Q23.7626,0.904801,23.0869,1.039193Q22.4113,1.173585,21.7431,1.340967Q21.0749,1.50835,20.4156,1.70832Q19.7564,1.90829,19.1078,2.1403600000000003Q18.4592,2.37243,17.8228,2.63605Q17.1864,2.89967,16.5636,3.1942Q15.9409,3.48873,15.3334,3.81346Q14.7259,4.13819,14.135,4.49234Q13.5441,4.84649,12.9713,5.22921Q12.3986,5.61192,11.8453,6.02228Q11.292,6.43264,10.7595,6.86966Q10.22695,7.30667,9.71654,7.76929Q9.20612,8.23191,8.71901,8.71901Q8.23191,9.20612,7.76929,9.71654Q7.30667,10.22695,6.86966,10.7595Q6.43264,11.292,6.02228,11.8453Q5.61192,12.3986,5.22921,12.9713Q4.84649,13.5441,4.49234,14.135Q4.13819,14.7259,3.81346,15.3334Q3.48873,15.9409,3.1942,16.5636Q2.89967,17.1864,2.63605,17.8228Q2.37243,18.4592,2.1403600000000003,19.1078Q1.90829,19.7564,1.70832,20.4156Q1.50835,21.0749,1.340967,21.7431Q1.173585,22.4113,1.039193,23.0869Q0.904801,23.7626,0.803723,24.444Q0.702645,25.1254,0.635124,25.811Q0.5676025,26.4965,0.5338013,27.1846Q0.5,27.8726,0.5,28.5615Q0.4999999999999988,29.6907,0.5907328000000001,30.8162Q0.681466,31.9418,0.8623449999999999,33.0564Q1.043224,34.171,1.313079,35.2675Q1.58293,36.364,1.94002,37.4353Q2.29711,38.5065,2.73912,39.5456Q3.18112,40.5847,3.7052,41.585Q4.22927,42.5852,4.83202,43.5401Q5.43476,44.495,6.11229,45.3983L4.24155,53.8168L12.0151,51.2256Q12.9088,51.8781,13.8512,52.4582Q14.7935,53.0383,15.7786,53.5424Q16.7637,54.0464,17.7855,54.4714Q18.8072,54.8963,19.8593,55.2395Q20.9113,55.5827,21.9871,55.8419Q23.0629,56.1012,24.1557,56.2749Q25.2486,56.4486,26.3517,56.5358Q27.4549,56.6229,28.5615,56.6229Z" fill-rule="evenodd" fill="#FFCF00" fill-opacity="1"/><path d="M28.5615,56.1229Q33.8186,56.1229,38.7067,54.1878Q44.014,52.0867,48.0504,48.0504Q52.0867,44.0141,54.1878,38.7067Q56.1229,33.8186,56.1229,28.5615Q56.1229,23.3043,54.1878,18.4162Q52.0867,13.1089,48.0504,9.07257Q44.0141,5.03629,38.7067,2.93514Q33.8186,1,28.5615,1Q23.3043,1,18.4162,2.93514Q13.1088,5.03628,9.07257,9.07257Q5.03629,13.1089,2.93514,18.4162Q1,23.3043,1,28.5615Q1,37.7486,6.51229,45.0983L6.65027,45.2823L4.72964,53.9252L4.24155,53.8168L4.08343,53.3424L12.1016,50.6697L12.3099,50.8218Q19.571,56.123,28.5615,56.1229ZM28.5615,57.1229Q19.2449,57.1229,11.7203,51.6294L12.0151,51.2256L12.1732,51.6999L3.56189,54.5704L5.62419,45.2899L6.11229,45.3983L5.71229,45.6983Q0,38.082,0,28.5615Q0,23.1135,2.00535,18.0481Q4.18272,12.5482,8.365459999999999,8.365459999999999Q12.5482,4.182729999999999,18.0481,2.00535Q23.1136,0,28.5615,0Q34.0094,0,39.0748,2.00535Q44.5747,4.182729999999999,48.7575,8.365459999999999Q52.9402,12.5483,55.1176,18.0481Q57.1229,23.1136,57.1229,28.5615Q57.1229,34.0093,55.1176,39.0748Q52.9402,44.5747,48.7575,48.7575Q44.5747,52.9402,39.0748,55.1176Q34.0093,57.1229,28.5615,57.1229Z" fill="#000000" fill-opacity="1"/></g><g><path d="M13.716590353332519,9.368755467211914C13.44869235333252,9.301780467211914,13.17722555333252,9.464661267211914,13.11025155333252,9.732558267211914C13.04327655333252,10.000456267211915,13.20615735333252,10.271923267211914,13.47405435333252,10.338897267211914C13.47405435333252,10.338897267211914,13.716590353332519,9.368755467211914,13.716590353332519,9.368755467211914C13.716590353332519,9.368755467211914,13.716590353332519,9.368755467211914,13.716590353332519,9.368755467211914ZM20.68794435333252,15.778468267211913C20.86045435333252,15.994098267211914,21.17509435333252,16.029058267211916,21.39072435333252,15.856558267211913C21.60635435333252,15.684048267211914,21.64132435333252,15.369408267211913,21.46881435333252,15.153768267211914C21.46881435333252,15.153768267211914,20.68794435333252,15.778468267211913,20.68794435333252,15.778468267211913C20.68794435333252,15.778468267211913,20.68794435333252,15.778468267211913,20.68794435333252,15.778468267211913ZM13.47405435333252,10.338897267211914C14.60252435333252,10.621018267211914,17.75461435333252,12.111798267211913,20.68794435333252,15.778468267211913C20.68794435333252,15.778468267211913,21.46881435333252,15.153768267211914,21.46881435333252,15.153768267211914C18.41570435333252,11.337388267211914,15.08247435333252,9.710225267211914,13.716590353332519,9.368755467211914C13.716590353332519,9.368755467211914,13.47405435333252,10.338897267211914,13.47405435333252,10.338897267211914C13.47405435333252,10.338897267211914,13.47405435333252,10.338897267211914,13.47405435333252,10.338897267211914Z" fill="#000000" fill-opacity="1"/></g><g transform="matrix(-1,0,0,1,88.05534362792969,0)"><path d="M44.649057813964845,9.368755467211914C44.38115981396484,9.301780467211914,44.10969301396484,9.464661267211914,44.04271901396484,9.732558267211914C43.97574401396484,10.000456267211915,44.138624813964846,10.271923267211914,44.406521813964844,10.338897267211914C44.406521813964844,10.338897267211914,44.649057813964845,9.368755467211914,44.649057813964845,9.368755467211914C44.649057813964845,9.368755467211914,44.649057813964845,9.368755467211914,44.649057813964845,9.368755467211914ZM51.62041181396484,15.778468267211913C51.792921813964846,15.994098267211914,52.10756181396484,16.029058267211916,52.32319181396484,15.856558267211913C52.538821813964844,15.684048267211914,52.573791813964846,15.369408267211913,52.40128181396484,15.153768267211914C52.40128181396484,15.153768267211914,51.62041181396484,15.778468267211913,51.62041181396484,15.778468267211913C51.62041181396484,15.778468267211913,51.62041181396484,15.778468267211913,51.62041181396484,15.778468267211913ZM44.406521813964844,10.338897267211914C45.534991813964844,10.621018267211914,48.687081813964845,12.111798267211913,51.62041181396484,15.778468267211913C51.62041181396484,15.778468267211913,52.40128181396484,15.153768267211914,52.40128181396484,15.153768267211914C49.348171813964846,11.337388267211914,46.014941813964846,9.710225267211914,44.649057813964845,9.368755467211914C44.649057813964845,9.368755467211914,44.406521813964844,10.338897267211914,44.406521813964844,10.338897267211914C44.406521813964844,10.338897267211914,44.406521813964844,10.338897267211914,44.406521813964844,10.338897267211914Z" fill="#000000" fill-opacity="1"/></g><g><path d="M10.512332217712402,20.325829131469728C10.096692217712402,19.962151131469728,9.464931217712403,20.004269131469727,9.101249217712402,20.419909131469726C8.737566217712402,20.835539131469726,8.779686117712401,21.467309131469726,9.195321217712403,21.830989131469728C9.195321217712403,21.830989131469728,10.512332217712402,20.325829131469728,10.512332217712402,20.325829131469728C10.512332217712402,20.325829131469728,10.512332217712402,20.325829131469728,10.512332217712402,20.325829131469728ZM23.7491122177124,20.743029131469726C24.080512217712403,20.301199131469726,23.991012217712402,19.674399131469727,23.549112217712402,19.343028131469726C23.107312217712405,19.011658131469726,22.480512217712402,19.101198231469727,22.1491122177124,19.543028131469725C22.1491122177124,19.543028131469725,23.7491122177124,20.743029131469726,23.7491122177124,20.743029131469726C23.7491122177124,20.743029131469726,23.7491122177124,20.743029131469726,23.7491122177124,20.743029131469726ZM9.195321217712403,21.830989131469728C10.551482217712403,23.017629131469725,12.890522217712402,24.401089131469725,15.553042217712402,24.669069131469726C18.295432217712403,24.94508913146973,21.289912217712402,24.022009131469726,23.7491122177124,20.743029131469726C23.7491122177124,20.743029131469726,22.1491122177124,19.543028131469725,22.1491122177124,19.543028131469725C20.118612217712403,22.250489131469728,17.8125722177124,22.886389131469727,15.753332217712401,22.679119131469726C13.614232217712402,22.463829131469726,11.650522217712403,21.321749131469726,10.512332217712402,20.325829131469728C10.512332217712402,20.325829131469728,9.195321217712403,21.830989131469728,9.195321217712403,21.830989131469728C9.195321217712403,21.830989131469728,9.195321217712403,21.830989131469728,9.195321217712403,21.830989131469728Z" fill="#000000" fill-opacity="1"/></g><g transform="matrix(-1,0,0,1,96.53829956054688,0)"><path d="M49.92766978027344,20.325829131469728C49.51202978027344,19.962151131469728,48.88026878027344,20.004269131469727,48.516586780273435,20.419909131469726C48.15290378027344,20.835539131469726,48.19502368027344,21.467309131469726,48.61065878027344,21.830989131469728C48.61065878027344,21.830989131469728,49.92766978027344,20.325829131469728,49.92766978027344,20.325829131469728C49.92766978027344,20.325829131469728,49.92766978027344,20.325829131469728,49.92766978027344,20.325829131469728ZM63.164449780273436,20.743029131469726C63.49584978027344,20.301199131469726,63.40634978027344,19.674399131469727,62.96444978027344,19.343028131469726C62.52264978027344,19.011658131469726,61.89584978027344,19.101198231469727,61.564449780273435,19.543028131469725C61.564449780273435,19.543028131469725,63.164449780273436,20.743029131469726,63.164449780273436,20.743029131469726C63.164449780273436,20.743029131469726,63.164449780273436,20.743029131469726,63.164449780273436,20.743029131469726ZM48.61065878027344,21.830989131469728C49.96681978027344,23.017629131469725,52.30585978027344,24.401089131469725,54.96837978027344,24.669069131469726C57.71076978027344,24.94508913146973,60.705249780273434,24.022009131469726,63.164449780273436,20.743029131469726C63.164449780273436,20.743029131469726,61.564449780273435,19.543028131469725,61.564449780273435,19.543028131469725C59.53394978027344,22.250489131469728,57.227909780273436,22.886389131469727,55.16866978027344,22.679119131469726C53.029569780273434,22.463829131469726,51.065859780273435,21.321749131469726,49.92766978027344,20.325829131469728C49.92766978027344,20.325829131469728,48.61065878027344,21.830989131469728,48.61065878027344,21.830989131469728C48.61065878027344,21.830989131469728,48.61065878027344,21.830989131469728,48.61065878027344,21.830989131469728Z" fill="#000000" fill-opacity="1"/></g><g><path d="M28.561439784240722,33.238372802734375C20.330109784240722,33.238372802734375,15.466121784240723,37.60349280273437,14.530739784240723,39.78604280273437C14.530739784240723,39.78604280273437,21.078409784240723,36.97990280273437,28.561439784240722,36.97990280273437C36.044539784240726,36.97990280273437,42.59223978424072,39.78604280273437,42.59223978424072,39.78604280273437C41.03323978424072,37.60349280273437,36.792839784240726,33.238372802734375,28.561439784240722,33.238372802734375C28.561439784240722,33.238372802734375,28.561439784240722,33.238372802734375,28.561439784240722,33.238372802734375Z" fill="#000000" fill-opacity="1"/></g><g><path d="M15.500410037231445,44.41344515991211C15.500410037231445,44.41344515991211,25.696110037231445,29.58336600991211,25.696110037231445,29.58336600991211C25.702910037231444,29.57337540991211,25.718310037231447,29.58193130991211,25.713510037231444,29.59303885991211C25.713510037231444,29.59303885991211,19.238710037231446,44.39294515991211,19.238710037231446,44.39294515991211C19.224210037231444,44.42594515991211,19.250310037231444,44.46294515991211,19.286410037231445,44.46334515991211C22.869010037231444,44.50144515991211,22.934910037231447,47.15514515991211,21.198510037231443,48.14064515991211C21.158110037231445,48.163545159912104,21.167310037231445,48.22714515991211,21.212010037231444,48.23954515991211C24.761510037231446,49.219645159912105,23.869110037231444,52.809145159912106,21.160810037231446,52.88034515991211C21.123710037231447,52.88134515991211,21.099310037231447,52.922545159912104,21.115410037231445,52.95604515991211C22.861910037231446,56.595345159912114,18.395710037231446,58.422845159912114,17.378910037231446,55.80324515991211C17.362810037231448,55.761645159912106,17.301810037231448,55.75784515991211,17.281010037231447,55.79724515991211C15.412480037231445,59.35334515991211,11.802940037231444,57.56964515991211,11.726240037231445,54.84104515991211C11.725150037231446,54.802245159912104,11.680000037231444,54.77904515991211,11.646490037231445,54.79874515991211C7.070950037231445,57.48604515991211,6.136400037231446,52.938245159912114,7.942980037231445,51.051845159912105C7.964030037231446,51.029845159912114,7.959690037231446,50.99294515991211,7.935520037231445,50.97444515991211C4.328390037231445,48.21614515991211,8.809310037231445,45.47334515991211,10.716710037231445,46.29984515991211C10.750820037231446,46.31464515991211,10.789510037231445,46.287745159912106,10.790030037231446,46.25054515991211C10.840190037231444,42.64254515991211,14.152810037231445,43.21164515991211,15.423840037231445,44.42144515991211C15.446480037231446,44.44304515991211,15.482700037231446,44.43914515991211,15.500410037231445,44.41344515991211C15.500410037231445,44.41344515991211,15.500410037231445,44.41344515991211,15.500410037231445,44.41344515991211Z" fill="#FFFFFF" fill-opacity="1"/><path d="M15.421880037231446,44.08634515991211L25.490110037231446,29.441733159912108Q25.623010037231445,29.24640715991211,25.830610037231445,29.36176915991211Q26.036410037231445,29.47614015991211,25.943010037231446,29.69223515991211L19.586510037231445,44.22174515991211Q21.995310037231445,44.33444515991211,22.475710037231444,45.87214515991211Q22.691010037231447,46.56144515991211,22.362410037231445,47.26184515991211Q22.124510037231445,47.76894515991211,21.673410037231445,48.12324515991211Q22.716810037231447,48.49754515991211,23.279010037231444,49.21374515991211Q23.889010037231444,49.991045159912105,23.781410037231446,50.929245159912114Q23.678310037231444,51.82914515991211,22.976210037231446,52.450245159912114Q22.341510037231444,53.011645159912106,21.458310037231445,53.11044515991211Q21.960910037231443,54.32274515991211,21.651210037231444,55.37524515991211Q21.347210037231445,56.40824515991211,20.407210037231444,56.943945159912104Q19.501010037231445,57.46034515991211,18.573910037231446,57.21714515991211Q17.739010037231445,56.99804515991211,17.313010037231443,56.24814515991211Q16.663310037231447,57.31414515991211,15.744090037231445,57.75694515991211Q14.781460037231446,58.22074515991211,13.760080037231445,57.91544515991211Q12.803730037231446,57.62944515991211,12.165100037231445,56.79344515991211Q11.605810037231446,56.06114515991211,11.499700037231445,55.16894515991211Q9.995090037231446,55.987045159912114,8.855910037231446,55.86074515991211Q7.727390037231445,55.73564515991211,7.183236037231445,54.762445159912104Q6.703584037231446,53.90464515991211,6.868696037231445,52.77484515991211Q7.017447037231445,51.75704515991211,7.616990037231446,51.04124515991211Q6.429325037231445,50.068945159912104,6.331119037231446,48.98674515991211Q6.239399037231445,47.976045159912104,7.079530037231446,47.11794515991211Q7.810990037231445,46.37084515991211,8.900320037231445,46.05364515991211Q9.840370037231445,45.77994515991211,10.549390037231445,45.976345159912114Q10.683370037231445,43.587845159912106,12.609960037231446,43.28234515991211Q13.389110037231445,43.15884515991211,14.251330037231444,43.45284515991211Q14.932070037231446,43.68494515991211,15.421880037231446,44.08634515991211ZM15.251260037231445,44.60234515991211L15.251480037231445,44.60254515991211Q15.352100037231445,44.69834515991211,15.490200037231446,44.68374515991211Q15.627710037231445,44.66924515991211,15.706270037231445,44.55524515991211L24.474310037231444,31.801765159912108L19.009710037231443,44.29274515991211Q18.943010037231446,44.44444515991211,19.037510037231446,44.58194515991211Q19.126610037231444,44.711545159912106,19.283610037231448,44.71334515991211Q21.597510037231444,44.73794515991211,21.998510037231448,46.02124515991211Q22.155810037231447,46.52494515991211,21.909810037231445,47.04944515991211Q21.654010037231444,47.594645159912105,21.075110037231447,47.92324515991211Q20.897210037231446,48.024045159912106,20.925710037231447,48.228645159912105Q20.953510037231446,48.427245159912104,21.145210037231443,48.48044515991211Q22.323010037231445,48.80564515991211,22.885610037231444,49.52244515991211Q23.368910037231444,50.13814515991211,23.284710037231445,50.87234515991211Q23.203410037231446,51.58174515991211,22.644910037231444,52.07574515991211Q22.044310037231448,52.607045159912104,21.154210037231444,52.630445159912114Q20.988910037231445,52.63484515991211,20.903510037231445,52.777845159912104Q20.819810037231445,52.91804515991211,20.890110037231445,53.06434515991211Q21.460410037231448,54.252645159912106,21.171510037231446,55.234045159912114Q20.924410037231446,56.07364515991211,20.159610037231445,56.50954515991211Q19.430710037231446,56.92494515991211,18.700710037231445,56.73344515991211Q17.929610037231445,56.531145159912114,17.612010037231446,55.71274515991211Q17.542110037231446,55.53234515991211,17.347110037231445,55.52034515991211Q17.150910037231448,55.50824515991211,17.059910037231447,55.680545159912114Q16.435530037231445,56.86884515991211,15.527070037231445,57.306545159912105Q14.739020037231445,57.686245159912104,13.903300037231446,57.43634515991211Q13.102520037231447,57.196945159912104,12.562440037231445,56.48984515991211Q12.002070037231444,55.75624515991211,11.976140037231445,54.83404515991211Q11.971220037231445,54.65864515991211,11.814630037231446,54.57654515991211Q11.664800037231444,54.497945159912106,11.519780037231445,54.58324515991211Q9.987510037231445,55.48314515991211,8.911010037231446,55.36374515991211Q8.038230037231445,55.26704515991211,7.6196500372314455,54.518445159912105Q7.222892037231445,53.80884515991211,7.363440037231445,52.84714515991211Q7.506370037231445,51.86914515991211,8.123540037231445,51.22474515991211Q8.219200037231445,51.12474515991211,8.204890037231445,50.98614515991211Q8.191400037231446,50.85544515991211,8.087480037231446,50.77594515991211Q6.914116037231445,49.87864515991211,6.829073037231446,48.94154515991211Q6.758223037231446,48.160845159912114,7.436804037231445,47.46774515991211Q8.076590037231446,46.814245159912105,9.040100037231445,46.53374515991211Q9.989610037231445,46.25724515991211,10.617310037231444,46.52924515991211Q10.768950037231445,46.59504515991211,10.906590037231446,46.501345159912105Q11.037800037231445,46.412145159912114,11.040010037231445,46.25404515991211Q11.070890037231445,44.03264515991211,12.688260037231444,43.77624515991211Q13.345030037231446,43.67204515991211,14.089960037231446,43.92604515991211Q14.792330037231446,44.165545159912114,15.251260037231445,44.60234515991211Z" fill-rule="evenodd" fill="#000000" fill-opacity="1"/></g><g transform="matrix(-1,0,0,1,99.22966766357422,0)"><path d="M58.54253383178711,44.41344515991211C58.54253383178711,44.41344515991211,68.73823383178711,29.58336600991211,68.73823383178711,29.58336600991211C68.74503383178711,29.57337540991211,68.76043383178711,29.58193130991211,68.75563383178711,29.59303885991211C68.75563383178711,29.59303885991211,62.280833831787106,44.39294515991211,62.280833831787106,44.39294515991211C62.26633383178711,44.42594515991211,62.29243383178711,44.46294515991211,62.32853383178711,44.46334515991211C65.91113383178711,44.50144515991211,65.97703383178711,47.15514515991211,64.24063383178711,48.14064515991211C64.2002338317871,48.163545159912104,64.20943383178711,48.22714515991211,64.25413383178712,48.23954515991211C67.80363383178711,49.219645159912105,66.91123383178711,52.809145159912106,64.2029338317871,52.88034515991211C64.16583383178711,52.88134515991211,64.14143383178711,52.922545159912104,64.1575338317871,52.95604515991211C65.9040338317871,56.595345159912114,61.43783383178711,58.422845159912114,60.42103383178711,55.80324515991211C60.40493383178711,55.761645159912106,60.34393383178711,55.75784515991211,60.32313383178711,55.79724515991211C58.45460383178711,59.35334515991211,54.84506383178711,57.56964515991211,54.76836383178711,54.84104515991211C54.76727383178711,54.802245159912104,54.72212383178711,54.77904515991211,54.68861383178711,54.79874515991211C50.11307383178711,57.48604515991211,49.17852383178711,52.938245159912114,50.98510383178711,51.051845159912105C51.00615383178711,51.029845159912114,51.00181383178711,50.99294515991211,50.97764383178711,50.97444515991211C47.37051383178711,48.21614515991211,51.85143383178711,45.47334515991211,53.75883383178711,46.29984515991211C53.79294383178711,46.31464515991211,53.83163383178711,46.287745159912106,53.83215383178711,46.25054515991211C53.88231383178711,42.64254515991211,57.19493383178711,43.21164515991211,58.46596383178711,44.42144515991211C58.48860383178711,44.44304515991211,58.52482383178711,44.43914515991211,58.54253383178711,44.41344515991211C58.54253383178711,44.41344515991211,58.54253383178711,44.41344515991211,58.54253383178711,44.41344515991211Z" fill="#FFFFFF" fill-opacity="1"/><path d="M58.46400383178711,44.08634515991211L68.53223383178711,29.441733159912108Q68.6651338317871,29.24640715991211,68.87273383178712,29.36176915991211Q69.07853383178711,29.47614015991211,68.98513383178711,29.69223515991211L62.62863383178711,44.22174515991211Q65.03743383178711,44.33444515991211,65.51783383178712,45.87214515991211Q65.73313383178711,46.56144515991211,65.4045338317871,47.26184515991211Q65.16663383178711,47.76894515991211,64.71553383178711,48.12324515991211Q65.75893383178712,48.49754515991211,66.32113383178711,49.21374515991211Q66.93113383178711,49.991045159912105,66.8235338317871,50.929245159912114Q66.7204338317871,51.82914515991211,66.01833383178712,52.450245159912114Q65.38363383178711,53.011645159912106,64.5004338317871,53.11044515991211Q65.0030338317871,54.32274515991211,64.69333383178711,55.37524515991211Q64.38933383178711,56.40824515991211,63.44933383178711,56.943945159912104Q62.54313383178711,57.46034515991211,61.61603383178711,57.21714515991211Q60.78113383178711,56.99804515991211,60.35513383178711,56.24814515991211Q59.70543383178711,57.31414515991211,58.78621383178711,57.75694515991211Q57.82358383178711,58.22074515991211,56.80220383178711,57.91544515991211Q55.84585383178711,57.62944515991211,55.20722383178711,56.79344515991211Q54.64793383178711,56.06114515991211,54.54182383178711,55.16894515991211Q53.037213831787106,55.987045159912114,51.89803383178711,55.86074515991211Q50.76951383178711,55.73564515991211,50.22535983178711,54.762445159912104Q49.74570783178711,53.90464515991211,49.91081983178711,52.77484515991211Q50.05957083178711,51.75704515991211,50.65911383178711,51.04124515991211Q49.47144883178711,50.068945159912104,49.37324283178711,48.98674515991211Q49.28152283178711,47.976045159912104,50.12165383178711,47.11794515991211Q50.85311383178711,46.37084515991211,51.94244383178711,46.05364515991211Q52.88249383178711,45.77994515991211,53.59151383178711,45.976345159912114Q53.72549383178711,43.587845159912106,55.65208383178711,43.28234515991211Q56.43123383178711,43.15884515991211,57.29345383178711,43.45284515991211Q57.97419383178711,43.68494515991211,58.46400383178711,44.08634515991211ZM58.29338383178711,44.60234515991211L58.29360383178711,44.60254515991211Q58.39422383178711,44.69834515991211,58.53232383178711,44.68374515991211Q58.66983383178711,44.66924515991211,58.74839383178711,44.55524515991211L67.51643383178711,31.801765159912108L62.05183383178711,44.29274515991211Q61.98513383178711,44.44444515991211,62.079633831787106,44.58194515991211Q62.16873383178711,44.711545159912106,62.32573383178711,44.71334515991211Q64.63963383178711,44.73794515991211,65.0406338317871,46.02124515991211Q65.19793383178711,46.52494515991211,64.9519338317871,47.04944515991211Q64.69613383178711,47.594645159912105,64.1172338317871,47.92324515991211Q63.93933383178711,48.024045159912106,63.96783383178711,48.228645159912105Q63.99563383178711,48.427245159912104,64.18733383178711,48.48044515991211Q65.3651338317871,48.80564515991211,65.92773383178711,49.52244515991211Q66.41103383178711,50.13814515991211,66.32683383178711,50.87234515991211Q66.24553383178711,51.58174515991211,65.6870338317871,52.07574515991211Q65.0864338317871,52.607045159912104,64.19633383178711,52.630445159912114Q64.03103383178711,52.63484515991211,63.945633831787106,52.777845159912104Q63.86193383178711,52.91804515991211,63.93223383178711,53.06434515991211Q64.5025338317871,54.252645159912106,64.2136338317871,55.234045159912114Q63.96653383178711,56.07364515991211,63.20173383178711,56.50954515991211Q62.47283383178711,56.92494515991211,61.74283383178711,56.73344515991211Q60.971733831787105,56.531145159912114,60.65413383178711,55.71274515991211Q60.58423383178711,55.53234515991211,60.38923383178711,55.52034515991211Q60.19303383178711,55.50824515991211,60.10203383178711,55.680545159912114Q59.47765383178711,56.86884515991211,58.56919383178711,57.306545159912105Q57.781143831787105,57.686245159912104,56.94542383178711,57.43634515991211Q56.14464383178711,57.196945159912104,55.60456383178711,56.48984515991211Q55.04419383178711,55.75624515991211,55.01826383178711,54.83404515991211Q55.01334383178711,54.65864515991211,54.85675383178711,54.57654515991211Q54.70692383178711,54.497945159912106,54.561903831787106,54.58324515991211Q53.02963383178711,55.48314515991211,51.953133831787106,55.36374515991211Q51.08035383178711,55.26704515991211,50.66177383178711,54.518445159912105Q50.26501583178711,53.80884515991211,50.40556383178711,52.84714515991211Q50.54849383178711,51.86914515991211,51.16566383178711,51.22474515991211Q51.26132383178711,51.12474515991211,51.24701383178711,50.98614515991211Q51.23352383178711,50.85544515991211,51.12960383178711,50.77594515991211Q49.95623983178711,49.87864515991211,49.87119683178711,48.94154515991211Q49.80034683178711,48.160845159912114,50.47892783178711,47.46774515991211Q51.11871383178711,46.814245159912105,52.08222383178711,46.53374515991211Q53.03173383178711,46.25724515991211,53.65943383178711,46.52924515991211Q53.81107383178711,46.59504515991211,53.94871383178711,46.501345159912105Q54.07992383178711,46.412145159912114,54.08213383178711,46.25404515991211Q54.11301383178711,44.03264515991211,55.73038383178711,43.77624515991211Q56.38715383178711,43.67204515991211,57.13208383178711,43.92604515991211Q57.83445383178711,44.165545159912114,58.29338383178711,44.60234515991211Z" fill-rule="evenodd" fill="#000000" fill-opacity="1"/></g></g></svg>