<svg xmlns="http://www.w3.org/2000/svg" xmlns:xlink="http://www.w3.org/1999/xlink" fill="none" version="1.1" width="55.30743408203125" height="53.598358154296875" viewBox="0 0 55.30743408203125 53.598358154296875"><defs><mask id="master_svg0_0_1348" style="mask-type:alpha" maskUnits="userSpaceOnUse"><g transform="matrix(-0.9531612396240234,0.3024626076221466,0.302462637424469,0.9531612396240234,76.52883251923437,-11.851100522369038)"><path d="M40.08533760519409,16.476326946640015C42.70333860519409,7.879406946640015,50.47735860519409,8.977816946640015,55.31725860519409,11.003816946640015C55.36875860519409,11.025406946640015,55.425658605194094,11.003776946640015,55.447758605194096,10.952416946640014C56.93435860519409,7.4939969466400145,65.07165860519409,0.10572694664001503,71.97945860519408,6.941906946640015C78.94155860519409,13.831736946640016,71.1835586051941,31.259726946640015,63.29505860519409,35.80762694664001C63.279958605194096,35.81632694664002,63.263258605194096,35.82062694664002,63.24585860519409,35.82062694664002C50.82685860519409,35.80372694664001,37.80286860519409,23.971526946640015,40.08533760519409,16.476326946640015C40.08533760519409,16.476326946640015,40.08533760519409,16.476326946640015,40.08533760519409,16.476326946640015Z" fill="#FFFFFF" fill-opacity="1"/></g></mask></defs><g><g transform="matrix(0.4821370542049408,-0.8760958313941956,-0.8760958909988403,-0.48213690519332886,12.257577557081419,20.736781710242667)"><path d="M6.831969014367676,11.96835116607666C7.322019914367676,10.10722016607666,8.907831914367677,10.268892166076661,9.855951914367676,10.69306016607666C9.910701914367676,10.71755416607666,9.975041914367676,10.69084616607666,10.001431914367675,10.63698516607666C10.347541914367676,9.930697066076661,11.625161914367677,9.48016516607666,12.907101914367676,10.94739716607666C14.242441914367676,12.47574116607666,13.318631914367675,15.89875116607666,11.812861914367677,16.93264116607666C11.794131914367675,16.94550116607666,11.772391914367676,16.95107116607666,11.749791914367677,16.94870116607666C9.669121914367675,16.73078116607666,6.3939279143676755,13.63195116607666,6.831969014367676,11.96835116607666C6.831969014367676,11.96835116607666,6.831969014367676,11.96835116607666,6.831969014367676,11.96835116607666Z" fill="#94BEFF" fill-opacity="1"/><path d="M6.348449914367675,11.84104116607666Q5.953024914367676,13.34278116607666,7.995291914367676,15.35667116607666Q9.925841914367677,17.26040116607666,11.697641914367676,17.44597116607666Q11.915321914367675,17.46880116607666,12.095881914367677,17.34483116607666Q13.444901914367676,16.41857116607666,13.914281914367676,14.23030116607666Q14.412001914367675,11.90988116607666,13.283631914367675,10.61841916607666Q12.252581914367676,9.43834616607666,11.086591914367677,9.47740116607666Q10.199661914367676,9.50710916607666,9.741221914367676,10.10878016607666Q8.853441914367675,9.79475916607666,8.054771914367675,9.98769936607666Q6.7536871143676755,10.30201116607666,6.348449914367675,11.84104116607666ZM9.855951914367676,10.69306016607666C8.907831914367677,10.268892166076661,7.322019914367676,10.10722016607666,6.831969014367676,11.96835116607666C6.3939279143676755,13.63195116607666,9.669121914367675,16.73078116607666,11.749791914367677,16.94870116607666C11.772391914367676,16.95107116607666,11.794131914367675,16.94550116607666,11.812861914367677,16.93264116607666C13.318631914367675,15.89875116607666,14.242441914367676,12.47574116607666,12.907101914367676,10.94739716607666C11.625161914367677,9.48016516607666,10.347541914367676,9.930697066076661,10.001431914367675,10.63698516607666C9.975041914367676,10.69084616607666,9.910701914367676,10.71755416607666,9.855951914367676,10.69306016607666Z" fill-rule="evenodd" fill="#000000" fill-opacity="1"/></g><g><g transform="matrix(-0.9531612396240234,0.3024626076221466,0.302462637424469,0.9531612396240234,76.52916780158218,-11.851152443516739)"><path d="M40.085509266571044,16.476326946640015C42.703510266571044,7.879406946640015,50.477530266571044,8.977816946640015,55.317430266571044,11.003816946640015C55.36893026657104,11.025406946640015,55.42583026657105,11.003776946640015,55.44793026657105,10.952416946640014C56.934530266571045,7.4939969466400145,65.07183026657104,0.10572694664001503,71.97963026657104,6.941906946640015C78.94173026657104,13.831736946640016,71.18373026657105,31.259726946640015,63.295230266571046,35.80762694664001C63.28013026657105,35.81632694664002,63.26343026657105,35.82062694664002,63.24603026657104,35.82062694664002C50.82703026657104,35.80372694664001,37.803040266571045,23.971526946640015,40.085509266571044,16.476326946640015C40.085509266571044,16.476326946640015,40.085509266571044,16.476326946640015,40.085509266571044,16.476326946640015Z" fill="#D44040" fill-opacity="1"/><path d="M39.128883266571044,16.185026946640015Q38.17870026657104,19.305226946640015,40.10261226657104,23.109826946640016Q41.850290266571044,26.565826946640016,45.49999026657105,29.710426946640016Q49.179760266571044,32.88092694664002,53.680430266571044,34.767226946640015Q58.56453026657104,36.81422694664001,63.24603026657104,36.82062694664001Q63.54013026657104,36.82062694664001,63.794730266571044,36.673926946640016Q66.90523026657104,34.880626946640014,69.76853026657105,30.934926946640015Q72.54103026657104,27.114326946640016,74.14873026657105,22.587726946640014Q75.86433026657105,17.757426946640017,75.66803026657104,13.671286946640015Q75.44173026657104,8.961126946640015,72.68303026657105,6.231126946640014Q67.63393026657104,1.2343569466400148,61.26143026657104,4.178913346640015Q58.94063026657105,5.2512469466400145,56.982230266571044,7.195786946640014Q55.64743026657104,8.521046946640014,54.925730266571044,9.771146946640014Q50.418030266571044,8.063646946640015,46.68148026657104,8.774076946640015Q41.060250266571046,9.842836946640015,39.128883266571044,16.185026946640015ZM55.317430266571044,11.003816946640015C50.477530266571044,8.977816946640015,42.703510266571044,7.879406946640015,40.085509266571044,16.476326946640015C37.803040266571045,23.971526946640015,50.82703026657104,35.80372694664001,63.24603026657104,35.82062694664002C63.26343026657105,35.82062694664002,63.28013026657105,35.81632694664002,63.295230266571046,35.80762694664001C71.18373026657105,31.259726946640015,78.94173026657104,13.831736946640016,71.97963026657104,6.941906946640015C65.07183026657104,0.10572694664001503,56.934530266571045,7.4939969466400145,55.44793026657105,10.952416946640014C55.42583026657105,11.003776946640015,55.36893026657104,11.025406946640015,55.317430266571044,11.003816946640015Z" fill-rule="evenodd" fill="#000000" fill-opacity="1"/></g><g mask="url(#master_svg0_0_1348)"><g transform="matrix(-0.9531612396240234,0.3024626076221466,0.302462637424469,0.9531612396240234,71.2539249008082,-11.034238997972054)"><path d="M36.84545531454468,13.032819275283813C39.40371131454468,4.437909275283813,46.99920131454468,5.533799275283814,51.729901314544676,7.558899275283814C51.781901314544676,7.581149275283813,51.83960131454468,7.5591892752838135,51.86160131454468,7.507069275283813C53.31660131454468,4.047869275283814,61.26850131454468,-3.336560724716186,68.01910131454468,3.4983992752838136C74.82360131454467,10.387989275283813,67.24170131454468,27.815019275283813,59.53160131454467,32.36361927528381C59.51630131454468,32.37261927528381,59.49940131454468,32.37711927528382,59.481601314544676,32.37711927528382C47.34350131454468,32.35941927528381,34.61462131454468,20.527819275283814,36.84545531454468,13.032819275283813C36.84545531454468,13.032819275283813,36.84545531454468,13.032819275283813,36.84545531454468,13.032819275283813Z" fill="#FF4D4D" fill-opacity="1"/></g></g><g><path d="M12.235902115545654,19.976596722946166C12.198092115545654,20.19424672294617,12.343884215545653,20.401346722946165,12.561538215545655,20.439156722946166C12.779192215545654,20.476966722946166,12.986287215545655,20.331176722946168,13.024098215545655,20.113516722946166C13.024098215545655,20.113516722946166,12.235902115545654,19.976596722946166,12.235902115545654,19.976596722946166C12.235902115545654,19.976596722946166,12.235902115545654,19.976596722946166,12.235902115545654,19.976596722946166ZM18.946774215545656,16.302093722946168C19.162344215545655,16.35039672294617,19.376254215545654,16.214800722946165,19.424554215545655,15.999232722946166C19.472864215545655,15.783663722946168,19.337264215545655,15.569752722946166,19.121694215545652,15.521450722946167C19.121694215545652,15.521450722946167,18.946774215545656,16.302093722946168,18.946774215545656,16.302093722946168C18.946774215545656,16.302093722946168,18.946774215545656,16.302093722946168,18.946774215545656,16.302093722946168ZM13.024098215545655,20.113516722946166C13.168019215545653,19.285046722946166,13.641994215545655,18.094446722946167,14.577204215545654,17.235076722946168C15.491954215545654,16.394516722946168,16.880354215545655,15.839068722946166,18.946774215545656,16.302093722946168C18.946774215545656,16.302093722946168,19.121694215545652,15.521450722946167,19.121694215545652,15.521450722946167C16.809594215545655,15.003377722946167,15.151054215545654,15.621298722946166,14.035914215545654,16.646016722946168C12.941226215545655,17.65191672294617,12.402340215545655,19.018506722946167,12.235902115545654,19.976596722946166C12.235902115545654,19.976596722946166,13.024098215545655,20.113516722946166,13.024098215545655,20.113516722946166C13.024098215545655,20.113516722946166,13.024098215545655,20.113516722946166,13.024098215545655,20.113516722946166Z" fill="#FFFFFF" fill-opacity="1"/></g></g><g><g><g><path d="M50.247110126018526,53.22848709208965C42.85978012601852,54.71898709208965,37.57538012601852,41.36794709208965,36.000302605018526,34.984711692089654C35.99544010601853,34.965005692089655,36.01728262601853,34.95073499208965,36.03154342601852,34.965177892089656C36.93561612601852,35.88079909208965,50.32121012601853,49.43678709208965,50.89321012601852,49.98398709208965C51.485310126018526,50.55038709208965,52.13481012601852,52.31658709208965,50.247110126018526,53.22848709208965C50.247110126018526,53.22848709208965,50.247110126018526,53.22848709208965,50.247110126018526,53.22848709208965Z" fill="#A9CAFF" fill-opacity="1"/><path d="M51.06841012601852,49.805687092089656Q51.74931012601853,50.458887092089654,51.75001012601852,51.476487092089656Q51.750910126018525,52.77968709208965,50.355810126018525,53.45358709208965L50.32741012601852,53.46728709208965L50.296510126018525,53.47358709208965Q45.245380126018524,54.49268709208965,40.731460126018526,47.190687092089654Q39.036210126018524,44.44837709208965,37.61921012601852,40.82897709208965Q36.444494126018526,37.82841709208965,35.757583126018524,35.04460239208965Q35.71090312601852,34.85542609208965,35.87446412601852,34.751267092089655Q36.056929126018524,34.635070092089656,36.209438126018526,34.78952609208965L43.619020126018526,42.28964709208965L51.06841012601852,49.805687092089656ZM50.71791012601852,50.16238709208965L50.720310126018525,50.16468709208965Q51.24951012601852,50.670787092089654,51.25001012601852,51.476887092089655Q51.250710126018525,52.453387092089656,50.166410126018526,52.98958709208965Q45.473330126018524,53.910587092089656,41.156760126018526,46.92778709208965Q39.48530012601852,44.223957092089655,38.08480012601852,40.64669709208965Q37.095580126018525,38.11993709208965,36.45646012601853,35.75100609208965L43.26333012601852,42.64104709208965L50.71791012601852,50.16238709208965Z" fill-rule="evenodd" fill="#000000" fill-opacity="1"/></g><g><path d="M48.30192297697067,46.983857557177544C48.30192297697067,46.84578655717755,48.18999397697067,46.733857557177544,48.05192297697067,46.733857557177544C47.913851976970676,46.733857557177544,47.80192297697067,46.84578655717755,47.80192297697067,46.983857557177544C47.80192297697067,46.983857557177544,48.30192297697067,46.983857557177544,48.30192297697067,46.983857557177544C48.30192297697067,46.983857557177544,48.30192297697067,46.983857557177544,48.30192297697067,46.983857557177544ZM47.80192297697067,52.984827557177546C47.80192297697067,53.122897557177545,47.913851976970676,53.234827557177546,48.05192297697067,53.234827557177546C48.18999397697067,53.234827557177546,48.30192297697067,53.122897557177545,48.30192297697067,52.984827557177546C48.30192297697067,52.984827557177546,47.80192297697067,52.984827557177546,47.80192297697067,52.984827557177546C47.80192297697067,52.984827557177546,47.80192297697067,52.984827557177546,47.80192297697067,52.984827557177546ZM47.80192297697067,46.983857557177544C47.80192297697067,46.983857557177544,47.80192297697067,52.984827557177546,47.80192297697067,52.984827557177546C47.80192297697067,52.984827557177546,48.30192297697067,52.984827557177546,48.30192297697067,52.984827557177546C48.30192297697067,52.984827557177546,48.30192297697067,46.983857557177544,48.30192297697067,46.983857557177544C48.30192297697067,46.983857557177544,47.80192297697067,46.983857557177544,47.80192297697067,46.983857557177544C47.80192297697067,46.983857557177544,47.80192297697067,46.983857557177544,47.80192297697067,46.983857557177544Z" fill="#000000" fill-opacity="1"/></g><g><path d="M45.61800879240036,44.42559950053692C45.61800879240036,44.28752850053692,45.50607979240036,44.17559950053692,45.36800879240036,44.17559950053692C45.229937792400364,44.17559950053692,45.11800879240036,44.28752850053692,45.11800879240036,44.42559950053692C45.11800879240036,44.42559950053692,45.61800879240036,44.42559950053692,45.61800879240036,44.42559950053692C45.61800879240036,44.42559950053692,45.61800879240036,44.42559950053692,45.61800879240036,44.42559950053692ZM45.11800879240036,51.58558950053692C45.11800879240036,51.72366950053692,45.229937792400364,51.83558950053692,45.36800879240036,51.83558950053692C45.50607979240036,51.83558950053692,45.61800879240036,51.72366950053692,45.61800879240036,51.58558950053692C45.61800879240036,51.58558950053692,45.11800879240036,51.58558950053692,45.11800879240036,51.58558950053692C45.11800879240036,51.58558950053692,45.11800879240036,51.58558950053692,45.11800879240036,51.58558950053692ZM45.11800879240036,44.42559950053692C45.11800879240036,44.42559950053692,45.11800879240036,51.58558950053692,45.11800879240036,51.58558950053692C45.11800879240036,51.58558950053692,45.61800879240036,51.58558950053692,45.61800879240036,51.58558950053692C45.61800879240036,51.58558950053692,45.61800879240036,44.42559950053692,45.61800879240036,44.42559950053692C45.61800879240036,44.42559950053692,45.11800879240036,44.42559950053692,45.11800879240036,44.42559950053692C45.11800879240036,44.42559950053692,45.11800879240036,44.42559950053692,45.11800879240036,44.42559950053692Z" fill="#000000" fill-opacity="1"/></g><g><path d="M42.46595495939255,41.1153859347105C42.46595495939255,40.977314934710506,42.354025959392544,40.8653859347105,42.21595495939255,40.8653859347105C42.07788395939255,40.8653859347105,41.96595495939255,40.977314934710506,41.96595495939255,41.1153859347105C41.96595495939255,41.1153859347105,42.46595495939255,41.1153859347105,42.46595495939255,41.1153859347105C42.46595495939255,41.1153859347105,42.46595495939255,41.1153859347105,42.46595495939255,41.1153859347105ZM41.96595495939255,48.648005934710504C41.96595495939255,48.7860759347105,42.07788395939255,48.898005934710504,42.21595495939255,48.898005934710504C42.354025959392544,48.898005934710504,42.46595495939255,48.7860759347105,42.46595495939255,48.648005934710504C42.46595495939255,48.648005934710504,41.96595495939255,48.648005934710504,41.96595495939255,48.648005934710504C41.96595495939255,48.648005934710504,41.96595495939255,48.648005934710504,41.96595495939255,48.648005934710504ZM41.96595495939255,41.1153859347105C41.96595495939255,41.1153859347105,41.96595495939255,48.648005934710504,41.96595495939255,48.648005934710504C41.96595495939255,48.648005934710504,42.46595495939255,48.648005934710504,42.46595495939255,48.648005934710504C42.46595495939255,48.648005934710504,42.46595495939255,41.1153859347105,42.46595495939255,41.1153859347105C42.46595495939255,41.1153859347105,41.96595495939255,41.1153859347105,41.96595495939255,41.1153859347105C41.96595495939255,41.1153859347105,41.96595495939255,41.1153859347105,41.96595495939255,41.1153859347105Z" fill="#000000" fill-opacity="1"/></g><g><path d="M39.58805960416794,38.21279065310955C39.58805960416794,38.074719653109554,39.476130604167935,37.96279065310955,39.33805960416794,37.96279065310955C39.19998860416794,37.96279065310955,39.08805960416794,38.074719653109554,39.08805960416794,38.21279065310955C39.08805960416794,38.21279065310955,39.58805960416794,38.21279065310955,39.58805960416794,38.21279065310955C39.58805960416794,38.21279065310955,39.58805960416794,38.21279065310955,39.58805960416794,38.21279065310955ZM39.08805960416794,43.91566065310955C39.08805960416794,44.053730653109554,39.19998860416794,44.16566065310955,39.33805960416794,44.16566065310955C39.476130604167935,44.16566065310955,39.58805960416794,44.053730653109554,39.58805960416794,43.91566065310955C39.58805960416794,43.91566065310955,39.08805960416794,43.91566065310955,39.08805960416794,43.91566065310955C39.08805960416794,43.91566065310955,39.08805960416794,43.91566065310955,39.08805960416794,43.91566065310955ZM39.08805960416794,38.21279065310955C39.08805960416794,38.21279065310955,39.08805960416794,43.91566065310955,39.08805960416794,43.91566065310955C39.08805960416794,43.91566065310955,39.58805960416794,43.91566065310955,39.58805960416794,43.91566065310955C39.58805960416794,43.91566065310955,39.58805960416794,38.21279065310955,39.58805960416794,38.21279065310955C39.58805960416794,38.21279065310955,39.08805960416794,38.21279065310955,39.08805960416794,38.21279065310955C39.08805960416794,38.21279065310955,39.08805960416794,38.21279065310955,39.08805960416794,38.21279065310955Z" fill="#000000" fill-opacity="1"/></g></g><g><g transform="matrix(-0.035062916576862335,0.9993851184844971,0.9994718432426453,0.032497599720954895,2.3085970009222905,-2.1423314708420236)"><path d="M49.68187614107132,53.90509293212891C42.56868614107132,55.45299293212891,37.48031614107132,41.588532932128906,35.96348838907132,34.95925193212891C35.95891209107132,34.939251172128905,35.98104114107132,34.924859772128904,35.99489594107132,34.93999317212891C36.878226141071316,35.90483693212891,49.75347614107132,49.967692932128905,50.30407614107132,50.53569293212891C50.87417614107132,51.12389293212891,51.499576141071316,52.958092932128906,49.68187614107132,53.90509293212891C49.68187614107132,53.90509293212891,49.68187614107132,53.90509293212891,49.68187614107132,53.90509293212891Z" fill="#819AD5" fill-opacity="1"/><path d="M50.485876141071316,50.364092932128905Q51.13777614107132,51.038492932128904,51.13837614107132,52.08569293212891Q51.13917614107132,53.427692932128906,49.79737614107132,54.12679293212891L49.76767614107132,54.14219293212891L49.73497614107132,54.1492929321289Q44.85659614107132,55.2109929321289,40.50714614107132,47.622892932128906Q38.87550614107132,44.77635293212891,37.51161614107132,41.019242932128904Q36.38094014107132,37.9045829321289,35.71978714107132,35.015014732128904Q35.67674914107132,34.826918932128905,35.83924214107132,34.7247859321289Q36.02812624107132,34.60606293212891,36.17929014107132,34.77117793212891L43.31221614107132,42.558062932128905L50.485876141071316,50.364092932128905ZM50.12217614107132,50.70729293212891L50.124576141071316,50.709592932128906Q50.63787614107132,51.239292932128905,50.63837614107132,52.0859929321289Q50.63897614107132,53.11019293212891,49.59567614107132,53.667792932128904Q45.09302614107132,54.61799293212891,40.94093614107132,47.37429293212891Q39.33075614107132,44.56516293212891,37.98160614107132,40.84863293212891Q37.02979614107132,38.226672932128906,36.41435414107132,35.76802493212891L42.94351614107132,42.895792932128906L50.12217614107132,50.70729293212891Z" fill-rule="evenodd" fill="#000000" fill-opacity="1"/></g><g transform="matrix(-0.03505588695406914,0.9993853569030762,0.9994716048240662,0.03250415250658989,3.0487432932688705,-2.835023609458503)"><path d="M45.94873332977295,44.266493797302246C45.94873332977295,44.12842279730225,45.836804329772946,44.016493797302246,45.69873332977295,44.016493797302246C45.56066232977295,44.016493797302246,45.44873332977295,44.12842279730225,45.44873332977295,44.266493797302246C45.44873332977295,44.266493797302246,45.94873332977295,44.266493797302246,45.94873332977295,44.266493797302246C45.94873332977295,44.266493797302246,45.94873332977295,44.266493797302246,45.94873332977295,44.266493797302246ZM45.44873332977295,51.70223379730225C45.44873332977295,51.84030379730225,45.56066232977295,51.95223379730225,45.69873332977295,51.95223379730225C45.836804329772946,51.95223379730225,45.94873332977295,51.84030379730225,45.94873332977295,51.70223379730225C45.94873332977295,51.70223379730225,45.44873332977295,51.70223379730225,45.44873332977295,51.70223379730225C45.44873332977295,51.70223379730225,45.44873332977295,51.70223379730225,45.44873332977295,51.70223379730225ZM45.44873332977295,44.266493797302246C45.44873332977295,44.266493797302246,45.44873332977295,51.70223379730225,45.44873332977295,51.70223379730225C45.44873332977295,51.70223379730225,45.94873332977295,51.70223379730225,45.94873332977295,51.70223379730225C45.94873332977295,51.70223379730225,45.94873332977295,44.266493797302246,45.94873332977295,44.266493797302246C45.94873332977295,44.266493797302246,45.44873332977295,44.266493797302246,45.44873332977295,44.266493797302246C45.44873332977295,44.266493797302246,45.44873332977295,44.266493797302246,45.44873332977295,44.266493797302246Z" fill="#000000" fill-opacity="1"/></g><g transform="matrix(-0.03505588695406914,0.9993853569030762,0.9994716048240662,0.03250415250658989,2.74558036581557,-2.5500698443123824)"><path d="M42.619683265686035,41.12224245071411C42.619683265686035,40.984171450714115,42.50775426568603,40.87224245071411,42.369683265686035,40.87224245071411C42.23161226568604,40.87224245071411,42.119683265686035,40.984171450714115,42.119683265686035,41.12224245071411C42.119683265686035,41.12224245071411,42.619683265686035,41.12224245071411,42.619683265686035,41.12224245071411C42.619683265686035,41.12224245071411,42.619683265686035,41.12224245071411,42.619683265686035,41.12224245071411ZM42.119683265686035,48.94495245071411C42.119683265686035,49.08302245071411,42.23161226568604,49.19495245071411,42.369683265686035,49.19495245071411C42.50775426568603,49.19495245071411,42.619683265686035,49.08302245071411,42.619683265686035,48.94495245071411C42.619683265686035,48.94495245071411,42.119683265686035,48.94495245071411,42.119683265686035,48.94495245071411C42.119683265686035,48.94495245071411,42.119683265686035,48.94495245071411,42.119683265686035,48.94495245071411ZM42.119683265686035,41.12224245071411C42.119683265686035,41.12224245071411,42.119683265686035,48.94495245071411,42.119683265686035,48.94495245071411C42.119683265686035,48.94495245071411,42.619683265686035,48.94495245071411,42.619683265686035,48.94495245071411C42.619683265686035,48.94495245071411,42.619683265686035,41.12224245071411,42.619683265686035,41.12224245071411C42.619683265686035,41.12224245071411,42.119683265686035,41.12224245071411,42.119683265686035,41.12224245071411C42.119683265686035,41.12224245071411,42.119683265686035,41.12224245071411,42.119683265686035,41.12224245071411Z" fill="#000000" fill-opacity="1"/></g><g transform="matrix(-0.03505588695406914,0.9993853569030762,0.9994716048240662,0.03250415250658989,2.592937939033547,-2.4097666798118524)"><path d="M39.703078269958496,38.254520416259766C39.703078269958496,38.11644941625977,39.59114926995849,38.004520416259766,39.453078269958496,38.004520416259766C39.3150072699585,38.004520416259766,39.203078269958496,38.11644941625977,39.203078269958496,38.254520416259766C39.203078269958496,38.254520416259766,39.703078269958496,38.254520416259766,39.703078269958496,38.254520416259766C39.703078269958496,38.254520416259766,39.703078269958496,38.254520416259766,39.703078269958496,38.254520416259766ZM39.203078269958496,44.177020416259765C39.203078269958496,44.315090416259764,39.3150072699585,44.427020416259765,39.453078269958496,44.427020416259765C39.59114926995849,44.427020416259765,39.703078269958496,44.315090416259764,39.703078269958496,44.177020416259765C39.703078269958496,44.177020416259765,39.203078269958496,44.177020416259765,39.203078269958496,44.177020416259765C39.203078269958496,44.177020416259765,39.203078269958496,44.177020416259765,39.203078269958496,44.177020416259765ZM39.203078269958496,38.254520416259766C39.203078269958496,38.254520416259766,39.203078269958496,44.177020416259765,39.203078269958496,44.177020416259765C39.203078269958496,44.177020416259765,39.703078269958496,44.177020416259765,39.703078269958496,44.177020416259765C39.703078269958496,44.177020416259765,39.703078269958496,38.254520416259766,39.703078269958496,38.254520416259766C39.703078269958496,38.254520416259766,39.203078269958496,38.254520416259766,39.203078269958496,38.254520416259766C39.203078269958496,38.254520416259766,39.203078269958496,38.254520416259766,39.203078269958496,38.254520416259766Z" fill="#000000" fill-opacity="1"/></g></g></g><g><path d="M28.07784283935547,26.55919559033203C27.87949083935547,26.36707279033203,27.562948839355467,26.37212179033203,27.37082583935547,26.57047259033203C27.17870303935547,26.76882459033203,27.18375203935547,27.085366590332033,27.38210283935547,27.27748959033203C27.38210283935547,27.27748959033203,28.07784283935547,26.55919559033203,28.07784283935547,26.55919559033203C28.07784283935547,26.55919559033203,28.07784283935547,26.55919559033203,28.07784283935547,26.55919559033203ZM36.21114283935547,35.82929259033203C36.409492839355465,36.021412590332034,36.72603283935547,36.01636259033203,36.91816283935547,35.81801259033203C37.11028283935547,35.619662590332034,37.105232839355466,35.30312259033203,36.90688283935547,35.111002590332035C36.90688283935547,35.111002590332035,36.21114283935547,35.82929259033203,36.21114283935547,35.82929259033203C36.21114283935547,35.82929259033203,36.21114283935547,35.82929259033203,36.21114283935547,35.82929259033203ZM27.38210283935547,27.27748959033203C27.38210283935547,27.27748959033203,36.21114283935547,35.82929259033203,36.21114283935547,35.82929259033203C36.21114283935547,35.82929259033203,36.90688283935547,35.111002590332035,36.90688283935547,35.111002590332035C36.90688283935547,35.111002590332035,28.07784283935547,26.55919559033203,28.07784283935547,26.55919559033203C28.07784283935547,26.55919559033203,27.38210283935547,27.27748959033203,27.38210283935547,27.27748959033203C27.38210283935547,27.27748959033203,27.38210283935547,27.27748959033203,27.38210283935547,27.27748959033203Z" fill="#000000" fill-opacity="1"/></g><g><path d="M8.952548295562744,7.524109381134033C8.796338295562744,7.367900081134033,8.543072295562745,7.367900081134033,8.386862295562745,7.524109381134033C8.230652995562744,7.680319381134034,8.230652995562744,7.9335853811340336,8.386862295562745,8.089795381134033C8.386862295562745,8.089795381134033,8.952548295562744,7.524109381134033,8.952548295562744,7.524109381134033C8.952548295562744,7.524109381134033,8.952548295562744,7.524109381134033,8.952548295562744,7.524109381134033ZM12.421365295562744,12.124302381134033C12.577575295562745,12.280512381134034,12.830845295562744,12.280512381134034,12.987055295562744,12.124302381134033C13.143265295562745,11.968092381134033,13.143265295562745,11.714822381134034,12.987055295562744,11.558612381134033C12.987055295562744,11.558612381134033,12.421365295562744,12.124302381134033,12.421365295562744,12.124302381134033C12.421365295562744,12.124302381134033,12.421365295562744,12.124302381134033,12.421365295562744,12.124302381134033ZM8.386862295562745,8.089795381134033C8.386862295562745,8.089795381134033,12.421365295562744,12.124302381134033,12.421365295562744,12.124302381134033C12.421365295562744,12.124302381134033,12.987055295562744,11.558612381134033,12.987055295562744,11.558612381134033C12.987055295562744,11.558612381134033,8.952548295562744,7.524109381134033,8.952548295562744,7.524109381134033C8.952548295562744,7.524109381134033,8.386862295562745,8.089795381134033,8.386862295562745,8.089795381134033C8.386862295562745,8.089795381134033,8.386862295562745,8.089795381134033,8.386862295562745,8.089795381134033Z" fill="#000000" fill-opacity="1"/></g></g></svg>