<svg xmlns="http://www.w3.org/2000/svg" xmlns:xlink="http://www.w3.org/1999/xlink" fill="none" version="1.1" width="57.126007080078125" height="57.1229248046875" viewBox="0 0 57.126007080078125 57.1229248046875"><defs><filter id="master_svg0_0_193" filterUnits="objectBoundingBox" color-interpolation-filters="sRGB" x="-2" y="-2" width="9.612292289733887" height="7.741528034210205"><feFlood flood-opacity="0" result="BackgroundImageFix"/><feBlend mode="normal" in="SourceGraphic" in2="BackgroundImageFix" result="shape"/><feGaussianBlur stdDeviation="0.5" result="effect1_foregroundBlur"/></filter><filter id="master_svg1_0_194" filterUnits="objectBoundingBox" color-interpolation-filters="sRGB" x="-2" y="-2" width="9.612292289733887" height="7.741528034210205"><feFlood flood-opacity="0" result="BackgroundImageFix"/><feBlend mode="normal" in="SourceGraphic" in2="BackgroundImageFix" result="shape"/><feGaussianBlur stdDeviation="0.5" result="effect1_foregroundBlur"/></filter><mask id="master_svg2_0_200" style="mask-type:alpha" maskUnits="userSpaceOnUse"><g><path d="M41.35055026550293,31.33119764099121C43.16995026550293,34.14451764099121,39.80435026550293,43.52759764099121,27.70355026550293,43.527497640991214C15.60271026550293,43.527497640991214,12.23702026550293,33.20681764099121,14.05661126550293,31.33119764099121C15.87620026550293,29.45558064099121,22.531230265502927,32.303017640991214,27.62605026550293,32.303017640991214C32.72095026550293,32.303017640991214,39.53115026550293,28.51786764099121,41.35055026550293,31.33119764099121C41.35055026550293,31.33119764099121,41.35055026550293,31.33119764099121,41.35055026550293,31.33119764099121Z" fill="#FFFFFF" fill-opacity="1"/></g></mask></defs><g><g><path d="M28.5615,56.6229Q29.2503,56.6229,29.9384,56.5891Q30.6264,56.5553,31.312,56.4878Q31.9975,56.4203,32.6789,56.3192Q33.3603,56.2181,34.036,56.0837Q34.7116,55.9493,35.3798,55.7819Q36.0481,55.6146,36.7073,55.4146Q37.3665,55.2146,38.0151,54.9826Q38.6637,54.7505,39.3001,54.4869Q39.9365,54.2232,40.5593,53.9287Q41.182,53.6342,41.7895,53.3095Q42.3971,52.9847,42.9879,52.6306Q43.5788,52.2764,44.1516,51.8937Q44.7243,51.511,45.2776,51.1006Q45.831,50.6903,46.3635,50.2533Q46.896,49.8162,47.4064,49.3536Q47.9168,48.891,48.4039,48.4039Q48.891,47.9168,49.3536,47.4064Q49.8162,46.896,50.2533,46.3635Q50.6903,45.831,51.1006,45.2776Q51.511,44.7243,51.8937,44.1516Q52.2764,43.5788,52.6306,42.9879Q52.9847,42.3971,53.3095,41.7895Q53.6342,41.182,53.9287,40.5593Q54.2232,39.9365,54.4869,39.3001Q54.7505,38.6637,54.9826,38.0151Q55.2146,37.3665,55.4146,36.7073Q55.6146,36.0481,55.782,35.3798Q55.9493,34.7116,56.0837,34.036Q56.2181,33.3603,56.3192,32.6789Q56.4203,31.9975,56.4878,31.312Q56.5553,30.6264,56.5891,29.9384Q56.6229,29.2503,56.6229,28.5615Q56.6229,27.8726,56.5891,27.1846Q56.5553,26.4965,56.4878,25.811Q56.4203,25.1254,56.3192,24.444Q56.2181,23.7626,56.0837,23.0869Q55.9493,22.4113,55.7819,21.7431Q55.6146,21.0749,55.4146,20.4156Q55.2146,19.7564,54.9826,19.1078Q54.7505,18.4592,54.4869,17.8228Q54.2232,17.1864,53.9287,16.5636Q53.6342,15.9409,53.3095,15.3334Q52.9847,14.7259,52.6306,14.135Q52.2764,13.5441,51.8937,12.9713Q51.511,12.3986,51.1006,11.8453Q50.6903,11.292,50.2533,10.7595Q49.8162,10.22695,49.3536,9.71654Q48.891,9.20612,48.4039,8.71901Q47.9168,8.23191,47.4064,7.76929Q46.896,7.30667,46.3635,6.86966Q45.831,6.43264,45.2776,6.02228Q44.7243,5.61192,44.1516,5.22921Q43.5788,4.84649,42.9879,4.49234Q42.3971,4.13819,41.7895,3.81346Q41.182,3.48873,40.5593,3.1942Q39.9365,2.89967,39.3001,2.63605Q38.6637,2.37243,38.0151,2.1403600000000003Q37.3665,1.90829,36.7073,1.70832Q36.0481,1.50835,35.3798,1.340967Q34.7116,1.173585,34.036,1.039193Q33.3603,0.904801,32.6789,0.803723Q31.9975,0.702645,31.312,0.635124Q30.6264,0.5676025,29.9384,0.5338013Q29.2503,0.5,28.5615,0.5Q27.8726,0.5,27.1846,0.5338013Q26.4965,0.5676025,25.811,0.635124Q25.1254,0.702645,24.444,0.803723Q23.7626,0.904801,23.0869,1.039193Q22.4113,1.173585,21.7431,1.340967Q21.0749,1.50835,20.4156,1.70832Q19.7564,1.90829,19.1078,2.1403600000000003Q18.4592,2.37243,17.8228,2.63605Q17.1864,2.89967,16.5636,3.1942Q15.9409,3.48873,15.3334,3.81346Q14.7259,4.13819,14.135,4.49234Q13.5441,4.84649,12.9713,5.22921Q12.3986,5.61192,11.8453,6.02228Q11.292,6.43264,10.7595,6.86966Q10.22695,7.30667,9.71654,7.76929Q9.20612,8.23191,8.71901,8.71901Q8.23191,9.20612,7.76929,9.71654Q7.30667,10.22695,6.86966,10.7595Q6.43264,11.292,6.02228,11.8453Q5.61192,12.3986,5.22921,12.9713Q4.84649,13.5441,4.49234,14.135Q4.13819,14.7259,3.81346,15.3334Q3.48873,15.9409,3.1942,16.5636Q2.89967,17.1864,2.63605,17.8228Q2.37243,18.4592,2.1403600000000003,19.1078Q1.90829,19.7564,1.70832,20.4156Q1.50835,21.0749,1.340967,21.7431Q1.173585,22.4113,1.039193,23.0869Q0.904801,23.7626,0.803723,24.444Q0.702645,25.1254,0.635124,25.811Q0.5676025,26.4965,0.5338013,27.1846Q0.5,27.8726,0.5,28.5615Q0.5,29.6907,0.5907329,30.8162Q0.681466,31.9418,0.8623449999999999,33.0564Q1.043224,34.171,1.313079,35.2675Q1.58293,36.364,1.94002,37.4353Q2.29711,38.5065,2.73912,39.5456Q3.18113,40.5847,3.7052,41.585Q4.22927,42.5852,4.83202,43.5401Q5.43477,44.495,6.11229,45.3983L4.24153,53.8168L12.0151,51.2256Q12.9088,51.8781,13.8512,52.4582Q14.7935,53.0383,15.7786,53.5424Q16.7637,54.0464,17.7855,54.4714Q18.8072,54.8963,19.8592,55.2395Q20.9113,55.5827,21.9871,55.8419Q23.0629,56.1012,24.1557,56.2749Q25.2486,56.4486,26.3517,56.5358Q27.4549,56.6229,28.5615,56.6229Z" fill-rule="evenodd" fill="#FFCF00" fill-opacity="1"/><path d="M28.5615,56.1229Q33.8186,56.1229,38.7067,54.1878Q44.014,52.0867,48.0504,48.0504Q52.0867,44.0141,54.1878,38.7067Q56.1229,33.8186,56.1229,28.5615Q56.1229,23.3043,54.1878,18.4162Q52.0867,13.1089,48.0504,9.07257Q44.0141,5.03629,38.7067,2.93514Q33.8186,1,28.5615,1Q23.3043,1,18.4162,2.93514Q13.1088,5.03628,9.07257,9.07257Q5.03629,13.1089,2.93514,18.4162Q1,23.3043,1,28.5615Q1,37.7487,6.51229,45.0983L6.65027,45.2823L4.72963,53.9252L4.24153,53.8168L4.08342,53.3424L12.1016,50.6697L12.3099,50.8218Q19.571,56.123,28.5615,56.1229ZM28.5615,57.1229Q19.2449,57.1229,11.7203,51.6294L12.0151,51.2256L12.1732,51.6999L3.56187,54.5704L5.6242,45.2899L6.11229,45.3983L5.71229,45.6983Q0,38.082,0,28.5615Q0,23.1135,2.00535,18.0481Q4.18272,12.5482,8.365459999999999,8.365459999999999Q12.5482,4.182729999999999,18.0481,2.00535Q23.1136,0,28.5615,0Q34.0094,0,39.0748,2.00535Q44.5747,4.182729999999999,48.7575,8.365459999999999Q52.9402,12.5483,55.1176,18.0481Q57.1229,23.1136,57.1229,28.5615Q57.1229,34.0093,55.1176,39.0748Q52.9402,44.5747,48.7575,48.7575Q44.5747,52.9402,39.0748,55.1176Q34.0093,57.1229,28.5615,57.1229Z" fill="#000000" fill-opacity="1"/></g><g filter="url(#master_svg0_0_193)"><ellipse cx="46.33371877670288" cy="30.432222604751587" rx="2.8061461448669434" ry="1.8707640171051025" fill="#FF8B72" fill-opacity="1"/></g><g filter="url(#master_svg1_0_194)"><ellipse cx="10.789203643798828" cy="30.432222604751587" rx="2.8061461448669434" ry="1.8707640171051025" fill="#FF8B72" fill-opacity="1"/></g><g><path d="M12.659964561462402,21.01378631591797C12.107679561462403,21.01378631591797,11.659964561462402,21.461501315917968,11.659964561462402,22.01378631591797C11.659964561462402,22.56606631591797,12.107679561462403,23.01378631591797,12.659964561462402,23.01378631591797C12.659964561462402,23.01378631591797,12.659964561462402,21.01378631591797,12.659964561462402,21.01378631591797C12.659964561462402,21.01378631591797,12.659964561462402,21.01378631591797,12.659964561462402,21.01378631591797ZM22.013764561462402,23.01378631591797C22.566064561462404,23.01378631591797,23.013764561462402,22.56606631591797,23.013764561462402,22.01378631591797C23.013764561462402,21.461501315917968,22.566064561462404,21.01378631591797,22.013764561462402,21.01378631591797C22.013764561462402,21.01378631591797,22.013764561462402,23.01378631591797,22.013764561462402,23.01378631591797C22.013764561462402,23.01378631591797,22.013764561462402,23.01378631591797,22.013764561462402,23.01378631591797ZM12.659964561462402,23.01378631591797C12.659964561462402,23.01378631591797,22.013764561462402,23.01378631591797,22.013764561462402,23.01378631591797C22.013764561462402,23.01378631591797,22.013764561462402,21.01378631591797,22.013764561462402,21.01378631591797C22.013764561462402,21.01378631591797,12.659964561462402,21.01378631591797,12.659964561462402,21.01378631591797C12.659964561462402,21.01378631591797,12.659964561462402,23.01378631591797,12.659964561462402,23.01378631591797C12.659964561462402,23.01378631591797,12.659964561462402,23.01378631591797,12.659964561462402,23.01378631591797Z" fill="#000000" fill-opacity="1"/></g><g><path d="M36.044517517089844,21.01378631591797C35.492232517089846,21.01378631591797,35.044517517089844,21.461501315917968,35.044517517089844,22.01378631591797C35.044517517089844,22.56606631591797,35.492232517089846,23.01378631591797,36.044517517089844,23.01378631591797C36.044517517089844,23.01378631591797,36.044517517089844,21.01378631591797,36.044517517089844,21.01378631591797C36.044517517089844,21.01378631591797,36.044517517089844,21.01378631591797,36.044517517089844,21.01378631591797ZM45.39831751708984,23.01378631591797C45.950617517089846,23.01378631591797,46.39831751708984,22.56606631591797,46.39831751708984,22.01378631591797C46.39831751708984,21.461501315917968,45.950617517089846,21.01378631591797,45.39831751708984,21.01378631591797C45.39831751708984,21.01378631591797,45.39831751708984,23.01378631591797,45.39831751708984,23.01378631591797C45.39831751708984,23.01378631591797,45.39831751708984,23.01378631591797,45.39831751708984,23.01378631591797ZM36.044517517089844,23.01378631591797C36.044517517089844,23.01378631591797,45.39831751708984,23.01378631591797,45.39831751708984,23.01378631591797C45.39831751708984,23.01378631591797,45.39831751708984,21.01378631591797,45.39831751708984,21.01378631591797C45.39831751708984,21.01378631591797,36.044517517089844,21.01378631591797,36.044517517089844,21.01378631591797C36.044517517089844,21.01378631591797,36.044517517089844,23.01378631591797,36.044517517089844,23.01378631591797C36.044517517089844,23.01378631591797,36.044517517089844,23.01378631591797,36.044517517089844,23.01378631591797Z" fill="#000000" fill-opacity="1"/></g><g><g><path d="M41.35055026550293,31.33119764099121C43.16995026550293,34.14451764099121,39.80435026550293,43.52759764099121,27.70355026550293,43.527497640991214C15.60271026550293,43.527497640991214,12.23702026550293,33.20681764099121,14.05661126550293,31.33119764099121C15.87620026550293,29.45558064099121,22.531230265502927,32.303017640991214,27.62605026550293,32.303017640991214C32.72095026550293,32.303017640991214,39.53115026550293,28.51786764099121,41.35055026550293,31.33119764099121C41.35055026550293,31.33119764099121,41.35055026550293,31.33119764099121,41.35055026550293,31.33119764099121Z" fill="#000000" fill-opacity="1"/><path d="M33.781450265502926,30.724302640991212Q29.52945026550293,31.80301764099121,27.62605026550293,31.80301764099121Q25.622050265502928,31.80301764099121,21.22185026550293,30.92066364099121Q18.10818026550293,30.296294670991212,16.84048026550293,30.21375814099121Q14.586417265502929,30.06700364099121,13.69774026550293,30.98304464099121Q12.78455626550293,31.92434764099121,13.22952526550293,34.127157640991214Q13.67570156550293,36.33593764099121,15.26098026550293,38.43413764099121Q17.12155026550293,40.89669764099121,19.98624026550293,42.33259764099121Q23.367660265502927,44.027497640991214,27.70355026550293,44.027497640991214Q36.01375026550293,44.02759764099121,40.139750265502926,38.79394764099121Q41.74045026550293,36.76354764099121,42.17815026550293,34.51947764099121Q42.60215026550293,32.34582764099121,41.77045026550293,31.05967664099121Q40.863450265502934,29.65732564099121,38.42625026550293,29.806371640991213Q37.07355026550293,29.88909164099121,33.781450265502926,30.724302640991212ZM21.02524026550293,31.901147640991212Q25.52275026550293,32.803017640991214,27.62605026550293,32.803017640991214Q29.65435026550293,32.803017640991214,34.02735026550293,31.69359764099121Q37.22845026550293,30.88149164099121,38.48725026550293,30.80450764099121Q40.34115026550293,30.69113564099121,40.93065026550293,31.602717640991212Q41.543450265502926,32.55022764099121,41.196650265502925,34.32803764099121Q40.80535026550293,36.33452764099121,39.35445026550293,38.174837640991214Q35.52865026550293,43.02759764099121,27.70355026550293,43.027497640991214Q19.984840265502932,43.027497640991214,16.05886026550293,37.83130764099121Q14.61082026550293,35.91476764099121,14.209727265502929,33.92914764099121Q13.86904526550293,32.24261764099121,14.41548626550293,31.67934764099121Q14.98247026550293,31.094906640991212,16.77551026550293,31.21164564099121Q17.97681026550293,31.289858640991213,21.02524026550293,31.901147640991212Z" fill-rule="evenodd" fill="#000000" fill-opacity="1"/></g><g mask="url(#master_svg2_0_200)"><g><path d="M27.626088277282715,38.85066223144531C21.639638277282714,38.85066223144531,19.519442277282714,42.59219223144531,19.207648277282715,44.462952231445314C19.207648277282715,44.462952231445314,36.044548277282715,44.462952231445314,36.044548277282715,44.462952231445314C35.73274827728271,42.59219223144531,33.61254827728271,38.85066223144531,27.626088277282715,38.85066223144531C27.626088277282715,38.85066223144531,27.626088277282715,38.85066223144531,27.626088277282715,38.85066223144531Z" fill="#D50B00" fill-opacity="1"/></g><g><path d="M27.86995026550293,36.044521329460146C8.59643026550293,36.044521329460146,14.103307265502929,31.055811329460145,15.02108026550293,28.561461329460144C15.02108026550293,28.561461329460144,43.47205026550293,28.561461329460144,43.47205026550293,28.561461329460144C43.47215026550293,31.055811329460145,45.307550265502925,36.044521329460146,27.86995026550293,36.044521329460146C27.86995026550293,36.044521329460146,27.86995026550293,36.044521329460146,27.86995026550293,36.044521329460146Z" fill="#F4F4F6" fill-opacity="1"/></g></g></g><g><path d="M56.60354213256836,13.595258757704496C56.849842132568355,16.869158757704497,54.73264213256836,20.142958757704495,50.99868213256836,20.142958757704495C47.322222132568356,20.142958757704495,45.205451132568356,16.869158757704497,45.41220873256836,13.595258757704496C45.61654713256836,10.359808757704496,48.84911213256836,3.1326087577044963,50.92530213256836,0.5883694577044963C50.96431213256836,0.5405534577044964,51.03310213256836,0.5403277577044964,51.07246213256836,0.5878608577044964C53.17906213256836,3.1316487577044962,56.360142132568356,10.359598757704497,56.60354213256836,13.595258757704496C56.60354213256836,13.595258757704496,56.60354213256836,13.595258757704496,56.60354213256836,13.595258757704496Z" fill="#95F6FC" fill-opacity="1"/><path d="M54.99594213256836,6.634388757704496Q53.11928213256836,2.2755587577044967,51.45757213256836,0.2689687577044964L51.45755213256836,0.26895175770449636Q51.27740213256836,0.05140875770449638,50.997052132568356,0.05236175770449636Q50.71653213256836,0.05331575770449637,50.53791213256836,0.2722457577044964Q48.87896213256836,2.3051887577044967,47.00785213256836,6.634238757704496Q45.06729213256836,11.123958757704496,44.91320313256836,13.563758757704496Q44.73772513256836,16.342358757704496,46.35581513256836,18.405458757704498Q48.110792132568356,20.642958757704495,50.99868213256836,20.642958757704495Q53.92787213256836,20.642958757704495,55.686742132568355,18.405858757704497Q57.31144213256836,16.339558757704495,57.10214213256836,13.557758757704496Q56.91694213256836,11.096258757704497,54.99594213256836,6.634388757704496ZM51.00106213256836,1.3055047577044965Q49.56296213256836,3.2431587577044962,47.92577213256836,7.030988757704496Q46.05432513256836,11.360858757704497,45.91121513256836,13.626858757704497Q45.75975513256836,16.025058757704496,47.14266213256836,17.788258757704497Q48.59735213256836,19.642958757704495,50.99868213256836,19.642958757704495Q53.44203213256836,19.642958757704495,54.90065213256836,17.787858757704495Q56.28504213256836,16.027058757704495,56.10494213256836,13.632758757704496Q55.93234213256836,11.338058757704497,54.07746213256836,7.029838757704496Q52.43792213256836,3.2217587577044964,51.00106213256836,1.3055047577044965Z" fill-rule="evenodd" fill="#000000" fill-opacity="1"/></g></g></svg>