<svg xmlns="http://www.w3.org/2000/svg" xmlns:xlink="http://www.w3.org/1999/xlink" fill="none" version="1.1" width="57.1229248046875" height="57.1229248046875" viewBox="0 0 57.1229248046875 57.1229248046875"><defs><filter id="master_svg0_0_832" filterUnits="objectBoundingBox" color-interpolation-filters="sRGB" x="-1" y="-1" width="7.612292289733887" height="5.741528034210205"><feFlood flood-opacity="0" result="BackgroundImageFix"/><feBlend mode="normal" in="SourceGraphic" in2="BackgroundImageFix" result="shape"/><feGaussianBlur stdDeviation="0.25" result="effect1_foregroundBlur"/></filter></defs><g><g><path d="M28.5615,56.6229Q29.2503,56.6229,29.9384,56.5891Q30.6264,56.5553,31.312,56.4878Q31.9975,56.4203,32.6789,56.3192Q33.3603,56.2181,34.036,56.0837Q34.7116,55.9493,35.3798,55.7819Q36.0481,55.6146,36.7073,55.4146Q37.3665,55.2146,38.0151,54.9826Q38.6637,54.7505,39.3001,54.4869Q39.9365,54.2232,40.5593,53.9287Q41.182,53.6342,41.7895,53.3095Q42.3971,52.9847,42.9879,52.6306Q43.5788,52.2764,44.1516,51.8937Q44.7243,51.511,45.2776,51.1006Q45.831,50.6903,46.3635,50.2533Q46.896,49.8162,47.4064,49.3536Q47.9168,48.891,48.4039,48.4039Q48.891,47.9168,49.3536,47.4064Q49.8162,46.896,50.2533,46.3635Q50.6903,45.831,51.1006,45.2776Q51.511,44.7243,51.8937,44.1516Q52.2764,43.5788,52.6306,42.9879Q52.9847,42.3971,53.3095,41.7895Q53.6342,41.182,53.9287,40.5593Q54.2232,39.9365,54.4869,39.3001Q54.7505,38.6637,54.9826,38.0151Q55.2146,37.3665,55.4146,36.7073Q55.6146,36.0481,55.782,35.3798Q55.9493,34.7116,56.0837,34.036Q56.2181,33.3603,56.3192,32.6789Q56.4203,31.9975,56.4878,31.312Q56.5553,30.6264,56.5891,29.9384Q56.6229,29.2503,56.6229,28.5615Q56.6229,27.8726,56.5891,27.1846Q56.5553,26.4965,56.4878,25.811Q56.4203,25.1254,56.3192,24.444Q56.2181,23.7626,56.0837,23.0869Q55.9493,22.4113,55.7819,21.7431Q55.6146,21.0749,55.4146,20.4156Q55.2146,19.7564,54.9826,19.1078Q54.7505,18.4592,54.4869,17.8228Q54.2232,17.1864,53.9287,16.5636Q53.6342,15.9409,53.3095,15.3334Q52.9847,14.7259,52.6306,14.135Q52.2764,13.5441,51.8937,12.9713Q51.511,12.3986,51.1006,11.8453Q50.6903,11.292,50.2533,10.7595Q49.8162,10.22695,49.3536,9.71654Q48.891,9.20612,48.4039,8.71901Q47.9168,8.23191,47.4064,7.76929Q46.896,7.30667,46.3635,6.86966Q45.831,6.43264,45.2776,6.02228Q44.7243,5.61192,44.1516,5.22921Q43.5788,4.84649,42.9879,4.49234Q42.3971,4.13819,41.7895,3.81346Q41.182,3.48873,40.5593,3.1942Q39.9365,2.89967,39.3001,2.63605Q38.6637,2.37243,38.0151,2.1403600000000003Q37.3665,1.90829,36.7073,1.70832Q36.0481,1.50835,35.3798,1.340967Q34.7116,1.173585,34.036,1.039193Q33.3603,0.904801,32.6789,0.803723Q31.9975,0.702645,31.312,0.635124Q30.6264,0.5676025,29.9384,0.5338013Q29.2503,0.5,28.5615,0.5Q27.8726,0.5,27.1846,0.5338013Q26.4965,0.5676025,25.811,0.635124Q25.1254,0.702645,24.444,0.803723Q23.7626,0.904801,23.0869,1.039193Q22.4113,1.173585,21.7431,1.340967Q21.0749,1.50835,20.4156,1.70832Q19.7564,1.90829,19.1078,2.1403600000000003Q18.4592,2.37243,17.8228,2.63605Q17.1864,2.89967,16.5636,3.1942Q15.9409,3.48873,15.3334,3.81346Q14.7259,4.13819,14.135,4.49234Q13.5441,4.84649,12.9713,5.22921Q12.3986,5.61192,11.8453,6.02228Q11.292,6.43264,10.7595,6.86966Q10.22695,7.30667,9.71654,7.76929Q9.20612,8.23191,8.71901,8.71901Q8.23191,9.20612,7.76929,9.71654Q7.30667,10.22695,6.86966,10.7595Q6.43264,11.292,6.02228,11.8453Q5.61192,12.3986,5.22921,12.9713Q4.84649,13.5441,4.49234,14.135Q4.13819,14.7259,3.81346,15.3334Q3.48873,15.9409,3.1942,16.5636Q2.89967,17.1864,2.63605,17.8228Q2.37243,18.4592,2.1403600000000003,19.1078Q1.90829,19.7564,1.70832,20.4156Q1.50835,21.0749,1.340967,21.7431Q1.173585,22.4113,1.039193,23.0869Q0.904801,23.7626,0.803723,24.444Q0.702645,25.1254,0.635124,25.811Q0.5676025,26.4965,0.5338013,27.1846Q0.5,27.8726,0.5,28.5615Q0.4999999999999988,29.6907,0.5907328000000001,30.8162Q0.681466,31.9418,0.8623449999999999,33.0564Q1.043224,34.171,1.313079,35.2675Q1.58293,36.364,1.94002,37.4353Q2.29711,38.5065,2.73912,39.5456Q3.18112,40.5847,3.7052,41.585Q4.22927,42.5852,4.83202,43.5401Q5.43476,44.495,6.11229,45.3983L4.24155,53.8168L12.0151,51.2256Q12.9088,51.8781,13.8512,52.4582Q14.7935,53.0383,15.7786,53.5424Q16.7637,54.0464,17.7855,54.4714Q18.8072,54.8963,19.8593,55.2395Q20.9113,55.5827,21.9871,55.8419Q23.0629,56.1012,24.1557,56.2749Q25.2486,56.4486,26.3517,56.5358Q27.4549,56.6229,28.5615,56.6229Z" fill-rule="evenodd" fill="#FFCF00" fill-opacity="1"/><path d="M28.5615,56.1229Q33.8186,56.1229,38.7067,54.1878Q44.014,52.0867,48.0504,48.0504Q52.0867,44.0141,54.1878,38.7067Q56.1229,33.8186,56.1229,28.5615Q56.1229,23.3043,54.1878,18.4162Q52.0867,13.1089,48.0504,9.07257Q44.0141,5.03629,38.7067,2.93514Q33.8186,1,28.5615,1Q23.3043,1,18.4162,2.93514Q13.1088,5.03628,9.07257,9.07257Q5.03629,13.1089,2.93514,18.4162Q1,23.3043,1,28.5615Q1,37.7486,6.51229,45.0983L6.65027,45.2823L4.72964,53.9252L4.24155,53.8168L4.08343,53.3424L12.1016,50.6697L12.3099,50.8218Q19.571,56.123,28.5615,56.1229ZM28.5615,57.1229Q19.2449,57.1229,11.7203,51.6294L12.0151,51.2256L12.1732,51.6999L3.56189,54.5704L5.62419,45.2899L6.11229,45.3983L5.71229,45.6983Q0,38.082,0,28.5615Q0,23.1135,2.00535,18.0481Q4.18272,12.5482,8.365459999999999,8.365459999999999Q12.5482,4.182729999999999,18.0481,2.00535Q23.1136,0,28.5615,0Q34.0094,0,39.0748,2.00535Q44.5747,4.182729999999999,48.7575,8.365459999999999Q52.9402,12.5483,55.1176,18.0481Q57.1229,23.1136,57.1229,28.5615Q57.1229,34.0093,55.1176,39.0748Q52.9402,44.5747,48.7575,48.7575Q44.5747,52.9402,39.0748,55.1176Q34.0093,57.1229,28.5615,57.1229Z" fill="#000000" fill-opacity="1"/></g><g filter="url(#master_svg0_0_832)"><ellipse cx="8.918433666229248" cy="30.432222604751587" rx="2.8061461448669434" ry="1.8707640171051025" fill="#FF8D6E" fill-opacity="1"/></g><g><ellipse cx="16.401511669158936" cy="25.755311489105225" rx="2.8061461448669434" ry="4.676909923553467" fill="#000000" fill-opacity="1"/></g><g><ellipse cx="38.85066366195679" cy="25.755311489105225" rx="2.8061461448669434" ry="4.676909923553467" fill="#000000" fill-opacity="1"/></g><g transform="matrix(0.999690055847168,-0.024895627051591873,0.024895627051591873,0.999690055847168,-0.3746483473514104,0.19068062118374662)"><path d="M7.554718050396729,18.170569409179688C7.401542050396729,18.400329409179687,7.463629060396729,18.710769409179687,7.693393250396729,18.863939409179686C7.923157250396729,19.01711940917969,8.233592250396729,18.955029409179687,8.38676825039673,18.72526940917969C8.38676825039673,18.72526940917969,7.554718050396729,18.170569409179688,7.554718050396729,18.170569409179688C7.554718050396729,18.170569409179688,7.554718050396729,18.170569409179688,7.554718050396729,18.170569409179688ZM14.518410250396729,16.141769409179688C14.794560250396728,16.141769409179688,15.018410250396729,15.917911409179688,15.018410250396729,15.641769409179688C15.018410250396729,15.365627409179687,14.794560250396728,15.141769409179688,14.518410250396729,15.141769409179688C14.518410250396729,15.141769409179688,14.518410250396729,16.141769409179688,14.518410250396729,16.141769409179688C14.518410250396729,16.141769409179688,14.518410250396729,16.141769409179688,14.518410250396729,16.141769409179688ZM8.38676825039673,18.72526940917969C8.917800250396729,17.92871940917969,10.944370250396728,16.141769409179688,14.518410250396729,16.141769409179688C14.518410250396729,16.141769409179688,14.518410250396729,15.141769409179688,14.518410250396729,15.141769409179688C10.609400250396728,15.141769409179688,8.270866250396729,17.096339409179688,7.554718050396729,18.170569409179688C7.554718050396729,18.170569409179688,8.38676825039673,18.72526940917969,8.38676825039673,18.72526940917969C8.38676825039673,18.72526940917969,8.38676825039673,18.72526940917969,8.38676825039673,18.72526940917969Z" fill="#000000" fill-opacity="1"/></g><g transform="matrix(-0.999690055847168,-0.02489563077688217,-0.024895627051591873,0.999690055847168,94.19067778436187,1.172649895613489)"><path d="M46.99815514985352,18.170569409179688C46.844979149853515,18.400329409179687,46.907066159853514,18.710769409179687,47.13683034985352,18.863939409179686C47.366594349853514,19.01711940917969,47.67702934985351,18.955029409179687,47.830205349853514,18.72526940917969C47.830205349853514,18.72526940917969,46.99815514985352,18.170569409179688,46.99815514985352,18.170569409179688C46.99815514985352,18.170569409179688,46.99815514985352,18.170569409179688,46.99815514985352,18.170569409179688ZM53.961847349853514,16.141769409179688C54.237997349853515,16.141769409179688,54.461847349853514,15.917911409179688,54.461847349853514,15.641769409179688C54.461847349853514,15.365627409179687,54.237997349853515,15.141769409179688,53.961847349853514,15.141769409179688C53.961847349853514,15.141769409179688,53.961847349853514,16.141769409179688,53.961847349853514,16.141769409179688C53.961847349853514,16.141769409179688,53.961847349853514,16.141769409179688,53.961847349853514,16.141769409179688ZM47.830205349853514,18.72526940917969C48.36123734985352,17.92871940917969,50.38780734985352,16.141769409179688,53.961847349853514,16.141769409179688C53.961847349853514,16.141769409179688,53.961847349853514,15.141769409179688,53.961847349853514,15.141769409179688C50.05283734985352,15.141769409179688,47.714303349853516,17.096339409179688,46.99815514985352,18.170569409179688C46.99815514985352,18.170569409179688,47.830205349853514,18.72526940917969,47.830205349853514,18.72526940917969C47.830205349853514,18.72526940917969,47.830205349853514,18.72526940917969,47.830205349853514,18.72526940917969Z" fill="#000000" fill-opacity="1"/></g><g><path d="M28.609447236328126,37.807044982910156C24.799897236328125,37.807044982910156,20.396767236328124,41.52362498291016,21.126394236328125,42.592164982910155C21.856021236328125,43.660704982910154,24.834897236328125,40.730754982910156,28.609447236328126,40.811694982910154C32.38401723632813,40.892644982910156,35.560517236328124,43.40436498291015,36.09251723632812,42.592164982910155C36.62441723632813,41.77996498291016,32.41901723632812,37.807044982910156,28.609447236328126,37.807044982910156C28.609447236328126,37.807044982910156,28.609447236328126,37.807044982910156,28.609447236328126,37.807044982910156Z" fill="#000000" fill-opacity="1"/></g><g><path d="M51.75326410827637,28.36111388671875C51.75326410827637,28.36111388671875,36.199464108276366,40.95233388671875,36.199464108276366,40.95233388671875C35.09303410827637,41.84803388671875,33.464104108276366,41.646033886718755,32.609984108276365,40.50713388671875C31.888519108276366,39.54523388671875,31.950087108276367,38.206833886718755,32.756814108276366,37.31523388671875C32.756814108276366,37.31523388671875,46.475764108276366,22.15213288671875,46.475764108276366,22.15213288671875C47.81166410827637,20.67558288671875,50.188964108276366,20.88633288671875,51.24436410827637,22.57488388671875C51.24436410827637,22.57488388671875,52.40966410827637,24.43938388671875,52.40966410827637,24.43938388671875C53.21296410827637,25.72474388671875,52.93136410827637,27.40740388671875,51.75326410827637,28.36111388671875C51.75326410827637,28.36111388671875,51.75326410827637,28.36111388671875,51.75326410827637,28.36111388671875Z" fill="#FFFFFF" fill-opacity="1"/><path d="M53.07106410827637,26.56588388671875Q53.274364108276366,25.35125388671875,52.62166410827636,24.30688388671875L51.45636410827637,22.44237388671875Q50.598864108276366,21.07043648671875,48.98736410827637,20.92757188671875Q47.37586410827637,20.78470588671875,46.29046410827637,21.98440388671875L32.571434108276364,37.14753388671875Q31.90615810827637,37.88273388671875,31.860591108276367,38.873333886718754Q31.81502410827637,39.863933886718755,32.40997910827637,40.65713388671875Q33.11433410827637,41.59633388671875,34.279334108276366,41.74083388671875Q35.444334108276365,41.885333886718755,36.356764108276366,41.146633886718746L51.91056410827637,28.55542388671875Q52.86776410827637,27.78054388671875,53.07106410827637,26.56588388671875ZM51.03236410827637,22.707383886718752L52.19766410827637,24.57188388671875Q52.749964108276366,25.45557388671875,52.57796410827637,26.48334388671875Q52.405964108276365,27.51113388671875,51.59596410827636,28.16680388671875L36.04216410827637,40.75803388671875Q35.294934108276365,41.36293388671875,34.34087410827637,41.244633886718745Q33.38681410827637,41.126333886718754,32.80998910827637,40.35713388671875Q32.32274610827637,39.70753388671875,32.360063108276364,38.89633388671875Q32.39737910827637,38.08513388671875,32.94219410827637,37.482933886718754L46.66116410827637,22.31986388671875Q47.579564108276365,21.30473188671875,48.94326410827637,21.42561788671875Q50.30686410827637,21.54650488671875,51.03236410827637,22.707383886718752Z" fill-rule="evenodd" fill="#000000" fill-opacity="1"/></g><g transform="matrix(0.9947124123573303,-0.1026996523141861,0.1026996523141861,0.9947124123573303,-2.701025018599097,3.3723922781915405)"><path d="M45.46639880065918,32.329578727416994C45.46639880065918,32.329578727416994,34.53637880065918,40.788098727416994,34.53637880065918,40.788098727416994C33.60643880065918,41.507698727416994,32.25556280065918,41.24429872741699,31.664149800659178,40.22799872741699C31.20108680065918,39.43219872741699,31.35923570065918,38.420798727416994,32.04311280065918,37.80444872741699C32.04311280065918,37.80444872741699,42.30889880065918,28.551065727416994,42.30889880065918,28.551065727416994C43.51319880065918,27.46555572741699,45.41959880065918,27.819085627416992,46.154498800659184,29.26423872741699C46.69079880065918,30.318728727416993,46.40189880065918,31.60553872741699,45.46639880065918,32.329578727416994C45.46639880065918,32.329578727416994,45.46639880065918,32.329578727416994,45.46639880065918,32.329578727416994Z" fill="#D50B00" fill-opacity="1"/></g><g><path d="M33.263948291748044,37.04161146616211C33.168630291748045,36.94172046616211,33.010382291748044,36.93801346616211,32.91049269174805,37.03333146616211C32.81060169174805,37.12864906616211,32.80689469174805,37.28689706616211,32.90221269174805,37.38678706616211C32.90221269174805,37.38678706616211,33.263948291748044,37.04161146616211,33.263948291748044,37.04161146616211C33.263948291748044,37.04161146616211,33.263948291748044,37.04161146616211,33.263948291748044,37.04161146616211ZM33.94949029174805,38.48430906616211C34.04481029174805,38.58419906616211,34.203060291748045,38.58790906616211,34.30295029174805,38.49258906616211C34.40284029174805,38.39726906616211,34.40655029174805,38.23901906616211,34.311230291748046,38.13912906616211C34.311230291748046,38.13912906616211,33.94949029174805,38.48430906616211,33.94949029174805,38.48430906616211C33.94949029174805,38.48430906616211,33.94949029174805,38.48430906616211,33.94949029174805,38.48430906616211ZM32.90221269174805,37.38678706616211C32.90221269174805,37.38678706616211,33.94949029174805,38.48430906616211,33.94949029174805,38.48430906616211C33.94949029174805,38.48430906616211,34.311230291748046,38.13912906616211,34.311230291748046,38.13912906616211C34.311230291748046,38.13912906616211,33.263948291748044,37.04161146616211,33.263948291748044,37.04161146616211C33.263948291748044,37.04161146616211,32.90221269174805,37.38678706616211,32.90221269174805,37.38678706616211C32.90221269174805,37.38678706616211,32.90221269174805,37.38678706616211,32.90221269174805,37.38678706616211Z" fill="#000000" fill-opacity="1"/></g><g><path d="M35.48292326806641,34.555384114892576C35.38267526806641,34.460441114892575,35.224442268066404,34.46474011489258,35.129499868066404,34.56498711489258C35.0345568680664,34.665234514892575,35.038855868066406,34.82346751489258,35.13910286806641,34.91841051489258C35.13910286806641,34.91841051489258,35.48292326806641,34.555384114892576,35.48292326806641,34.555384114892576C35.48292326806641,34.555384114892576,35.48292326806641,34.555384114892576,35.48292326806641,34.555384114892576ZM36.70157226806641,36.39821651489258C36.80182226806641,36.493156514892576,36.960052268066406,36.488856514892575,37.05499226806641,36.38860651489258C37.149942268066404,36.28836651489258,37.1456422680664,36.13012651489258,37.04539226806641,36.03518651489258C37.04539226806641,36.03518651489258,36.70157226806641,36.39821651489258,36.70157226806641,36.39821651489258C36.70157226806641,36.39821651489258,36.70157226806641,36.39821651489258,36.70157226806641,36.39821651489258ZM35.13910286806641,34.91841051489258C35.13910286806641,34.91841051489258,36.70157226806641,36.39821651489258,36.70157226806641,36.39821651489258C36.70157226806641,36.39821651489258,37.04539226806641,36.03518651489258,37.04539226806641,36.03518651489258C37.04539226806641,36.03518651489258,35.48292326806641,34.555384114892576,35.48292326806641,34.555384114892576C35.48292326806641,34.555384114892576,35.13910286806641,34.91841051489258,35.13910286806641,34.91841051489258C35.13910286806641,34.91841051489258,35.13910286806641,34.91841051489258,35.13910286806641,34.91841051489258Z" fill="#000000" fill-opacity="1"/></g><g><path d="M37.77053081469727,31.964075174487306C37.67289981469727,31.866444274487304,37.51460881469727,31.866444274487304,37.41697701469727,31.964075174487306C37.31934611469727,32.06170697448731,37.31934611469727,32.219997974487306,37.41697701469727,32.317628974487306C37.41697701469727,32.317628974487306,37.77053081469727,31.964075174487306,37.77053081469727,31.964075174487306C37.77053081469727,31.964075174487306,37.77053081469727,31.964075174487306,37.77053081469727,31.964075174487306ZM39.157573814697265,34.0582219744873C39.25520381469727,34.155851974487305,39.41349381469727,34.155851974487305,39.511123814697264,34.0582219744873C39.608753814697266,33.96059197448731,39.608753814697266,33.80230197448731,39.511123814697264,33.704671974487304C39.511123814697264,33.704671974487304,39.157573814697265,34.0582219744873,39.157573814697265,34.0582219744873C39.157573814697265,34.0582219744873,39.157573814697265,34.0582219744873,39.157573814697265,34.0582219744873ZM37.41697701469727,32.317628974487306C37.41697701469727,32.317628974487306,39.157573814697265,34.0582219744873,39.157573814697265,34.0582219744873C39.157573814697265,34.0582219744873,39.511123814697264,33.704671974487304,39.511123814697264,33.704671974487304C39.511123814697264,33.704671974487304,37.77053081469727,31.964075174487306,37.77053081469727,31.964075174487306C37.77053081469727,31.964075174487306,37.41697701469727,32.317628974487306,37.41697701469727,32.317628974487306C37.41697701469727,32.317628974487306,37.41697701469727,32.317628974487306,37.41697701469727,32.317628974487306Z" fill="#000000" fill-opacity="1"/></g><g><path d="M40.25266949243164,29.264278598706056C40.152730492431644,29.169011598706053,39.99448449243164,29.172799598706053,39.89921779243164,29.272738598706056C39.80395079243164,29.372678298706056,39.80773879243164,29.530924298706054,39.90767779243164,29.626190298706053C39.90767779243164,29.626190298706053,40.25266949243164,29.264278598706056,40.25266949243164,29.264278598706056C40.25266949243164,29.264278598706056,40.25266949243164,29.264278598706056,40.25266949243164,29.264278598706056ZM41.74418349243164,31.376834298706054C41.84412349243164,31.472104298706054,42.002373492431644,31.468314298706055,42.097643492431644,31.368374298706055C42.19290349243164,31.268434298706055,42.18911349243164,31.110184298706056,42.089183492431644,31.014924298706056C42.089183492431644,31.014924298706056,41.74418349243164,31.376834298706054,41.74418349243164,31.376834298706054C41.74418349243164,31.376834298706054,41.74418349243164,31.376834298706054,41.74418349243164,31.376834298706054ZM39.90767779243164,29.626190298706053C39.90767779243164,29.626190298706053,41.74418349243164,31.376834298706054,41.74418349243164,31.376834298706054C41.74418349243164,31.376834298706054,42.089183492431644,31.014924298706056,42.089183492431644,31.014924298706056C42.089183492431644,31.014924298706056,40.25266949243164,29.264278598706056,40.25266949243164,29.264278598706056C40.25266949243164,29.264278598706056,39.90767779243164,29.626190298706053,39.90767779243164,29.626190298706053C39.90767779243164,29.626190298706053,39.90767779243164,29.626190298706053,39.90767779243164,29.626190298706053Z" fill="#000000" fill-opacity="1"/></g><g><path d="M42.931563200927734,26.216138254638672C42.829139200927735,26.12354825463867,42.67104920092773,26.13152125463867,42.578458200927734,26.233945254638673C42.48586820092773,26.336369254638672,42.49384120092773,26.49446025463867,42.59626520092773,26.587050254638672C42.59626520092773,26.587050254638672,42.931563200927734,26.216138254638672,42.931563200927734,26.216138254638672C42.931563200927734,26.216138254638672,42.931563200927734,26.216138254638672,42.931563200927734,26.216138254638672ZM45.17450220092773,28.91774225463867C45.276922200927736,29.010332254638673,45.43501220092774,29.002352254638673,45.52760220092773,28.89993225463867C45.62019220092773,28.797512254638672,45.61222220092773,28.63942225463867,45.50980220092774,28.546832254638673C45.50980220092774,28.546832254638673,45.17450220092773,28.91774225463867,45.17450220092773,28.91774225463867C45.17450220092773,28.91774225463867,45.17450220092773,28.91774225463867,45.17450220092773,28.91774225463867ZM42.59626520092773,26.587050254638672C42.59626520092773,26.587050254638672,45.17450220092773,28.91774225463867,45.17450220092773,28.91774225463867C45.17450220092773,28.91774225463867,45.50980220092774,28.546832254638673,45.50980220092774,28.546832254638673C45.50980220092774,28.546832254638673,42.931563200927734,26.216138254638672,42.931563200927734,26.216138254638672C42.931563200927734,26.216138254638672,42.59626520092773,26.587050254638672,42.59626520092773,26.587050254638672C42.59626520092773,26.587050254638672,42.59626520092773,26.587050254638672,42.59626520092773,26.587050254638672Z" fill="#000000" fill-opacity="1"/></g><g><path d="M45.63571064038086,23.18239094074707C45.53750064038086,23.085342940747072,45.37921164038086,23.08628394074707,45.28216244038086,23.18449294074707C45.18511444038086,23.28270314074707,45.18605544038086,23.44099114074707,45.28426444038086,23.53804114074707C45.28426444038086,23.53804114074707,45.63571064038086,23.18239094074707,45.63571064038086,23.18239094074707C45.63571064038086,23.18239094074707,45.63571064038086,23.18239094074707,45.63571064038086,23.18239094074707ZM47.98901764038086,26.21082614074707C48.08722764038086,26.30786614074707,48.24551764038086,26.30692614074707,48.34256764038086,26.20871614074707C48.43961764038086,26.11050614074707,48.43866764038086,25.952226140747072,48.34045764038086,25.85517614074707C48.34045764038086,25.85517614074707,47.98901764038086,26.21082614074707,47.98901764038086,26.21082614074707C47.98901764038086,26.21082614074707,47.98901764038086,26.21082614074707,47.98901764038086,26.21082614074707ZM45.28426444038086,23.53804114074707C45.28426444038086,23.53804114074707,47.98901764038086,26.21082614074707,47.98901764038086,26.21082614074707C47.98901764038086,26.21082614074707,48.34045764038086,25.85517614074707,48.34045764038086,25.85517614074707C48.34045764038086,25.85517614074707,45.63571064038086,23.18239094074707,45.63571064038086,23.18239094074707C45.63571064038086,23.18239094074707,45.28426444038086,23.53804114074707,45.28426444038086,23.53804114074707C45.28426444038086,23.53804114074707,45.28426444038086,23.53804114074707,45.28426444038086,23.53804114074707Z" fill="#000000" fill-opacity="1"/></g></g></svg>