<svg xmlns="http://www.w3.org/2000/svg" xmlns:xlink="http://www.w3.org/1999/xlink" fill="none" version="1.1" width="57.1229248046875" height="57.1229248046875" viewBox="0 0 57.1229248046875 57.1229248046875"><defs><filter id="master_svg0_0_109" filterUnits="objectBoundingBox" color-interpolation-filters="sRGB" x="-2" y="-2" width="9.612292289733887" height="6.806146144866943"><feFlood flood-opacity="0" result="BackgroundImageFix"/><feBlend mode="normal" in="SourceGraphic" in2="BackgroundImageFix" result="shape"/><feGaussianBlur stdDeviation="0.5" result="effect1_foregroundBlur"/></filter><filter id="master_svg1_0_110" filterUnits="objectBoundingBox" color-interpolation-filters="sRGB" x="-2" y="-2" width="9.612292289733887" height="6.806146144866943"><feFlood flood-opacity="0" result="BackgroundImageFix"/><feBlend mode="normal" in="SourceGraphic" in2="BackgroundImageFix" result="shape"/><feGaussianBlur stdDeviation="0.5" result="effect1_foregroundBlur"/></filter></defs><g><g><path d="M28.5615,56.6229Q29.2503,56.6229,29.9384,56.5891Q30.6264,56.5553,31.312,56.4878Q31.9975,56.4203,32.6789,56.3192Q33.3603,56.2181,34.036,56.0837Q34.7116,55.9493,35.3798,55.7819Q36.0481,55.6146,36.7073,55.4146Q37.3665,55.2146,38.0151,54.9826Q38.6637,54.7505,39.3001,54.4869Q39.9365,54.2232,40.5593,53.9287Q41.182,53.6342,41.7895,53.3095Q42.3971,52.9847,42.9879,52.6306Q43.5788,52.2764,44.1516,51.8937Q44.7243,51.511,45.2776,51.1006Q45.831,50.6903,46.3635,50.2533Q46.896,49.8162,47.4064,49.3536Q47.9168,48.891,48.4039,48.4039Q48.891,47.9168,49.3536,47.4064Q49.8162,46.896,50.2533,46.3635Q50.6903,45.831,51.1006,45.2776Q51.511,44.7243,51.8937,44.1516Q52.2764,43.5788,52.6306,42.9879Q52.9847,42.3971,53.3095,41.7895Q53.6342,41.182,53.9287,40.5593Q54.2232,39.9365,54.4869,39.3001Q54.7505,38.6637,54.9826,38.0151Q55.2146,37.3665,55.4146,36.7073Q55.6146,36.0481,55.782,35.3798Q55.9493,34.7116,56.0837,34.036Q56.2181,33.3603,56.3192,32.6789Q56.4203,31.9975,56.4878,31.312Q56.5553,30.6264,56.5891,29.9384Q56.6229,29.2503,56.6229,28.5615Q56.6229,27.8726,56.5891,27.1846Q56.5553,26.4965,56.4878,25.811Q56.4203,25.1254,56.3192,24.444Q56.2181,23.7626,56.0837,23.0869Q55.9493,22.4113,55.7819,21.7431Q55.6146,21.0749,55.4146,20.4156Q55.2146,19.7564,54.9826,19.1078Q54.7505,18.4592,54.4869,17.8228Q54.2232,17.1864,53.9287,16.5636Q53.6342,15.9409,53.3095,15.3334Q52.9847,14.7259,52.6306,14.135Q52.2764,13.5441,51.8937,12.9713Q51.511,12.3986,51.1006,11.8453Q50.6903,11.292,50.2533,10.7595Q49.8162,10.22695,49.3536,9.71654Q48.891,9.20612,48.4039,8.71901Q47.9168,8.23191,47.4064,7.76929Q46.896,7.30667,46.3635,6.86966Q45.831,6.43264,45.2776,6.02228Q44.7243,5.61192,44.1516,5.22921Q43.5788,4.84649,42.9879,4.49234Q42.3971,4.13819,41.7895,3.81346Q41.182,3.48873,40.5593,3.1942Q39.9365,2.89967,39.3001,2.63605Q38.6637,2.37243,38.0151,2.1403600000000003Q37.3665,1.90829,36.7073,1.70832Q36.0481,1.50835,35.3798,1.340967Q34.7116,1.173585,34.036,1.039193Q33.3603,0.904801,32.6789,0.803723Q31.9975,0.702645,31.312,0.635124Q30.6264,0.5676025,29.9384,0.5338013Q29.2503,0.5,28.5615,0.5Q27.8726,0.5,27.1846,0.5338013Q26.4965,0.5676025,25.811,0.635124Q25.1254,0.702645,24.444,0.803723Q23.7626,0.904801,23.0869,1.039193Q22.4113,1.173585,21.7431,1.340967Q21.0749,1.50835,20.4156,1.70832Q19.7564,1.90829,19.1078,2.1403600000000003Q18.4592,2.37243,17.8228,2.63605Q17.1864,2.89967,16.5636,3.1942Q15.9409,3.48873,15.3334,3.81346Q14.7259,4.13819,14.135,4.49234Q13.5441,4.84649,12.9713,5.22921Q12.3986,5.61192,11.8453,6.02228Q11.292,6.43264,10.7595,6.86966Q10.22695,7.30667,9.71654,7.76929Q9.20612,8.23191,8.71901,8.71901Q8.23191,9.20612,7.76929,9.71654Q7.30667,10.22695,6.86966,10.7595Q6.43264,11.292,6.02228,11.8453Q5.61192,12.3986,5.22921,12.9713Q4.84649,13.5441,4.49234,14.135Q4.13819,14.7259,3.81346,15.3334Q3.48873,15.9409,3.1942,16.5636Q2.89967,17.1864,2.63605,17.8228Q2.37243,18.4592,2.1403600000000003,19.1078Q1.90829,19.7564,1.70832,20.4156Q1.50835,21.0749,1.340967,21.7431Q1.173585,22.4113,1.039193,23.0869Q0.904801,23.7626,0.803723,24.444Q0.702645,25.1254,0.635124,25.811Q0.5676025,26.4965,0.5338013,27.1846Q0.5,27.8726,0.5,28.5615Q0.4999999999999988,29.6907,0.5907328000000001,30.8162Q0.681466,31.9418,0.8623449999999999,33.0564Q1.043224,34.171,1.313079,35.2675Q1.58293,36.364,1.94002,37.4353Q2.29711,38.5065,2.73912,39.5456Q3.18112,40.5847,3.7052,41.585Q4.22927,42.5852,4.83202,43.5401Q5.43476,44.495,6.11229,45.3983L4.24155,53.8168L12.0151,51.2256Q12.9088,51.8781,13.8512,52.4582Q14.7935,53.0383,15.7786,53.5424Q16.7637,54.0464,17.7855,54.4714Q18.8072,54.8963,19.8593,55.2395Q20.9113,55.5827,21.9871,55.8419Q23.0629,56.1012,24.1557,56.2749Q25.2486,56.4486,26.3517,56.5358Q27.4549,56.6229,28.5615,56.6229Z" fill-rule="evenodd" fill="#FFCF00" fill-opacity="1"/><path d="M28.5615,56.1229Q33.8186,56.1229,38.7067,54.1878Q44.014,52.0867,48.0504,48.0504Q52.0867,44.0141,54.1878,38.7067Q56.1229,33.8186,56.1229,28.5615Q56.1229,23.3043,54.1878,18.4162Q52.0867,13.1089,48.0504,9.07257Q44.0141,5.03629,38.7067,2.93514Q33.8186,1,28.5615,1Q23.3043,1,18.4162,2.93514Q13.1088,5.03628,9.07257,9.07257Q5.03629,13.1089,2.93514,18.4162Q1,23.3043,1,28.5615Q1,37.7486,6.51229,45.0983L6.65027,45.2823L4.72964,53.9252L4.24155,53.8168L4.08343,53.3424L12.1016,50.6697L12.3099,50.8218Q19.571,56.123,28.5615,56.1229ZM28.5615,57.1229Q19.2449,57.1229,11.7203,51.6294L12.0151,51.2256L12.1732,51.6999L3.56189,54.5704L5.62419,45.2899L6.11229,45.3983L5.71229,45.6983Q0,38.082,0,28.5615Q0,23.1135,2.00535,18.0481Q4.18272,12.5482,8.365459999999999,8.365459999999999Q12.5482,4.182729999999999,18.0481,2.00535Q23.1136,0,28.5615,0Q34.0094,0,39.0748,2.00535Q44.5747,4.182729999999999,48.7575,8.365459999999999Q52.9402,12.5483,55.1176,18.0481Q57.1229,23.1136,57.1229,28.5615Q57.1229,34.0093,55.1176,39.0748Q52.9402,44.5747,48.7575,48.7575Q44.5747,52.9402,39.0748,55.1176Q34.0093,57.1229,28.5615,57.1229Z" fill="#000000" fill-opacity="1"/></g><g><path d="M23.68894373718262,34.05044776074219C23.620853737182617,33.64186976074219,23.234423737182617,33.365854560742186,22.825851737182617,33.43395156074219C22.41727373718262,33.502047560742184,22.14125853718262,33.888468760742185,22.209355537182617,34.297045760742186C22.209355537182617,34.297045760742186,23.68894373718262,34.05044776074219,23.68894373718262,34.05044776074219C23.68894373718262,34.05044776074219,23.68894373718262,34.05044776074219,23.68894373718262,34.05044776074219ZM34.91353373718262,34.297045760742186C34.98163373718262,33.888468760742185,34.705633737182616,33.502047560742184,34.297033737182616,33.43395156074219C33.888433737182616,33.365854560742186,33.502033737182614,33.64186976074219,33.43393373718261,34.05044776074219C33.43393373718261,34.05044776074219,34.91353373718262,34.297045760742186,34.91353373718262,34.297045760742186C34.91353373718262,34.297045760742186,34.91353373718262,34.297045760742186,34.91353373718262,34.297045760742186ZM22.209355537182617,34.297045760742186C22.38099873718262,35.32690976074219,22.887894737182616,36.851609760742186,23.873943737182618,38.137759760742185C24.874403737182618,39.44270976074219,26.40149373718262,40.536039760742185,28.561443737182618,40.536039760742185C28.561443737182618,40.536039760742185,28.561443737182618,39.036039760742185,28.561443737182618,39.036039760742185C26.97986373718262,39.036039760742185,25.856703737182617,38.25860976074219,25.064353737182618,37.225109760742185C24.257583737182618,36.17279976074219,23.829093737182617,34.89134976074219,23.68894373718262,34.05044776074219C23.68894373718262,34.05044776074219,22.209355537182617,34.297045760742186,22.209355537182617,34.297045760742186C22.209355537182617,34.297045760742186,22.209355537182617,34.297045760742186,22.209355537182617,34.297045760742186ZM28.561443737182618,40.536039760742185C30.721393737182616,40.536039760742185,32.248433737182616,39.44270976074219,33.24893373718262,38.137759760742185C34.234933737182615,36.851609760742186,34.74183373718262,35.32690976074219,34.91353373718262,34.297045760742186C34.91353373718262,34.297045760742186,33.43393373718261,34.05044776074219,33.43393373718261,34.05044776074219C33.29373373718262,34.89134976074219,32.86533373718262,36.17279976074219,32.058533737182614,37.225109760742185C31.266183737182615,38.25860976074219,30.143023737182617,39.036039760742185,28.561443737182618,39.036039760742185C28.561443737182618,39.036039760742185,28.561443737182618,40.536039760742185,28.561443737182618,40.536039760742185C28.561443737182618,40.536039760742185,28.561443737182618,40.536039760742185,28.561443737182618,40.536039760742185Z" fill="#000000" fill-opacity="1"/></g><g filter="url(#master_svg0_0_109)"><ellipse cx="46.333741664886475" cy="31.83530306816101" rx="2.8061461448669434" ry="1.4030730724334717" fill="#FF8B72" fill-opacity="1"/></g><g filter="url(#master_svg1_0_110)"><ellipse cx="10.78918170928955" cy="31.83530306816101" rx="2.8061461448669434" ry="1.4030730724334717" fill="#FF8B72" fill-opacity="1"/></g><g><path d="M10.984780494458008,24.696633508911134C10.916683494458008,25.105213508911135,11.192698694458008,25.491633508911132,11.601276694458008,25.559733508911133C12.009848694458007,25.627823508911135,12.396278694458008,25.351813508911132,12.464368694458008,24.943233508911135C12.464368694458008,24.943233508911135,10.984780494458008,24.696633508911134,10.984780494458008,24.696633508911134C10.984780494458008,24.696633508911134,10.984780494458008,24.696633508911134,10.984780494458008,24.696633508911134ZM20.33860869445801,24.943233508911135C20.406698694458008,25.351813508911132,20.79311869445801,25.627823508911135,21.201658694458008,25.559733508911133C21.610258694458008,25.491633508911132,21.886258694458007,25.105213508911135,21.818158694458006,24.696633508911134C21.818158694458006,24.696633508911134,20.33860869445801,24.943233508911135,20.33860869445801,24.943233508911135C20.33860869445801,24.943233508911135,20.33860869445801,24.943233508911135,20.33860869445801,24.943233508911135ZM11.724575694458007,24.819933508911134C12.464368694458008,24.943233508911135,12.464338694458007,24.943453508911134,12.464298694458009,24.943643508911133C12.464298694458009,24.943673508911132,12.464268694458008,24.943843508911133,12.464258694458008,24.943923508911134C12.464228694458008,24.944063508911132,12.464218694458008,24.944123508911133,12.464228694458008,24.944103508911134C12.464228694458008,24.944053508911132,12.464298694458009,24.943673508911132,12.464418694458008,24.942973508911134C12.464658694458008,24.941563508911134,12.465128694458008,24.938843508911134,12.465838694458007,24.934853508911132C12.467258694458007,24.926883508911132,12.469608694458008,24.91385350891113,12.472958694458008,24.89611350891113C12.479668694458008,24.860613508911133,12.490338694458007,24.80631350891113,12.505428694458008,24.73593350891113C12.535628694458008,24.59499350891113,12.583298694458009,24.390463508911132,12.651828694458008,24.143743508911133C12.789688694458007,23.64744350891113,13.008108694458008,22.994533508911132,13.330778694458008,22.34920350891113C13.996668694458007,21.017423508911133,14.973528694458007,19.957643508911133,16.40148869445801,19.957643508911133C16.40148869445801,19.957643508911133,16.40148869445801,18.457643508911133,16.40148869445801,18.457643508911133C14.087918694458008,18.457643508911133,12.726328694458008,20.204003508911132,11.989138694458008,21.678383508911132C11.610269694458008,22.436113508911134,11.360997694458009,23.18628350891113,11.206551694458009,23.742283508911132C11.128931694458007,24.021713508911134,11.074291494458008,24.25565350891113,11.038723494458008,24.421633508911132C11.020922494458008,24.504703508911135,11.007848494458008,24.570993508911133,10.999025494458008,24.617703508911134C10.994612494458007,24.64106350891113,10.991259494458008,24.65955350891113,10.988905494458008,24.672813508911133C10.987728494458008,24.67945350891113,10.986801494458009,24.68478350891113,10.986116494458008,24.688763508911133C10.985773494458007,24.690753508911133,10.985491494458008,24.692413508911134,10.985269494458008,24.693723508911134C10.985158494458007,24.694383508911134,10.985061494458007,24.694953508911134,10.984980494458007,24.695443508911133C10.984939494458008,24.69568350891113,10.984889494458008,24.695983508911134,10.984869494458009,24.696103508911133C10.984822494458008,24.696383508911133,10.984780494458008,24.696633508911134,11.724575694458007,24.819933508911134C11.724575694458007,24.819933508911134,11.724575694458007,24.819933508911134,11.724575694458007,24.819933508911134ZM16.40148869445801,19.957643508911133C17.82944869445801,19.957643508911133,18.806308694458007,21.017423508911133,19.472198694458008,22.34920350891113C19.79486869445801,22.994533508911132,20.01327869445801,23.64744350891113,20.15114869445801,24.143743508911133C20.219678694458008,24.390463508911132,20.267348694458008,24.59499350891113,20.29754869445801,24.73593350891113C20.312628694458006,24.80631350891113,20.323308694458007,24.860613508911133,20.33000869445801,24.89611350891113C20.33336869445801,24.91385350891113,20.33571869445801,24.926883508911132,20.337138694458005,24.934853508911132C20.337838694458007,24.938843508911134,20.338308694458007,24.941563508911134,20.33855869445801,24.942973508911134C20.338678694458007,24.943673508911132,20.33873869445801,24.944053508911132,20.33874869445801,24.944103508911134C20.33874869445801,24.944123508911133,20.33873869445801,24.944063508911132,20.33871869445801,24.943923508911134C20.338708694458006,24.943843508911133,20.338678694458007,24.943673508911132,20.338668694458008,24.943643508911133C20.338638694458005,24.943453508911134,20.33860869445801,24.943233508911135,21.078358694458007,24.819933508911134C21.818158694458006,24.696633508911134,21.818158694458006,24.696383508911133,21.81805869445801,24.696103508911133C21.81805869445801,24.695983508911134,21.81805869445801,24.69568350891113,21.817958694458007,24.695443508911133C21.81785869445801,24.694953508911134,21.817758694458007,24.694383508911134,21.817658694458007,24.693723508911134C21.817458694458008,24.692413508911134,21.81715869445801,24.690753508911133,21.816858694458006,24.688763508911133C21.816158694458007,24.68478350891113,21.81525869445801,24.67945350891113,21.81405869445801,24.672813508911133C21.811658694458007,24.65955350891113,21.808358694458008,24.64106350891113,21.803958694458007,24.617703508911134C21.795058694458007,24.570993508911133,21.78205869445801,24.504703508911135,21.764258694458007,24.421633508911132C21.72865869445801,24.25565350891113,21.674058694458008,24.021713508911134,21.596458694458008,23.742283508911132C21.44195869445801,23.18628350891113,21.192658694458007,22.436113508911134,20.813838694458006,21.678383508911132C20.076648694458008,20.204003508911132,18.71505869445801,18.457643508911133,16.40148869445801,18.457643508911133C16.40148869445801,18.457643508911133,16.40148869445801,19.957643508911133,16.40148869445801,19.957643508911133C16.40148869445801,19.957643508911133,16.40148869445801,19.957643508911133,16.40148869445801,19.957643508911133Z" fill="#000000" fill-opacity="1"/></g><g><path d="M35.304717246777344,24.696633508911134C35.23662024677734,25.105213508911135,35.512635446777345,25.491633508911132,35.921213446777344,25.559733508911133C36.32978544677734,25.627823508911135,36.71621544677734,25.351813508911132,36.784305446777346,24.943233508911135C36.784305446777346,24.943233508911135,35.304717246777344,24.696633508911134,35.304717246777344,24.696633508911134C35.304717246777344,24.696633508911134,35.304717246777344,24.696633508911134,35.304717246777344,24.696633508911134ZM44.658545446777346,24.943233508911135C44.726635446777344,25.351813508911132,45.113055446777345,25.627823508911135,45.52159544677734,25.559733508911133C45.93019544677735,25.491633508911132,46.20619544677734,25.105213508911135,46.13809544677734,24.696633508911134C46.13809544677734,24.696633508911134,44.658545446777346,24.943233508911135,44.658545446777346,24.943233508911135C44.658545446777346,24.943233508911135,44.658545446777346,24.943233508911135,44.658545446777346,24.943233508911135ZM36.04451244677735,24.819933508911134C36.784305446777346,24.943233508911135,36.78427544677734,24.943453508911134,36.784235446777345,24.943643508911133C36.784235446777345,24.943673508911132,36.78420544677734,24.943843508911133,36.784195446777346,24.943923508911134C36.784165446777344,24.944063508911132,36.78415544677734,24.944123508911133,36.784165446777344,24.944103508911134C36.784165446777344,24.944053508911132,36.784235446777345,24.943673508911132,36.78435544677734,24.942973508911134C36.784595446777345,24.941563508911134,36.785065446777345,24.938843508911134,36.78577544677734,24.934853508911132C36.787195446777346,24.926883508911132,36.789545446777346,24.91385350891113,36.792895446777344,24.89611350891113C36.79960544677734,24.860613508911133,36.81027544677735,24.80631350891113,36.82536544677734,24.73593350891113C36.85556544677734,24.59499350891113,36.903235446777344,24.390463508911132,36.97176544677735,24.143743508911133C37.10962544677734,23.64744350891113,37.328045446777345,22.994533508911132,37.65071544677734,22.34920350891113C38.316605446777345,21.017423508911133,39.29346544677735,19.957643508911133,40.721425446777346,19.957643508911133C40.721425446777346,19.957643508911133,40.721425446777346,18.457643508911133,40.721425446777346,18.457643508911133C38.40785544677735,18.457643508911133,37.04626544677734,20.204003508911132,36.30907544677734,21.678383508911132C35.93020644677734,22.436113508911134,35.68093444677734,23.18628350891113,35.52648844677734,23.742283508911132C35.44886844677735,24.021713508911134,35.394228246777345,24.25565350891113,35.35866024677734,24.421633508911132C35.34085924677734,24.504703508911135,35.327785246777346,24.570993508911133,35.318962246777346,24.617703508911134C35.31454924677735,24.64106350891113,35.31119624677734,24.65955350891113,35.308842246777346,24.672813508911133C35.30766524677735,24.67945350891113,35.30673824677734,24.68478350891113,35.306053246777346,24.688763508911133C35.305710246777345,24.690753508911133,35.305428246777346,24.692413508911134,35.305206246777345,24.693723508911134C35.30509524677734,24.694383508911134,35.304998246777345,24.694953508911134,35.30491724677734,24.695443508911133C35.30487624677735,24.69568350891113,35.304826246777345,24.695983508911134,35.304806246777346,24.696103508911133C35.304759246777344,24.696383508911133,35.304717246777344,24.696633508911134,36.04451244677735,24.819933508911134C36.04451244677735,24.819933508911134,36.04451244677735,24.819933508911134,36.04451244677735,24.819933508911134ZM40.721425446777346,19.957643508911133C42.149385446777345,19.957643508911133,43.12624544677735,21.017423508911133,43.792135446777344,22.34920350891113C44.114805446777346,22.994533508911132,44.333215446777345,23.64744350891113,44.471085446777344,24.143743508911133C44.53961544677735,24.390463508911132,44.587285446777344,24.59499350891113,44.617485446777344,24.73593350891113C44.63256544677734,24.80631350891113,44.64324544677734,24.860613508911133,44.649945446777345,24.89611350891113C44.653305446777345,24.91385350891113,44.655655446777345,24.926883508911132,44.65707544677734,24.934853508911132C44.65777544677734,24.938843508911134,44.65824544677734,24.941563508911134,44.658495446777344,24.942973508911134C44.65861544677735,24.943673508911132,44.658675446777345,24.944053508911132,44.65868544677734,24.944103508911134C44.65868544677734,24.944123508911133,44.658675446777345,24.944063508911132,44.658655446777345,24.943923508911134C44.65864544677734,24.943843508911133,44.65861544677735,24.943673508911132,44.658605446777344,24.943643508911133C44.65857544677734,24.943453508911134,44.658545446777346,24.943233508911135,45.39829544677734,24.819933508911134C46.13809544677734,24.696633508911134,46.13809544677734,24.696383508911133,46.137995446777346,24.696103508911133C46.137995446777346,24.695983508911134,46.137995446777346,24.69568350891113,46.13789544677734,24.695443508911133C46.137795446777346,24.694953508911134,46.13769544677734,24.694383508911134,46.13759544677734,24.693723508911134C46.13739544677735,24.692413508911134,46.137095446777344,24.690753508911133,46.13679544677734,24.688763508911133C46.13609544677735,24.68478350891113,46.135195446777345,24.67945350891113,46.13399544677735,24.672813508911133C46.13159544677734,24.65955350891113,46.128295446777344,24.64106350891113,46.12389544677734,24.617703508911134C46.11499544677734,24.570993508911133,46.101995446777345,24.504703508911135,46.08419544677734,24.421633508911132C46.04859544677734,24.25565350891113,45.99399544677735,24.021713508911134,45.916395446777344,23.742283508911132C45.761895446777345,23.18628350891113,45.51259544677734,22.436113508911134,45.13377544677734,21.678383508911132C44.396585446777344,20.204003508911132,43.034995446777344,18.457643508911133,40.721425446777346,18.457643508911133C40.721425446777346,18.457643508911133,40.721425446777346,19.957643508911133,40.721425446777346,19.957643508911133C40.721425446777346,19.957643508911133,40.721425446777346,19.957643508911133,40.721425446777346,19.957643508911133Z" fill="#000000" fill-opacity="1"/></g></g></svg>