<svg xmlns="http://www.w3.org/2000/svg" xmlns:xlink="http://www.w3.org/1999/xlink" fill="none" version="1.1" width="57.1229248046875" height="57.1229248046875" viewBox="0 0 57.1229248046875 57.1229248046875"><defs><filter id="master_svg0_0_223" filterUnits="objectBoundingBox" color-interpolation-filters="sRGB" x="-2" y="-2" width="11.48305606842041" height="7.741528034210205"><feFlood flood-opacity="0" result="BackgroundImageFix"/><feBlend mode="normal" in="SourceGraphic" in2="BackgroundImageFix" result="shape"/><feGaussianBlur stdDeviation="0.5" result="effect1_foregroundBlur"/></filter><filter id="master_svg1_0_224" filterUnits="objectBoundingBox" color-interpolation-filters="sRGB" x="-2" y="-2" width="11.48305606842041" height="7.741528034210205"><feFlood flood-opacity="0" result="BackgroundImageFix"/><feBlend mode="normal" in="SourceGraphic" in2="BackgroundImageFix" result="shape"/><feGaussianBlur stdDeviation="0.5" result="effect1_foregroundBlur"/></filter></defs><g><g><path d="M28.5615,56.6229Q29.2503,56.6229,29.9384,56.5891Q30.6264,56.5553,31.312,56.4878Q31.9975,56.4203,32.6789,56.3192Q33.3603,56.2181,34.036,56.0837Q34.7116,55.9493,35.3798,55.7819Q36.0481,55.6146,36.7073,55.4146Q37.3665,55.2146,38.0151,54.9826Q38.6637,54.7505,39.3001,54.4869Q39.9365,54.2232,40.5593,53.9287Q41.182,53.6342,41.7895,53.3095Q42.3971,52.9847,42.9879,52.6306Q43.5788,52.2764,44.1516,51.8937Q44.7243,51.511,45.2776,51.1006Q45.831,50.6903,46.3635,50.2533Q46.896,49.8162,47.4064,49.3536Q47.9168,48.891,48.4039,48.4039Q48.891,47.9168,49.3536,47.4064Q49.8162,46.896,50.2533,46.3635Q50.6903,45.831,51.1006,45.2776Q51.511,44.7243,51.8937,44.1516Q52.2764,43.5788,52.6306,42.9879Q52.9847,42.3971,53.3095,41.7895Q53.6342,41.182,53.9287,40.5593Q54.2232,39.9365,54.4869,39.3001Q54.7505,38.6637,54.9826,38.0151Q55.2146,37.3665,55.4146,36.7073Q55.6146,36.0481,55.782,35.3798Q55.9493,34.7116,56.0837,34.036Q56.2181,33.3603,56.3192,32.6789Q56.4203,31.9975,56.4878,31.312Q56.5553,30.6264,56.5891,29.9384Q56.6229,29.2503,56.6229,28.5615Q56.6229,27.8726,56.5891,27.1846Q56.5553,26.4965,56.4878,25.811Q56.4203,25.1254,56.3192,24.444Q56.2181,23.7626,56.0837,23.0869Q55.9493,22.4113,55.7819,21.7431Q55.6146,21.0749,55.4146,20.4156Q55.2146,19.7564,54.9826,19.1078Q54.7505,18.4592,54.4869,17.8228Q54.2232,17.1864,53.9287,16.5636Q53.6342,15.9409,53.3095,15.3334Q52.9847,14.7259,52.6306,14.135Q52.2764,13.5441,51.8937,12.9713Q51.511,12.3986,51.1006,11.8453Q50.6903,11.292,50.2533,10.7595Q49.8162,10.22695,49.3536,9.71654Q48.891,9.20612,48.4039,8.71901Q47.9168,8.23191,47.4064,7.76929Q46.896,7.30667,46.3635,6.86966Q45.831,6.43264,45.2776,6.02228Q44.7243,5.61192,44.1516,5.22921Q43.5788,4.84649,42.9879,4.49234Q42.3971,4.13819,41.7895,3.81346Q41.182,3.48873,40.5593,3.1942Q39.9365,2.89967,39.3001,2.63605Q38.6637,2.37243,38.0151,2.1403600000000003Q37.3665,1.90829,36.7073,1.70832Q36.0481,1.50835,35.3798,1.340967Q34.7116,1.173585,34.036,1.039193Q33.3603,0.904801,32.6789,0.803723Q31.9975,0.702645,31.312,0.635124Q30.6264,0.5676025,29.9384,0.5338013Q29.2503,0.5,28.5615,0.5Q27.8726,0.5,27.1846,0.5338013Q26.4965,0.5676025,25.811,0.635124Q25.1254,0.702645,24.444,0.803723Q23.7626,0.904801,23.0869,1.039193Q22.4113,1.173585,21.7431,1.340967Q21.0749,1.50835,20.4156,1.70832Q19.7564,1.90829,19.1078,2.1403600000000003Q18.4592,2.37243,17.8228,2.63605Q17.1864,2.89967,16.5636,3.1942Q15.9409,3.48873,15.3334,3.81346Q14.7259,4.13819,14.135,4.49234Q13.5441,4.84649,12.9713,5.22921Q12.3986,5.61192,11.8453,6.02228Q11.292,6.43264,10.7595,6.86966Q10.22695,7.30667,9.71654,7.76929Q9.20612,8.23191,8.71901,8.71901Q8.23191,9.20612,7.76929,9.71654Q7.30667,10.22695,6.86966,10.7595Q6.43264,11.292,6.02228,11.8453Q5.61192,12.3986,5.22921,12.9713Q4.84649,13.5441,4.49234,14.135Q4.13819,14.7259,3.81346,15.3334Q3.48873,15.9409,3.1942,16.5636Q2.89967,17.1864,2.63605,17.8228Q2.37243,18.4592,2.1403600000000003,19.1078Q1.90829,19.7564,1.70832,20.4156Q1.50835,21.0749,1.340967,21.7431Q1.173585,22.4113,1.039193,23.0869Q0.904801,23.7626,0.803723,24.444Q0.702645,25.1254,0.635124,25.811Q0.5676025,26.4965,0.5338013,27.1846Q0.5,27.8726,0.5,28.5615Q0.5000000000000002,29.6907,0.590733,30.8162Q0.681466,31.9418,0.8623449999999999,33.0564Q1.043224,34.171,1.31308,35.2675Q1.58294,36.364,1.94002,37.4353Q2.29711,38.5065,2.73912,39.5456Q3.18113,40.5847,3.7052,41.585Q4.22928,42.5852,4.83202,43.5401Q5.43477,44.495,6.1123,45.3983L4.2415,53.8168L12.0151,51.2256Q12.9088,51.8781,13.8512,52.4582Q14.7935,53.0383,15.7786,53.5423Q16.7637,54.0464,17.7855,54.4714Q18.8072,54.8963,19.8592,55.2395Q20.9113,55.5827,21.9871,55.8419Q23.0629,56.1012,24.1557,56.2749Q25.2486,56.4486,26.3517,56.5358Q27.4549,56.6229,28.5615,56.6229Z" fill-rule="evenodd" fill="#FFCF00" fill-opacity="1"/><path d="M28.5615,56.1229Q33.8186,56.1229,38.7067,54.1878Q44.014,52.0867,48.0504,48.0504Q52.0867,44.0141,54.1878,38.7067Q56.1229,33.8186,56.1229,28.5615Q56.1229,23.3043,54.1878,18.4162Q52.0867,13.1089,48.0504,9.07257Q44.0141,5.03629,38.7067,2.93514Q33.8186,1,28.5615,1Q23.3043,1,18.4162,2.93514Q13.1088,5.03628,9.07257,9.07257Q5.03629,13.1089,2.93514,18.4162Q1,23.3043,1,28.5615Q1,37.7487,6.5123,45.0984L6.65028,45.2823L4.72959,53.9252L4.2415,53.8168L4.08339,53.3424L12.1016,50.6697L12.3099,50.8218Q19.571,56.123,28.5615,56.1229ZM28.5615,57.1229Q19.2449,57.123,11.7202,51.6294L12.0151,51.2256L12.1732,51.6999L3.56183,54.5704L5.6242,45.2899L6.1123,45.3983L5.7123,45.6983Q0,38.082,0,28.5615Q0,23.1135,2.00535,18.0481Q4.18272,12.5482,8.365459999999999,8.365459999999999Q12.5482,4.182729999999999,18.0481,2.00535Q23.1136,0,28.5615,0Q34.0094,0,39.0748,2.00535Q44.5747,4.182729999999999,48.7575,8.365459999999999Q52.9402,12.5483,55.1176,18.0481Q57.1229,23.1136,57.1229,28.5615Q57.1229,34.0093,55.1176,39.0748Q52.9402,44.5747,48.7575,48.7575Q44.5747,52.9402,39.0748,55.1176Q34.0093,57.1229,28.5615,57.1229Z" fill="#000000" fill-opacity="1"/></g><g transform="matrix(0.9818311333656311,-0.18975675106048584,0.18975675106048584,0.9818311333656311,-5.61211552223007,1.3495893791181004)" filter="url(#master_svg0_0_223)"><ellipse cx="7.983067274093628" cy="31.852197885513306" rx="3.741528034210205" ry="1.8707640171051025" fill="#FF8B72" fill-opacity="1"/></g><g transform="matrix(0.9818311333656311,0.18975675106048584,0.18975666165351868,-0.9818311333656311,-5.325947429085488,55.62455156420799)" filter="url(#master_svg1_0_224)"><ellipse cx="47.26910448074341" cy="34.10570168495178" rx="3.741528034210205" ry="1.8707640171051025" fill="#FF8B72" fill-opacity="1"/></g><g><path d="M2.1283789721870425,27.776244543457032L0.6202119421870422,14.710004543457032C0.5516750721870423,14.116235543457032,1.0158999721870423,13.595344543457031,1.6136089721870421,13.595344543457031L24.75588897218704,13.595344543457031C25.308188972187043,13.595344543457031,25.75588897218704,14.043060543457031,25.75588897218704,14.595344543457031L25.75588897218704,17.69146454345703C26.34258897218704,17.39062454345703,26.989988972187042,17.15081454345703,27.682088972187042,17.02065454345703C28.91878897218704,16.78810454345703,30.25408897218704,16.914774543457032,31.585988972187042,17.60370454345703L31.585988972187042,14.595344543457031C31.585988972187042,14.043060543457031,32.03368897218704,13.595344543457031,32.58598897218704,13.595344543457031L55.728288972187045,13.595344543457031C56.32598897218704,13.595344543457031,56.79018897218704,14.116235543457032,56.72168897218704,14.710004543457032L55.213488972187044,27.776244543457032C55.03878897218704,29.289944543457032,53.75708897218704,30.43224454345703,52.23328897218704,30.43224454345703L39.34318897218704,30.43224454345703C38.73908897218704,30.43224454345703,38.167288972187045,30.15914454345703,37.787588972187045,29.689144543457033L32.03038897218704,22.56371454345703C31.742888972187043,22.20788454345703,31.585988972187042,21.764244543457032,31.585988972187042,21.30677454345703L31.585988972187042,19.35800454345703C30.287388972187042,18.43349454345703,29.040188972187043,18.29156454345703,27.959288972187043,18.494814543457032C27.146788972187043,18.64761454345703,26.393588972187043,19.002964543457033,25.75588897218704,19.42999454345703L25.75588897218704,21.30677454345703C25.75588897218704,21.764244543457032,25.59898897218704,22.20788454345703,25.311488972187043,22.56371454345703L19.55428897218704,29.689144543457033C19.174588972187042,30.15914454345703,18.602788972187042,30.43224454345703,17.998688972187043,30.43224454345703L5.108598972187043,30.43224454345703C3.5848289721870423,30.43224454345703,2.303108972187042,29.289944543457032,2.1283789721870425,27.776244543457032Z" fill-rule="evenodd" fill="#000000" fill-opacity="1"/></g><g><path d="M45.39834651855469,15.466114044189453L42.59220651855469,15.466114044189453L39.78605651855469,22.609034044189453L42.324936518554686,22.609034044189453L40.72142051855469,26.690714044189455L43.527566518554686,26.690714044189455L46.333706518554685,19.547784044189452L43.79483651855469,19.547784044189452L45.39834651855469,15.466114044189453Z" fill-rule="evenodd" fill="#FFFFFF" fill-opacity="1"/></g><g><path d="M15.466117476501465,15.466114044189453L12.659977476501465,15.466114044189453L9.853827476501465,22.609034044189453L12.392707476501464,22.609034044189453L10.789191476501465,26.690714044189455L13.595337476501465,26.690714044189455L16.401477476501466,19.547784044189452L13.862607476501465,19.547784044189452L15.466117476501465,15.466114044189453Z" fill-rule="evenodd" fill="#FFFFFF" fill-opacity="1"/></g><g><path d="M17.940842973022463,35.599871740722655C17.695262973022462,35.266305040722656,17.225779973022462,35.194972040722654,16.89221297302246,35.44054474072266C16.55864627302246,35.68611674072265,16.487313273022462,36.15560274072266,16.732885973022462,36.489171740722654C16.732885973022462,36.489171740722654,17.940842973022463,35.599871740722655,17.940842973022463,35.599871740722655C17.940842973022463,35.599871740722655,17.940842973022463,35.599871740722655,17.940842973022463,35.599871740722655ZM36.64841297302246,36.489171740722654C36.89401297302246,36.15560274072266,36.82271297302246,35.68611674072265,36.48911297302246,35.44054474072266C36.15551297302246,35.194972040722654,35.68601297302246,35.266305040722656,35.44061297302246,35.599871740722655C35.44061297302246,35.599871740722655,36.64841297302246,36.489171740722654,36.64841297302246,36.489171740722654C36.64841297302246,36.489171740722654,36.64841297302246,36.489171740722654,36.64841297302246,36.489171740722654ZM16.732885973022462,36.489171740722654C18.35143297302246,38.68768174072265,21.29696297302246,41.38176174072266,24.89183297302246,42.176671740722654C26.70851297302246,42.57839174072266,28.68321297302246,42.49174174072266,30.70141297302246,41.61624174072266C32.71241297302246,40.74387174072265,34.71981297302246,39.10890174072266,36.64841297302246,36.489171740722654C36.64841297302246,36.489171740722654,35.44061297302246,35.599871740722655,35.44061297302246,35.599871740722655C33.627612973022465,38.06234174072266,31.81551297302246,39.49787174072266,30.104412973022463,40.24015174072266C28.40061297302246,40.97931174072266,26.75071297302246,41.05149174072265,25.215692973022463,40.71205174072266C22.10699297302246,40.02465174072265,19.44023297302246,37.63653174072266,17.940842973022463,35.599871740722655C17.940842973022463,35.599871740722655,16.732885973022462,36.489171740722654,16.732885973022462,36.489171740722654C16.732885973022462,36.489171740722654,16.732885973022462,36.489171740722654,16.732885973022462,36.489171740722654Z" fill="#000000" fill-opacity="1"/></g></g></svg>