<svg xmlns="http://www.w3.org/2000/svg" xmlns:xlink="http://www.w3.org/1999/xlink" fill="none" version="1.1" width="57.1229248046875" height="57.1229248046875" viewBox="0 0 57.1229248046875 57.1229248046875"><defs><filter id="master_svg0_0_97" filterUnits="objectBoundingBox" color-interpolation-filters="sRGB" x="-2" y="-2" width="9.612292289733887" height="7.741528034210205"><feFlood flood-opacity="0" result="BackgroundImageFix"/><feBlend mode="normal" in="SourceGraphic" in2="BackgroundImageFix" result="shape"/><feGaussianBlur stdDeviation="0.5" result="effect1_foregroundBlur"/></filter><filter id="master_svg1_0_98" filterUnits="objectBoundingBox" color-interpolation-filters="sRGB" x="-2" y="-2" width="9.612292289733887" height="7.741528034210205"><feFlood flood-opacity="0" result="BackgroundImageFix"/><feBlend mode="normal" in="SourceGraphic" in2="BackgroundImageFix" result="shape"/><feGaussianBlur stdDeviation="0.5" result="effect1_foregroundBlur"/></filter></defs><g><g><path d="M28.5615,56.6229Q29.2503,56.6229,29.9384,56.5891Q30.6264,56.5553,31.312,56.4878Q31.9975,56.4203,32.6789,56.3192Q33.3603,56.2181,34.036,56.0837Q34.7116,55.9493,35.3798,55.7819Q36.0481,55.6146,36.7073,55.4146Q37.3665,55.2146,38.0151,54.9826Q38.6637,54.7505,39.3001,54.4869Q39.9365,54.2232,40.5593,53.9287Q41.182,53.6342,41.7895,53.3095Q42.3971,52.9847,42.9879,52.6306Q43.5788,52.2764,44.1516,51.8937Q44.7243,51.511,45.2776,51.1006Q45.831,50.6903,46.3635,50.2533Q46.896,49.8162,47.4064,49.3536Q47.9168,48.891,48.4039,48.4039Q48.891,47.9168,49.3536,47.4064Q49.8162,46.896,50.2533,46.3635Q50.6903,45.831,51.1006,45.2776Q51.511,44.7243,51.8937,44.1516Q52.2764,43.5788,52.6306,42.9879Q52.9847,42.3971,53.3095,41.7895Q53.6342,41.182,53.9287,40.5593Q54.2232,39.9365,54.4869,39.3001Q54.7505,38.6637,54.9826,38.0151Q55.2146,37.3665,55.4146,36.7073Q55.6146,36.0481,55.782,35.3798Q55.9493,34.7116,56.0837,34.036Q56.2181,33.3603,56.3192,32.6789Q56.4203,31.9975,56.4878,31.312Q56.5553,30.6264,56.5891,29.9384Q56.6229,29.2503,56.6229,28.5615Q56.6229,27.8726,56.5891,27.1846Q56.5553,26.4965,56.4878,25.811Q56.4203,25.1254,56.3192,24.444Q56.2181,23.7626,56.0837,23.0869Q55.9493,22.4113,55.7819,21.7431Q55.6146,21.0749,55.4146,20.4156Q55.2146,19.7564,54.9826,19.1078Q54.7505,18.4592,54.4869,17.8228Q54.2232,17.1864,53.9287,16.5636Q53.6342,15.9409,53.3095,15.3334Q52.9847,14.7259,52.6306,14.135Q52.2764,13.5441,51.8937,12.9713Q51.511,12.3986,51.1006,11.8453Q50.6903,11.292,50.2533,10.7595Q49.8162,10.22695,49.3536,9.71654Q48.891,9.20612,48.4039,8.71901Q47.9168,8.23191,47.4064,7.76929Q46.896,7.30667,46.3635,6.86966Q45.831,6.43264,45.2776,6.02228Q44.7243,5.61192,44.1516,5.22921Q43.5788,4.84649,42.9879,4.49234Q42.3971,4.13819,41.7895,3.81346Q41.182,3.48873,40.5593,3.1942Q39.9365,2.89967,39.3001,2.63605Q38.6637,2.37243,38.0151,2.1403600000000003Q37.3665,1.90829,36.7073,1.70832Q36.0481,1.50835,35.3798,1.340967Q34.7116,1.173585,34.036,1.039193Q33.3603,0.904801,32.6789,0.803723Q31.9975,0.702645,31.312,0.635124Q30.6264,0.5676025,29.9384,0.5338013Q29.2503,0.5,28.5615,0.5Q27.8726,0.5,27.1846,0.5338013Q26.4965,0.5676025,25.811,0.635124Q25.1254,0.702645,24.444,0.803723Q23.7626,0.904801,23.0869,1.039193Q22.4113,1.173585,21.7431,1.340967Q21.0749,1.50835,20.4156,1.70832Q19.7564,1.90829,19.1078,2.1403600000000003Q18.4592,2.37243,17.8228,2.63605Q17.1864,2.89967,16.5636,3.1942Q15.9409,3.48873,15.3334,3.81346Q14.7259,4.13819,14.135,4.49234Q13.5441,4.84649,12.9713,5.22921Q12.3986,5.61192,11.8453,6.02228Q11.292,6.43264,10.7595,6.86966Q10.22695,7.30667,9.71654,7.76929Q9.20612,8.23191,8.71901,8.71901Q8.23191,9.20612,7.76929,9.71654Q7.30667,10.22695,6.86966,10.7595Q6.43264,11.292,6.02228,11.8453Q5.61192,12.3986,5.22921,12.9713Q4.84649,13.5441,4.49234,14.135Q4.13819,14.7259,3.81346,15.3334Q3.48873,15.9409,3.1942,16.5636Q2.89967,17.1864,2.63605,17.8228Q2.37243,18.4592,2.1403600000000003,19.1078Q1.90829,19.7564,1.70832,20.4156Q1.50835,21.0749,1.340967,21.7431Q1.173585,22.4113,1.039193,23.0869Q0.904801,23.7626,0.803723,24.444Q0.702645,25.1254,0.635124,25.811Q0.5676025,26.4965,0.5338013,27.1846Q0.5,27.8726,0.5,28.5615Q0.5,29.6907,0.5907329,30.8162Q0.681466,31.9418,0.8623449999999999,33.0564Q1.043224,34.171,1.313079,35.2675Q1.58293,36.364,1.94002,37.4353Q2.29711,38.5065,2.73912,39.5456Q3.18113,40.5847,3.7052,41.585Q4.22927,42.5852,4.83202,43.5401Q5.43477,44.495,6.11229,45.3983L4.24153,53.8168L12.0151,51.2256Q12.9088,51.8781,13.8512,52.4582Q14.7935,53.0383,15.7786,53.5424Q16.7637,54.0464,17.7855,54.4714Q18.8072,54.8963,19.8592,55.2395Q20.9113,55.5827,21.9871,55.8419Q23.0629,56.1012,24.1557,56.2749Q25.2486,56.4486,26.3517,56.5358Q27.4549,56.6229,28.5615,56.6229Z" fill-rule="evenodd" fill="#FFCF00" fill-opacity="1"/><path d="M28.5615,56.1229Q33.8186,56.1229,38.7067,54.1878Q44.014,52.0867,48.0504,48.0504Q52.0867,44.0141,54.1878,38.7067Q56.1229,33.8186,56.1229,28.5615Q56.1229,23.3043,54.1878,18.4162Q52.0867,13.1089,48.0504,9.07257Q44.0141,5.03629,38.7067,2.93514Q33.8186,1,28.5615,1Q23.3043,1,18.4162,2.93514Q13.1088,5.03628,9.07257,9.07257Q5.03629,13.1089,2.93514,18.4162Q1,23.3043,1,28.5615Q1,37.7487,6.51229,45.0983L6.65027,45.2823L4.72963,53.9252L4.24153,53.8168L4.08342,53.3424L12.1016,50.6697L12.3099,50.8218Q19.571,56.123,28.5615,56.1229ZM28.5615,57.1229Q19.2449,57.1229,11.7203,51.6294L12.0151,51.2256L12.1732,51.6999L3.56187,54.5704L5.6242,45.2899L6.11229,45.3983L5.71229,45.6983Q0,38.082,0,28.5615Q0,23.1135,2.00535,18.0481Q4.18272,12.5482,8.365459999999999,8.365459999999999Q12.5482,4.182729999999999,18.0481,2.00535Q23.1136,0,28.5615,0Q34.0094,0,39.0748,2.00535Q44.5747,4.182729999999999,48.7575,8.365459999999999Q52.9402,12.5483,55.1176,18.0481Q57.1229,23.1136,57.1229,28.5615Q57.1229,34.0093,55.1176,39.0748Q52.9402,44.5747,48.7575,48.7575Q44.5747,52.9402,39.0748,55.1176Q34.0093,57.1229,28.5615,57.1229Z" fill="#000000" fill-opacity="1"/></g><g filter="url(#master_svg0_0_97)"><ellipse cx="46.33371877670288" cy="30.432222604751587" rx="2.8061461448669434" ry="1.8707640171051025" fill="#FF8B72" fill-opacity="1"/></g><g filter="url(#master_svg1_0_98)"><ellipse cx="10.789203643798828" cy="30.432222604751587" rx="2.8061461448669434" ry="1.8707640171051025" fill="#FF8B72" fill-opacity="1"/></g><g><path d="M10.984790984875488,24.696622064819337C10.916693984875488,25.105202064819338,11.192709184875488,25.491622064819335,11.601287184875488,25.559722064819336C12.009859184875488,25.627812064819338,12.396289184875489,25.351802064819335,12.464379184875488,24.943222064819338C12.464379184875488,24.943222064819338,10.984790984875488,24.696622064819337,10.984790984875488,24.696622064819337C10.984790984875488,24.696622064819337,10.984790984875488,24.696622064819337,10.984790984875488,24.696622064819337ZM20.33861918487549,24.943222064819338C20.40670918487549,25.351802064819335,20.79312918487549,25.627812064819338,21.201669184875488,25.559722064819336C21.610269184875488,25.491622064819335,21.886269184875488,25.105202064819338,21.818169184875487,24.696622064819337C21.818169184875487,24.696622064819337,20.33861918487549,24.943222064819338,20.33861918487549,24.943222064819338C20.33861918487549,24.943222064819338,20.33861918487549,24.943222064819338,20.33861918487549,24.943222064819338ZM11.724586184875488,24.819922064819337C12.464379184875488,24.943222064819338,12.464349184875488,24.943442064819337,12.46430918487549,24.943632064819337C12.46430918487549,24.943662064819335,12.464279184875489,24.943832064819336,12.464269184875489,24.943912064819337C12.464239184875488,24.944052064819335,12.464229184875489,24.944112064819336,12.464239184875488,24.944092064819337C12.464239184875488,24.944042064819335,12.46430918487549,24.943662064819335,12.464429184875488,24.942962064819337C12.464669184875488,24.941552064819337,12.465139184875488,24.938832064819337,12.465849184875488,24.934842064819335C12.467269184875487,24.926872064819335,12.469619184875489,24.913842064819335,12.472969184875488,24.896102064819335C12.479679184875488,24.860602064819336,12.490349184875488,24.806302064819334,12.505439184875488,24.735922064819334C12.535639184875489,24.594982064819334,12.583309184875489,24.390452064819335,12.651839184875488,24.143732064819336C12.789699184875488,23.647432064819334,13.008119184875488,22.994522064819336,13.330789184875488,22.349192064819334C13.996679184875488,21.017412064819336,14.973539184875488,19.957632064819336,16.40149918487549,19.957632064819336C16.40149918487549,19.957632064819336,16.40149918487549,18.457632064819336,16.40149918487549,18.457632064819336C14.087929184875488,18.457632064819336,12.726339184875489,20.203992064819335,11.989149184875489,21.678372064819335C11.610280184875489,22.436102064819337,11.36100818487549,23.186272064819335,11.206562184875489,23.742272064819335C11.128942184875488,24.021702064819337,11.074301984875488,24.255642064819334,11.038733984875488,24.421622064819335C11.020932984875488,24.504692064819338,11.007858984875488,24.570982064819336,10.999035984875489,24.617692064819337C10.994622984875488,24.641052064819334,10.991269984875489,24.659542064819334,10.988915984875488,24.672802064819336C10.987738984875488,24.679442064819334,10.986811984875489,24.684772064819335,10.986126984875488,24.688752064819337C10.985783984875487,24.690742064819336,10.985501984875489,24.692402064819337,10.985279984875488,24.693712064819337C10.985168984875488,24.694372064819337,10.985071984875487,24.694942064819337,10.984990984875488,24.695432064819336C10.984949984875488,24.695672064819334,10.984899984875488,24.695972064819337,10.984879984875489,24.696092064819336C10.984832984875489,24.696372064819336,10.984790984875488,24.696622064819337,11.724586184875488,24.819922064819337C11.724586184875488,24.819922064819337,11.724586184875488,24.819922064819337,11.724586184875488,24.819922064819337ZM16.40149918487549,19.957632064819336C17.82945918487549,19.957632064819336,18.806319184875488,21.017412064819336,19.47220918487549,22.349192064819334C19.79487918487549,22.994522064819336,20.01328918487549,23.647432064819334,20.15115918487549,24.143732064819336C20.219689184875488,24.390452064819335,20.267359184875488,24.594982064819334,20.29755918487549,24.735922064819334C20.312639184875486,24.806302064819334,20.323319184875487,24.860602064819336,20.33001918487549,24.896102064819335C20.33337918487549,24.913842064819335,20.33572918487549,24.926872064819335,20.337149184875486,24.934842064819335C20.337849184875488,24.938832064819337,20.338319184875488,24.941552064819337,20.33856918487549,24.942962064819337C20.338689184875488,24.943662064819335,20.33874918487549,24.944042064819335,20.33875918487549,24.944092064819337C20.33875918487549,24.944112064819336,20.33874918487549,24.944052064819335,20.33872918487549,24.943912064819337C20.338719184875487,24.943832064819336,20.338689184875488,24.943662064819335,20.338679184875488,24.943632064819337C20.338649184875486,24.943442064819337,20.33861918487549,24.943222064819338,21.078369184875488,24.819922064819337C21.818169184875487,24.696622064819337,21.818169184875487,24.696372064819336,21.81806918487549,24.696092064819336C21.81806918487549,24.695972064819337,21.81806918487549,24.695672064819334,21.817969184875487,24.695432064819336C21.81786918487549,24.694942064819337,21.817769184875488,24.694372064819337,21.817669184875488,24.693712064819337C21.81746918487549,24.692402064819337,21.81716918487549,24.690742064819336,21.816869184875486,24.688752064819337C21.816169184875488,24.684772064819335,21.81526918487549,24.679442064819334,21.81406918487549,24.672802064819336C21.811669184875488,24.659542064819334,21.808369184875488,24.641052064819334,21.803969184875488,24.617692064819337C21.795069184875487,24.570982064819336,21.78206918487549,24.504692064819338,21.764269184875488,24.421622064819335C21.72866918487549,24.255642064819334,21.67406918487549,24.021702064819337,21.596469184875488,23.742272064819335C21.44196918487549,23.186272064819335,21.192669184875488,22.436102064819337,20.813849184875487,21.678372064819335C20.07665918487549,20.203992064819335,18.71506918487549,18.457632064819336,16.40149918487549,18.457632064819336C16.40149918487549,18.457632064819336,16.40149918487549,19.957632064819336,16.40149918487549,19.957632064819336C16.40149918487549,19.957632064819336,16.40149918487549,19.957632064819336,16.40149918487549,19.957632064819336Z" fill="#000000" fill-opacity="1"/></g><g><path d="M35.30472106147461,24.696622064819337C35.23662406147461,25.105202064819338,35.51263926147461,25.491622064819335,35.92121726147461,25.559722064819336C36.32978926147461,25.627812064819338,36.716219261474606,25.351802064819335,36.78430926147461,24.943222064819338C36.78430926147461,24.943222064819338,35.30472106147461,24.696622064819337,35.30472106147461,24.696622064819337C35.30472106147461,24.696622064819337,35.30472106147461,24.696622064819337,35.30472106147461,24.696622064819337ZM44.65854926147461,24.943222064819338C44.72663926147461,25.351802064819335,45.11305926147461,25.627812064819338,45.521599261474606,25.559722064819336C45.93019926147461,25.491622064819335,46.20619926147461,25.105202064819338,46.13809926147461,24.696622064819337C46.13809926147461,24.696622064819337,44.65854926147461,24.943222064819338,44.65854926147461,24.943222064819338C44.65854926147461,24.943222064819338,44.65854926147461,24.943222064819338,44.65854926147461,24.943222064819338ZM36.04451626147461,24.819922064819337C36.78430926147461,24.943222064819338,36.78427926147461,24.943442064819337,36.78423926147461,24.943632064819337C36.78423926147461,24.943662064819335,36.78420926147461,24.943832064819336,36.78419926147461,24.943912064819337C36.78416926147461,24.944052064819335,36.784159261474606,24.944112064819336,36.78416926147461,24.944092064819337C36.78416926147461,24.944042064819335,36.78423926147461,24.943662064819335,36.784359261474606,24.942962064819337C36.78459926147461,24.941552064819337,36.78506926147461,24.938832064819337,36.78577926147461,24.934842064819335C36.78719926147461,24.926872064819335,36.78954926147461,24.913842064819335,36.79289926147461,24.896102064819335C36.79960926147461,24.860602064819336,36.81027926147461,24.806302064819334,36.825369261474606,24.735922064819334C36.855569261474606,24.594982064819334,36.90323926147461,24.390452064819335,36.97176926147461,24.143732064819336C37.10962926147461,23.647432064819334,37.32804926147461,22.994522064819336,37.650719261474606,22.349192064819334C38.31660926147461,21.017412064819336,39.29346926147461,19.957632064819336,40.72142926147461,19.957632064819336C40.72142926147461,19.957632064819336,40.72142926147461,18.457632064819336,40.72142926147461,18.457632064819336C38.40785926147461,18.457632064819336,37.046269261474606,20.203992064819335,36.30907926147461,21.678372064819335C35.930210261474606,22.436102064819337,35.68093826147461,23.186272064819335,35.52649226147461,23.742272064819335C35.44887226147461,24.021702064819337,35.39423206147461,24.255642064819334,35.358664061474606,24.421622064819335C35.34086306147461,24.504692064819338,35.32778906147461,24.570982064819336,35.31896606147461,24.617692064819337C35.31455306147461,24.641052064819334,35.31120006147461,24.659542064819334,35.30884606147461,24.672802064819336C35.30766906147461,24.679442064819334,35.30674206147461,24.684772064819335,35.30605706147461,24.688752064819337C35.30571406147461,24.690742064819336,35.30543206147461,24.692402064819337,35.30521006147461,24.693712064819337C35.30509906147461,24.694372064819337,35.30500206147461,24.694942064819337,35.30492106147461,24.695432064819336C35.30488006147461,24.695672064819334,35.30483006147461,24.695972064819337,35.30481006147461,24.696092064819336C35.30476306147461,24.696372064819336,35.30472106147461,24.696622064819337,36.04451626147461,24.819922064819337C36.04451626147461,24.819922064819337,36.04451626147461,24.819922064819337,36.04451626147461,24.819922064819337ZM40.72142926147461,19.957632064819336C42.14938926147461,19.957632064819336,43.12624926147461,21.017412064819336,43.79213926147461,22.349192064819334C44.11480926147461,22.994522064819336,44.33321926147461,23.647432064819334,44.47108926147461,24.143732064819336C44.53961926147461,24.390452064819335,44.58728926147461,24.594982064819334,44.61748926147461,24.735922064819334C44.63256926147461,24.806302064819334,44.64324926147461,24.860602064819336,44.64994926147461,24.896102064819335C44.65330926147461,24.913842064819335,44.65565926147461,24.926872064819335,44.65707926147461,24.934842064819335C44.65777926147461,24.938832064819337,44.65824926147461,24.941552064819337,44.65849926147461,24.942962064819337C44.65861926147461,24.943662064819335,44.65867926147461,24.944042064819335,44.658689261474606,24.944092064819337C44.658689261474606,24.944112064819336,44.65867926147461,24.944052064819335,44.65865926147461,24.943912064819337C44.65864926147461,24.943832064819336,44.65861926147461,24.943662064819335,44.65860926147461,24.943632064819337C44.65857926147461,24.943442064819337,44.65854926147461,24.943222064819338,45.398299261474605,24.819922064819337C46.13809926147461,24.696622064819337,46.13809926147461,24.696372064819336,46.13799926147461,24.696092064819336C46.13799926147461,24.695972064819337,46.13799926147461,24.695672064819334,46.13789926147461,24.695432064819336C46.13779926147461,24.694942064819337,46.13769926147461,24.694372064819337,46.137599261474605,24.693712064819337C46.13739926147461,24.692402064819337,46.13709926147461,24.690742064819336,46.13679926147461,24.688752064819337C46.13609926147461,24.684772064819335,46.13519926147461,24.679442064819334,46.133999261474614,24.672802064819336C46.131599261474605,24.659542064819334,46.12829926147461,24.641052064819334,46.123899261474605,24.617692064819337C46.11499926147461,24.570982064819336,46.10199926147461,24.504692064819338,46.08419926147461,24.421622064819335C46.04859926147461,24.255642064819334,45.99399926147461,24.021702064819337,45.91639926147461,23.742272064819335C45.76189926147461,23.186272064819335,45.512599261474605,22.436102064819337,45.13377926147461,21.678372064819335C44.39658926147461,20.203992064819335,43.03499926147461,18.457632064819336,40.72142926147461,18.457632064819336C40.72142926147461,18.457632064819336,40.72142926147461,19.957632064819336,40.72142926147461,19.957632064819336C40.72142926147461,19.957632064819336,40.72142926147461,19.957632064819336,40.72142926147461,19.957632064819336Z" fill="#000000" fill-opacity="1"/></g><g><path d="M28.561460264892577,51.01064135437012C21.625110264892577,51.01064135437012,19.77885026489258,39.223051354370114,19.29777557489258,32.037481354370115C19.24822566489258,31.297374354370117,20.013410264892578,30.756992354370116,20.719600264892577,30.983933354370116C22.86192026489258,31.672388354370117,26.25062026489258,32.490071354370116,28.561460264892577,32.490071354370116C30.92319026489258,32.490071354370116,34.216590264892574,31.635998354370116,36.42009026489258,30.938672354370116C37.119890264892575,30.717214354370117,37.839890264892574,31.271350354370117,37.76989026489258,32.002001354370115C37.081390264892576,39.18418135437012,35.50929026489258,51.01064135437012,28.561460264892577,51.01064135437012C28.561460264892577,51.01064135437012,28.561460264892577,51.01064135437012,28.561460264892577,51.01064135437012Z" fill="#000000" fill-opacity="1"/></g><g><path d="M28.56145631591797,50.07524791748047C34.173786315917965,50.07524791748047,35.10908631591797,43.52757791748047,35.10908631591797,42.592187917480466C35.10908631591797,41.65681091748047,31.22080631591797,40.72142791748047,28.56145631591797,40.72142791748047C25.90211631591797,40.72142791748047,22.01378631591797,41.65681091748047,22.01378631591797,42.592187917480466C22.01378631591797,43.52757791748047,22.94916831591797,50.07524791748047,28.56145631591797,50.07524791748047C28.56145631591797,50.07524791748047,28.56145631591797,50.07524791748047,28.56145631591797,50.07524791748047Z" fill="#D50B00" fill-opacity="1"/></g><g><path d="M22.385179287109374,33.245270087548825C21.872392287109374,33.040156987548826,21.290422287109376,33.28957298754883,21.085308387109375,33.80235598754883C20.880195287109373,34.31514098754883,21.129611287109373,34.89711098754883,21.642394287109376,35.102220987548826C21.642394287109376,35.102220987548826,22.385179287109374,33.245270087548825,22.385179287109374,33.245270087548825C22.385179287109374,33.245270087548825,22.385179287109374,33.245270087548825,22.385179287109374,33.245270087548825ZM35.480519287109374,35.102220987548826C35.99331928710937,34.89711098754883,36.242719287109374,34.31514098754883,36.03761928710938,33.80235598754883C35.83251928710938,33.28957298754883,35.25051928710938,33.040156987548826,34.737819287109374,33.245270087548825C34.737819287109374,33.245270087548825,35.480519287109374,35.102220987548826,35.480519287109374,35.102220987548826C35.480519287109374,35.102220987548826,35.480519287109374,35.102220987548826,35.480519287109374,35.102220987548826ZM21.642394287109376,35.102220987548826C24.068689287109375,36.072740987548826,26.300649287109376,36.57682098754883,28.561459287109376,36.57682098754883C30.822279287109374,36.57682098754883,33.054219287109376,36.072740987548826,35.480519287109374,35.102220987548826C35.480519287109374,35.102220987548826,34.737819287109374,33.245270087548825,34.737819287109374,33.245270087548825C32.48711928710937,34.14551698754883,30.509869287109375,34.57682098754883,28.561459287109376,34.57682098754883C26.613059287109376,34.57682098754883,24.635799287109375,34.14551698754883,22.385179287109374,33.245270087548825C22.385179287109374,33.245270087548825,21.642394287109376,35.102220987548826,21.642394287109376,35.102220987548826C21.642394287109376,35.102220987548826,21.642394287109376,35.102220987548826,21.642394287109376,35.102220987548826Z" fill="#FFFFFF" fill-opacity="1"/></g></g></svg>