<svg xmlns="http://www.w3.org/2000/svg" xmlns:xlink="http://www.w3.org/1999/xlink" fill="none" version="1.1" width="57.1229248046875" height="58.063385009765625" viewBox="0 0 57.1229248046875 58.063385009765625"><defs><linearGradient x1="0.5" y1="-3.0616171314629196e-17" x2="0.5" y2="1" id="master_svg0__19"><stop offset="0%" stop-color="#477FFB" stop-opacity="1"/><stop offset="100%" stop-color="#56D1FF" stop-opacity="1"/></linearGradient></defs><g><g><path d="M45.978284833984375,57.73115941772461C45.978284833984375,57.73115941772461,43.54911013398438,44.42652041772461,43.54911013398438,44.42652041772461C43.537898633984376,44.36511531772461,43.58506333398437,44.30855941772461,43.647483833984374,44.30855941772461C43.647483833984374,44.30855941772461,49.77199483398437,44.30855941772461,49.77199483398437,44.30855941772461C49.838124833984374,44.30855941772461,49.88604483398437,44.37160191772461,49.86835483398438,44.43532141772461C49.86835483398438,44.43532141772461,46.173014833984375,57.739959417724606,46.173014833984375,57.739959417724606C46.14459483398438,57.842259417724605,45.997354833984375,57.83555941772461,45.978284833984375,57.73115941772461C45.978284833984375,57.73115941772461,45.978284833984375,57.73115941772461,45.978284833984375,57.73115941772461Z" fill="#FFFFFF" fill-opacity="1"/><path d="M46.06082483398438,58.06285941772461Q46.33928483398437,58.07545941772461,46.413884833984376,57.80685941772461L50.10924483398438,44.50219741772461Q50.15567483398438,44.33494381772461,50.050634833984375,44.19675541772461Q49.94558483398438,44.05855941772461,49.77199483398437,44.05855941772461L43.647483833984374,44.05855941772461Q43.483629933984375,44.05855941772461,43.37868783398437,44.18439741772461Q43.27374583398438,44.31023493772461,43.303175833984376,44.47142341772461L45.732354833984374,57.77605941772461Q45.78242483398437,58.05015941772461,46.06082483398438,58.06285941772461ZM46.106914833984376,57.04375941772461L49.574654833984376,44.55855941772461L43.827350833984376,44.55855941772461L46.106914833984376,57.04375941772461Z" fill-rule="evenodd" fill="#000000" fill-opacity="1"/></g><g><path d="M3.509753463821411,48.442207543945315C3.509753463821411,48.442207543945315,1.080578763821411,35.137568543945314,1.080578763821411,35.137568543945314C1.0693672638214111,35.07616344394531,1.116531963821411,35.01960754394531,1.178952463821411,35.01960754394531C1.178952463821411,35.01960754394531,7.303463463821411,35.01960754394531,7.303463463821411,35.01960754394531C7.369593463821412,35.01960754394531,7.417513463821411,35.082650043945314,7.399823463821411,35.14636954394531C7.399823463821411,35.14636954394531,3.7044834638214112,48.45100754394531,3.7044834638214112,48.45100754394531C3.676063463821411,48.55330754394531,3.528823463821411,48.54660754394531,3.509753463821411,48.442207543945315C3.509753463821411,48.442207543945315,3.509753463821411,48.442207543945315,3.509753463821411,48.442207543945315Z" fill="#FFFFFF" fill-opacity="1"/><path d="M3.5922934638214112,48.77390754394531Q3.870753463821411,48.78650754394531,3.945353463821411,48.51790754394531L7.640713463821411,35.21324554394531Q7.687143463821411,35.04599194394531,7.5821034638214115,34.90780354394531Q7.477053463821411,34.76960754394531,7.303463463821411,34.76960754394531L1.178952463821411,34.76960754394531Q1.0150985638214112,34.76960754394531,0.9101564638214111,34.895445543945314Q0.8052144638214112,35.02128306394531,0.8346444638214111,35.18247154394531L3.263823463821411,48.487107543945314Q3.3138934638214113,48.76120754394531,3.5922934638214112,48.77390754394531ZM3.638383463821411,47.75480754394531L7.106123463821411,35.26960754394531L1.358819463821411,35.26960754394531L3.638383463821411,47.75480754394531Z" fill-rule="evenodd" fill="#000000" fill-opacity="1"/></g><g><path d="M7.290453457641601,57.68734566040039C7.290453457641601,57.68734566040039,4.958278947641602,43.64302666040039,4.958278947641602,43.64302666040039C4.948160087641601,43.582091660400394,4.995157857641601,43.52664566040039,5.056927457641602,43.52664566040039C5.056927457641602,43.52664566040039,10.936873457641601,43.52664566040039,10.936873457641601,43.52664566040039C11.002033457641602,43.52664566040039,11.049783457641603,43.58796346040039,11.033823457641603,43.65113766040039C11.033823457641603,43.65113766040039,7.486053457641601,57.69544566040039,7.486053457641601,57.69544566040039C7.459513457641601,57.80054566040039,7.308203457641602,57.79424566040039,7.290453457641601,57.68734566040039C7.290453457641601,57.68734566040039,7.290453457641601,57.68734566040039,7.290453457641601,57.68734566040039Z" fill="#FFFFFF" fill-opacity="1"/><path d="M7.7284434576416015,57.756645660400395L7.7284434576416015,57.756645660400395L11.276203457641602,43.71237266040039Q11.318103457641602,43.54654196040039,11.213013457641601,43.41159666040039Q11.1079234576416,43.27664566040039,10.936873457641601,43.27664566040039L5.056927457641602,43.27664566040039Q4.894781657641602,43.27664566040039,4.789937457641601,43.400335660400394Q4.685094457641601,43.52402524040039,4.711656457641602,43.683980660400394L7.043833457641602,57.72824566040039Q7.090423457641601,58.00884566040039,7.374583457641601,58.02064566040039Q7.658783457641602,58.03244566040039,7.7284434576416015,57.756645660400395ZM7.4194834576416016,56.93824566040039L10.744263457641601,43.77664566040039L5.233890457641602,43.77664566040039L7.4194834576416016,56.93824566040039Z" fill-rule="evenodd" fill="#000000" fill-opacity="1"/></g><g><path d="M12.883570217895507,56.95065132446289C12.883570217895507,56.95065132446289,10.551395707895507,42.90633232446289,10.551395707895507,42.90633232446289C10.541276847895508,42.845397324462894,10.588274617895507,42.78995132446289,10.650044217895507,42.78995132446289C10.650044217895507,42.78995132446289,16.52999021789551,42.78995132446289,16.52999021789551,42.78995132446289C16.595150217895508,42.78995132446289,16.64290021789551,42.85126912446289,16.62694021789551,42.91444332446289C16.62694021789551,42.91444332446289,13.079170217895507,56.95875132446289,13.079170217895507,56.95875132446289C13.052630217895508,57.06385132446289,12.901320217895508,57.05755132446289,12.883570217895507,56.95065132446289C12.883570217895507,56.95065132446289,12.883570217895507,56.95065132446289,12.883570217895507,56.95065132446289Z" fill="#FFFFFF" fill-opacity="1"/><path d="M13.321560217895508,57.019951324462895L13.321560217895508,57.019951324462895L16.869320217895506,42.97567832446289Q16.911220217895508,42.80984762446289,16.806130217895507,42.67490232446289Q16.701040217895507,42.53995132446289,16.52999021789551,42.53995132446289L10.650044217895507,42.53995132446289Q10.487898417895508,42.53995132446289,10.383054217895507,42.663641324462894Q10.278211217895509,42.78733090446289,10.304773217895509,42.947286324462894L12.636950217895508,56.99155132446289Q12.683540217895509,57.27215132446289,12.967700217895509,57.28395132446289Q13.251900217895507,57.29575132446289,13.321560217895508,57.019951324462895ZM13.012600217895507,56.20155132446289L16.337380217895507,43.03995132446289L10.827007217895508,43.03995132446289L13.012600217895507,56.20155132446289Z" fill-rule="evenodd" fill="#000000" fill-opacity="1"/></g><g transform="matrix(0.9967619180679321,-0.0804094448685646,0.0804094448685646,0.9967619180679321,-3.1030817118024174,4.005333605160615)"><path d="M50.61037254150391,53.953796594238284C50.61037254150391,53.953796594238284,48.18119784150391,40.64915759423828,48.18119784150391,40.64915759423828C48.16998634150391,40.58775249423828,48.217151041503904,40.53119659423828,48.279571541503906,40.53119659423828C48.279571541503906,40.53119659423828,54.404082541503904,40.53119659423828,54.404082541503904,40.53119659423828C54.470212541503905,40.53119659423828,54.5181325415039,40.59423909423828,54.50044254150391,40.65795859423828C54.50044254150391,40.65795859423828,50.805102541503906,53.96259659423828,50.805102541503906,53.96259659423828C50.77668254150391,54.06489659423828,50.629442541503906,54.05819659423828,50.61037254150391,53.953796594238284C50.61037254150391,53.953796594238284,50.61037254150391,53.953796594238284,50.61037254150391,53.953796594238284Z" fill="#FFFFFF" fill-opacity="1"/><path d="M50.69291254150391,54.28549659423828Q50.971372541503904,54.29809659423828,51.04597254150391,54.02949659423828L54.74133254150391,40.72483459423828Q54.78776254150391,40.55758099423828,54.68272254150391,40.41939259423828Q54.57767254150391,40.28119659423828,54.404082541503904,40.28119659423828L48.279571541503906,40.28119659423828Q48.115717641503906,40.28119659423828,48.010775541503904,40.40703459423828Q47.90583354150391,40.53287211423828,47.93526354150391,40.69406059423828L50.364442541503905,53.99869659423828Q50.4145125415039,54.27279659423828,50.69291254150391,54.28549659423828ZM50.73900254150391,53.26639659423828L54.20674254150391,40.78119659423828L48.45943854150391,40.78119659423828L50.73900254150391,53.26639659423828Z" fill-rule="evenodd" fill="#000000" fill-opacity="1"/></g><g><path d="M28.5615,56.6229Q29.2503,56.6229,29.9384,56.5891Q30.6264,56.5553,31.312,56.4878Q31.9975,56.4203,32.6789,56.3192Q33.3603,56.2181,34.036,56.0837Q34.7116,55.9493,35.3798,55.7819Q36.0481,55.6146,36.7073,55.4146Q37.3665,55.2146,38.0151,54.9826Q38.6637,54.7505,39.3001,54.4869Q39.9365,54.2232,40.5593,53.9287Q41.182,53.6342,41.7895,53.3095Q42.3971,52.9847,42.9879,52.6306Q43.5788,52.2764,44.1516,51.8937Q44.7243,51.511,45.2776,51.1006Q45.831,50.6903,46.3635,50.2533Q46.896,49.8162,47.4064,49.3536Q47.9168,48.891,48.4039,48.4039Q48.891,47.9168,49.3536,47.4064Q49.8162,46.896,50.2533,46.3635Q50.6903,45.831,51.1006,45.2776Q51.511,44.7243,51.8937,44.1516Q52.2764,43.5788,52.6306,42.9879Q52.9847,42.3971,53.3095,41.7895Q53.6342,41.182,53.9287,40.5593Q54.2232,39.9365,54.4869,39.3001Q54.7505,38.6637,54.9826,38.0151Q55.2146,37.3665,55.4146,36.7073Q55.6146,36.0481,55.782,35.3798Q55.9493,34.7116,56.0837,34.036Q56.2181,33.3603,56.3192,32.6789Q56.4203,31.9975,56.4878,31.312Q56.5553,30.6264,56.5891,29.9384Q56.6229,29.2503,56.6229,28.5615Q56.6229,27.8726,56.5891,27.1846Q56.5553,26.4965,56.4878,25.811Q56.4203,25.1254,56.3192,24.444Q56.2181,23.7626,56.0837,23.0869Q55.9493,22.4113,55.7819,21.7431Q55.6146,21.0749,55.4146,20.4156Q55.2146,19.7564,54.9826,19.1078Q54.7505,18.4592,54.4869,17.8228Q54.2232,17.1864,53.9287,16.5636Q53.6342,15.9409,53.3095,15.3334Q52.9847,14.7259,52.6306,14.135Q52.2764,13.5441,51.8937,12.9713Q51.511,12.3986,51.1006,11.8453Q50.6903,11.292,50.2533,10.7595Q49.8162,10.22695,49.3536,9.71654Q48.891,9.20612,48.4039,8.71901Q47.9168,8.23191,47.4064,7.76929Q46.896,7.30667,46.3635,6.86966Q45.831,6.43264,45.2776,6.02228Q44.7243,5.61192,44.1516,5.22921Q43.5788,4.84649,42.9879,4.49234Q42.3971,4.13819,41.7895,3.81346Q41.182,3.48873,40.5593,3.1942Q39.9365,2.89967,39.3001,2.63605Q38.6637,2.37243,38.0151,2.1403600000000003Q37.3665,1.90829,36.7073,1.70832Q36.0481,1.50835,35.3798,1.340967Q34.7116,1.173585,34.036,1.039193Q33.3603,0.904801,32.6789,0.803723Q31.9975,0.702645,31.312,0.635124Q30.6264,0.5676025,29.9384,0.5338013Q29.2503,0.5,28.5615,0.5Q27.8726,0.5,27.1846,0.5338013Q26.4965,0.5676025,25.811,0.635124Q25.1254,0.702645,24.444,0.803723Q23.7626,0.904801,23.0869,1.039193Q22.4113,1.173585,21.7431,1.340967Q21.0749,1.50835,20.4156,1.70832Q19.7564,1.90829,19.1078,2.1403600000000003Q18.4592,2.37243,17.8228,2.63605Q17.1864,2.89967,16.5636,3.1942Q15.9409,3.48873,15.3334,3.81346Q14.7259,4.13819,14.135,4.49234Q13.5441,4.84649,12.9713,5.22921Q12.3986,5.61192,11.8453,6.02228Q11.292,6.43264,10.7595,6.86966Q10.22695,7.30667,9.71654,7.76929Q9.20612,8.23191,8.71901,8.71901Q8.23191,9.20612,7.76929,9.71654Q7.30667,10.22695,6.86966,10.7595Q6.43264,11.292,6.02228,11.8453Q5.61192,12.3986,5.22921,12.9713Q4.84649,13.5441,4.49234,14.135Q4.13819,14.7259,3.81346,15.3334Q3.48873,15.9409,3.1942,16.5636Q2.89967,17.1864,2.63605,17.8228Q2.37243,18.4592,2.1403600000000003,19.1078Q1.90829,19.7564,1.70832,20.4156Q1.50835,21.0749,1.340967,21.7431Q1.173585,22.4113,1.039193,23.0869Q0.904801,23.7626,0.803723,24.444Q0.702645,25.1254,0.635124,25.811Q0.5676025,26.4965,0.5338013,27.1846Q0.5,27.8726,0.5,28.5615Q0.4999999999999988,29.6907,0.5907328000000001,30.8162Q0.681466,31.9418,0.8623449999999999,33.0564Q1.043224,34.171,1.313079,35.2675Q1.58293,36.364,1.94002,37.4353Q2.29711,38.5065,2.73912,39.5456Q3.18112,40.5847,3.7052,41.585Q4.22927,42.5852,4.83202,43.5401Q5.43476,44.495,6.11229,45.3983L4.24155,53.8168L12.0151,51.2256Q12.9088,51.8781,13.8512,52.4582Q14.7935,53.0383,15.7786,53.5424Q16.7637,54.0464,17.7855,54.4714Q18.8072,54.8963,19.8593,55.2395Q20.9113,55.5827,21.9871,55.8419Q23.0629,56.1012,24.1557,56.2749Q25.2486,56.4486,26.3517,56.5358Q27.4549,56.6229,28.5615,56.6229Z" fill-rule="evenodd" fill="url(#master_svg0__19)" fill-opacity="1"/><path d="M28.5615,56.1229Q33.8186,56.1229,38.7067,54.1878Q44.014,52.0867,48.0504,48.0504Q52.0867,44.0141,54.1878,38.7067Q56.1229,33.8186,56.1229,28.5615Q56.1229,23.3043,54.1878,18.4162Q52.0867,13.1089,48.0504,9.07257Q44.0141,5.03629,38.7067,2.93514Q33.8186,1,28.5615,1Q23.3043,1,18.4162,2.93514Q13.1088,5.03628,9.07257,9.07257Q5.03629,13.1089,2.93514,18.4162Q1,23.3043,1,28.5615Q1,37.7486,6.51229,45.0983L6.65027,45.2823L4.72964,53.9252L4.24155,53.8168L4.08343,53.3424L12.1016,50.6697L12.3099,50.8218Q19.571,56.123,28.5615,56.1229ZM28.5615,57.1229Q19.2449,57.1229,11.7203,51.6294L12.0151,51.2256L12.1732,51.6999L3.56189,54.5704L5.62419,45.2899L6.11229,45.3983L5.71229,45.6983Q0,38.082,0,28.5615Q0,23.1135,2.00535,18.0481Q4.18272,12.5482,8.365459999999999,8.365459999999999Q12.5482,4.182729999999999,18.0481,2.00535Q23.1136,0,28.5615,0Q34.0094,0,39.0748,2.00535Q44.5747,4.182729999999999,48.7575,8.365459999999999Q52.9402,12.5483,55.1176,18.0481Q57.1229,23.1136,57.1229,28.5615Q57.1229,34.0093,55.1176,39.0748Q52.9402,44.5747,48.7575,48.7575Q44.5747,52.9402,39.0748,55.1176Q34.0093,57.1229,28.5615,57.1229Z" fill="#000000" fill-opacity="1"/></g><g><path d="M37.514470881347656,52.32949073364258C37.514470881347656,52.32949073364258,35.122840881347656,44.46297073364258,35.122840881347656,44.46297073364258C35.122840881347656,44.46297073364258,40.231740881347655,44.46297073364258,40.231740881347655,44.46297073364258C40.231740881347655,44.46297073364258,37.514470881347656,52.32949073364258,37.514470881347656,52.32949073364258C37.514470881347656,52.32949073364258,37.514470881347656,52.32949073364258,37.514470881347656,52.32949073364258Z" fill="#FFFFFF" fill-opacity="1"/></g><g><path d="M41.059140986328124,49.3314972644043C41.059140986328124,49.3314972644043,38.667510986328125,41.4649772644043,38.667510986328125,41.4649772644043C38.667510986328125,41.4649772644043,43.77641098632812,41.4649772644043,43.77641098632812,41.4649772644043C43.77641098632812,41.4649772644043,41.059140986328124,49.3314972644043,41.059140986328124,49.3314972644043C41.059140986328124,49.3314972644043,41.059140986328124,49.3314972644043,41.059140986328124,49.3314972644043Z" fill="#FFFFFF" fill-opacity="1"/></g><g><path d="M32.79580096557617,48.85167495361328C32.79580096557617,48.85167495361328,31.534770965576172,41.94501495361328,31.534770965576172,41.94501495361328C31.534770965576172,41.94501495361328,34.71412096557617,41.94501495361328,34.71412096557617,41.94501495361328C34.71412096557617,41.94501495361328,32.79580096557617,48.85167495361328,32.79580096557617,48.85167495361328C32.79580096557617,48.85167495361328,32.79580096557617,48.85167495361328,32.79580096557617,48.85167495361328Z" fill="#FFFFFF" fill-opacity="1"/></g><g><path d="M16.63213710144043,51.36963073364258C16.63213710144043,51.36963073364258,15.37110710144043,44.46297073364258,15.37110710144043,44.46297073364258C15.37110710144043,44.46297073364258,18.55045710144043,44.46297073364258,18.55045710144043,44.46297073364258C18.55045710144043,44.46297073364258,16.63213710144043,51.36963073364258,16.63213710144043,51.36963073364258C16.63213710144043,51.36963073364258,16.63213710144043,51.36963073364258,16.63213710144043,51.36963073364258Z" fill="#FFFFFF" fill-opacity="1"/></g><g><path d="M19.320310419921874,48.85167495361328C19.320310419921874,48.85167495361328,17.428680419921875,41.94501495361328,17.428680419921875,41.94501495361328C17.428680419921875,41.94501495361328,22.197920419921875,41.94501495361328,22.197920419921875,41.94501495361328C22.197920419921875,41.94501495361328,19.320310419921874,48.85167495361328,19.320310419921874,48.85167495361328C19.320310419921874,48.85167495361328,19.320310419921874,48.85167495361328,19.320310419921874,48.85167495361328Z" fill="#FFFFFF" fill-opacity="1"/></g><g><ellipse cx="39.78604555130005" cy="25.755311489105225" rx="3.741528034210205" ry="4.676909923553467" fill="#000000" fill-opacity="1"/></g><g><ellipse cx="17.336872577667236" cy="25.755311489105225" rx="3.741528034210205" ry="4.676909923553467" fill="#000000" fill-opacity="1"/></g><g><rect x="11.72458553314209" y="36.044517517089844" width="33.67375183105469" height="9.353819847106934" rx="4.676909923553467" fill="#FFFFFF" fill-opacity="1"/><rect x="11.72458553314209" y="36.044517517089844" width="33.67375183105469" height="9.353819847106934" rx="4.676909923553467" fill-opacity="0" stroke-opacity="1" stroke="#000000" fill="none" stroke-width="1"/></g><g><path d="M11.72458553314209,41.22142791748047C11.72458553314209,41.22142791748047,44.46298553314209,41.22142791748047,44.46298553314209,41.22142791748047C44.46298553314209,41.22142791748047,44.46298553314209,40.22142791748047,44.46298553314209,40.22142791748047C44.46298553314209,40.22142791748047,11.72458553314209,40.22142791748047,11.72458553314209,40.22142791748047C11.72458553314209,40.22142791748047,11.72458553314209,41.22142791748047,11.72458553314209,41.22142791748047C11.72458553314209,41.22142791748047,11.72458553314209,41.22142791748047,11.72458553314209,41.22142791748047Z" fill="#000000" fill-opacity="1"/></g><g><path d="M20.578401565551758,36.044517517089844C20.578401565551758,36.044517517089844,20.578401565551758,44.46295751708985,20.578401565551758,44.46295751708985C20.578401565551758,44.46295751708985,21.578401565551758,44.46295751708985,21.578401565551758,44.46295751708985C21.578401565551758,44.46295751708985,21.578401565551758,36.044517517089844,21.578401565551758,36.044517517089844C21.578401565551758,36.044517517089844,20.578401565551758,36.044517517089844,20.578401565551758,36.044517517089844C20.578401565551758,36.044517517089844,20.578401565551758,36.044517517089844,20.578401565551758,36.044517517089844Z" fill="#000000" fill-opacity="1"/></g><g><path d="M28.061458587646484,36.044517517089844C28.061458587646484,36.044517517089844,28.061458587646484,44.46295751708985,28.061458587646484,44.46295751708985C28.061458587646484,44.46295751708985,29.061458587646484,44.46295751708985,29.061458587646484,44.46295751708985C29.061458587646484,44.46295751708985,29.061458587646484,36.044517517089844,29.061458587646484,36.044517517089844C29.061458587646484,36.044517517089844,28.061458587646484,36.044517517089844,28.061458587646484,36.044517517089844C28.061458587646484,36.044517517089844,28.061458587646484,36.044517517089844,28.061458587646484,36.044517517089844Z" fill="#000000" fill-opacity="1"/></g><g><path d="M35.544517517089844,36.044517517089844C35.544517517089844,36.044517517089844,35.544517517089844,44.46295751708985,35.544517517089844,44.46295751708985C35.544517517089844,44.46295751708985,36.544517517089844,44.46295751708985,36.544517517089844,44.46295751708985C36.544517517089844,44.46295751708985,36.544517517089844,36.044517517089844,36.544517517089844,36.044517517089844C36.544517517089844,36.044517517089844,35.544517517089844,36.044517517089844,35.544517517089844,36.044517517089844C35.544517517089844,36.044517517089844,35.544517517089844,36.044517517089844,35.544517517089844,36.044517517089844Z" fill="#000000" fill-opacity="1"/></g></g></svg>