<svg xmlns="http://www.w3.org/2000/svg" xmlns:xlink="http://www.w3.org/1999/xlink" fill="none" version="1.1" width="57.25762939453125" height="57.1229248046875" viewBox="0 0 57.25762939453125 57.1229248046875"><defs><mask id="master_svg0_0_605" style="mask-type:alpha" maskUnits="userSpaceOnUse"><g><ellipse cx="28.561442375183105" cy="41.65680980682373" rx="5.612292289733887" ry="5.612292289733887" fill="#FFFFFF" fill-opacity="1"/></g></mask></defs><g><g><path d="M28.5615,56.6229Q29.2503,56.6229,29.9384,56.5891Q30.6264,56.5553,31.312,56.4878Q31.9975,56.4203,32.6789,56.3192Q33.3603,56.2181,34.036,56.0837Q34.7116,55.9493,35.3798,55.7819Q36.0481,55.6146,36.7073,55.4146Q37.3665,55.2146,38.0151,54.9826Q38.6637,54.7505,39.3001,54.4869Q39.9365,54.2232,40.5593,53.9287Q41.182,53.6342,41.7895,53.3095Q42.3971,52.9847,42.9879,52.6306Q43.5788,52.2764,44.1516,51.8937Q44.7243,51.511,45.2776,51.1006Q45.831,50.6903,46.3635,50.2533Q46.896,49.8162,47.4064,49.3536Q47.9168,48.891,48.4039,48.4039Q48.891,47.9168,49.3536,47.4064Q49.8162,46.896,50.2533,46.3635Q50.6903,45.831,51.1006,45.2776Q51.511,44.7243,51.8937,44.1516Q52.2764,43.5788,52.6306,42.9879Q52.9847,42.3971,53.3095,41.7895Q53.6342,41.182,53.9287,40.5593Q54.2232,39.9365,54.4869,39.3001Q54.7505,38.6637,54.9826,38.0151Q55.2146,37.3665,55.4146,36.7073Q55.6146,36.0481,55.782,35.3798Q55.9493,34.7116,56.0837,34.036Q56.2181,33.3603,56.3192,32.6789Q56.4203,31.9975,56.4878,31.312Q56.5553,30.6264,56.5891,29.9384Q56.6229,29.2503,56.6229,28.5615Q56.6229,27.8726,56.5891,27.1846Q56.5553,26.4965,56.4878,25.811Q56.4203,25.1254,56.3192,24.444Q56.2181,23.7626,56.0837,23.0869Q55.9493,22.4113,55.7819,21.7431Q55.6146,21.0749,55.4146,20.4156Q55.2146,19.7564,54.9826,19.1078Q54.7505,18.4592,54.4869,17.8228Q54.2232,17.1864,53.9287,16.5636Q53.6342,15.9409,53.3095,15.3334Q52.9847,14.7259,52.6306,14.135Q52.2764,13.5441,51.8937,12.9713Q51.511,12.3986,51.1006,11.8453Q50.6903,11.292,50.2533,10.7595Q49.8162,10.22695,49.3536,9.71654Q48.891,9.20612,48.4039,8.71901Q47.9168,8.23191,47.4064,7.76929Q46.896,7.30667,46.3635,6.86966Q45.831,6.43264,45.2776,6.02228Q44.7243,5.61192,44.1516,5.22921Q43.5788,4.84649,42.9879,4.49234Q42.3971,4.13819,41.7895,3.81346Q41.182,3.48873,40.5593,3.1942Q39.9365,2.89967,39.3001,2.63605Q38.6637,2.37243,38.0151,2.1403600000000003Q37.3665,1.90829,36.7073,1.70832Q36.0481,1.50835,35.3798,1.340967Q34.7116,1.173585,34.036,1.039193Q33.3603,0.904801,32.6789,0.803723Q31.9975,0.702645,31.312,0.635124Q30.6264,0.5676025,29.9384,0.5338013Q29.2503,0.5,28.5615,0.5Q27.8726,0.5,27.1846,0.5338013Q26.4965,0.5676025,25.811,0.635124Q25.1254,0.702645,24.444,0.803723Q23.7626,0.904801,23.0869,1.039193Q22.4113,1.173585,21.7431,1.340967Q21.0749,1.50835,20.4156,1.70832Q19.7564,1.90829,19.1078,2.1403600000000003Q18.4592,2.37243,17.8228,2.63605Q17.1864,2.89967,16.5636,3.1942Q15.9409,3.48873,15.3334,3.81346Q14.7259,4.13819,14.135,4.49234Q13.5441,4.84649,12.9713,5.22921Q12.3986,5.61192,11.8453,6.02228Q11.292,6.43264,10.7595,6.86966Q10.22695,7.30667,9.71654,7.76929Q9.20612,8.23191,8.71901,8.71901Q8.23191,9.20612,7.76929,9.71654Q7.30667,10.22695,6.86966,10.7595Q6.43264,11.292,6.02228,11.8453Q5.61192,12.3986,5.22921,12.9713Q4.84649,13.5441,4.49234,14.135Q4.13819,14.7259,3.81346,15.3334Q3.48873,15.9409,3.1942,16.5636Q2.89967,17.1864,2.63605,17.8228Q2.37243,18.4592,2.1403600000000003,19.1078Q1.90829,19.7564,1.70832,20.4156Q1.50835,21.0749,1.340967,21.7431Q1.173585,22.4113,1.039193,23.0869Q0.904801,23.7626,0.803723,24.444Q0.702645,25.1254,0.635124,25.811Q0.5676025,26.4965,0.5338013,27.1846Q0.5,27.8726,0.5,28.5615Q0.4999999999999988,29.6907,0.5907328000000001,30.8162Q0.681466,31.9418,0.8623449999999999,33.0564Q1.043224,34.171,1.313079,35.2675Q1.58293,36.364,1.94002,37.4353Q2.29711,38.5065,2.73912,39.5456Q3.18112,40.5847,3.7052,41.585Q4.22927,42.5852,4.83202,43.5401Q5.43476,44.495,6.11229,45.3983L4.24155,53.8168L12.0151,51.2256Q12.9088,51.8781,13.8512,52.4582Q14.7935,53.0383,15.7786,53.5424Q16.7637,54.0464,17.7855,54.4714Q18.8072,54.8963,19.8593,55.2395Q20.9113,55.5827,21.9871,55.8419Q23.0629,56.1012,24.1557,56.2749Q25.2486,56.4486,26.3517,56.5358Q27.4549,56.6229,28.5615,56.6229Z" fill-rule="evenodd" fill="#FFCF00" fill-opacity="1"/><path d="M28.5615,56.1229Q33.8186,56.1229,38.7067,54.1878Q44.014,52.0867,48.0504,48.0504Q52.0867,44.0141,54.1878,38.7067Q56.1229,33.8186,56.1229,28.5615Q56.1229,23.3043,54.1878,18.4162Q52.0867,13.1089,48.0504,9.07257Q44.0141,5.03629,38.7067,2.93514Q33.8186,1,28.5615,1Q23.3043,1,18.4162,2.93514Q13.1088,5.03628,9.07257,9.07257Q5.03629,13.1089,2.93514,18.4162Q1,23.3043,1,28.5615Q1,37.7486,6.51229,45.0983L6.65027,45.2823L4.72964,53.9252L4.24155,53.8168L4.08343,53.3424L12.1016,50.6697L12.3099,50.8218Q19.571,56.123,28.5615,56.1229ZM28.5615,57.1229Q19.2449,57.1229,11.7203,51.6294L12.0151,51.2256L12.1732,51.6999L3.56189,54.5704L5.62419,45.2899L6.11229,45.3983L5.71229,45.6983Q0,38.082,0,28.5615Q0,23.1135,2.00535,18.0481Q4.18272,12.5482,8.365459999999999,8.365459999999999Q12.5482,4.182729999999999,18.0481,2.00535Q23.1136,0,28.5615,0Q34.0094,0,39.0748,2.00535Q44.5747,4.182729999999999,48.7575,8.365459999999999Q52.9402,12.5483,55.1176,18.0481Q57.1229,23.1136,57.1229,28.5615Q57.1229,34.0093,55.1176,39.0748Q52.9402,44.5747,48.7575,48.7575Q44.5747,52.9402,39.0748,55.1176Q34.0093,57.1229,28.5615,57.1229Z" fill="#000000" fill-opacity="1"/></g><g><g><ellipse cx="28.561442375183105" cy="41.65680980682373" rx="5.612292289733887" ry="5.612292289733887" fill="#000000" fill-opacity="1"/></g><g mask="url(#master_svg0_0_605)"><g><path d="M28.56144008544922,43.05988264083862C25.05376008544922,43.05988264083862,23.650687085449217,45.866032640838625,22.94915008544922,47.269102640838625C22.94915008544922,47.269102640838625,34.17375008544922,47.269102640838625,34.17375008544922,47.269102640838625C33.472150085449215,45.866032640838625,32.06913008544922,43.05988264083862,28.56144008544922,43.05988264083862C28.56144008544922,43.05988264083862,28.56144008544922,43.05988264083862,28.56144008544922,43.05988264083862Z" fill="#D50B00" fill-opacity="1"/></g></g></g><g><path d="M12.305808748779297,25.87696907775879C11.856398748779297,25.55595607775879,11.231849748779297,25.66004707775879,10.910841748779298,26.10945907775879C10.589834748779296,26.55886907775879,10.693925048779297,27.183429077758788,11.143336748779296,27.50443907775879C11.143336748779296,27.50443907775879,12.305808748779297,25.87696907775879,12.305808748779297,25.87696907775879C12.305808748779297,25.87696907775879,12.305808748779297,25.87696907775879,12.305808748779297,25.87696907775879ZM23.717398748779296,26.39549907775879C24.070998748779296,25.97121907775879,24.013598748779295,25.34065807775879,23.589398748779296,24.98709407775879C23.165098748779297,24.63352507775879,22.5344987487793,24.69085557775879,22.180998748779295,25.11513107775879C22.180998748779295,25.11513107775879,23.717398748779296,26.39549907775879,23.717398748779296,26.39549907775879C23.717398748779296,26.39549907775879,23.717398748779296,26.39549907775879,23.717398748779296,26.39549907775879ZM11.143336748779296,27.50443907775879C12.351388748779296,28.36732907775879,14.397618748779298,29.342319077758788,16.6882387487793,29.48925907775879C19.029748748779298,29.63946907775879,21.616298748779297,28.916839077758787,23.717398748779296,26.39549907775879C23.717398748779296,26.39549907775879,22.180998748779295,25.11513107775879,22.180998748779295,25.11513107775879C20.540528748779295,27.08362907775879,18.606038748779298,27.608179077758788,16.816278748779297,27.49335907775879C14.975628748779297,27.37527907775879,13.280318748779298,26.57303907775879,12.305808748779297,25.87696907775879C12.305808748779297,25.87696907775879,11.143336748779296,27.50443907775879,11.143336748779296,27.50443907775879C11.143336748779296,27.50443907775879,11.143336748779296,27.50443907775879,11.143336748779296,27.50443907775879Z" fill="#000000" fill-opacity="1"/></g><g transform="matrix(-1,0,0,1,92.7967529296875,0)"><path d="M47.97968646484375,25.87696907775879C47.53027646484375,25.55595607775879,46.90572746484375,25.66004707775879,46.58471946484375,26.10945907775879C46.26371246484375,26.55886907775879,46.36780276484375,27.183429077758788,46.81721446484375,27.50443907775879C46.81721446484375,27.50443907775879,47.97968646484375,25.87696907775879,47.97968646484375,25.87696907775879C47.97968646484375,25.87696907775879,47.97968646484375,25.87696907775879,47.97968646484375,25.87696907775879ZM59.39127646484375,26.39549907775879C59.74487646484375,25.97121907775879,59.68747646484375,25.34065807775879,59.26327646484375,24.98709407775879C58.83897646484375,24.63352507775879,58.20837646484375,24.69085557775879,57.85487646484375,25.11513107775879C57.85487646484375,25.11513107775879,59.39127646484375,26.39549907775879,59.39127646484375,26.39549907775879C59.39127646484375,26.39549907775879,59.39127646484375,26.39549907775879,59.39127646484375,26.39549907775879ZM46.81721446484375,27.50443907775879C48.02526646484375,28.36732907775879,50.07149646484375,29.342319077758788,52.36211646484375,29.48925907775879C54.70362646484375,29.63946907775879,57.29017646484375,28.916839077758787,59.39127646484375,26.39549907775879C59.39127646484375,26.39549907775879,57.85487646484375,25.11513107775879,57.85487646484375,25.11513107775879C56.21440646484375,27.08362907775879,54.27991646484375,27.608179077758788,52.49015646484375,27.49335907775879C50.64950646484375,27.37527907775879,48.95419646484375,26.57303907775879,47.97968646484375,25.87696907775879C47.97968646484375,25.87696907775879,46.81721446484375,27.50443907775879,46.81721446484375,27.50443907775879C46.81721446484375,27.50443907775879,46.81721446484375,27.50443907775879,46.81721446484375,27.50443907775879Z" fill="#000000" fill-opacity="1"/></g><g><path d="M49.13974804931641,12.278534689636231Q49.03807755671641,12.412544689636231,49.03807755671641,12.58075468963623Q49.03807755671641,12.748964689636232,49.13974804931641,12.88296468963623L49.13974804931641,13.095344689636232Q49.13974804931641,13.14459468963623,49.149355049316405,13.19288468963623Q49.15896204931641,13.241184689636231,49.177808049316404,13.28668468963623Q49.1966530493164,13.33218468963623,49.224013049316405,13.373124689636231Q49.25137204931641,13.41407468963623,49.28619404931641,13.44889468963623Q49.321016049316405,13.48371468963623,49.3619620493164,13.511074689636231Q49.402909049316406,13.53843468963623,49.448406049316404,13.55728468963623Q49.49390304931641,13.57612468963623,49.54220204931641,13.58573468963623Q49.590502049316406,13.595344689636232,49.63974804931641,13.595344689636232L49.852300049316405,13.595344689636232Q49.917412049316404,13.64456468963623,49.994796049316406,13.670514689636232Q50.07218304931641,13.69647468963623,50.15380304931641,13.69647468963623Q50.23542304931641,13.69647468963623,50.31280304931641,13.670514689636232Q50.39019304931641,13.64456468963623,50.455303049316406,13.595344689636232L56.1228030493164,13.595344689636232Q56.1720530493164,13.595344689636232,56.22035304931641,13.58573468963623Q56.26864304931641,13.57612468963623,56.31414304931641,13.55728468963623Q56.359643049316404,13.53843468963623,56.40058304931641,13.511074689636231Q56.441533049316405,13.48371468963623,56.47635304931641,13.44889468963623Q56.51118304931641,13.41407468963623,56.538533049316406,13.373124689636231Q56.56589304931641,13.33218468963623,56.58474304931641,13.28668468963623Q56.60359304931641,13.241184689636231,56.61319304931641,13.19288468963623Q56.6228030493164,13.14459468963623,56.6228030493164,13.095344689636232L56.6228030493164,12.224584689636231Q56.6228030493164,12.17533468963623,56.61319304931641,12.12703468963623Q56.60359304931641,12.078734689636232,56.58474304931641,12.033234689636231Q56.56589304931641,11.98774468963623,56.538533049316406,11.946794689636231Q56.51118304931641,11.90584468963623,56.47635304931641,11.87102468963623Q56.441533049316405,11.83620468963623,56.40058304931641,11.808844689636231Q56.359643049316404,11.78148468963623,56.31414304931641,11.76264468963623Q56.26864304931641,11.74379468963623,56.220343049316405,11.73418468963623Q56.1720530493164,11.724584689636231,56.1228030493164,11.724584689636231L52.332803049316404,11.724584689636231L56.07433304931641,7.98305468963623L56.1228030493164,7.98305468963623Q56.1720530493164,7.98305468963623,56.22035304931641,7.9734446896362305Q56.26864304931641,7.96383468963623,56.31414304931641,7.94499468963623Q56.359643049316404,7.926144689636231,56.40058304931641,7.89878468963623Q56.441533049316405,7.87142468963623,56.47635304931641,7.83660468963623Q56.51118304931641,7.80178468963623,56.538533049316406,7.760834689636231Q56.56589304931641,7.719894689636231,56.58474304931641,7.67439468963623Q56.60359304931641,7.628894689636231,56.61319304931641,7.58059468963623Q56.6228030493164,7.53229468963623,56.6228030493164,7.48305468963623L56.6228030493164,7.42936468963623Q56.6744030493164,7.36339468963623,56.701693049316404,7.28421468963623Q56.72899304931641,7.20503468963623,56.728983049316405,7.12128468963623Q56.72899304931641,7.037534689636231,56.701693049316404,6.95835768963623Q56.6744030493164,6.87917868963623,56.6228030493164,6.81321368963623L56.6228030493164,6.61228768963623Q56.6228030493164,6.563041689636231,56.61319304931641,6.514742689636231Q56.60359304931641,6.466442689636231,56.58474304931641,6.4209456896362305Q56.56589304931641,6.37544868963623,56.538533049316406,6.33450268963623Q56.51118304931641,6.29355568963623,56.47635304931641,6.25873368963623Q56.441533049316405,6.22391168963623,56.40058304931641,6.19655268963623Q56.359643049316404,6.169193689636231,56.31414304931641,6.150347689636231Q56.26864304931641,6.13150268963623,56.220343049316405,6.12189468963623Q56.1720530493164,6.11228768963623,56.1228030493164,6.11228768963623L55.92202304931641,6.11228768963623Q55.855973049316404,6.06043108963623,55.77660304931641,6.032997689636231Q55.697243049316405,6.00556435183623,55.61326304931641,6.00556435183623Q55.52929304931641,6.00556435183623,55.4499230493164,6.032997689636231Q55.370553049316406,6.06043108963623,55.30450304931641,6.11228768963623L49.63974804931641,6.11228768963623Q49.590502049316406,6.11228768963623,49.54220204931641,6.12189468963623Q49.49390304931641,6.13150268963623,49.448406049316404,6.150347689636231Q49.402909049316406,6.169193689636231,49.3619620493164,6.19655268963623Q49.321016049316405,6.22391168963623,49.28619404931641,6.25873368963623Q49.25137204931641,6.29355568963623,49.224013049316405,6.33450268963623Q49.1966530493164,6.37544868963623,49.177808049316404,6.4209456896362305Q49.15896204931641,6.466442689636231,49.149355049316405,6.514742689636231Q49.13974804931641,6.563041689636231,49.13974804931641,6.61228768963623L49.13974804931641,7.48305468963623Q49.13974804931641,7.53229468963623,49.149355049316405,7.58059468963623Q49.15896204931641,7.628894689636231,49.177808049316404,7.67439468963623Q49.1966530493164,7.719894689636231,49.224013049316405,7.760834689636231Q49.25137204931641,7.80178468963623,49.28619404931641,7.83660468963623Q49.321016049316405,7.87142468963623,49.3619620493164,7.89878468963623Q49.402909049316406,7.926144689636231,49.448406049316404,7.94499468963623Q49.49390304931641,7.96383468963623,49.54220204931641,7.9734446896362305Q49.590502049316406,7.98305468963623,49.63974804931641,7.98305468963623L53.42867304931641,7.98305468963623L49.68714104931641,11.724584689636231L49.63974804931641,11.724584689636231Q49.590502049316406,11.724584689636231,49.54220204931641,11.73418468963623Q49.49390304931641,11.74379468963623,49.448406049316404,11.76264468963623Q49.402909049316406,11.78148468963623,49.3619620493164,11.808844689636231Q49.321016049316405,11.83620468963623,49.28619404931641,11.87102468963623Q49.25137204931641,11.90584468963623,49.224013049316405,11.946794689636231Q49.1966530493164,11.98774468963623,49.177808049316404,12.033234689636231Q49.15896204931641,12.078734689636232,49.149355049316405,12.12703468963623Q49.13974804931641,12.17533468963623,49.13974804931641,12.224584689636231L49.13974804931641,12.278534689636231Z" fill-rule="evenodd" fill="#A0B2FC" fill-opacity="1"/><path d="M48.6435610493164,12.13163468963623Q48.67316904931641,11.776944689636231,48.93264104931641,11.51747468963623Q49.162225049316405,11.28788468963623,49.466350049316404,11.238264689636232L52.22156304931641,8.48305468963623L49.63974804931641,8.48305468963623Q49.22553404931641,8.48305468963623,48.93264104931641,8.19015468963623Q48.63974804931641,7.897264689636231,48.63974804931641,7.48305468963623L48.63974804931641,6.61228768963623Q48.63974804931641,6.198073689636231,48.93264104931641,5.90518068963623Q49.22553404931641,5.61228768963623,49.63974804931641,5.61228768963623L55.151263049316405,5.61228768963623Q55.61326304931641,5.34091868963623,56.075263049316405,5.61228768963623L56.1228030493164,5.61228768963623Q56.53701304931641,5.61228768963623,56.8299130493164,5.90518068963623Q57.1228030493164,6.198074689636231,57.1228030493164,6.61228768963623L57.1228030493164,6.66045368963623Q57.39498304931641,7.125654689636231,57.117643049316406,7.590854689636231Q57.08393304931641,7.93613468963623,56.8299130493164,8.19015468963623Q56.599843049316405,8.42022468963623,56.294913049316406,8.46957468963623L53.53990304931641,11.224584689636231L56.1228030493164,11.224584689636231Q56.53701304931641,11.224584689636231,56.8299130493164,11.51747468963623Q57.1228030493164,11.81036468963623,57.1228030493164,12.224584689636231L57.1228030493164,13.095344689636232Q57.1228030493164,13.50955468963623,56.8299130493164,13.802454689636232Q56.53701304931641,14.09534468963623,56.1228030493164,14.09534468963623L50.603533049316404,14.09534468963623Q50.15380304931641,14.34888468963623,49.704068049316405,14.09534468963623L49.63974804931641,14.09534468963623Q49.22553404931641,14.09534468963623,48.93264104931641,13.802454689636232Q48.63974804931641,13.50955468963623,48.63974804931641,13.095344689636232L48.63974804931641,13.02231468963623Q48.538078049316404,12.81863468963623,48.538078049316404,12.58075468963623Q48.538078049316404,12.33844468963623,48.6435610493164,12.13163468963623ZM49.13974804931641,12.278534689636231Q49.03807755671641,12.412544689636231,49.03807755671641,12.58075468963623Q49.03807755671641,12.748964689636232,49.13974804931641,12.88296468963623L49.13974804931641,13.095344689636232Q49.13974804931641,13.14459468963623,49.149355049316405,13.19288468963623Q49.15896204931641,13.241184689636231,49.177808049316404,13.28668468963623Q49.1966530493164,13.33218468963623,49.224013049316405,13.373124689636231Q49.25137204931641,13.41407468963623,49.28619404931641,13.44889468963623Q49.321016049316405,13.48371468963623,49.3619620493164,13.511074689636231Q49.402909049316406,13.53843468963623,49.448406049316404,13.55728468963623Q49.49390304931641,13.57612468963623,49.54220204931641,13.58573468963623Q49.590502049316406,13.595344689636232,49.63974804931641,13.595344689636232L49.852300049316405,13.595344689636232Q49.917412049316404,13.64456468963623,49.994796049316406,13.670514689636232Q50.07218304931641,13.69647468963623,50.15380304931641,13.69647468963623Q50.23542304931641,13.69647468963623,50.31280304931641,13.670514689636232Q50.39019304931641,13.64456468963623,50.455303049316406,13.595344689636232L56.1228030493164,13.595344689636232Q56.1720530493164,13.595344689636232,56.22035304931641,13.58573468963623Q56.26864304931641,13.57612468963623,56.31414304931641,13.55728468963623Q56.359643049316404,13.53843468963623,56.40058304931641,13.511074689636231Q56.441533049316405,13.48371468963623,56.47635304931641,13.44889468963623Q56.51118304931641,13.41407468963623,56.538533049316406,13.373124689636231Q56.56589304931641,13.33218468963623,56.58474304931641,13.28668468963623Q56.60359304931641,13.241184689636231,56.61319304931641,13.19288468963623Q56.6228030493164,13.14459468963623,56.6228030493164,13.095344689636232L56.6228030493164,12.224584689636231Q56.6228030493164,12.17533468963623,56.61319304931641,12.12703468963623Q56.60359304931641,12.078734689636232,56.58474304931641,12.033234689636231Q56.56589304931641,11.98774468963623,56.538533049316406,11.946794689636231Q56.51118304931641,11.90584468963623,56.47635304931641,11.87102468963623Q56.441533049316405,11.83620468963623,56.40058304931641,11.808844689636231Q56.359643049316404,11.78148468963623,56.31414304931641,11.76264468963623Q56.26864304931641,11.74379468963623,56.220343049316405,11.73418468963623Q56.1720530493164,11.724584689636231,56.1228030493164,11.724584689636231L52.332803049316404,11.724584689636231L52.832803049316404,11.224584689636231L56.07433304931641,7.98305468963623L56.1228030493164,7.98305468963623Q56.1720530493164,7.98305468963623,56.22035304931641,7.9734446896362305Q56.26864304931641,7.96383468963623,56.31414304931641,7.94499468963623Q56.359643049316404,7.926144689636231,56.40058304931641,7.89878468963623Q56.441533049316405,7.87142468963623,56.47635304931641,7.83660468963623Q56.51118304931641,7.80178468963623,56.538533049316406,7.760834689636231Q56.56589304931641,7.719894689636231,56.58474304931641,7.67439468963623Q56.60359304931641,7.628894689636231,56.61319304931641,7.58059468963623Q56.6228030493164,7.53229468963623,56.6228030493164,7.48305468963623L56.6228030493164,7.42936468963623Q56.6744030493164,7.36339468963623,56.701693049316404,7.28421468963623Q56.72899304931641,7.20503468963623,56.728983049316405,7.12128468963623Q56.72899304931641,7.037534689636231,56.701693049316404,6.95835768963623Q56.6744030493164,6.87917868963623,56.6228030493164,6.81321368963623L56.6228030493164,6.61228768963623Q56.6228030493164,6.563041689636231,56.61319304931641,6.514742689636231Q56.60359304931641,6.466442689636231,56.58474304931641,6.4209456896362305Q56.56589304931641,6.37544868963623,56.538533049316406,6.33450268963623Q56.51118304931641,6.29355568963623,56.47635304931641,6.25873368963623Q56.441533049316405,6.22391168963623,56.40058304931641,6.19655268963623Q56.359643049316404,6.169193689636231,56.31414304931641,6.150347689636231Q56.26864304931641,6.13150268963623,56.220343049316405,6.12189468963623Q56.1720530493164,6.11228768963623,56.1228030493164,6.11228768963623L55.92202304931641,6.11228768963623Q55.855973049316404,6.06043108963623,55.77660304931641,6.032997689636231Q55.697243049316405,6.00556435183623,55.61326304931641,6.00556435183623Q55.52929304931641,6.00556435183623,55.4499230493164,6.032997689636231Q55.370553049316406,6.06043108963623,55.30450304931641,6.11228768963623L49.63974804931641,6.11228768963623Q49.590502049316406,6.11228768963623,49.54220204931641,6.12189468963623Q49.49390304931641,6.13150268963623,49.448406049316404,6.150347689636231Q49.402909049316406,6.169193689636231,49.3619620493164,6.19655268963623Q49.321016049316405,6.22391168963623,49.28619404931641,6.25873368963623Q49.25137204931641,6.29355568963623,49.224013049316405,6.33450268963623Q49.1966530493164,6.37544868963623,49.177808049316404,6.4209456896362305Q49.15896204931641,6.466442689636231,49.149355049316405,6.514742689636231Q49.13974804931641,6.563041689636231,49.13974804931641,6.61228768963623L49.13974804931641,7.48305468963623Q49.13974804931641,7.53229468963623,49.149355049316405,7.58059468963623Q49.15896204931641,7.628894689636231,49.177808049316404,7.67439468963623Q49.1966530493164,7.719894689636231,49.224013049316405,7.760834689636231Q49.25137204931641,7.80178468963623,49.28619404931641,7.83660468963623Q49.321016049316405,7.87142468963623,49.3619620493164,7.89878468963623Q49.402909049316406,7.926144689636231,49.448406049316404,7.94499468963623Q49.49390304931641,7.96383468963623,49.54220204931641,7.9734446896362305Q49.590502049316406,7.98305468963623,49.63974804931641,7.98305468963623L53.42867304931641,7.98305468963623L49.68714104931641,11.724584689636231L49.63974804931641,11.724584689636231Q49.590502049316406,11.724584689636231,49.54220204931641,11.73418468963623Q49.49390304931641,11.74379468963623,49.448406049316404,11.76264468963623Q49.402909049316406,11.78148468963623,49.3619620493164,11.808844689636231Q49.321016049316405,11.83620468963623,49.28619404931641,11.87102468963623Q49.25137204931641,11.90584468963623,49.224013049316405,11.946794689636231Q49.1966530493164,11.98774468963623,49.177808049316404,12.033234689636231Q49.15896204931641,12.078734689636232,49.149355049316405,12.12703468963623Q49.13974804931641,12.17533468963623,49.13974804931641,12.224584689636231L49.13974804931641,12.278534689636231Z" fill-rule="evenodd" fill="#000000" fill-opacity="1"/></g><g><path d="M37.91529083486328,7.3767487445831295L37.91529083486328,7.48305874458313Q37.91529083486328,7.53230874458313,37.92489823486328,7.58060874458313Q37.934505534863284,7.62889874458313,37.95335103486328,7.67439874458313Q37.97219653486328,7.71989874458313,37.99955573486328,7.76083874458313Q38.02691573486328,7.8017887445831295,38.06173773486328,7.83660874458313Q38.096559734863284,7.87142874458313,38.13750573486328,7.89878874458313Q38.17845173486328,7.92614874458313,38.22394873486328,7.94499874458313Q38.26944573486328,7.96383874458313,38.31774573486328,7.97344874458313Q38.36604473486328,7.98305874458313,38.415290734863284,7.98305874458313L38.52210973486328,7.98305874458313Q38.59705873486328,8.007278744583129,38.675821734863284,8.007278744583129Q38.75458473486328,8.007278744583129,38.82953373486328,7.98305874458313L43.02744573486328,7.98305874458313Q43.07668573486328,7.98305874458313,43.12498573486328,7.97344874458313Q43.173285734863285,7.96383874458313,43.21878573486328,7.94499874458313Q43.26428573486328,7.92614874458313,43.305225734863285,7.89878874458313Q43.34617573486328,7.87142874458313,43.38099573486328,7.83660874458313Q43.41581573486328,7.8017887445831295,43.44317573486328,7.76083874458313Q43.47053573486328,7.71989874458313,43.48938573486328,7.67439874458313Q43.50822573486328,7.62889874458313,43.51783573486328,7.58060874458313Q43.52744573486328,7.53230874458313,43.52744573486328,7.48305874458313L43.52744573486328,7.0799887445831295Q43.52744573486328,7.03073874458313,43.51783573486328,6.9824387445831295Q43.50822573486328,6.93413874458313,43.48938573486328,6.88863874458313Q43.47053573486328,6.84314874458313,43.44317573486328,6.80219874458313Q43.41581573486328,6.7612487445831295,43.38099573486328,6.72642874458313Q43.34617573486328,6.69160874458313,43.305225734863285,6.66424874458313Q43.26428573486328,6.63688874458313,43.21878573486328,6.61804874458313Q43.173285734863285,6.59919874458313,43.12498573486328,6.58958874458313Q43.07668573486328,6.5799887445831295,43.02744573486328,6.5799887445831295L40.31017573486328,6.5799887445831295L43.12608573486328,3.76400874458313Q43.20853573486328,3.74741874458313,43.28101573486328,3.70476874458313Q43.35350573486328,3.66210874458313,43.40804573486328,3.59808874458313Q43.46258573486328,3.53406874458313,43.49318573486328,3.45572874458313Q43.52378573486328,3.37738874458313,43.527065734863285,3.29335074458313Q43.58503573486328,3.1282727445831298,43.52744573486328,2.96306274458313L43.52744573486328,2.8707647445831297Q43.52744573486328,2.82151874458313,43.51783573486328,2.77321874458313Q43.50822573486328,2.72491974458313,43.48938573486328,2.67942274458313Q43.47053573486328,2.63392574458313,43.44317573486328,2.59297874458313Q43.41581573486328,2.55203274458313,43.38099573486328,2.5172107445831298Q43.34617573486328,2.48238874458313,43.305225734863285,2.45502974458313Q43.26428573486328,2.42767004458313,43.21878573486328,2.40882454458313Q43.173285734863285,2.38997904458313,43.12498573486328,2.3803716445831298Q43.07668573486328,2.37076434458313,43.02744573486328,2.37076434458313L42.93561573486328,2.37076434458313Q42.85535573486328,2.34264874458313,42.77031573486328,2.34264874458313Q42.68527573486328,2.34264874458313,42.60501573486328,2.37076434458313L38.415290734863284,2.37076434458313Q38.36604473486328,2.37076434458313,38.31774573486328,2.3803716445831298Q38.26944573486328,2.38997904458313,38.22394873486328,2.40882454458313Q38.17845173486328,2.42767004458313,38.13750573486328,2.45502974458313Q38.096559734863284,2.48238874458313,38.06173773486328,2.5172107445831298Q38.02691573486328,2.55203274458313,37.99955573486328,2.59297874458313Q37.97219653486328,2.63392574458313,37.95335103486328,2.67942274458313Q37.934505534863284,2.72491974458313,37.92489823486328,2.77321874458313Q37.91529083486328,2.82151874458313,37.91529083486328,2.8707647445831297L37.91529083486328,3.2738377445831297Q37.91529083486328,3.3230827445831297,37.92489823486328,3.37137874458313Q37.934505534863284,3.4196787445831296,37.95335103486328,3.46517874458313Q37.97219653486328,3.51067874458313,37.99955573486328,3.5516187445831298Q38.02691573486328,3.59256874458313,38.06173773486328,3.62738874458313Q38.096559734863284,3.66220874458313,38.13750573486328,3.6895687445831298Q38.17845173486328,3.7169287445831296,38.22394873486328,3.73577874458313Q38.26944573486328,3.75461874458313,38.31774573486328,3.76422874458313Q38.36604473486328,3.77383874458313,38.415290734863284,3.77383874458313L41.13206573486328,3.77383874458313L38.31603173486328,6.5899387445831294Q38.232822734863284,6.60678874458313,38.15984173486328,6.65016874458313Q38.08685973486328,6.69353874458313,38.03228473486328,6.75856874458313Q37.97771023486328,6.8236087445831295,37.94766003486328,6.90300874458313Q37.917609734863284,6.98240874458313,37.91545233486328,7.06727874458313Q37.865016934863284,7.22198874458313,37.91529083486328,7.3767487445831295Z" fill-rule="evenodd" fill="#A0B2FC" fill-opacity="1"/><path d="M37.415290734863284,7.44345874458313Q37.36164773486328,7.21283874458313,37.41984073486328,6.98226874458313Q37.44803273486328,6.67696874458313,37.64927873486328,6.4371587445831295Q37.81732703486328,6.23690874458313,38.05129073486328,6.14756874458313L39.92497573486328,4.27383874458313L38.415290734863284,4.27383874458313Q38.00107773486328,4.27383874458313,37.70818373486328,3.98094874458313Q37.415290734863284,3.6880487445831296,37.415290734863284,3.2738377445831297L37.415290734863284,2.8707647445831297Q37.415290734863284,2.45655074458313,37.70818373486328,2.16365774458313Q38.00107773486328,1.87076474458313,38.415290734863284,1.87076474458313L42.53456573486328,1.87076474458313Q42.65005573486328,1.8426487445831299,42.77031573486328,1.8426487445831299Q42.89058573486328,1.8426487445831299,43.00607573486328,1.87076474458313L43.02744573486328,1.87076474458313Q43.44165573486328,1.87076474458313,43.73455573486328,2.16365774458313Q44.02744573486328,2.45655174458313,44.02744573486328,2.8707647445831297L44.02744573486328,2.89156074458313Q44.089495734863284,3.13965174458313,44.021195734863284,3.38758874458313Q43.988605734863285,3.6876487445831296,43.78865573486328,3.9223487445831298Q43.62149573486328,4.11854874458313,43.39066573486328,4.2065387445831295L41.51726573486328,6.0799887445831295L43.02744573486328,6.0799887445831295Q43.44165573486328,6.0799887445831295,43.73455573486328,6.37287874458313Q44.02744573486328,6.66576874458313,44.02744573486328,7.0799887445831295L44.02744573486328,7.48305874458313Q44.02744573486328,7.89726874458313,43.73455573486328,8.19016874458313Q43.44165573486328,8.48305874458313,43.02744573486328,8.48305874458313L38.894785734863284,8.48305874458313Q38.787211734863284,8.507278744583129,38.675821734863284,8.507278744583129Q38.564431734863284,8.507278744583129,38.45685673486328,8.48305874458313L38.415290734863284,8.48305874458313Q38.00107673486328,8.48305874458313,37.70818373486328,8.19016874458313Q37.415290734863284,7.89726874458313,37.415290734863284,7.48305874458313L37.415290734863284,7.44345874458313ZM38.52210973486328,7.98305874458313Q38.59705873486328,8.007278744583129,38.675821734863284,8.007278744583129Q38.75458473486328,8.007278744583129,38.82953373486328,7.98305874458313L43.02744573486328,7.98305874458313Q43.07668573486328,7.98305874458313,43.12498573486328,7.97344874458313Q43.173285734863285,7.96383874458313,43.21878573486328,7.94499874458313Q43.26428573486328,7.92614874458313,43.305225734863285,7.89878874458313Q43.34617573486328,7.87142874458313,43.38099573486328,7.83660874458313Q43.41581573486328,7.8017887445831295,43.44317573486328,7.76083874458313Q43.47053573486328,7.71989874458313,43.48938573486328,7.67439874458313Q43.50822573486328,7.62889874458313,43.51783573486328,7.58060874458313Q43.52744573486328,7.53230874458313,43.52744573486328,7.48305874458313L43.52744573486328,7.0799887445831295Q43.52744573486328,7.03073874458313,43.51783573486328,6.9824387445831295Q43.50822573486328,6.93413874458313,43.48938573486328,6.88863874458313Q43.47053573486328,6.84314874458313,43.44317573486328,6.80219874458313Q43.41581573486328,6.7612487445831295,43.38099573486328,6.72642874458313Q43.34617573486328,6.69160874458313,43.305225734863285,6.66424874458313Q43.26428573486328,6.63688874458313,43.21878573486328,6.61804874458313Q43.173285734863285,6.59919874458313,43.12498573486328,6.58958874458313Q43.07668573486328,6.5799887445831295,43.02744573486328,6.5799887445831295L40.31017573486328,6.5799887445831295L40.81016573486328,6.0799887445831295L43.12608573486328,3.76400874458313Q43.20853573486328,3.74741874458313,43.28101573486328,3.70476874458313Q43.35350573486328,3.66210874458313,43.40804573486328,3.59808874458313Q43.46258573486328,3.53406874458313,43.49318573486328,3.45572874458313Q43.52378573486328,3.37738874458313,43.527065734863285,3.29335074458313Q43.58504573486328,3.1282727445831298,43.52744573486328,2.96306274458313L43.52744573486328,2.8707647445831297Q43.52744573486328,2.82151874458313,43.51783573486328,2.77321874458313Q43.50822573486328,2.72491974458313,43.48938573486328,2.67942274458313Q43.47053573486328,2.63392574458313,43.44317573486328,2.59297874458313Q43.41581573486328,2.55203274458313,43.38099573486328,2.5172107445831298Q43.34617573486328,2.48238874458313,43.305225734863285,2.45502974458313Q43.26428573486328,2.42767004458313,43.21878573486328,2.40882454458313Q43.173285734863285,2.38997904458313,43.12498573486328,2.3803716445831298Q43.07668573486328,2.37076434458313,43.02744573486328,2.37076434458313L42.93561573486328,2.37076434458313Q42.85535573486328,2.34264874458313,42.77031573486328,2.34264874458313Q42.68527573486328,2.34264874458313,42.60501573486328,2.37076434458313L38.415290734863284,2.37076434458313Q38.36604473486328,2.37076434458313,38.31774573486328,2.3803716445831298Q38.26944573486328,2.38997904458313,38.22394873486328,2.40882454458313Q38.17845173486328,2.42767004458313,38.13750573486328,2.45502974458313Q38.096559734863284,2.48238874458313,38.06173773486328,2.5172107445831298Q38.02691573486328,2.55203274458313,37.99955573486328,2.59297874458313Q37.97219653486328,2.63392574458313,37.95335103486328,2.67942274458313Q37.934505534863284,2.72491974458313,37.92489823486328,2.77321874458313Q37.91529083486328,2.82151874458313,37.91529083486328,2.8707647445831297L37.91529083486328,3.2738377445831297Q37.91529083486328,3.3230827445831297,37.92489823486328,3.37137874458313Q37.934505534863284,3.4196787445831296,37.95335103486328,3.46517874458313Q37.97219653486328,3.51067874458313,37.99955573486328,3.5516187445831298Q38.02691573486328,3.59256874458313,38.06173773486328,3.62738874458313Q38.096559734863284,3.66220874458313,38.13750573486328,3.6895687445831298Q38.17845173486328,3.7169287445831296,38.22394873486328,3.73577874458313Q38.26944573486328,3.75461874458313,38.31774573486328,3.76422874458313Q38.36604473486328,3.77383874458313,38.415290734863284,3.77383874458313L41.13206573486328,3.77383874458313L40.63207573486328,4.27383874458313L38.31603173486328,6.5899387445831294Q38.232822734863284,6.60678874458313,38.15984173486328,6.65016874458313Q38.08685973486328,6.69353874458313,38.03228473486328,6.75856874458313Q37.97771023486328,6.8236087445831295,37.94766003486328,6.90300874458313Q37.917609734863284,6.98240874458313,37.91545233486328,7.06727874458313Q37.865016934863284,7.22198874458313,37.91529083486328,7.3767487445831295L37.91529083486328,7.48305874458313Q37.91529083486328,7.53230874458313,37.92489823486328,7.58060874458313Q37.934505534863284,7.62889874458313,37.95335103486328,7.67439874458313Q37.97219653486328,7.71989874458313,37.99955573486328,7.76083874458313Q38.02691573486328,7.8017887445831295,38.06173773486328,7.83660874458313Q38.096559734863284,7.87142874458313,38.13750573486328,7.89878874458313Q38.17845173486328,7.92614874458313,38.22394873486328,7.94499874458313Q38.26944573486328,7.96383874458313,38.31774573486328,7.97344874458313Q38.36604473486328,7.98305874458313,38.415290734863284,7.98305874458313L38.52210973486328,7.98305874458313Z" fill-rule="evenodd" fill="#000000" fill-opacity="1"/></g><g><path d="M32.302978515625,14.06304126550293Q32.302978515625,14.01697826550293,32.311965065625,13.971799265502929Q32.320951615625,13.926621265502929,32.338579415625,13.88406326550293Q32.356207115625,13.841506265502929,32.381798615625,13.80320626550293Q32.407390515625,13.76490526550293,32.439962515625,13.73233426550293Q32.472533515625,13.69976226550293,32.510834515625,13.67417036550293Q32.549134515625,13.64857886550293,32.591691515625,13.63095116550293Q32.634249515625,13.61332336550293,32.679427515625,13.60433681550293Q32.724606515625,13.59535026550293,32.770669515625,13.59535026550293L35.576728515625,13.59535026550293Q35.622788515625,13.59535026550293,35.667968515625,13.60433681550293Q35.713138515625,13.61332336550293,35.755698515625,13.63095116550293Q35.798258515625,13.64857886550293,35.836558515625,13.67417036550293Q35.874858515625,13.69976226550293,35.907428515625,13.73233426550293Q35.939998515625,13.76490526550293,35.965598515625,13.80320626550293Q35.991188515625,13.841506265502929,36.008808515625,13.88406326550293Q36.026438515625,13.926621265502929,36.035428515625,13.971799265502929Q36.044418515625,14.01697826550293,36.044418515625,14.06304126550293Q36.044418515625,14.16312726550293,36.003458515625,14.254447265502929Q35.962488515625,14.34576826550293,35.887748515625,14.41232726550293Q35.879338515625,14.42168826550293,35.870448515625,14.43058426550293L33.899578515625,16.40150026550293L35.576728515625,16.40150026550293Q35.622788515625,16.40150026550293,35.667968515625,16.41049026550293Q35.713138515625,16.41947026550293,35.755698515625,16.43710026550293Q35.798258515625,16.45473026550293,35.836558515625,16.48032026550293Q35.874858515625,16.50591026550293,35.907428515625,16.53848026550293Q35.939998515625,16.57105026550293,35.965598515625,16.60935026550293Q35.991188515625,16.64765026550293,36.008808515625,16.69021026550293Q36.026438515625,16.73277026550293,36.035428515625,16.77795026550293Q36.044418515625,16.82313026550293,36.044418515625,16.86919026550293Q36.044418515625,16.91525026550293,36.035428515625,16.96043026550293Q36.026438515625,17.00561026550293,36.008808515625,17.04817026550293Q35.991188515625,17.09072026550293,35.965598515625,17.12902026550293Q35.939998515625,17.16732026550293,35.907428515625,17.19990026550293Q35.874858515625,17.23247026550293,35.836558515625,17.25806026550293Q35.798258515625,17.283650265502928,35.755698515625,17.30128026550293Q35.713138515625,17.31891026550293,35.667968515625,17.32789026550293Q35.622788515625,17.33688026550293,35.576728515625,17.33688026550293L32.770669515625,17.33688026550293Q32.724606515625,17.33688026550293,32.679427515625,17.32789026550293Q32.634249515625,17.31891026550293,32.591691515625,17.30128026550293Q32.549134515625,17.283650265502928,32.510834515625,17.25806026550293Q32.472533515625,17.23247026550293,32.439962515625,17.19990026550293Q32.407390515625,17.16732026550293,32.381798615625,17.12902026550293Q32.356207115625,17.09072026550293,32.338579415625,17.04817026550293Q32.320951615625,17.00561026550293,32.311965065625,16.96043026550293Q32.302978515625,16.91525026550293,32.302978515625,16.86919026550293Q32.302978515625,16.76912026550293,32.343923115625,16.67782026550293Q32.384867715625,16.58652026550293,32.459587515625,16.51996026550293Q32.469159515625,16.50912026550293,32.479381515625,16.49890026550293L34.447498515625,14.53073226550293L32.770669515625,14.53073226550293Q32.724606515625,14.53073226550293,32.679427515625,14.52174626550293Q32.634249515625,14.512759265502929,32.591691515625,14.49513126550293Q32.549134515625,14.47750326550293,32.510834515625,14.45191226550293Q32.472533515625,14.42632026550293,32.439962515625,14.39374826550293Q32.407390515625,14.36117726550293,32.381798615625,14.322876265502929Q32.356207115625,14.28457626550293,32.338579415625,14.242019265502929Q32.320951615625,14.19946126550293,32.311965065625,14.15428326550293Q32.302978515625,14.10910526550293,32.302978515625,14.06304126550293Z" fill-rule="evenodd" fill="#A0B2FC" fill-opacity="1"/><path d="M32.086408515625,13.378780265502929Q31.802978515625,13.66221066550293,31.802978515625,14.06304126550293Q31.802978515625,14.46387226550293,32.086408515625,14.747300265502929Q32.369838915625,15.03073026550293,32.770669515625,15.03073026550293L33.240415515625,15.03073026550293L32.125822515625,16.14535026550293Q32.115660515625,16.15552026550293,32.105805515625,16.165970265502928Q31.802978515625,16.44968026550293,31.802978515625,16.86919026550293Q31.802978515625,17.27002026550293,32.086408515625,17.55345026550293Q32.369838815625,17.83688026550293,32.770669515625,17.83688026550293L35.576728515625,17.83688026550293Q35.977558515625,17.83688026550293,36.260988515625,17.55345026550293Q36.544418515625,17.27002026550293,36.544418515625,16.86919026550293Q36.544418515625,16.46836026550293,36.260988515625,16.18493026550293Q35.977558515625,15.90150026550293,35.576728515625,15.90150026550293L35.106668515625,15.90150026550293L36.224008515625,14.78413026550293Q36.232148515625,14.77599026550293,36.240088515625,14.76766026550293Q36.544418515625,14.48360426550293,36.544418515625,14.06304126550293Q36.544418515625,13.66221046550293,36.260988515625,13.378780265502929Q35.977558515625,13.09535026550293,35.576728515625,13.09535026550293L32.770669515625,13.09535026550293Q32.369838815625,13.09535026550293,32.086408515625,13.378780265502929ZM35.887748515625,14.41232726550293Q35.962488515625,14.34576826550293,36.003458515625,14.254447265502929Q36.044418515625,14.16312726550293,36.044418515625,14.06304126550293Q36.044418515625,14.01697826550293,36.035428515625,13.971799265502929Q36.026438515625,13.926621265502929,36.008808515625,13.88406326550293Q35.991188515625,13.841506265502929,35.965598515625,13.80320626550293Q35.939998515625,13.76490526550293,35.907428515625,13.73233426550293Q35.874858515625,13.69976226550293,35.836558515625,13.674170465502929Q35.798258515625,13.64857886550293,35.755698515625,13.63095116550293Q35.713138515625,13.61332336550293,35.667968515625,13.60433681550293Q35.622788515625,13.59535026550293,35.576728515625,13.59535026550293L32.770669515625,13.59535026550293Q32.724606515625,13.59535026550293,32.679427515625,13.60433681550293Q32.634249515625,13.61332336550293,32.591691515625,13.63095116550293Q32.549134515625,13.64857886550293,32.510834515625,13.674170465502929Q32.472533515625,13.69976226550293,32.439962515625,13.73233426550293Q32.407390515625,13.76490526550293,32.381798715625,13.80320626550293Q32.356207115625,13.841506265502929,32.338579415625,13.88406326550293Q32.320951615625,13.926621265502929,32.311965065625,13.971799265502929Q32.302978515625,14.01697826550293,32.302978515625,14.06304126550293Q32.302978515625,14.10910526550293,32.311965065625,14.15428326550293Q32.320951615625,14.19946126550293,32.338579415625,14.242019265502929Q32.356207115625,14.28457626550293,32.381798715625,14.322876265502929Q32.407390515625,14.36117726550293,32.439962515625,14.39374926550293Q32.472533515625,14.42632026550293,32.510834515625,14.45191226550293Q32.549134515625,14.47750326550293,32.591691515625,14.49513126550293Q32.634249515625,14.512759265502929,32.679427515625,14.52174626550293Q32.724606515625,14.53073226550293,32.770669515625,14.53073226550293L34.447498515625,14.53073226550293L32.479381515625,16.49890026550293Q32.469159515625,16.50912026550293,32.459587515625,16.51996026550293Q32.384867715625,16.58652026550293,32.343923115625,16.67782026550293Q32.302978515625,16.76912026550293,32.302978515625,16.86919026550293Q32.302978515625,16.91525026550293,32.311965065625,16.96043026550293Q32.320951615625,17.00561026550293,32.338579415625,17.04817026550293Q32.356207115625,17.09072026550293,32.381798715625,17.12902026550293Q32.407390515625,17.16732026550293,32.439962515625,17.19990026550293Q32.472533515625,17.23247026550293,32.510834515625,17.25806026550293Q32.549134515625,17.283650265502928,32.591691515625,17.30128026550293Q32.634249515625,17.31891026550293,32.679427515625,17.32789026550293Q32.724606515625,17.33688026550293,32.770669515625,17.33688026550293L35.576728515625,17.33688026550293Q35.622788515625,17.33688026550293,35.667968515625,17.32789026550293Q35.713138515625,17.31891026550293,35.755698515625,17.30128026550293Q35.798258515625,17.283650265502928,35.836558515625,17.25806026550293Q35.874858515625,17.23247026550293,35.907428515625,17.19990026550293Q35.939998515625,17.16732026550293,35.965598515625,17.12902026550293Q35.991188515625,17.09072026550293,36.008808515625,17.04817026550293Q36.026438515625,17.00561026550293,36.035428515625,16.96043026550293Q36.044418515625,16.91525026550293,36.044418515625,16.86919026550293Q36.044418515625,16.82313026550293,36.035428515625,16.77795026550293Q36.026438515625,16.73277026550293,36.008808515625,16.69021026550293Q35.991188515625,16.64765026550293,35.965598515625,16.60935026550293Q35.939998515625,16.57105026550293,35.907428515625,16.53848026550293Q35.874858515625,16.50591026550293,35.836558515625,16.48032026550293Q35.798258515625,16.45473026550293,35.755698515625,16.43710026550293Q35.713138515625,16.41947026550293,35.667968515625,16.41049026550293Q35.622788515625,16.40150026550293,35.576728515625,16.40150026550293L33.899578515625,16.40150026550293L34.399568515625,15.90150026550293L35.870448515625,14.43058426550293Q35.879338515625,14.42168826550293,35.887748515625,14.41232726550293Z" fill-rule="evenodd" fill="#000000" fill-opacity="1"/></g></g></svg>