<svg xmlns="http://www.w3.org/2000/svg" xmlns:xlink="http://www.w3.org/1999/xlink" fill="none" version="1.1" width="58.996826171875" height="57.1229248046875" viewBox="0 0 58.996826171875 57.1229248046875"><defs><filter id="master_svg0_0_437" filterUnits="objectBoundingBox" color-interpolation-filters="sRGB" x="-1" y="-1" width="7.612292289733887" height="4.806146144866943"><feFlood flood-opacity="0" result="BackgroundImageFix"/><feBlend mode="normal" in="SourceGraphic" in2="BackgroundImageFix" result="shape"/><feGaussianBlur stdDeviation="0.25" result="effect1_foregroundBlur"/></filter><filter id="master_svg1_0_438" filterUnits="objectBoundingBox" color-interpolation-filters="sRGB" x="-1" y="-1" width="7.612292289733887" height="4.806146144866943"><feFlood flood-opacity="0" result="BackgroundImageFix"/><feBlend mode="normal" in="SourceGraphic" in2="BackgroundImageFix" result="shape"/><feGaussianBlur stdDeviation="0.25" result="effect1_foregroundBlur"/></filter></defs><g><g><path d="M28.5615,56.6229Q29.2503,56.6229,29.9384,56.5891Q30.6264,56.5553,31.312,56.4878Q31.9975,56.4203,32.6789,56.3192Q33.3603,56.2181,34.036,56.0837Q34.7116,55.9493,35.3798,55.7819Q36.0481,55.6146,36.7073,55.4146Q37.3665,55.2146,38.0151,54.9826Q38.6637,54.7505,39.3001,54.4869Q39.9365,54.2232,40.5593,53.9287Q41.182,53.6342,41.7895,53.3095Q42.3971,52.9847,42.9879,52.6306Q43.5788,52.2764,44.1516,51.8937Q44.7243,51.511,45.2776,51.1006Q45.831,50.6903,46.3635,50.2533Q46.896,49.8162,47.4064,49.3536Q47.9168,48.891,48.4039,48.4039Q48.891,47.9168,49.3536,47.4064Q49.8162,46.896,50.2533,46.3635Q50.6903,45.831,51.1006,45.2776Q51.511,44.7243,51.8937,44.1516Q52.2764,43.5788,52.6306,42.9879Q52.9847,42.3971,53.3095,41.7895Q53.6342,41.182,53.9287,40.5593Q54.2232,39.9365,54.4869,39.3001Q54.7505,38.6637,54.9826,38.0151Q55.2146,37.3665,55.4146,36.7073Q55.6146,36.0481,55.782,35.3798Q55.9493,34.7116,56.0837,34.036Q56.2181,33.3603,56.3192,32.6789Q56.4203,31.9975,56.4878,31.312Q56.5553,30.6264,56.5891,29.9384Q56.6229,29.2503,56.6229,28.5615Q56.6229,27.8726,56.5891,27.1846Q56.5553,26.4965,56.4878,25.811Q56.4203,25.1254,56.3192,24.444Q56.2181,23.7626,56.0837,23.0869Q55.9493,22.4113,55.7819,21.7431Q55.6146,21.0749,55.4146,20.4156Q55.2146,19.7564,54.9826,19.1078Q54.7505,18.4592,54.4869,17.8228Q54.2232,17.1864,53.9287,16.5636Q53.6342,15.9409,53.3095,15.3334Q52.9847,14.7259,52.6306,14.135Q52.2764,13.5441,51.8937,12.9713Q51.511,12.3986,51.1006,11.8453Q50.6903,11.292,50.2533,10.7595Q49.8162,10.22695,49.3536,9.71654Q48.891,9.20612,48.4039,8.71901Q47.9168,8.23191,47.4064,7.76929Q46.896,7.30667,46.3635,6.86966Q45.831,6.43264,45.2776,6.02228Q44.7243,5.61192,44.1516,5.22921Q43.5788,4.84649,42.9879,4.49234Q42.3971,4.13819,41.7895,3.81346Q41.182,3.48873,40.5593,3.1942Q39.9365,2.89967,39.3001,2.63605Q38.6637,2.37243,38.0151,2.1403600000000003Q37.3665,1.90829,36.7073,1.70832Q36.0481,1.50835,35.3798,1.340967Q34.7116,1.173585,34.036,1.039193Q33.3603,0.904801,32.6789,0.803723Q31.9975,0.702645,31.312,0.635124Q30.6264,0.5676025,29.9384,0.5338013Q29.2503,0.5,28.5615,0.5Q27.8726,0.5,27.1846,0.5338013Q26.4965,0.5676025,25.811,0.635124Q25.1254,0.702645,24.444,0.803723Q23.7626,0.904801,23.0869,1.039193Q22.4113,1.173585,21.7431,1.340967Q21.0749,1.50835,20.4156,1.70832Q19.7564,1.90829,19.1078,2.1403600000000003Q18.4592,2.37243,17.8228,2.63605Q17.1864,2.89967,16.5636,3.1942Q15.9409,3.48873,15.3334,3.81346Q14.7259,4.13819,14.135,4.49234Q13.5441,4.84649,12.9713,5.22921Q12.3986,5.61192,11.8453,6.02228Q11.292,6.43264,10.7595,6.86966Q10.22695,7.30667,9.71654,7.76929Q9.20612,8.23191,8.71901,8.71901Q8.23191,9.20612,7.76929,9.71654Q7.30667,10.22695,6.86966,10.7595Q6.43264,11.292,6.02228,11.8453Q5.61192,12.3986,5.22921,12.9713Q4.84649,13.5441,4.49234,14.135Q4.13819,14.7259,3.81346,15.3334Q3.48873,15.9409,3.1942,16.5636Q2.89967,17.1864,2.63605,17.8228Q2.37243,18.4592,2.1403600000000003,19.1078Q1.90829,19.7564,1.70832,20.4156Q1.50835,21.0749,1.340967,21.7431Q1.173585,22.4113,1.039193,23.0869Q0.904801,23.7626,0.803723,24.444Q0.702645,25.1254,0.635124,25.811Q0.5676025,26.4965,0.5338013,27.1846Q0.5,27.8726,0.5,28.5615Q0.4999999999999988,29.6907,0.5907328000000001,30.8162Q0.681466,31.9418,0.8623449999999999,33.0564Q1.043224,34.171,1.313079,35.2675Q1.58293,36.364,1.94002,37.4353Q2.29711,38.5065,2.73912,39.5456Q3.18112,40.5847,3.7052,41.585Q4.22927,42.5852,4.83202,43.5401Q5.43476,44.495,6.11229,45.3983L4.24155,53.8168L12.0151,51.2256Q12.9088,51.8781,13.8512,52.4582Q14.7935,53.0383,15.7786,53.5424Q16.7637,54.0464,17.7855,54.4714Q18.8072,54.8963,19.8593,55.2395Q20.9113,55.5827,21.9871,55.8419Q23.0629,56.1012,24.1557,56.2749Q25.2486,56.4486,26.3517,56.5358Q27.4549,56.6229,28.5615,56.6229Z" fill-rule="evenodd" fill="#FFCF00" fill-opacity="1"/><path d="M28.5615,56.1229Q33.8186,56.1229,38.7067,54.1878Q44.014,52.0867,48.0504,48.0504Q52.0867,44.0141,54.1878,38.7067Q56.1229,33.8186,56.1229,28.5615Q56.1229,23.3043,54.1878,18.4162Q52.0867,13.1089,48.0504,9.07257Q44.0141,5.03629,38.7067,2.93514Q33.8186,1,28.5615,1Q23.3043,1,18.4162,2.93514Q13.1088,5.03628,9.07257,9.07257Q5.03629,13.1089,2.93514,18.4162Q1,23.3043,1,28.5615Q1,37.7486,6.51229,45.0983L6.65027,45.2823L4.72964,53.9252L4.24155,53.8168L4.08343,53.3424L12.1016,50.6697L12.3099,50.8218Q19.571,56.123,28.5615,56.1229ZM28.5615,57.1229Q19.2449,57.1229,11.7203,51.6294L12.0151,51.2256L12.1732,51.6999L3.56189,54.5704L5.62419,45.2899L6.11229,45.3983L5.71229,45.6983Q0,38.082,0,28.5615Q0,23.1135,2.00535,18.0481Q4.18272,12.5482,8.365459999999999,8.365459999999999Q12.5482,4.182729999999999,18.0481,2.00535Q23.1136,0,28.5615,0Q34.0094,0,39.0748,2.00535Q44.5747,4.182729999999999,48.7575,8.365459999999999Q52.9402,12.5483,55.1176,18.0481Q57.1229,23.1136,57.1229,28.5615Q57.1229,34.0093,55.1176,39.0748Q52.9402,44.5747,48.7575,48.7575Q44.5747,52.9402,39.0748,55.1176Q34.0093,57.1229,28.5615,57.1229Z" fill="#000000" fill-opacity="1"/></g><g filter="url(#master_svg0_0_437)"><ellipse cx="46.33369970321655" cy="29.964531660079956" rx="2.8061461448669434" ry="1.4030730724334717" fill="#FF8C71" fill-opacity="1"/></g><g filter="url(#master_svg1_0_438)"><ellipse cx="10.789224624633789" cy="29.964531660079956" rx="2.8061461448669434" ry="1.4030730724334717" fill="#FF8D6E" fill-opacity="1"/></g><g><ellipse cx="41.189146995544434" cy="23.884541988372803" rx="3.273837089538574" ry="4.676909923553467" fill="#000000" fill-opacity="1"/></g><g><ellipse cx="16.869159698486328" cy="23.884541988372803" rx="3.273837089538574" ry="4.676909923553467" fill="#000000" fill-opacity="1"/></g><g transform="matrix(-0.957321286201477,-0.2890259623527527,-0.28902584314346313,0.957321286201477,98.17858115658157,14.49744548866397)"><path d="M48.125119718945314,18.32085142883301C47.97194371894531,18.550611428833008,48.03403072894531,18.861051428833008,48.263794918945315,19.014231428833007C48.49355891894531,19.16740142883301,48.80399391894531,19.10531142883301,48.95716991894531,18.875551428833006C48.95716991894531,18.875551428833006,48.125119718945314,18.32085142883301,48.125119718945314,18.32085142883301C48.125119718945314,18.32085142883301,48.125119718945314,18.32085142883301,48.125119718945314,18.32085142883301ZM55.537741918945315,15.347261428833008C55.813891918945316,15.347261428833008,56.037741918945315,15.123403428833008,56.037741918945315,14.847261428833008C56.037741918945315,14.571119428833008,55.813891918945316,14.347261428833008,55.537741918945315,14.347261428833008C55.537741918945315,14.347261428833008,55.537741918945315,15.347261428833008,55.537741918945315,15.347261428833008C55.537741918945315,15.347261428833008,55.537741918945315,15.347261428833008,55.537741918945315,15.347261428833008ZM48.95716991894531,18.875551428833006C49.23261191894531,18.46239142883301,50.000421918945314,17.57040142883301,51.15194191894531,16.785041428833008C52.29872191894531,16.00292142883301,53.79521191894531,15.347261428833008,55.537741918945315,15.347261428833008C55.537741918945315,15.347261428833008,55.537741918945315,14.347261428833008,55.537741918945315,14.347261428833008C53.53875191894531,14.347261428833008,51.84873191894531,15.099384428833007,50.588491918945316,15.958891428833008C49.333001918945314,16.81515142883301,48.47326791894531,17.79863142883301,48.125119718945314,18.32085142883301C48.125119718945314,18.32085142883301,48.95716991894531,18.875551428833006,48.95716991894531,18.875551428833006C48.95716991894531,18.875551428833006,48.95716991894531,18.875551428833006,48.95716991894531,18.875551428833006Z" fill="#000000" fill-opacity="1"/></g><g transform="matrix(0.957321286201477,-0.28902584314346313,0.28902584314346313,0.957321286201477,-3.4826869038355994,3.240368842710211)"><path d="M9.314787420666503,17.386383159484865C9.161611420666503,17.616143159484864,9.223698430666504,17.926583159484863,9.453462620666503,18.079763159484862C9.683226620666504,18.232933159484865,9.993661620666504,18.170843159484864,10.146837620666505,17.94108315948486C10.146837620666505,17.94108315948486,9.314787420666503,17.386383159484865,9.314787420666503,17.386383159484865C9.314787420666503,17.386383159484865,9.314787420666503,17.386383159484865,9.314787420666503,17.386383159484865ZM16.727409620666503,14.412793159484863C17.003559620666504,14.412793159484863,17.227409620666503,14.188935159484863,17.227409620666503,13.912793159484863C17.227409620666503,13.636651159484863,17.003559620666504,13.412793159484863,16.727409620666503,13.412793159484863C16.727409620666503,13.412793159484863,16.727409620666503,14.412793159484863,16.727409620666503,14.412793159484863C16.727409620666503,14.412793159484863,16.727409620666503,14.412793159484863,16.727409620666503,14.412793159484863ZM10.146837620666505,17.94108315948486C10.422279620666504,17.527923159484864,11.190089620666503,16.635933159484864,12.341609620666503,15.850573159484863C13.488389620666503,15.068453159484863,14.984879620666504,14.412793159484863,16.727409620666503,14.412793159484863C16.727409620666503,14.412793159484863,16.727409620666503,13.412793159484863,16.727409620666503,13.412793159484863C14.728419620666504,13.412793159484863,13.038399620666503,14.164916159484862,11.778159620666504,15.024423159484863C10.522669620666504,15.880683159484864,9.662935620666504,16.864163159484864,9.314787420666503,17.386383159484865C9.314787420666503,17.386383159484865,10.146837620666505,17.94108315948486,10.146837620666505,17.94108315948486C10.146837620666505,17.94108315948486,10.146837620666505,17.94108315948486,10.146837620666505,17.94108315948486Z" fill="#000000" fill-opacity="1"/></g><g><path d="M22.054722833007812,43.08036651855469C21.807729833007812,43.57434651855469,22.007957333007813,44.17502651855469,22.501935833007813,44.422016518554685C22.995918833007813,44.668996518554685,23.59658883300781,44.46877651855469,23.84357883300781,43.97479651855469C23.84357883300781,43.97479651855469,22.054722833007812,43.08036651855469,22.054722833007812,43.08036651855469C22.054722833007812,43.08036651855469,22.054722833007812,43.08036651855469,22.054722833007812,43.08036651855469ZM33.27932883300781,43.97479651855469C33.52622883300781,44.46877651855469,34.12692883300781,44.668996518554685,34.62092883300781,44.422016518554685C35.11492883300781,44.17502651855469,35.31512883300781,43.57434651855469,35.06812883300781,43.08036651855469C35.06812883300781,43.08036651855469,33.27932883300781,43.97479651855469,33.27932883300781,43.97479651855469C33.27932883300781,43.97479651855469,33.27932883300781,43.97479651855469,33.27932883300781,43.97479651855469ZM22.94914883300781,43.527586518554685C23.84357883300781,43.97479651855469,23.843408833007814,43.975136518554685,23.843248833007813,43.97545651855469C23.84319883300781,43.97554651855469,23.843048833007813,43.975856518554686,23.842958833007813,43.97602651855469C23.842778833007813,43.97638651855469,23.84262883300781,43.976686518554686,23.842508833007813,43.97692651855469C23.84225883300781,43.97741651855469,23.842128833007813,43.97768651855469,23.842098833007814,43.977736518554686C23.842048833007812,43.977846518554685,23.842428833007812,43.977086518554685,23.843248833007813,43.975496518554685C23.84489883300781,43.97230651855469,23.848288833007814,43.96578651855469,23.85342883300781,43.956156518554685C23.863708833007813,43.93687651855469,23.88092883300781,43.90521651855469,23.905088833007813,43.86295651855469C23.95345883300781,43.77829651855469,24.029158833007813,43.65188651855469,24.13196883300781,43.49766651855469C24.338708833007814,43.187556518554686,24.64884883300781,42.774406518554684,25.05932883300781,42.363926518554685C25.88571883300781,41.537546518554684,27.049438833007812,40.78605651855469,28.561438833007813,40.78605651855469C28.561438833007813,40.78605651855469,28.561438833007813,38.78605651855469,28.561438833007813,38.78605651855469C26.331918833007812,38.78605651855469,24.68949883300781,39.90533651855469,23.645118833007814,40.94971651855469C23.12021883300781,41.47461651855469,22.728816833007812,41.99684651855469,22.467867833007812,42.38826651855469C22.336831833007814,42.584826518554685,22.237142833007812,42.750726518554686,22.168598833007813,42.87067651855469C22.134288833007812,42.93071651855469,22.107668833007814,42.97944651855469,22.08871983300781,43.01497651855469C22.079241833007814,43.03274651855469,22.071672833007813,43.04723651855469,22.06600983300781,43.058206518554684C22.063177833007813,43.063696518554686,22.06082183300781,43.068306518554685,22.058940833007814,43.07200651855469C22.058000833007814,43.073856518554685,22.057178833007814,43.07548651855469,22.056475833007813,43.076876518554684C22.05612483300781,43.077576518554686,22.055802833007814,43.07821651855469,22.05550983300781,43.07879651855469C22.05536483300781,43.07908651855469,22.055166833007814,43.07948651855469,22.055093833007813,43.07962651855469C22.05490483300781,43.08000651855469,22.054722833007812,43.08036651855469,22.94914883300781,43.527586518554685C22.94914883300781,43.527586518554685,22.94914883300781,43.527586518554685,22.94914883300781,43.527586518554685ZM28.561438833007813,40.78605651855469C30.073448833007813,40.78605651855469,31.237168833007814,41.537546518554684,32.06352883300781,42.363926518554685C32.474028833007814,42.774406518554684,32.78412883300781,43.187556518554686,32.990928833007814,43.49766651855469C33.093728833007816,43.65188651855469,33.169428833007814,43.77829651855469,33.217828833007815,43.86295651855469C33.24192883300781,43.90521651855469,33.259128833007814,43.93687651855469,33.26942883300781,43.956156518554685C33.274528833007814,43.96578651855469,33.27792883300781,43.97230651855469,33.27962883300781,43.975496518554685C33.28042883300781,43.977086518554685,33.28082883300781,43.977846518554685,33.280728833007814,43.977736518554686C33.280728833007814,43.97768651855469,33.28062883300781,43.97741651855469,33.280328833007815,43.97692651855469C33.28022883300781,43.976686518554686,33.280128833007815,43.97638651855469,33.279928833007816,43.97602651855469C33.27982883300781,43.975856518554686,33.27962883300781,43.97554651855469,33.27962883300781,43.97545651855469C33.27942883300781,43.975136518554685,33.27932883300781,43.97479651855469,34.173728833007814,43.527586518554685C35.06812883300781,43.08036651855469,35.06792883300781,43.08000651855469,35.06772883300781,43.07962651855469C35.06772883300781,43.07948651855469,35.06752883300781,43.07908651855469,35.067328833007814,43.07879651855469C35.06702883300781,43.07821651855469,35.066728833007815,43.077576518554686,35.06642883300781,43.076876518554684C35.06572883300781,43.07548651855469,35.06482883300781,43.073856518554685,35.063928833007814,43.07200651855469C35.062028833007815,43.068306518554685,35.05972883300781,43.063696518554686,35.05682883300781,43.058206518554684C35.05122883300781,43.04723651855469,35.043628833007816,43.03274651855469,35.03412883300781,43.01497651855469C35.01522883300781,42.97944651855469,34.98852883300781,42.93071651855469,34.95422883300781,42.87067651855469C34.88572883300781,42.750726518554686,34.78602883300781,42.584826518554685,34.65502883300781,42.38826651855469C34.39402883300781,41.99684651855469,34.00262883300781,41.47461651855469,33.477728833007816,40.94971651855469C32.43342883300781,39.90533651855469,30.790958833007814,38.78605651855469,28.561438833007813,38.78605651855469C28.561438833007813,38.78605651855469,28.561438833007813,40.78605651855469,28.561438833007813,40.78605651855469C28.561438833007813,40.78605651855469,28.561438833007813,40.78605651855469,28.561438833007813,40.78605651855469Z" fill="#000000" fill-opacity="1"/></g><g><path d="M58.47433452148437,35.420965133666996C58.72063452148437,38.53886513366699,56.603434521484374,41.656765133666994,52.86947452148438,41.656765133666994C49.19301452148437,41.656765133666994,47.07624352148437,38.53886513366699,47.283001121484375,35.420965133666996C47.487386521484375,32.33875513366699,50.721404521484374,25.453225133666994,52.79753452148437,23.03164323366699C52.836444521484374,22.98626583366699,52.90253452148438,22.986048033666993,52.941774521484376,23.031140333666993C55.04835452148438,25.45226513366699,58.23093452148437,32.33854513366699,58.47433452148437,35.420965133666996C58.47433452148437,35.420965133666996,58.47433452148437,35.420965133666996,58.47433452148437,35.420965133666996Z" fill="#95F6FC" fill-opacity="1"/><path d="M56.862344521484374,28.77207513366699Q54.98305452148438,24.615495133666993,53.318984521484374,22.70293913366699L53.31895452148437,22.70291113366699Q53.139364521484374,22.49653813366699,52.86781452148438,22.49746813366699Q52.59613452148437,22.498399133666993,52.41794452148437,22.706206133666992Q50.756754521484375,24.64380513366699,48.88306452148438,28.771915133666994Q46.93875052148437,33.05566513366699,46.78409752148438,35.38786513366699Q46.607506521484375,38.05086513366699,48.23407052148438,40.02596513366699Q49.988914521484375,42.156765133666994,52.86947452148438,42.156765133666994Q55.79133452148437,42.156765133666994,57.55003452148438,40.02636513366699Q59.18343452148437,38.04796513366699,58.97273452148438,35.381565133666996Q58.78703452148437,33.02906513366699,56.862344521484374,28.77207513366699ZM52.87182452148438,23.730742133666993Q51.43325452148437,25.572865133666994,49.793664521484374,29.185215133666993Q47.924523521484375,33.30326513366699,47.78190652148437,35.454065133666994Q47.631557521484375,37.72126513366699,49.005994521484375,39.39026513366699Q50.46083452148437,41.156765133666994,52.86947452148438,41.156765133666994Q55.32014452148437,41.156765133666994,56.77892452148438,39.38976513366699Q58.154634521484375,37.72336513366699,57.975934521484376,35.46036513366699Q57.803834521484376,33.28186513366699,55.95114452148437,29.18405513366699Q54.30917452148437,25.552345133666993,52.87182452148438,23.730742133666993Z" fill-rule="evenodd" fill="#000000" fill-opacity="1"/></g></g></svg>