<svg xmlns="http://www.w3.org/2000/svg" xmlns:xlink="http://www.w3.org/1999/xlink" fill="none" version="1.1" width="57.1229248046875" height="57.1229248046875" viewBox="0 0 57.1229248046875 57.1229248046875"><defs><filter id="master_svg0_0_929" filterUnits="objectBoundingBox" color-interpolation-filters="sRGB" x="-1" y="-1" width="7.612292289733887" height="4.806146144866943"><feFlood flood-opacity="0" result="BackgroundImageFix"/><feBlend mode="normal" in="SourceGraphic" in2="BackgroundImageFix" result="shape"/><feGaussianBlur stdDeviation="0.25" result="effect1_foregroundBlur"/></filter><filter id="master_svg1_0_930" filterUnits="objectBoundingBox" color-interpolation-filters="sRGB" x="-1" y="-1" width="7.612292289733887" height="4.806146144866943"><feFlood flood-opacity="0" result="BackgroundImageFix"/><feBlend mode="normal" in="SourceGraphic" in2="BackgroundImageFix" result="shape"/><feGaussianBlur stdDeviation="0.25" result="effect1_foregroundBlur"/></filter><mask id="master_svg2_0_934" style="mask-type:alpha" maskUnits="userSpaceOnUse"><g><ellipse cx="28.279020309448242" cy="41.324095726013184" rx="7.200618743896484" ry="8.220454216003418" fill="#FFFFFF" fill-opacity="1"/></g></mask></defs><g><g><path d="M28.5615,56.6229Q29.2503,56.6229,29.9384,56.5891Q30.6264,56.5553,31.312,56.4878Q31.9975,56.4203,32.6789,56.3192Q33.3603,56.2181,34.036,56.0837Q34.7116,55.9493,35.3798,55.7819Q36.0481,55.6146,36.7073,55.4146Q37.3665,55.2146,38.0151,54.9826Q38.6637,54.7505,39.3001,54.4869Q39.9365,54.2232,40.5593,53.9287Q41.182,53.6342,41.7895,53.3095Q42.3971,52.9847,42.9879,52.6306Q43.5788,52.2764,44.1516,51.8937Q44.7243,51.511,45.2776,51.1006Q45.831,50.6903,46.3635,50.2533Q46.896,49.8162,47.4064,49.3536Q47.9168,48.891,48.4039,48.4039Q48.891,47.9168,49.3536,47.4064Q49.8162,46.896,50.2533,46.3635Q50.6903,45.831,51.1006,45.2776Q51.511,44.7243,51.8937,44.1516Q52.2764,43.5788,52.6306,42.9879Q52.9847,42.3971,53.3095,41.7895Q53.6342,41.182,53.9287,40.5593Q54.2232,39.9365,54.4869,39.3001Q54.7505,38.6637,54.9826,38.0151Q55.2146,37.3665,55.4146,36.7073Q55.6146,36.0481,55.782,35.3798Q55.9493,34.7116,56.0837,34.036Q56.2181,33.3603,56.3192,32.6789Q56.4203,31.9975,56.4878,31.312Q56.5553,30.6264,56.5891,29.9384Q56.6229,29.2503,56.6229,28.5615Q56.6229,27.8726,56.5891,27.1846Q56.5553,26.4965,56.4878,25.811Q56.4203,25.1254,56.3192,24.444Q56.2181,23.7626,56.0837,23.0869Q55.9493,22.4113,55.7819,21.7431Q55.6146,21.0749,55.4146,20.4156Q55.2146,19.7564,54.9826,19.1078Q54.7505,18.4592,54.4869,17.8228Q54.2232,17.1864,53.9287,16.5636Q53.6342,15.9409,53.3095,15.3334Q52.9847,14.7259,52.6306,14.135Q52.2764,13.5441,51.8937,12.9713Q51.511,12.3986,51.1006,11.8453Q50.6903,11.292,50.2533,10.7595Q49.8162,10.22695,49.3536,9.71654Q48.891,9.20612,48.4039,8.71901Q47.9168,8.23191,47.4064,7.76929Q46.896,7.30667,46.3635,6.86966Q45.831,6.43264,45.2776,6.02228Q44.7243,5.61192,44.1516,5.22921Q43.5788,4.84649,42.9879,4.49234Q42.3971,4.13819,41.7895,3.81346Q41.182,3.48873,40.5593,3.1942Q39.9365,2.89967,39.3001,2.63605Q38.6637,2.37243,38.0151,2.1403600000000003Q37.3665,1.90829,36.7073,1.70832Q36.0481,1.50835,35.3798,1.340967Q34.7116,1.173585,34.036,1.039193Q33.3603,0.904801,32.6789,0.803723Q31.9975,0.702645,31.312,0.635124Q30.6264,0.5676025,29.9384,0.5338013Q29.2503,0.5,28.5615,0.5Q27.8726,0.5,27.1846,0.5338013Q26.4965,0.5676025,25.811,0.635124Q25.1254,0.702645,24.444,0.803723Q23.7626,0.904801,23.0869,1.039193Q22.4113,1.173585,21.7431,1.340967Q21.0749,1.50835,20.4156,1.70832Q19.7564,1.90829,19.1078,2.1403600000000003Q18.4592,2.37243,17.8228,2.63605Q17.1864,2.89967,16.5636,3.1942Q15.9409,3.48873,15.3334,3.81346Q14.7259,4.13819,14.135,4.49234Q13.5441,4.84649,12.9713,5.22921Q12.3986,5.61192,11.8453,6.02228Q11.292,6.43264,10.7595,6.86966Q10.22695,7.30667,9.71654,7.76929Q9.20612,8.23191,8.71901,8.71901Q8.23191,9.20612,7.76929,9.71654Q7.30667,10.22695,6.86966,10.7595Q6.43264,11.292,6.02228,11.8453Q5.61192,12.3986,5.22921,12.9713Q4.84649,13.5441,4.49234,14.135Q4.13819,14.7259,3.81346,15.3334Q3.48873,15.9409,3.1942,16.5636Q2.89967,17.1864,2.63605,17.8228Q2.37243,18.4592,2.1403600000000003,19.1078Q1.90829,19.7564,1.70832,20.4156Q1.50835,21.0749,1.340967,21.7431Q1.173585,22.4113,1.039193,23.0869Q0.904801,23.7626,0.803723,24.444Q0.702645,25.1254,0.635124,25.811Q0.5676025,26.4965,0.5338013,27.1846Q0.5,27.8726,0.5,28.5615Q0.4999999999999988,29.6907,0.5907328000000001,30.8162Q0.681466,31.9418,0.8623449999999999,33.0564Q1.043224,34.171,1.313079,35.2675Q1.58293,36.364,1.94002,37.4353Q2.29711,38.5065,2.73912,39.5456Q3.18112,40.5847,3.7052,41.585Q4.22927,42.5852,4.83202,43.5401Q5.43476,44.495,6.11229,45.3983L4.24155,53.8168L12.0151,51.2256Q12.9088,51.8781,13.8512,52.4582Q14.7935,53.0383,15.7786,53.5424Q16.7637,54.0464,17.7855,54.4714Q18.8072,54.8963,19.8593,55.2395Q20.9113,55.5827,21.9871,55.8419Q23.0629,56.1012,24.1557,56.2749Q25.2486,56.4486,26.3517,56.5358Q27.4549,56.6229,28.5615,56.6229Z" fill-rule="evenodd" fill="#FFCF00" fill-opacity="1"/><path d="M28.5615,56.1229Q33.8186,56.1229,38.7067,54.1878Q44.014,52.0867,48.0504,48.0504Q52.0867,44.0141,54.1878,38.7067Q56.1229,33.8186,56.1229,28.5615Q56.1229,23.3043,54.1878,18.4162Q52.0867,13.1089,48.0504,9.07257Q44.0141,5.03629,38.7067,2.93514Q33.8186,1,28.5615,1Q23.3043,1,18.4162,2.93514Q13.1088,5.03628,9.07257,9.07257Q5.03629,13.1089,2.93514,18.4162Q1,23.3043,1,28.5615Q1,37.7486,6.51229,45.0983L6.65027,45.2823L4.72964,53.9252L4.24155,53.8168L4.08343,53.3424L12.1016,50.6697L12.3099,50.8218Q19.571,56.123,28.5615,56.1229ZM28.5615,57.1229Q19.2449,57.1229,11.7203,51.6294L12.0151,51.2256L12.1732,51.6999L3.56189,54.5704L5.62419,45.2899L6.11229,45.3983L5.71229,45.6983Q0,38.082,0,28.5615Q0,23.1135,2.00535,18.0481Q4.18272,12.5482,8.365459999999999,8.365459999999999Q12.5482,4.182729999999999,18.0481,2.00535Q23.1136,0,28.5615,0Q34.0094,0,39.0748,2.00535Q44.5747,4.182729999999999,48.7575,8.365459999999999Q52.9402,12.5483,55.1176,18.0481Q57.1229,23.1136,57.1229,28.5615Q57.1229,34.0093,55.1176,39.0748Q52.9402,44.5747,48.7575,48.7575Q44.5747,52.9402,39.0748,55.1176Q34.0093,57.1229,28.5615,57.1229Z" fill="#000000" fill-opacity="1"/></g><g filter="url(#master_svg0_0_929)"><ellipse cx="45.61071157455444" cy="32.30300974845886" rx="2.8061461448669434" ry="1.4030730724334717" fill="#FF8C71" fill-opacity="1"/></g><g filter="url(#master_svg1_0_930)"><ellipse cx="10.36488151550293" cy="32.30300974845886" rx="2.8061461448669434" ry="1.4030730724334717" fill="#FF8D6E" fill-opacity="1"/></g><g><g><ellipse cx="28.279020309448242" cy="41.324095726013184" rx="7.200618743896484" ry="8.220454216003418" fill="#000000" fill-opacity="1"/></g><g mask="url(#master_svg2_0_934)"><g><path d="M28.27902156555176,43.379271507263184C23.77863156555176,43.379271507263184,21.978478565551757,47.489501507263185,21.078401565551758,49.544611507263184C21.078401565551758,49.544611507263184,35.47960156555176,49.544611507263184,35.47960156555176,49.544611507263184C34.579601565551755,47.489501507263185,32.77940156555176,43.379271507263184,28.27902156555176,43.379271507263184C28.27902156555176,43.379271507263184,28.27902156555176,43.379271507263184,28.27902156555176,43.379271507263184Z" fill="#D50B00" fill-opacity="1"/></g></g></g><g><path d="M10.341986710229492,18.048612913513182C10.218492710229492,18.295602913513182,10.318604710229492,18.595932913513185,10.565594110229492,18.719432913513185C10.812583110229491,18.842922913513185,11.112920110229492,18.742812913513184,11.236415110229492,18.495822913513184C11.236415110229492,18.495822913513184,10.341986710229492,18.048612913513182,10.341986710229492,18.048612913513182C10.341986710229492,18.048612913513182,10.341986710229492,18.048612913513182,10.341986710229492,18.048612913513182ZM17.23882111022949,15.956352913513184C17.509601110229493,16.010512913513182,17.773011110229493,15.834902913513183,17.827161110229493,15.564124913513183C17.881321110229493,15.293344913513184,17.705711110229494,15.029931913513183,17.434931110229492,14.975776913513183C17.434931110229492,14.975776913513183,17.23882111022949,15.956352913513184,17.23882111022949,15.956352913513184C17.23882111022949,15.956352913513184,17.23882111022949,15.956352913513184,17.23882111022949,15.956352913513184ZM11.236415110229492,18.495822913513184C11.788651110229493,17.391352913513185,13.776971110229493,15.263988913513183,17.23882111022949,15.956352913513184C17.23882111022949,15.956352913513184,17.434931110229492,14.975776913513183,17.434931110229492,14.975776913513183C13.413721110229492,14.171529913513183,11.036931110229492,16.658722913513184,10.341986710229492,18.048612913513182C10.341986710229492,18.048612913513182,11.236415110229492,18.495822913513184,11.236415110229492,18.495822913513184C11.236415110229492,18.495822913513184,11.236415110229492,18.495822913513184,11.236415110229492,18.495822913513184Z" fill="#000000" fill-opacity="1"/></g><g transform="matrix(-1,0,0,1,93.66765594482422,0)"><path d="M46.88672357241211,18.194788298034666C46.76322957241211,18.441778298034667,46.86334157241211,18.74210829803467,47.11033097241211,18.86560829803467C47.35731997241211,18.98909829803467,47.65765697241211,18.88898829803467,47.78115197241211,18.641998298034668C47.78115197241211,18.641998298034668,46.88672357241211,18.194788298034666,46.88672357241211,18.194788298034666C46.88672357241211,18.194788298034666,46.88672357241211,18.194788298034666,46.88672357241211,18.194788298034666ZM53.78355797241211,16.102528298034667C54.05433797241211,16.156688298034666,54.31774797241211,15.981078298034667,54.37189797241211,15.710300298034667C54.42605797241211,15.439520298034669,54.25044797241211,15.176107298034667,53.97966797241211,15.121952298034667C53.97966797241211,15.121952298034667,53.78355797241211,16.102528298034667,53.78355797241211,16.102528298034667C53.78355797241211,16.102528298034667,53.78355797241211,16.102528298034667,53.78355797241211,16.102528298034667ZM47.78115197241211,18.641998298034668C48.33338797241211,17.53752829803467,50.321707972412106,15.410164298034667,53.78355797241211,16.102528298034667C53.78355797241211,16.102528298034667,53.97966797241211,15.121952298034667,53.97966797241211,15.121952298034667C49.958457972412106,14.317705298034667,47.581667972412106,16.80489829803467,46.88672357241211,18.194788298034666C46.88672357241211,18.194788298034666,47.78115197241211,18.641998298034668,47.78115197241211,18.641998298034668C47.78115197241211,18.641998298034668,47.78115197241211,18.641998298034668,47.78115197241211,18.641998298034668Z" fill="#000000" fill-opacity="1"/></g><g><path d="M12.988837268920898,21.146521223144532C13.243139268920899,20.81955982314453,13.714346268920899,20.76065882314453,14.041306268920899,21.014962223144533L17.7900762689209,23.930671223144532L21.5388462689209,21.014962223144533C21.8658062689209,20.76065882314453,22.337016268920898,20.81955982314453,22.5913162689209,21.146521223144532C22.8456162689209,21.473481223144532,22.786716268920898,21.94469122314453,22.4597562689209,22.19899122314453L19.0116962689209,24.88082122314453L22.4597362689209,27.562631223144532C22.7866962689209,27.816931223144532,22.8456162689209,28.28814122314453,22.5912962689209,28.61510122314453C22.3369962689209,28.94206122314453,21.865796268920896,29.00096122314453,21.5388262689209,28.74666122314453L17.7900762689209,25.83096122314453L14.041316268920898,28.74666122314453C13.714359268920898,29.00096122314453,13.243149268920899,28.94206122314453,12.988849268920898,28.61510122314453C12.7345495689209,28.28814122314453,12.793449368920898,27.816931223144532,13.120410268920898,27.562631223144532L16.568456268920897,24.88082122314453L13.1203962689209,22.19899122314453C12.7934348689209,21.94469122314453,12.734533868920899,21.473481223144532,12.988837268920898,21.146521223144532Z" fill-rule="evenodd" fill="#000000" fill-opacity="1"/></g><g><path d="M33.44664480981445,21.146521223144532C33.700946809814454,20.81955982314453,34.17215380981445,20.76065882314453,34.49911380981445,21.014962223144533L38.247883809814454,23.930671223144532L41.996653809814454,21.014962223144533C42.323613809814454,20.76065882314453,42.79482380981445,20.81955982314453,43.04912380981445,21.146521223144532C43.303423809814454,21.473481223144532,43.24452380981445,21.94469122314453,42.91756380981445,22.19899122314453L39.469503809814455,24.88082122314453L42.917543809814454,27.562631223144532C43.244503809814454,27.816931223144532,43.303423809814454,28.28814122314453,43.049103809814454,28.61510122314453C42.794803809814454,28.94206122314453,42.32360380981445,29.00096122314453,41.996633809814455,28.74666122314453L38.247883809814454,25.83096122314453L34.499123809814456,28.74666122314453C34.172166809814456,29.00096122314453,33.70095680981445,28.94206122314453,33.446656809814456,28.61510122314453C33.19235710981445,28.28814122314453,33.25125690981445,27.816931223144532,33.578217809814454,27.562631223144532L37.02626380981445,24.88082122314453L33.578203809814454,22.19899122314453C33.25124240981445,21.94469122314453,33.19234140981445,21.473481223144532,33.44664480981445,21.146521223144532Z" fill-rule="evenodd" fill="#000000" fill-opacity="1"/></g></g></svg>