<svg xmlns="http://www.w3.org/2000/svg" xmlns:xlink="http://www.w3.org/1999/xlink" fill="none" version="1.1" width="61.90658187866211" height="59.383544921875" viewBox="0 0 61.90658187866211 59.383544921875"><defs><filter id="master_svg0_0_756" filterUnits="objectBoundingBox" color-interpolation-filters="sRGB" x="-1" y="-1" width="7.612292289733887" height="4.806146144866943"><feFlood flood-opacity="0" result="BackgroundImageFix"/><feBlend mode="normal" in="SourceGraphic" in2="BackgroundImageFix" result="shape"/><feGaussianBlur stdDeviation="0.25" result="effect1_foregroundBlur"/></filter><filter id="master_svg1_0_757" filterUnits="objectBoundingBox" color-interpolation-filters="sRGB" x="-1" y="-1" width="7.612292289733887" height="4.806146144866943"><feFlood flood-opacity="0" result="BackgroundImageFix"/><feBlend mode="normal" in="SourceGraphic" in2="BackgroundImageFix" result="shape"/><feGaussianBlur stdDeviation="0.25" result="effect1_foregroundBlur"/></filter></defs><g><g><path d="M29.648008274078368,58.883527269744874Q30.33680827407837,58.883527269744874,31.02490827407837,58.849727269744875Q31.71290827407837,58.815927269744876,32.39850827407837,58.74842726974487Q33.08400827407837,58.68092726974487,33.76540827407837,58.579827269744875Q34.44680827407837,58.47872726974487,35.12250827407837,58.34432726974487Q35.798108274078366,58.209927269744874,36.46630827407837,58.04252726974487Q37.13460827407837,57.875227269744876,37.793808274078366,57.67522726974487Q38.45300827407837,57.47522726974487,39.101608274078366,57.24322726974487Q39.75020827407837,57.011127269744875,40.38660827407837,56.74752726974487Q41.02300827407837,56.48382726974487,41.64580827407837,56.18932726974487Q42.26850827407837,55.89482726974487,42.876008274078366,55.57012726974487Q43.48360827407837,55.24532726974487,44.07440827407837,54.891227269744874Q44.66530827407837,54.537027269744875,45.23810827407837,54.154327269744876Q45.81080827407837,53.771627269744876,46.36410827407837,53.36122726974487Q46.91750827407837,52.950927269744874,47.45000827407837,52.513927269744876Q47.98250827407837,52.076827269744875,48.49290827407837,51.61422726974487Q49.00330827407837,51.15162726974487,49.49040827407837,50.66452726974487Q49.97750827407837,50.177427269744875,50.44010827407837,49.66702726974487Q50.90270827407837,49.156627269744874,51.33980827407837,48.624127269744875Q51.77680827407837,48.091627269744876,52.18710827407837,47.53822726974487Q52.59750827407837,46.98492726974487,52.98020827407837,46.412227269744875Q53.36290827407837,45.839427269744874,53.71710827407837,45.248527269744876Q54.071208274078366,44.657727269744875,54.39600827407837,44.05012726974487Q54.72070827407837,43.442627269744875,55.01520827407837,42.81992726974487Q55.30970827407837,42.197127269744875,55.57340827407837,41.56072726974487Q55.83700827407837,40.92432726974487,56.06910827407837,40.27572726974487Q56.301108274078366,39.627127269744875,56.50110827407837,38.96792726974487Q56.70110827407837,38.30872726974487,56.868508274078366,37.640427269744876Q57.03580827407837,36.97222726974487,57.17020827407837,36.296627269744874Q57.30460827407837,35.620927269744875,57.40570827407837,34.93952726974487Q57.50680827407837,34.258127269744875,57.57430827407837,33.57262726974487Q57.64180827407837,32.88702726974488,57.67560827407837,32.199027269744875Q57.70940827407837,31.510927269744872,57.70940827407837,30.822127269744872Q57.70940827407837,30.13322726974487,57.67560827407837,29.445227269744873Q57.64180827407837,28.757127269744874,57.57430827407837,28.071627269744873Q57.50680827407837,27.386027269744872,57.40570827407837,26.704627269744872Q57.30460827407837,26.023227269744872,57.17020827407837,25.347527269744873Q57.03580827407837,24.671927269744874,56.86840827407837,24.00372726974487Q56.70110827407837,23.335527269744873,56.50110827407837,22.676227269744874Q56.301108274078366,22.017027269744872,56.06910827407837,21.368427269744874Q55.83700827407837,20.719827269744872,55.57340827407837,20.083427269744874Q55.30970827407837,19.447027269744872,55.01520827407837,18.824227269744874Q54.72070827407837,18.201527269744872,54.39600827407837,17.59402726974487Q54.071208274078366,16.986527269744872,53.71710827407837,16.39562726974487Q53.36290827407837,15.804727269744873,52.98020827407837,15.231927269744872Q52.59750827407837,14.659227269744873,52.18710827407837,14.105927269744873Q51.77680827407837,13.552627269744873,51.33980827407837,13.020127269744872Q50.90270827407837,12.487577269744873,50.44010827407837,11.977167269744873Q49.97750827407837,11.466747269744873,49.49040827407837,10.979637269744874Q49.00330827407837,10.492537269744872,48.49290827407837,10.029917269744873Q47.98250827407837,9.567297269744873,47.45000827407837,9.130287269744873Q46.91750827407837,8.693267269744872,46.36410827407837,8.282907269744873Q45.81080827407837,7.872547269744873,45.23810827407837,7.489837269744873Q44.66530827407837,7.107117269744873,44.07440827407837,6.7529672697448735Q43.48360827407837,6.398817269744873,42.876008274078366,6.074087269744873Q42.26850827407837,5.749357269744873,41.64580827407837,5.454827269744873Q41.02300827407837,5.1602972697448735,40.38660827407837,4.896677269744873Q39.75020827407837,4.633057269744873,39.101608274078366,4.400987269744873Q38.45300827407837,4.168917269744873,37.793808274078366,3.968947269744873Q37.13460827407837,3.768977269744873,36.46630827407837,3.601594269744873Q35.798108274078366,3.434212269744873,35.12250827407837,3.299820269744873Q34.44680827407837,3.165428269744873,33.76540827407837,3.0643502697448732Q33.08400827407837,2.963272269744873,32.39850827407837,2.895751269744873Q31.71290827407837,2.828229769744873,31.02490827407837,2.794428569744873Q30.33680827407837,2.760627269744873,29.648008274078368,2.760627269744873Q28.959108274078368,2.760627269744873,28.27110827407837,2.794428569744873Q27.58300827407837,2.828229769744873,26.89750827407837,2.895751269744873Q26.211908274078368,2.963272269744873,25.530508274078368,3.0643502697448732Q24.849108274078368,3.165428269744873,24.17340827407837,3.299820269744873Q23.49780827407837,3.434212269744873,22.829608274078367,3.601594269744873Q22.16140827407837,3.768977269744873,21.50210827407837,3.968947269744873Q20.84290827407837,4.168917269744873,20.19430827407837,4.400987269744873Q19.54570827407837,4.633057269744873,18.90930827407837,4.896677269744873Q18.272908274078368,5.1602972697448735,17.65010827407837,5.454827269744873Q17.02740827407837,5.749357269744873,16.419908274078367,6.074087269744873Q15.812408274078368,6.398817269744873,15.221508274078369,6.7529672697448735Q14.63060827407837,7.107117269744873,14.057808274078369,7.489837269744873Q13.48510827407837,7.872547269744873,12.931808274078369,8.282907269744873Q12.378508274078369,8.693267269744872,11.846008274078368,9.130287269744873Q11.31345827407837,9.567297269744873,10.80304827407837,10.029917269744873Q10.29262827407837,10.492537269744872,9.80551827407837,10.979637269744874Q9.318418274078368,11.466747269744873,8.855798274078369,11.977167269744873Q8.39317827407837,12.487577269744873,7.956168274078369,13.020127269744872Q7.519148274078369,13.552627269744873,7.108788274078369,14.105927269744873Q6.698428274078369,14.659227269744873,6.315718274078369,15.231927269744872Q5.932998274078369,15.804727269744873,5.57884827407837,16.39562726974487Q5.224698274078369,16.986527269744872,4.899968274078369,17.59402726974487Q4.5752382740783695,18.201527269744872,4.2807082740783695,18.824227269744874Q3.986178274078369,19.447027269744872,3.722558274078369,20.083427269744874Q3.458938274078369,20.719827269744872,3.2268682740783694,21.368427269744874Q2.994798274078369,22.017027269744872,2.794828274078369,22.676227269744874Q2.594858274078369,23.335527269744873,2.427475274078369,24.00372726974487Q2.2600932740783692,24.671927269744874,2.125701274078369,25.347527269744873Q1.991309274078369,26.023227269744872,1.890231274078369,26.704627269744872Q1.789153274078369,27.386027269744872,1.7216322740783692,28.071627269744873Q1.6541107740783692,28.757127269744874,1.620309574078369,29.445227269744873Q1.5865082740783691,30.13322726974487,1.5865082740783691,30.822127269744872Q1.586508274078368,31.951327269744873,1.6772410740783692,33.07682726974487Q1.767974274078369,34.202427269744874,1.948853274078369,35.31702726974487Q2.129732274078369,36.43162726974487,2.3995872740783692,37.52812726974487Q2.6694382740783693,38.62462726974487,3.026528274078369,39.69592726974487Q3.383618274078369,40.767127269744876,3.8256282740783694,41.80622726974487Q4.267628274078369,42.84532726974487,4.791708274078369,43.845627269744874Q5.315778274078369,44.84582726974487,5.918528274078369,45.800727269744876Q6.521268274078369,46.75562726974487,7.198798274078369,47.65892726974487L5.328058274078369,56.077427269744874L13.10160827407837,53.48622726974487Q13.995308274078369,54.13872726974488,14.93770827407837,54.71882726974487Q15.880008274078369,55.29892726974487,16.86510827407837,55.803027269744874Q17.85020827407837,56.30702726974487,18.872008274078368,56.732027269744876Q19.89370827407837,57.15692726974487,20.94580827407837,57.50012726974487Q21.99780827407837,57.843327269744876,23.07360827407837,58.102527269744876Q24.149408274078368,58.36182726974487,25.24220827407837,58.535527269744875Q26.33510827407837,58.70922726974487,27.43820827407837,58.796427269744875Q28.541408274078368,58.883527269744874,29.648008274078368,58.883527269744874Z" fill-rule="evenodd" fill="#FFCF00" fill-opacity="1"/><path d="M29.648008274078368,58.383527269744874Q34.90510827407837,58.383527269744874,39.79320827407837,56.448427269744876Q45.10050827407837,54.34732726974487,49.13690827407837,50.311027269744876Q53.17320827407837,46.27472726974487,55.27430827407837,40.96732726974487Q57.20940827407837,36.07922726974488,57.20940827407837,30.822127269744872Q57.20940827407837,25.564927269744874,55.27430827407837,20.676827269744873Q53.17320827407837,15.369527269744873,49.13690827407837,11.333197269744874Q45.10060827407837,7.296917269744873,39.79320827407837,5.195767269744874Q34.90510827407837,3.260627269744873,29.648008274078368,3.260627269744873Q24.39080827407837,3.260627269744873,19.50270827407837,5.195767269744874Q14.19530827407837,7.296907269744873,10.15907827407837,11.333197269744874Q6.122798274078369,15.369527269744873,4.02164827407837,20.676827269744873Q2.086508274078369,25.564927269744874,2.086508274078369,30.822127269744872Q2.086508274078369,40.009227269744876,7.598798274078369,47.358927269744875L7.736778274078369,47.54292726974487L5.816148274078369,56.18582726974487L5.328058274078369,56.077427269744874L5.169938274078369,55.60302726974487L13.188108274078369,52.93032726974487L13.39640827407837,53.082427269744876Q20.65750827407837,58.38362726974487,29.648008274078368,58.383527269744874ZM29.648008274078368,59.383527269744874Q20.33140827407837,59.383527269744874,12.806808274078369,53.89002726974487L13.10160827407837,53.48622726974487L13.259708274078369,53.96052726974487L4.648398274078369,56.83102726974487L6.710698274078369,47.550527269744876L7.198798274078369,47.65892726974487L6.7987982740783695,47.958927269744876Q1.0865082740783691,40.342627269744874,1.0865082740783691,30.822127269744872Q1.0865082740783691,25.37412726974487,3.091858274078369,20.308727269744875Q5.269228274078369,14.808827269744873,9.451968274078368,10.626087269744872Q13.634708274078369,6.443357269744872,19.13460827407837,4.265977269744873Q24.20010827407837,2.260627269744873,29.648008274078368,2.260627269744873Q35.09590827407837,2.260627269744873,40.16130827407837,4.265977269744873Q45.66120827407837,6.443357269744872,49.84400827407837,10.626087269744872Q54.026708274078366,14.808927269744872,56.20410827407837,20.308727269744875Q58.20940827407837,25.374227269744875,58.20940827407837,30.822127269744872Q58.20940827407837,36.269927269744876,56.20410827407837,41.335427269744876Q54.026708274078366,46.83532726974487,49.84400827407837,51.01812726974487Q45.66120827407837,55.20082726974487,40.16130827407837,57.378227269744876Q35.09580827407837,59.383527269744874,29.648008274078368,59.383527269744874Z" fill="#000000" fill-opacity="1"/></g><g filter="url(#master_svg0_0_756)"><ellipse cx="49.1576247215271" cy="33.41311717033386" rx="2.8061461448669434" ry="1.4030730724334717" fill="#FF8C71" fill-opacity="1"/></g><g filter="url(#master_svg1_0_757)"><ellipse cx="12.194508075714111" cy="33.41311717033386" rx="2.8061461448669434" ry="1.4030730724334717" fill="#FF8D6E" fill-opacity="1"/></g><g><g transform="matrix(0.9686315059661865,-0.2485015094280243,0.2485015094280243,0.9686315059661865,-1.8061317694255905,0.3074090415431101)"><path d="M12.647682824707031,7.925623723480225C12.97188282470703,7.1419437234802245,14.063082824707031,7.092153723480225,14.457182824707031,7.8430537234802244C14.457182824707031,7.8430537234802244,18.19928282470703,14.971931723480225,18.19928282470703,14.971931723480225C18.35598282470703,15.270351723480225,18.652382824707033,15.469791723480224,18.987882824707032,15.502451723480224C18.987882824707032,15.502451723480224,26.291482824707032,16.213651723480226,26.291482824707032,16.213651723480226C27.11988282470703,16.294251723480222,27.49288282470703,17.292551723480223,26.92048282470703,17.896701723480227C26.92048282470703,17.896701723480227,21.54308282470703,23.572101723480223,21.54308282470703,23.572101723480223C21.32998282470703,23.797001723480225,21.233182824707033,24.108001723480225,21.28098282470703,24.414201723480225C21.28098282470703,24.414201723480225,22.45938282470703,31.961701723480225,22.45938282470703,31.961701723480225C22.58738282470703,32.78110172348022,21.719682824707032,33.39120172348022,20.99188282470703,32.99350172348022C20.99188282470703,32.99350172348022,14.473182824707031,29.431301723480225,14.473182824707031,29.431301723480225C14.17388282470703,29.267701723480226,13.811982824707032,29.268001723480225,13.51298282470703,29.431901723480223C13.51298282470703,29.431901723480223,6.593682824707031,33.225001723480226,6.593682824707031,33.225001723480226C5.848372824707031,33.63350172348022,4.9654528247070315,32.98490172348022,5.132482824707031,32.151601723480226C5.132482824707031,32.151601723480226,6.670332824707031,24.478601723480224,6.670332824707031,24.478601723480224C6.738792824707032,24.137101723480225,6.624572824707031,23.784501723480226,6.3688428247070314,23.548001723480226C6.3688428247070314,23.548001723480226,0.6367428247070313,18.246301723480222,0.6367428247070313,18.246301723480222C0.013580824707031258,17.669901723480223,0.34663252470703126,16.628151723480222,1.1885828247070314,16.520251723480225C1.1885828247070314,16.520251723480225,8.960162824707032,15.523861723480225,8.960162824707032,15.523861723480225C9.31586282470703,15.478251723480225,9.61996282470703,15.245621723480225,9.757062824707031,14.914201723480225C9.757062824707031,14.914201723480225,12.647682824707031,7.925623723480225,12.647682824707031,7.925623723480225C12.647682824707031,7.925623723480225,12.647682824707031,7.925623723480225,12.647682824707031,7.925623723480225Z" fill="#FEDF42" fill-opacity="1"/><path d="M12.416682824707031,7.830070723480224L9.526042824707032,14.818651723480224Q9.359772824707031,15.220571723480225,8.928372824707031,15.275891723480225L1.1568038247070311,16.272281723480226Q0.36746672470703123,16.373441723480227,0.12511982470703126,17.131431723480226Q-0.11722217529296874,17.889401723480226,0.46699082470703124,18.429801723480224L6.1991028247070314,23.731501723480225Q6.507872824707031,24.017001723480224,6.425202824707031,24.429401723480225L4.887362824707031,32.10240172348023Q4.730762824707031,32.88370172348023,5.372942824707032,33.35540172348023Q6.015112824707031,33.827101723480226,6.713862824707031,33.44420172348022L13.633082824707031,29.651101723480224Q13.993082824707031,29.453801723480225,14.353282824707032,29.650601723480225L20.871982824707032,33.212801723480226Q21.55428282470703,33.58570172348023,22.19028282470703,33.138501723480225Q22.826382824707032,32.69130172348022,22.70638282470703,31.923101723480226L21.52798282470703,24.375601723480223Q21.471082824707032,24.011401723480226,21.72458282470703,23.744001723480224L27.101982824707033,18.068601723480224Q27.638582824707033,17.502201723480226,27.36548282470703,16.771331723480223Q27.09228282470703,16.040391723480226,26.315682824707032,15.964831723480225L19.012082824707033,15.253631723480225Q18.60898282470703,15.214381723480225,18.420582824707033,14.855741723480225L14.67848282470703,7.7268737234802245Q14.309082824707032,7.022889723480224,13.514782824707032,7.059131723480225Q12.720582824707032,7.095371723480224,12.416682824707031,7.830070723480224ZM8.991952824707031,15.771831723480224Q9.710972824707031,15.679641723480225,9.98807282470703,15.009771723480224L12.878682824707031,8.021176723480224Q13.06108282470703,7.580356723480224,13.537582824707032,7.558611723480224Q14.014082824707032,7.536867723480224,14.235782824707032,7.9592347234802245L17.97788282470703,15.088131723480224Q18.29178282470703,15.685871723480224,18.963682824707032,15.751281723480224L26.26728282470703,16.462481723480224Q26.733182824707033,16.507811723480224,26.89708282470703,16.946351723480227Q27.060982824707033,17.384901723480226,26.73898282470703,17.724701723480223L21.361582824707032,23.400101723480226Q20.939182824707032,23.845901723480225,21.03398282470703,24.452701723480224L22.21238282470703,32.000201723480224Q22.28438282470703,32.461101723480226,21.90278282470703,32.729501723480226Q21.52108282470703,32.99780172348022,21.11178282470703,32.77410172348023L14.59308282470703,29.211901723480224Q13.992782824707032,28.883701723480225,13.392782824707032,29.212601723480226L6.473502824707031,33.00570172348023Q6.054282824707031,33.235501723480226,5.668962824707031,32.95240172348022Q5.283652824707032,32.66940172348022,5.377602824707031,32.20070172348022L6.915462824707031,24.527701723480224Q7.053242824707032,23.840401723480223,6.5385828247070314,23.364401723480224L0.8064948247070313,18.062701723480224Q0.45596382470703123,17.738501723480226,0.6013708247070313,17.283701723480224Q0.7467738247070312,16.828921723480224,1.2203608247070312,16.768231723480227L8.991952824707031,15.771831723480224Z" fill-rule="evenodd" fill="#000000" fill-opacity="1"/></g><g transform="matrix(0.9686315059661865,-0.2485015094280243,0.2485015094280243,0.9686315059661865,-1.8301362723218375,0.7413581688144433)"><path d="M13.06315528793335,8.048133264923095C13.291555287933349,7.505939264923096,14.04635528793335,7.4702722649230955,14.32485528793335,7.988513264923096C14.32485528793335,7.988513264923096,18.07985528793335,14.975788264923096,18.07985528793335,14.975788264923096C18.23695528793335,15.268058264923095,18.52875528793335,15.463388264923097,18.85875528793335,15.497198264923096C18.85875528793335,15.497198264923096,26.00815528793335,16.229578264923095,26.00815528793335,16.229578264923095C26.58475528793335,16.288648264923097,26.843855287933348,16.982898264923094,26.44685528793335,17.405298264923097C26.44685528793335,17.405298264923097,21.17235528793335,23.017458264923096,21.17235528793335,23.017458264923096C20.961155287933348,23.242158264923095,20.86545528793335,23.5516582649231,20.91295528793335,23.856358264923095C20.91295528793335,23.856358264923095,21.80185528793335,29.557758264923095,21.80185528793335,29.557758264923095C21.939755287933348,30.442558264923097,20.93445528793335,31.048758264923094,20.21625528793335,30.513658264923095C20.21625528793335,30.513658264923095,15.501855287933349,27.001058264923095,15.501855287933349,27.001058264923095C15.186455287933349,26.766058264923096,14.762655287933349,26.737758264923094,14.418855287933349,26.928758264923097C14.418855287933349,26.928758264923097,8.31443528793335,30.318858264923097,8.31443528793335,30.318858264923097C7.5626552879333495,30.736358264923094,6.66941528793335,30.073158264923094,6.85163528793335,29.232758264923095C6.85163528793335,29.232758264923095,8.31590528793335,22.479458264923096,8.31590528793335,22.479458264923096C8.407085287933349,22.058958264923096,8.21903528793335,21.627258264923096,7.849005287933349,21.407658264923096C7.849005287933349,21.407658264923096,2.5118382879333496,18.239958264923096,2.5118382879333496,18.239958264923096C1.6993682879333496,17.757758264923098,1.9470680879333495,16.521738264923094,2.8826082879333494,16.389828264923096C2.8826082879333494,16.389828264923096,9.40844528793335,15.469708264923096,9.40844528793335,15.469708264923096C9.75685528793335,15.420588264923095,10.053805287933349,15.191968264923096,10.19042528793335,14.867708264923095C10.19042528793335,14.867708264923095,13.06315528793335,8.048133264923095,13.06315528793335,8.048133264923095C13.06315528793335,8.048133264923095,13.06315528793335,8.048133264923095,13.06315528793335,8.048133264923095Z" fill="#FEFFB4" fill-opacity="1"/></g></g><g transform="matrix(-1,0,0,1,123.18400573730469,0)"><g transform="matrix(0.9686315059661865,-0.2485015094280243,0.2485015094280243,0.9686315059661865,0.19560374177351036,15.524898125205254)"><path d="M73.92510286865235,7.605484315368653C74.24930286865234,6.821804315368652,75.34050286865235,6.7720143153686525,75.73460286865235,7.522914315368652C75.73460286865235,7.522914315368652,79.47670286865234,14.651792315368652,79.47670286865234,14.651792315368652C79.63340286865234,14.950212315368653,79.92980286865235,15.149652315368652,80.26530286865234,15.182312315368652C80.26530286865234,15.182312315368652,87.56890286865234,15.893512315368651,87.56890286865234,15.893512315368651C88.39730286865235,15.974112315368652,88.77030286865235,16.97241231536865,88.19790286865233,17.576562315368655C88.19790286865233,17.576562315368655,82.82050286865234,23.25196231536865,82.82050286865234,23.25196231536865C82.60740286865234,23.476862315368653,82.51060286865234,23.787862315368653,82.55840286865234,24.094062315368653C82.55840286865234,24.094062315368653,83.73680286865235,31.641562315368652,83.73680286865235,31.641562315368652C83.86480286865235,32.46096231536865,82.99710286865235,33.07106231536865,82.26930286865235,32.67336231536865C82.26930286865235,32.67336231536865,75.75060286865235,29.111162315368652,75.75060286865235,29.111162315368652C75.45130286865235,28.947562315368653,75.08940286865234,28.947862315368653,74.79040286865234,29.11176231536865C74.79040286865234,29.11176231536865,67.87110286865234,32.90486231536865,67.87110286865234,32.90486231536865C67.12579286865234,33.31336231536865,66.24287286865234,32.66476231536865,66.40990286865234,31.831462315368654C66.40990286865234,31.831462315368654,67.94775286865234,24.158462315368652,67.94775286865234,24.158462315368652C68.01621286865235,23.816962315368652,67.90199286865234,23.464362315368653,67.64626286865234,23.227862315368654C67.64626286865234,23.227862315368654,61.91416286865234,17.92616231536865,61.91416286865234,17.92616231536865C61.29100086865235,17.34976231536865,61.624052568652345,16.30801231536865,62.466002868652346,16.200112315368653C62.466002868652346,16.200112315368653,70.23758286865234,15.203722315368653,70.23758286865234,15.203722315368653C70.59328286865234,15.158112315368653,70.89738286865234,14.925482315368653,71.03448286865235,14.594062315368653C71.03448286865235,14.594062315368653,73.92510286865235,7.605484315368653,73.92510286865235,7.605484315368653C73.92510286865235,7.605484315368653,73.92510286865235,7.605484315368653,73.92510286865235,7.605484315368653Z" fill="#FEDF42" fill-opacity="1"/><path d="M73.69410286865235,7.509931315368652L70.80346286865235,14.498512315368652Q70.63719286865235,14.900432315368652,70.20579286865234,14.955752315368652L62.434223868652346,15.952142315368652Q61.64488676865234,16.053302315368654,61.40253986865234,16.811292315368654Q61.16019786865235,17.569262315368654,61.744410868652345,18.109662315368652L67.47652286865234,23.411362315368653Q67.78529286865235,23.69686231536865,67.70262286865234,24.109262315368653L66.16478286865234,31.78226231536865Q66.00818286865234,32.56356231536866,66.65036286865234,33.035262315368655Q67.29253286865234,33.50696231536865,67.99128286865235,33.12406231536865L74.91050286865234,29.33096231536865Q75.27050286865234,29.133662315368653,75.63070286865235,29.330462315368653L82.14940286865234,32.89266231536865Q82.83170286865234,33.265562315368655,83.46770286865234,32.81836231536865Q84.10380286865234,32.37116231536865,83.98380286865235,31.602962315368654L82.80540286865235,24.05546231536865Q82.74850286865234,23.691262315368654,83.00200286865234,23.423862315368652L88.37940286865235,17.748462315368652Q88.91600286865234,17.182062315368654,88.64290286865234,16.45119231536865Q88.36970286865234,15.720252315368652,87.59310286865235,15.644692315368653L80.28950286865235,14.933492315368653Q79.88640286865234,14.894242315368652,79.69800286865234,14.535602315368653L75.95590286865234,7.406734315368652Q75.58650286865235,6.702750315368652,74.79220286865234,6.738992315368653Q73.99800286865235,6.775232315368652,73.69410286865235,7.509931315368652ZM70.26937286865234,15.451692315368652Q70.98839286865234,15.359502315368653,71.26549286865234,14.689632315368652L74.15610286865234,7.701037315368652Q74.33850286865234,7.260217315368652,74.81500286865234,7.238472315368652Q75.29150286865234,7.216728315368652,75.51320286865234,7.639095315368652L79.25530286865234,14.767992315368652Q79.56920286865234,15.365732315368652,80.24110286865235,15.431142315368652L87.54470286865234,16.14234231536865Q88.01060286865234,16.18767231536865,88.17450286865234,16.626212315368655Q88.33840286865234,17.064762315368654,88.01640286865234,17.40456231536865L82.63900286865234,23.079962315368654Q82.21660286865234,23.525762315368652,82.31140286865235,24.132562315368652L83.48980286865235,31.68006231536865Q83.56180286865234,32.140962315368654,83.18020286865234,32.409362315368654Q82.79850286865235,32.67766231536865,82.38920286865235,32.453962315368656L75.87050286865234,28.891762315368652Q75.27020286865235,28.563562315368653,74.67020286865234,28.892462315368654L67.75092286865234,32.68556231536866Q67.33170286865234,32.915362315368654,66.94638286865235,32.63226231536865Q66.56107286865235,32.34926231536865,66.65502286865234,31.880562315368653L68.19288286865235,24.20756231536865Q68.33066286865234,23.52026231536865,67.81600286865235,23.044262315368652L62.08391486865234,17.74256231536865Q61.733383868652346,17.418362315368654,61.878790868652345,16.96356231536865Q62.02419386865235,16.508782315368652,62.49778086865234,16.448092315368655L70.26937286865234,15.451692315368652Z" fill-rule="evenodd" fill="#000000" fill-opacity="1"/></g><g transform="matrix(0.9686315059661865,-0.2485015094280243,0.2485015094280243,0.9686315059661865,0.17160512200186417,15.958851896979613)"><path d="M74.3405966703415,7.727972875976563C74.56899667034149,7.185778875976562,75.3237966703415,7.150111875976562,75.60229667034149,7.668352875976563C75.60229667034149,7.668352875976563,79.3572966703415,14.655627875976563,79.3572966703415,14.655627875976563C79.51439667034148,14.947897875976562,79.80619667034149,15.143227875976564,80.13619667034149,15.177037875976563C80.13619667034149,15.177037875976563,87.28559667034149,15.909417875976562,87.28559667034149,15.909417875976562C87.86219667034149,15.968487875976562,88.1212966703415,16.66273787597656,87.72429667034149,17.085137875976564C87.72429667034149,17.085137875976564,82.4497966703415,22.697297875976563,82.4497966703415,22.697297875976563C82.2385966703415,22.92199787597656,82.14289667034149,23.231497875976565,82.1903966703415,23.536197875976562C82.1903966703415,23.536197875976562,83.07929667034149,29.23759787597656,83.07929667034149,29.23759787597656C83.2171966703415,30.122397875976564,82.21189667034149,30.72859787597656,81.49369667034149,30.19349787597656C81.49369667034149,30.19349787597656,76.7792966703415,26.680897875976562,76.7792966703415,26.680897875976562C76.46389667034148,26.445897875976563,76.04009667034148,26.41759787597656,75.6962966703415,26.608597875976564C75.6962966703415,26.608597875976564,69.59187667034149,29.998697875976564,69.59187667034149,29.998697875976564C68.8400966703415,30.41619787597656,67.94685667034149,29.75299787597656,68.12907667034149,28.912597875976562C68.12907667034149,28.912597875976562,69.59334667034149,22.159297875976563,69.59334667034149,22.159297875976563C69.6845266703415,21.738797875976562,69.4964766703415,21.307097875976563,69.1264466703415,21.087497875976563C69.1264466703415,21.087497875976563,63.78927967034149,17.919797875976563,63.78927967034149,17.919797875976563C62.97680967034149,17.437597875976564,63.224509470341495,16.20157787597656,64.1600496703415,16.069667875976563C64.1600496703415,16.069667875976563,70.68588667034149,15.149547875976562,70.68588667034149,15.149547875976562C71.03429667034149,15.100427875976562,71.33124667034149,14.871807875976563,71.4678666703415,14.547547875976562C71.4678666703415,14.547547875976562,74.3405966703415,7.727972875976563,74.3405966703415,7.727972875976563C74.3405966703415,7.727972875976563,74.3405966703415,7.727972875976563,74.3405966703415,7.727972875976563Z" fill="#FEFFB4" fill-opacity="1"/></g></g><g><path d="M30.636721841430663,51.924355834960934C43.732021841430665,51.924355834960934,46.538721841430664,34.152105834960935,43.732021841430665,33.21666983496094C40.92532184143066,32.28123283496094,38.11972184143066,35.087435834960935,30.636721841430663,35.087435834960935C23.153641841430662,35.087435834960935,20.347491841430664,31.345905834960938,17.541345841430665,33.21666983496094C14.735201841430664,35.087435834960935,17.541345841430665,51.924355834960934,30.636721841430663,51.924355834960934C30.636721841430663,51.924355834960934,30.636721841430663,51.924355834960934,30.636721841430663,51.924355834960934Z" fill="#000000" fill-opacity="1"/></g><g><path d="M30.58334936279297,42.982059478759766C24.971059362792968,42.982059478759766,22.16490936279297,43.91744147875976,22.16490936279297,44.85281947875976C22.16490936279297,45.78820947875977,23.10029136279297,50.46511947875977,30.58334936279297,50.46511947875977C38.06640936279297,50.46511947875977,39.00180936279297,45.78820947875977,39.00180936279297,44.85281947875976C39.00180936279297,43.91744147875976,36.195609362792965,42.982059478759766,30.58334936279297,42.982059478759766C30.58334936279297,42.982059478759766,30.58334936279297,42.982059478759766,30.58334936279297,42.982059478759766Z" fill="#D50B00" fill-opacity="1"/></g><g><path d="M30.584021633911135,36.43408834716797C24.971721633911134,36.43408834716797,17.48851293391113,31.757218347167967,17.488209733911134,34.56363334716797C17.48790643391113,37.37005834716797,16.553945633911134,40.17530834716797,30.584021633911135,40.17561834716797C44.61412163391113,40.17592834716797,43.67932163391113,37.36932834716797,43.67932163391113,34.563222347167965C43.67932163391113,31.75712834716797,36.19632163391113,36.43408834716797,30.584021633911135,36.43408834716797C30.584021633911135,36.43408834716797,30.584021633911135,36.43408834716797,30.584021633911135,36.43408834716797Z" fill="#FFFFFF" fill-opacity="1"/></g></g></svg>