<svg xmlns="http://www.w3.org/2000/svg" xmlns:xlink="http://www.w3.org/1999/xlink" fill="none" version="1.1" width="29.95550537109375" height="55.113006591796875" viewBox="0 0 29.95550537109375 55.113006591796875"><g><g><rect x="13.635541915893555" y="28.564374923706055" width="4.568413257598877" height="6.10839319229126" rx="0" fill="#9C9898" fill-opacity="1"/></g><g><path d="M2.384024977684021,51.61300075683594C2.384024977684021,51.61300075683594,2.384024977684021,27.705720756835937,2.384024977684021,27.705720756835937C2.384024977684021,26.943944756835936,3.001568977684021,26.326400756835938,3.763344977684021,26.326400756835938C4.236104977684021,26.326400756835938,4.675934977684021,26.568523756835937,4.928794977684021,26.967978756835937C4.928794977684021,26.967978756835937,7.012304977684021,30.259380756835938,7.012304977684021,30.259380756835938C7.578164977684021,31.153290756835936,8.37033497768402,31.881690756835937,9.30848497768402,32.37073075683594C9.30848497768402,32.37073075683594,11.14130497768402,33.32613075683594,11.14130497768402,33.32613075683594C11.99763497768402,33.77252075683594,12.94902497768402,34.00562075683594,13.91472497768402,34.00562075683594C13.91472497768402,34.00562075683594,17.95112497768402,34.00562075683594,17.95112497768402,34.00562075683594C19.265924977684023,34.00562075683594,20.54432497768402,33.57372075683594,21.58982497768402,32.77635075683594C21.58982497768402,32.77635075683594,24.96172497768402,30.20454075683594,24.96172497768402,30.20454075683594C25.449124977684022,29.832790756835937,26.045224977684022,29.631430756835936,26.65822497768402,29.631430756835936C28.20312497768402,29.631430756835936,29.45552497768402,30.883840756835937,29.45552497768402,32.428760756835935C29.45552497768402,32.428760756835935,29.45552497768402,51.61300075683594,29.45552497768402,51.61300075683594C29.45552497768402,53.26990075683594,28.112324977684022,54.61300075683594,26.45552497768402,54.61300075683594C26.45552497768402,54.61300075683594,5.384024977684021,54.61300075683594,5.384024977684021,54.61300075683594C3.727174977684021,54.61300075683594,2.384024977684021,53.26990075683594,2.384024977684021,51.61300075683594C2.384024977684021,51.61300075683594,2.384024977684021,51.61300075683594,2.384024977684021,51.61300075683594Z" fill="#FFFFFF" fill-opacity="1"/><path d="M2.909154977684021,54.087900756835936Q3.934274977684021,55.11300075683594,5.384024977684021,55.11300075683594L26.45552497768402,55.11300075683594Q27.90522497768402,55.11300075683594,28.93032497768402,54.087900756835936Q29.95552497768402,53.06280075683594,29.95552497768402,51.61300075683594L29.95552497768402,32.428760756835935Q29.95552497768402,31.062970756835938,28.98972497768402,30.09720075683594Q28.02402497768402,29.131430756835936,26.65822497768402,29.131430756835936Q25.54422497768402,29.131430756835936,24.65852497768402,29.806980756835937L21.28662497768402,32.37878075683594Q19.80912497768402,33.50562075683594,17.95112497768402,33.50562075683594L13.91472497768402,33.50562075683594Q12.56732497768402,33.50562075683594,11.372424977684021,32.88275075683594L9.539604977684021,31.92735075683594Q8.22667497768402,31.24295075683594,7.434774977684021,29.991950756835937L5.351264977684021,26.700549756835937Q4.797914977684021,25.826400756835938,3.763344977684021,25.826400756835938Q2.984905977684021,25.826400756835938,2.434465577684021,26.37684135683594Q1.884024977684021,26.92728175683594,1.884024977684021,27.705720756835937L1.884024977684021,51.61300075683594Q1.884024977684021,53.06280075683594,2.909154977684021,54.087900756835936ZM26.45552497768402,54.11300075683594L5.384024977684021,54.11300075683594Q4.348484977684021,54.11300075683594,3.616254977684021,53.38080075683594Q2.884024977684021,52.64860075683593,2.884024977684021,51.61300075683594L2.884024977684021,27.705720756835937Q2.884024977684021,26.826400756835938,3.763344977684021,26.826400756835938Q4.247414977684021,26.826400756835938,4.506324977684021,27.235407756835937L6.589834977684021,30.526810756835935Q7.525724977684021,32.00526075683594,9.07736497768402,32.81411075683594L10.910184977684022,33.769510756835935Q12.322304977684022,34.50562075683594,13.91472497768402,34.50562075683594L17.95112497768402,34.50562075683594Q20.14692497768402,34.50562075683594,21.89302497768402,33.17392075683594L25.26492497768402,30.602100756835938Q25.882024977684022,30.131430756835936,26.65822497768402,30.131430756835936Q27.60982497768402,30.131430756835936,28.28262497768402,30.804300756835936Q28.95552497768402,31.47718075683594,28.95552497768402,32.428760756835935L28.95552497768402,51.61300075683594Q28.95552497768402,52.64860075683593,28.223324977684022,53.38080075683594Q27.49102497768402,54.11300075683594,26.45552497768402,54.11300075683594Z" fill-rule="evenodd" fill="#000000" fill-opacity="1"/></g><g><rect x="0.5" y="24.94525909423828" width="3.6845388412475586" height="12.502591133117676" rx="0.9847684502601624" fill="#F5F5F5" fill-opacity="1"/><rect x="0.25" y="24.69525909423828" width="4.184538841247559" height="13.002591133117676" rx="1.2347684502601624" fill-opacity="0" stroke-opacity="1" stroke="#000000" fill="none" stroke-width="0.5"/></g><g><path d="M8.030107975006104,31.638622283935547C8.030107975006104,31.638622283935547,9.535087975006103,32.893292283935544,9.535087975006103,32.893292283935544C9.535087975006103,32.893292283935544,9.535087975006103,38.86127228393555,9.535087975006103,38.86127228393555C9.535087975006103,39.27686228393554,9.198187975006103,39.61376228393554,8.782597975006103,39.61376228393554C8.782597975006103,39.61376228393554,8.782597975006103,39.61376228393554,8.782597975006103,39.61376228393554C8.367008975006103,39.61376228393554,8.030107975006104,39.27686228393554,8.030107975006104,38.86127228393555C8.030107975006104,38.86127228393555,8.030107975006104,31.638622283935547,8.030107975006104,31.638622283935547C8.030107975006104,31.638622283935547,8.030107975006104,31.638622283935547,8.030107975006104,31.638622283935547Z" fill="#F5F5F5" fill-opacity="1"/><path d="M7.5301079750061035,38.86127228393555Q7.5301079750061035,39.38007228393555,7.896953975006103,39.74691228393554Q8.263798975006104,40.11376228393554,8.782597975006103,40.11376228393554Q9.301397975006104,40.11376228393554,9.668237975006104,39.74691228393554Q10.035087975006103,39.38007228393555,10.035087975006103,38.86127228393555L10.035087975006103,32.659162283935544L7.5301079750061035,30.57082228393555L7.5301079750061035,38.86127228393555ZM8.030107975006104,38.86127228393555L8.030107975006104,31.638622283935547L8.530107975006104,32.05546128393555L9.535087975006103,32.893292283935544L9.535087975006103,38.86127228393555C9.535087975006103,39.27686228393554,9.198187975006103,39.61376228393554,8.782597975006103,39.61376228393554C8.367008975006103,39.61376228393554,8.030107975006104,39.27686228393554,8.030107975006104,38.86127228393555Z" fill-rule="evenodd" fill="#000000" fill-opacity="1"/></g><g><path d="M8.335174560546875 43.23141151666641C8.335174560546875 42.68753891947322 8.776070413613846 42.24664306640625 9.319943010807037 42.24664306640625L11.034944951534271 42.24664306640625C11.578817548727462 42.24664306640625 12.019713401794434 42.68753891947322 12.019713401794434 43.23141151666641L12.019713401794434 54.61297798156738C12.019713401794434 54.61297798156738 12.019713401794434 54.61297798156738 12.019713401794434 54.61297798156738L8.335174560546875 54.61297798156738C8.335174560546875 54.61297798156738 8.335174560546875 54.61297798156738 8.335174560546875 54.61297798156738Z" fill="#F5F5F5" fill-opacity="1"/><path d="M8.585174560546875 43.48141151666641C8.585174560546875 42.93753891947322 9.026070413613846 42.49664306640625 9.569943010807037 42.49664306640625L10.784944951534271 42.49664306640625C11.328817548727462 42.49664306640625 11.769713401794434 42.93753891947322 11.769713401794434 43.48141151666641L11.769713401794434 54.36297798156738C11.769713401794434 54.36297798156738 11.769713401794434 54.36297798156738 11.769713401794434 54.36297798156738L8.585174560546875 54.36297798156738C8.585174560546875 54.36297798156738 8.585174560546875 54.36297798156738 8.585174560546875 54.36297798156738Z" fill-opacity="0" stroke-opacity="1" stroke="#000000" fill="none" stroke-width="0.5"/></g><g><path d="M26.94541632080078,18.092071630859376C26.53911632080078,27.033871630859377,19.46971632080078,28.785371630859373,15.985716320800782,28.543471630859376C9.163236320800781,28.543471630859376,4.860510620800781,25.095871630859374,4.881492713000782,19.180471630859376C4.902474820800781,13.265171630859374,10.54255632080078,10.108231630859375,12.139286320800782,7.785721630859375C13.226136320800782,6.204851630859375,13.041426320800781,1.954921630859375,12.962146320800782,0.722261630859375C12.952316320800781,0.569487230859375,13.102236320800781,0.459953530859375,13.239576320800781,0.527584230859375C15.317816320800782,1.550991630859375,27.40631632080078,7.948691630859375,26.94541632080078,18.092071630859376C26.94541632080078,18.092071630859376,26.94541632080078,18.092071630859376,26.94541632080078,18.092071630859376Z" fill="#FFB523" fill-opacity="1"/><path d="M21.38501632080078,5.523511630859375Q17.852216320800782,2.241691630859375,13.460466320800782,0.07902163085937502Q13.090316320800781,-0.103253369140625,12.755706320800781,0.13493663085937502Q12.437876320800783,0.361185630859375,12.46317632080078,0.754352630859375Q12.797106320800781,5.946321630859375,11.727266320800782,7.502451630859375Q11.325336320800782,8.087081630859375,9.803956320800781,9.528141630859375Q7.329736320800781,11.871771630859374,6.265406320800781,13.433271630859375Q4.392126320800781,16.181571630859374,4.381495320800782,19.178771630859377Q4.365038320800782,23.818471630859374,7.547636320800781,26.464771630859374Q10.644036320800781,29.039371630859375,15.96851632080078,29.043471630859376Q19.75951632080078,29.301371630859375,22.89991632080078,27.175771630859376Q27.164316320800783,24.289471630859374,27.444916320800782,18.114771630859376Q27.748416320800782,11.434971630859375,21.38501632080078,5.523511630859375ZM13.491586320800781,1.213680630859375Q13.756446320800782,6.316061630859375,12.55130632080078,8.068981630859376Q12.089606320800781,8.740551630859375,10.491636320800781,10.254151630859376Q8.09548632080078,12.523771630859375,7.091716320800781,13.996471630859375Q5.391033320800782,16.491571630859376,5.381489320800782,19.182271630859375Q5.366704320800781,23.350771630859374,8.186976320800781,25.695771630859376Q11.01047632080078,28.043471630859376,15.985716320800782,28.043471630859376L16.003016320800782,28.043471630859376L16.02031632080078,28.044671630859376Q19.47741632080078,28.284771630859375,22.33941632080078,26.347571630859374Q26.18811632080078,23.742671630859373,26.44591632080078,18.069371630859376Q26.728416320800783,11.852371630859375,20.70441632080078,6.256161630859375Q17.47011632080078,3.251661630859375,13.491586320800781,1.213680630859375Z" fill-rule="evenodd" fill="#000000" fill-opacity="1"/></g><g><path d="M20.7606954776001,20.431427283935548C20.973845477600097,22.925397283935546,19.141365477600097,25.419397283935545,15.909545477600098,25.419397283935545C12.727485477600098,25.419397283935545,10.895374477600098,22.925397283935546,11.074327277600098,20.431427283935548C11.250988477600098,17.969377283935547,14.042805477600098,12.473297283935548,15.840005477600098,10.529336583935548C15.878465477600098,10.487738683935547,15.940645477600098,10.487528583935546,15.979405477600098,10.528844083935548C17.802745477600098,12.472367283935547,20.550255477600096,17.969167283935548,20.7606954776001,20.431427283935548C20.7606954776001,20.431427283935548,20.7606954776001,20.431427283935548,20.7606954776001,20.431427283935548Z" fill="#FFE732" fill-opacity="1"/></g></g></svg>