<svg xmlns="http://www.w3.org/2000/svg" xmlns:xlink="http://www.w3.org/1999/xlink" fill="none" version="1.1" width="57.1229248046875" height="62.310821533203125" viewBox="0 0 57.1229248046875 62.310821533203125"><defs><filter id="master_svg0_0_710" filterUnits="objectBoundingBox" color-interpolation-filters="sRGB" x="-1" y="-1" width="7.612292289733887" height="5.741528034210205"><feFlood flood-opacity="0" result="BackgroundImageFix"/><feBlend mode="normal" in="SourceGraphic" in2="BackgroundImageFix" result="shape"/><feGaussianBlur stdDeviation="0.25" result="effect1_foregroundBlur"/></filter><filter id="master_svg1_0_711" filterUnits="objectBoundingBox" color-interpolation-filters="sRGB" x="-1" y="-1" width="7.612292289733887" height="5.741528034210205"><feFlood flood-opacity="0" result="BackgroundImageFix"/><feBlend mode="normal" in="SourceGraphic" in2="BackgroundImageFix" result="shape"/><feGaussianBlur stdDeviation="0.25" result="effect1_foregroundBlur"/></filter></defs><g><g><path d="M28.5615,56.6229Q29.2503,56.6229,29.9384,56.5891Q30.6264,56.5553,31.312,56.4878Q31.9975,56.4203,32.6789,56.3192Q33.3603,56.2181,34.036,56.0837Q34.7116,55.9493,35.3798,55.7819Q36.0481,55.6146,36.7073,55.4146Q37.3665,55.2146,38.0151,54.9826Q38.6637,54.7505,39.3001,54.4869Q39.9365,54.2232,40.5593,53.9287Q41.182,53.6342,41.7895,53.3095Q42.3971,52.9847,42.9879,52.6306Q43.5788,52.2764,44.1516,51.8937Q44.7243,51.511,45.2776,51.1006Q45.831,50.6903,46.3635,50.2533Q46.896,49.8162,47.4064,49.3536Q47.9168,48.891,48.4039,48.4039Q48.891,47.9168,49.3536,47.4064Q49.8162,46.896,50.2533,46.3635Q50.6903,45.831,51.1006,45.2776Q51.511,44.7243,51.8937,44.1516Q52.2764,43.5788,52.6306,42.9879Q52.9847,42.3971,53.3095,41.7895Q53.6342,41.182,53.9287,40.5593Q54.2232,39.9365,54.4869,39.3001Q54.7505,38.6637,54.9826,38.0151Q55.2146,37.3665,55.4146,36.7073Q55.6146,36.0481,55.782,35.3798Q55.9493,34.7116,56.0837,34.036Q56.2181,33.3603,56.3192,32.6789Q56.4203,31.9975,56.4878,31.312Q56.5553,30.6264,56.5891,29.9384Q56.6229,29.2503,56.6229,28.5615Q56.6229,27.8726,56.5891,27.1846Q56.5553,26.4965,56.4878,25.811Q56.4203,25.1254,56.3192,24.444Q56.2181,23.7626,56.0837,23.0869Q55.9493,22.4113,55.7819,21.7431Q55.6146,21.0749,55.4146,20.4156Q55.2146,19.7564,54.9826,19.1078Q54.7505,18.4592,54.4869,17.8228Q54.2232,17.1864,53.9287,16.5636Q53.6342,15.9409,53.3095,15.3334Q52.9847,14.7259,52.6306,14.135Q52.2764,13.5441,51.8937,12.9713Q51.511,12.3986,51.1006,11.8453Q50.6903,11.292,50.2533,10.7595Q49.8162,10.22695,49.3536,9.71654Q48.891,9.20612,48.4039,8.71901Q47.9168,8.23191,47.4064,7.76929Q46.896,7.30667,46.3635,6.86966Q45.831,6.43264,45.2776,6.02228Q44.7243,5.61192,44.1516,5.22921Q43.5788,4.84649,42.9879,4.49234Q42.3971,4.13819,41.7895,3.81346Q41.182,3.48873,40.5593,3.1942Q39.9365,2.89967,39.3001,2.63605Q38.6637,2.37243,38.0151,2.1403600000000003Q37.3665,1.90829,36.7073,1.70832Q36.0481,1.50835,35.3798,1.340967Q34.7116,1.173585,34.036,1.039193Q33.3603,0.904801,32.6789,0.803723Q31.9975,0.702645,31.312,0.635124Q30.6264,0.5676025,29.9384,0.5338013Q29.2503,0.5,28.5615,0.5Q27.8726,0.5,27.1846,0.5338013Q26.4965,0.5676025,25.811,0.635124Q25.1254,0.702645,24.444,0.803723Q23.7626,0.904801,23.0869,1.039193Q22.4113,1.173585,21.7431,1.340967Q21.0749,1.50835,20.4156,1.70832Q19.7564,1.90829,19.1078,2.1403600000000003Q18.4592,2.37243,17.8228,2.63605Q17.1864,2.89967,16.5636,3.1942Q15.9409,3.48873,15.3334,3.81346Q14.7259,4.13819,14.135,4.49234Q13.5441,4.84649,12.9713,5.22921Q12.3986,5.61192,11.8453,6.02228Q11.292,6.43264,10.7595,6.86966Q10.22695,7.30667,9.71654,7.76929Q9.20612,8.23191,8.71901,8.71901Q8.23191,9.20612,7.76929,9.71654Q7.30667,10.22695,6.86966,10.7595Q6.43264,11.292,6.02228,11.8453Q5.61192,12.3986,5.22921,12.9713Q4.84649,13.5441,4.49234,14.135Q4.13819,14.7259,3.81346,15.3334Q3.48873,15.9409,3.1942,16.5636Q2.89967,17.1864,2.63605,17.8228Q2.37243,18.4592,2.1403600000000003,19.1078Q1.90829,19.7564,1.70832,20.4156Q1.50835,21.0749,1.340967,21.7431Q1.173585,22.4113,1.039193,23.0869Q0.904801,23.7626,0.803723,24.444Q0.702645,25.1254,0.635124,25.811Q0.5676025,26.4965,0.5338013,27.1846Q0.5,27.8726,0.5,28.5615Q0.4999999999999988,29.6907,0.5907328000000001,30.8162Q0.681466,31.9418,0.8623449999999999,33.0564Q1.043224,34.171,1.313079,35.2675Q1.58293,36.364,1.94002,37.4353Q2.29711,38.5065,2.73912,39.5456Q3.18112,40.5847,3.7052,41.585Q4.22927,42.5852,4.83202,43.5401Q5.43476,44.495,6.11229,45.3983L4.24155,53.8168L12.0151,51.2256Q12.9088,51.8781,13.8512,52.4582Q14.7935,53.0383,15.7786,53.5424Q16.7637,54.0464,17.7855,54.4714Q18.8072,54.8963,19.8593,55.2395Q20.9113,55.5827,21.9871,55.8419Q23.0629,56.1012,24.1557,56.2749Q25.2486,56.4486,26.3517,56.5358Q27.4549,56.6229,28.5615,56.6229Z" fill-rule="evenodd" fill="#FFCF00" fill-opacity="1"/><path d="M28.5615,56.1229Q33.8186,56.1229,38.7067,54.1878Q44.014,52.0867,48.0504,48.0504Q52.0867,44.0141,54.1878,38.7067Q56.1229,33.8186,56.1229,28.5615Q56.1229,23.3043,54.1878,18.4162Q52.0867,13.1089,48.0504,9.07257Q44.0141,5.03629,38.7067,2.93514Q33.8186,1,28.5615,1Q23.3043,1,18.4162,2.93514Q13.1088,5.03628,9.07257,9.07257Q5.03629,13.1089,2.93514,18.4162Q1,23.3043,1,28.5615Q1,37.7486,6.51229,45.0983L6.65027,45.2823L4.72964,53.9252L4.24155,53.8168L4.08343,53.3424L12.1016,50.6697L12.3099,50.8218Q19.571,56.123,28.5615,56.1229ZM28.5615,57.1229Q19.2449,57.1229,11.7203,51.6294L12.0151,51.2256L12.1732,51.6999L3.56189,54.5704L5.62419,45.2899L6.11229,45.3983L5.71229,45.6983Q0,38.082,0,28.5615Q0,23.1135,2.00535,18.0481Q4.18272,12.5482,8.365459999999999,8.365459999999999Q12.5482,4.182729999999999,18.0481,2.00535Q23.1136,0,28.5615,0Q34.0094,0,39.0748,2.00535Q44.5747,4.182729999999999,48.7575,8.365459999999999Q52.9402,12.5483,55.1176,18.0481Q57.1229,23.1136,57.1229,28.5615Q57.1229,34.0093,55.1176,39.0748Q52.9402,44.5747,48.7575,48.7575Q44.5747,52.9402,39.0748,55.1176Q34.0093,57.1229,28.5615,57.1229Z" fill="#000000" fill-opacity="1"/></g><g transform="matrix(0.5257924199104309,-0.8506129384040833,0.8506129384040833,0.5257924199104309,-26.875162424924667,22.070154062545328)" filter="url(#master_svg0_0_710)"><ellipse cx="9.162806034088135" cy="37.00958847999573" rx="2.8061461448669434" ry="1.8707640171051025" fill="#FF8B72" fill-opacity="1"/></g><g transform="matrix(0.9612589478492737,0.2756469249725342,0.27564674615859985,-0.9612590074539185,-6.589856716566601,46.887615130387985)" filter="url(#master_svg1_0_711)"><ellipse cx="48.20444631576538" cy="32.15820527076721" rx="2.8061461448669434" ry="1.8707640171051025" fill="#FF8B72" fill-opacity="1"/></g><g><path d="M28.561498347473144,34.173755290527346C22.013778347473142,35.10913529052734,15.465918347473144,33.23877529052734,12.659774347473144,36.044785290527344C9.853628347473144,38.850795290527344,19.206898347473143,51.01088529052734,32.30259834747314,48.20488529052734C45.39819834747315,45.398885290527346,46.333698347473145,30.432365290527343,43.527598347473145,29.496982290527345C40.72139834747314,28.561600290527345,35.10909834747314,33.238375290527344,28.561498347473144,34.173755290527346C28.561498347473144,34.173755290527346,28.561498347473144,34.173755290527346,28.561498347473144,34.173755290527346Z" fill="#000000" fill-opacity="1"/></g><g><path d="M28.561481578063965,36.044516181030275C21.078111578063965,36.97989618103027,14.530571578063965,35.10913618103027,13.595189778063965,36.97989618103027C12.659807578063965,38.85066618103028,19.205851578063964,40.721426181030274,30.430781578063964,38.85066618103028C41.655781578063966,36.97990618103027,45.39668157806396,30.432226181030273,42.59058157806396,30.432226181030273C39.784381578063964,30.432226181030273,36.044881578063965,35.10913618103027,28.561481578063965,36.044516181030275C28.561481578063965,36.044516181030275,28.561481578063965,36.044516181030275,28.561481578063965,36.044516181030275Z" fill="#FFFFFF" fill-opacity="1"/></g><g transform="matrix(0.8938957452774048,0.4482749402523041,-0.4482749402523041,0.8938957452774048,19.5938385367333,-4.102882011657698)"><g><path d="M18.46395492553711,41.83909630775452C18.46395492553711,40.73452730775452,19.359385925537108,39.83909630775452,20.46395492553711,39.83909630775452C20.46395492553711,39.83909630775452,29.55925492553711,39.83909630775452,29.55925492553711,39.83909630775452C30.66385492553711,39.83909630775452,31.55925492553711,40.734526307754514,31.55925492553711,41.83909630775452C31.55925492553711,41.83909630775452,31.55925492553711,52.71969630775452,31.55925492553711,52.71969630775452C31.55925492553711,55.48109630775451,29.32075492553711,57.71969630775452,26.55930492553711,57.71969630775452C26.55930492553711,57.71969630775452,23.46395492553711,57.71969630775452,23.46395492553711,57.71969630775452C20.70253492553711,57.71969630775452,18.46395492553711,55.48109630775451,18.46395492553711,52.71969630775452C18.46395492553711,52.71969630775452,18.46395492553711,41.83909630775452,18.46395492553711,41.83909630775452C18.46395492553711,41.83909630775452,18.46395492553711,41.83909630775452,18.46395492553711,41.83909630775452Z" fill="#D50B00" fill-opacity="1"/><path d="M17.96395492553711,41.83909630775452L17.96395492553711,52.71969630775452Q17.96395592553711,54.997896307754516,19.57486492553711,56.60879630775452Q21.18578492553711,58.21969630775452,23.46395492553711,58.21969630775452L26.55930492553711,58.21969630775452Q28.83745492553711,58.21969630775452,30.44835492553711,56.60879630775452Q32.05925492553711,54.997896307754516,32.05925492553711,52.71969630775452L32.05925492553711,41.83909630775452Q32.05925492553711,40.803558307754514,31.32705492553711,40.07133130775452Q30.59485492553711,39.33909630775452,29.55925492553711,39.33909630775452L20.46395492553711,39.33909630775452Q19.42842092553711,39.33909630775452,18.69618792553711,40.07132930775452Q17.96395492553711,40.80356230775452,17.96395492553711,41.83909630775452ZM20.28197492553711,55.90169630775452Q18.96395592553711,54.58359630775452,18.96395592553711,52.71969630775452L18.96395492553711,41.83909630775452Q18.96395492553711,41.21777630775452,19.40329492553711,40.77843630775452Q19.84263492553711,40.33909630775452,20.46395492553711,40.33909630775452L29.55925492553711,40.33909630775452Q30.18055492553711,40.33909630775452,30.619954925537108,40.778434307754516Q31.05925492553711,41.217766307754516,31.05925492553711,41.83909630775452L31.05925492553711,52.71969630775452Q31.05925492553711,54.583696307754515,29.74125492553711,55.90169630775452Q28.42326492553711,57.21969630775452,26.55930492553711,57.21969630775452L23.46395492553711,57.21969630775452Q21.60000492553711,57.21969630775452,20.28197492553711,55.90169630775452Z" fill-rule="evenodd" fill="#000000" fill-opacity="1"/></g><g><path d="M25.511684894561768,39.83910369873047C25.511684894561768,39.56296169873047,25.287826894561768,39.33910369873047,25.011684894561768,39.33910369873047C24.735542894561767,39.33910369873047,24.511684894561768,39.56296169873047,24.511684894561768,39.83910369873047C24.511684894561768,39.83910369873047,25.511684894561768,39.83910369873047,25.511684894561768,39.83910369873047C25.511684894561768,39.83910369873047,25.511684894561768,39.83910369873047,25.511684894561768,39.83910369873047ZM24.511684894561768,46.99133369873047C24.511684894561768,47.26747369873047,24.735542894561767,47.49133369873047,25.011684894561768,47.49133369873047C25.287826894561768,47.49133369873047,25.511684894561768,47.26747369873047,25.511684894561768,46.99133369873047C25.511684894561768,46.99133369873047,24.511684894561768,46.99133369873047,24.511684894561768,46.99133369873047C24.511684894561768,46.99133369873047,24.511684894561768,46.99133369873047,24.511684894561768,46.99133369873047ZM24.511684894561768,39.83910369873047C24.511684894561768,39.83910369873047,24.511684894561768,46.99133369873047,24.511684894561768,46.99133369873047C24.511684894561768,46.99133369873047,25.511684894561768,46.99133369873047,25.511684894561768,46.99133369873047C25.511684894561768,46.99133369873047,25.511684894561768,39.83910369873047,25.511684894561768,39.83910369873047C25.511684894561768,39.83910369873047,24.511684894561768,39.83910369873047,24.511684894561768,39.83910369873047C24.511684894561768,39.83910369873047,24.511684894561768,39.83910369873047,24.511684894561768,39.83910369873047Z" fill="#000000" fill-opacity="1"/></g></g><g><ellipse cx="38.85066604614258" cy="18.272257804870605" rx="8.418437957763672" ry="8.418437957763672" fill="#FFFFFF" fill-opacity="1"/><ellipse cx="38.85066604614258" cy="18.272257804870605" rx="8.418437957763672" ry="8.418437957763672" fill-opacity="0" stroke-opacity="1" stroke="#000000" fill="none" stroke-width="0.6000000238418579"/></g><g><ellipse cx="14.530752658843994" cy="22.013785362243652" rx="6.547674179077148" ry="6.547674179077148" fill="#FFFFFF" fill-opacity="1"/><ellipse cx="14.530752658843994" cy="22.013785362243652" rx="6.547674179077148" ry="6.547674179077148" fill-opacity="0" stroke-opacity="1" stroke="#000000" fill="none" stroke-width="0.6000000238418579"/></g><g><ellipse cx="35.10912466049194" cy="16.401493549346924" rx="2.8061461448669434" ry="2.8061461448669434" fill="#000000" fill-opacity="1"/></g><g><ellipse cx="15.466086626052856" cy="24.819931268692017" rx="1.8707640171051025" ry="1.8707640171051025" fill="#000000" fill-opacity="1"/></g></g></svg>