<svg xmlns="http://www.w3.org/2000/svg" xmlns:xlink="http://www.w3.org/1999/xlink" fill="none" version="1.1" width="57.1229248046875" height="57.1229248046875" viewBox="0 0 57.1229248046875 57.1229248046875"><g><g><path d="M28.5615,56.6229Q29.2503,56.6229,29.9384,56.5891Q30.6264,56.5553,31.312,56.4878Q31.9975,56.4203,32.6789,56.3192Q33.3603,56.2181,34.036,56.0837Q34.7116,55.9493,35.3798,55.7819Q36.0481,55.6146,36.7073,55.4146Q37.3665,55.2146,38.0151,54.9826Q38.6637,54.7505,39.3001,54.4869Q39.9365,54.2232,40.5593,53.9287Q41.182,53.6342,41.7895,53.3095Q42.3971,52.9847,42.9879,52.6306Q43.5788,52.2764,44.1516,51.8937Q44.7243,51.511,45.2776,51.1006Q45.831,50.6903,46.3635,50.2533Q46.896,49.8162,47.4064,49.3536Q47.9168,48.891,48.4039,48.4039Q48.891,47.9168,49.3536,47.4064Q49.8162,46.896,50.2533,46.3635Q50.6903,45.831,51.1006,45.2776Q51.511,44.7243,51.8937,44.1516Q52.2764,43.5788,52.6306,42.9879Q52.9847,42.3971,53.3095,41.7895Q53.6342,41.182,53.9287,40.5593Q54.2232,39.9365,54.4869,39.3001Q54.7505,38.6637,54.9826,38.0151Q55.2146,37.3665,55.4146,36.7073Q55.6146,36.0481,55.782,35.3798Q55.9493,34.7116,56.0837,34.036Q56.2181,33.3603,56.3192,32.6789Q56.4203,31.9975,56.4878,31.312Q56.5553,30.6264,56.5891,29.9384Q56.6229,29.2503,56.6229,28.5615Q56.6229,27.8726,56.5891,27.1846Q56.5553,26.4965,56.4878,25.811Q56.4203,25.1254,56.3192,24.444Q56.2181,23.7626,56.0837,23.0869Q55.9493,22.4113,55.7819,21.7431Q55.6146,21.0749,55.4146,20.4156Q55.2146,19.7564,54.9826,19.1078Q54.7505,18.4592,54.4869,17.8228Q54.2232,17.1864,53.9287,16.5636Q53.6342,15.9409,53.3095,15.3334Q52.9847,14.7259,52.6306,14.135Q52.2764,13.5441,51.8937,12.9713Q51.511,12.3986,51.1006,11.8453Q50.6903,11.292,50.2533,10.7595Q49.8162,10.22695,49.3536,9.71654Q48.891,9.20612,48.4039,8.71901Q47.9168,8.23191,47.4064,7.76929Q46.896,7.30667,46.3635,6.86966Q45.831,6.43264,45.2776,6.02228Q44.7243,5.61192,44.1516,5.22921Q43.5788,4.84649,42.9879,4.49234Q42.3971,4.13819,41.7895,3.81346Q41.182,3.48873,40.5593,3.1942Q39.9365,2.89967,39.3001,2.63605Q38.6637,2.37243,38.0151,2.1403600000000003Q37.3665,1.90829,36.7073,1.70832Q36.0481,1.50835,35.3798,1.340967Q34.7116,1.173585,34.036,1.039193Q33.3603,0.904801,32.6789,0.803723Q31.9975,0.702645,31.312,0.635124Q30.6264,0.5676025,29.9384,0.5338013Q29.2503,0.5,28.5615,0.5Q27.8726,0.5,27.1846,0.5338013Q26.4965,0.5676025,25.811,0.635124Q25.1254,0.702645,24.444,0.803723Q23.7626,0.904801,23.0869,1.039193Q22.4113,1.173585,21.7431,1.340967Q21.0749,1.50835,20.4156,1.70832Q19.7564,1.90829,19.1078,2.1403600000000003Q18.4592,2.37243,17.8228,2.63605Q17.1864,2.89967,16.5636,3.1942Q15.9409,3.48873,15.3334,3.81346Q14.7259,4.13819,14.135,4.49234Q13.5441,4.84649,12.9713,5.22921Q12.3986,5.61192,11.8453,6.02228Q11.292,6.43264,10.7595,6.86966Q10.22695,7.30667,9.71654,7.76929Q9.20612,8.23191,8.71901,8.71901Q8.23191,9.20612,7.76929,9.71654Q7.30667,10.22695,6.86966,10.7595Q6.43264,11.292,6.02228,11.8453Q5.61192,12.3986,5.22921,12.9713Q4.84649,13.5441,4.49234,14.135Q4.13819,14.7259,3.81346,15.3334Q3.48873,15.9409,3.1942,16.5636Q2.89967,17.1864,2.63605,17.8228Q2.37243,18.4592,2.1403600000000003,19.1078Q1.90829,19.7564,1.70832,20.4156Q1.50835,21.0749,1.340967,21.7431Q1.173585,22.4113,1.039193,23.0869Q0.904801,23.7626,0.803723,24.444Q0.702645,25.1254,0.635124,25.811Q0.5676025,26.4965,0.5338013,27.1846Q0.5,27.8726,0.5,28.5615Q0.4999999999999988,29.6907,0.5907328000000001,30.8162Q0.681466,31.9418,0.8623449999999999,33.0564Q1.043224,34.171,1.313079,35.2675Q1.58293,36.364,1.94002,37.4353Q2.29711,38.5065,2.73912,39.5456Q3.18112,40.5847,3.7052,41.585Q4.22927,42.5852,4.83202,43.5401Q5.43476,44.495,6.11229,45.3983L4.24155,53.8168L12.0151,51.2256Q12.9088,51.8781,13.8512,52.4582Q14.7935,53.0383,15.7786,53.5424Q16.7637,54.0464,17.7855,54.4714Q18.8072,54.8963,19.8593,55.2395Q20.9113,55.5827,21.9871,55.8419Q23.0629,56.1012,24.1557,56.2749Q25.2486,56.4486,26.3517,56.5358Q27.4549,56.6229,28.5615,56.6229Z" fill-rule="evenodd" fill="#FFCF00" fill-opacity="1"/><path d="M28.5615,56.1229Q33.8186,56.1229,38.7067,54.1878Q44.014,52.0867,48.0504,48.0504Q52.0867,44.0141,54.1878,38.7067Q56.1229,33.8186,56.1229,28.5615Q56.1229,23.3043,54.1878,18.4162Q52.0867,13.1089,48.0504,9.07257Q44.0141,5.03629,38.7067,2.93514Q33.8186,1,28.5615,1Q23.3043,1,18.4162,2.93514Q13.1088,5.03628,9.07257,9.07257Q5.03629,13.1089,2.93514,18.4162Q1,23.3043,1,28.5615Q1,37.7486,6.51229,45.0983L6.65027,45.2823L4.72964,53.9252L4.24155,53.8168L4.08343,53.3424L12.1016,50.6697L12.3099,50.8218Q19.571,56.123,28.5615,56.1229ZM28.5615,57.1229Q19.2449,57.1229,11.7203,51.6294L12.0151,51.2256L12.1732,51.6999L3.56189,54.5704L5.62419,45.2899L6.11229,45.3983L5.71229,45.6983Q0,38.082,0,28.5615Q0,23.1135,2.00535,18.0481Q4.18272,12.5482,8.365459999999999,8.365459999999999Q12.5482,4.182729999999999,18.0481,2.00535Q23.1136,0,28.5615,0Q34.0094,0,39.0748,2.00535Q44.5747,4.182729999999999,48.7575,8.365459999999999Q52.9402,12.5483,55.1176,18.0481Q57.1229,23.1136,57.1229,28.5615Q57.1229,34.0093,55.1176,39.0748Q52.9402,44.5747,48.7575,48.7575Q44.5747,52.9402,39.0748,55.1176Q34.0093,57.1229,28.5615,57.1229Z" fill="#000000" fill-opacity="1"/></g><g><path d="M12.864585978546142,31.483587932128906C8.566765978546142,32.50521793212891,7.532559978546143,36.831697932128904,8.416127978546143,37.89037793212891C9.299695978546143,38.94905793212891,11.940305978546142,35.985847932128905,13.893175978546143,35.31254793212891C15.846055978546143,34.6392479321289,19.050045978546144,36.16936793212891,19.98034597854614,34.460907932128904C20.910745978546142,32.75244793212891,17.162395978546144,30.461959932128906,12.864585978546142,31.483587932128906C12.864585978546142,31.483587932128906,12.864585978546142,31.483587932128906,12.864585978546142,31.483587932128906Z" fill="#95F6FC" fill-opacity="1"/><path d="M18.681945978546143,35.515597932128905Q19.771545978546143,35.3671079321289,20.199945978546143,34.580467932128904Q20.614745978546143,33.81863793212891,20.07454597854614,32.994237932128904Q19.59084597854614,32.25626793212891,18.49214597854614,31.723514932128907Q15.953185978546141,30.492432932128906,12.806765978546142,31.240365422128907Q9.805675978546143,31.953752932128907,8.474700978546142,34.55936793212891Q7.953836978546143,35.57904793212891,7.884670978546143,36.56892793212891Q7.815371978546143,37.560727932128906,8.224192378546142,38.05056793212891Q8.705631978546142,38.62741793212891,9.741475978546143,38.146867932128906Q10.284945978546142,37.89472793212891,11.561155978546143,36.9909879321289Q13.239825978546143,35.80224793212891,13.974665978546142,35.54889793212891Q14.720725978546142,35.291677932128906,16.646395978546142,35.46817793212891Q18.07136597854614,35.59878793212891,18.681945978546143,35.515597932128905ZM19.656345978546142,33.26831793212891Q20.032545978546143,33.84236793212891,19.76074597854614,34.34133793212891Q19.453445978546142,34.905837932128904,18.61434597854614,35.020167932128906Q18.06028597854614,35.09567793212891,16.692035978546144,34.970267932128905Q14.659345978546142,34.7839479321289,13.811685978546143,35.076197932128906Q13.009235978546142,35.35286793212891,11.272205978546143,36.58293793212891Q10.033185978546143,37.46033793212891,9.531045978546143,37.69329793212891Q8.843492978546143,38.01227793212891,8.608064978546142,37.730187932128906Q8.328181978546143,37.39483793212891,8.383454978546142,36.60377793212891Q8.445510978546142,35.715657932128906,8.919972978546143,34.786817932128905Q10.145925978546142,32.3868079321289,12.922405978546141,31.726810932128906Q15.895415978546144,31.020098932128906,18.273945978546145,32.173415932128904Q19.24834597854614,32.64588793212891,19.656345978546142,33.26831793212891Z" fill-rule="evenodd" fill="#000000" fill-opacity="1"/></g><g transform="matrix(-1,0,0,1,100.18702697753906,0)"><path d="M54.822143488769534,31.483587932128906C50.533764488769535,32.50521793212891,49.50183048876953,36.831697932128904,50.38345748876953,37.89037793212891C51.265083488769534,38.94905793212891,53.89989348876953,35.985847932128905,55.84847348876953,35.31254793212891C57.79706348876953,34.6392479321289,60.99401348876953,36.16936793212891,61.92231348876953,34.460907932128904C62.85061348876953,32.75244793212891,59.11051348876953,30.461959932128906,54.822143488769534,31.483587932128906C54.822143488769534,31.483587932128906,54.822143488769534,31.483587932128906,54.822143488769534,31.483587932128906Z" fill="#95F6FC" fill-opacity="1"/><path d="M60.62681348876953,35.51558793212891Q61.71451348876953,35.367047932128905,62.142013488769535,34.580267932128905Q62.55581348876953,33.818647932128904,62.01681348876953,32.99444793212891Q61.53421348876953,32.25642793212891,60.43771348876953,31.723608932128908Q57.90408348876953,30.492375932128905,54.76420348876953,31.240394082128905Q51.76941348876953,31.953849932128907,50.44131148876953,34.559557932128904Q49.92162448876953,35.57917793212891,49.85261848876953,36.568967932128906Q49.783483488769534,37.560587932128904,50.19134878876953,38.050357932128904Q50.67208548876953,38.627637932128906,51.70631348876953,38.146777932128906Q52.248653488769534,37.894607932128906,53.52210348876953,36.990837932128905Q55.19701348876953,35.80215793212891,55.93012348876953,35.548837932128905Q56.674333488769534,35.29168793212891,58.59554348876953,35.46817793212891Q60.01751348876953,35.5987979321289,60.62681348876953,35.51558793212891ZM61.598313488769534,33.268107932128906Q61.97391348876953,33.842357932128905,61.70261348876953,34.341547932128904Q61.39601348876953,34.90589793212891,60.55921348876953,35.02017793212891Q60.00641348876953,35.095667932128904,58.64128348876953,34.970267932128905Q56.61283348876953,34.78393793212891,55.76682348876953,35.076257932128904Q54.96603348876953,35.35295793212891,53.23272348876953,36.583087932128905Q51.99647348876953,37.460457932128904,51.49550348876953,37.69338793212891Q50.81012248876953,38.012057932128904,50.57556748876953,37.73039793212891Q50.296243488769534,37.39497793212891,50.35140748876953,36.60373793212891Q50.413332488769534,35.71552793212891,50.88678548876953,34.786617932128905Q52.10999348876953,32.38670793212891,54.88008348876953,31.726781932128905Q57.84619348876953,31.020157932128907,60.21921348876953,32.17332193212891Q61.19131348876953,32.64573793212891,61.598313488769534,33.268107932128906Z" fill-rule="evenodd" fill="#000000" fill-opacity="1"/></g><g><g><ellipse cx="41.65680980682373" cy="26.690695762634277" rx="5.612292289733887" ry="5.612292289733887" fill="#000000" fill-opacity="1"/></g><g><ellipse cx="43.11615562438965" cy="25.47588801383972" rx="2.32485294342041" ry="2.32485294342041" fill="#FFFFFF" fill-opacity="1"/></g><g><ellipse cx="39.45676362514496" cy="29.89604389667511" rx="1.3345900774002075" ry="1.3345900774002075" fill="#FFFFFF" fill-opacity="1"/></g></g><g><g><ellipse cx="15.77075481414795" cy="26.690695762634277" rx="5.612292289733887" ry="5.612292289733887" fill="#000000" fill-opacity="1"/></g><g><ellipse cx="17.230109214782715" cy="25.47588801383972" rx="2.32485294342041" ry="2.32485294342041" fill="#FFFFFF" fill-opacity="1"/></g><g><ellipse cx="13.570717453956604" cy="29.89604389667511" rx="1.3345900774002075" ry="1.3345900774002075" fill="#FFFFFF" fill-opacity="1"/></g></g><g><path d="M9.884545979553224,18.601740995483397C9.608435979553223,18.6059609954834,9.388027639553222,18.833210995483398,9.392249635953222,19.109320995483397C9.396472639553222,19.385430995483397,9.623727979553223,19.605840995483398,9.899837979553222,19.601620995483398C9.899837979553222,19.601620995483398,9.884545979553224,18.601740995483397,9.884545979553224,18.601740995483397C9.884545979553224,18.601740995483397,9.884545979553224,18.601740995483397,9.884545979553224,18.601740995483397ZM18.410819979553224,16.7297959954834C18.56716997955322,16.502174995483397,18.509389979553223,16.1909109954834,18.281769979553225,16.034565695483398C18.054149979553223,15.878220695483398,17.742879979553223,15.935999695483398,17.586539979553223,16.163619995483398C17.586539979553223,16.163619995483398,18.410819979553224,16.7297959954834,18.410819979553224,16.7297959954834C18.410819979553224,16.7297959954834,18.410819979553224,16.7297959954834,18.410819979553224,16.7297959954834ZM9.899837979553222,19.601620995483398C10.956599979553223,19.5854609954834,12.553769979553223,19.6471709954834,14.116179979553223,19.338210995483397C15.693929979553221,19.0262209954834,17.315619979553222,18.3242909954834,18.410819979553224,16.7297959954834C18.410819979553224,16.7297959954834,17.586539979553223,16.163619995483398,17.586539979553223,16.163619995483398C16.692479979553223,17.465270995483397,15.353879979553223,18.0741009954834,13.922189979553224,18.3572109954834C12.475159979553222,18.6433509954834,11.013719979553223,18.5844709954834,9.884545979553224,18.601740995483397C9.884545979553224,18.601740995483397,9.899837979553222,19.601620995483398,9.899837979553222,19.601620995483398C9.899837979553222,19.601620995483398,9.899837979553222,19.601620995483398,9.899837979553222,19.601620995483398Z" fill="#000000" fill-opacity="1"/></g><g transform="matrix(-1,0,0,1,96.12646484375,0)"><path d="M48.555588421875,18.601740995483397C48.279478421875,18.6059609954834,48.059070081875,18.833210995483398,48.063292078275,19.109320995483397C48.067515081875,19.385430995483397,48.294770421875,19.605840995483398,48.570880421875,19.601620995483398C48.570880421875,19.601620995483398,48.555588421875,18.601740995483397,48.555588421875,18.601740995483397C48.555588421875,18.601740995483397,48.555588421875,18.601740995483397,48.555588421875,18.601740995483397ZM57.081862421875,16.7297959954834C57.238212421875,16.502174995483397,57.180432421875,16.1909109954834,56.952812421875,16.034565695483398C56.725192421875,15.878220695483398,56.413922421875,15.935999695483398,56.257582421875,16.163619995483398C56.257582421875,16.163619995483398,57.081862421875,16.7297959954834,57.081862421875,16.7297959954834C57.081862421875,16.7297959954834,57.081862421875,16.7297959954834,57.081862421875,16.7297959954834ZM48.570880421875,19.601620995483398C49.627642421875,19.5854609954834,51.224812421875,19.6471709954834,52.787222421875,19.338210995483397C54.364972421875,19.0262209954834,55.986662421874996,18.3242909954834,57.081862421875,16.7297959954834C57.081862421875,16.7297959954834,56.257582421875,16.163619995483398,56.257582421875,16.163619995483398C55.363522421875004,17.465270995483397,54.024922421875,18.0741009954834,52.593232421875,18.3572109954834C51.146202421875,18.6433509954834,49.684762421875,18.5844709954834,48.555588421875,18.601740995483397C48.555588421875,18.601740995483397,48.570880421875,19.601620995483398,48.570880421875,19.601620995483398C48.570880421875,19.601620995483398,48.570880421875,19.601620995483398,48.570880421875,19.601620995483398Z" fill="#000000" fill-opacity="1"/></g><g><path d="M29.4111070111084,37.42384719848633C27.1570670111084,37.42389118878633,25.5326470111084,38.673257198486326,24.5848070111084,40.03624719848633C24.1113980111084,40.71700719848633,23.795181011108397,41.44094719848633,23.6486140111084,42.081097198486326C23.575362411108397,42.40103719848633,23.5417623111084,42.71194719848633,23.558589971108397,42.99332719848633C23.5750863111084,43.269157198486326,23.642426311108398,43.55306719848633,23.8058180111084,43.78297719848633C23.947546011108397,43.98240719848633,24.128294011108398,44.130257198486326,24.3474290111084,44.21625719848633C24.5609770111084,44.30005719848633,24.7809470111084,44.313387198486325,24.9872870111084,44.29441719848633C25.3801470111084,44.25830719848633,25.821147011108398,44.09223719848633,26.244937011108398,43.92774719848633C26.290647011108398,43.910007198486326,26.336717011108398,43.89204719848633,26.383177011108398,43.87394719848633C27.243167011108397,43.53874719848633,28.232187011108397,43.153267198486326,29.4048370111084,43.16900719848633C30.636177011108398,43.18552719848633,31.525167011108397,43.533327198486326,32.260037011108395,43.820817198486324C32.2711770111084,43.82517719848633,32.2822770111084,43.82951719848633,32.2933370111084,43.833847198486325L32.297017011108395,43.83528719848633C32.653107011108396,43.97454719848633,33.023337011108396,44.11933719848633,33.3679670111084,44.16683719848633C33.7467270111084,44.21904719848633,34.1293270111084,44.159757198486325,34.4773270111084,43.874817198486326C34.7117270111084,43.68287719848633,34.8194270111084,43.40021719848633,34.865427011108395,43.14029719848633C34.9128270111084,42.87242719848633,34.906127011108396,42.568157198486325,34.8600270111084,42.254337198486326C34.7676270111084,41.62498719848633,34.5062270111084,40.887147198486325,34.082927011108396,40.18351719848633C33.235367011108394,38.774687198486326,31.684047011108397,37.42380282008633,29.4111070111084,37.42384719848633Z" fill-rule="evenodd" fill="#000000" fill-opacity="1"/></g></g></svg>