<svg xmlns="http://www.w3.org/2000/svg" xmlns:xlink="http://www.w3.org/1999/xlink" fill="none" version="1.1" width="36.54449462890625" height="55.252166748046875" viewBox="0 0 36.54449462890625 55.252166748046875"><g><g><path d="M9.853827476501465,50.07525651855469C9.853827476501465,50.07525651855469,9.853827476501465,39.98605651855469,9.853827476501465,39.98605651855469C9.853827476501465,39.87559961855469,9.943371176501465,39.78605651855469,10.053828476501465,39.78605651855469C10.053828476501465,39.78605651855469,26.490727476501466,39.78605651855469,26.490727476501466,39.78605651855469C26.601127476501464,39.78605651855469,26.690727476501465,39.87559891855469,26.690727476501465,39.986055518554686C26.690727476501465,39.986055518554686,26.690727476501465,50.07525651855469,26.690727476501465,50.07525651855469C26.690727476501465,50.07525651855469,21.217527476501466,54.63625651855469,21.217527476501466,54.63625651855469C21.127627476501466,54.71115651855469,21.014327476501464,54.752156518554685,20.897427476501463,54.752156518554685C20.897427476501463,54.752156518554685,15.647147476501464,54.752156518554685,15.647147476501464,54.752156518554685C15.530177476501464,54.752156518554685,15.416907476501464,54.71115651855469,15.327057476501466,54.63625651855469C15.327057476501466,54.63625651855469,9.853827476501465,50.07525651855469,9.853827476501465,50.07525651855469C9.853827476501465,50.07525651855469,9.853827476501465,50.07525651855469,9.853827476501465,50.07525651855469Z" fill="#FFFFFF" fill-opacity="1"/><path d="M15.006907476501464,55.020356518554685L15.006967476501465,55.020356518554685Q15.285057476501464,55.252156518554685,15.647147476501464,55.252156518554685L20.897427476501463,55.252156518554685Q21.259427476501465,55.252156518554685,21.537627476501463,55.020356518554685L27.190727476501465,50.30945651855469L27.190727476501465,39.986055518554686Q27.190727476501465,39.28605651855469,26.490727476501466,39.28605651855469L10.053828476501465,39.28605651855469Q9.353827476501465,39.28605651855469,9.353827476501465,39.98605651855469L9.353827476501465,50.30945651855469L15.006907476501464,55.020356518554685ZM20.897427476501463,54.252156518554685L15.647147476501464,54.252156518554685L10.353827476501465,49.84105651855469L10.353827476501465,40.28605651855469L26.190727476501465,40.28605651855469L26.190727476501465,49.84105651855469L20.897427476501463,54.252156518554685Z" fill-rule="evenodd" fill="#000000" fill-opacity="1"/></g><g><path d="M0.5,17.3369C0.5,25.7553,6.11229,31.3676,9.85347,36.0445C9.85347,36.0445,9.85347,39.786,9.85347,39.786C9.85347,39.786,26.6907,39.786,26.6907,39.786C26.6907,39.786,26.6907,36.0445,26.6907,36.0445C30.1841,31.3676,36.0445,25.7553,36.0445,17.3369C36.0445,8.91844,28.5615,0.5,18.5206,0.5C8.47975,0.5,0.5,8.91844,0.5,17.3369C0.5,17.3369,0.5,17.3369,0.5,17.3369Z" fill="#FFEF32" fill-opacity="1"/><path d="M31.4032,5.40973Q26.0467,0,18.5206,9.999999999732445e-7Q10.9589,0,5.3966,5.40287Q0,10.6448,-0.0000029999999999752447,17.3369Q0,22.3596,2.67734,27.2076Q4.2318999999999996,30.0225,8.03703,34.616Q8.90071,35.6586,9.35347,36.2204L9.35347,40.286L27.1907,40.286L27.1907,36.2115Q27.7734,35.4407,28.9771,33.9441Q32.56,29.4891,34.0235,26.7784Q36.5445,22.109,36.5445,17.3369Q36.5445,10.6021,31.4032,5.40973ZM6.09336,6.12018Q11.3646,1,18.5206,1Q25.6296,1,30.6926,6.11333Q35.5445,11.0134,35.5445,17.3369Q35.5445,21.8563,33.1435,26.3033Q31.7234,28.9336,28.1979,33.3174Q26.8751,34.9621,26.2901,35.7453L26.1907,35.8784L26.1907,39.286L10.35347,39.286L10.35347,35.8691L10.24392,35.7322Q9.78716,35.1612,8.80713,33.9781Q5.06189,29.4569,3.55273,26.7242Q1,22.1018,0.999997,17.3369Q0.999995,11.0676,6.09336,6.12018Z" fill-rule="evenodd" fill="#000000" fill-opacity="1"/></g><g><path d="M12.254905042724609,14.93578499786377C11.96201204272461,14.64289179786377,11.48713804272461,14.64289179786377,11.19424504272461,14.93578499786377C10.90135184272461,15.22867799786377,10.90135184272461,15.70355199786377,11.19424504272461,15.996444997863769C11.19424504272461,15.996444997863769,12.254905042724609,14.93578499786377,12.254905042724609,14.93578499786377C12.254905042724609,14.93578499786377,12.254905042724609,14.93578499786377,12.254905042724609,14.93578499786377ZM25.35027504272461,15.996444997863769C25.643175042724607,15.70355199786377,25.643175042724607,15.22867799786377,25.35027504272461,14.93578499786377C25.05737504272461,14.64289179786377,24.58247504272461,14.64289179786377,24.289575042724607,14.93578499786377C24.289575042724607,14.93578499786377,25.35027504272461,15.996444997863769,25.35027504272461,15.996444997863769C25.35027504272461,15.996444997863769,25.35027504272461,15.996444997863769,25.35027504272461,15.996444997863769ZM17.52224504272461,36.97991499786377C17.52224504272461,37.39411499786377,17.85803504272461,37.72991499786377,18.27224504272461,37.72991499786377C18.68646504272461,37.72991499786377,19.02224504272461,37.39411499786377,19.02224504272461,36.97991499786377C19.02224504272461,36.97991499786377,17.52224504272461,36.97991499786377,17.52224504272461,36.97991499786377C17.52224504272461,36.97991499786377,17.52224504272461,36.97991499786377,17.52224504272461,36.97991499786377ZM11.19424504272461,15.996444997863769C11.19424504272461,15.996444997863769,17.74191504272461,22.54411499786377,17.74191504272461,22.54411499786377C17.74191504272461,22.54411499786377,18.80257504272461,21.48345499786377,18.80257504272461,21.48345499786377C18.80257504272461,21.48345499786377,12.254905042724609,14.93578499786377,12.254905042724609,14.93578499786377C12.254905042724609,14.93578499786377,11.19424504272461,15.996444997863769,11.19424504272461,15.996444997863769C11.19424504272461,15.996444997863769,11.19424504272461,15.996444997863769,11.19424504272461,15.996444997863769ZM18.80257504272461,22.54411499786377C18.80257504272461,22.54411499786377,25.35027504272461,15.996444997863769,25.35027504272461,15.996444997863769C25.35027504272461,15.996444997863769,24.289575042724607,14.93578499786377,24.289575042724607,14.93578499786377C24.289575042724607,14.93578499786377,17.74191504272461,21.48345499786377,17.74191504272461,21.48345499786377C17.74191504272461,21.48345499786377,18.80257504272461,22.54411499786377,18.80257504272461,22.54411499786377C18.80257504272461,22.54411499786377,18.80257504272461,22.54411499786377,18.80257504272461,22.54411499786377ZM17.52224504272461,22.01378499786377C17.52224504272461,22.01378499786377,17.52224504272461,36.97991499786377,17.52224504272461,36.97991499786377C17.52224504272461,36.97991499786377,19.02224504272461,36.97991499786377,19.02224504272461,36.97991499786377C19.02224504272461,36.97991499786377,19.02224504272461,22.01378499786377,19.02224504272461,22.01378499786377C19.02224504272461,22.01378499786377,17.52224504272461,22.01378499786377,17.52224504272461,22.01378499786377C17.52224504272461,22.01378499786377,17.52224504272461,22.01378499786377,17.52224504272461,22.01378499786377Z" fill="#F4B321" fill-opacity="1"/></g><g><path d="M6.896058836395263,45.85726300415039C6.632916136395264,45.94099300415039,6.487471136395263,46.22218300415039,6.571198136395264,46.48533300415039C6.6549248363952636,46.74847300415039,6.936119836395264,46.89391300415039,7.199262836395263,46.81019300415039C7.199262836395263,46.81019300415039,6.896058836395263,45.85726300415039,6.896058836395263,45.85726300415039C6.896058836395263,45.85726300415039,6.896058836395263,45.85726300415039,6.896058836395263,45.85726300415039ZM27.777626836395264,40.26252000415039C28.040826836395265,40.17879300415039,28.186226836395264,39.89759800415039,28.102526836395263,39.63445500415039C28.018726836395263,39.37131230415039,27.737526836395265,39.22586730415039,27.474426836395264,39.30959430415039C27.474426836395264,39.30959430415039,27.777626836395264,40.26252000415039,27.777626836395264,40.26252000415039C27.777626836395264,40.26252000415039,27.777626836395264,40.26252000415039,27.777626836395264,40.26252000415039ZM7.199262836395263,46.81019300415039C7.199262836395263,46.81019300415039,27.777626836395264,40.26252000415039,27.777626836395264,40.26252000415039C27.777626836395264,40.26252000415039,27.474426836395264,39.30959430415039,27.474426836395264,39.30959430415039C27.474426836395264,39.30959430415039,6.896058836395263,45.85726300415039,6.896058836395263,45.85726300415039C6.896058836395263,45.85726300415039,7.199262836395263,46.81019300415039,7.199262836395263,46.81019300415039C7.199262836395263,46.81019300415039,7.199262836395263,46.81019300415039,7.199262836395263,46.81019300415039Z" fill="#000000" fill-opacity="1"/></g><g><path d="M6.896058836395263,49.59877911743164C6.632916136395264,49.68250911743164,6.487471136395263,49.96369911743164,6.571198136395264,50.22684911743164C6.6549248363952636,50.48998911743164,6.936119836395264,50.63542911743164,7.199262836395263,50.55170911743164C7.199262836395263,50.55170911743164,6.896058836395263,49.59877911743164,6.896058836395263,49.59877911743164C6.896058836395263,49.59877911743164,6.896058836395263,49.59877911743164,6.896058836395263,49.59877911743164ZM27.777626836395264,44.00403611743164C28.040826836395265,43.92030911743164,28.186226836395264,43.63911411743164,28.102526836395263,43.37597111743164C28.018726836395263,43.11282841743164,27.737526836395265,42.96738341743164,27.474426836395264,43.05111041743164C27.474426836395264,43.05111041743164,27.777626836395264,44.00403611743164,27.777626836395264,44.00403611743164C27.777626836395264,44.00403611743164,27.777626836395264,44.00403611743164,27.777626836395264,44.00403611743164ZM7.199262836395263,50.55170911743164C7.199262836395263,50.55170911743164,27.777626836395264,44.00403611743164,27.777626836395264,44.00403611743164C27.777626836395264,44.00403611743164,27.474426836395264,43.05111041743164,27.474426836395264,43.05111041743164C27.474426836395264,43.05111041743164,6.896058836395263,49.59877911743164,6.896058836395263,49.59877911743164C6.896058836395263,49.59877911743164,7.199262836395263,50.55170911743164,7.199262836395263,50.55170911743164C7.199262836395263,50.55170911743164,7.199262836395263,50.55170911743164,7.199262836395263,50.55170911743164Z" fill="#000000" fill-opacity="1"/></g></g></svg>