<svg xmlns="http://www.w3.org/2000/svg" xmlns:xlink="http://www.w3.org/1999/xlink" fill="none" version="1.1" width="57.1229248046875" height="57.1229248046875" viewBox="0 0 57.1229248046875 57.1229248046875"><defs><filter id="master_svg0_0_695" filterUnits="objectBoundingBox" color-interpolation-filters="sRGB" x="-1" y="-1" width="7.612292289733887" height="5.741528034210205"><feFlood flood-opacity="0" result="BackgroundImageFix"/><feBlend mode="normal" in="SourceGraphic" in2="BackgroundImageFix" result="shape"/><feGaussianBlur stdDeviation="0.25" result="effect1_foregroundBlur"/></filter><filter id="master_svg1_0_696" filterUnits="objectBoundingBox" color-interpolation-filters="sRGB" x="-1" y="-1" width="7.612292289733887" height="5.741528034210205"><feFlood flood-opacity="0" result="BackgroundImageFix"/><feBlend mode="normal" in="SourceGraphic" in2="BackgroundImageFix" result="shape"/><feGaussianBlur stdDeviation="0.25" result="effect1_foregroundBlur"/></filter></defs><g><g><path d="M28.5615,56.6229Q29.2503,56.6229,29.9384,56.5891Q30.6264,56.5553,31.312,56.4878Q31.9975,56.4203,32.6789,56.3192Q33.3603,56.2181,34.036,56.0837Q34.7116,55.9493,35.3798,55.7819Q36.0481,55.6146,36.7073,55.4146Q37.3665,55.2146,38.0151,54.9826Q38.6637,54.7505,39.3001,54.4869Q39.9365,54.2232,40.5593,53.9287Q41.182,53.6342,41.7895,53.3095Q42.3971,52.9847,42.9879,52.6306Q43.5788,52.2764,44.1516,51.8937Q44.7243,51.511,45.2776,51.1006Q45.831,50.6903,46.3635,50.2533Q46.896,49.8162,47.4064,49.3536Q47.9168,48.891,48.4039,48.4039Q48.891,47.9168,49.3536,47.4064Q49.8162,46.896,50.2533,46.3635Q50.6903,45.831,51.1006,45.2776Q51.511,44.7243,51.8937,44.1516Q52.2764,43.5788,52.6306,42.9879Q52.9847,42.3971,53.3095,41.7895Q53.6342,41.182,53.9287,40.5593Q54.2232,39.9365,54.4869,39.3001Q54.7505,38.6637,54.9826,38.0151Q55.2146,37.3665,55.4146,36.7073Q55.6146,36.0481,55.782,35.3798Q55.9493,34.7116,56.0837,34.036Q56.2181,33.3603,56.3192,32.6789Q56.4203,31.9975,56.4878,31.312Q56.5553,30.6264,56.5891,29.9384Q56.6229,29.2503,56.6229,28.5615Q56.6229,27.8726,56.5891,27.1846Q56.5553,26.4965,56.4878,25.811Q56.4203,25.1254,56.3192,24.444Q56.2181,23.7626,56.0837,23.0869Q55.9493,22.4113,55.7819,21.7431Q55.6146,21.0749,55.4146,20.4156Q55.2146,19.7564,54.9826,19.1078Q54.7505,18.4592,54.4869,17.8228Q54.2232,17.1864,53.9287,16.5636Q53.6342,15.9409,53.3095,15.3334Q52.9847,14.7259,52.6306,14.135Q52.2764,13.5441,51.8937,12.9713Q51.511,12.3986,51.1006,11.8453Q50.6903,11.292,50.2533,10.7595Q49.8162,10.22695,49.3536,9.71654Q48.891,9.20612,48.4039,8.71901Q47.9168,8.23191,47.4064,7.76929Q46.896,7.30667,46.3635,6.86966Q45.831,6.43264,45.2776,6.02228Q44.7243,5.61192,44.1516,5.22921Q43.5788,4.84649,42.9879,4.49234Q42.3971,4.13819,41.7895,3.81346Q41.182,3.48873,40.5593,3.1942Q39.9365,2.89967,39.3001,2.63605Q38.6637,2.37243,38.0151,2.1403600000000003Q37.3665,1.90829,36.7073,1.70832Q36.0481,1.50835,35.3798,1.340967Q34.7116,1.173585,34.036,1.039193Q33.3603,0.904801,32.6789,0.803723Q31.9975,0.702645,31.312,0.635124Q30.6264,0.5676025,29.9384,0.5338013Q29.2503,0.5,28.5615,0.5Q27.8726,0.5,27.1846,0.5338013Q26.4965,0.5676025,25.811,0.635124Q25.1254,0.702645,24.444,0.803723Q23.7626,0.904801,23.0869,1.039193Q22.4113,1.173585,21.7431,1.340967Q21.0749,1.50835,20.4156,1.70832Q19.7564,1.90829,19.1078,2.1403600000000003Q18.4592,2.37243,17.8228,2.63605Q17.1864,2.89967,16.5636,3.1942Q15.9409,3.48873,15.3334,3.81346Q14.7259,4.13819,14.135,4.49234Q13.5441,4.84649,12.9713,5.22921Q12.3986,5.61192,11.8453,6.02228Q11.292,6.43264,10.7595,6.86966Q10.22695,7.30667,9.71654,7.76929Q9.20612,8.23191,8.71901,8.71901Q8.23191,9.20612,7.76929,9.71654Q7.30667,10.22695,6.86966,10.7595Q6.43264,11.292,6.02228,11.8453Q5.61192,12.3986,5.22921,12.9713Q4.84649,13.5441,4.49234,14.135Q4.13819,14.7259,3.81346,15.3334Q3.48873,15.9409,3.1942,16.5636Q2.89967,17.1864,2.63605,17.8228Q2.37243,18.4592,2.1403600000000003,19.1078Q1.90829,19.7564,1.70832,20.4156Q1.50835,21.0749,1.340967,21.7431Q1.173585,22.4113,1.039193,23.0869Q0.904801,23.7626,0.803723,24.444Q0.702645,25.1254,0.635124,25.811Q0.5676025,26.4965,0.5338013,27.1846Q0.5,27.8726,0.5,28.5615Q0.4999999999999988,29.6907,0.5907328000000001,30.8162Q0.681466,31.9418,0.8623449999999999,33.0564Q1.043224,34.171,1.313079,35.2675Q1.58293,36.364,1.94002,37.4353Q2.29711,38.5065,2.73912,39.5456Q3.18112,40.5847,3.7052,41.585Q4.22927,42.5852,4.83202,43.5401Q5.43476,44.495,6.11229,45.3983L4.24155,53.8168L12.0151,51.2256Q12.9088,51.8781,13.8512,52.4582Q14.7935,53.0383,15.7786,53.5424Q16.7637,54.0464,17.7855,54.4714Q18.8072,54.8963,19.8593,55.2395Q20.9113,55.5827,21.9871,55.8419Q23.0629,56.1012,24.1557,56.2749Q25.2486,56.4486,26.3517,56.5358Q27.4549,56.6229,28.5615,56.6229Z" fill-rule="evenodd" fill="#FFCF00" fill-opacity="1"/><path d="M28.5615,56.1229Q33.8186,56.1229,38.7067,54.1878Q44.014,52.0867,48.0504,48.0504Q52.0867,44.0141,54.1878,38.7067Q56.1229,33.8186,56.1229,28.5615Q56.1229,23.3043,54.1878,18.4162Q52.0867,13.1089,48.0504,9.07257Q44.0141,5.03629,38.7067,2.93514Q33.8186,1,28.5615,1Q23.3043,1,18.4162,2.93514Q13.1088,5.03628,9.07257,9.07257Q5.03629,13.1089,2.93514,18.4162Q1,23.3043,1,28.5615Q1,37.7486,6.51229,45.0983L6.65027,45.2823L4.72964,53.9252L4.24155,53.8168L4.08343,53.3424L12.1016,50.6697L12.3099,50.8218Q19.571,56.123,28.5615,56.1229ZM28.5615,57.1229Q19.2449,57.1229,11.7203,51.6294L12.0151,51.2256L12.1732,51.6999L3.56189,54.5704L5.62419,45.2899L6.11229,45.3983L5.71229,45.6983Q0,38.082,0,28.5615Q0,23.1135,2.00535,18.0481Q4.18272,12.5482,8.365459999999999,8.365459999999999Q12.5482,4.182729999999999,18.0481,2.00535Q23.1136,0,28.5615,0Q34.0094,0,39.0748,2.00535Q44.5747,4.182729999999999,48.7575,8.365459999999999Q52.9402,12.5483,55.1176,18.0481Q57.1229,23.1136,57.1229,28.5615Q57.1229,34.0093,55.1176,39.0748Q52.9402,44.5747,48.7575,48.7575Q44.5747,52.9402,39.0748,55.1176Q34.0093,57.1229,28.5615,57.1229Z" fill="#000000" fill-opacity="1"/></g><g filter="url(#master_svg0_0_695)"><ellipse cx="10.789224624633789" cy="32.302990198135376" rx="2.8061461448669434" ry="1.8707640171051025" fill="#FF8B72" fill-opacity="1"/></g><g transform="matrix(1,0,0,-1,0,68.34750366210938)" filter="url(#master_svg1_0_696)"><ellipse cx="46.33369970321655" cy="36.04451584815979" rx="2.8061461448669434" ry="1.8707640171051025" fill="#FF8B72" fill-opacity="1"/></g><g transform="matrix(0.9675438404083252,0.2527032196521759,-0.2527032196521759,0.9675438404083252,4.134182315432895,-9.715764203689787)"><path d="M40.11169830029297,11.888754639404297C39.91410620029297,11.987550639404297,39.83401620029297,12.227819639404297,39.93281220029297,12.425411639404297C40.031608300292966,12.623001639404297,40.27187730029297,12.703091639404297,40.46946830029297,12.604301639404296C40.46946830029297,12.604301639404296,40.11169830029297,11.888754639404297,40.11169830029297,11.888754639404297C40.11169830029297,11.888754639404297,40.11169830029297,11.888754639404297,40.11169830029297,11.888754639404297ZM46.55541530029297,13.464751639404296C46.711625300292965,13.620961639404296,46.964895300292966,13.620961639404296,47.12110530029297,13.464751639404296C47.27731530029297,13.308541639404297,47.27731530029297,13.055271639404296,47.12110530029297,12.899061639404296C47.12110530029297,12.899061639404296,46.55541530029297,13.464751639404296,46.55541530029297,13.464751639404296C46.55541530029297,13.464751639404296,46.55541530029297,13.464751639404296,46.55541530029297,13.464751639404296ZM40.46946830029297,12.604301639404296C41.04054530029297,12.318761639404297,42.05163530029297,12.009086639404297,43.179885300292966,12.038391639404297C44.29876530029297,12.067453639404297,45.51899530029297,12.428331639404297,46.55541530029297,13.464751639404296C46.55541530029297,13.464751639404296,47.12110530029297,12.899061639404296,47.12110530029297,12.899061639404296C45.91260530029297,11.690568639404297,44.48258530029297,11.271958739404297,43.20065530029297,11.238661729404297C41.928095300292966,11.205608739404298,40.78779830029297,11.550704639404296,40.11169830029297,11.888754639404297C40.11169830029297,11.888754639404297,40.46946830029297,12.604301639404296,40.46946830029297,12.604301639404296C40.46946830029297,12.604301639404296,40.46946830029297,12.604301639404296,40.46946830029297,12.604301639404296Z" fill="#000000" fill-opacity="1"/></g><g transform="matrix(-0.9813539385795593,0.19220954179763794,0.192209392786026,0.9813539385795593,33.35696554075662,-3.2359324987905893)"><path d="M18.715723171875,17.32652944873047C18.510921071875,17.40934944873047,18.412035071875,17.64251344873047,18.494856071875,17.847317448730468C18.577676171875,18.05211744873047,18.810839171875,18.151007448730468,19.015641171875,18.06818744873047C19.015641171875,18.06818744873047,18.715723171875,17.32652944873047,18.715723171875,17.32652944873047C18.715723171875,17.32652944873047,18.715723171875,17.32652944873047,18.715723171875,17.32652944873047ZM25.161816171875,18.76488744873047C25.333586171874998,18.90380744873047,25.585446171875,18.877187448730467,25.724366171875,18.70541744873047C25.863296171875,18.53364744873047,25.836666171875,18.28178744873047,25.664896171875,18.14286744873047C25.664896171875,18.14286744873047,25.161816171875,18.76488744873047,25.161816171875,18.76488744873047C25.161816171875,18.76488744873047,25.161816171875,18.76488744873047,25.161816171875,18.76488744873047ZM19.015641171875,18.06818744873047C19.592246171875,17.83500744873047,20.614206171875,17.581522448730468,21.756966171875,17.605528448730468C22.896336171875,17.62946344873047,24.127086171875,17.92801744873047,25.161816171875,18.76488744873047C25.161816171875,18.76488744873047,25.664896171875,18.14286744873047,25.664896171875,18.14286744873047C24.454716171875,17.164091448730467,23.035226171875,16.83220474873047,21.773776171875,16.80570571873047C20.515716171875,16.779276748730467,19.386293171875,17.055356448730468,18.715723171875,17.32652944873047C18.715723171875,17.32652944873047,19.015641171875,18.06818744873047,19.015641171875,18.06818744873047C19.015641171875,18.06818744873047,19.015641171875,18.06818744873047,19.015641171875,18.06818744873047Z" fill="#000000" fill-opacity="1"/></g><g><path d="M29.216870175170897,48.16575183105469C19.8630301751709,48.16575183105469,13.315350175170899,37.876531831054685,16.1215011751709,35.07039083105469C18.9276501751709,32.26424183105469,24.7270201751709,36.94115183105469,29.216870175170897,36.94115183105469C33.7066701751709,36.94115183105469,39.5060701751709,32.26432183105469,42.3121701751709,35.07039083105469C45.118370175170895,37.87646183105469,38.5706701751709,48.16575183105469,29.216870175170897,48.16575183105469C29.216870175170897,48.16575183105469,29.216870175170897,48.16575183105469,29.216870175170897,48.16575183105469Z" fill="#000000" fill-opacity="1"/></g><g><g><path d="M21.07840347290039,40.41527929902077C21.07840347290039,39.03456929902077,22.19769347290039,37.91527929902077,23.57840347290039,37.91527929902077C23.57840347290039,37.91527929902077,35.41530347290039,37.91527929902077,35.41530347290039,37.91527929902077C36.79600347290039,37.91527929902077,37.91530347290039,39.03456929902077,37.91530347290039,40.41527929902077C37.91530347290039,40.41527929902077,37.91530347290039,51.62287929902077,37.91530347290039,51.62287929902077C37.91530347290039,54.384379299020765,35.67670347290039,56.62287929902077,32.91530347290039,56.62287929902077C32.91530347290039,56.62287929902077,26.07840347290039,56.62287929902077,26.07840347290039,56.62287929902077C23.31698347290039,56.62287929902077,21.07840347290039,54.384379299020765,21.07840347290039,51.62287929902077C21.07840347290039,51.62287929902077,21.07840347290039,40.41527929902077,21.07840347290039,40.41527929902077C21.07840347290039,40.41527929902077,21.07840347290039,40.41527929902077,21.07840347290039,40.41527929902077Z" fill="#D50B00" fill-opacity="1"/><path d="M20.57840347290039,40.41527929902077L20.57840347290039,51.62287929902077Q20.57840347290039,53.901079299020765,22.18932347290039,55.511979299020766Q23.80022347290039,57.12287929902077,26.07840347290039,57.12287929902077L32.91530347290039,57.12287929902077Q35.19350347290039,57.12287929902077,36.80440347290039,55.511979299020766Q38.41530347290039,53.901079299020765,38.41530347290039,51.62287929902077L38.41530347290039,40.41527929902077Q38.41530347290039,39.172639299020766,37.536603472900396,38.29395929902077Q36.65790347290039,37.41527929902077,35.41530347290039,37.41527929902077L23.57840347290039,37.41527929902077Q22.33576347290039,37.41527929902077,21.45708347290039,38.29395929902077Q20.57840347290039,39.172639299020766,20.57840347290039,40.41527929902077ZM22.89642347290039,54.80487929902077Q21.57840347290039,53.48687929902077,21.57840347290039,51.62287929902077L21.57840347290039,40.41527929902077Q21.57840347290039,39.58684929902077,22.16419347290039,39.00106929902077Q22.74997347290039,38.41527929902077,23.57840347290039,38.41527929902077L35.41530347290039,38.41527929902077Q36.24370347290039,38.41527929902077,36.82950347290039,39.00106929902077Q37.41530347290039,39.586859299020766,37.41530347290039,40.41527929902077L37.41530347290039,51.62287929902077Q37.41530347290039,53.48687929902077,36.09730347290039,54.80487929902077Q34.779303472900395,56.12287929902077,32.91530347290039,56.12287929902077L26.07840347290039,56.12287929902077Q24.21443347290039,56.12287929902077,22.89642347290039,54.80487929902077Z" fill-rule="evenodd" fill="#000000" fill-opacity="1"/></g><g><path d="M29.99687957763672,37.915283203125C29.99687957763672,37.639141203125,29.77302157763672,37.415283203125,29.49687957763672,37.415283203125C29.22073757763672,37.415283203125,28.99687957763672,37.639141203125,28.99687957763672,37.915283203125C28.99687957763672,37.915283203125,29.99687957763672,37.915283203125,29.99687957763672,37.915283203125C29.99687957763672,37.915283203125,29.99687957763672,37.915283203125,29.99687957763672,37.915283203125ZM28.99687957763672,45.398343203125C28.99687957763672,45.674483203125,29.22073757763672,45.898343203125,29.49687957763672,45.898343203125C29.77302157763672,45.898343203125,29.99687957763672,45.674483203125,29.99687957763672,45.398343203125C29.99687957763672,45.398343203125,28.99687957763672,45.398343203125,28.99687957763672,45.398343203125C28.99687957763672,45.398343203125,28.99687957763672,45.398343203125,28.99687957763672,45.398343203125ZM28.99687957763672,37.915283203125C28.99687957763672,37.915283203125,28.99687957763672,45.398343203125,28.99687957763672,45.398343203125C28.99687957763672,45.398343203125,29.99687957763672,45.398343203125,29.99687957763672,45.398343203125C29.99687957763672,45.398343203125,29.99687957763672,37.915283203125,29.99687957763672,37.915283203125C29.99687957763672,37.915283203125,28.99687957763672,37.915283203125,28.99687957763672,37.915283203125C28.99687957763672,37.915283203125,28.99687957763672,37.915283203125,28.99687957763672,37.915283203125Z" fill="#000000" fill-opacity="1"/></g></g><g><path d="M11.924557413195801,26.543608223266602C11.843323413195801,26.949778223266602,12.106735213195801,27.3448982232666,12.5129052131958,27.4261382232666C12.919078213195801,27.507368223266603,13.314198213195802,27.243958223266603,13.395428213195801,26.8377882232666C13.395428213195801,26.8377882232666,11.924557413195801,26.543608223266602,11.924557413195801,26.543608223266602C11.924557413195801,26.543608223266602,11.924557413195801,26.543608223266602,11.924557413195801,26.543608223266602ZM21.2783682131958,26.8377882232666C21.3596082131958,27.243958223266603,21.7547282131958,27.507368223266603,22.1609482131958,27.4261382232666C22.5670482131958,27.3448982232666,22.8304482131958,26.949778223266602,22.7492482131958,26.543608223266602C22.7492482131958,26.543608223266602,21.2783682131958,26.8377882232666,21.2783682131958,26.8377882232666C21.2783682131958,26.8377882232666,21.2783682131958,26.8377882232666,21.2783682131958,26.8377882232666ZM12.659992213195801,26.6906982232666C13.395428213195801,26.8377882232666,13.395378213195801,26.8380482232666,13.3953282131958,26.838288223266602C13.3953182131958,26.838338223266604,13.3952682131958,26.838568223266602,13.395248213195801,26.8386782232666C13.395198213195801,26.8389082232666,13.3951682131958,26.8390682232666,13.395148213195801,26.8391582232666C13.3951182131958,26.8393382232666,13.3951382131958,26.8392482232666,13.3952082131958,26.8388782232666C13.3953582131958,26.8381482232666,13.3957382131958,26.8363282232666,13.3963482131958,26.833458223266604C13.3975682131958,26.8277282232666,13.3997182131958,26.8177982232666,13.4028582131958,26.8039682232666C13.409128213195801,26.7762882232666,13.419318213195801,26.733068223266603,13.433858213195801,26.6765182232666C13.4629882131958,26.5632582232666,13.509298213195802,26.397568223266603,13.576118213195802,26.1970982232666C13.7106382131958,25.7935382232666,13.923808213195802,25.2625882232666,14.2384882131958,24.738118223266603C14.872248213195801,23.6818582232666,15.838898213195801,22.7637882232666,17.336898213195802,22.7637882232666C17.336898213195802,22.7637882232666,17.336898213195802,21.2637882232666,17.336898213195802,21.2637882232666C15.0933682131958,21.2637882232666,13.7215682131958,22.684178223266603,12.952258213195801,23.966368223266603C12.565400213195801,24.6111282232666,12.310880213195802,25.249398223266603,12.1530942131958,25.722758223266602C12.073764213195801,25.960748223266602,12.0177682131958,26.160448223266602,11.9811224131958,26.3029582232666C11.962778413195801,26.3742982232666,11.949220413195802,26.431548223266603,11.9399654131958,26.472378223266603C11.9353364131958,26.4928082232666,11.931777413195801,26.509138223266604,11.9292314131958,26.5211082232666C11.9279574131958,26.527088223266603,11.9269364131958,26.531978223266602,11.926159413195801,26.535738223266602C11.9257714131958,26.537618223266602,11.9254444131958,26.5392182232666,11.9251774131958,26.5405382232666C11.9250444131958,26.5411882232666,11.924925413195801,26.5417782232666,11.9248224131958,26.542288223266603C11.924770413195802,26.5425482232666,11.924704413195801,26.5428782232666,11.924678413195801,26.5430082232666C11.9246154131958,26.543318223266603,11.924557413195801,26.543608223266602,12.659992213195801,26.6906982232666C12.659992213195801,26.6906982232666,12.659992213195801,26.6906982232666,12.659992213195801,26.6906982232666ZM17.336898213195802,22.7637882232666C18.8348982131958,22.7637882232666,19.8015482131958,23.6818582232666,20.435308213195803,24.738118223266603C20.7499882131958,25.2625882232666,20.9631582131958,25.7935382232666,21.0976782131958,26.1970982232666C21.164508213195802,26.397568223266603,21.2108182131958,26.5632582232666,21.2399382131958,26.6765182232666C21.254478213195803,26.733068223266603,21.2646682131958,26.7762882232666,21.2709482131958,26.8039682232666C21.2740782131958,26.8177982232666,21.2762282131958,26.8277282232666,21.2774482131958,26.833458223266604C21.2780582131958,26.8363282232666,21.2784382131958,26.8381482232666,21.278588213195803,26.8388782232666C21.2786682131958,26.8392482232666,21.2786882131958,26.8393382232666,21.2786482131958,26.8391582232666C21.278628213195802,26.8390682232666,21.2785982131958,26.8389082232666,21.2785482131958,26.8386782232666C21.2785282131958,26.838568223266602,21.2784882131958,26.838338223266604,21.2784682131958,26.838288223266602C21.278428213195802,26.8380482232666,21.2783682131958,26.8377882232666,22.0138482131958,26.6906982232666C22.7492482131958,26.543608223266602,22.749148213195802,26.543318223266603,22.7490482131958,26.5430082232666C22.7490482131958,26.5428782232666,22.748948213195803,26.5425482232666,22.748948213195803,26.542288223266603C22.7488482131958,26.5417782232666,22.748748213195803,26.5411882232666,22.7485482131958,26.5405382232666C22.7483482131958,26.5392182232666,22.7479482131958,26.537618223266602,22.747648213195802,26.535738223266602C22.7468482131958,26.531978223266602,22.7458482131958,26.527088223266603,22.7445482131958,26.5211082232666C22.7419482131958,26.509138223266604,22.738448213195802,26.4928082232666,22.733748213195803,26.472378223266603C22.724548213195803,26.431548223266603,22.7109482131958,26.3742982232666,22.692648213195802,26.3029582232666C22.656048213195803,26.160448223266602,22.6000482131958,25.960748223266602,22.5207482131958,25.722758223266602C22.3629482131958,25.249398223266603,22.1084482131958,24.6111282232666,21.721548213195803,23.966368223266603C20.952228213195802,22.684178223266603,19.580428213195802,21.2637882232666,17.336898213195802,21.2637882232666C17.336898213195802,21.2637882232666,17.336898213195802,22.7637882232666,17.336898213195802,22.7637882232666C17.336898213195802,22.7637882232666,17.336898213195802,22.7637882232666,17.336898213195802,22.7637882232666Z" fill="#000000" fill-opacity="1"/></g><g><ellipse cx="41.65678119659424" cy="24.819931983947754" rx="7.48305606842041" ry="7.48305606842041" fill="#FFFFFF" fill-opacity="1"/><ellipse cx="41.65678119659424" cy="24.819931983947754" rx="7.48305606842041" ry="7.48305606842041" fill-opacity="0" stroke-opacity="1" stroke="#000000" fill="none" stroke-width="0.6000000238418579"/></g><g><ellipse cx="41.65682053565979" cy="24.819931268692017" rx="1.8707640171051025" ry="1.8707640171051025" fill="#000000" fill-opacity="1"/></g></g></svg>