<svg xmlns="http://www.w3.org/2000/svg" xmlns:xlink="http://www.w3.org/1999/xlink" fill="none" version="1.1" width="57.1229248046875" height="57.1229248046875" viewBox="0 0 57.1229248046875 57.1229248046875"><defs><filter id="master_svg0_0_167" filterUnits="objectBoundingBox" color-interpolation-filters="sRGB" x="-2" y="-2" width="11.48305606842041" height="7.741528034210205"><feFlood flood-opacity="0" result="BackgroundImageFix"/><feBlend mode="normal" in="SourceGraphic" in2="BackgroundImageFix" result="shape"/><feGaussianBlur stdDeviation="0.5" result="effect1_foregroundBlur"/></filter><filter id="master_svg1_0_168" filterUnits="objectBoundingBox" color-interpolation-filters="sRGB" x="-2" y="-2" width="11.474996089935303" height="7.741528034210205"><feFlood flood-opacity="0" result="BackgroundImageFix"/><feBlend mode="normal" in="SourceGraphic" in2="BackgroundImageFix" result="shape"/><feGaussianBlur stdDeviation="0.5" result="effect1_foregroundBlur"/></filter></defs><g><g><path d="M28.5615,56.6229Q29.2503,56.6229,29.9384,56.5891Q30.6264,56.5553,31.312,56.4878Q31.9975,56.4203,32.6789,56.3192Q33.3603,56.2181,34.036,56.0837Q34.7116,55.9493,35.3798,55.7819Q36.0481,55.6146,36.7073,55.4146Q37.3665,55.2146,38.0151,54.9826Q38.6637,54.7505,39.3001,54.4869Q39.9365,54.2232,40.5593,53.9287Q41.182,53.6342,41.7895,53.3095Q42.3971,52.9847,42.9879,52.6306Q43.5788,52.2764,44.1516,51.8937Q44.7243,51.511,45.2776,51.1006Q45.831,50.6903,46.3635,50.2533Q46.896,49.8162,47.4064,49.3536Q47.9168,48.891,48.4039,48.4039Q48.891,47.9168,49.3536,47.4064Q49.8162,46.896,50.2533,46.3635Q50.6903,45.831,51.1006,45.2776Q51.511,44.7243,51.8937,44.1516Q52.2764,43.5788,52.6306,42.9879Q52.9847,42.3971,53.3095,41.7895Q53.6342,41.182,53.9287,40.5593Q54.2232,39.9365,54.4869,39.3001Q54.7505,38.6637,54.9826,38.0151Q55.2146,37.3665,55.4146,36.7073Q55.6146,36.0481,55.782,35.3798Q55.9493,34.7116,56.0837,34.036Q56.2181,33.3603,56.3192,32.6789Q56.4203,31.9975,56.4878,31.312Q56.5553,30.6264,56.5891,29.9384Q56.6229,29.2503,56.6229,28.5615Q56.6229,27.8726,56.5891,27.1846Q56.5553,26.4965,56.4878,25.811Q56.4203,25.1254,56.3192,24.444Q56.2181,23.7626,56.0837,23.0869Q55.9493,22.4113,55.7819,21.7431Q55.6146,21.0749,55.4146,20.4156Q55.2146,19.7564,54.9826,19.1078Q54.7505,18.4592,54.4869,17.8228Q54.2232,17.1864,53.9287,16.5636Q53.6342,15.9409,53.3095,15.3334Q52.9847,14.7259,52.6306,14.135Q52.2764,13.5441,51.8937,12.9713Q51.511,12.3986,51.1006,11.8453Q50.6903,11.292,50.2533,10.7595Q49.8162,10.22695,49.3536,9.71654Q48.891,9.20612,48.4039,8.71901Q47.9168,8.23191,47.4064,7.76929Q46.896,7.30667,46.3635,6.86966Q45.831,6.43264,45.2776,6.02228Q44.7243,5.61192,44.1516,5.22921Q43.5788,4.84649,42.9879,4.49234Q42.3971,4.13819,41.7895,3.81346Q41.182,3.48873,40.5593,3.1942Q39.9365,2.89967,39.3001,2.63605Q38.6637,2.37243,38.0151,2.1403600000000003Q37.3665,1.90829,36.7073,1.70832Q36.0481,1.50835,35.3798,1.340967Q34.7116,1.173585,34.036,1.039193Q33.3603,0.904801,32.6789,0.803723Q31.9975,0.702645,31.312,0.635124Q30.6264,0.5676025,29.9384,0.5338013Q29.2503,0.5,28.5615,0.5Q27.8726,0.5,27.1846,0.5338013Q26.4965,0.5676025,25.811,0.635124Q25.1254,0.702645,24.444,0.803723Q23.7626,0.904801,23.0869,1.039193Q22.4113,1.173585,21.7431,1.340967Q21.0749,1.50835,20.4156,1.70832Q19.7564,1.90829,19.1078,2.1403600000000003Q18.4592,2.37243,17.8228,2.63605Q17.1864,2.89967,16.5636,3.1942Q15.9409,3.48873,15.3334,3.81346Q14.7259,4.13819,14.135,4.49234Q13.5441,4.84649,12.9713,5.22921Q12.3986,5.61192,11.8453,6.02228Q11.292,6.43264,10.7595,6.86966Q10.22695,7.30667,9.71654,7.76929Q9.20612,8.23191,8.71901,8.71901Q8.23191,9.20612,7.76929,9.71654Q7.30667,10.22695,6.86966,10.7595Q6.43264,11.292,6.02228,11.8453Q5.61192,12.3986,5.22921,12.9713Q4.84649,13.5441,4.49234,14.135Q4.13819,14.7259,3.81346,15.3334Q3.48873,15.9409,3.1942,16.5636Q2.89967,17.1864,2.63605,17.8228Q2.37243,18.4592,2.1403600000000003,19.1078Q1.90829,19.7564,1.70832,20.4156Q1.50835,21.0749,1.340967,21.7431Q1.173585,22.4113,1.039193,23.0869Q0.904801,23.7626,0.803723,24.444Q0.702645,25.1254,0.635124,25.811Q0.5676025,26.4965,0.5338013,27.1846Q0.5,27.8726,0.5,28.5615Q0.5,29.6907,0.5907329,30.8162Q0.681466,31.9418,0.8623449999999999,33.0564Q1.043224,34.171,1.313079,35.2675Q1.58293,36.364,1.94002,37.4353Q2.29711,38.5065,2.73912,39.5456Q3.18113,40.5847,3.7052,41.585Q4.22927,42.5852,4.83202,43.5401Q5.43477,44.495,6.11229,45.3983L4.24153,53.8168L12.0151,51.2256Q12.9088,51.8781,13.8512,52.4582Q14.7935,53.0383,15.7786,53.5424Q16.7637,54.0464,17.7855,54.4714Q18.8072,54.8963,19.8592,55.2395Q20.9113,55.5827,21.9871,55.8419Q23.0629,56.1012,24.1557,56.2749Q25.2486,56.4486,26.3517,56.5358Q27.4549,56.6229,28.5615,56.6229Z" fill-rule="evenodd" fill="#FFCF00" fill-opacity="1"/><path d="M28.5615,56.1229Q33.8186,56.1229,38.7067,54.1878Q44.014,52.0867,48.0504,48.0504Q52.0867,44.0141,54.1878,38.7067Q56.1229,33.8186,56.1229,28.5615Q56.1229,23.3043,54.1878,18.4162Q52.0867,13.1089,48.0504,9.07257Q44.0141,5.03629,38.7067,2.93514Q33.8186,1,28.5615,1Q23.3043,1,18.4162,2.93514Q13.1088,5.03628,9.07257,9.07257Q5.03629,13.1089,2.93514,18.4162Q1,23.3043,1,28.5615Q1,37.7487,6.51229,45.0983L6.65027,45.2823L4.72963,53.9252L4.24153,53.8168L4.08342,53.3424L12.1016,50.6697L12.3099,50.8218Q19.571,56.123,28.5615,56.1229ZM28.5615,57.1229Q19.2449,57.1229,11.7203,51.6294L12.0151,51.2256L12.1732,51.6999L3.56187,54.5704L5.6242,45.2899L6.11229,45.3983L5.71229,45.6983Q0,38.082,0,28.5615Q0,23.1135,2.00535,18.0481Q4.18272,12.5482,8.365459999999999,8.365459999999999Q12.5482,4.182729999999999,18.0481,2.00535Q23.1136,0,28.5615,0Q34.0094,0,39.0748,2.00535Q44.5747,4.182729999999999,48.7575,8.365459999999999Q52.9402,12.5483,55.1176,18.0481Q57.1229,23.1136,57.1229,28.5615Q57.1229,34.0093,55.1176,39.0748Q52.9402,44.5747,48.7575,48.7575Q44.5747,52.9402,39.0748,55.1176Q34.0093,57.1229,28.5615,57.1229Z" fill="#000000" fill-opacity="1"/></g><g transform="matrix(0.9452683925628662,-0.32629382610321045,0.32629382610321045,0.9452683925628662,-10.392016979589243,3.7936433549286903)" filter="url(#master_svg0_0_167)"><ellipse cx="9.85381555557251" cy="34.74466919898987" rx="3.741528034210205" ry="1.8707640171051025" fill="#FF8B72" fill-opacity="1"/></g><g transform="matrix(-0.9452683925628662,-0.3262938857078552,-0.32629382610321045,0.9452683925628662,111.51870373242446,18.705835573324293)" filter="url(#master_svg1_0_168)"><ellipse cx="55.551966428756714" cy="34.74192261695862" rx="3.7374980449676514" ry="1.8707640171051025" fill="#FF8B72" fill-opacity="1"/></g><g transform="matrix(1,0,0,-1,0,58.62291717529297)"><path d="M35.30907794389648,33.65589858764648C35.22784394389648,34.062068587646486,35.49125574389648,34.457188587646485,35.897425743896484,34.53841858764648C36.30359874389649,34.619658587646484,36.698718743896485,34.35624858764648,36.77994874389648,33.95007858764649C36.77994874389648,33.95007858764649,35.30907794389648,33.65589858764648,35.30907794389648,33.65589858764648C35.30907794389648,33.65589858764648,35.30907794389648,33.65589858764648,35.30907794389648,33.65589858764648ZM42.792128743896484,33.95007858764649C42.87335874389648,34.35624858764648,43.26847874389648,34.619658587646484,43.67464874389648,34.53841858764648C44.08081874389649,34.457188587646485,44.34423874389648,34.062068587646486,44.26299874389648,33.65589858764648C44.26299874389648,33.65589858764648,42.792128743896484,33.95007858764649,42.792128743896484,33.95007858764649C42.792128743896484,33.95007858764649,42.792128743896484,33.95007858764649,42.792128743896484,33.95007858764649ZM36.04451274389648,33.80298858764648C36.77994874389648,33.95007858764649,36.77989874389648,33.950338587646485,36.77984874389649,33.950588587646486C36.77982874389649,33.950648587646484,36.77978874389648,33.950878587646486,36.77975874389649,33.951008587646484C36.779708743896485,33.95126858764648,36.77966874389649,33.95146858764649,36.779638743896484,33.951618587646486C36.77957874389649,33.951908587646486,36.77955874389649,33.95198858764648,36.77958874389648,33.951838587646485C36.77964874389649,33.95155858764649,36.779888743896485,33.950408587646486,36.780308743896484,33.94842858764648C36.78115874389648,33.94446858764648,36.78273874389649,33.93716858764648,36.78508874389649,33.92675858764648C36.78981874389648,33.90593858764648,36.79762874389648,33.87275858764649,36.808878743896486,33.82899858764648C36.83142874389648,33.74131858764648,36.86750874389649,33.61216858764649,36.91971874389648,33.45554858764648C37.025008743896485,33.13966858764648,37.19140874389648,32.725638587646486,37.435938743896486,32.31809858764648C37.929378743896486,31.495688587646484,38.662188743896486,30.811458587646484,39.78603874389648,30.811458587646484C39.78603874389648,30.811458587646484,39.78603874389648,29.311458587646484,39.78603874389648,29.311458587646484C37.916658743896484,29.311458587646484,36.77870874389649,30.497998587646485,36.14969874389649,31.546348587646484C35.832997743896485,32.07418858764648,35.62524774389649,32.59553858764649,35.496691743896484,32.98119858764648C35.431976743896485,33.17534858764648,35.386211943896484,33.338498587646484,35.35614294389649,33.45543858764648C35.341086943896485,33.51398858764649,35.32990494389649,33.561188587646484,35.32220194389649,33.595168587646484C35.31834894389648,33.61216858764649,35.315361943896484,33.62587858764648,35.313191943896484,33.63607858764649C35.31210694389648,33.641178587646486,35.311224943896484,33.64538858764649,35.31054194389648,33.64870858764648C35.310199943896485,33.65035858764649,35.309907943896484,33.651788587646486,35.30966394389648,33.65298858764648C35.309541943896484,33.65358858764648,35.309431943896485,33.654138587646486,35.30933394389648,33.65461858764648C35.309285943896484,33.65485858764649,35.309220943896484,33.65517858764648,35.30919694389648,33.655298587646485C35.309135943896486,33.65560858764648,35.30907794389648,33.65589858764648,36.04451274389648,33.80298858764648C36.04451274389648,33.80298858764648,36.04451274389648,33.80298858764648,36.04451274389648,33.80298858764648ZM39.78603874389648,30.811458587646484C40.909878743896485,30.811458587646484,41.642688743896485,31.495688587646484,42.13613874389648,32.31809858764648C42.380668743896486,32.725638587646486,42.54706874389648,33.13966858764648,42.652358743896485,33.45554858764648C42.70456874389649,33.61216858764649,42.740648743896486,33.74131858764648,42.76319874389648,33.82899858764648C42.774448743896485,33.87275858764649,42.78226874389648,33.90593858764648,42.78698874389649,33.92675858764648C42.78933874389649,33.93716858764648,42.79092874389649,33.94446858764648,42.79176874389648,33.94842858764648C42.79218874389648,33.950408587646486,42.79242874389649,33.95155858764649,42.792488743896484,33.951838587646485C42.79251874389649,33.95198858764648,42.79249874389649,33.951908587646486,42.79243874389648,33.951618587646486C42.79240874389649,33.95146858764649,42.79236874389648,33.95126858764648,42.79231874389649,33.951008587646484C42.792288743896485,33.950878587646486,42.79224874389649,33.950648587646484,42.79222874389649,33.950588587646486C42.792178743896486,33.950338587646485,42.792128743896484,33.95007858764649,43.52756874389648,33.80298858764648C44.26299874389648,33.65589858764648,44.262938743896484,33.65560858764648,44.262878743896486,33.655298587646485C44.26285874389649,33.65517858764648,44.262788743896486,33.65485858764649,44.26274874389648,33.65461858764648C44.262648743896484,33.654138587646486,44.262538743896485,33.65358858764648,44.26241874389648,33.65298858764648C44.26216874389648,33.651788587646486,44.26187874389649,33.65035858764649,44.26153874389648,33.64870858764648C44.26084874389649,33.64538858764649,44.259968743896486,33.641178587646486,44.258888743896485,33.63607858764649C44.256718743896485,33.62587858764648,44.25372874389649,33.61216858764649,44.24987874389649,33.595168587646484C44.242168743896485,33.561188587646484,44.23098874389648,33.51398858764649,44.21593874389649,33.45543858764648C44.185868743896485,33.338498587646484,44.14009874389649,33.17534858764648,44.07538874389648,32.98119858764648C43.94682874389648,32.59553858764649,43.739078743896485,32.07418858764648,43.42237874389649,31.546348587646484C42.79336874389649,30.497998587646485,41.65541874389648,29.311458587646484,39.78603874389648,29.311458587646484C39.78603874389648,29.311458587646484,39.78603874389648,30.811458587646484,39.78603874389648,30.811458587646484C39.78603874389648,30.811458587646484,39.78603874389648,30.811458587646484,39.78603874389648,30.811458587646484Z" fill="#000000" fill-opacity="1"/></g><g transform="matrix(1,0,0,-1,0,58.62291717529297)"><path d="M12.85991069230957,33.65589858764648C12.77867669230957,34.062068587646486,13.04208849230957,34.457188587646485,13.44825849230957,34.53841858764648C13.85443149230957,34.619658587646484,14.249551492309571,34.35624858764648,14.33078149230957,33.95007858764649C14.33078149230957,33.95007858764649,12.85991069230957,33.65589858764648,12.85991069230957,33.65589858764648C12.85991069230957,33.65589858764648,12.85991069230957,33.65589858764648,12.85991069230957,33.65589858764648ZM20.34296149230957,33.95007858764649C20.42419149230957,34.35624858764648,20.81931149230957,34.619658587646484,21.22548149230957,34.53841858764648C21.631651492309572,34.457188587646485,21.89507149230957,34.062068587646486,21.813831492309568,33.65589858764648C21.813831492309568,33.65589858764648,20.34296149230957,33.95007858764649,20.34296149230957,33.95007858764649C20.34296149230957,33.95007858764649,20.34296149230957,33.95007858764649,20.34296149230957,33.95007858764649ZM13.595345492309571,33.80298858764648C14.33078149230957,33.95007858764649,14.330731492309571,33.950338587646485,14.33068149230957,33.950588587646486C14.33066149230957,33.950648587646484,14.33062149230957,33.950878587646486,14.330591492309571,33.951008587646484C14.330541492309571,33.95126858764648,14.33050149230957,33.95146858764649,14.33047149230957,33.951618587646486C14.33041149230957,33.951908587646486,14.33039149230957,33.95198858764648,14.33042149230957,33.951838587646485C14.33048149230957,33.95155858764649,14.33072149230957,33.950408587646486,14.33114149230957,33.94842858764648C14.33199149230957,33.94446858764648,14.33357149230957,33.93716858764648,14.33592149230957,33.92675858764648C14.34065149230957,33.90593858764648,14.348461492309571,33.87275858764649,14.35971149230957,33.82899858764648C14.38226149230957,33.74131858764648,14.41834149230957,33.61216858764649,14.470551492309571,33.45554858764648C14.57584149230957,33.13966858764648,14.74224149230957,32.725638587646486,14.98677149230957,32.31809858764648C15.48021149230957,31.495688587646484,16.213021492309572,30.811458587646484,17.33687149230957,30.811458587646484C17.33687149230957,30.811458587646484,17.33687149230957,29.311458587646484,17.33687149230957,29.311458587646484C15.46749149230957,29.311458587646484,14.32954149230957,30.497998587646485,13.70053149230957,31.546348587646484C13.38383049230957,32.07418858764648,13.17608049230957,32.59553858764649,13.04752449230957,32.98119858764648C12.98280949230957,33.17534858764648,12.93704469230957,33.338498587646484,12.90697569230957,33.45543858764648C12.891919692309571,33.51398858764649,12.88073769230957,33.561188587646484,12.87303469230957,33.595168587646484C12.86918169230957,33.61216858764649,12.86619469230957,33.62587858764648,12.86402469230957,33.63607858764649C12.86293969230957,33.641178587646486,12.86205769230957,33.64538858764649,12.861374692309571,33.64870858764648C12.86103269230957,33.65035858764649,12.86074069230957,33.651788587646486,12.860496692309571,33.65298858764648C12.86037469230957,33.65358858764648,12.86026469230957,33.654138587646486,12.860166692309571,33.65461858764648C12.86011869230957,33.65485858764649,12.86005369230957,33.65517858764648,12.86002969230957,33.655298587646485C12.85996869230957,33.65560858764648,12.85991069230957,33.65589858764648,13.595345492309571,33.80298858764648C13.595345492309571,33.80298858764648,13.595345492309571,33.80298858764648,13.595345492309571,33.80298858764648ZM17.33687149230957,30.811458587646484C18.46071149230957,30.811458587646484,19.19352149230957,31.495688587646484,19.68697149230957,32.31809858764648C19.93150149230957,32.725638587646486,20.09790149230957,33.13966858764648,20.20319149230957,33.45554858764648C20.25540149230957,33.61216858764649,20.291481492309572,33.74131858764648,20.31403149230957,33.82899858764648C20.32528149230957,33.87275858764649,20.33310149230957,33.90593858764648,20.33782149230957,33.92675858764648C20.340171492309572,33.93716858764648,20.34176149230957,33.94446858764648,20.34260149230957,33.94842858764648C20.34302149230957,33.950408587646486,20.34326149230957,33.95155858764649,20.34332149230957,33.951838587646485C20.34335149230957,33.95198858764648,20.34333149230957,33.951908587646486,20.34327149230957,33.951618587646486C20.34324149230957,33.95146858764649,20.34320149230957,33.95126858764648,20.34315149230957,33.951008587646484C20.34312149230957,33.950878587646486,20.343081492309572,33.950648587646484,20.34306149230957,33.950588587646486C20.34301149230957,33.950338587646485,20.34296149230957,33.95007858764649,21.07840149230957,33.80298858764648C21.813831492309568,33.65589858764648,21.81377149230957,33.65560858764648,21.813711492309572,33.655298587646485C21.81369149230957,33.65517858764648,21.813621492309572,33.65485858764649,21.81358149230957,33.65461858764648C21.81348149230957,33.654138587646486,21.81337149230957,33.65358858764648,21.81325149230957,33.65298858764648C21.81300149230957,33.651788587646486,21.81271149230957,33.65035858764649,21.81237149230957,33.64870858764648C21.81168149230957,33.64538858764649,21.810801492309572,33.641178587646486,21.80972149230957,33.63607858764649C21.80755149230957,33.62587858764648,21.80456149230957,33.61216858764649,21.80071149230957,33.595168587646484C21.79300149230957,33.561188587646484,21.781821492309568,33.51398858764649,21.76677149230957,33.45543858764648C21.73670149230957,33.338498587646484,21.69093149230957,33.17534858764648,21.62622149230957,32.98119858764648C21.497661492309568,32.59553858764649,21.28991149230957,32.07418858764648,20.97321149230957,31.546348587646484C20.34420149230957,30.497998587646485,19.20625149230957,29.311458587646484,17.33687149230957,29.311458587646484C17.33687149230957,29.311458587646484,17.33687149230957,30.811458587646484,17.33687149230957,30.811458587646484C17.33687149230957,30.811458587646484,17.33687149230957,30.811458587646484,17.33687149230957,30.811458587646484Z" fill="#000000" fill-opacity="1"/></g><g><path d="M10.341987663903808,19.919392904663084C10.218493663903809,20.166382904663084,10.318605663903808,20.466712904663087,10.565595063903809,20.590212904663087C10.812584063903808,20.713702904663087,11.112921063903809,20.613592904663086,11.236416063903809,20.366602904663086C11.236416063903809,20.366602904663086,10.341987663903808,19.919392904663084,10.341987663903808,19.919392904663084C10.341987663903808,19.919392904663084,10.341987663903808,19.919392904663084,10.341987663903808,19.919392904663084ZM17.238822063903807,17.827132904663085C17.50960206390381,17.881292904663084,17.77301206390381,17.705682904663085,17.82716206390381,17.434904904663085C17.88132206390381,17.164124904663087,17.70571206390381,16.900711904663087,17.43493206390381,16.846556904663085C17.43493206390381,16.846556904663085,17.238822063903807,17.827132904663085,17.238822063903807,17.827132904663085C17.238822063903807,17.827132904663085,17.238822063903807,17.827132904663085,17.238822063903807,17.827132904663085ZM11.236416063903809,20.366602904663086C11.78865206390381,19.262132904663087,13.77697206390381,17.134768904663087,17.238822063903807,17.827132904663085C17.238822063903807,17.827132904663085,17.43493206390381,16.846556904663085,17.43493206390381,16.846556904663085C13.413722063903808,16.042309904663085,11.036932063903809,18.529502904663087,10.341987663903808,19.919392904663084C10.341987663903808,19.919392904663084,11.236416063903809,20.366602904663086,11.236416063903809,20.366602904663086C11.236416063903809,20.366602904663086,11.236416063903809,20.366602904663086,11.236416063903809,20.366602904663086Z" fill="#000000" fill-opacity="1"/></g><g transform="matrix(-1,0,0,1,93.66765594482422,0)"><path d="M46.88672357241211,20.065545401000975C46.76322957241211,20.312535401000975,46.86334157241211,20.612865401000978,47.11033097241211,20.736365401000977C47.35731997241211,20.859855401000978,47.65765697241211,20.759745401000977,47.78115197241211,20.512755401000977C47.78115197241211,20.512755401000977,46.88672357241211,20.065545401000975,46.88672357241211,20.065545401000975C46.88672357241211,20.065545401000975,46.88672357241211,20.065545401000975,46.88672357241211,20.065545401000975ZM53.78355797241211,17.973285401000975C54.05433797241211,18.027445401000975,54.31774797241211,17.851835401000976,54.37189797241211,17.581057401000976C54.42605797241211,17.310277401000977,54.25044797241211,17.046864401000978,53.97966797241211,16.992709401000976C53.97966797241211,16.992709401000976,53.78355797241211,17.973285401000975,53.78355797241211,17.973285401000975C53.78355797241211,17.973285401000975,53.78355797241211,17.973285401000975,53.78355797241211,17.973285401000975ZM47.78115197241211,20.512755401000977C48.33338797241211,19.408285401000978,50.321707972412106,17.280921401000978,53.78355797241211,17.973285401000975C53.78355797241211,17.973285401000975,53.97966797241211,16.992709401000976,53.97966797241211,16.992709401000976C49.958457972412106,16.188462401000976,47.581667972412106,18.675655401000977,46.88672357241211,20.065545401000975C46.88672357241211,20.065545401000975,47.78115197241211,20.512755401000977,47.78115197241211,20.512755401000977C47.78115197241211,20.512755401000977,47.78115197241211,20.512755401000977,47.78115197241211,20.512755401000977Z" fill="#000000" fill-opacity="1"/></g><g><path d="M19.783804435424805,37.435148944335936C19.518634435424804,37.116940744335935,19.045712435424804,37.07394774433594,18.727505435424806,37.33912094433594C18.409297235424805,37.604293944335936,18.366304235424806,38.077217944335935,18.631477435424806,38.395427944335935C18.631477435424806,38.395427944335935,19.783804435424805,37.435148944335936,19.783804435424805,37.435148944335936C19.783804435424805,37.435148944335936,19.783804435424805,37.435148944335936,19.783804435424805,37.435148944335936ZM38.491424435424804,38.395427944335935C38.756624435424804,38.077217944335935,38.713624435424805,37.604293944335936,38.3954244354248,37.33912094433594C38.0772244354248,37.07394774433594,37.604224435424804,37.116940744335935,37.33912443542481,37.435148944335936C37.33912443542481,37.435148944335936,38.491424435424804,38.395427944335935,38.491424435424804,38.395427944335935C38.491424435424804,38.395427944335935,38.491424435424804,38.395427944335935,38.491424435424804,38.395427944335935ZM18.631477435424806,38.395427944335935C20.261784435424804,40.35178794433594,23.208184435424805,42.72392794433594,26.780754435424804,43.42182794433594C30.428524435424805,44.13440794433594,34.593124435424805,43.07335794433594,38.491424435424804,38.395427944335935C38.491424435424804,38.395427944335935,37.33912443542481,37.435148944335936,37.33912443542481,37.435148944335936C33.754324435424806,41.73688794433594,30.124124435424804,42.546597944335936,27.068344435424805,41.949647944335936C23.937344435424805,41.338007944335935,21.271444435424804,39.22031794433594,19.783804435424805,37.435148944335936C19.783804435424805,37.435148944335936,18.631477435424806,38.395427944335935,18.631477435424806,38.395427944335935C18.631477435424806,38.395427944335935,18.631477435424806,38.395427944335935,18.631477435424806,38.395427944335935Z" fill="#000000" fill-opacity="1"/></g></g></svg>