<svg xmlns="http://www.w3.org/2000/svg" xmlns:xlink="http://www.w3.org/1999/xlink" fill="none" version="1.1" width="57.1229248046875" height="57.1229248046875" viewBox="0 0 57.1229248046875 57.1229248046875"><defs><filter id="master_svg0_0_296" filterUnits="objectBoundingBox" color-interpolation-filters="sRGB" x="-2" y="-2" width="10.547674179077148" height="6.806146144866943"><feFlood flood-opacity="0" result="BackgroundImageFix"/><feBlend mode="normal" in="SourceGraphic" in2="BackgroundImageFix" result="shape"/><feGaussianBlur stdDeviation="0.5" result="effect1_foregroundBlur"/></filter><filter id="master_svg1_0_297" filterUnits="objectBoundingBox" color-interpolation-filters="sRGB" x="-2" y="-2" width="10.547674179077148" height="6.806146144866943"><feFlood flood-opacity="0" result="BackgroundImageFix"/><feBlend mode="normal" in="SourceGraphic" in2="BackgroundImageFix" result="shape"/><feGaussianBlur stdDeviation="0.5" result="effect1_foregroundBlur"/></filter></defs><g><g><path d="M28.5615,56.6229Q29.2503,56.6229,29.9384,56.5891Q30.6264,56.5553,31.312,56.4878Q31.9975,56.4203,32.6789,56.3192Q33.3603,56.2181,34.036,56.0837Q34.7116,55.9493,35.3798,55.7819Q36.0481,55.6146,36.7073,55.4146Q37.3665,55.2146,38.0151,54.9826Q38.6637,54.7505,39.3001,54.4869Q39.9365,54.2232,40.5593,53.9287Q41.182,53.6342,41.7895,53.3095Q42.3971,52.9847,42.9879,52.6306Q43.5788,52.2764,44.1516,51.8937Q44.7243,51.511,45.2776,51.1006Q45.831,50.6903,46.3635,50.2533Q46.896,49.8162,47.4064,49.3536Q47.9168,48.891,48.4039,48.4039Q48.891,47.9168,49.3536,47.4064Q49.8162,46.896,50.2533,46.3635Q50.6903,45.831,51.1006,45.2776Q51.511,44.7243,51.8937,44.1516Q52.2764,43.5788,52.6306,42.9879Q52.9847,42.3971,53.3095,41.7895Q53.6342,41.182,53.9287,40.5593Q54.2232,39.9365,54.4869,39.3001Q54.7505,38.6637,54.9826,38.0151Q55.2146,37.3665,55.4146,36.7073Q55.6146,36.0481,55.782,35.3798Q55.9493,34.7116,56.0837,34.036Q56.2181,33.3603,56.3192,32.6789Q56.4203,31.9975,56.4878,31.312Q56.5553,30.6264,56.5891,29.9384Q56.6229,29.2503,56.6229,28.5615Q56.6229,27.8726,56.5891,27.1846Q56.5553,26.4965,56.4878,25.811Q56.4203,25.1254,56.3192,24.444Q56.2181,23.7626,56.0837,23.0869Q55.9493,22.4113,55.7819,21.7431Q55.6146,21.0749,55.4146,20.4156Q55.2146,19.7564,54.9826,19.1078Q54.7505,18.4592,54.4869,17.8228Q54.2232,17.1864,53.9287,16.5636Q53.6342,15.9409,53.3095,15.3334Q52.9847,14.7259,52.6306,14.135Q52.2764,13.5441,51.8937,12.9713Q51.511,12.3986,51.1006,11.8453Q50.6903,11.292,50.2533,10.7595Q49.8162,10.22695,49.3536,9.71654Q48.891,9.20612,48.4039,8.71901Q47.9168,8.23191,47.4064,7.76929Q46.896,7.30667,46.3635,6.86966Q45.831,6.43264,45.2776,6.02228Q44.7243,5.61192,44.1516,5.22921Q43.5788,4.84649,42.9879,4.49234Q42.3971,4.13819,41.7895,3.81346Q41.182,3.48873,40.5593,3.1942Q39.9365,2.89967,39.3001,2.63605Q38.6637,2.37243,38.0151,2.1403600000000003Q37.3665,1.90829,36.7073,1.70832Q36.0481,1.50835,35.3798,1.340967Q34.7116,1.173585,34.036,1.039193Q33.3603,0.904801,32.6789,0.803723Q31.9975,0.702645,31.312,0.635124Q30.6264,0.5676025,29.9384,0.5338013Q29.2503,0.5,28.5615,0.5Q27.8726,0.5,27.1846,0.5338013Q26.4965,0.5676025,25.811,0.635124Q25.1254,0.702645,24.444,0.803723Q23.7626,0.904801,23.0869,1.039193Q22.4113,1.173585,21.7431,1.340967Q21.0749,1.50835,20.4156,1.70832Q19.7564,1.90829,19.1078,2.1403600000000003Q18.4592,2.37243,17.8228,2.63605Q17.1864,2.89967,16.5636,3.1942Q15.9409,3.48873,15.3334,3.81346Q14.7259,4.13819,14.135,4.49234Q13.5441,4.84649,12.9713,5.22921Q12.3986,5.61192,11.8453,6.02228Q11.292,6.43264,10.7595,6.86966Q10.22695,7.30667,9.71654,7.76929Q9.20612,8.23191,8.71901,8.71901Q8.23191,9.20612,7.76929,9.71654Q7.30667,10.22695,6.86966,10.7595Q6.43264,11.292,6.02228,11.8453Q5.61192,12.3986,5.22921,12.9713Q4.84649,13.5441,4.49234,14.135Q4.13819,14.7259,3.81346,15.3334Q3.48873,15.9409,3.1942,16.5636Q2.89967,17.1864,2.63605,17.8228Q2.37243,18.4592,2.1403600000000003,19.1078Q1.90829,19.7564,1.70832,20.4156Q1.50835,21.0749,1.340967,21.7431Q1.173585,22.4113,1.039193,23.0869Q0.904801,23.7626,0.803723,24.444Q0.702645,25.1254,0.635124,25.811Q0.5676025,26.4965,0.5338013,27.1846Q0.5,27.8726,0.5,28.5615Q0.4999999999999988,29.6907,0.5907328000000001,30.8162Q0.681466,31.9418,0.8623449999999999,33.0564Q1.043224,34.171,1.313079,35.2675Q1.58293,36.364,1.94002,37.4353Q2.29711,38.5065,2.73912,39.5456Q3.18112,40.5847,3.7052,41.585Q4.22927,42.5852,4.83202,43.5401Q5.43476,44.495,6.11229,45.3983L4.24155,53.8168L12.0151,51.2256Q12.9088,51.8781,13.8512,52.4582Q14.7935,53.0383,15.7786,53.5424Q16.7637,54.0464,17.7855,54.4714Q18.8072,54.8963,19.8593,55.2395Q20.9113,55.5827,21.9871,55.8419Q23.0629,56.1012,24.1557,56.2749Q25.2486,56.4486,26.3517,56.5358Q27.4549,56.6229,28.5615,56.6229Z" fill-rule="evenodd" fill="#FFCF00" fill-opacity="1"/><path d="M28.5615,56.1229Q33.8186,56.1229,38.7067,54.1878Q44.014,52.0867,48.0504,48.0504Q52.0867,44.0141,54.1878,38.7067Q56.1229,33.8186,56.1229,28.5615Q56.1229,23.3043,54.1878,18.4162Q52.0867,13.1089,48.0504,9.07257Q44.0141,5.03629,38.7067,2.93514Q33.8186,1,28.5615,1Q23.3043,1,18.4162,2.93514Q13.1088,5.03628,9.07257,9.07257Q5.03629,13.1089,2.93514,18.4162Q1,23.3043,1,28.5615Q1,37.7486,6.51229,45.0983L6.65027,45.2823L4.72964,53.9252L4.24155,53.8168L4.08343,53.3424L12.1016,50.6697L12.3099,50.8218Q19.571,56.123,28.5615,56.1229ZM28.5615,57.1229Q19.2449,57.1229,11.7203,51.6294L12.0151,51.2256L12.1732,51.6999L3.56189,54.5704L5.62419,45.2899L6.11229,45.3983L5.71229,45.6983Q0,38.082,0,28.5615Q0,23.1135,2.00535,18.0481Q4.18272,12.5482,8.365459999999999,8.365459999999999Q12.5482,4.182729999999999,18.0481,2.00535Q23.1136,0,28.5615,0Q34.0094,0,39.0748,2.00535Q44.5747,4.182729999999999,48.7575,8.365459999999999Q52.9402,12.5483,55.1176,18.0481Q57.1229,23.1136,57.1229,28.5615Q57.1229,34.0093,55.1176,39.0748Q52.9402,44.5747,48.7575,48.7575Q44.5747,52.9402,39.0748,55.1176Q34.0093,57.1229,28.5615,57.1229Z" fill="#000000" fill-opacity="1"/></g><g transform="matrix(1,-0.010207165032625198,0.010207165032625198,1,-0.36859300079008506,0.06238918586326747)" filter="url(#master_svg0_0_296)"><ellipse cx="9.386130332946777" cy="37.514275312423706" rx="3.273837089538574" ry="1.4030730724334717" fill="#FF8B72" fill-opacity="1"/></g><g transform="matrix(1,-0.010207165032625198,0.010207165032625198,1,-0.36859300079008506,0.44429311732272936)" filter="url(#master_svg1_0_297)"><ellipse cx="46.80140972137451" cy="37.514275312423706" rx="3.273837089538574" ry="1.4030730724334717" fill="#FF8B72" fill-opacity="1"/></g><g><path d="M17.784094461669923,18.495867039672852C17.90758446166992,18.248877039672852,17.807474461669923,17.94854103967285,17.560484461669922,17.82504563967285C17.313494461669922,17.70155163967285,17.013164461669923,17.801663639672853,16.889664461669923,18.048653039672853C16.889664461669923,18.048653039672853,17.784094461669923,18.495867039672852,17.784094461669923,18.495867039672852C17.784094461669923,18.495867039672852,17.784094461669923,18.495867039672852,17.784094461669923,18.495867039672852ZM10.691142461669921,22.458880039672852C10.420362461669923,22.513040039672852,10.244754561669922,22.776450039672852,10.298910571669921,23.04723003967285C10.353066561669921,23.318010039672853,10.616478461669923,23.49362003967285,10.887258461669921,23.439460039672852C10.887258461669921,23.439460039672852,10.691142461669921,22.458880039672852,10.691142461669921,22.458880039672852C10.691142461669921,22.458880039672852,10.691142461669921,22.458880039672852,10.691142461669921,22.458880039672852ZM16.889664461669923,18.048653039672853C16.318354461669923,19.19128003967285,14.248134461669922,21.74748003967285,10.691142461669921,22.458880039672852C10.691142461669921,22.458880039672852,10.887258461669921,23.439460039672852,10.887258461669921,23.439460039672852C14.813334461669921,22.654250039672853,17.108234461669923,19.847590039672852,17.784094461669923,18.495867039672852C17.784094461669923,18.495867039672852,16.889664461669923,18.048653039672853,16.889664461669923,18.048653039672853C16.889664461669923,18.048653039672853,16.889664461669923,18.048653039672853,16.889664461669923,18.048653039672853Z" fill="#000000" fill-opacity="1"/></g><g transform="matrix(-1,0,0,1,93.6676254272461,0)"><path d="M54.32880271362305,18.495867039672852C54.452292713623045,18.248877039672852,54.352182713623044,17.94854103967285,54.10519271362305,17.82504563967285C53.858202713623044,17.70155163967285,53.55787271362305,17.801663639672853,53.43437271362305,18.048653039672853C53.43437271362305,18.048653039672853,54.32880271362305,18.495867039672852,54.32880271362305,18.495867039672852C54.32880271362305,18.495867039672852,54.32880271362305,18.495867039672852,54.32880271362305,18.495867039672852ZM47.235850713623044,22.458880039672852C46.96507071362305,22.513040039672852,46.78946281362305,22.776450039672852,46.843618823623046,23.04723003967285C46.897774813623045,23.318010039672853,47.161186713623046,23.49362003967285,47.43196671362305,23.439460039672852C47.43196671362305,23.439460039672852,47.235850713623044,22.458880039672852,47.235850713623044,22.458880039672852C47.235850713623044,22.458880039672852,47.235850713623044,22.458880039672852,47.235850713623044,22.458880039672852ZM53.43437271362305,18.048653039672853C52.863062713623044,19.19128003967285,50.792842713623045,21.74748003967285,47.235850713623044,22.458880039672852C47.235850713623044,22.458880039672852,47.43196671362305,23.439460039672852,47.43196671362305,23.439460039672852C51.35804271362305,22.654250039672853,53.65294271362305,19.847590039672852,54.32880271362305,18.495867039672852C54.32880271362305,18.495867039672852,53.43437271362305,18.048653039672853,53.43437271362305,18.048653039672853C53.43437271362305,18.048653039672853,53.43437271362305,18.048653039672853,53.43437271362305,18.048653039672853Z" fill="#000000" fill-opacity="1"/></g><g><path d="M11.353630292358398,29.002962293701174C11.080870292358398,28.691238293701172,10.607049292358399,28.659650293701173,10.2953222923584,28.932412293701173C9.983594592358399,29.20517229370117,9.952006592358398,29.67899229370117,10.224767292358399,29.99072229370117C10.224767292358399,29.99072229370117,11.353630292358398,29.002962293701174,11.353630292358398,29.002962293701174C11.353630292358398,29.002962293701174,11.353630292358398,29.002962293701174,11.353630292358398,29.002962293701174ZM23.573190292358397,28.977482293701172C23.8029902923584,28.632841293701173,23.7097902923584,28.16718929370117,23.3651902923584,27.93742429370117C23.020490292358396,27.70766029370117,22.5548902923584,27.80079009370117,22.325090292358396,28.14543729370117C22.325090292358396,28.14543729370117,23.573190292358397,28.977482293701172,23.573190292358397,28.977482293701172C23.573190292358397,28.977482293701172,23.573190292358397,28.977482293701172,23.573190292358397,28.977482293701172ZM10.224767292358399,29.99072229370117C11.386460292358398,31.318372293701174,13.455950292358398,32.90466229370117,15.904140292358399,33.23339229370117C17.1455002923584,33.400082293701175,18.475250292358396,33.24077229370117,19.8011102923584,32.56854229370117C21.1212902923584,31.899192293701173,22.3964902923584,30.742502293701172,23.573190292358397,28.977482293701172C23.573190292358397,28.977482293701172,22.325090292358396,28.14543729370117,22.325090292358396,28.14543729370117C21.2568902923584,29.74780229370117,20.1624902923584,30.703512293701174,19.1227802923584,31.230672293701172C18.088750292358398,31.754952293701173,17.0683502923584,31.87626229370117,16.103770292358398,31.74674229370117C14.140080292358398,31.48306229370117,12.374490292358399,30.169662293701172,11.353630292358398,29.002962293701174C11.353630292358398,29.002962293701174,10.224767292358399,29.99072229370117,10.224767292358399,29.99072229370117C10.224767292358399,29.99072229370117,10.224767292358399,29.99072229370117,10.224767292358399,29.99072229370117Z" fill="#000000" fill-opacity="1"/></g><g transform="matrix(-1,0,0,1,94.1674575805664,0)"><path d="M48.3981687902832,29.002962293701174C48.1254087902832,28.691238293701172,47.6515877902832,28.659650293701173,47.339860790283204,28.932412293701173C47.028133090283205,29.20517229370117,46.996545090283206,29.67899229370117,47.269305790283205,29.99072229370117C47.269305790283205,29.99072229370117,48.3981687902832,29.002962293701174,48.3981687902832,29.002962293701174C48.3981687902832,29.002962293701174,48.3981687902832,29.002962293701174,48.3981687902832,29.002962293701174ZM60.6177287902832,28.977482293701172C60.84752879028321,28.632841293701173,60.7543287902832,28.16718929370117,60.409728790283204,27.93742429370117C60.0650287902832,27.70766029370117,59.599428790283206,27.80079009370117,59.3696287902832,28.14543729370117C59.3696287902832,28.14543729370117,60.6177287902832,28.977482293701172,60.6177287902832,28.977482293701172C60.6177287902832,28.977482293701172,60.6177287902832,28.977482293701172,60.6177287902832,28.977482293701172ZM47.269305790283205,29.99072229370117C48.430998790283205,31.318372293701174,50.5004887902832,32.90466229370117,52.9486787902832,33.23339229370117C54.190038790283204,33.400082293701175,55.5197887902832,33.24077229370117,56.84564879028321,32.56854229370117C58.1658287902832,31.899192293701173,59.441028790283205,30.742502293701172,60.6177287902832,28.977482293701172C60.6177287902832,28.977482293701172,59.3696287902832,28.14543729370117,59.3696287902832,28.14543729370117C58.301428790283204,29.74780229370117,57.2070287902832,30.703512293701174,56.167318790283204,31.230672293701172C55.1332887902832,31.754952293701173,54.1128887902832,31.87626229370117,53.1483087902832,31.74674229370117C51.1846187902832,31.48306229370117,49.41902879028321,30.169662293701172,48.3981687902832,29.002962293701174C48.3981687902832,29.002962293701174,47.269305790283205,29.99072229370117,47.269305790283205,29.99072229370117C47.269305790283205,29.99072229370117,47.269305790283205,29.99072229370117,47.269305790283205,29.99072229370117Z" fill="#000000" fill-opacity="1"/></g><g><path d="M23.884546279907227,43.712955474853516C23.470332279907225,43.712955474853516,23.134546279907227,44.048741474853514,23.134546279907227,44.462955474853516C23.134546279907227,44.87716547485351,23.470332279907225,45.212955474853516,23.884546279907227,45.212955474853516C23.884546279907227,45.212955474853516,23.884546279907227,43.712955474853516,23.884546279907227,43.712955474853516C23.884546279907227,43.712955474853516,23.884546279907227,43.712955474853516,23.884546279907227,43.712955474853516ZM34.17374627990723,45.212955474853516C34.58794627990723,45.212955474853516,34.92374627990723,44.87716547485351,34.92374627990723,44.462955474853516C34.92374627990723,44.048741474853514,34.58794627990723,43.712955474853516,34.17374627990723,43.712955474853516C34.17374627990723,43.712955474853516,34.17374627990723,45.212955474853516,34.17374627990723,45.212955474853516C34.17374627990723,45.212955474853516,34.17374627990723,45.212955474853516,34.17374627990723,45.212955474853516ZM23.884546279907227,45.212955474853516C23.884546279907227,45.212955474853516,34.17374627990723,45.212955474853516,34.17374627990723,45.212955474853516C34.17374627990723,45.212955474853516,34.17374627990723,43.712955474853516,34.17374627990723,43.712955474853516C34.17374627990723,43.712955474853516,23.884546279907227,43.712955474853516,23.884546279907227,43.712955474853516C23.884546279907227,43.712955474853516,23.884546279907227,45.212955474853516,23.884546279907227,45.212955474853516C23.884546279907227,45.212955474853516,23.884546279907227,45.212955474853516,23.884546279907227,45.212955474853516Z" fill="#000000" fill-opacity="1"/></g></g></svg>