<svg xmlns="http://www.w3.org/2000/svg" xmlns:xlink="http://www.w3.org/1999/xlink" fill="none" version="1.1" width="57.1229248046875" height="57.1229248046875" viewBox="0 0 57.1229248046875 57.1229248046875"><defs><filter id="master_svg0_0_850" filterUnits="objectBoundingBox" color-interpolation-filters="sRGB" x="-1" y="-1" width="7.612292289733887" height="5.741528034210205"><feFlood flood-opacity="0" result="BackgroundImageFix"/><feBlend mode="normal" in="SourceGraphic" in2="BackgroundImageFix" result="shape"/><feGaussianBlur stdDeviation="0.25" result="effect1_foregroundBlur"/></filter><filter id="master_svg1_0_851" filterUnits="objectBoundingBox" color-interpolation-filters="sRGB" x="-1" y="-1" width="7.612292289733887" height="5.741528034210205"><feFlood flood-opacity="0" result="BackgroundImageFix"/><feBlend mode="normal" in="SourceGraphic" in2="BackgroundImageFix" result="shape"/><feGaussianBlur stdDeviation="0.25" result="effect1_foregroundBlur"/></filter></defs><g><g><path d="M28.5615,56.6229Q29.2503,56.6229,29.9384,56.5891Q30.6264,56.5553,31.312,56.4878Q31.9975,56.4203,32.6789,56.3192Q33.3603,56.2181,34.036,56.0837Q34.7116,55.9493,35.3798,55.7819Q36.0481,55.6146,36.7073,55.4146Q37.3665,55.2146,38.0151,54.9826Q38.6637,54.7505,39.3001,54.4869Q39.9365,54.2232,40.5593,53.9287Q41.182,53.6342,41.7895,53.3095Q42.3971,52.9847,42.9879,52.6306Q43.5788,52.2764,44.1516,51.8937Q44.7243,51.511,45.2776,51.1006Q45.831,50.6903,46.3635,50.2533Q46.896,49.8162,47.4064,49.3536Q47.9168,48.891,48.4039,48.4039Q48.891,47.9168,49.3536,47.4064Q49.8162,46.896,50.2533,46.3635Q50.6903,45.831,51.1006,45.2776Q51.511,44.7243,51.8937,44.1516Q52.2764,43.5788,52.6306,42.9879Q52.9847,42.3971,53.3095,41.7895Q53.6342,41.182,53.9287,40.5593Q54.2232,39.9365,54.4869,39.3001Q54.7505,38.6637,54.9826,38.0151Q55.2146,37.3665,55.4146,36.7073Q55.6146,36.0481,55.782,35.3798Q55.9493,34.7116,56.0837,34.036Q56.2181,33.3603,56.3192,32.6789Q56.4203,31.9975,56.4878,31.312Q56.5553,30.6264,56.5891,29.9384Q56.6229,29.2503,56.6229,28.5615Q56.6229,27.8726,56.5891,27.1846Q56.5553,26.4965,56.4878,25.811Q56.4203,25.1254,56.3192,24.444Q56.2181,23.7626,56.0837,23.0869Q55.9493,22.4113,55.7819,21.7431Q55.6146,21.0749,55.4146,20.4156Q55.2146,19.7564,54.9826,19.1078Q54.7505,18.4592,54.4869,17.8228Q54.2232,17.1864,53.9287,16.5636Q53.6342,15.9409,53.3095,15.3334Q52.9847,14.7259,52.6306,14.135Q52.2764,13.5441,51.8937,12.9713Q51.511,12.3986,51.1006,11.8453Q50.6903,11.292,50.2533,10.7595Q49.8162,10.22695,49.3536,9.71654Q48.891,9.20612,48.4039,8.71901Q47.9168,8.23191,47.4064,7.76929Q46.896,7.30667,46.3635,6.86966Q45.831,6.43264,45.2776,6.02228Q44.7243,5.61192,44.1516,5.22921Q43.5788,4.84649,42.9879,4.49234Q42.3971,4.13819,41.7895,3.81346Q41.182,3.48873,40.5593,3.1942Q39.9365,2.89967,39.3001,2.63605Q38.6637,2.37243,38.0151,2.1403600000000003Q37.3665,1.90829,36.7073,1.70832Q36.0481,1.50835,35.3798,1.340967Q34.7116,1.173585,34.036,1.039193Q33.3603,0.904801,32.6789,0.803723Q31.9975,0.702645,31.312,0.635124Q30.6264,0.5676025,29.9384,0.5338013Q29.2503,0.5,28.5615,0.5Q27.8726,0.5,27.1846,0.5338013Q26.4965,0.5676025,25.811,0.635124Q25.1254,0.702645,24.444,0.803723Q23.7626,0.904801,23.0869,1.039193Q22.4113,1.173585,21.7431,1.340967Q21.0749,1.50835,20.4156,1.70832Q19.7564,1.90829,19.1078,2.1403600000000003Q18.4592,2.37243,17.8228,2.63605Q17.1864,2.89967,16.5636,3.1942Q15.9409,3.48873,15.3334,3.81346Q14.7259,4.13819,14.135,4.49234Q13.5441,4.84649,12.9713,5.22921Q12.3986,5.61192,11.8453,6.02228Q11.292,6.43264,10.7595,6.86966Q10.22695,7.30667,9.71654,7.76929Q9.20612,8.23191,8.71901,8.71901Q8.23191,9.20612,7.76929,9.71654Q7.30667,10.22695,6.86966,10.7595Q6.43264,11.292,6.02228,11.8453Q5.61192,12.3986,5.22921,12.9713Q4.84649,13.5441,4.49234,14.135Q4.13819,14.7259,3.81346,15.3334Q3.48873,15.9409,3.1942,16.5636Q2.89967,17.1864,2.63605,17.8228Q2.37243,18.4592,2.1403600000000003,19.1078Q1.90829,19.7564,1.70832,20.4156Q1.50835,21.0749,1.340967,21.7431Q1.173585,22.4113,1.039193,23.0869Q0.904801,23.7626,0.803723,24.444Q0.702645,25.1254,0.635124,25.811Q0.5676025,26.4965,0.5338013,27.1846Q0.5,27.8726,0.5,28.5615Q0.4999999999999988,29.6907,0.5907328000000001,30.8162Q0.681466,31.9418,0.8623449999999999,33.0564Q1.043224,34.171,1.313079,35.2675Q1.58293,36.364,1.94002,37.4353Q2.29711,38.5065,2.73912,39.5456Q3.18112,40.5847,3.7052,41.585Q4.22927,42.5852,4.83202,43.5401Q5.43476,44.495,6.11229,45.3983L4.24155,53.8168L12.0151,51.2256Q12.9088,51.8781,13.8512,52.4582Q14.7935,53.0383,15.7786,53.5424Q16.7637,54.0464,17.7855,54.4714Q18.8072,54.8963,19.8593,55.2395Q20.9113,55.5827,21.9871,55.8419Q23.0629,56.1012,24.1557,56.2749Q25.2486,56.4486,26.3517,56.5358Q27.4549,56.6229,28.5615,56.6229Z" fill-rule="evenodd" fill="#FFCF00" fill-opacity="1"/><path d="M28.5615,56.1229Q33.8186,56.1229,38.7067,54.1878Q44.014,52.0867,48.0504,48.0504Q52.0867,44.0141,54.1878,38.7067Q56.1229,33.8186,56.1229,28.5615Q56.1229,23.3043,54.1878,18.4162Q52.0867,13.1089,48.0504,9.07257Q44.0141,5.03629,38.7067,2.93514Q33.8186,1,28.5615,1Q23.3043,1,18.4162,2.93514Q13.1088,5.03628,9.07257,9.07257Q5.03629,13.1089,2.93514,18.4162Q1,23.3043,1,28.5615Q1,37.7486,6.51229,45.0983L6.65027,45.2823L4.72964,53.9252L4.24155,53.8168L4.08343,53.3424L12.1016,50.6697L12.3099,50.8218Q19.571,56.123,28.5615,56.1229ZM28.5615,57.1229Q19.2449,57.1229,11.7203,51.6294L12.0151,51.2256L12.1732,51.6999L3.56189,54.5704L5.62419,45.2899L6.11229,45.3983L5.71229,45.6983Q0,38.082,0,28.5615Q0,23.1135,2.00535,18.0481Q4.18272,12.5482,8.365459999999999,8.365459999999999Q12.5482,4.182729999999999,18.0481,2.00535Q23.1136,0,28.5615,0Q34.0094,0,39.0748,2.00535Q44.5747,4.182729999999999,48.7575,8.365459999999999Q52.9402,12.5483,55.1176,18.0481Q57.1229,23.1136,57.1229,28.5615Q57.1229,34.0093,55.1176,39.0748Q52.9402,44.5747,48.7575,48.7575Q44.5747,52.9402,39.0748,55.1176Q34.0093,57.1229,28.5615,57.1229Z" fill="#000000" fill-opacity="1"/></g><g filter="url(#master_svg0_0_850)"><ellipse cx="10.78920316696167" cy="32.30299210548401" rx="2.8061461448669434" ry="1.8707640171051025" fill="#FF8D6E" fill-opacity="1"/></g><g filter="url(#master_svg1_0_851)"><ellipse cx="46.33371877670288" cy="32.30299210548401" rx="2.8061461448669434" ry="1.8707640171051025" fill="#FF8D6E" fill-opacity="1"/></g><g transform="matrix(-0.999690055847168,-0.02489563077688217,-0.024895627051591873,0.999690055847168,92.26222028370552,1.1486410922449863)"><path d="M46.06352709033203,13.405007573242187C45.95087509033203,13.657127573242187,46.06393509033203,13.952837573242189,46.31605409033203,14.065487573242187C46.56817309033203,14.178137573242187,46.86387809033203,14.065077573242188,46.97653109033203,13.812957573242187C46.97653109033203,13.812957573242187,46.06352709033203,13.405007573242187,46.06352709033203,13.405007573242187C46.06352709033203,13.405007573242187,46.06352709033203,13.405007573242187,46.06352709033203,13.405007573242187ZM52.153665090332034,10.506637573242188C52.42980509033203,10.506637573242188,52.653665090332034,10.282779573242188,52.653665090332034,10.006637573242188C52.653665090332034,9.730495573242187,52.42980509033203,9.506637573242188,52.153665090332034,9.506637573242188C52.153665090332034,9.506637573242188,52.153665090332034,10.506637573242188,52.153665090332034,10.506637573242188C52.153665090332034,10.506637573242188,52.153665090332034,10.506637573242188,52.153665090332034,10.506637573242188ZM46.97653109033203,13.812957573242187C47.46709509033203,12.715057573242188,49.20421509033203,10.506637573242188,52.153665090332034,10.506637573242188C52.153665090332034,10.506637573242188,52.153665090332034,9.506637573242188,52.153665090332034,9.506637573242188C48.66466509033203,9.506637573242188,46.64603409033203,12.101347573242187,46.06352709033203,13.405007573242187C46.06352709033203,13.405007573242187,46.97653109033203,13.812957573242187,46.97653109033203,13.812957573242187C46.97653109033203,13.812957573242187,46.97653109033203,13.812957573242187,46.97653109033203,13.812957573242187Z" fill="#000000" fill-opacity="1"/></g><g transform="matrix(0.999690055847168,-0.024895627051591873,0.024895627051591873,0.999690055847168,-0.23377838793197725,0.2355068020810016)"><path d="M9.385032636901855,13.405007573242187C9.272380636901856,13.657127573242187,9.385440636901855,13.952837573242189,9.637559636901855,14.065487573242187C9.889678636901856,14.178137573242187,10.185383636901856,14.065077573242188,10.298036636901855,13.812957573242187C10.298036636901855,13.812957573242187,9.385032636901855,13.405007573242187,9.385032636901855,13.405007573242187C9.385032636901855,13.405007573242187,9.385032636901855,13.405007573242187,9.385032636901855,13.405007573242187ZM15.475170636901854,10.506637573242188C15.751310636901856,10.506637573242188,15.975170636901854,10.282779573242188,15.975170636901854,10.006637573242188C15.975170636901854,9.730495573242187,15.751310636901856,9.506637573242188,15.475170636901854,9.506637573242188C15.475170636901854,9.506637573242188,15.475170636901854,10.506637573242188,15.475170636901854,10.506637573242188C15.475170636901854,10.506637573242188,15.475170636901854,10.506637573242188,15.475170636901854,10.506637573242188ZM10.298036636901855,13.812957573242187C10.788600636901855,12.715057573242188,12.525720636901855,10.506637573242188,15.475170636901854,10.506637573242188C15.475170636901854,10.506637573242188,15.475170636901854,9.506637573242188,15.475170636901854,9.506637573242188C11.986170636901855,9.506637573242188,9.967539636901856,12.101347573242187,9.385032636901855,13.405007573242187C9.385032636901855,13.405007573242187,10.298036636901855,13.812957573242187,10.298036636901855,13.812957573242187C10.298036636901855,13.812957573242187,10.298036636901855,13.812957573242187,10.298036636901855,13.812957573242187Z" fill="#000000" fill-opacity="1"/></g><g><path d="M12.842106522827148,27.248343544921873L13.424786522827148,27.248343544921873L13.424786522827148,26.441053544921875C14.987286522827148,26.346653544921875,15.885726522827149,25.503553544921875,15.88898652282715,24.295863544921875C15.885726522827149,23.036103544921875,14.844056522827149,22.459933544921874,13.750306522827149,22.202773544921875L13.424786522827148,22.121393544921876L13.424786522827148,20.096653544921875C14.056296522827148,20.174773544921877,14.459946522827149,20.523083544921874,14.521796522827149,21.066703544921875L15.788066522827148,21.066703544921875C15.765286522827148,19.904593544921873,14.831036522827148,19.064743544921875,13.424786522827148,18.973603544921875L13.424786522827148,18.156545544921876L12.842106522827148,18.156545544921876L12.842106522827148,18.980113544921874C11.481426522827148,19.094043544921874,10.495102522827148,19.917613544921874,10.498357522827149,21.112273544921877C10.498357522827149,22.157193544921874,11.240546522827149,22.756153544921876,12.438466522827149,23.065403544921875L12.842106522827148,23.166313544921877L12.842106522827148,25.308233544921876C12.155256522827148,25.233363544921875,11.647446522827149,24.865533544921874,11.601876522827148,24.191703544921875L10.306300522827149,24.191703544921875C10.35512852282715,25.549123544921876,11.315416522827148,26.353163544921877,12.842106522827148,26.441053544921875L12.842106522827148,27.248343544921873ZM13.424786522827148,25.304983544921875L13.424786522827148,23.319303544921876C14.121406522827147,23.511363544921874,14.567366522827149,23.762013544921874,14.570626522827148,24.286103544921875C14.567366522827149,24.829723544921876,14.111636522827148,25.217093544921873,13.424786522827148,25.304983544921875ZM12.842106522827148,21.971653544921875C12.321276522827148,21.818653544921876,11.826486522827148,21.558233544921876,11.832996522827148,21.030893544921874C11.836246522827148,20.555633544921875,12.207346522827148,20.191053544921875,12.842106522827148,20.103163544921877L12.842106522827148,21.971653544921875Z" fill="#000000" fill-opacity="1"/></g><g><path d="M37.16202420166016,27.248343544921873L37.744704201660156,27.248343544921873L37.744704201660156,26.441053544921875C39.307204201660156,26.346653544921875,40.20564420166016,25.503553544921875,40.208904201660154,24.295863544921875C40.20564420166016,23.036103544921875,39.16397420166015,22.459933544921874,38.07022420166015,22.202773544921875L37.744704201660156,22.121393544921876L37.744704201660156,20.096653544921875C38.376214201660154,20.174773544921877,38.77986420166015,20.523083544921874,38.84171420166015,21.066703544921875L40.10798420166016,21.066703544921875C40.085204201660154,19.904593544921873,39.150954201660156,19.064743544921875,37.744704201660156,18.973603544921875L37.744704201660156,18.156545544921876L37.16202420166016,18.156545544921876L37.16202420166016,18.980113544921874C35.80134420166016,19.094043544921874,34.815020201660154,19.917613544921874,34.81827520166016,21.112273544921877C34.81827520166016,22.157193544921874,35.56046420166015,22.756153544921876,36.75838420166016,23.065403544921875L37.16202420166016,23.166313544921877L37.16202420166016,25.308233544921876C36.47517420166015,25.233363544921875,35.96736420166015,24.865533544921874,35.921794201660155,24.191703544921875L34.62621820166016,24.191703544921875C34.67504620166016,25.549123544921876,35.63533420166016,26.353163544921877,37.16202420166016,26.441053544921875L37.16202420166016,27.248343544921873ZM37.744704201660156,25.304983544921875L37.744704201660156,23.319303544921876C38.44132420166016,23.511363544921874,38.88728420166016,23.762013544921874,38.890544201660155,24.286103544921875C38.88728420166016,24.829723544921876,38.431554201660155,25.217093544921873,37.744704201660156,25.304983544921875ZM37.16202420166016,21.971653544921875C36.641194201660156,21.818653544921876,36.146404201660154,21.558233544921876,36.15291420166016,21.030893544921874C36.156164201660154,20.555633544921875,36.52726420166016,20.191053544921875,37.16202420166016,20.103163544921877L37.16202420166016,21.971653544921875Z" fill="#000000" fill-opacity="1"/></g><g><path d="M28.561042652893065,48.20446611328125C19.206812652893067,48.20446611328125,12.659552652893066,36.97986611328125,15.465697652893066,35.10909911328125C18.271842652893067,33.23833611328125,24.071212652893067,36.97986611328125,28.561042652893065,36.97986611328125C33.05084265289307,36.97986611328125,38.84984265289307,33.23828611328125,41.656342652893066,35.10909911328125C44.46294265289306,36.97991611328125,37.91524265289307,48.20446611328125,28.561042652893065,48.20446611328125C28.561042652893065,48.20446611328125,28.561042652893065,48.20446611328125,28.561042652893065,48.20446611328125Z" fill="#000000" fill-opacity="1"/></g><g><g><path d="M22.949172973632812,43.15680819749832C22.949172973632812,42.328381197498324,23.62074597363281,41.65680819749832,24.449172973632812,41.65680819749832C24.449172973632812,41.65680819749832,32.673752973632816,41.65680819749832,32.673752973632816,41.65680819749832C33.50217297363281,41.65680819749832,34.173772973632815,42.328381197498324,34.173772973632815,43.15680819749832C34.173772973632815,43.15680819749832,34.173772973632815,49.881388197498325,34.173772973632815,49.881388197498325C34.173772973632815,51.53824819749832,32.83061297363281,52.881408197498324,31.173752973632812,52.881408197498324C31.173752973632812,52.881408197498324,25.949172973632812,52.881408197498324,25.949172973632812,52.881408197498324C24.292322973632814,52.881408197498324,22.949172973632812,51.53824819749832,22.949172973632812,49.881388197498325C22.949172973632812,49.881388197498325,22.949172973632812,43.15680819749832,22.949172973632812,43.15680819749832C22.949172973632812,43.15680819749832,22.949172973632812,43.15680819749832,22.949172973632812,43.15680819749832Z" fill="#D50B00" fill-opacity="1"/><path d="M22.449172973632812,43.15680819749832L22.449172973632812,49.881388197498325Q22.449172973632812,51.33113819749832,23.474299973632814,52.35630819749832Q24.49942297363281,53.381408197498324,25.949172973632812,53.381408197498324L31.173752973632812,53.381408197498324Q32.62350297363281,53.381408197498324,33.64867297363281,52.35630819749832Q34.673772973632815,51.33113819749832,34.673772973632815,49.881388197498325L34.673772973632815,43.15680819749832Q34.673772973632815,42.328381197498324,34.087972973632816,41.742590897498324Q33.50217297363281,41.15680819749832,32.673752973632816,41.15680819749832L24.449172973632812,41.15680819749832Q23.62074597363281,41.15680819749832,23.034959473632814,41.742594597498325Q22.449172973632812,42.328381197498324,22.449172973632812,43.15680819749832ZM24.181412973632813,51.64916819749832Q23.449172973632812,50.91692819749832,23.449172973632812,49.881388197498325L23.449172973632812,43.15680819749832Q23.449172973632812,42.742598197498324,23.742065973632812,42.44970119749832Q24.034962973632812,42.15680819749832,24.449172973632812,42.15680819749832L32.673752973632816,42.15680819749832Q33.087972973632816,42.15680819749832,33.38087297363281,42.44970519749832Q33.673772973632815,42.742598197498324,33.673772973632815,43.15680819749832L33.673772973632815,49.881388197498325Q33.673772973632815,50.91692819749832,32.94153297363281,51.64916819749832Q32.20929297363281,52.381408197498324,31.173752973632812,52.381408197498324L25.949172973632812,52.381408197498324Q24.91364297363281,52.381408197498324,24.181412973632813,51.64916819749832Z" fill-rule="evenodd" fill="#000000" fill-opacity="1"/></g><g><path d="M29.061461448669434,41.65680694580078C29.061461448669434,41.38066494580078,28.837603448669434,41.15680694580078,28.561461448669434,41.15680694580078C28.285319448669433,41.15680694580078,28.061461448669434,41.38066494580078,28.061461448669434,41.65680694580078C28.061461448669434,41.65680694580078,29.061461448669434,41.65680694580078,29.061461448669434,41.65680694580078C29.061461448669434,41.65680694580078,29.061461448669434,41.65680694580078,29.061461448669434,41.65680694580078ZM28.061461448669434,44.462956945800784C28.061461448669434,44.73909694580078,28.285319448669433,44.962956945800784,28.561461448669434,44.962956945800784C28.837603448669434,44.962956945800784,29.061461448669434,44.73909694580078,29.061461448669434,44.462956945800784C29.061461448669434,44.462956945800784,28.061461448669434,44.462956945800784,28.061461448669434,44.462956945800784C28.061461448669434,44.462956945800784,28.061461448669434,44.462956945800784,28.061461448669434,44.462956945800784ZM28.061461448669434,41.65680694580078C28.061461448669434,41.65680694580078,28.061461448669434,44.462956945800784,28.061461448669434,44.462956945800784C28.061461448669434,44.462956945800784,29.061461448669434,44.462956945800784,29.061461448669434,44.462956945800784C29.061461448669434,44.462956945800784,29.061461448669434,41.65680694580078,29.061461448669434,41.65680694580078C29.061461448669434,41.65680694580078,28.061461448669434,41.65680694580078,28.061461448669434,41.65680694580078C28.061461448669434,41.65680694580078,28.061461448669434,41.65680694580078,28.061461448669434,41.65680694580078Z" fill="#000000" fill-opacity="1"/></g></g></g></svg>