<svg xmlns="http://www.w3.org/2000/svg" xmlns:xlink="http://www.w3.org/1999/xlink" fill="none" version="1.1" width="56.43292236328125" height="56.622928619384766" viewBox="0 0 56.43292236328125 56.622928619384766"><g><g><ellipse cx="28.17352294921875" cy="28.06146240234375" rx="28.06146240234375" ry="28.06146240234375" fill="#FFCF00" fill-opacity="1"/><ellipse cx="28.17352294921875" cy="28.06146240234375" rx="27.56146240234375" ry="27.56146240234375" fill-opacity="0" stroke-opacity="1" stroke="#000000" fill="none" stroke-width="1"/></g><g><path d="M4.788973205318451,42.092226632690426C3.944313205318451,37.02424663269043,2.082683205318451,33.22752663269043,0.5815766053184509,30.70202263269043C0.3809222053184509,30.36443563269043,0.6294202053184509,29.93502183269043,1.021667205318451,29.95425013669043C14.93068320531845,30.636082632690428,17.47238320531845,46.98232663269043,16.97838320531845,55.664126632690426C16.96348320531845,55.92602663269043,16.74568320531845,56.12292663269043,16.48338320531845,56.12292663269043C16.48338320531845,56.12292663269043,5.288973205318451,56.12292663269043,5.288973205318451,56.12292663269043C5.012833205318451,56.12292663269043,4.788873205318451,55.901726632690426,4.793353205318451,55.62562663269043C4.8473932053184505,52.29182663269043,5.373333205318451,45.59832663269043,4.788973205318451,42.092226632690426C4.788973205318451,42.092226632690426,4.788973205318451,42.092226632690426,4.788973205318451,42.092226632690426Z" fill="#FFCF00" fill-opacity="1"/><path d="M4.400193205318451,52.525826632690425Q4.30723320531845,54.765426632690435,4.293413205318451,55.61752663269043Q4.286623205318451,56.03602663269043,4.582643205318451,56.33162663269043Q4.8743732053184505,56.62292663269043,5.288973205318451,56.62292663269043L16.48338320531845,56.62292663269043Q17.424583205318452,56.62292663269043,17.47758320531845,55.69252663269043Q17.98798320531845,46.72202663269043,14.858783205318451,39.60788663269043Q10.59898320531845,29.92313893269043,1.046149205318451,29.45484963269043Q0.44968490531845096,29.42561063269043,0.1476982053184509,29.94187593269043Q-0.14969879468154912,30.45029363269043,0.15176720531845095,30.95748663269043Q3.312603205318451,36.27538663269043,4.295773205318451,42.17442663269043Q4.723373205318451,44.73992663269043,4.400193205318451,52.525826632690425ZM5.293463205318451,55.62292663269043L16.47988320531845,55.62292663269043Q16.97378320531845,46.899826632690434,13.94348320531845,40.01052663269043Q9.936793205318452,30.90135563269043,1.016162205318451,30.45459063269043Q4.268873205318451,35.93028663269043,5.282163205318451,42.010026632690426Q5.7268032053184506,44.677826632690426,5.399333205318451,52.56732663269043Q5.307483205318451,54.78002663269043,5.293463205318451,55.62292663269043Z" fill-rule="evenodd" fill="#000000" fill-opacity="1"/></g><g transform="matrix(-1,0,0,1,111.84485626220703,0)"><path d="M60.20091813110351,42.092226632690426C59.356258131103516,37.02424663269043,57.49462813110352,33.22752663269043,55.99352153110352,30.70202263269043C55.79286713110351,30.36443563269043,56.04136513110352,29.93502183269043,56.433612131103516,29.95425013669043C70.34262813110351,30.636082632690428,72.88432813110352,46.98232663269043,72.39032813110352,55.664126632690426C72.37542813110352,55.92602663269043,72.15762813110351,56.12292663269043,71.89532813110351,56.12292663269043C71.89532813110351,56.12292663269043,60.70091813110351,56.12292663269043,60.70091813110351,56.12292663269043C60.424778131103515,56.12292663269043,60.20081813110352,55.901726632690426,60.20529813110352,55.62562663269043C60.25933813110352,52.29182663269043,60.78527813110352,45.59832663269043,60.20091813110351,42.092226632690426C60.20091813110351,42.092226632690426,60.20091813110351,42.092226632690426,60.20091813110351,42.092226632690426Z" fill="#FFCF00" fill-opacity="1"/><path d="M59.81213813110352,52.525826632690425Q59.71917813110352,54.765426632690435,59.705358131103516,55.61752663269043Q59.698568131103514,56.03602663269043,59.99458813110351,56.33162663269043Q60.28631813110351,56.62292663269043,60.70091813110351,56.62292663269043L71.89532813110351,56.62292663269043Q72.83652813110352,56.62292663269043,72.88952813110352,55.69252663269043Q73.39992813110351,46.72202663269043,70.27072813110351,39.60788663269043Q66.01092813110351,29.92313893269043,56.458094131103515,29.45484963269043Q55.861629831103514,29.42561063269043,55.55964313110351,29.94187593269043Q55.26224613110352,30.45029363269043,55.563712131103514,30.95748663269043Q58.72454813110352,36.27538663269043,59.70771813110352,42.17442663269043Q60.13531813110352,44.73992663269043,59.81213813110352,52.525826632690425ZM60.70540813110352,55.62292663269043L71.89182813110352,55.62292663269043Q72.38572813110352,46.899826632690434,69.35542813110351,40.01052663269043Q65.34873813110352,30.90135563269043,56.428107131103516,30.45459063269043Q59.680818131103514,35.93028663269043,60.69410813110352,42.010026632690426Q61.13874813110351,44.677826632690426,60.81127813110351,52.56732663269043Q60.71942813110351,54.78002663269043,60.70540813110352,55.62292663269043Z" fill-rule="evenodd" fill="#000000" fill-opacity="1"/></g><g transform="matrix(0.8641666173934937,0.5032057762145996,-0.5032057762145996,0.8641666173934937,7.5766599991465,-5.6191803919256245)"><ellipse cx="20.744359016418457" cy="19.64302349090576" rx="6.547674179077148" ry="8.418437957763672" fill="#FFFFFF" fill-opacity="1"/><ellipse cx="20.744359016418457" cy="19.64302349090576" rx="6.047674179077148" ry="7.918437957763672" fill-opacity="0" stroke-opacity="1" stroke="#000000" fill="none" stroke-width="1"/></g><g transform="matrix(-0.8641665577888489,0.5032058358192444,0.5032057762145996,0.8641666173934937,71.45573017152446,-19.288480772048047)"><ellipse cx="47.90878868103027" cy="19.64302349090576" rx="6.547674179077148" ry="8.418437957763672" fill="#FFFFFF" fill-opacity="1"/><ellipse cx="47.90878868103027" cy="19.64302349090576" rx="6.047674179077148" ry="7.918437957763672" fill-opacity="0" stroke-opacity="1" stroke="#000000" fill="none" stroke-width="1"/></g><g><rect x="20.690462112426758" y="28.06146240234375" width="14.96611213684082" height="22.449169158935547" rx="4" fill="#000000" fill-opacity="1"/></g><g><path d="M28.173537807617187,28.996845245361328C25.367387807617188,28.996845245361328,23.496627807617188,30.86760524536133,23.496627807617188,31.802995245361327C23.496627807617188,32.738375245361325,25.367387807617188,33.67375524536133,28.173537807617187,33.67375524536133C30.97968780761719,33.67375524536133,32.850447807617186,32.738375245361325,32.850447807617186,31.802995245361327C32.850447807617186,30.86760524536133,30.97968780761719,28.996845245361328,28.173537807617187,28.996845245361328C28.173537807617187,28.996845245361328,28.173537807617187,28.996845245361328,28.173537807617187,28.996845245361328Z" fill="#FFFFFF" fill-opacity="1"/></g><g><path d="M33.78581063232422,44.89833507446289C33.78581063232422,47.99791507446289,31.27309063232422,49.575545074462894,28.17350063232422,49.575545074462894C25.073920632324217,49.575545074462894,22.56121063232422,47.99791507446289,22.56121063232422,44.89833507446289C22.56121063232422,41.79875507446289,24.43197063232422,39.28604507446289,28.17350063232422,39.28604507446289C31.915030632324218,39.28604507446289,33.78581063232422,42.09190507446289,33.78581063232422,44.89833507446289C33.78581063232422,44.89833507446289,33.78581063232422,44.89833507446289,33.78581063232422,44.89833507446289Z" fill="#D50B00" fill-opacity="1"/></g></g></svg>