<svg xmlns="http://www.w3.org/2000/svg" xmlns:xlink="http://www.w3.org/1999/xlink" fill="none" version="1.1" width="56.957275390625" height="57.099365234375" viewBox="0 0 56.957275390625 57.099365234375"><defs><filter id="master_svg0_0_1245" filterUnits="objectBoundingBox" color-interpolation-filters="sRGB" x="-2" y="-2" width="8.184613704681396" height="6.0652854442596436"><feFlood flood-opacity="0" result="BackgroundImageFix"/><feBlend mode="normal" in="SourceGraphic" in2="BackgroundImageFix" result="shape"/><feGaussianBlur stdDeviation="0.5" result="effect1_foregroundBlur"/></filter><filter id="master_svg1_0_1246" filterUnits="objectBoundingBox" color-interpolation-filters="sRGB" x="-2" y="-2" width="8.184613704681396" height="6.0652854442596436"><feFlood flood-opacity="0" result="BackgroundImageFix"/><feBlend mode="normal" in="SourceGraphic" in2="BackgroundImageFix" result="shape"/><feGaussianBlur stdDeviation="0.5" result="effect1_foregroundBlur"/></filter></defs><g><g><path d="M28.268317646484377,0.8377560703125C28.268317646484377,0.8377560703125,24.333587646484375,12.2978220703125,24.333587646484375,12.2978220703125C24.333587646484375,12.2978220703125,33.754697646484374,12.2978220703125,33.754697646484374,12.2978220703125C33.754697646484374,12.2978220703125,29.206067646484374,0.8159760703125001,29.206067646484374,0.8159760703125001C29.035037646484376,0.3842400703125,28.419117646484374,0.3985490703125,28.268317646484377,0.8377560703125C28.268317646484377,0.8377560703125,28.268317646484377,0.8377560703125,28.268317646484377,0.8377560703125Z" fill="#FFEF32" fill-opacity="1"/><path d="M29.670917646484376,0.6318270703125L29.670917646484376,0.6318210703125Q29.414377646484375,-0.015778929687500054,28.717997646484374,0.0003970703125000252Q28.021617646484376,0.016573070312499993,27.795417646484374,0.6753870703125L23.633266646484376,12.7978220703125L34.49058764648437,12.7978220703125L29.670917646484376,0.6318270703125ZM25.033908646484374,11.7978220703125L28.741217646484376,1.0001250703125L33.018807646484376,11.7978220703125L25.033908646484374,11.7978220703125Z" fill-rule="evenodd" fill="#000000" fill-opacity="1"/></g><g transform="matrix(0,-1,1,0,-32.94925308227539,33.94949722290039)"><path d="M4.4348520703125,33.78700915258789C4.4348520703125,33.78700915258789,0.5001220703125,45.24707515258789,0.5001220703125,45.24707515258789C0.5001220703125,45.24707515258789,9.9212320703125,45.24707515258789,9.9212320703125,45.24707515258789C9.9212320703125,45.24707515258789,5.3726020703125,33.76522915258789,5.3726020703125,33.76522915258789C5.2015720703125,33.33349315258789,4.5856520703125,33.34780215258789,4.4348520703125,33.78700915258789C4.4348520703125,33.78700915258789,4.4348520703125,33.78700915258789,4.4348520703125,33.78700915258789Z" fill="#FFEF32" fill-opacity="1"/><path d="M5.8374520703125,33.58108015258789L5.8374520703125,33.58107415258789Q5.5809120703125,32.93347415258789,4.8845320703125,32.94965015258789Q4.1881520703124995,32.965826152587894,3.9619520703125,33.624640152587894L-0.20019892968749997,45.74707515258789L10.6571220703125,45.74707515258789L5.8374520703125,33.58108015258789ZM1.2004430703125,44.74707515258789L4.9077520703125,33.94937815258789L9.1853420703125,44.74707515258789L1.2004430703125,44.74707515258789Z" fill-rule="evenodd" fill="#000000" fill-opacity="1"/></g><g transform="matrix(0.6959965229034424,-0.7180451154708862,0.7180451154708862,0.6959965229034424,-7.462017185295963,7.740662503820545)"><path d="M9.34530300567627,13.020472439941406C9.34530300567627,13.020472439941406,5.4105730056762695,24.480538439941405,5.4105730056762695,24.480538439941405C5.4105730056762695,24.480538439941405,14.83168300567627,24.480538439941405,14.83168300567627,24.480538439941405C14.83168300567627,24.480538439941405,10.283053005676269,12.998692439941406,10.283053005676269,12.998692439941406C10.11202300567627,12.566956439941407,9.49610300567627,12.581265439941406,9.34530300567627,13.020472439941406C9.34530300567627,13.020472439941406,9.34530300567627,13.020472439941406,9.34530300567627,13.020472439941406Z" fill="#FFEF32" fill-opacity="1"/><path d="M10.74790300567627,12.814543439941406L10.74790300567627,12.814537439941406Q10.49136300567627,12.166937439941407,9.794983005676269,12.183113439941406Q9.098603005676269,12.199289439941406,8.872403005676269,12.858103439941406L4.71025200567627,24.980538439941405L15.56757300567627,24.980538439941405L10.74790300567627,12.814543439941406ZM6.110894005676269,23.980538439941405L9.81820300567627,13.182841439941406L14.095793005676269,23.980538439941405L6.110894005676269,23.980538439941405Z" fill-rule="evenodd" fill="#000000" fill-opacity="1"/></g><g transform="matrix(-0.7180941104888916,-0.6959459781646729,0.6959459781646729,-0.7180941104888916,-15.344792638559966,98.25879990689805)"><path d="M16.16311115692139,52.57488146704102C16.16311115692139,52.57488146704102,12.228381156921387,64.03494746704102,12.228381156921387,64.03494746704102C12.228381156921387,64.03494746704102,21.649491156921385,64.03494746704102,21.649491156921385,64.03494746704102C21.649491156921385,64.03494746704102,17.100861156921386,52.55310146704102,17.100861156921386,52.55310146704102C16.929831156921388,52.12136546704102,16.313911156921385,52.135674467041014,16.16311115692139,52.57488146704102C16.16311115692139,52.57488146704102,16.16311115692139,52.57488146704102,16.16311115692139,52.57488146704102Z" fill="#FFEF32" fill-opacity="1"/><path d="M17.565711156921388,52.36895246704101L17.565711156921388,52.36894646704101Q17.309171156921387,51.721346467041016,16.612791156921386,51.73752246704102Q15.916411156921386,51.75369846704102,15.690211156921386,52.41251246704102L11.528060156921386,64.53494746704102L22.385381156921387,64.53494746704102L17.565711156921388,52.36895246704101ZM12.928702156921387,63.534947467041015L16.636011156921388,52.737250467041015L20.913601156921388,63.534947467041015L12.928702156921387,63.534947467041015Z" fill-rule="evenodd" fill="#000000" fill-opacity="1"/></g><g transform="matrix(0.9996455311775208,-0.026623522862792015,-0.026623353362083435,-0.9996455311775208,1.5150478341126927,113.79327309619036)"><path d="M28.414534992675783,56.91842928808594C28.414534992675783,56.91842928808594,24.47980499267578,68.37849528808594,24.47980499267578,68.37849528808594C24.47980499267578,68.37849528808594,33.90091499267578,68.37849528808594,33.90091499267578,68.37849528808594C33.90091499267578,68.37849528808594,29.35228499267578,56.89664928808594,29.35228499267578,56.89664928808594C29.181254992675782,56.46491328808594,28.56533499267578,56.479222288085936,28.414534992675783,56.91842928808594C28.414534992675783,56.91842928808594,28.414534992675783,56.91842928808594,28.414534992675783,56.91842928808594Z" fill="#FFEF32" fill-opacity="1"/><path d="M29.817134992675783,56.712500288085934L29.817134992675783,56.712494288085935Q29.56059499267578,56.06489428808594,28.86421499267578,56.08107028808594Q28.167834992675783,56.09724628808594,27.94163499267578,56.75606028808594L23.779483992675782,68.87849528808594L34.63680499267578,68.87849528808594L29.817134992675783,56.712500288085934ZM25.18012599267578,67.87849528808594L28.887434992675782,57.08079828808594L33.16502499267578,67.87849528808594L25.18012599267578,67.87849528808594Z" fill-rule="evenodd" fill="#000000" fill-opacity="1"/></g><g transform="matrix(0,-1,-1,0,89.90252304077148,89.90252304077148)"><path d="M60.391864246826174,33.783022793945314C60.391864246826174,33.783022793945314,56.45713424682617,45.24308879394531,56.45713424682617,45.24308879394531C56.45713424682617,45.24308879394531,65.87824424682617,45.24308879394531,65.87824424682617,45.24308879394531C65.87824424682617,45.24308879394531,61.329614246826175,33.761242793945314,61.329614246826175,33.761242793945314C61.15858424682617,33.32950679394531,60.54266424682617,33.34381579394531,60.391864246826174,33.783022793945314C60.391864246826174,33.783022793945314,60.391864246826174,33.783022793945314,60.391864246826174,33.783022793945314Z" fill="#FFEF32" fill-opacity="1"/><path d="M61.79446424682617,33.57709379394531L61.79446424682617,33.57708779394531Q61.53792424682617,32.92948779394531,60.841544246826174,32.945663793945315Q60.14516424682617,32.961839793945316,59.91896424682617,33.620653793945316L55.75681324682617,45.74308879394531L66.61413424682617,45.74308879394531L61.79446424682617,33.57709379394531ZM57.157455246826174,44.74308879394531L60.86476424682617,33.94539179394531L65.14235424682617,44.74308879394531L57.157455246826174,44.74308879394531Z" fill-rule="evenodd" fill="#000000" fill-opacity="1"/></g><g transform="matrix(0.6959965229034424,-0.7180451154708862,-0.718045175075531,-0.6959965229034424,51.44247757254652,121.50525578068391)"><path d="M49.71980232666016,52.595705899414064C49.71980232666016,52.595705899414064,45.785072326660156,64.05577189941407,45.785072326660156,64.05577189941407C45.785072326660156,64.05577189941407,55.206182326660155,64.05577189941407,55.206182326660155,64.05577189941407C55.206182326660155,64.05577189941407,50.65755232666016,52.573925899414064,50.65755232666016,52.573925899414064C50.48652232666016,52.14218989941406,49.870602326660155,52.15649889941406,49.71980232666016,52.595705899414064C49.71980232666016,52.595705899414064,49.71980232666016,52.595705899414064,49.71980232666016,52.595705899414064Z" fill="#FFEF32" fill-opacity="1"/><path d="M51.12240232666016,52.38977689941406L51.12240232666016,52.38977089941406Q50.86586232666016,51.74217089941406,50.16948232666016,51.758346899414065Q49.473102326660154,51.774522899414066,49.246902326660155,52.433336899414066L45.084751326660154,64.55577189941407L55.94207232666015,64.55577189941407L51.12240232666016,52.38977689941406ZM46.48539332666016,63.55577189941406L50.192702326660154,52.75807489941406L54.47029232666016,63.55577189941406L46.48539332666016,63.55577189941406Z" fill-rule="evenodd" fill="#000000" fill-opacity="1"/></g><g transform="matrix(-0.7180941104888916,-0.6959459781646729,-0.6959459185600281,0.7180941700935364,98.12942473741197,39.74914870214599)"><path d="M56.19147057006836,12.33199492376709C56.19147057006836,12.33199492376709,52.25674057006836,23.79206092376709,52.25674057006836,23.79206092376709C52.25674057006836,23.79206092376709,61.67785057006836,23.79206092376709,61.67785057006836,23.79206092376709C61.67785057006836,23.79206092376709,57.12922057006836,12.31021492376709,57.12922057006836,12.31021492376709C56.95819057006836,11.87847892376709,56.34227057006836,11.89278792376709,56.19147057006836,12.33199492376709C56.19147057006836,12.33199492376709,56.19147057006836,12.33199492376709,56.19147057006836,12.33199492376709Z" fill="#FFEF32" fill-opacity="1"/><path d="M57.59407057006836,12.12606592376709L57.59407057006836,12.12605992376709Q57.33753057006836,11.47845992376709,56.64115057006836,11.49463592376709Q55.94477057006836,11.51081192376709,55.71857057006836,12.16962592376709L51.55641957006836,24.29206092376709L62.413740570068356,24.29206092376709L57.59407057006836,12.12606592376709ZM52.95706157006836,23.29206092376709L56.66437057006836,12.49436392376709L60.94196057006836,23.29206092376709L52.95706157006836,23.29206092376709Z" fill-rule="evenodd" fill="#000000" fill-opacity="1"/></g><g><ellipse cx="28.39040184020996" cy="28.904664993286133" rx="18.071086883544922" ry="18.071086883544922" fill="#FFEF32" fill-opacity="1"/><ellipse cx="28.39040184020996" cy="28.904664993286133" rx="18.571086883544922" ry="18.571086883544922" fill-opacity="0" stroke-opacity="1" stroke="#000000" fill="none" stroke-width="1"/></g><g><ellipse cx="35.786672830581665" cy="26.87264657020569" rx="2.0320990085601807" ry="2.0320990085601807" fill="#000000" fill-opacity="1"/></g><g><ellipse cx="21.343488931655884" cy="26.87264657020569" rx="2.0320990085601807" ry="2.0320990085601807" fill="#000000" fill-opacity="1"/></g><g><path d="M24.762119001464843,32.8954243223877C24.705106001464845,32.6252313223877,24.439854001464845,32.4524145223877,24.169661001464842,32.5094265223877C23.899468001464843,32.5664395223877,23.726651201464843,32.8316913223877,23.783663201464844,33.1018843223877C23.783663201464844,33.1018843223877,24.762119001464843,32.8954243223877,24.762119001464843,32.8954243223877C24.762119001464843,32.8954243223877,24.762119001464843,32.8954243223877,24.762119001464843,32.8954243223877ZM33.17867900146484,33.0702233223877C33.218199001464846,32.796924322387696,33.02868900146484,32.543329522387694,32.75538900146484,32.503803572387696C32.482099001464846,32.46427652238769,32.22849900146484,32.653786322387695,32.18896900146484,32.9270853223877C32.18896900146484,32.9270853223877,33.17867900146484,33.0702233223877,33.17867900146484,33.0702233223877C33.17867900146484,33.0702233223877,33.17867900146484,33.0702233223877,33.17867900146484,33.0702233223877ZM24.272891001464842,32.998654322387694C23.783663201464844,33.1018843223877,23.783706201464845,33.1020843223877,23.783752201464843,33.102301322387696C23.783772201464842,33.1023963223877,23.783821201464843,33.10262932238769,23.783861201464845,33.1028183223877C23.783941201464845,33.1031953223877,23.784036201464843,33.103638322387695,23.784145201464845,33.10414632238769C23.784362201464845,33.105161322387694,23.784637201464843,33.1064373223877,23.784970201464844,33.107969322387696C23.785636201464843,33.111034322387695,23.786536201464845,33.11512432238769,23.787674201464842,33.12020732238769C23.789951201464845,33.13037232238769,23.793187201464843,33.144513322387695,23.797433201464845,33.16236832238769C23.805924301464845,33.198066322387696,23.818469201464843,33.248668322387694,23.835489201464842,33.312054322387695C23.869498301464844,33.4387163223877,23.921541001464846,33.617062322387696,23.995034001464845,33.83000232238769C24.141434001464845,34.25416232238769,24.375934001464845,34.8243123223877,24.728252001464845,35.398892322387695C25.429899001464843,36.5431723223877,26.650829001464842,37.777812322387696,28.617979001464843,37.782312322387696C28.617979001464843,37.782312322387696,28.620269001464845,36.78232232238769,28.620269001464845,36.78232232238769C27.143399001464843,36.77894232238769,26.191219001464844,35.871742322387696,25.580749001464845,34.87616232238769C25.277009001464844,34.3808123223877,25.070709001464845,33.881522322387696,24.940319001464843,33.503742322387694C24.875409001464845,33.31569732238769,24.830069001464842,33.15993632238769,24.801279001464845,33.0527353223877C24.786899001464842,32.99918932238769,24.776699001464845,32.9579213223877,24.770295001464845,32.930983322387696C24.767093001464843,32.91751832238769,24.764842001464842,32.9076493223877,24.763494001464842,32.901633322387696C24.762821001464843,32.898625322387694,24.762373001464844,32.8965833223877,24.762146001464842,32.895537322387696C24.762032001464842,32.895014322387695,24.761974001464843,32.8947403223877,24.761969001464845,32.8947203223877C24.761967001464843,32.894710322387695,24.761979001464844,32.894763322387696,24.762003001464844,32.8948813223877C24.762016001464843,32.89493932238769,24.762045001464845,32.8950753223877,24.762051001464844,32.895104322387695C24.762083001464845,32.895256322387695,24.762119001464843,32.8954243223877,24.272891001464842,32.998654322387694C24.272891001464842,32.998654322387694,24.272891001464842,32.998654322387694,24.272891001464842,32.998654322387694ZM28.617979001464843,37.782312322387696C30.595819001464843,37.7868423223877,31.749589001464845,36.54018232238769,32.38175900146484,35.3831823223877C32.698159001464845,34.804112322387695,32.89592900146484,34.2297523223877,33.014709001464844,33.803212322387694C33.074369001464845,33.5889723223877,33.11478900146484,33.4095013223877,33.14052900146484,33.2820303223877C33.15341900146484,33.218234322387694,33.162659001464846,33.167283322387696,33.16882900146484,33.131311322387695C33.17190900146484,33.113319322387696,33.174229001464845,33.0990583223877,33.17584900146484,33.0887923223877C33.17665900146484,33.083659322387696,33.17728900146484,33.07952332238769,33.17775900146484,33.076418322387696C33.177989001464844,33.074865322387694,33.178189001464844,33.073570322387695,33.17833900146484,33.0725363223877C33.178419001464846,33.072019322387696,33.178479001464844,33.07156732238769,33.17853900146484,33.07118232238769C33.178569001464844,33.070989322387696,33.178599001464846,33.0707493223877,33.178619001464845,33.0706533223877C33.17864900146485,33.07043032238769,33.17867900146484,33.0702233223877,32.683829001464844,32.998654322387694C32.18896900146484,32.9270853223877,32.18899900146484,32.926911322387696,32.18901900146484,32.926754322387694C32.189029001464846,32.926723322387694,32.189049001464845,32.9265813223877,32.18905900146484,32.9265193223877C32.18907900146485,32.926394322387694,32.18907900146485,32.9263333223877,32.18907900146485,32.9263363223877C32.18907900146485,32.9263423223877,32.18903900146484,32.926602322387694,32.18896900146484,32.92711232238769C32.18880900146485,32.9281323223877,32.188509001464844,32.930151322387694,32.18802900146484,32.9331383223877C32.18708900146484,32.939111322387696,32.18549900146485,32.948947322387696,32.18319900146484,32.962386322387694C32.17858900146484,32.98927432238769,32.171139001464844,33.030517322387695,32.160329001464845,33.0840523223877C32.138679001464844,33.191245322387694,32.10369900146485,33.346994322387694,32.051359001464846,33.534952322387696C31.946129001464843,33.9128423223877,31.773489001464846,34.410872322387696,31.504209001464844,34.903702322387694C30.965039001464845,35.8905023223877,30.086459001464846,36.7856723223877,28.620269001464845,36.78232232238769C28.620269001464845,36.78232232238769,28.617979001464843,37.782312322387696,28.617979001464843,37.782312322387696C28.617979001464843,37.782312322387696,28.617979001464843,37.782312322387696,28.617979001464843,37.782312322387696Z" fill="#000000" fill-opacity="1"/></g><g filter="url(#master_svg0_0_1245)"><ellipse cx="18.721331357955933" cy="31.121937155723572" rx="2.0923068523406982" ry="1.0326427221298218" fill="#FF8C71" fill-opacity="1"/></g><g filter="url(#master_svg1_0_1246)"><ellipse cx="39.010660886764526" cy="31.121937155723572" rx="2.0923068523406982" ry="1.0326427221298218" fill="#FF8C71" fill-opacity="1"/></g></g></svg>