<svg xmlns="http://www.w3.org/2000/svg" xmlns:xlink="http://www.w3.org/1999/xlink" fill="none" version="1.1" width="24" height="24" viewBox="0 0 24 24"><g><g></g><g><path d="M19.707099523162842,10.707109761581421C19.316599523162843,11.097629761581421,18.68339952316284,11.097629761581421,18.29289952316284,10.707109761581421C18.29289952316284,10.707109761581421,12.999999523162842,5.4142097615814215,12.999999523162842,5.4142097615814215C12.999999523162842,5.4142097615814215,12.999999523162842,20.99999976158142,12.999999523162842,20.99999976158142C12.999999523162842,21.55229976158142,12.552279523162841,21.99999976158142,11.999999523162842,21.99999976158142C11.447709523162843,21.99999976158142,10.999999523162842,21.55229976158142,10.999999523162842,20.99999976158142C10.999999523162842,20.99999976158142,10.999999523162842,5.4142097615814215,10.999999523162842,5.4142097615814215C10.999999523162842,5.4142097615814215,5.707109523162842,10.707109761581421,5.707109523162842,10.707109761581421C5.316579523162842,11.097629761581421,4.683416523162842,11.097629761581421,4.292893523162842,10.707109761581421C3.9023682231628416,10.316579761581421,3.9023682231628416,9.68341976158142,4.292893523162842,9.29288976158142C4.292893523162842,9.29288976158142,11.292889523162842,2.2928927615814207,11.292889523162842,2.2928927615814207C11.683419523162842,1.9023687615814209,12.316579523162842,1.9023687615814209,12.707109523162842,2.2928927615814207C12.707109523162842,2.2928927615814207,19.707099523162842,9.29288976158142,19.707099523162842,9.29288976158142C20.09759952316284,9.68341976158142,20.09759952316284,10.316579761581421,19.707099523162842,10.707109761581421C19.707099523162842,10.707109761581421,19.707099523162842,10.707109761581421,19.707099523162842,10.707109761581421Z" fill-rule="evenodd" fill="#212529" fill-opacity="1"/></g></g></svg>