<svg xmlns="http://www.w3.org/2000/svg" xmlns:xlink="http://www.w3.org/1999/xlink" fill="none" version="1.1" width="24" height="24" viewBox="0 0 24 24"><g><g></g><g><path d="M4.292893953674317,13.292899284744262C4.683418953674316,12.902399284744263,5.3165809536743165,12.902399284744263,5.7071109536743165,13.292899284744262C5.7071109536743165,13.292899284744262,11.000000953674316,18.58579928474426,11.000000953674316,18.58579928474426C11.000000953674316,18.58579928474426,11.000000953674316,2.9999992847442627,11.000000953674316,2.9999992847442627C11.000000953674316,2.4477152847442625,11.447720953674317,1.9999992123208628,12.000000953674316,1.9999992847442716C12.552290953674316,1.9999993571676626,13.000000953674316,2.4477152847442625,13.000000953674316,2.9999992847442627C13.000000953674316,2.9999992847442627,13.000000953674316,18.58579928474426,13.000000953674316,18.58579928474426C13.000000953674316,18.58579928474426,18.292900953674316,13.292899284744262,18.292900953674316,13.292899284744262C18.683400953674315,12.902399284744263,19.316600953674318,12.902399284744263,19.707100953674317,13.292899284744262C20.097600953674316,13.683399284744263,20.097600953674316,14.316599284744262,19.707100953674317,14.707099284744263C19.707100953674317,14.707099284744263,12.707110953674317,21.707099284744263,12.707110953674317,21.707099284744263C12.316580953674316,22.097599284744263,11.683420953674316,22.097599284744263,11.292890953674316,21.707099284744263C11.292890953674316,21.707099284744263,4.292893953674317,14.707099284744263,4.292893953674317,14.707099284744263C3.9023699536743166,14.316599284744262,3.9023699536743166,13.683399284744263,4.292893953674317,13.292899284744262C4.292893953674317,13.292899284744262,4.292893953674317,13.292899284744262,4.292893953674317,13.292899284744262Z" fill-rule="evenodd" fill="#212529" fill-opacity="1"/></g></g></svg>