<svg xmlns="http://www.w3.org/2000/svg" xmlns:xlink="http://www.w3.org/1999/xlink" fill="none" version="1.1" width="24" height="24" viewBox="0 0 24 24"><g><g></g><g><path d="M10.70710988079071,4.292893C11.097629880790711,4.683417,11.097629880790711,5.31658,10.70710988079071,5.70711C10.70710988079071,5.70711,5.414209880790711,11,5.414209880790711,11C5.414209880790711,11,20.99999988079071,11,20.99999988079071,11C21.55229988079071,11,21.99999988079071,11.44772,21.99999988079071,12C21.99999988079071,12.55228,21.55229988079071,13,20.99999988079071,13C20.99999988079071,13,5.414209880790711,13,5.414209880790711,13C5.414209880790711,13,10.70710988079071,18.2929,10.70710988079071,18.2929C11.097629880790711,18.6834,11.097629880790711,19.3166,10.70710988079071,19.7071C10.31657988079071,20.0976,9.68341988079071,20.0976,9.29288988079071,19.7071C9.29288988079071,19.7071,2.2928928807907103,12.70711,2.2928928807907103,12.70711C1.9023688807907104,12.31658,1.9023688807907104,11.68342,2.2928928807907103,11.29289C2.2928928807907103,11.29289,9.29288988079071,4.292893,9.29288988079071,4.292893C9.68341988079071,3.902369,10.31657988079071,3.902369,10.70710988079071,4.292893C10.70710988079071,4.292893,10.70710988079071,4.292893,10.70710988079071,4.292893Z" fill-rule="evenodd" fill="#212529" fill-opacity="1"/></g></g></svg>