<svg xmlns="http://www.w3.org/2000/svg" xmlns:xlink="http://www.w3.org/1999/xlink" fill="none" version="1.1" width="24" height="24" viewBox="0 0 24 24"><g><g></g><g><path d="M13.29289964237213,19.7071C12.902399642372131,19.3166,12.902399642372131,18.6834,13.29289964237213,18.2929C13.29289964237213,18.2929,18.58579964237213,13,18.58579964237213,13C18.58579964237213,13,2.9999996423721313,13,2.9999996423721313,13C2.447715642372131,13,1.9999995940898314,12.55228,1.9999996423721353,12C1.9999996906544313,11.44771,2.447715642372131,11,2.9999996423721313,11C2.9999996423721313,11,18.58579964237213,11,18.58579964237213,11C18.58579964237213,11,13.29289964237213,5.70711,13.29289964237213,5.70711C12.902399642372131,5.31658,12.902399642372131,4.683417,13.29289964237213,4.292894C13.683399642372132,3.9023687,14.31659964237213,3.9023687,14.707099642372132,4.292894C14.707099642372132,4.292894,21.707099642372132,11.29289,21.707099642372132,11.29289C22.09759964237213,11.68342,22.09759964237213,12.31658,21.707099642372132,12.70711C21.707099642372132,12.70711,14.707099642372132,19.7071,14.707099642372132,19.7071C14.31659964237213,20.0976,13.683399642372132,20.0976,13.29289964237213,19.7071C13.29289964237213,19.7071,13.29289964237213,19.7071,13.29289964237213,19.7071Z" fill-rule="evenodd" fill="#212529" fill-opacity="1"/></g></g></svg>