<svg xmlns="http://www.w3.org/2000/svg" xmlns:xlink="http://www.w3.org/1999/xlink" fill="none" version="1.1" width="24" height="24" viewBox="0 0 24 24"><g><g></g><g><path d="M17,9.999999087066652C17,9.999999087066652,20.2764,8.00002908706665,20.2764,8.00002908706665C20.6088,7.83379908706665,21,8.075549087066651,21,8.44723908706665C21,8.44723908706665,21,15.55282908706665,21,15.55282908706665C21,15.92452908706665,20.6088,16.16622908706665,20.2764,16.00002908706665C20.2764,16.00002908706665,17,13.99999908706665,17,13.99999908706665C17,13.99999908706665,17,9.999999087066652,17,9.999999087066652C17,9.999999087066652,17,9.999999087066652,17,9.999999087066652ZM3,9.999999087066652C3,7.11437908706665,3,6.17159908706665,3.585786,5.58581508706665C4.17157,5.00002908706665,5.114380000000001,5.00002908706665,7,5.00002908706665C7,5.00002908706665,12,5.00002908706665,12,5.00002908706665C13.8856,5.00002908706665,14.8284,5.00002908706665,15.4142,5.58581508706665C16,6.17159908706665,16,7.11437908706665,16,9.999999087066652C16,9.999999087066652,16,13.99999908706665,16,13.99999908706665C16,16.88562908706665,16,17.828429087066652,15.4142,18.41422908706665C14.8284,19.00002908706665,13.8856,19.00002908706665,12,19.00002908706665C12,19.00002908706665,7,19.00002908706665,7,19.00002908706665C5.114380000000001,19.00002908706665,4.17157,19.00002908706665,3.585786,18.41422908706665C3,17.828429087066652,3,16.88562908706665,3,13.99999908706665C3,13.99999908706665,3,9.999999087066652,3,9.999999087066652C3,9.999999087066652,3,9.999999087066652,3,9.999999087066652Z" fill="#212529" fill-opacity="1"/></g></g></svg>