<svg xmlns="http://www.w3.org/2000/svg" xmlns:xlink="http://www.w3.org/1999/xlink" fill="none" version="1.1" width="24" height="24" viewBox="0 0 24 24"><g><g></g><g><path d="M20.581282118606566,4.186266275543213C21.030682118606567,4.507275275543213,21.134782118606566,5.131822275543213,20.813782118606568,5.581242275543213C20.813782118606568,5.581242275543213,10.813742118606568,19.58122227554321,10.813742118606568,19.58122227554321C10.635072118606567,19.83142227554321,10.351282118606568,19.985422275543215,10.044182118606567,19.99902227554321C9.737082118606567,20.01262227554321,9.440802118606568,19.884222275543213,9.240752118606569,19.650822275543213C9.240752118606569,19.650822275543213,3.2407441186065675,12.650792275543212,3.2407441186065675,12.650792275543212C2.881322118606567,12.231462275543214,2.9298825186065676,11.600162275543212,3.349208118606567,11.240742275543212C3.7685341186065675,10.881322275543212,4.399832118606567,10.929882275543214,4.759252118606567,11.349212275543213C4.759252118606567,11.349212275543213,9.928362118606568,17.379822275543212,9.928362118606568,17.379822275543212C9.928362118606568,17.379822275543212,19.186282118606567,4.418762275543213,19.186282118606567,4.418762275543213C19.507282118606568,3.9693493755432128,20.131782118606566,3.865257275543213,20.581282118606566,4.186266275543213C20.581282118606566,4.186266275543213,20.581282118606566,4.186266275543213,20.581282118606566,4.186266275543213Z" fill-rule="evenodd" fill="#212529" fill-opacity="1"/></g></g></svg>