<svg xmlns="http://www.w3.org/2000/svg" xmlns:xlink="http://www.w3.org/1999/xlink" fill="none" version="1.1" width="24" height="24" viewBox="0 0 24 24"><g><g></g><g transform="matrix(0,1,-1,0,19.99999976158142,-14.000000238418579)"><path d="M34.7071,3.292893761581421C35.0976,3.683417761581421,35.0976,4.316579761581421,34.7071,4.707109761581421C34.7071,4.707109761581421,26.70711,12.707109761581421,26.70711,12.707109761581421C26.51957,12.894639761581422,26.26522,12.999999761581421,26,12.999999761581421C25.73478,12.999999761581421,25.48043,12.894639761581422,25.29289,12.707109761581421C25.29289,12.707109761581421,17.292893,4.707109761581421,17.292893,4.707109761581421C16.902369,4.316579761581421,16.902369,3.683416761581421,17.292893,3.2928927615814207C17.683419,2.902368761581421,18.316580000000002,2.902368761581421,18.70711,3.2928927615814207C18.70711,3.2928927615814207,26,10.58578976158142,26,10.58578976158142C26,10.58578976158142,33.2929,3.292893761581421,33.2929,3.292893761581421C33.6834,2.902369461581421,34.3166,2.902369461581421,34.7071,3.292893761581421C34.7071,3.292893761581421,34.7071,3.292893761581421,34.7071,3.292893761581421Z" fill-rule="evenodd" fill="#212529" fill-opacity="1"/></g></g></svg>