<svg xmlns="http://www.w3.org/2000/svg" xmlns:xlink="http://www.w3.org/1999/xlink" fill="none" version="1.1" width="24" height="24" viewBox="0 0 24 24"><g><g></g><g><path d="M20.707099523162842,7.292893523162842C21.09759952316284,7.683417523162841,21.09759952316284,8.316579523162842,20.707099523162842,8.707109523162842C20.707099523162842,8.707109523162842,12.707109523162842,16.707109523162842,12.707109523162842,16.707109523162842C12.519569523162842,16.894639523162844,12.265219523162841,16.999999523162842,11.999999523162842,16.999999523162842C11.734779523162842,16.999999523162842,11.480429523162842,16.894639523162844,11.292889523162842,16.707109523162842C11.292889523162842,16.707109523162842,3.2928925231628416,8.707109523162842,3.2928925231628416,8.707109523162842C2.902368523162842,8.316579523162842,2.902368523162842,7.683416523162842,3.2928925231628416,7.292892523162842C3.6834185231628416,6.902368523162842,4.316579523162842,6.902368523162842,4.707109523162842,7.292892523162842C4.707109523162842,7.292892523162842,11.999999523162842,14.585789523162841,11.999999523162842,14.585789523162841C11.999999523162842,14.585789523162841,19.29289952316284,7.292893523162842,19.29289952316284,7.292893523162842C19.68339952316284,6.902369223162842,20.316599523162843,6.902369223162842,20.707099523162842,7.292893523162842C20.707099523162842,7.292893523162842,20.707099523162842,7.292893523162842,20.707099523162842,7.292893523162842Z" fill-rule="evenodd" fill="#212529" fill-opacity="1"/></g></g></svg>