<svg xmlns="http://www.w3.org/2000/svg" xmlns:xlink="http://www.w3.org/1999/xlink" fill="none" version="1.1" width="24" height="24" viewBox="0 0 24 24"><g><g></g><g><path d="M7.292893,3.292893C7.683417,2.902369,8.31658,2.902369,8.70711,3.292893C8.70711,3.292893,16.70711,11.29289,16.70711,11.29289C16.894640000000003,11.48043,17,11.73478,17,12C17,12.26522,16.894640000000003,12.51957,16.70711,12.70711C16.70711,12.70711,8.70711,20.7071,8.70711,20.7071C8.31658,21.0976,7.683417,21.0976,7.292893,20.7071C6.902369,20.3166,6.902369,19.6834,7.292893,19.2929C7.292893,19.2929,14.58579,12,14.58579,12C14.58579,12,7.292893,4.70711,7.292893,4.70711C6.902369,4.31658,6.902369,3.683418,7.292893,3.292893C7.292893,3.292893,7.292893,3.292893,7.292893,3.292893Z" fill-rule="evenodd" fill="#212529" fill-opacity="1"/></g></g></svg>