<svg xmlns="http://www.w3.org/2000/svg" xmlns:xlink="http://www.w3.org/1999/xlink" fill="none" version="1.1" width="24" height="24" viewBox="0 0 24 24"><g><g></g><g transform="matrix(-1,-8.742277657347586e-8,8.742277657347586e-8,-1,41.9999985138128,34.00000183587831)"><path d="M38.7071,17.292894C39.0976,17.683418,39.0976,18.316580000000002,38.7071,18.70711C38.7071,18.70711,30.70711,26.70711,30.70711,26.70711C30.51957,26.894640000000003,30.26522,27,30,27C29.73478,27,29.48043,26.894640000000003,29.29289,26.70711C29.29289,26.70711,21.292893,18.70711,21.292893,18.70711C20.902369,18.316580000000002,20.902369,17.683417,21.292893,17.292893C21.683419,16.902369,22.316580000000002,16.902369,22.70711,17.292893C22.70711,17.292893,30,24.58579,30,24.58579C30,24.58579,37.2929,17.292894,37.2929,17.292894C37.6834,16.9023697,38.3166,16.9023697,38.7071,17.292894C38.7071,17.292894,38.7071,17.292894,38.7071,17.292894Z" fill-rule="evenodd" fill="#212529" fill-opacity="1"/></g></g></svg>