<svg xmlns="http://www.w3.org/2000/svg" xmlns:xlink="http://www.w3.org/1999/xlink" fill="none" version="1.1" width="24" height="24" viewBox="0 0 24 24"><g><g></g><g><path d="M12,5C10.34315,5,9,6.34315,9,8C9,8,9,12.90476,9,12.90476C9,13.457,8.55228,13.9048,8,13.9048C7.447715,13.9048,7,13.457,7,12.90476C7,12.90476,7,8,7,8C7,5.23858,9.238579999999999,3,12,3C14.761420000000001,3,17,5.23858,17,8C17,8,17,18,17,18C17,19.6569,15.65685,21,14,21C12.34315,21,11,19.6569,11,18C11,18,11,9.57143,11,9.57143C11,9.01914,11.44772,8.57143,12,8.57143C12.55228,8.57143,13,9.01915,13,9.57143C13,9.57143,13,18,13,18C13,18.552300000000002,13.44772,19,14,19C14.55228,19,15,18.552300000000002,15,18C15,18,15,8,15,8C15,6.34315,13.65685,5,12,5C12,5,12,5,12,5Z" fill-rule="evenodd" fill="#ADB5BD" fill-opacity="1"/></g></g></svg>