<svg xmlns="http://www.w3.org/2000/svg" xmlns:xlink="http://www.w3.org/1999/xlink" fill="none" version="1.1" width="24" height="24" viewBox="0 0 24 24"><g><g></g><g><path d="M4.292893,4.292893C4.683417,3.902369,5.31658,3.902369,5.70711,4.292893C5.70711,4.292893,12,10.58579,12,10.58579C12,10.58579,18.2929,4.292893,18.2929,4.292893C18.6834,3.902369,19.3166,3.902369,19.7071,4.292893C20.0976,4.683417,20.0976,5.31658,19.7071,5.70711C19.7071,5.70711,13.41421,12,13.41421,12C13.41421,12,19.7071,18.2929,19.7071,18.2929C20.0976,18.6834,20.0976,19.3166,19.7071,19.7071C19.3166,20.0976,18.6834,20.0976,18.2929,19.7071C18.2929,19.7071,12,13.41421,12,13.41421C12,13.41421,5.70711,19.7071,5.70711,19.7071C5.31658,20.0976,4.683417,20.0976,4.292893,19.7071C3.902369,19.3166,3.902369,18.6834,4.292893,18.2929C4.292893,18.2929,10.58579,12,10.58579,12C10.58579,12,4.292893,5.70711,4.292893,5.70711C3.902369,5.31658,3.902369,4.683417,4.292893,4.292893C4.292893,4.292893,4.292893,4.292893,4.292893,4.292893Z" fill-rule="evenodd" fill="#212529" fill-opacity="1"/></g></g></svg>