<svg xmlns="http://www.w3.org/2000/svg" xmlns:xlink="http://www.w3.org/1999/xlink" fill="none" version="1.1" width="24" height="24" viewBox="0 0 24 24"><g><g></g><g><path d="M3,4C3,3.447715,3.447715,3,4,3L11,3C11.55228,3,12,3.447715,12,4C12,4.55228,11.55228,5,11,5L5,5L5,11C5,11.55228,4.55228,12,4,12C3.447715,12,3,11.55228,3,11L3,4ZM19.3378,4.66223C18.4548,3.779256,17.0232,3.779256,16.1402,4.66223L11.34395,9.45852L14.5415,12.65604L19.3378,7.85976C20.2207,6.97678,20.2207,5.5451999999999995,19.3378,4.66223ZM10.54458,10.2579L13.7421,13.4554L8.94581,18.2517L5.74829,15.0542L10.54458,10.2579ZM20,12C20.5523,12,21,12.44771,21,13L21,20C21,20.5523,20.5523,21,20,21L13,21C12.44771,21,12,20.5523,12,20C12,19.4477,12.44771,19,13,19L19,19L19,13C19,12.44771,19.4477,12,20,12ZM4.94891,15.8536L8.146429999999999,19.0511L4.6875599999999995,19.9776C4.25539,20.0933,3.906677,19.7446,4.02244,19.3124L4.94891,15.8536Z" fill-rule="evenodd" fill="#212529" fill-opacity="1"/></g></g></svg>