<svg xmlns="http://www.w3.org/2000/svg" xmlns:xlink="http://www.w3.org/1999/xlink" fill="none" version="1.1" width="24" height="24" viewBox="0 0 24 24"><g><g></g><g><path d="M12,21C16.970599999999997,21,21,16.970599999999997,21,12C21,7.02944,16.970599999999997,3,12,3C7.02944,3,3,7.02944,3,12C3,16.970599999999997,7.02944,21,12,21C12,21,12,21,12,21ZM14.002,10.27395C14.043,9.00706,14.698,8,15.5,8C16.302,8,16.957,9.00706,16.997999999999998,10.27395C17.0004,10.35004,16.9536,10.41854,16.883,10.446819999999999C15.9952,10.801929999999999,15.0048,10.801929999999999,14.117,10.446819999999999C14.0464,10.41854,13.9996,10.35004,14.002,10.27395C14.002,10.27395,14.002,10.27395,14.002,10.27395ZM8.5,8C7.70405,8,7.05289,8.99193,7.00306,10.245339999999999C6.999359999999999,10.33861,7.05683,10.42273,7.1435,10.4574C8.014289999999999,10.80572,8.985710000000001,10.80572,9.8565,10.4574C9.94317,10.42273,10.00064,10.33861,9.99694,10.245339999999999C9.94711,8.99193,9.295950000000001,8,8.5,8C8.5,8,8.5,8,8.5,8ZM16.9904,13.3121C16.8293,15.9281,14.6566,18,12,18C9.34339,18,7.1707,15.9281,7.00958,13.3121C7.0036,13.215,7.15776,13.1448,7.23977,13.1971C7.69647,13.4885,8.93478,14,12,14C15.0652,14,16.3035,13.4885,16.760199999999998,13.1971C16.8422,13.1448,16.9964,13.215,16.9904,13.3121C16.9904,13.3121,16.9904,13.3121,16.9904,13.3121Z" fill-rule="evenodd" fill="#212529" fill-opacity="1"/></g></g></svg>