<svg xmlns="http://www.w3.org/2000/svg" xmlns:xlink="http://www.w3.org/1999/xlink" fill="none" version="1.1" width="24" height="24" viewBox="0 0 24 24"><g><g></g><g><path d="M6.292893,4.292893C6,4.585786,6,5.05719,6,6C6,6,6,18,6,18C6,18.9428,6,19.4142,6.292893,19.7071C6.585786,20,7.05719,20,8,20C8,20,9,20,9,20C9.94281,20,10.41421,20,10.70711,19.7071C11,19.4142,11,18.9428,11,18C11,18,11,6,11,6C11,5.05719,11,4.585786,10.70711,4.292893C10.41421,4,9.94281,4,9,4C9,4,8,4,8,4C7.05719,4,6.585786,4,6.292893,4.292893C6.292893,4.292893,6.292893,4.292893,6.292893,4.292893ZM13.29289,4.292893C13,4.585786,13,5.05719,13,6C13,6,13,18,13,18C13,18.9428,13,19.4142,13.29289,19.7071C13.58579,20,14.05719,20,15,20C15,20,16,20,16,20C16.9428,20,17.4142,20,17.7071,19.7071C18,19.4142,18,18.9428,18,18C18,18,18,6,18,6C18,5.05719,18,4.585786,17.7071,4.292893C17.4142,4,16.9428,4,16,4C16,4,15,4,15,4C14.05719,4,13.58579,4,13.29289,4.292893C13.29289,4.292893,13.29289,4.292893,13.29289,4.292893Z" fill="#212529" fill-opacity="1"/></g></g></svg>