<svg xmlns="http://www.w3.org/2000/svg" xmlns:xlink="http://www.w3.org/1999/xlink" fill="none" version="1.1" width="24" height="24" viewBox="0 0 24 24"><g><g></g><g><path d="M5.04145,11.927210476837157C3.74121,10.231560476837158,3.676306,7.927620476837158,4.746916,6.078390476837159C4.746916,6.078390476837159,5.54496,4.699964476837158,5.54496,4.699964476837158C6.05586,3.8174924768371583,7.30777,3.7576994768371583,7.90046,4.587460476837158C7.90046,4.587460476837158,9.25467,6.4833604768371575,9.25467,6.4833604768371575C9.67437,7.070940476837158,9.71836,7.847620476837158,9.36769,8.478830476837159C9.36769,8.478830476837159,8.8025,9.496170476837158,8.8025,9.496170476837158C8.49833,10.043670476837157,8.59396,10.726470476837157,9.03684,11.169340476837158C9.03684,11.169340476837158,12.83066,14.963200476837159,12.83066,14.963200476837159C13.27353,15.406000476837159,13.95633,15.501700476837158,14.5038,15.197500476837158C14.5038,15.197500476837158,15.5212,14.632300476837159,15.5212,14.632300476837159C16.1524,14.281600476837157,16.9291,14.325600476837158,17.5166,14.745300476837158C17.5166,14.745300476837158,19.4125,16.099500476837157,19.4125,16.099500476837157C20.2423,16.692200476837158,20.1825,17.944100476837157,19.3,18.455000476837156C19.3,18.455000476837156,17.921599999999998,19.253100476837158,17.921599999999998,19.253100476837158C16.072400000000002,20.323700476837157,13.76844,20.25880047683716,12.07279,18.95850047683716C10.85319,18.023300476837157,9.44461,16.867400476837158,8.288630000000001,15.711400476837158C7.13265,14.555400476837159,5.97666,13.146810476837159,5.04145,11.927210476837157C5.04145,11.927210476837157,5.04145,11.927210476837157,5.04145,11.927210476837157Z" fill="#212529" fill-opacity="1"/></g></g></svg>