<svg xmlns="http://www.w3.org/2000/svg" xmlns:xlink="http://www.w3.org/1999/xlink" fill="none" version="1.1" width="24" height="24" viewBox="0 0 24 24"><g><g></g><g><path d="M5,17.0509C5,17.0509,5,6.9856300000000005,5,6.9856300000000005C5,5.27775,5,4.423809,5.579447,4.105102C6.1588899999999995,3.786395,6.93027,4.216065,8.47301,5.07541C8.47301,5.07541,17.678800000000003,10.20321,17.678800000000003,10.20321C19.2299,11.0672,20.0054,11.499189999999999,20,12.14058C19.994500000000002,12.78196,19.2117,13.20182,17.6461,14.0415C17.6461,14.0415,8.44033,18.979,8.44033,18.979C6.90852,19.8006,6.14262,20.2114,5.571309,19.891199999999998C5,19.570999999999998,5,18.731,5,17.0509C5,17.0509,5,17.0509,5,17.0509Z" fill="#212529" fill-opacity="1"/></g></g></svg>