<svg xmlns="http://www.w3.org/2000/svg" xmlns:xlink="http://www.w3.org/1999/xlink" fill="none" version="1.1" width="16" height="16" viewBox="0 0 16 16"><g><g></g><g><path d="M3.3333332538604736,11.367266507720947C3.3333332538604736,11.367266507720947,3.3333332538604736,4.657086507720948,3.3333332538604736,4.657086507720948C3.3333332538604736,3.5184995077209473,3.3333332538604736,2.9492065077209473,3.7196312538604737,2.7367347077209474C4.105929253860474,2.5242625077209473,4.620173253860473,2.810709507720947,5.648673253860474,3.3836035077209474C5.648673253860474,3.3836035077209474,11.785853253860473,6.802136507720947,11.785853253860473,6.802136507720947C12.819923253860473,7.3781365077209475,13.336933253860474,7.666126507720947,13.333313253860474,8.093716507720949C13.329673253860474,8.521306507720947,12.807803253860474,8.801206507720948,11.764063253860474,9.361016507720947C11.764063253860474,9.361016507720947,5.626893253860473,12.652666507720948,5.626893253860473,12.652666507720948C4.605683253860474,13.200366507720947,4.095078253860474,13.474266507720948,3.7142052538604737,13.260766507720946C3.3333332538604736,13.047366507720946,3.3333332538604736,12.487316507720948,3.3333332538604736,11.367266507720947C3.3333332538604736,11.367266507720947,3.3333332538604736,11.367266507720947,3.3333332538604736,11.367266507720947Z" fill="#212529" fill-opacity="1"/></g></g></svg>