<svg xmlns="http://www.w3.org/2000/svg" xmlns:xlink="http://www.w3.org/1999/xlink" fill="none" version="1.1" width="24" height="24" viewBox="0 0 24 24"><g><g></g><g><path d="M11,20C11,20.5523,11.44772,21,12,21C12.55229,21,13,20.5523,13,20C13,20,13,13,13,13C13,13,20,13,20,13C20.5523,13,21,12.55228,21,12C21,11.44772,20.5523,11,20,11C20,11,13,11,13,11C13,11,13,4,13,4C13,3.447715,12.55228,3,12,3C11.44771,3,11,3.447716,11,4C11,4,11,11,11,11C11,11,4,11,4,11C3.447715,11,3,11.44772,3,12C3,12.55228,3.447716,13,4,13C4,13,11,13,11,13C11,13,11,20,11,20C11,20,11,20,11,20Z" fill="#212529" fill-opacity="1"/></g></g></svg>