<svg xmlns="http://www.w3.org/2000/svg" xmlns:xlink="http://www.w3.org/1999/xlink" fill="none" version="1.1" width="24" height="24" viewBox="0 0 24 24"><g><g></g><g><path d="M15.2697,16.973100000000002C13.9945,17.9022,12.42393,18.450400000000002,10.72533,18.450400000000002C6.45875,18.450400000000002,3,14.9917,3,10.725200000000001C3,6.45869,6.45875,3,10.72533,3C14.9919,3,18.450699999999998,6.45869,18.450699999999998,10.725200000000001C18.450699999999998,12.42391,17.9024,13.9946,16.973100000000002,15.2699C16.973100000000002,15.2699,20.6472,18.9439,20.6472,18.9439C21.1176,19.4143,21.1176,20.1769,20.6472,20.6472C20.1769,21.1176,19.4143,21.1176,18.944000000000003,20.6472C18.944000000000003,20.6472,15.2697,16.973100000000002,15.2697,16.973100000000002C15.2697,16.973100000000002,15.2697,16.973100000000002,15.2697,16.973100000000002ZM14.071,15.1795C13.1394,15.8803,11.98089,16.2957,10.72533,16.2957C7.64871,16.2957,5.15471,13.8016,5.15471,10.725200000000001C5.15471,7.64877,7.64871,5.15473,10.72533,5.15473C13.8019,5.15473,16.2959,7.64877,16.2959,10.725200000000001C16.2959,11.98069,15.8806,13.1392,15.1798,14.0708C15.1798,14.0708,14.071,15.1795,14.071,15.1795C14.071,15.1795,14.071,15.1795,14.071,15.1795Z" fill-rule="evenodd" fill="#212529" fill-opacity="1"/></g></g></svg>