<svg xmlns="http://www.w3.org/2000/svg" xmlns:xlink="http://www.w3.org/1999/xlink" fill="none" version="1.1" width="130" height="21" viewBox="0 0 130 21"><g><path d="M0,20L0,1Q0,0.901509,0.0192147,0.80491Q0.0384294,0.708311,0.0761205,0.617316Q0.113811,0.526322,0.16853,0.44443Q0.223249,0.362537,0.292893,0.292893Q0.362537,0.223249,0.44443,0.16853Q0.526322,0.113811,0.617316,0.0761205Q0.708311,0.0384294,0.80491,0.0192147Q0.901509,0,1,0L1,0Q1.09849,0,1.19509,0.0192147Q1.29169,0.0384294,1.38268,0.0761205Q1.47368,0.113811,1.55557,0.16853Q1.63746,0.223249,1.70711,0.292893Q1.77675,0.362537,1.83147,0.44443Q1.88619,0.526322,1.92388,0.617316Q1.96157,0.708311,1.98079,0.80491Q2,0.901509,2,1L2,20Q2,20.0985,1.98079,20.1951Q1.96157,20.2917,1.92388,20.3827Q1.88619,20.4737,1.83147,20.5556Q1.77675,20.6375,1.70711,20.7071Q1.63746,20.7767,1.55557,20.8315Q1.47368,20.8862,1.38268,20.9239Q1.29169,20.9616,1.19509,20.9808Q1.09849,21,1,21L1,21Q0.901509,21,0.80491,20.9808Q0.708311,20.9616,0.617316,20.9239Q0.526322,20.8862,0.44443,20.8315Q0.362537,20.7767,0.292893,20.7071Q0.223249,20.6375,0.16853,20.5556Q0.113811,20.4737,0.0761205,20.3827Q0.0384294,20.2917,0.0192147,20.1951Q0,20.0985,0,20ZM4,17L4,4Q4,3.90151,4.01921,3.80491Q4.03843,3.70831,4.07612,3.61732Q4.11381,3.52632,4.16853,3.44443Q4.22325,3.36254,4.29289,3.29289Q4.36254,3.22325,4.44443,3.16853Q4.52632,3.11381,4.61732,3.07612Q4.70831,3.03843,4.80491,3.01921Q4.90151,3,5,3L5,3Q5.09849,3,5.19509,3.01921Q5.29169,3.03843,5.38268,3.07612Q5.47368,3.11381,5.55557,3.16853Q5.63746,3.22325,5.70711,3.29289Q5.77675,3.36254,5.83147,3.44443Q5.88619,3.52632,5.92388,3.61732Q5.96157,3.70831,5.98078,3.80491Q6,3.90151,6,4L6,17Q6,17.0985,5.98078,17.1951Q5.96157,17.2917,5.92388,17.3827Q5.88619,17.4737,5.83147,17.5556Q5.77675,17.6375,5.70711,17.7071Q5.63746,17.7767,5.55557,17.8315Q5.47368,17.8862,5.38268,17.9239Q5.29169,17.9616,5.19509,17.9808Q5.09849,18,5,18L5,18Q4.90151,18,4.80491,17.9808Q4.70831,17.9616,4.61732,17.9239Q4.52632,17.8862,4.44443,17.8315Q4.36254,17.7767,4.29289,17.7071Q4.22325,17.6375,4.16853,17.5556Q4.11381,17.4737,4.07612,17.3827Q4.03843,17.2917,4.01921,17.1951Q4,17.0985,4,17ZM8,15L8,6Q8,5.90151,8.01921,5.80491Q8.03843,5.70831,8.07612,5.61732Q8.11381,5.52632,8.16853,5.44443Q8.22325,5.36254,8.29289,5.29289Q8.36254,5.22325,8.44443,5.16853Q8.52632,5.11381,8.61732,5.07612Q8.70831,5.03843,8.80491,5.01921Q8.90151,5,9,5L9,5Q9.09849,5,9.19509,5.01921Q9.29169,5.03843,9.38268,5.07612Q9.47368,5.11381,9.55557,5.16853Q9.63746,5.22325,9.70711,5.29289Q9.77675,5.36254,9.83147,5.44443Q9.88619,5.52632,9.92388,5.61732Q9.96157,5.70831,9.98078,5.80491Q10,5.90151,10,6L10,15Q10,15.0985,9.98078,15.1951Q9.96157,15.2917,9.92388,15.3827Q9.88619,15.4737,9.83147,15.5556Q9.77675,15.6375,9.70711,15.7071Q9.63746,15.7767,9.55557,15.8315Q9.47368,15.8862,9.38268,15.9239Q9.29169,15.9616,9.19509,15.9808Q9.09849,16,9,16L9,16Q8.90151,16,8.80491,15.9808Q8.70831,15.9616,8.61732,15.9239Q8.52632,15.8862,8.44443,15.8315Q8.36254,15.7767,8.29289,15.7071Q8.22325,15.6375,8.16853,15.5556Q8.11381,15.4737,8.07612,15.3827Q8.03843,15.2917,8.01921,15.1951Q8,15.0985,8,15ZM12,19L12,2Q12,1.90151,12.0192,1.80491Q12.0384,1.70831,12.0761,1.61732Q12.1138,1.52632,12.1685,1.44443Q12.2232,1.36254,12.2929,1.29289Q12.3625,1.22325,12.4444,1.16853Q12.5263,1.11381,12.6173,1.07612Q12.7083,1.03843,12.8049,1.01921Q12.9015,1,13,1L13,1Q13.0985,1,13.1951,1.01921Q13.2917,1.03843,13.3827,1.07612Q13.4737,1.11381,13.5556,1.16853Q13.6375,1.22325,13.7071,1.29289Q13.7767,1.36254,13.8315,1.44443Q13.8862,1.52632,13.9239,1.61732Q13.9616,1.70831,13.9808,1.80491Q14,1.90151,14,2L14,19Q14,19.0985,13.9808,19.1951Q13.9616,19.2917,13.9239,19.3827Q13.8862,19.4737,13.8315,19.5556Q13.7767,19.6375,13.7071,19.7071Q13.6375,19.7767,13.5556,19.8315Q13.4737,19.8862,13.3827,19.9239Q13.2917,19.9616,13.1951,19.9808Q13.0985,20,13,20L13,20Q12.9015,20,12.8049,19.9808Q12.7083,19.9616,12.6173,19.9239Q12.5263,19.8862,12.4444,19.8315Q12.3625,19.7767,12.2929,19.7071Q12.2232,19.6375,12.1685,19.5556Q12.1138,19.4737,12.0761,19.3827Q12.0384,19.2917,12.0192,19.1951Q12,19.0985,12,19ZM16,18L16,3Q16,2.90151,16.0192,2.80491Q16.0384,2.70831,16.0761,2.61732Q16.1138,2.52632,16.1685,2.44443Q16.2232,2.36254,16.2929,2.29289Q16.3625,2.22325,16.4444,2.16853Q16.5263,2.11381,16.6173,2.07612Q16.7083,2.03843,16.8049,2.01921Q16.9015,2,17,2L17,2Q17.0985,2,17.1951,2.01921Q17.2917,2.03843,17.3827,2.07612Q17.4737,2.11381,17.5556,2.16853Q17.6375,2.22325,17.7071,2.29289Q17.7767,2.36254,17.8315,2.44443Q17.8862,2.52632,17.9239,2.61732Q17.9616,2.70831,17.9808,2.80491Q18,2.90151,18,3L18,18Q18,18.0985,17.9808,18.1951Q17.9616,18.2917,17.9239,18.3827Q17.8862,18.4737,17.8315,18.5556Q17.7767,18.6375,17.7071,18.7071Q17.6375,18.7767,17.5556,18.8315Q17.4737,18.8862,17.3827,18.9239Q17.2917,18.9616,17.1951,18.9808Q17.0985,19,17,19L17,19Q16.9015,19,16.8049,18.9808Q16.7083,18.9616,16.6173,18.9239Q16.5263,18.8862,16.4444,18.8315Q16.3625,18.7767,16.2929,18.7071Q16.2232,18.6375,16.1685,18.5556Q16.1138,18.4737,16.0761,18.3827Q16.0384,18.2917,16.0192,18.1951Q16,18.0985,16,18ZM20,14L20,7Q20,6.90151,20.0192,6.80491Q20.0384,6.70831,20.0761,6.61732Q20.1138,6.52632,20.1685,6.44443Q20.2232,6.36254,20.2929,6.29289Q20.3625,6.22325,20.4444,6.16853Q20.5263,6.11381,20.6173,6.07612Q20.7083,6.03843,20.8049,6.01921Q20.9015,6,21,6L21,6Q21.0985,6,21.1951,6.01921Q21.2917,6.03843,21.3827,6.07612Q21.4737,6.11381,21.5556,6.16853Q21.6375,6.22325,21.7071,6.29289Q21.7767,6.36254,21.8315,6.44443Q21.8862,6.52632,21.9239,6.61732Q21.9616,6.70831,21.9808,6.80491Q22,6.90151,22,7L22,14Q22,14.0985,21.9808,14.1951Q21.9616,14.2917,21.9239,14.3827Q21.8862,14.4737,21.8315,14.5556Q21.7767,14.6375,21.7071,14.7071Q21.6375,14.7767,21.5556,14.8315Q21.4737,14.8862,21.3827,14.9239Q21.2917,14.9616,21.1951,14.9808Q21.0985,15,21,15L21,15Q20.9015,15,20.8049,14.9808Q20.7083,14.9616,20.6173,14.9239Q20.5263,14.8862,20.4444,14.8315Q20.3625,14.7767,20.2929,14.7071Q20.2232,14.6375,20.1685,14.5556Q20.1138,14.4737,20.0761,14.3827Q20.0384,14.2917,20.0192,14.1951Q20,14.0985,20,14ZM24,20L24,1Q24,0.901509,24.0192,0.80491Q24.0384,0.708311,24.0761,0.617316Q24.1138,0.526322,24.1685,0.44443Q24.2232,0.362537,24.2929,0.292893Q24.3625,0.223249,24.4444,0.16853Q24.5263,0.113811,24.6173,0.0761205Q24.7083,0.0384294,24.8049,0.0192147Q24.9015,0,25,0L25,0Q25.0985,0,25.1951,0.0192147Q25.2917,0.0384294,25.3827,0.0761205Q25.4737,0.113811,25.5556,0.16853Q25.6375,0.223249,25.7071,0.292893Q25.7767,0.362537,25.8315,0.44443Q25.8862,0.526322,25.9239,0.617316Q25.9616,0.708311,25.9808,0.80491Q26,0.901509,26,1L26,20Q26,20.0985,25.9808,20.1951Q25.9616,20.2917,25.9239,20.3827Q25.8862,20.4737,25.8315,20.5556Q25.7767,20.6375,25.7071,20.7071Q25.6375,20.7767,25.5556,20.8315Q25.4737,20.8862,25.3827,20.9239Q25.2917,20.9616,25.1951,20.9808Q25.0985,21,25,21L25,21Q24.9015,21,24.8049,20.9808Q24.7083,20.9616,24.6173,20.9239Q24.5263,20.8862,24.4444,20.8315Q24.3625,20.7767,24.2929,20.7071Q24.2232,20.6375,24.1685,20.5556Q24.1138,20.4737,24.0761,20.3827Q24.0384,20.2917,24.0192,20.1951Q24,20.0985,24,20ZM28,12L28,9Q28,8.90151,28.0192,8.80491Q28.0384,8.70831,28.0761,8.61732Q28.1138,8.52632,28.1685,8.44443Q28.2232,8.36254,28.2929,8.29289Q28.3625,8.22325,28.4444,8.16853Q28.5263,8.11381,28.6173,8.07612Q28.7083,8.03843,28.8049,8.01921Q28.9015,8,29,8L29,8Q29.0985,8,29.1951,8.01921Q29.2917,8.03843,29.3827,8.07612Q29.4737,8.11381,29.5556,8.16853Q29.6375,8.22325,29.7071,8.29289Q29.7767,8.36254,29.8315,8.44443Q29.8862,8.52632,29.9239,8.61732Q29.9616,8.70831,29.9808,8.80491Q30,8.90151,30,9L30,12Q30,12.0985,29.9808,12.1951Q29.9616,12.2917,29.9239,12.3827Q29.8862,12.4737,29.8315,12.5556Q29.7767,12.6375,29.7071,12.7071Q29.6375,12.7767,29.5556,12.8315Q29.4737,12.8862,29.3827,12.9239Q29.2917,12.9616,29.1951,12.9808Q29.0985,13,29,13L29,13Q28.9015,13,28.8049,12.9808Q28.7083,12.9616,28.6173,12.9239Q28.5263,12.8862,28.4444,12.8315Q28.3625,12.7767,28.2929,12.7071Q28.2232,12.6375,28.1685,12.5556Q28.1138,12.4737,28.0761,12.3827Q28.0384,12.2917,28.0192,12.1951Q28,12.0985,28,12ZM32,17L32,4Q32,3.90151,32.0192,3.80491Q32.0384,3.70831,32.0761,3.61732Q32.1138,3.52632,32.1685,3.44443Q32.2232,3.36254,32.2929,3.29289Q32.3625,3.22325,32.4444,3.16853Q32.5263,3.11381,32.6173,3.07612Q32.7083,3.03843,32.8049,3.01921Q32.9015,3,33,3L33,3Q33.0985,3,33.1951,3.01921Q33.2917,3.03843,33.3827,3.07612Q33.4737,3.11381,33.5556,3.16853Q33.6375,3.22325,33.7071,3.29289Q33.7767,3.36254,33.8315,3.44443Q33.8862,3.52632,33.9239,3.61732Q33.9616,3.70831,33.9808,3.80491Q34,3.90151,34,4L34,17Q34,17.0985,33.9808,17.1951Q33.9616,17.2917,33.9239,17.3827Q33.8862,17.4737,33.8315,17.5556Q33.7767,17.6375,33.7071,17.7071Q33.6375,17.7767,33.5556,17.8315Q33.4737,17.8862,33.3827,17.9239Q33.2917,17.9616,33.1951,17.9808Q33.0985,18,33,18L33,18Q32.9015,18,32.8049,17.9808Q32.7083,17.9616,32.6173,17.9239Q32.5263,17.8862,32.4444,17.8315Q32.3625,17.7767,32.2929,17.7071Q32.2232,17.6375,32.1685,17.5556Q32.1138,17.4737,32.0761,17.3827Q32.0384,17.2917,32.0192,17.1951Q32,17.0985,32,17ZM36,19L36,2Q36,1.90151,36.0192,1.80491Q36.0384,1.70831,36.0761,1.61732Q36.1138,1.52632,36.1685,1.44443Q36.2232,1.36254,36.2929,1.29289Q36.3625,1.22325,36.4444,1.16853Q36.5263,1.11381,36.6173,1.07612Q36.7083,1.03843,36.8049,1.01921Q36.9015,1,37,1L37,1Q37.0985,1,37.1951,1.01921Q37.2917,1.03843,37.3827,1.07612Q37.4737,1.11381,37.5556,1.16853Q37.6375,1.22325,37.7071,1.29289Q37.7767,1.36254,37.8315,1.44443Q37.8862,1.52632,37.9239,1.61732Q37.9616,1.70831,37.9808,1.80491Q38,1.90151,38,2L38,19Q38,19.0985,37.9808,19.1951Q37.9616,19.2917,37.9239,19.3827Q37.8862,19.4737,37.8315,19.5556Q37.7767,19.6375,37.7071,19.7071Q37.6375,19.7767,37.5556,19.8315Q37.4737,19.8862,37.3827,19.9239Q37.2917,19.9616,37.1951,19.9808Q37.0985,20,37,20L37,20Q36.9015,20,36.8049,19.9808Q36.7083,19.9616,36.6173,19.9239Q36.5263,19.8862,36.4444,19.8315Q36.3625,19.7767,36.2929,19.7071Q36.2232,19.6375,36.1685,19.5556Q36.1138,19.4737,36.0761,19.3827Q36.0384,19.2917,36.0192,19.1951Q36,19.0985,36,19ZM40,17L40,4Q40,3.90151,40.0192,3.80491Q40.0384,3.70831,40.0761,3.61732Q40.1138,3.52632,40.1685,3.44443Q40.2232,3.36254,40.2929,3.29289Q40.3625,3.22325,40.4444,3.16853Q40.5263,3.11381,40.6173,3.07612Q40.7083,3.03843,40.8049,3.01921Q40.9015,3,41,3L41,3Q41.0985,3,41.1951,3.01921Q41.2917,3.03843,41.3827,3.07612Q41.4737,3.11381,41.5556,3.16853Q41.6375,3.22325,41.7071,3.29289Q41.7767,3.36254,41.8315,3.44443Q41.8862,3.52632,41.9239,3.61732Q41.9616,3.70831,41.9808,3.80491Q42,3.90151,42,4L42,17Q42,17.0985,41.9808,17.1951Q41.9616,17.2917,41.9239,17.3827Q41.8862,17.4737,41.8315,17.5556Q41.7767,17.6375,41.7071,17.7071Q41.6375,17.7767,41.5556,17.8315Q41.4737,17.8862,41.3827,17.9239Q41.2917,17.9616,41.1951,17.9808Q41.0985,18,41,18L41,18Q40.9015,18,40.8049,17.9808Q40.7083,17.9616,40.6173,17.9239Q40.5263,17.8862,40.4444,17.8315Q40.3625,17.7767,40.2929,17.7071Q40.2232,17.6375,40.1685,17.5556Q40.1138,17.4737,40.0761,17.3827Q40.0384,17.2917,40.0192,17.1951Q40,17.0985,40,17ZM44,20L44,1Q44,0.901509,44.0192,0.80491Q44.0384,0.708311,44.0761,0.617316Q44.1138,0.526322,44.1685,0.44443Q44.2232,0.362537,44.2929,0.292893Q44.3625,0.223249,44.4444,0.16853Q44.5263,0.113811,44.6173,0.0761205Q44.7083,0.0384294,44.8049,0.0192147Q44.9015,0,45,0L45,0Q45.0985,0,45.1951,0.0192147Q45.2917,0.0384294,45.3827,0.0761205Q45.4737,0.113811,45.5556,0.16853Q45.6375,0.223249,45.7071,0.292893Q45.7767,0.362537,45.8315,0.44443Q45.8862,0.526322,45.9239,0.617316Q45.9616,0.708311,45.9808,0.80491Q46,0.901509,46,1L46,20Q46,20.0985,45.9808,20.1951Q45.9616,20.2917,45.9239,20.3827Q45.8862,20.4737,45.8315,20.5556Q45.7767,20.6375,45.7071,20.7071Q45.6375,20.7767,45.5556,20.8315Q45.4737,20.8862,45.3827,20.9239Q45.2917,20.9616,45.1951,20.9808Q45.0985,21,45,21L45,21Q44.9015,21,44.8049,20.9808Q44.7083,20.9616,44.6173,20.9239Q44.5263,20.8862,44.4444,20.8315Q44.3625,20.7767,44.2929,20.7071Q44.2232,20.6375,44.1685,20.5556Q44.1138,20.4737,44.0761,20.3827Q44.0384,20.2917,44.0192,20.1951Q44,20.0985,44,20ZM48,16L48,5Q48,4.90151,48.0192,4.80491Q48.0384,4.70831,48.0761,4.61732Q48.1138,4.52632,48.1685,4.44443Q48.2232,4.36254,48.2929,4.29289Q48.3625,4.22325,48.4444,4.16853Q48.5263,4.11381,48.6173,4.07612Q48.7083,4.03843,48.8049,4.01921Q48.9015,4,49,4L49,4Q49.0985,4,49.1951,4.01921Q49.2917,4.03843,49.3827,4.07612Q49.4737,4.11381,49.5556,4.16853Q49.6375,4.22325,49.7071,4.29289Q49.7767,4.36254,49.8315,4.44443Q49.8862,4.52632,49.9239,4.61732Q49.9616,4.70831,49.9808,4.80491Q50,4.90151,50,5L50,16Q50,16.0985,49.9808,16.1951Q49.9616,16.2917,49.9239,16.3827Q49.8862,16.4737,49.8315,16.5556Q49.7767,16.6375,49.7071,16.7071Q49.6375,16.7767,49.5556,16.8315Q49.4737,16.8862,49.3827,16.9239Q49.2917,16.9616,49.1951,16.9808Q49.0985,17,49,17L49,17Q48.9015,17,48.8049,16.9808Q48.7083,16.9616,48.6173,16.9239Q48.5263,16.8862,48.4444,16.8315Q48.3625,16.7767,48.2929,16.7071Q48.2232,16.6375,48.1685,16.5556Q48.1138,16.4737,48.0761,16.3827Q48.0384,16.2917,48.0192,16.1951Q48,16.0985,48,16ZM52,18L52,3Q52,2.90151,52.0192,2.80491Q52.0384,2.70831,52.0761,2.61732Q52.1138,2.52632,52.1685,2.44443Q52.2232,2.36254,52.2929,2.29289Q52.3625,2.22325,52.4444,2.16853Q52.5263,2.11381,52.6173,2.07612Q52.7083,2.03843,52.8049,2.01921Q52.9015,2,53,2L53,2Q53.0985,2,53.1951,2.01921Q53.2917,2.03843,53.3827,2.07612Q53.4737,2.11381,53.5556,2.16853Q53.6375,2.22325,53.7071,2.29289Q53.7767,2.36254,53.8315,2.44443Q53.8862,2.52632,53.9239,2.61732Q53.9616,2.70831,53.9808,2.80491Q54,2.90151,54,3L54,18Q54,18.0985,53.9808,18.1951Q53.9616,18.2917,53.9239,18.3827Q53.8862,18.4737,53.8315,18.5556Q53.7767,18.6375,53.7071,18.7071Q53.6375,18.7767,53.5556,18.8315Q53.4737,18.8862,53.3827,18.9239Q53.2917,18.9616,53.1951,18.9808Q53.0985,19,53,19L53,19Q52.9015,19,52.8049,18.9808Q52.7083,18.9616,52.6173,18.9239Q52.5263,18.8862,52.4444,18.8315Q52.3625,18.7767,52.2929,18.7071Q52.2232,18.6375,52.1685,18.5556Q52.1138,18.4737,52.0761,18.3827Q52.0384,18.2917,52.0192,18.1951Q52,18.0985,52,18ZM56,14L56,7Q56,6.90151,56.0192,6.80491Q56.0384,6.70831,56.0761,6.61732Q56.1138,6.52632,56.1685,6.44443Q56.2232,6.36254,56.2929,6.29289Q56.3625,6.22325,56.4444,6.16853Q56.5263,6.11381,56.6173,6.07612Q56.7083,6.03843,56.8049,6.01921Q56.9015,6,57,6L57,6Q57.0985,6,57.1951,6.01921Q57.2917,6.03843,57.3827,6.07612Q57.4737,6.11381,57.5556,6.16853Q57.6375,6.22325,57.7071,6.29289Q57.7767,6.36254,57.8315,6.44443Q57.8862,6.52632,57.9239,6.61732Q57.9616,6.70831,57.9808,6.80491Q58,6.90151,58,7L58,14Q58,14.0985,57.9808,14.1951Q57.9616,14.2917,57.9239,14.3827Q57.8862,14.4737,57.8315,14.5556Q57.7767,14.6375,57.7071,14.7071Q57.6375,14.7767,57.5556,14.8315Q57.4737,14.8862,57.3827,14.9239Q57.2917,14.9616,57.1951,14.9808Q57.0985,15,57,15L57,15Q56.9015,15,56.8049,14.9808Q56.7083,14.9616,56.6173,14.9239Q56.5263,14.8862,56.4444,14.8315Q56.3625,14.7767,56.2929,14.7071Q56.2232,14.6375,56.1685,14.5556Q56.1138,14.4737,56.0761,14.3827Q56.0384,14.2917,56.0192,14.1951Q56,14.0985,56,14ZM60,20L60,1Q60,0.901509,60.0192,0.80491Q60.0384,0.708311,60.0761,0.617316Q60.1138,0.526322,60.1685,0.44443Q60.2232,0.362537,60.2929,0.292893Q60.3625,0.223249,60.4444,0.16853Q60.5263,0.113811,60.6173,0.0761205Q60.7083,0.0384294,60.8049,0.0192147Q60.9015,0,61,0L61,0Q61.0985,0,61.1951,0.0192147Q61.2917,0.0384294,61.3827,0.0761205Q61.4737,0.113811,61.5556,0.16853Q61.6375,0.223249,61.7071,0.292893Q61.7767,0.362537,61.8315,0.44443Q61.8862,0.526322,61.9239,0.617316Q61.9616,0.708311,61.9808,0.80491Q62,0.901509,62,1L62,20Q62,20.0985,61.9808,20.1951Q61.9616,20.2917,61.9239,20.3827Q61.8862,20.4737,61.8315,20.5556Q61.7767,20.6375,61.7071,20.7071Q61.6375,20.7767,61.5556,20.8315Q61.4737,20.8862,61.3827,20.9239Q61.2917,20.9616,61.1951,20.9808Q61.0985,21,61,21L61,21Q60.9015,21,60.8049,20.9808Q60.7083,20.9616,60.6173,20.9239Q60.5263,20.8862,60.4444,20.8315Q60.3625,20.7767,60.2929,20.7071Q60.2232,20.6375,60.1685,20.5556Q60.1138,20.4737,60.0761,20.3827Q60.0384,20.2917,60.0192,20.1951Q60,20.0985,60,20ZM64,12L64,9Q64,8.90151,64.0192,8.80491Q64.0384,8.70831,64.0761,8.61732Q64.1138,8.52632,64.1685,8.44443Q64.2232,8.36254,64.2929,8.29289Q64.3625,8.22325,64.4444,8.16853Q64.5263,8.11381,64.6173,8.07612Q64.7083,8.03843,64.8049,8.01921Q64.9015,8,65,8L65,8Q65.0985,8,65.1951,8.01921Q65.2917,8.03843,65.3827,8.07612Q65.4737,8.11381,65.5556,8.16853Q65.6375,8.22325,65.7071,8.29289Q65.7767,8.36254,65.8315,8.44443Q65.8862,8.52632,65.9239,8.61732Q65.9616,8.70831,65.9808,8.80491Q66,8.90151,66,9L66,12Q66,12.0985,65.9808,12.1951Q65.9616,12.2917,65.9239,12.3827Q65.8862,12.4737,65.8315,12.5556Q65.7767,12.6375,65.7071,12.7071Q65.6375,12.7767,65.5556,12.8315Q65.4737,12.8862,65.3827,12.9239Q65.2917,12.9616,65.1951,12.9808Q65.0985,13,65,13L65,13Q64.9015,13,64.8049,12.9808Q64.7083,12.9616,64.6173,12.9239Q64.5263,12.8862,64.4444,12.8315Q64.3625,12.7767,64.2929,12.7071Q64.2232,12.6375,64.1685,12.5556Q64.1138,12.4737,64.0761,12.3827Q64.0384,12.2917,64.0192,12.1951Q64,12.0985,64,12ZM68,17L68,4Q68,3.90151,68.0192,3.80491Q68.0384,3.70831,68.0761,3.61732Q68.1138,3.52632,68.1685,3.44443Q68.2232,3.36254,68.2929,3.29289Q68.3625,3.22325,68.4444,3.16853Q68.5263,3.11381,68.6173,3.07612Q68.7083,3.03843,68.8049,3.01921Q68.9015,3,69,3L69,3Q69.0985,3,69.1951,3.01921Q69.2917,3.03843,69.3827,3.07612Q69.4737,3.11381,69.5556,3.16853Q69.6375,3.22325,69.7071,3.29289Q69.7767,3.36254,69.8315,3.44443Q69.8862,3.52632,69.9239,3.61732Q69.9616,3.70831,69.9808,3.80491Q70,3.90151,70,4L70,17Q70,17.0985,69.9808,17.1951Q69.9616,17.2917,69.9239,17.3827Q69.8862,17.4737,69.8315,17.5556Q69.7767,17.6375,69.7071,17.7071Q69.6375,17.7767,69.5556,17.8315Q69.4737,17.8862,69.3827,17.9239Q69.2917,17.9616,69.1951,17.9808Q69.0985,18,69,18L69,18Q68.9015,18,68.8049,17.9808Q68.7083,17.9616,68.6173,17.9239Q68.5263,17.8862,68.4444,17.8315Q68.3625,17.7767,68.2929,17.7071Q68.2232,17.6375,68.1685,17.5556Q68.1138,17.4737,68.0761,17.3827Q68.0384,17.2917,68.0192,17.1951Q68,17.0985,68,17ZM72,19L72,2Q72,1.90151,72.0192,1.80491Q72.0384,1.70831,72.0761,1.61732Q72.1138,1.52632,72.1685,1.44443Q72.2232,1.36254,72.2929,1.29289Q72.3625,1.22325,72.4444,1.16853Q72.5263,1.11381,72.6173,1.07612Q72.7083,1.03843,72.8049,1.01921Q72.9015,1,73,1L73,1Q73.0985,1,73.1951,1.01921Q73.2917,1.03843,73.3827,1.07612Q73.4737,1.11381,73.5556,1.16853Q73.6375,1.22325,73.7071,1.29289Q73.7767,1.36254,73.8315,1.44443Q73.8862,1.52632,73.9239,1.61732Q73.9616,1.70831,73.9808,1.80491Q74,1.90151,74,2L74,19Q74,19.0985,73.9808,19.1951Q73.9616,19.2917,73.9239,19.3827Q73.8862,19.4737,73.8315,19.5556Q73.7767,19.6375,73.7071,19.7071Q73.6375,19.7767,73.5556,19.8315Q73.4737,19.8862,73.3827,19.9239Q73.2917,19.9616,73.1951,19.9808Q73.0985,20,73,20L73,20Q72.9015,20,72.8049,19.9808Q72.7083,19.9616,72.6173,19.9239Q72.5263,19.8862,72.4444,19.8315Q72.3625,19.7767,72.2929,19.7071Q72.2232,19.6375,72.1685,19.5556Q72.1138,19.4737,72.0761,19.3827Q72.0384,19.2917,72.0192,19.1951Q72,19.0985,72,19ZM76,17L76,4Q76,3.90151,76.0192,3.80491Q76.0384,3.70831,76.0761,3.61732Q76.1138,3.52632,76.1685,3.44443Q76.2232,3.36254,76.2929,3.29289Q76.3625,3.22325,76.4444,3.16853Q76.5263,3.11381,76.6173,3.07612Q76.7083,3.03843,76.8049,3.01921Q76.9015,3,77,3L77,3Q77.0985,3,77.1951,3.01921Q77.2917,3.03843,77.3827,3.07612Q77.4737,3.11381,77.5556,3.16853Q77.6375,3.22325,77.7071,3.29289Q77.7767,3.36254,77.8315,3.44443Q77.8862,3.52632,77.9239,3.61732Q77.9616,3.70831,77.9808,3.80491Q78,3.90151,78,4L78,17Q78,17.0985,77.9808,17.1951Q77.9616,17.2917,77.9239,17.3827Q77.8862,17.4737,77.8315,17.5556Q77.7767,17.6375,77.7071,17.7071Q77.6375,17.7767,77.5556,17.8315Q77.4737,17.8862,77.3827,17.9239Q77.2917,17.9616,77.1951,17.9808Q77.0985,18,77,18L77,18Q76.9015,18,76.8049,17.9808Q76.7083,17.9616,76.6173,17.9239Q76.5263,17.8862,76.4444,17.8315Q76.3625,17.7767,76.2929,17.7071Q76.2232,17.6375,76.1685,17.5556Q76.1138,17.4737,76.0761,17.3827Q76.0384,17.2917,76.0192,17.1951Q76,17.0985,76,17ZM80,20L80,1Q80,0.901509,80.0192,0.80491Q80.0384,0.708311,80.0761,0.617316Q80.1138,0.526322,80.1685,0.44443Q80.2232,0.362537,80.2929,0.292893Q80.3625,0.223249,80.4444,0.16853Q80.5263,0.113811,80.6173,0.0761205Q80.7083,0.0384294,80.8049,0.0192147Q80.9015,0,81,0L81,0Q81.0985,0,81.1951,0.0192147Q81.2917,0.0384294,81.3827,0.0761205Q81.4737,0.113811,81.5555,0.16853Q81.6375,0.223249,81.7071,0.292893Q81.7767,0.362537,81.8315,0.44443Q81.8862,0.526322,81.9239,0.617316Q81.9616,0.708311,81.9808,0.80491Q82,0.901509,82,1L82,20Q82,20.0985,81.9808,20.1951Q81.9616,20.2917,81.9239,20.3827Q81.8862,20.4737,81.8315,20.5556Q81.7767,20.6375,81.7071,20.7071Q81.6375,20.7767,81.5555,20.8315Q81.4737,20.8862,81.3827,20.9239Q81.2917,20.9616,81.1951,20.9808Q81.0985,21,81,21L81,21Q80.9015,21,80.8049,20.9808Q80.7083,20.9616,80.6173,20.9239Q80.5263,20.8862,80.4444,20.8315Q80.3625,20.7767,80.2929,20.7071Q80.2232,20.6375,80.1685,20.5556Q80.1138,20.4737,80.0761,20.3827Q80.0384,20.2917,80.0192,20.1951Q80,20.0985,80,20ZM84,16L84,5Q84,4.90151,84.0192,4.80491Q84.0384,4.70831,84.0761,4.61732Q84.1138,4.52632,84.1685,4.44443Q84.2232,4.36254,84.2929,4.29289Q84.3625,4.22325,84.4444,4.16853Q84.5263,4.11381,84.6173,4.07612Q84.7083,4.03843,84.8049,4.01921Q84.9015,4,85,4L85,4Q85.0985,4,85.1951,4.01921Q85.2917,4.03843,85.3827,4.07612Q85.4737,4.11381,85.5556,4.16853Q85.6375,4.22325,85.7071,4.29289Q85.7768,4.36254,85.8315,4.44443Q85.8862,4.52632,85.9239,4.61732Q85.9616,4.70831,85.9808,4.80491Q86,4.90151,86,5L86,16Q86,16.0985,85.9808,16.1951Q85.9616,16.2917,85.9239,16.3827Q85.8862,16.4737,85.8315,16.5556Q85.7768,16.6375,85.7071,16.7071Q85.6375,16.7767,85.5556,16.8315Q85.4737,16.8862,85.3827,16.9239Q85.2917,16.9616,85.1951,16.9808Q85.0985,17,85,17L85,17Q84.9015,17,84.8049,16.9808Q84.7083,16.9616,84.6173,16.9239Q84.5263,16.8862,84.4444,16.8315Q84.3625,16.7767,84.2929,16.7071Q84.2232,16.6375,84.1685,16.5556Q84.1138,16.4737,84.0761,16.3827Q84.0384,16.2917,84.0192,16.1951Q84,16.0985,84,16ZM88,20L88,1Q88,0.901509,88.0192,0.80491Q88.0384,0.708311,88.0761,0.617316Q88.1138,0.526322,88.1685,0.44443Q88.2232,0.362537,88.2929,0.292893Q88.3625,0.223249,88.4444,0.16853Q88.5263,0.113811,88.6173,0.0761205Q88.7083,0.0384294,88.8049,0.0192147Q88.9015,0,89,0L89,0Q89.0985,0,89.1951,0.0192147Q89.2917,0.0384294,89.3827,0.0761205Q89.4737,0.113811,89.5556,0.16853Q89.6375,0.223249,89.7071,0.292893Q89.7767,0.362537,89.8315,0.44443Q89.8862,0.526322,89.9239,0.617316Q89.9616,0.708311,89.9808,0.80491Q90,0.901509,90,1L90,20Q90,20.0985,89.9808,20.1951Q89.9616,20.2917,89.9239,20.3827Q89.8862,20.4737,89.8315,20.5556Q89.7767,20.6375,89.7071,20.7071Q89.6375,20.7767,89.5556,20.8315Q89.4737,20.8862,89.3827,20.9239Q89.2917,20.9616,89.1951,20.9808Q89.0985,21,89,21L89,21Q88.9015,21,88.8049,20.9808Q88.7083,20.9616,88.6173,20.9239Q88.5263,20.8862,88.4444,20.8315Q88.3625,20.7767,88.2929,20.7071Q88.2232,20.6375,88.1685,20.5556Q88.1138,20.4737,88.0761,20.3827Q88.0384,20.2917,88.0192,20.1951Q88,20.0985,88,20ZM92,16L92,5Q92,4.90151,92.0192,4.80491Q92.0384,4.70831,92.0761,4.61732Q92.1138,4.52632,92.1685,4.44443Q92.2232,4.36254,92.2929,4.29289Q92.3625,4.22325,92.4444,4.16853Q92.5263,4.11381,92.6173,4.07612Q92.7083,4.03843,92.8049,4.01921Q92.9015,4,93,4L93,4Q93.0985,4,93.1951,4.01921Q93.2917,4.03843,93.3827,4.07612Q93.4737,4.11381,93.5555,4.16853Q93.6374,4.22325,93.7071,4.29289Q93.7767,4.36254,93.8315,4.44443Q93.8862,4.52632,93.9239,4.61732Q93.9616,4.70831,93.9808,4.80491Q94,4.90151,94,5L94,16Q94,16.0985,93.9808,16.1951Q93.9615,16.2917,93.9239,16.3827Q93.8862,16.4737,93.8315,16.5556Q93.7767,16.6375,93.7071,16.7071Q93.6374,16.7767,93.5556,16.8315Q93.4737,16.8862,93.3827,16.9239Q93.2917,16.9616,93.1951,16.9808Q93.0985,17,93,17L93,17Q92.9015,17,92.8049,16.9808Q92.7083,16.9616,92.6173,16.9239Q92.5263,16.8862,92.4444,16.8315Q92.3625,16.7767,92.2929,16.7071Q92.2232,16.6375,92.1685,16.5556Q92.1138,16.4737,92.0761,16.3827Q92.0384,16.2917,92.0192,16.1951Q92,16.0985,92,16ZM96,18L96,3Q96,2.90151,96.0192,2.80491Q96.0384,2.70831,96.0761,2.61732Q96.1138,2.52632,96.1685,2.44443Q96.2232,2.36254,96.2929,2.29289Q96.3625,2.22325,96.4444,2.16853Q96.5263,2.11381,96.6173,2.07612Q96.7083,2.03843,96.8049,2.01921Q96.9015,2,97,2L97,2Q97.0985,2,97.1951,2.01921Q97.2917,2.03843,97.3827,2.07612Q97.4737,2.11381,97.5555,2.16853Q97.6375,2.22325,97.7071,2.29289Q97.7767,2.36254,97.8315,2.44443Q97.8862,2.52632,97.9239,2.61732Q97.9616,2.70831,97.9808,2.80491Q98,2.90151,98,3L98,18Q98,18.0985,97.9808,18.1951Q97.9616,18.2917,97.9239,18.3827Q97.8862,18.4737,97.8315,18.5556Q97.7767,18.6375,97.7071,18.7071Q97.6375,18.7767,97.5555,18.8315Q97.4737,18.8862,97.3827,18.9239Q97.2917,18.9616,97.1951,18.9808Q97.0985,19,97,19L97,19Q96.9015,19,96.8049,18.9808Q96.7083,18.9616,96.6173,18.9239Q96.5263,18.8862,96.4444,18.8315Q96.3625,18.7767,96.2929,18.7071Q96.2232,18.6375,96.1685,18.5556Q96.1138,18.4737,96.0761,18.3827Q96.0384,18.2917,96.0192,18.1951Q96,18.0985,96,18ZM100,14L100,7Q100,6.90151,100.019,6.80491Q100.038,6.70831,100.076,6.61732Q100.114,6.52632,100.169,6.44443Q100.223,6.36254,100.293,6.29289Q100.363,6.22325,100.444,6.16853Q100.526,6.11381,100.617,6.07612Q100.708,6.03843,100.805,6.01921Q100.902,6,101,6L101,6Q101.098,6,101.195,6.01921Q101.292,6.03843,101.383,6.07612Q101.474,6.11381,101.556,6.16853Q101.637,6.22325,101.707,6.29289Q101.777,6.36254,101.831,6.44443Q101.886,6.52632,101.924,6.61732Q101.962,6.70831,101.981,6.80491Q102,6.90151,102,7L102,14Q102,14.0985,101.981,14.1951Q101.962,14.2917,101.924,14.3827Q101.886,14.4737,101.831,14.5556Q101.777,14.6375,101.707,14.7071Q101.637,14.7767,101.556,14.8315Q101.474,14.8862,101.383,14.9239Q101.292,14.9616,101.195,14.9808Q101.098,15,101,15L101,15Q100.902,15,100.805,14.9808Q100.708,14.9616,100.617,14.9239Q100.526,14.8862,100.444,14.8315Q100.363,14.7767,100.293,14.7071Q100.223,14.6375,100.169,14.5556Q100.114,14.4737,100.076,14.3827Q100.038,14.2917,100.019,14.1951Q100,14.0985,100,14ZM104,20L104,1Q104,0.901509,104.019,0.80491Q104.038,0.708311,104.076,0.617316Q104.114,0.526322,104.169,0.44443Q104.223,0.362537,104.293,0.292893Q104.363,0.223249,104.444,0.16853Q104.526,0.113811,104.617,0.0761205Q104.708,0.0384294,104.805,0.0192147Q104.902,0,105,0L105,0Q105.098,0,105.195,0.0192147Q105.292,0.0384294,105.383,0.0761205Q105.474,0.113811,105.556,0.16853Q105.637,0.223249,105.707,0.292893Q105.777,0.362537,105.831,0.44443Q105.886,0.526322,105.924,0.617316Q105.962,0.708311,105.981,0.80491Q106,0.901509,106,1L106,20Q106,20.0985,105.981,20.1951Q105.962,20.2917,105.924,20.3827Q105.886,20.4737,105.831,20.5556Q105.777,20.6375,105.707,20.7071Q105.637,20.7767,105.556,20.8315Q105.474,20.8862,105.383,20.9239Q105.292,20.9616,105.195,20.9808Q105.098,21,105,21L105,21Q104.902,21,104.805,20.9808Q104.708,20.9616,104.617,20.9239Q104.526,20.8862,104.444,20.8315Q104.363,20.7767,104.293,20.7071Q104.223,20.6375,104.169,20.5556Q104.114,20.4737,104.076,20.3827Q104.038,20.2917,104.019,20.1951Q104,20.0985,104,20ZM108,12L108,9Q108,8.90151,108.019,8.80491Q108.038,8.70831,108.076,8.61732Q108.114,8.52632,108.169,8.44443Q108.223,8.36254,108.293,8.29289Q108.363,8.22325,108.444,8.16853Q108.526,8.11381,108.617,8.07612Q108.708,8.03843,108.805,8.01921Q108.902,8,109,8L109,8Q109.098,8,109.195,8.01921Q109.292,8.03843,109.383,8.07612Q109.474,8.11381,109.556,8.16853Q109.637,8.22325,109.707,8.29289Q109.777,8.36254,109.831,8.44443Q109.886,8.52632,109.924,8.61732Q109.962,8.70831,109.981,8.80491Q110,8.90151,110,9L110,12Q110,12.0985,109.981,12.1951Q109.962,12.2917,109.924,12.3827Q109.886,12.4737,109.831,12.5556Q109.777,12.6375,109.707,12.7071Q109.637,12.7767,109.556,12.8315Q109.474,12.8862,109.383,12.9239Q109.292,12.9616,109.195,12.9808Q109.098,13,109,13L109,13Q108.902,13,108.805,12.9808Q108.708,12.9616,108.617,12.9239Q108.526,12.8862,108.444,12.8315Q108.363,12.7767,108.293,12.7071Q108.223,12.6375,108.169,12.5556Q108.114,12.4737,108.076,12.3827Q108.038,12.2917,108.019,12.1951Q108,12.0985,108,12ZM112,17L112,4Q112,3.90151,112.019,3.80491Q112.038,3.70831,112.076,3.61732Q112.114,3.52632,112.169,3.44443Q112.223,3.36254,112.293,3.29289Q112.363,3.22325,112.444,3.16853Q112.526,3.11381,112.617,3.07612Q112.708,3.03843,112.805,3.01921Q112.902,3,113,3L113,3Q113.098,3,113.195,3.01921Q113.292,3.03843,113.383,3.07612Q113.474,3.11381,113.556,3.16853Q113.637,3.22325,113.707,3.29289Q113.777,3.36254,113.831,3.44443Q113.886,3.52632,113.924,3.61732Q113.962,3.70831,113.981,3.80491Q114,3.90151,114,4L114,17Q114,17.0985,113.981,17.1951Q113.962,17.2917,113.924,17.3827Q113.886,17.4737,113.831,17.5556Q113.777,17.6375,113.707,17.7071Q113.637,17.7767,113.556,17.8315Q113.474,17.8862,113.383,17.9239Q113.292,17.9616,113.195,17.9808Q113.098,18,113,18L113,18Q112.902,18,112.805,17.9808Q112.708,17.9616,112.617,17.9239Q112.526,17.8862,112.444,17.8315Q112.363,17.7767,112.293,17.7071Q112.223,17.6375,112.169,17.5556Q112.114,17.4737,112.076,17.3827Q112.038,17.2917,112.019,17.1951Q112,17.0985,112,17ZM116,19L116,2Q116,1.90151,116.019,1.80491Q116.038,1.70831,116.076,1.61732Q116.114,1.52632,116.169,1.44443Q116.223,1.36254,116.293,1.29289Q116.363,1.22325,116.444,1.16853Q116.526,1.11381,116.617,1.07612Q116.708,1.03843,116.805,1.01921Q116.902,1,117,1L117,1Q117.098,1,117.195,1.01921Q117.292,1.03843,117.383,1.07612Q117.474,1.11381,117.556,1.16853Q117.637,1.22325,117.707,1.29289Q117.777,1.36254,117.831,1.44443Q117.886,1.52632,117.924,1.61732Q117.962,1.70831,117.981,1.80491Q118,1.90151,118,2L118,19Q118,19.0985,117.981,19.1951Q117.962,19.2917,117.924,19.3827Q117.886,19.4737,117.831,19.5556Q117.777,19.6375,117.707,19.7071Q117.637,19.7767,117.556,19.8315Q117.474,19.8862,117.383,19.9239Q117.292,19.9616,117.195,19.9808Q117.098,20,117,20L117,20Q116.902,20,116.805,19.9808Q116.708,19.9616,116.617,19.9239Q116.526,19.8862,116.444,19.8315Q116.363,19.7767,116.293,19.7071Q116.223,19.6375,116.169,19.5556Q116.114,19.4737,116.076,19.3827Q116.038,19.2917,116.019,19.1951Q116,19.0985,116,19ZM120,17L120,4Q120,3.90151,120.019,3.80491Q120.038,3.70831,120.076,3.61732Q120.114,3.52632,120.169,3.44443Q120.223,3.36254,120.293,3.29289Q120.363,3.22325,120.444,3.16853Q120.526,3.11381,120.617,3.07612Q120.708,3.03843,120.805,3.01921Q120.902,3,121,3L121,3Q121.098,3,121.195,3.01921Q121.292,3.03843,121.383,3.07612Q121.474,3.11381,121.556,3.16853Q121.637,3.22325,121.707,3.29289Q121.777,3.36254,121.831,3.44443Q121.886,3.52632,121.924,3.61732Q121.962,3.70831,121.981,3.80491Q122,3.90151,122,4L122,17Q122,17.0985,121.981,17.1951Q121.962,17.2917,121.924,17.3827Q121.886,17.4737,121.831,17.5556Q121.777,17.6375,121.707,17.7071Q121.637,17.7767,121.556,17.8315Q121.474,17.8862,121.383,17.9239Q121.292,17.9616,121.195,17.9808Q121.098,18,121,18L121,18Q120.902,18,120.805,17.9808Q120.708,17.9616,120.617,17.9239Q120.526,17.8862,120.444,17.8315Q120.363,17.7767,120.293,17.7071Q120.223,17.6375,120.169,17.5556Q120.114,17.4737,120.076,17.3827Q120.038,17.2917,120.019,17.1951Q120,17.0985,120,17ZM124,20L124,1Q124,0.901509,124.019,0.80491Q124.038,0.708311,124.076,0.617316Q124.114,0.526322,124.169,0.44443Q124.223,0.362537,124.293,0.292893Q124.363,0.223249,124.444,0.16853Q124.526,0.113811,124.617,0.0761205Q124.708,0.0384294,124.805,0.0192147Q124.902,0,125,0L125,0Q125.098,0,125.195,0.0192147Q125.292,0.0384294,125.383,0.0761205Q125.474,0.113811,125.556,0.16853Q125.637,0.223249,125.707,0.292893Q125.777,0.362537,125.831,0.44443Q125.886,0.526322,125.924,0.617316Q125.962,0.708311,125.981,0.80491Q126,0.901509,126,1L126,20Q126,20.0985,125.981,20.1951Q125.962,20.2917,125.924,20.3827Q125.886,20.4737,125.831,20.5556Q125.777,20.6375,125.707,20.7071Q125.637,20.7767,125.556,20.8315Q125.474,20.8862,125.383,20.9239Q125.292,20.9616,125.195,20.9808Q125.098,21,125,21L125,21Q124.902,21,124.805,20.9808Q124.708,20.9616,124.617,20.9239Q124.526,20.8862,124.444,20.8315Q124.363,20.7767,124.293,20.7071Q124.223,20.6375,124.169,20.5556Q124.114,20.4737,124.076,20.3827Q124.038,20.2917,124.019,20.1951Q124,20.0985,124,20ZM128,16L128,5Q128,4.90151,128.019,4.80491Q128.038,4.70831,128.076,4.61732Q128.114,4.52632,128.169,4.44443Q128.223,4.36254,128.293,4.29289Q128.363,4.22325,128.444,4.16853Q128.526,4.11381,128.617,4.07612Q128.708,4.03843,128.805,4.01921Q128.902,4,129,4L129,4Q129.098,4,129.195,4.01921Q129.292,4.03843,129.383,4.07612Q129.474,4.11381,129.556,4.16853Q129.637,4.22325,129.707,4.29289Q129.777,4.36254,129.831,4.44443Q129.886,4.52632,129.924,4.61732Q129.962,4.70831,129.981,4.80491Q130,4.90151,130,5L130,16Q130,16.0985,129.981,16.1951Q129.962,16.2917,129.924,16.3827Q129.886,16.4737,129.831,16.5556Q129.777,16.6375,129.707,16.7071Q129.637,16.7767,129.556,16.8315Q129.474,16.8862,129.383,16.9239Q129.292,16.9616,129.195,16.9808Q129.098,17,129,17L129,17Q128.902,17,128.805,16.9808Q128.708,16.9616,128.617,16.9239Q128.526,16.8862,128.444,16.8315Q128.363,16.7767,128.293,16.7071Q128.223,16.6375,128.169,16.5556Q128.114,16.4737,128.076,16.3827Q128.038,16.2917,128.019,16.1951Q128,16.0985,128,16Z" fill="#212529" fill-opacity="1"/></g></svg>