<svg xmlns="http://www.w3.org/2000/svg" xmlns:xlink="http://www.w3.org/1999/xlink" fill="none" version="1.1" width="24" height="24" viewBox="0 0 24 24"><g><g></g><g><path d="M9.92943,2.9999964237213135L18,3.0000000047513136C18.552300000000002,3.0000000047513136,19,3.4477154237213137,19,3.9999964237213135C19,4.552286423721314,18.552300000000002,4.9999964237213135,18,4.9999964237213135L10,4.9999964237213135C8.55752,4.9999964237213135,7.57626,5.002126423721314,6.84144,5.100916423721314C6.13538,5.195846423721314,5.80836,5.363216423721314,5.585789999999999,5.585786423721313C5.36322,5.808356423721314,5.19585,6.135376423721313,5.10092,6.841436423721314C5.00213,7.576256423721314,5,8.557516423721314,5,9.999996423721313L5,13.999996423721313C5,15.442496423721314,5.00213,16.423796423721313,5.10092,17.158596423721313C5.19585,17.864596423721313,5.36322,18.191596423721315,5.585789999999999,18.414196423721314C5.80836,18.636796423721314,6.13538,18.804196423721315,6.84144,18.899096423721314C7.57626,18.997896423721315,8.55752,18.999996423721313,10,18.999996423721313L18,18.999996423721313C18.552300000000002,18.999996423721313,19,19.447696423721315,19,19.999996423721313C19,20.552296423721312,18.552300000000002,20.999996423721313,18,20.999996423721313L9.92605,20.999996423721313C8.573450000000001,20.999996423721313,7.45796,20.999996423721313,6.57494,20.881296423721313C5.64711,20.756496423721313,4.8276900000000005,20.484496423721314,4.1715800000000005,19.828396423721312C3.5154680000000003,19.172296423721313,3.243499,18.35289642372131,3.118756,17.425096423721314C2.9999397571,16.541296423721313,2.9999669828,15.424696423721313,3,14.070596423721314L3,9.929356423721313C2.9999669828,8.575266423721313,2.9999397574,7.458676423721314,3.118756,6.574936423721313C3.243499,5.647106423721313,3.5154680000000003,4.827686423721314,4.1715800000000005,4.171576423721314C4.8276900000000005,3.5154644237213137,5.64711,3.2434954237213134,6.57494,3.1187524237213133C7.45868,2.9999361799213133,8.57531,2.9999634065213137,9.929400000000001,2.9999964237213135L9.92943,2.9999964237213135ZM14.2929,7.292896423721314C14.6834,6.902366423721313,15.3166,6.902366423721313,15.7071,7.292896423721314L19.7071,11.292896423721313C20.0976,11.683416423721313,20.0976,12.316586423721313,19.7071,12.707106423721314L15.7071,16.707096423721314C15.3166,17.097596423721313,14.6834,17.097596423721313,14.2929,16.707096423721314C13.9024,16.316596423721315,13.9024,15.683396423721314,14.2929,15.292896423721313L16.5858,12.999996423721313L8,12.999996423721313C7.44772,12.999996423721313,7,12.552286423721313,7,11.999996423721313C7,11.447716423721314,7.44772,10.999996423721313,8,10.999996423721313L16.5858,10.999996423721313L14.2929,8.707106423721314C13.9024,8.316586423721313,13.9024,7.683416423721313,14.2929,7.292896423721314Z" fill-rule="evenodd" fill="#212529" fill-opacity="1"/></g></g></svg>